<svg xmlns="http://www.w3.org/2000/svg" id="Layer_1" data-name="Layer 1" viewBox="0 0 417.47 496"><defs><style> .cls-1 {        fill: #fff;      }      .cls-1, .cls-2 {        fill-rule: evenodd;        stroke-width: 0px;      }      .cls-2 {        fill: #0d6efd;      } </style></defs><g><path class="cls-2" d="m318.05,232.12c0-1.68-1.36-3.04-3.04-3.04h-13.97c-1.14,0-2.18-.63-2.7-1.65-.52-1.01-.43-2.23.22-3.16,9.24-12.99,34.57-48.61,42.6-59.9.57-.8,1.49-1.28,2.48-1.28s1.91.48,2.48,1.28c8.03,11.29,33.36,46.91,42.6,59.9.66.93.74,2.15.22,3.16-.52,1.01-1.57,1.65-2.7,1.65h-13.97c-1.68,0-3.04,1.36-3.04,3.04v238.87c0,1.68-1.36,3.04-3.04,3.04h-45.08c-1.68,0-3.04-1.36-3.04-3.04v-238.87h0Z"/><path class="cls-2" d="m179.19,327.47c0-1.68-1.36-3.04-3.04-3.04h-45.08c-1.68,0-3.04,1.36-3.04,3.04v143.52c0,1.68,1.36,3.04,3.04,3.04h45.08c1.68,0,3.04-1.36,3.04-3.04v-143.52h0Z"/><path class="cls-1" d="m8,484.96c0,.81.32,1.58.89,2.15s1.34.89,2.15.89h380.14c.81,0,1.58-.32,2.15-.89.57-.57.89-1.34.89-2.15v-13.25c0-.81-.32-1.58-.89-2.15-.57-.57-1.34-.89-2.15-.89H11.04c-.81,0-1.58.32-2.15.89s-.89,1.34-.89,2.15v13.25Z"/><path class="cls-1" d="m250.37,165.44c-6.2-.18-11.45-4.95-12.07-11.27-.67-6.87,4.35-12.99,11.22-13.66l27.05-2.66c3.33-.33,6.64.69,9.21,2.83,2.57,2.14,4.18,5.21,4.46,8.54l2.32,27.08c.59,6.87-4.51,12.93-11.39,13.52-5.42.46-10.34-2.61-12.46-7.31-66.65,82.05-144.29,133.51-232.88,154.11-6.72,1.56-13.44-2.62-15.01-9.34-1.56-6.72,2.62-13.44,9.34-15.01,83.93-19.52,157.17-68.8,220.19-146.83h0Z"/><path class="cls-1" d="m343.63,8c36.37,0,65.85,29.48,65.85,65.85s-29.48,65.85-65.85,65.85-65.85-29.48-65.85-65.85S307.26,8,343.63,8Z"/></g><path class="cls-2" d="m377.21,460.67h17.01c4.42,0,8,3.58,8,8v19.33c0,4.42-3.58,8-8,8H8c-4.42,0-8-3.58-8-8v-19.33c0-4.42,3.58-8,8-8h17.01v-84.79c0-4.42,3.58-8,8-8h51.16c4.42,0,8,3.58,8,8v84.79h27.86v-136.24c0-4.42,3.58-8,8-8h51.16c4.42,0,8,3.58,8,8v136.24h27.84v-189.94c0-4.42,3.58-8,8-8h51.19c4.42,0,8,3.58,8,8v189.94h27.83v-223.59h-14.91c-2.99,0-5.74-1.67-7.11-4.33-1.37-2.66-1.14-5.86.59-8.3l48.49-68.19c1.5-2.11,3.93-3.36,6.52-3.36s5.02,1.25,6.52,3.36l48.49,68.19c1.73,2.44,1.96,5.64.59,8.3-1.37,2.66-4.12,4.33-7.11,4.33h-14.91v223.59Zm-336.2,0h35.16v-76.79h-35.16v76.79Zm95.02,0h35.16v-128.24h-35.16v128.24Zm95,0h35.19v-181.94h-35.19v181.94Zm95.02,0h35.16v-231.59c0-4.42,3.58-8,8-8h7.4l-32.98-46.39s-32.98,46.39-32.99,46.39h7.4c4.42,0,8,3.58,8,8v231.59Zm-310.05,19.33h370.22v-3.33H16v3.33ZM343.63,147.68c-40.67,0-73.84-33.17-73.84-73.84S302.96,0,343.63,0s73.84,33.17,73.84,73.84-33.17,73.84-73.84,73.84Zm0-16c31.86,0,57.84-25.99,57.84-57.84s-25.98-57.84-57.84-57.84-57.84,25.98-57.84,57.84,25.98,57.84,57.84,57.84Zm-8-97.1v-2.39c0-4.42,3.58-8,8-8s8,3.58,8,8v2.31c7.86,2.04,15.01,7.28,18.77,16.26,1.71,4.07-.21,8.76-4.28,10.47-4.07,1.71-8.76-.21-10.47-4.28-3.09-7.36-11.37-8.77-17.3-6.44-3.18,1.25-5.83,3.73-5.64,7.46v.02c.13,2.81,2.05,4.35,4.22,5.41,2.48,1.21,5.35,1.87,8.05,2.31h.01c12.39,2.04,25.81,7.87,27.58,22.6,1.7,14.06-9.12,22.5-20.94,25.06v2.15c0,4.42-3.58,8-8,8s-8-3.58-8-8v-2.28c-9.87-2.38-18.23-9.12-20.88-19.74-1.07-4.28,1.55-8.63,5.83-9.69,4.29-1.07,8.63,1.55,9.7,5.83,1.55,6.21,7.93,8.71,14.01,8.56h.02c2.78-.06,5.81-.65,8.36-1.9,2.36-1.16,4.39-3.01,4.02-6.07h0c-.4-3.34-2.75-5.09-5.38-6.29-2.78-1.26-5.95-1.95-8.9-2.44-12.18-1.98-25-8.31-25.68-22.76-.55-11.15,6.26-19.38,15.77-23.12,1.02-.4,2.07-.75,3.14-1.03h0Zm-98.18,133.96c-3.9-3.32-6.57-8.1-7.11-13.6-1.11-11.26,7.14-21.3,18.4-22.4l27.05-2.66c5.45-.54,10.9,1.13,15.11,4.64,4.21,3.51,6.85,8.55,7.32,14.01l2.32,27.08c.97,11.27-7.4,21.21-18.67,22.18-4.67.4-9.11-.8-12.78-3.15-66.58,79.45-143.77,129.39-231.43,149.77-11.02,2.56-22.05-4.3-24.61-15.32-2.56-11.02,4.3-22.05,15.32-24.61,79.33-18.45,148.83-64.13,209.09-135.93h0Zm19.14,1.92c-64.26,79.57-139.02,129.69-224.6,149.6-2.42.56-3.93,2.98-3.36,5.4.56,2.42,2.98,3.93,5.4,3.36,86.94-20.22,163.06-70.84,228.48-151.37,1.75-2.15,4.49-3.24,7.24-2.89s5.12,2.11,6.26,4.64c.76,1.69,2.54,2.8,4.49,2.63,2.47-.21,4.31-2.39,4.1-4.87l-2.32-27.08c-.1-1.2-.68-2.31-1.61-3.07s-2.12-1.14-3.32-1.02l-27.05,2.66c-2.47.24-4.28,2.45-4.04,4.92.22,2.28,2.11,3.99,4.34,4.06,3.04.09,5.77,1.89,7.04,4.65s.87,6.01-1.04,8.37h0Z"/></svg>