<svg xmlns="http://www.w3.org/2000/svg" id="a" viewBox="0 0 479.36 415.82"><defs><style> .cls-1 {        fill: #0d6efd;        stroke-width: 0px;      } </style></defs><path class="cls-1" d="m284.94,359.44l-9.12,5.28c-17.82,10.79-42.91,4.56-53.68-13.12-82.79,6.35-154.68-60.64-154.32-143.6,6.73-185.37,269.34-193.25,287.68-9.36l7.84-4.56c1.77-13.06,10.05-25.19,22.56-31.44-3.04-6.61-2.53-14.48,1.2-20.72,7.28-12.08,7.36-26.64.32-38.88-7.04-12.24-19.76-19.04-34.64-19.12-5.84.08-11.84-2.24-16.16-6.56-4.32-4.32-6.64-10.08-6.56-16.16.24-14.16-6.96-26.8-19.2-33.84-12.24-7.12-26.8-6.96-39.6.72-5.2,3.12-11.36,4-17.28,2.4-5.84-1.6-10.72-5.44-13.76-10.72C233.42,7.36,220.86,0,206.7,0s-26.64,7.36-33.92,20.4c-2.96,5.36-7.84,9.2-13.76,10.72-5.84,1.6-12,.8-17.28-2.4-12.08-7.28-26.64-7.36-38.88-.32-12.24,7.12-19.36,19.76-19.2,33.84.47,6.39-2.02,12.47-6.48,16.96-4.32,4.32-10.16,6.48-16.16,6.56-14.4,0-26.8,6.96-33.92,19.2-7.04,12.24-6.88,26.8.32,38.88,3.54,5.28,4.54,11.82,2.88,18-1.6,5.84-5.44,10.8-10.72,13.76-26.26,13.56-26.16,53.8.64,67.44,10.93,5.74,14.81,20.56,8.32,31.04-15.93,24.48,4.47,59.48,33.52,58,12.62-.67,23.96,10.06,23.52,22.72-1.51,29.15,33.62,49.41,58.08,33.6,10.36-7.18,25.78-3.22,31.76,7.84,13.56,26.25,53.8,26.17,67.44-.64,5.73-10.94,20.56-14.81,31.04-8.32,22.14,14.27,54.16-.66,57.44-26.88-4.15,2.66-9.01,4.37-13.92,4.32-1.82.3-29.91-4.96-32.48-5.28h0Z"/><path class="cls-1" d="m307.26,207.44c15.66-9.89,8-35.4-10.56-34.96h-48.32c-1.28,0-2.48-.8-2.88-2.08l-15.76-43.84c-5.42-16.64-30.42-16.68-35.84,0,0,0-15.76,43.84-15.76,43.84-.4,1.28-1.6,2.08-2.88,2.08h-48.32c-18.5-.43-26.28,25.05-10.56,34.96,0,0,37.28,24.56,37.28,24.56,1.2.8,1.68,2.32,1.2,3.6l-14.64,40.96c-6.51,16.68,13.7,32.64,28.4,22.32,0,0,41.52-27.36,41.52-27.36,1.04-.64,2.32-.64,3.36,0l29.76,19.6,1.68-.96,9.92-27.04c1.92-5.2,5.68-9.68,10.48-12.48l7.28-4.24-3.84-10.8c-.48-1.28,0-2.8,1.2-3.6l37.28-24.56h0Z"/><path class="cls-1" d="m437.54,180.8c-6.64-12.06-23.19-16.5-34.97-9.38l-11.09,6.4c-9.28,5.36-13.9,15.69-12.52,25.7l-105.57,60.95c-1.62.94-2.86,2.41-3.51,4.17l-11.97,32.54c-.24.08-14.09,8.08-14.09,8.08-26.99,16.67-3.94,56.61,24,41.57,0,0,13.86-8,13.86-8,.19-.17,34.35,5.74,34.35,5.74,1.84.32,3.74-.02,5.36-.95l83.14-48,8,13.85-34.64,20c-9.03,5.43-1.16,18.96,8,13.86,0,0,41.57-24,41.57-24,3.83-2.21,5.14-7.1,2.93-10.93l-12-20.78,8.56-4.94c7.97,6.35,19.7,7.24,28.54,1.99l11.09-6.41c12.21-7.06,16.42-22.75,9.37-34.97l-38.4-66.51h0Zm-121.64,151.52l-34.5-5.97-9.59-16.61,12.09-32.86,101.41-58.55c2.8,4.85,28.5,49.37,32,55.43l-101.41,58.55h0Z"/></svg>