<svg xmlns="http://www.w3.org/2000/svg" id="Layer_1" data-name="Layer 1" viewBox="0 0 480 480"><defs><style> .cls-1 {        fill: #0d6efd;        fill-rule: evenodd;        stroke-width: 0px;      } </style></defs><path class="cls-1" d="m318.95,347.62c-1.21,4.24-5.63,6.71-9.88,5.5-3.58-1.02-5.9-4.33-5.8-7.89-15.39,9.25-32.57,14.98-50.44,16.86-67.38,7.09-127.83-41.9-134.92-109.26-2.74-25.98,2.79-51.92,15.94-74.5,2.21-3.81,7.09-5.12,10.91-2.91s5.12,7.09,2.91,10.91c-11.44,19.65-16.26,42.26-13.88,64.87,6.17,58.64,58.8,101.18,117.42,95.01,15.19-1.6,29.81-6.37,42.96-14.13-3.67-.82-6.36-4.16-6.22-8.06.15-4.4,3.85-7.84,8.25-7.69l20.6.74c5.37-.19,9.47,4.93,7.97,10.18l-5.81,20.36Zm100.36-218.5l-20.13-77.8-5.59,1.5L313.38,6.51c-11.54-6.66-23.95-8.3-36.71-4.49l-138.8,41.44c-19.77,5.9-24.52,53.63,34.47,37.59l75.9-20.65c2.97-.81,5.89-1.3,8.78-1.49,8.12-10.75,21.02-12.58,33.1-7.68,13.21,5.35,28.39,16.18,41.32,23.65,3.81,2.19,5.13,7.06,2.94,10.88-2.19,3.81-7.06,5.13-10.88,2.94-13.1-7.56-25.88-15.85-39.39-22.65-8.85-3.58-17.93-.24-22.72,8.06-5.28,9.15-1.83,20.49,7.03,26.24,24.89,11.72,47.6,29.53,61.94,38.83,12.86,8.34,27.3,6.57,42.11,2.58l46.85-12.62Zm19.79,12.6l-28.52-110.2c-1.38-5.33,1.85-10.82,7.18-12.19l21.21-5.49c5.33-1.38,10.82,1.85,12.2,7.18l28.51,110.2c1.38,5.33-1.85,10.82-7.18,12.19l-21.21,5.49c-5.33,1.38-10.82-1.85-12.2-7.18h0Zm15.88-12.5c3.73.44,7.12-2.24,7.55-5.97.44-3.74-2.23-7.12-5.97-7.55-3.73-.44-7.12,2.24-7.55,5.97-.44,3.73,2.23,7.12,5.97,7.55ZM60.69,350.88l20.13,77.8,5.59-1.5,80.21,46.31c11.54,6.66,23.95,8.3,36.71,4.49l138.8-41.44c19.77-5.9,24.52-53.63-34.47-37.58l-75.9,20.65c-2.97.81-5.89,1.3-8.78,1.49-8.12,10.75-21.02,12.58-33.1,7.68-13.21-5.35-28.39-16.18-41.32-23.65-3.81-2.19-5.13-7.06-2.94-10.88,2.19-3.81,7.06-5.13,10.88-2.94,13.1,7.56,25.88,15.85,39.39,22.65,8.85,3.58,17.93.24,22.72-8.05,5.28-9.15,1.83-20.49-7.03-26.24-24.89-11.72-47.6-29.53-61.94-38.83-12.86-8.34-27.3-6.57-42.11-2.58l-46.85,12.61Zm-19.79-12.6l28.52,110.2c1.38,5.33-1.85,10.82-7.18,12.19l-21.21,5.49c-5.33,1.38-10.82-1.85-12.19-7.18L.32,348.79c-1.38-5.33,1.85-10.82,7.18-12.19l21.21-5.49c5.33-1.38,10.82,1.85,12.19,7.18h0Zm-15.88,12.5c-3.74-.44-7.12,2.23-7.56,5.97-.44,3.73,2.24,7.12,5.97,7.55,3.74.44,7.12-2.23,7.55-5.97.44-3.73-2.23-7.12-5.97-7.55Zm214.97-184.1c-17.06,0-30.89,13.83-30.89,30.89s13.83,30.89,30.89,30.89,30.89-13.83,30.89-30.89-13.83-30.89-30.89-30.89Zm-54.89,121.46h109.79c3.19,0,5.55-2.9,4.89-6.03-5.81-27.69-30.37-48.49-59.79-48.49s-53.98,20.8-59.79,48.49c-.65,3.12,1.7,6.03,4.9,6.03h0Zm161.05,13.52c13.15-22.58,18.67-48.51,15.94-74.5-7.09-67.36-67.54-116.36-134.92-109.26-17.88,1.88-35.04,7.59-50.44,16.86.09-3.56-2.22-6.86-5.8-7.88-4.24-1.21-8.67,1.26-9.88,5.5l-5.81,20.36c-1.49,5.25,2.6,10.37,7.97,10.18l20.6.74c4.4.15,8.1-3.29,8.25-7.69.14-3.9-2.54-7.24-6.21-8.06,13.14-7.74,27.77-12.54,42.95-14.13,58.62-6.17,111.25,36.38,117.42,95.01,2.38,22.61-2.43,45.22-13.88,64.87-2.21,3.81-.91,8.7,2.91,10.91,3.82,2.21,8.7.91,10.91-2.91h0Z"/></svg>