<svg xmlns="http://www.w3.org/2000/svg" id="Layer_1" data-name="Layer 1" viewBox="0 0 479.94 495.45"><defs><style> .cls-1 {        fill: #0d6efd;      }      .cls-1, .cls-2 {        stroke-width: 0px;      }      .cls-2 {        fill: #fff;      } </style></defs><path class="cls-1" d="m22.77,410.62h77.57v77.57H22.77v-77.57Z"/><path class="cls-1" d="m46.04,433.89v-23.27h-23.27v77.57h77.57v-23.27h-23.27c-17.13,0-31.03-13.89-31.03-31.03Z"/><path class="cls-1" d="m139.13,333.05h77.57v155.14h-77.57v-155.14Z"/><path class="cls-1" d="m162.4,433.89v-100.84h-23.27v155.14h77.57v-23.27h-23.27c-17.13,0-31.03-13.89-31.03-31.03Z"/><path class="cls-1" d="m371.84,177.91h77.57v310.28h-77.57V177.91Z"/><path class="cls-1" d="m395.11,433.89v-255.98h-23.27v310.28h77.57v-23.27h-23.27c-17.14,0-31.03-13.89-31.03-31.03Z"/><path class="cls-1" d="m255.48,255.48h77.57v232.71h-77.57v-232.71Z"/><path class="cls-1" d="m278.76,433.89v-178.41h-23.27v232.71h77.57v-23.27h-23.27c-17.13,0-31.03-13.89-31.03-31.03Z"/><path class="cls-2" d="m379.59,7.26v52.97c0,16.2,11.85,30.68,27.98,32.22,18.51,1.77,34.08-12.74,34.08-30.88V7.26h-62.06Z"/><path class="cls-2" d="m402.87,60.22V7.26h-23.27v52.97c0,16.2,11.85,30.68,27.98,32.22,5.28.5,10.25-.43,14.76-2.29-11.58-4.87-19.47-16.76-19.47-29.93Z"/><path class="cls-1" d="m464.92,480.94h-8.26V177.91c0-4.01-3.25-7.26-7.26-7.26h-77.57c-4.01,0-7.26,3.25-7.26,7.26v15.51c0,4.01,3.25,7.26,7.26,7.26s7.26-3.25,7.26-7.26v-8.26h63.06v295.77h-63.06V224.46c0-4.01-3.25-7.26-7.26-7.26s-7.26,3.25-7.26,7.26v256.48h-24.27v-225.45c0-4.01-3.25-7.26-7.26-7.26h-77.57c-4.01,0-7.26,3.25-7.26,7.26v225.45h-24.27v-147.88c0-4.01-3.25-7.26-7.26-7.26h-77.57c-4.01,0-7.26,3.25-7.26,7.26v147.88h-24.27v-23.77c0-4.01-3.25-7.26-7.26-7.26s-7.26,3.25-7.26,7.26v23.77H30.03v-63.05h63.05v8.25c0,4.01,3.25,7.26,7.26,7.26s7.26-3.25,7.26-7.26v-15.51c0-4.01-3.25-7.26-7.26-7.26H22.77c-4.01,0-7.26,3.25-7.26,7.26v70.31H7.26c-4.01,0-7.26,3.25-7.26,7.26s3.25,7.26,7.26,7.26h457.67c4.01,0,7.26-3.25,7.26-7.26s-3.25-7.26-7.26-7.26Zm-202.18-218.2h63.05v218.2h-63.05v-218.2Zm-116.36,77.57h63.06v140.63h-63.06v-140.63Z"/><path class="cls-1" d="m472.68,15.51h-23.77V7.26c0-4.01-3.25-7.26-7.26-7.26h-62.06c-4.01,0-7.26,3.25-7.26,7.26v8.26h-23.77c-4.01,0-7.26,3.25-7.26,7.26v7.76c0,18.84,13.67,34.52,31.61,37.69,2.73,15.6,14.93,27.97,30.44,30.94v40.47h-16.01c-4.01,0-7.26,3.25-7.26,7.26s3.25,7.26,7.26,7.26h46.54c4.01,0,7.26-3.25,7.26-7.26s-3.25-7.26-7.26-7.26h-16.02v-40.47c15.51-2.97,27.72-15.34,30.45-30.94,17.94-3.17,31.61-18.85,31.61-37.69v-7.76c0-4.01-3.25-7.26-7.26-7.26Zm-116.85,15.01v-.5h16.51v23.13c-9.57-3.07-16.51-12.06-16.51-22.63Zm78.57,31.09c0,13.07-10.64,23.71-23.71,23.71h-.12c-13.07,0-23.71-10.63-23.71-23.71V14.52h47.54v47.1Zm31.03-31.09c0,10.58-6.95,19.56-16.51,22.63v-23.13h16.51v.5Z"/><path class="cls-1" d="m22.78,334.49c1.38,0,2.78-.4,4.02-1.22l304.98-203.32-16.41,32.02c-1.83,3.57-.42,7.94,3.15,9.77,1.06.54,2.19.8,3.3.8,2.64,0,5.18-1.44,6.47-3.95l28.52-55.66c1.19-2.32,1.04-5.1-.38-7.28-1.42-2.18-3.9-3.43-6.51-3.28l-62.43,3.69c-4,.23-7.05,3.67-6.82,7.67.23,4,3.66,7.04,7.67,6.82l34.4-2.03L18.74,321.2c-3.33,2.22-4.24,6.73-2.01,10.06,1.4,2.1,3.7,3.24,6.04,3.24Z"/></svg>