<svg xmlns="http://www.w3.org/2000/svg" id="Layer_1" data-name="Layer 1" viewBox="0 0 468.17 494"><defs><style>      .cls-1 {        fill: #0d6efd;        fill-rule: evenodd;        stroke-width: 0px;      }    </style></defs><path class="cls-1" d="m242.25,179.87H17.94c-9.88,0-17.94,8.06-17.94,17.94v157.02c0,9.88,8.06,17.94,17.94,17.94h25.15v54.55l75.97-54.55h123.19c9.88,0,17.94-8.06,17.94-17.94v-157.02c0-9.88-8.06-17.94-17.94-17.94h0Zm-153.49,166.77c0,2.63-2.15,4.77-4.77,4.77h-18.51c-2.62,0-4.77-2.15-4.77-4.77v-82.47c0-2.63,2.15-4.77,4.77-4.77h18.51c2.62,0,4.77,2.15,4.77,4.77v82.47h0Zm106.96-48.65l-19.35,29.17c-12.52,18.87-18.39,24.44-30.65,24.25h-31.21c-2.81,0-5.26-.83-7.45-2.74v-84.78c19.17-33.29,34.96-59.64,34.96-59.64,6.39-7.45,19.24-.54,19.15,14.61-1.79,6.66-7.41,28.41-11.59,44.69l24.7-.2c18.42-.15,32.17,18.46,21.44,34.64h0Zm254.51-51.45h-174.03v108.29c0,18.71-15.23,33.94-33.94,33.94h-34.28v32.73c0,9.88,8.06,17.94,17.94,17.94h123.19l75.97,54.55v-54.55h25.15c9.88,0,17.94-8.06,17.94-17.94v-157.02c0-9.88-8.06-17.94-17.94-17.94h0Zm-26.83,162.86h-170.66c-4.42,0-8-3.58-8-8s3.58-8,8-8h170.66c4.42,0,8,3.58,8,8s-3.58,8-8,8h0Zm0-38.94h-123.27c-4.42,0-8-3.58-8-8s3.58-8,8-8h123.27c4.42,0,8,3.58,8,8s-3.58,8-8,8Zm0-38.94h-123.27c-4.42,0-8-3.58-8-8s3.58-8,8-8h123.27c4.42,0,8,3.58,8,8s-3.58,8-8,8Zm0-38.94h-123.27c-4.42,0-8-3.58-8-8s3.58-8,8-8h123.27c4.42,0,8,3.58,8,8s-3.58,8-8,8ZM454.9,0H161.57c-7.3,0-13.27,5.97-13.27,13.27v150.6h93.95c18.71,0,33.94,15.23,33.94,33.94v3.82h178.71c7.3,0,13.27-5.97,13.27-13.27V13.27C468.17,5.97,462.2,0,454.9,0h0Zm-83.34,108.41l-98.33,56.77c-5.86,3.39-13.15-.82-13.15-7.59V44.05c0-6.77,7.28-10.98,13.15-7.59l98.33,56.77c5.83,3.36,5.83,11.82,0,15.18h0Z"/></svg>