<svg xmlns="http://www.w3.org/2000/svg" id="Capa_1" data-name="Capa 1" viewBox="0 0 498 497.99"><defs><style>      .cls-1 {        fill: #0d6efd;        stroke-width: 0px;      }    </style></defs><path class="cls-1" d="m423.29,0c-22.21,0-41.06,14.62-47.46,34.73-3.78-2.24-7.6-4.38-11.45-6.41-4.06-2.13-9.07-.56-11.2,3.49s-.56,9.09,3.5,11.21c5.77,3.03,11.44,6.39,16.98,9.92,1.64,25.99,23.25,46.64,49.63,46.64s49.8-22.33,49.8-49.8S450.75,0,423.29,0Z"/><path class="cls-1" d="m234.15,8.62c-.44-4.56-4.49-7.9-9.05-7.48-15.92,1.52-31.74,4.59-47.03,9.13-4.39,1.3-6.9,5.93-5.59,10.32,1.06,3.61,4.37,5.94,7.95,5.94.78,0,1.58-.12,2.37-.35,14.26-4.23,29.02-7.1,43.88-8.52,4.56-.44,7.91-4.49,7.47-9.05Z"/><path class="cls-1" d="m320,10.29c-15.28-4.54-31.1-7.62-47.02-9.15-4.54-.41-8.62,2.91-9.06,7.47-.44,4.56,2.91,8.62,7.47,9.06,14.86,1.42,29.62,4.3,43.87,8.53.79.23,1.59.35,2.37.35,3.58,0,6.88-2.33,7.95-5.93,1.31-4.4-1.2-9.01-5.59-10.32Z"/><path class="cls-1" d="m470.74,343.08c-4.15-1.95-9.09-.14-11.03,4.01-1.88,4.02-3.91,8-6.03,11.94-8.42-6.52-18.94-10.43-30.39-10.43-27.46,0-49.8,22.33-49.8,49.8s22.34,49.8,49.8,49.8,49.8-22.33,49.8-49.8c0-9.71-2.84-18.76-7.67-26.43,3.33-5.84,6.5-11.79,9.33-17.85,1.94-4.15.15-9.09-4.01-11.03Z"/><path class="cls-1" d="m496.86,225.24c-.43-4.56-4.47-7.87-9.05-7.47-4.56.43-7.91,4.49-7.48,9.05.7,7.33,1.05,14.79,1.05,22.18,0,13.2-1.12,26.44-3.32,39.35-.77,4.51,2.27,8.81,6.79,9.58.47.08.94.12,1.4.12,3.97,0,7.48-2.85,8.17-6.91,2.37-13.84,3.56-28.01,3.56-42.15,0-7.91-.37-15.9-1.12-23.75Z"/><path class="cls-1" d="m19.91,288.29c-2.2-12.89-3.31-26.11-3.31-39.29,0-7.42.36-14.9,1.05-22.23.44-4.56-2.91-8.62-7.47-9.06-4.52-.39-8.62,2.91-9.05,7.47C.39,233.04,0,241.04,0,248.99c0,14.12,1.2,28.27,3.55,42.08.68,4.06,4.18,6.91,8.16,6.91.46,0,.94-.03,1.4-.12,4.52-.77,7.56-5.05,6.79-9.58Z"/><path class="cls-1" d="m365.17,215.8h-74.68v-33.18c0-9.16-7.45-16.62-16.62-16.62H124.51c-9.16,0-16.62,7.45-16.62,16.62v99.56c0,9.16,7.45,16.62,16.62,16.62h8.28v41.5c0,3.35,2.03,6.38,5.13,7.67,1.03.42,2.1.63,3.17.63,2.16,0,4.28-.85,5.87-2.43l47.38-47.37h4.86v33.18c0,9.16,7.45,16.62,16.62,16.62h79.54l47.37,47.37c1.59,1.59,3.72,2.43,5.88,2.43,1.06,0,2.15-.21,3.17-.63,3.1-1.29,5.12-4.32,5.12-7.67v-41.5h8.28c9.16,0,16.62-7.45,16.62-16.62v-99.56c0-9.16-7.45-16.62-16.62-16.62Zm-74.67,41.49c4.58,0,8.3,3.72,8.3,8.3s-3.72,8.3-8.3,8.3h-49.8c-4.58,0-8.3-3.72-8.3-8.3s3.72-8.3,8.3-8.3h49.8Zm-74.68-41.5c-9.16,0-16.62,7.45-16.62,16.62v49.78h-8.3c-2.2,0-4.32.87-5.87,2.43l-35.63,35.63v-29.76c0-4.58-3.72-8.3-8.3-8.3l-16.6-.02.02-99.58,149.38.02v33.18h-58.08Zm41.48,91.3h-16.6c-4.58,0-8.3-3.72-8.3-8.3s3.72-8.3,8.3-8.3h16.6c4.58,0,8.3,3.72,8.3,8.3s-3.72,8.3-8.3,8.3Zm83,0h-49.8c-4.58,0-8.3-3.72-8.3-8.3s3.72-8.3,8.3-8.3h49.8c4.58,0,8.3,3.72,8.3,8.3s-3.72,8.3-8.3,8.3Zm0-33.2h-16.6c-4.58,0-8.3-3.72-8.3-8.3s3.72-8.3,8.3-8.3h16.6c4.58,0,8.3,3.72,8.3,8.3,0,4.58-3.72,8.3-8.3,8.3Z"/><path class="cls-1" d="m166.82,466.39c-5.88-2.22-11.69-4.79-17.42-7.51v-2.4c0-12.37-5.54-23.36-14.15-30.96-10.4,23.11-33.6,39.28-60.55,39.28s-50.15-16.16-60.54-39.28c-8.61,7.61-14.16,18.6-14.16,30.96v33.22c0,4.58,3.72,8.3,8.3,8.3h132.8c4.58,0,8.3-3.72,8.3-8.3v-12.5c3.83,1.67,7.68,3.25,11.55,4.71.97.36,1.96.54,2.94.54,3.35,0,6.51-2.05,7.77-5.36,1.62-4.28-.54-9.07-4.83-10.7Z"/><path class="cls-1" d="m286.09,486.98c-.55-4.54-4.66-7.79-9.23-7.25-18.37,2.2-37.38,2.2-55.84-.02-4.56-.55-8.68,2.7-9.23,7.25-.55,4.55,2.7,8.68,7.25,9.23,9.88,1.2,19.97,1.79,29.95,1.79s20.01-.6,29.84-1.78c4.55-.54,7.79-4.67,7.25-9.23Z"/><path class="cls-1" d="m74.7,348.59c-11.44,0-21.96,3.92-30.39,10.43-2.12-3.93-4.15-7.91-6.03-11.94-1.94-4.15-6.88-5.96-11.03-4.01-4.15,1.94-5.95,6.88-4.01,11.03,2.83,6.06,6,12.01,9.33,17.85-4.83,7.67-7.67,16.72-7.67,26.43,0,27.46,22.34,49.8,49.8,49.8s49.8-22.33,49.8-49.8c0-27.46-22.33-49.8-49.8-49.8Z"/><path class="cls-1" d="m144.82,31.83c-2.13-4.06-7.15-5.62-11.2-3.49-3.85,2.02-7.68,4.17-11.45,6.41C115.76,14.62,96.91,0,74.7,0,47.24,0,24.9,22.34,24.9,49.81s22.34,49.79,49.8,49.79,48-20.65,49.64-46.64c5.54-3.53,11.2-6.9,16.97-9.92,4.06-2.13,5.63-7.15,3.5-11.2Z"/><path class="cls-1" d="m135.25,76.92c-10.4,23.11-33.6,39.28-60.55,39.28s-50.15-16.16-60.54-39.28C5.55,84.53,0,95.52,0,107.88v33.22c0,4.58,3.72,8.3,8.3,8.3h12.5c-1.68,3.82-3.26,7.68-4.72,11.55-1.63,4.29.53,9.08,4.82,10.71.97.36,1.96.54,2.94.54,3.35,0,6.51-2.05,7.77-5.36,2.23-5.88,4.79-11.7,7.51-17.43h101.98c4.58,0,8.3-3.72,8.3-8.3v-33.22c0-12.37-5.54-23.36-14.15-30.96Z"/><path class="cls-1" d="m483.84,76.92c-10.4,23.11-33.6,39.28-60.55,39.28s-50.15-16.16-60.54-39.28c-8.61,7.61-14.16,18.6-14.16,30.96v33.22c0,4.58,3.72,8.3,8.3,8.3h101.98c2.72,5.73,5.29,11.55,7.52,17.43,1.25,3.31,4.41,5.36,7.76,5.36.98,0,1.98-.17,2.94-.54,4.29-1.63,6.45-6.42,4.82-10.71-1.47-3.87-3.05-7.72-4.72-11.55h12.5c4.58,0,8.3-3.72,8.3-8.3v-33.22c0-12.36-5.54-23.36-14.15-30.96Z"/><path class="cls-1" d="m483.84,425.52c-10.4,23.11-33.6,39.28-60.55,39.28s-50.15-16.16-60.54-39.28c-8.61,7.61-14.16,18.6-14.16,30.96v2.4c-5.73,2.72-11.55,5.29-17.42,7.51-4.29,1.62-6.45,6.41-4.82,10.7,1.25,3.32,4.42,5.36,7.77,5.36.97,0,1.97-.17,2.94-.54,3.87-1.46,7.73-3.05,11.55-4.71v12.5c0,4.58,3.72,8.3,8.3,8.3h132.8c4.58,0,8.3-3.72,8.3-8.3v-33.22c0-12.36-5.55-23.36-14.16-30.96Z"/></svg>