<svg xmlns="http://www.w3.org/2000/svg" id="Layer_1" data-name="Layer 1" viewBox="0 0 388.13 512"><defs><style>      .cls-1 {        fill: #0d6efd;        stroke-width: 0px;      }    </style></defs><path class="cls-1" d="m376.25,404.48l-30.19,24.07c-7.77,6.21-11.88,14.77-11.88,24.69v3.66h-90.85v-31.52c0-8.02,2.64-14.94,7.94-20.95l69.36-78.38c6.15-6.97,16.33-8.39,24.09-3.85,1.05.62,2.07,1.33,3,2.18,7.91,7,8.67,19.19,1.67,27.13l-43.8,49.46c-1.64,1.9-1.47,4.82.4,6.49l.99.85c1.9,1.67,4.79,1.5,6.46-.4l43.77-49.49c10.83-12.22,9.67-31.07-2.55-41.9-3.2-2.81-6.83-4.79-10.66-6.01l-4.37-71.21c-.65-10.54,7.46-19.7,18-20.32,10.54-.65,19.7,7.43,20.35,18l10.06,140.54c.79,10.72-3.4,20.27-11.79,26.96h0Zm-23.5,62.9h-127.98c-4.34,0-7.88,3.54-7.88,7.85v28.88c0,4.34,3.54,7.88,7.88,7.88h127.98c4.34,0,7.88-3.54,7.88-7.88v-28.86c0-4.33-3.54-7.87-7.88-7.87Zm-298.77-14.15v3.66h90.82v-31.52c0-8.02-2.61-14.94-7.91-20.95l-69.36-78.38c-6.15-6.97-16.33-8.39-24.09-3.85-1.05.62-2.07,1.33-3,2.18-7.91,7-8.67,19.19-1.67,27.13l43.77,49.46c1.67,1.9,1.5,4.82-.37,6.49l-.99.85c-1.9,1.67-4.79,1.5-6.46-.4l-43.77-49.49c-10.83-12.22-9.67-31.07,2.55-41.9,3.2-2.81,6.83-4.79,10.66-6.01l4.37-71.21c.65-10.54-7.46-19.7-18-20.32-10.54-.65-19.7,7.43-20.35,18L.09,377.52c-.77,10.71,3.43,20.27,11.82,26.96l30.19,24.07c7.77,6.2,11.88,14.76,11.88,24.68Zm109.41,14.15H35.41c-4.34,0-7.88,3.54-7.88,7.88v28.86c0,4.34,3.54,7.88,7.88,7.88h127.98c4.34,0,7.88-3.54,7.88-7.88v-28.88c0-4.32-3.54-7.86-7.88-7.86Zm49.02-170.7l-6.26,9.86c-2.69,4.25-7.03,6.63-12.05,6.63-5.02-.03-9.35-2.41-12.02-6.66l-6.21-9.81c-3.97-6.29-12.05-8.48-18.65-5.02l-10.35,5.44c-4.45,2.32-9.38,2.21-13.75-.28-4.34-2.52-6.89-6.75-7.09-11.79l-.45-11.56c-.31-7.46-6.21-13.38-13.66-13.69l-11.68-.48c-5.02-.2-9.24-2.75-11.74-7.12-2.52-4.34-2.61-9.27-.28-13.72l5.41-10.29c3.46-6.58,1.3-14.66-4.99-18.65l-9.86-6.26c-4.25-2.69-6.63-7-6.63-12.02s2.38-9.35,6.63-12.05l9.81-6.18c6.29-3.97,8.48-12.05,5.02-18.65l-5.42-10.38c-2.32-4.45-2.24-9.38.28-13.72,2.52-4.37,6.75-6.92,11.76-7.09l11.59-.48c7.43-.28,13.38-6.21,13.66-13.63l.48-11.68c.23-5.02,2.78-9.24,7.11-11.76,4.37-2.49,9.3-2.61,13.75-.26l10.26,5.41c6.6,3.46,14.68,1.3,18.65-4.99l6.26-9.89c2.69-4.25,7.03-6.6,12.05-6.6s9.35,2.38,12.02,6.63l6.21,9.81c3.97,6.29,12.05,8.48,18.65,5.02l10.35-5.41c4.45-2.35,9.38-2.24,13.75.28,4.34,2.52,6.89,6.75,7.09,11.76l.47,11.6c.31,7.43,6.21,13.35,13.66,13.66l11.68.48c5.02.2,9.24,2.75,11.74,7.11,2.52,4.37,2.61,9.3.28,13.75l-5.41,10.26c-3.46,6.58-1.3,14.68,4.99,18.65l9.86,6.26c4.25,2.69,6.63,7,6.63,12.05s-2.38,9.35-6.63,12.02l-9.84,6.21c-6.29,3.97-8.45,12.05-4.99,18.62l5.41,10.37c2.32,4.45,2.24,9.38-.28,13.75-2.52,4.34-6.75,6.89-11.76,7.09l-11.59.45c-7.43.28-13.38,6.21-13.66,13.63l-.48,11.71c-.23,5.02-2.78,9.24-7.11,11.74-4.37,2.52-9.3,2.61-13.75.25l-10.26-5.39c-6.62-3.44-14.7-1.29-18.66,5.01h0Zm6.94-43.03c2.44,1.79,5.24,2.66,8.08,2.66s5.67-.88,8.08-2.61c2.44-1.76,4.14-4.2,5.02-6.92.88-2.69.91-5.64,0-8.48l-9.72-29.74,25.31-18.34c2.44-1.76,4.17-4.17,5.05-6.86.88-2.72.91-5.67-.03-8.53s-2.69-5.22-4.99-6.89-5.07-2.58-8.11-2.58l-31.27.06-9.61-29.76c-.91-2.83-2.69-5.22-4.99-6.89-2.32-1.7-5.13-2.66-8.11-2.66s-5.75.96-8.08,2.66c-2.3,1.67-4.08,4.05-4.99,6.89l-9.61,29.76-31.27-.06c-3.03,0-5.81.91-8.11,2.58s-4.05,4.03-4.99,6.89-.91,5.81-.03,8.53c.88,2.69,2.61,5.1,5.05,6.86l25.31,18.34-9.72,29.74c-.91,2.83-.88,5.78,0,8.48.88,2.72,2.58,5.16,5.02,6.92,2.41,1.73,5.22,2.61,8.08,2.61s5.64-.88,8.08-2.66l25.26-18.43,25.29,18.43Zm-4.56-50.29c.88-2.69,2.61-5.1,5.02-6.86l20.61-14.91-25.43.03c-3.03,0-5.81-.91-8.11-2.58s-4.05-4.05-4.99-6.94l-7.82-24.18-7.8,24.18c-.94,2.89-2.69,5.27-4.99,6.94s-5.07,2.58-8.11,2.58l-25.43-.03,20.61,14.91c2.41,1.76,4.14,4.17,5.02,6.86.88,2.72.91,5.67-.03,8.53l-7.91,24.18,20.55-15c2.47-1.79,5.27-2.66,8.08-2.66s5.64.88,8.11,2.66l20.55,15-7.91-24.18c-.93-2.86-.9-5.81-.02-8.53Zm-20.72-160.38c4.51,0,8.14-3.66,8.14-8.14V8.11c0-4.48-3.63-8.11-8.14-8.11s-8.11,3.63-8.11,8.11v26.73c0,4.48,3.63,8.14,8.11,8.14h0Zm74.15,19.84c3.88,2.24,8.84.91,11.08-2.98l13.35-23.13c2.24-3.85.91-8.82-2.95-11.08-3.88-2.24-8.84-.91-11.08,2.98l-13.35,23.13c-2.27,3.85-.93,8.81,2.95,11.08Zm65.37,57.23l23.13-13.35c3.88-2.24,5.22-7.2,2.95-11.08-2.24-3.88-7.2-5.19-11.08-2.95l-23.13,13.35c-3.85,2.24-5.19,7.2-2.95,11.08,2.23,3.89,7.19,5.19,11.08,2.95ZM108.86,59.81c2.24,3.88,7.17,5.22,11.06,3,3.88-2.24,5.22-7.2,2.98-11.06l-13.35-23.13c-2.21-3.88-7.17-5.22-11.06-3-3.86,2.24-5.22,7.17-2.98,11.06l13.35,23.13ZM31.44,106.7l23.13,13.35c3.88,2.24,8.84.94,11.08-2.95,2.24-3.88.91-8.84-2.95-11.08l-23.12-13.35c-3.88-2.24-8.84-.94-11.08,2.95-2.27,3.88-.94,8.84,2.94,11.08Z"/></svg>