<svg xmlns="http://www.w3.org/2000/svg" id="Layer_1" data-name="Layer 1" viewBox="0 0 503.98 209.97"><defs><style>      .cls-1 {        fill: #0d6efd;        stroke-width: 0px;      }    </style></defs><path class="cls-1" d="m227.43,167.69v30.75c0,6.33-5.16,11.53-11.53,11.53h-24.13v-53.8h24.13c6.36,0,11.53,5.19,11.53,11.53h0ZM215.91,0h-24.13v53.79h24.13c6.36,0,11.53-5.19,11.53-11.56V11.53C227.43,5.17,222.26,0,215.91,0ZM28.24,31.65C10.8,50.59,0,76.57,0,104.98s10.8,54.38,28.24,73.32c17.97,19.53,42.92,31.66,70.51,31.66h76.79v-53.79h-76.79c-11.94,0-22.93-5.44-31-14.23-8.62-9.35-13.98-22.43-13.98-36.97s5.35-27.59,13.98-36.97c8.06-8.76,19.06-14.2,31-14.2h76.79V0h-76.79c-27.59,0-52.54,12.12-70.51,31.65Zm319.95,61.91c4.15,0,7.95-1.7,10.69-4.44s4.44-6.53,4.44-10.69-1.7-7.98-4.44-10.71c-2.74-2.74-6.53-4.41-10.69-4.41s-7.98,1.67-10.72,4.41-4.41,6.53-4.41,10.71,1.67,7.95,4.41,10.69,6.54,4.44,10.72,4.44Zm28.59,54.8c-5.66-5.66-9.18-13.5-9.18-22.19,0-2.28.26-4.55.73-6.69-1.9-.47-3.91-.73-6.02-.73h-28.26c-6.75,0-12.91,2.71-17.38,7.12-4.47,4.41-7.31,10.49-7.45,17.16h.03v16.46c8.62,14.14,20.48,26.08,34.54,34.79v-2.98c0-11.3,4.64-21.57,12.06-28.99,6.19-6.22,14.37-10.46,23.47-11.69-.87-.69-1.7-1.44-2.52-2.25Zm36.33,18.14h-28.26c-6.81,0-13.03,2.79-17.52,7.31-4.49,4.49-7.28,10.69-7.28,17.49v11.19c12.03,4.82,25.17,7.48,38.92,7.48s26.92-2.65,38.95-7.48v-11.19c0-6.81-2.79-13-7.28-17.49-4.52-4.53-10.71-7.31-17.52-7.31h0Zm50.81-47.74h-28.27c-2.12,0-4.13.25-6.02.73.47,2.15.73,4.41.73,6.69,0,8.68-3.51,16.52-9.18,22.19-.81.81-1.64,1.57-2.51,2.26,9.09,1.23,17.24,5.47,23.47,11.69,7.42,7.42,12.06,17.69,12.06,28.99v2.98c14.07-8.7,25.92-20.65,34.54-34.79v-16.46h.03c-.14-6.66-2.98-12.75-7.45-17.16-4.49-4.42-10.63-7.13-17.38-7.13ZM398.97,0c-57.98,0-104.97,46.99-104.97,104.97,0,7.68.84,15.12,2.37,22.32,2.12-4.88,5.16-9.29,8.93-12.97,6.16-6.08,14.23-10.21,23.19-11.44-.87-.73-1.7-1.48-2.51-2.26-5.66-5.69-9.18-13.53-9.18-22.19s3.51-16.52,9.18-22.21c5.69-5.66,13.53-9.18,22.21-9.18s16.49,3.51,22.19,9.18c5.66,5.69,9.18,13.53,9.18,22.21s-3.51,16.49-9.18,22.19c-.81.78-1.64,1.54-2.51,2.26,1.67.23,3.32.56,4.94,1,1.09.28,2.15.61,3.18.97.26-.31.53-.59.81-.87,5.69-5.66,13.53-9.18,22.19-9.18s16.52,3.51,22.21,9.18c.28.28.56.56.81.87,1.03-.36,2.1-.7,3.15-.97,1.64-.44,3.29-.78,4.97-1-.87-.73-1.7-1.48-2.51-2.26-5.66-5.69-9.18-13.53-9.18-22.19s3.51-16.52,9.18-22.21c5.69-5.66,13.53-9.18,22.19-9.18s16.52,3.51,22.19,9.18c5.69,5.69,9.2,13.53,9.2,22.21s-3.51,16.49-9.2,22.19c-.78.78-1.61,1.54-2.48,2.26,8.96,1.23,17.02,5.35,23.19,11.44,3.74,3.68,6.81,8.09,8.93,12.97,1.54-7.2,2.37-14.65,2.37-22.32C503.96,46.99,456.94,0,398.97,0h0Zm50.81,93.55c4.18,0,7.95-1.7,10.69-4.44,2.77-2.74,4.44-6.53,4.44-10.69s-1.67-7.98-4.44-10.71c-2.74-2.74-6.5-4.41-10.69-4.41s-7.95,1.67-10.69,4.41-4.44,6.53-4.44,10.71,1.7,7.95,4.44,10.69,6.53,4.44,10.69,4.44Zm-50.81,47.74c4.18,0,7.98-1.67,10.72-4.44,2.74-2.74,4.41-6.5,4.41-10.69s-1.67-7.95-4.41-10.69-6.53-4.44-10.72-4.44-7.95,1.7-10.69,4.44-4.44,6.53-4.44,10.69,1.7,7.95,4.44,10.69c2.74,2.77,6.54,4.44,10.69,4.44ZM278.38,4.19h-23.41c-4.49,0-8.12,3.65-8.12,8.15s3.63,8.12,8.12,8.12h23.41c4.49,0,8.12-3.63,8.12-8.12,0-4.5-3.63-8.15-8.12-8.15Zm0,29.13h-23.41c-4.49,0-8.12,3.65-8.12,8.15s3.63,8.12,8.12,8.12h23.41c4.49,0,8.12-3.63,8.12-8.12,0-4.49-3.63-8.15-8.12-8.15Zm0,127.06h-23.41c-4.49,0-8.12,3.63-8.12,8.12s3.63,8.12,8.12,8.12h23.41c4.49,0,8.12-3.63,8.12-8.12,0-4.49-3.63-8.12-8.12-8.12Zm0,29.14h-23.41c-4.49,0-8.12,3.63-8.12,8.12s3.63,8.12,8.12,8.12h23.41c4.49,0,8.12-3.63,8.12-8.12,0-4.5-3.63-8.12-8.12-8.12Z"/></svg>