<svg xmlns="http://www.w3.org/2000/svg" xmlns:xlink="http://www.w3.org/1999/xlink" id="Layer_1" x="0px" y="0px" viewBox="0 0 100.7 147.2" style="enable-background:new 0 0 100.7 147.2;" xml:space="preserve"><style type="text/css">	.st0{fill:#AE611B;}	.st1{fill:#FAD6BE;}	.st2{fill:#F9CEB2;}	.st3{fill:#020202;}	.st4{fill:#CA0006;}	.st5{fill:#CE6329;}	.st6{fill:#2F3032;}	.st7{fill:#D5D7D8;}	.st8{fill:#0C0C0C;}	.st9{fill:#231F20;}	.st10{opacity:0.5;fill:#0C0C0C;}	.st11{opacity:0.5;fill:#0072A5;}	.st12{opacity:0.5;fill:#0E4EAC;}	.st13{fill:#0E4EAC;}	.st14{opacity:0.5;fill:#727244;}	.st15{opacity:0.7;fill:#8B8A55;}	.st16{fill:#FDC24A;}	.st17{fill:#FBD1B5;}	.st18{opacity:0.8;fill:#FBD1B5;}	.st19{fill:#8E4715;}	.st20{opacity:0.3;}	.st21{opacity:0.4;fill:#2A2A2B;}	.st22{opacity:0.5;fill:#2A2A2B;}	.st23{fill:#081E39;}	.st24{opacity:0.6;fill:#133467;}	.st25{fill:#133467;}	.st26{fill:#CD6925;}	.st27{fill:#C74F20;}	.st28{fill:#AD3916;}	.st29{fill:#680003;}	.st30{fill:#161616;}	.st31{opacity:0.5;fill:#F8BE7D;}	.st32{opacity:0.5;}	.st33{fill:#F8BE7D;}	.st34{opacity:0.5;fill:#F8BD7D;}	.st35{fill:#FEFDF2;}	.st36{fill:#F8BD7D;}	.st37{fill:#825017;}	.st38{fill:#2F1201;}	.st39{fill:#EAEFF2;}	.st40{fill:#281000;}	.st41{opacity:0.8;fill:#281000;}	.st42{fill:#CD6A26;}	.st43{fill:#80080F;}	.st44{fill:#EF7673;}	.st45{fill:#FFFFFF;}	.st46{opacity:0.4;}	.st47{fill:#F39793;}	.st48{fill:#CECECE;}	.st49{fill:#E98027;}	.st50{fill:none;}	.st51{fill:#980004;}	.st52{opacity:0.7;fill:#FFFFFF;}	.st53{opacity:0.8;}	.st54{fill:#E8E3E3;}	.st55{fill:#E5E5E5;}	.st56{fill:#A6A6A6;}	.st57{fill:#4F4F4F;}</style><g>	<g>		<g>			<g>				<path class="st0" d="M39,95.4c-0.5-1.7-1.3-3.2-2.2-4.7c-0.9-1.5-1.9-3-3-4.4c-1.2-1.4-2.2-2.7-4-3.2c0,0-0.1,0-0.1,0     c-2.7-0.9-5.5-1.3-8.3-1.3c-1.6,0-3.3,0-5,0.3c-1.2,0.2-2.5,0.5-3.5,1.2c-1.8,1.4-2.3,3.7-2.3,5.9c0,1.2,0.1,2.5,0.9,3.4     c0.9,1.1,2,2.1,3.1,3c0.2,0.2,0.4,0.4,0.5,0.6c0.8,0.8,1.7,1.6,2.5,2.4c1.7,1.8,3.5,3.5,5.4,5.1c1.8,1.6,3.5,3.3,5.3,4.9     c1.8,1.7,3.5,3.5,5.4,5.1c0,0,0.1,0,0.1,0c0.8,0.2,1.4-1.5,1.7-1.9c0.5-1,0.9-2,1.1-3.1c0,0,0.1-0.1,0.1-0.1c0,0,0,0,0,0     c0-0.1,0-0.2,0-0.2c0-0.2-0.1-0.1-0.2,0c-1.5-2-2.9-4-4.2-6.2c-1.4-2.2-2.7-4.5-4.1-6.8c-0.4-0.6-0.7-1.1-1.1-1.7     c0.6,0.3,1.3,0.6,1.9,0.8c1,0.4,2,0.8,3,1.1c2.1,0.5,4.1,1,6.2,1.3C39.1,97.3,39.2,96.2,39,95.4z"></path>				<path class="st1" d="M38.4,96.7C38.4,96.6,38.4,96.6,38.4,96.7c-2-0.4-4-0.8-5.9-1.3c-1-0.3-2-0.7-3-1c-0.5-0.2-1-0.4-1.5-0.6     c-0.5-0.2-1-0.3-1.4-0.6c-0.9-1.3-1.8-2.6-2.8-3.8c-0.8-1-1.6-1.9-2.5-2.8c-0.9-0.9-2-1.3-3-2.1c-0.1,0-0.2,0.1-0.1,0.1     c0.8,0.8,1.9,1.3,2.7,2.1c0.9,0.9,1.7,1.9,2.5,2.8c1.6,2,3.1,4.2,4.5,6.4c2.7,4.2,5,8.9,8.4,12.6c-0.2,0.6-0.4,1.2-0.5,1.8     c-0.1,0.4-1.2,3.4-2,3c0,0,0,0-0.1,0c-3.4-3.4-6.9-6.8-10.4-10.1c-2.7-2.5-5.3-5.3-8.1-7.8c0,0,0-0.1,0-0.1     c-0.9-0.9-1.9-1.8-2.8-2.7c-1-1-1.3-2.1-1.3-3.5c-0.1-2.4,0.4-4.9,2.6-6.2c1.2-0.7,2.8-0.8,4.1-1c1.4-0.1,2.7-0.1,4.1-0.1     c2.8,0.1,5.8,0.5,8.5,1.3c0,0,0,0,0,0c1.2,0.5,2,1.4,2.8,2.5c0.8,1.1,1.7,2.1,2.5,3.3c0.8,1.2,1.5,2.5,2.2,3.8     c0.3,0.6,0.6,1.2,0.8,1.8c0.1,0.3,0.2,0.6,0.3,1C38.8,96.3,38.8,96.6,38.4,96.7z"></path>				<path class="st1" d="M20.9,101.1c-1.7-1.9-3.6-3.7-5.5-5.5c-0.9-0.9-1.7-1.7-2.5-2.7c-0.6-0.7-1.2-1.5-1.4-2.5     c-0.4-1.8-0.1-3.8,0.4-5.6c-0.9,1.3-1.1,3-1,4.7c0.1,1.4,0.3,2.4,1.3,3.5c0.9,0.9,1.9,1.8,2.8,2.7c0,0,0,0,0,0.1     c2.4,2.2,4.7,4.5,7.1,6.8C21.7,102,21.3,101.5,20.9,101.1z"></path>				<path class="st2" d="M14.5,90.9c-0.6,0.7-1.4,1.7-2.3,2c0,0,0,0,0,0c0.4,0.4,0.8,0.8,1.1,1.1C14.2,93.3,14.7,91.8,14.5,90.9z"></path>				<path class="st2" d="M38.8,95.9c-0.1-0.3-0.2-0.7-0.3-1c-0.2-0.6-0.5-1.2-0.8-1.8c-0.7-1.3-1.4-2.6-2.2-3.8     c-0.8-1.2-1.7-2.2-2.5-3.3c-0.8-1.1-1.6-2-2.8-2.5c0,0,0,0,0,0c-2.7-0.9-5.6-1.3-8.5-1.3c-1.4,0-2.7,0-4.1,0.1     c-1.3,0.1-2.9,0.3-4.1,1c-0.7,0.4-1.2,0.9-1.6,1.5c0.1,0,0.1-0.1,0.2-0.1c1.4-0.8,3.1-0.1,4.4,0.6c1.6,1,3,2.3,4.3,3.6     c2.7,2.8,4.8,6.2,6.7,9.6c1,1.7,1.9,3.5,3,5.2c0.5,0.9,1.2,1.7,1.8,2.6c0.4,0.6,0.8,1.2,0.9,1.9c0.2,1.1-0.3,2.8-1.2,3.6     c0.6,0.6,1.2,1.2,1.8,1.8c0,0,0,0,0.1,0c0.7,0.3,1.8-2.6,2-3c0.2-0.6,0.3-1.2,0.5-1.8c-3.4-3.8-5.7-8.4-8.4-12.6     c-1.4-2.2-2.9-4.4-4.5-6.4c-0.8-1-1.6-1.9-2.5-2.8C20,86,19,85.5,18.2,84.7c-0.1-0.1,0.1-0.2,0.1-0.1c1,0.8,2.1,1.2,3,2.1     c0.9,0.9,1.7,1.8,2.5,2.8c1,1.2,1.9,2.5,2.8,3.8c0.5,0.2,1,0.4,1.4,0.6c0.5,0.2,1,0.4,1.5,0.6c1,0.3,2,0.7,3,1     c2,0.5,3.9,0.9,5.9,1.2c0,0,0.1,0,0.1,0.1C38.8,96.6,38.8,96.3,38.8,95.9z"></path>				<path class="st2" d="M29.9,99.4c-0.7-1.2-1.4-2.3-2.1-3.4c-1.4-2.2-2.9-4.4-4.5-6.4c-0.8-1-1.6-1.9-2.5-2.8     c-0.4-0.4-0.9-0.8-1.4-1.1c-0.3-0.2-0.6-0.3-0.9-0.4C22.6,89.8,25.5,95.3,29.9,99.4z"></path>				<path class="st2" d="M38.8,95.9c-0.1-0.3-0.2-0.7-0.3-1c-0.2-0.6-0.5-1.2-0.8-1.8c-0.7-1.3-1.4-2.6-2.2-3.8     c-0.8-1.2-1.7-2.2-2.5-3.3c-0.8-1.1-1.6-2-2.8-2.5c0,0,0,0,0,0c-1.5-0.5-3-0.8-4.5-1c1.9,1.2,3.7,2.6,5.1,4.4     c0.8,1,1.4,2.1,2,3.3c0.3,0.6,1.1,1.9,0.7,2.6c-0.5,0.9-1.8,0.3-2.5,0c-1.4-0.6-2.7-1.1-4-2c-1.5-1-3-2-4.5-3.1     c-0.3-0.3-0.7-0.5-1.1-0.8c0.8,0.8,1.5,1.6,2.2,2.5c1,1.2,1.9,2.5,2.8,3.8c0.5,0.2,1,0.4,1.4,0.6c0.5,0.2,1,0.4,1.5,0.6     c1,0.3,2,0.7,3,1c2,0.5,3.9,0.9,5.9,1.2c0,0,0.1,0,0.1,0.1C38.8,96.6,38.8,96.3,38.8,95.9z"></path>			</g>			<path class="st3" d="M44.2,111.5c0-0.6-0.2-1.3-0.5-1.8c-0.3-0.3-0.6-0.6-0.8-1c-0.6-0.5-1.2-0.9-1.7-1.4    c-1.6-0.7-3.4-0.9-4.9,0.2c-1.1,0.8-1.6,2.1-2.2,3.2c-0.7,1.2-2.4,1-2.9,2.4c-0.2,0.4-0.1,0.9,0,1.3c0.1,0.4,0.2,0.8,0.2,1.2    c0,0.5-0.2,0.9-0.3,1.4c-0.2,0.9-0.4,1.7-0.7,2.6c-0.3,0.8-0.7,1.5-1,2.2c-0.9,1.9-1.6,4.9-0.6,7c0.1,0.2,0.2,0.5,0.3,0.7    c0.4,0.5,1.2,0.7,1.8,0.8c0.7,0.1,1.2-0.2,1.6-0.6c1.4-1.2,2.5-2.8,3.6-4.2c1.1-1.5,2-3.3,3-4.9c1-1.7,2.3-3.2,3.5-4.8    C43.5,114.5,44.3,113.1,44.2,111.5z"></path>			<path class="st4" d="M29.7,121.4c0.5-1.1,1-2.1,1.3-3.3c0.3-1.2,0.7-2.3,0.5-3.6c-0.2-0.8-0.3-1.6,0.7-2.1c0.5-0.3,1-0.4,1.4-0.7    c0.9-0.6,1.3-2,1.9-2.9c0.9-1.3,2.3-1.9,3.8-1.6c0.6,0.1,1.2,0.3,1.7,0.6c-1.5,0.1-2.7,1.3-3.7,2.5c-0.6,0.8-1,1.7-1.4,2.5    c-0.5,1.1-1,2.2-1.6,3.3c-1.2,2.1-2.3,4.2-3.7,6.2c-0.9,1.2-1.8,2.4-2.2,3.8C28.5,124.5,29.1,122.7,29.7,121.4z"></path>			<path class="st4" d="M30.3,120.7c0.5-1,1.1-2.1,1.4-3.2c0.2-0.6,0.4-1.3,0.2-2c-0.1-0.4-0.2-0.9-0.3-1.3c-0.1-0.6-0.1-1,0.4-1.3    c0.8-0.4,1.7-0.8,2.3-1.5c0.7-0.8,1-1.7,1.3-2.7c0-0.1,0.1-0.2,0.1-0.3c-0.1,0.1-0.2,0.2-0.3,0.4c-0.6,0.9-1,2.3-1.9,2.9    c-0.4,0.3-0.9,0.5-1.4,0.7c-0.9,0.5-0.8,1.3-0.7,2.1c0.2,1.3-0.1,2.3-0.5,3.6c-0.3,1.2-0.8,2.2-1.3,3.3c-0.2,0.4-0.4,0.8-0.5,1.3    C29.6,122,30,121.3,30.3,120.7z"></path>			<path class="st5" d="M39.3,107.2c-1.6-0.3-2.9,0.3-3.8,1.6c-0.3,0.5-0.6,1.2-0.9,1.7c0.7-0.6,1.4-1.2,2.3-1.1    c0.1,0,0.1,0.2,0.1,0.2c-4.1,3.8-4.2,10.9-8.2,14.6c-0.2,0.6-0.3,1.3-0.3,1.9c0.3-1.4,1.3-2.6,2.2-3.8c1.4-2,2.5-4.1,3.7-6.2    c0.6-1.1,1.1-2.2,1.6-3.3c0.4-0.9,0.8-1.8,1.4-2.5c1-1.2,2.1-2.4,3.7-2.5C40.5,107.5,39.9,107.3,39.3,107.2z"></path>			<path class="st6" d="M28.7,127.5c0,0.2-0.1,0.3-0.1,0.5c-0.1-0.2-0.1-0.4-0.1-0.7v0c0-0.5,0-0.9,0.2-1.4c0.2-0.5,0.5-1.1,0.8-1.6    c0.5-0.9,1.1-1.7,1.7-2.5c1.1-1.6,2-3.3,2.9-4.9c0.5-0.9,1-1.7,1.4-2.6c0.4-0.9,0.7-1.8,1.2-2.6c0.5-0.9,1.1-1.8,1.9-2.5    c0.4-0.3,0.7-0.6,1.1-0.9c0.5-0.3,1.1-0.4,1.7-0.4c0.3,0.2,0.6,0.3,0.9,0.5c-0.1,0-0.2-0.1-0.3-0.1c-1.3-0.2-2.4,1.2-3.2,2    c0,0,0,0.1,0,0.1c-0.9,1-1.6,2.4-2.2,3.6c-0.8,1.6-1.7,3.1-2.5,4.7c-0.5,0.9-1.2,1.7-1.8,2.6c-0.5,0.8-1.1,1.6-1.6,2.3    c-0.3,0.4-0.6,0.9-0.9,1.4c0-0.1-0.5,0.7-0.6,1C28.9,126.5,28.8,127,28.7,127.5C28.7,127.5,28.7,127.5,28.7,127.5z"></path>			<path class="st7" d="M43.7,113.2c-0.4,1.4-1.5,2.6-2.4,3.7c-0.9,1.1-1.7,2.2-2.5,3.4c-0.7,1.2-1.4,2.5-2.1,3.7    c-0.8,1.4-1.9,2.6-2.9,3.9c-0.4,0.5-0.9,1-1.4,1.5c-0.8,0.8-1.8,0.8-2.8,0.3c-1.1-0.6-0.9-1.9-0.5-3c0.2-0.5,0.6-1,0.9-1.4    c0.5-0.7,1-1.4,1.5-2.1c1-1.3,2-2.7,2.8-4.1c0.8-1.4,1.5-2.9,2.3-4.3c0.8-1.5,1.5-3.1,2.6-4.4c0,0,0-0.1,0-0.1    c0.9-0.9,2-1.8,3.2-1.2C43.9,109.7,44.1,111.9,43.7,113.2z"></path>			<path class="st7" d="M43,110.1c-0.4,0-0.9,0-1.3,0.2c-0.9,0.3-1.6,1.1-2.2,1.8c-1.2,1.7-2.1,3.6-3.2,5.4    c-1.3,2.2-2.8,4.4-4.2,6.6c-1,1.6-2.7,3.2-3,5.1c0.1,0.2,0.3,0.3,0.5,0.5c1,0.5,1.9,0.6,2.8-0.3c0.5-0.5,0.9-1,1.4-1.5    c1-1.2,2.1-2.5,2.9-3.9c0.7-1.2,1.4-2.5,2.1-3.7c0.7-1.2,1.6-2.3,2.5-3.4c0.9-1.1,2-2.3,2.4-3.7c0.2-0.8,0.2-2.1-0.2-3    C43.3,110.1,43.1,110.1,43,110.1z"></path>		</g>		<path class="st0" d="M55.6,102.6c-0.6,0.3-1.1,0.5-1.7,0.8c-0.4-1.2-0.9-2.4-1.6-3.5c-0.7-1-1.6-1.8-2.6-2.5   c-1.9-1.3-4-1.9-6.3-1.5c0-0.1,0-0.1-0.1-0.1c-3.1,1-6.2,2.2-8.6,4.4c-2.4,2.1-3.6,5.2-4.8,8.1c-1.4,3.4-2.5,7-3.8,10.5   c-0.5,1.3-2.9,6.8-3.5,8.3c-0.7,1.7-1.6,3.4-2.3,5.2c-0.3,0.8-0.8,1.5-1.1,2.2c-0.2,0.6-0.1,0.9,0.5,1.2c0.6,0.3,1.3,0.5,2,0.8   c0.8,0.4,1.6,0.8,2.4,1.3c0,0.2-0.1,0.5-0.1,0.7c0,0.2,0.2,0,0.2-0.1c0-0.2,0.1-0.3,0.1-0.5c0,0,0,0,0.1,0   c0.2,0.1,0.4-0.2,0.3-0.3c-0.1,0-0.2-0.1-0.2-0.1c0.2-1,0.5-2,1-3c0.6-1.3,1.3-2.5,2.1-3.7c1.5-2.5,3.1-4.9,4.7-7.3   c1.6-2.5,3.3-5,4.8-7.5c1.1-1.9,2-3.9,3.2-5.8c0.2-0.2,0.4-0.5,0.7-0.6c0.6-0.4,1.3-0.6,2-0.9c1.3-0.5,2.6-1,3.8-1.6   c1.4-0.7,2.9-1.2,4.3-1.9c0.9-0.4,1.7-0.8,2.6-1.2c0,0,0,0.1,0,0.1c0,0.1,0.3-0.1,0.2-0.2c0,0,0,0,0,0c0.5-0.3,1.1-0.5,1.6-0.8   C55.6,102.8,55.7,102.6,55.6,102.6z"></path>		<path class="st1" d="M46.5,106.6c-1.4,0.7-3,1.3-4.4,1.8c-0.5,0.2-0.9,0.4-1.3,0.7c0.2-0.3,0.4-0.6,0.7-0.8c0.1-0.1,0-0.2-0.1-0.1   c-0.5,0.6-1,1.1-1.4,1.7c-0.2,0.2-0.3,0.4-0.5,0.7c0,0.1,0,0.1,0,0.1c-0.1,0.2-0.2,0.4-0.3,0.6c-0.7,1.3-1.4,2.7-2.1,4   c-1.6,2.7-3.4,5.4-5.1,8c-1.7,2.5-3.3,5-4.9,7.5c-1.2,2-2.5,4.1-2.9,6.5c-1.1-0.6-2.2-1.2-3.4-1.7c-0.3-0.1-0.7-0.2-1-0.4   c-0.6-0.3-0.1-1.1,0.1-1.6c0.4-0.8,0.8-1.6,1.1-2.4c0.6-1.4,1.3-2.8,1.9-4.2c0.5-1,1.6-3.6,1.8-4c2.2-5.2,3.4-8.9,5.1-13.4   c1.1-3.1,2.4-6.4,4.7-8.8c2.2-2.2,5.3-3.5,8.3-4.6c0.5-0.1,1-0.2,1.6-0.2c0.6,0,1.4,0.1,2,0.3c1.2,0.3,2.3,0.9,3.3,1.5   c2.1,1.4,3.2,3.4,4,5.7C51.2,104.5,48.8,105.5,46.5,106.6z"></path>		<path class="st2" d="M31.4,108.9c1.3,0.8,2.7,0.4,3.4-0.9c-0.9,0.1-1.9,0.3-2.8,0c-0.6-0.1-1-0.4-1.4-0.8   c-0.1,0.2-0.2,0.4-0.2,0.6C30.6,108.3,30.9,108.7,31.4,108.9z"></path>		<path class="st1" d="M31.3,106.3c1.1-2.3,2.5-4.6,4.6-6.2c1.4-1.1,2.9-2,4.4-2.9c-2.1,0.9-4.2,2-5.8,3.6c-2.3,2.4-3.6,5.7-4.7,8.8   c-0.3,0.9-0.6,1.7-0.9,2.5C29.6,110.1,30.4,108.2,31.3,106.3z"></path>		<path class="st2" d="M49.6,97.8c-1-0.7-2.1-1.3-3.3-1.5c-0.6-0.2-1.3-0.3-2-0.3c-0.5,0-1.1,0.1-1.6,0.2c-1.1,0.4-2.2,0.8-3.3,1.3   c0.6-0.1,1.1-0.2,1.7-0.1c1.6,0.1,3.3,1.2,3.6,2.9c0.4,2.3-2.3,3.8-4,4.8c-1,0.6-2.2,1.1-3.1,1.8c-1.6,1.2-3,2.7-4,4.4   c-2.2,3.5-3.8,7.5-5.7,11.3c-0.9,1.9-1.9,3.8-2.8,5.6c-0.7,1.4-1.4,2.9-2.7,3.8c0,0-0.1,0-0.1,0c-0.4-0.3-0.7-0.8-1-1.2   c-0.1,0.2-0.1,0.3-0.2,0.5c-0.4,0.8-0.7,1.6-1.1,2.4c-0.2,0.4-0.7,1.2-0.1,1.6c0.3,0.2,0.6,0.2,1,0.4c1.2,0.5,2.3,1.1,3.4,1.7   c0.4-2.3,1.7-4.4,2.9-6.5c1.6-2.5,3.2-5,4.9-7.5c1.7-2.6,3.5-5.3,5.1-8c0.7-1.3,1.4-2.7,2.1-4c0.1-0.2,0.2-0.4,0.3-0.6   c0,0,0-0.1,0-0.1c0.2-0.2,0.3-0.5,0.5-0.7c0.4-0.6,0.9-1.2,1.4-1.7c0.1-0.1,0.2,0,0.1,0.1c-0.2,0.3-0.5,0.6-0.7,0.8   c0.4-0.3,0.8-0.5,1.3-0.7c1.5-0.6,3-1.1,4.4-1.8c2.3-1.1,4.7-2.1,7.1-3.1C52.8,101.2,51.7,99.2,49.6,97.8z"></path>		<path class="st2" d="M43.8,97.1c1.3,0.5,2.4,1.4,3.1,2.6c1.1,1.8,1.5,3.9,1.5,6c1.7-0.8,3.5-1.5,5.3-2.2c-0.8-2.3-1.9-4.3-4-5.7   c-1-0.7-2.1-1.3-3.3-1.5c-0.6-0.2-1.3-0.3-2-0.3c-0.5,0-1.1,0.1-1.6,0.2c-0.5,0.2-1,0.4-1.6,0.6C42.1,96.8,43,96.8,43.8,97.1z"></path>		<path class="st3" d="M26.3,136.8c0-0.4,0.2-0.6,0.2-0.9c0-0.3-0.4-0.6-0.6-0.8c-0.6-0.4-0.9,0.1-1.2,0.5c0,0,0,0,0,0.1   c-0.4,0.1-0.7,0.2-1.1,0.2c-0.4-0.1-0.9-0.1-1.2-0.3c-0.2-1-0.8-1.7-1.9-2.1c-1.1-0.4-2.2-0.1-2.8,1c0,0,0,0,0,0   c-2.8,2.9-6.9,3.5-10.7,4.5c-1.5,0.4-3.2,0.9-4.2,2.1c-0.9,1-1,2.3,0.2,3.1c1.3,0.9,3.2,1.1,4.7,1.4c2,0.3,4,0.4,6.1,0.5   c2,0,4-0.2,5.9-0.8c0.9-0.3,1.7-0.7,2.5-1.1c1.1-0.6,2-1,3.3-1.2c0,0,0,0,0,0c0,0,0,0,0,0c0.1,0,0.2-0.1,0.3-0.2   c0.3-0.7,0.4-1.5,0.6-2.3c0.1-0.6,0.2-1.3,0.3-1.9C26.4,137.9,26.3,137.4,26.3,136.8z"></path>		<path class="st6" d="M23.1,143.3c-0.9,0.4-1.7,0.9-2.6,1.3c-1.8,0.8-3.8,1-5.7,1.1c-2,0.1-4-0.1-6-0.3c-1.7-0.2-3.4-0.5-5-1   c-0.6-0.2-1.3-0.6-1.6-1.3c-0.2-0.3-0.1-0.7-0.1-1c0,0.4,0.3,0.6,0.7,0.8c0.9,0.6,1.8,1,2.8,1.2c2.2,0.6,4.6,0.8,6.9,0.9   c2.2,0.1,4.5,0.1,6.6-0.7c1-0.4,2-0.9,3-1.4c1.1-0.5,2.3-0.8,3.5-1c-0.1,0.2-0.1,0.4-0.2,0.6C24.5,142.8,23.8,143,23.1,143.3z"></path>		<path class="st8" d="M26.1,136.7c-0.2,0.6,0,1.3,0,2c0,1-0.2,2.1-0.5,3.1c-1.9,0.3-3.5,1-5.1,1.8c-2,1-4.1,1.3-6.3,1.3   c-2.2,0-4.4-0.1-6.6-0.5c-1-0.2-1.9-0.4-2.8-0.7c-0.6-0.2-2.7-1-2.4-1.9c0,0,0,0,0,0c0.4-0.7,1.2-1.2,1.8-1.5   c1.6-0.9,3.4-1.2,5.2-1.6c2.9-0.7,6.4-1.5,8.3-4.1c0,0,0.1,0,0.1-0.1c0.6-1.2,1.8-1,2.9-0.6c0.9,0.4,1.3,1.2,1.5,2.1   c0.1,0.1,0.1,0.2,0.2,0.4c0-0.2,0-0.4,0-0.6c0.3,0.2,0.8,0.2,1.2,0.3c0.5,0.1,1-0.1,1.3-0.4c0,0,0.1-0.2,0-0.2   C25.5,134.8,26.4,135.8,26.1,136.7z"></path>		<path class="st5" d="M5.1,140.3c2-0.8,4-1.3,6.1-1.9c2.2-0.7,4.8-1.5,6.3-3.3c0.4-0.4,0.7-0.9,1.1-1.3c-0.3,0.1-0.6,0.4-0.8,0.8   c0,0.1-0.1,0.1-0.1,0.1c-1.9,2.5-5.4,3.4-8.3,4.1c-1.7,0.4-3.6,0.7-5.2,1.6c-0.6,0.3-1.4,0.9-1.8,1.5c0,0,0,0,0,0   c0,0.1,0,0.2,0,0.4C3,141.3,4.1,140.7,5.1,140.3z"></path>		<path class="st5" d="M24.8,135.6c0.1,0,0,0.1,0,0.2c-0.3,0.3-0.9,0.5-1.3,0.4c-0.4-0.1-0.9-0.1-1.2-0.3c0,0.2,0,0.4,0,0.6   c-0.1-0.1-0.1-0.2-0.2-0.4c-0.2-0.9-0.6-1.7-1.5-2.1c-0.9-0.4-2.1-0.6-2.7,0.3c0.6-0.2,1.1-0.2,1.7,0.4c0.4,0.5,0.8,1.1,0.6,1.7   c-0.3,0.9,0.8,1.3,1.3,1.9c0.5-0.5,0.8-1,1.4-1.3c0.1,0,0.2,0,0.2,0.1c0.2,1.4,0.2,3.3-1.2,4.1c-0.9,0.5-1.8,0.7-2.7,1   c-1.2,0.4-2.3,1-3.6,1.3c-2.4,0.5-4.7,0-7-0.6c-1.3-0.4-2.7-0.7-4-1.2c-0.6-0.2-1-0.5-1.5-0.9c-0.3,0.2-0.6,0.5-0.8,0.8   c0,0,0,0,0,0c-0.2,0.9,1.8,1.7,2.4,1.9c0.9,0.3,1.9,0.6,2.8,0.7c2.2,0.4,4.4,0.5,6.6,0.5c2.2,0,4.3-0.3,6.3-1.3   c1.7-0.9,3.3-1.6,5.1-1.8c0.3-1,0.5-2.1,0.5-3.1c0-0.6-0.2-1.3,0-2C26.4,135.8,25.5,134.8,24.8,135.6z"></path>		<path class="st9" d="M57.5,75.6C57.5,75.6,57.4,75.6,57.5,75.6c-0.1,0-0.2,0.1-0.1,0.1C57.4,75.6,57.4,75.6,57.5,75.6   C57.5,75.6,57.5,75.6,57.5,75.6z"></path>		<g>			<path class="st8" d="M76.4,86.7c0.3-0.8-0.2-0.8-1-0.9c-1.4-0.1-2.7,0-4.1-0.1c-2.8,0-5.7-0.3-8.5-0.5c-2.8-0.2-5.7-0.2-8.5-0.2    c-1.4,0-2.8,0-4.1,0.1c-0.6,0-0.9,0.3-1.2,0.6c-0.4,0.4-0.7,0.9-1,1.4c0,0.1-0.1,0.2-0.1,0.2c-0.8-0.4-1.7-0.8-2.5-1.1    c-1.7-0.7-3.4-1.3-5.2-1.7c-1.7-0.3-3.4-0.9-5.1-1.2c-1.7-0.4-3.4-0.5-5.1-0.9c0,0,0,0,0,0c-0.3-0.1-0.5-0.3-0.8-0.3    c-0.6,0-1.2-0.1-1.8,0.2c-0.1,0-0.2,0.2-0.1,0.3c0.7,0.5,1.6,0.7,2.3,1.2c0.9,0.5,1.7,1.1,2.4,1.8c1.5,1.4,2.8,3.2,3.9,5    c0.5,0.8,1,1.7,1.3,2.7c0.4,1,0.6,2.1,0.9,3.2c0.1,0.5,0.2,1.3,0.8,1.3c0.6,0,1.2-0.5,1.7-0.9c0.2-0.1,0.3-0.2,0.5-0.3    c0,0,0.1,0,0.1,0c0.1,0,0.2-0.1,0.4-0.1c0.1,0,0.2,0,0.3-0.1c0.4,0,0.7,0,1.1,0.1c0.7,0.2,1.5,0.6,2.2,0.9    c1.4,0.7,2.7,1.6,3.8,2.7c1.1,1.1,2,2.4,2.8,3.7c0.8,1.4,1.2,2.9,1.3,4.5c0,0,0,0,0,0c0,0,0,0.1,0,0.1c0,0,0,0,0,0    c0.2,0,0.4,0,0.6-0.1c0,0,0,0,0.1,0c0.2-0.1,0.5-0.1,0.8-0.2c0.4-0.1,0.8-0.3,1.2-0.4c0,0,0-0.1,0-0.1c0-0.1,0.1-0.2,0-0.2    c0-0.2,0-0.5,0-0.7c1-0.2,1.9-0.5,2.9-0.8c1.4-0.4,2.9-0.8,4.3-1.4c2.7-1.1,5.5-2.3,7.9-4.1c2.1-1.5,3.7-3.9,4.6-6.3    C76.2,92,76.8,89.3,76.4,86.7z"></path>			<g>				<path class="st8" d="M38.4,97.1c-0.3-0.9-0.5-1.8-0.7-2.7c-0.4-1.7-1.3-3.3-2.2-4.7c-1-1.5-2.1-2.9-3.4-4.2     c-0.7-0.6-1.4-1.2-2.2-1.7c-0.7-0.5-1.5-0.8-2.3-1.2c0.3-0.1,0.7,0,1,0c0.3,0,0.7,0,0.9,0.2c0,0,0,0,0.1,0     c2.6,1.6,4.6,3.9,6.3,6.4c0.9,1.3,1.7,2.7,2.4,4c0.4,0.7,0.7,1.5,1,2.3c0.2,0.5,0.3,1.2,0.6,1.6C39.3,97.4,38.7,97.8,38.4,97.1z     "></path>				<path class="st8" d="M55.3,107.7c-0.3,0.1-0.6,0.2-0.9,0.3c-0.4,0.1-0.7,0.2-1.1,0.3c0,0,0,0-0.1,0c0.2-3-1.9-5.9-3.8-8     c-1.1-1.2-2.3-2.1-3.7-2.8c-0.7-0.4-1.5-0.6-2.2-0.9c-0.5-0.2-1-0.2-1.5-0.2c0-0.1,0-0.1-0.1-0.1c-0.2,0-0.3,0-0.5,0     c0.1-0.1,0.3-0.2,0.4-0.2c0.2-0.2,0.4-0.4,0.7-0.5c0,0,0,0,0,0c0.2,0,0.3,0,0.5,0c0,0.1,0,0.1,0,0.1c0.1,0,0.2,0,0.2-0.1     c2.9,0.2,5.8,1.8,7.9,3.8c1.2,1.2,2.1,2.7,2.9,4.2c0.3,0.7,0.6,1.4,0.9,2.1c0.1,0.4,0.2,0.7,0.3,1.1l0,0     c0.1,0.2,0.1,0.4,0.1,0.6c0,0.1,0,0.1-0.1,0.1C55.3,107.6,55.3,107.6,55.3,107.7z"></path>				<path class="st8" d="M69.7,101c-4.2,2.8-9.3,4.4-14.2,5.6c-0.2-1.1-0.6-2.1-1.1-3.1c-0.7-1.5-1.7-3.1-2.8-4.3     c-1.1-1.2-2.6-2.1-4-2.8c-1.1-0.5-2.4-0.9-3.7-1c1.7-0.5,3.3-1.1,4.9-1.7c0.9-0.3,1.8-0.7,2.7-1c1.1-0.4,2.3-0.6,3.5-0.7     c2.2-0.2,4.4,0,6.5,0.3c1.7,0.3,3.3,0.9,4.9,1.4c-0.2-0.2-0.4-0.4-0.5-0.6c-2.9-1.1-6.1-1.7-9.2-1.6c0.9-0.1,1.8-0.3,2.6-0.4     c1.3-0.2,2.6-0.2,3.9-0.1c-0.4-0.1-0.9-0.2-1.3-0.3c-0.2,0-0.4,0-0.5,0c-0.7,0-1.5,0.1-2.2,0.2c-0.8,0.1-1.5,0.1-2.3,0.3     c-0.5,0.1-1.1,0.2-1.5,0.4c0,0,0,0-0.1,0c-1,0.1-2.1,0.2-3,0.5c-1,0.3-2,0.7-3,1.1c-0.2,0.1-0.3,0.1-0.5,0.2     c-0.9-1.4-2.1-2.6-3.1-4c0-0.1-0.2,0.1-0.1,0.1c0.9,1.3,1.8,2.8,2.8,4c-0.8,0.3-1.6,0.6-2.3,0.9c-1,0.4-1.9,0.6-2.9,1     c-0.3,0-0.5,0-0.8,0c0,0,0,0-0.1,0c0,0,0,0,0,0c0,0,0,0,0,0c0,0-0.1,0-0.1,0.1c-0.3,0.2-0.5,0.4-0.8,0.6     c-0.2,0.1-0.4,0.3-0.5,0.4c-0.2,0.1-0.4,0.2-0.6,0.3c-0.5,0.3-0.6-0.3-0.7-0.6c-0.3-0.8-0.6-1.7-1-2.5c-0.6-1.5-1.5-2.9-2.5-4.3     c-1.6-2.4-3.5-4.6-5.8-6.2c1.3,0.2,2.7,0.4,4,0.6c1.7,0.4,3.4,0.9,5.1,1.2c1.7,0.3,3.4,0.9,5,1.5c0.7,0.3,1.5,0.6,2.2,0.9     c0.2,0.1,0.5,0.2,0.7,0.3c0.3,0.1,0.6,0.2,0.9,0.4c0.2,0.1,0.4,0.1,0.5,0.2c-0.3-0.2-0.6-0.4-0.9-0.6c0.2-0.5,0.4-0.9,0.7-1.3     c0.1-0.1,0.3-0.3,0.4-0.4c0.4-0.5,1.1-0.4,1.7-0.4c1.2,0,2.4,0,3.6,0c2.5,0,4.9,0,7.4,0.2c2.5,0.1,5,0.3,7.5,0.5     c1.1,0.1,2.3,0.1,3.4,0.1c0.6,0,1.2,0,1.8,0c0.5,0,1.9-0.2,1.6,0.8c0,0.1,0,0.1,0.1,0.1C76.7,92.2,74.1,98.1,69.7,101z"></path>				<path class="st8" d="M53.3,92.5c0.8-0.2,1.6-0.5,2.3-0.6c-0.2,0-0.4,0-0.6,0c-1.2,0.1-2.3,0.3-3.5,0.7c-0.9,0.3-1.8,0.7-2.7,1     c-1.6,0.6-3.3,1.2-4.9,1.7c0.6,0,1.1,0.2,1.6,0.3c0.7-0.3,1.5-0.6,2.2-0.9C49.6,93.9,51.4,93.1,53.3,92.5z"></path>				<path class="st8" d="M32.4,83.5c0.8,0.5,1.7,0.9,2.6,1.2c1.4,0.4,2.9,0.8,4.3,1.3c0.3,0.1,0.7,0.1,1,0.2     c1.8,0.3,3.6,0.7,5.3,1.4c0.4,0.2,2.3,1.1,2.4,0.1c-0.2-0.1-0.3-0.1-0.5-0.2c-0.3-0.1-0.5-0.2-0.7-0.3c-0.7-0.3-1.5-0.6-2.2-0.9     c-1.6-0.7-3.3-1.2-5-1.5c-1.7-0.4-3.4-0.9-5.1-1.2c-0.9-0.2-1.7-0.3-2.6-0.4C32.1,83.3,32.2,83.4,32.4,83.5z"></path>			</g>		</g>		<path class="st10" d="M76.4,86.7c0.3-0.8-0.2-0.8-1-0.9c-1.4-0.1-2.7,0-4.1-0.1c-2.8,0-5.7-0.3-8.5-0.5c-2.8-0.2-5.7-0.2-8.5-0.2   c-1.4,0-2.8,0-4.1,0.1c-0.6,0-0.9,0.3-1.2,0.6c-0.4,0.4-0.7,0.9-1,1.4c0,0,0,0.1-0.1,0.1c1,1.2,2.6,2.1,3.8,2.7   c0.1,0.1,0.1,0.2,0,0.3c-1.3,0.4-2.9,1.4-4.2,0.4c-0.7-0.5-1.1-1.2-1.7-1.9c-0.4-0.5-0.9-1.1-1.5-1.4c0.5,1.1,1.2,2,1.8,3   c0.2,0.4,0.8,1.3,0.4,1.8c-0.2,0.3-0.6,0.4-0.9,0.4c-0.6,0.2-1.1,0.4-1.7,0.5c-1.1,0.3-2.3,0.7-3.4,0.8c-1,0.1-1.5-0.5-1.9-1.4   c-0.5-1.1-1-2.1-1.6-3.1c-0.8-1.2-1.7-2.4-2.8-3.4c0.5,0.7,0.9,1.4,1.3,2.1c1,1.8,1.7,3.6,2.4,5.5c0.1,0.2-0.2,0.2-0.3,0.1   c-0.4-0.7-0.8-1.4-1.2-2c0.3,0.5,0.5,1.1,0.8,1.7c0.4,1,0.6,2.1,0.9,3.2c0.1,0.5,0.2,1.3,0.8,1.3c0.6,0,1.2-0.5,1.7-0.9   c0.2-0.1,0.3-0.2,0.5-0.3c0,0,0.1,0,0.1,0c0.1,0,0.2-0.1,0.4-0.1c0,0,0.1,0,0.1,0c0.4-0.6,0.8-0.9,1.5-1c0.3-0.1,0.6-0.1,0.9-0.2   c0,0,0-0.1,0.1-0.1c0.1,0,0.2-0.1,0.4-0.1c0.7-0.2,1.5-0.5,2.2-0.8c0.1,0,6.9-2,10.5-2.1c3.6,0,7.7,0.8,10.4,3.3   c0.1,0.1,0,0.3-0.1,0.2c-2.3-0.1-4.7-0.9-7-0.3c0.3,0.1,0.7,0.1,1.1,0.3c0.6,0.2,1.2,0.5,1.8,0.7c0.7,0.3,1.7,0.5,2.2,1.2   c0.6,0.7-0.2,1.3-0.9,1.6c-1.2,0.5-2.5,0.9-3.7,1.3c-1.6,0.5-3.3,1.1-5,0.9c-1.4-0.1-2.4-1.5-3.5-2.3c-1.5-1.2-3.1-2.2-4.9-2.8   c-1.2-0.4-2.4-0.8-3.6-0.6c1.3,0.3,2.7,1,3.3,1.3c3,1.5,5.3,3.7,6.3,7c0,0.1-0.1,0.2-0.2,0.2c-0.7-0.4-1.4-0.9-2.2-1.2   c0.2,0.3,0.4,0.6,0.5,0.8c0.8,1.4,1.2,2.9,1.3,4.5c0,0,0,0,0,0c0,0,0,0.1,0,0.1c0,0,0,0,0,0c0.2,0,0.4,0,0.6-0.1c0,0,0,0,0.1,0   c0.2-0.1,0.5-0.1,0.8-0.2c0.4-0.1,0.8-0.3,1.2-0.4c0,0,0-0.1,0-0.1c0-0.1,0.1-0.2,0-0.2c0-0.2,0-0.5,0-0.7c1-0.2,1.9-0.5,2.9-0.8   c1.4-0.4,2.9-0.8,4.3-1.4c2.7-1.1,5.5-2.3,7.9-4.1c2.1-1.5,3.7-3.9,4.6-6.3C76.2,92,76.8,89.3,76.4,86.7z M71.8,91.6   c-0.9,1.2-2.1,0.7-3.4,0.4c-1.8-0.5-3.7-0.2-5.5-0.6c-0.2,0-0.1-0.2,0-0.3c1.6-0.6,3.2-0.7,4.9-0.8c1.1-0.4,2.4-0.8,3.5-0.6   C72.4,90,72.4,90.8,71.8,91.6z"></path>		<path class="st11" d="M43,95.6c0.3-0.1,0.6-0.1,0.9-0.2c0,0,0-0.1,0.1-0.1c0.1,0,0.2-0.1,0.4-0.1c0.4-0.1,0.9-0.3,1.3-0.5   c0.8-0.3,1.6-0.7,2.4-1.1c2.2-0.9,4.5-1.7,6.9-2.1c-0.9-0.1-1.7-0.1-2.6,0c-1,0.1-2,0.5-3,0.4c-1.3-0.1-2.2-1.2-3.3-1.8   c0.4,0.9,1.9,1.6,1.5,2.7c-0.1,0.4-0.8,0.5-1.1,0.5c-1,0.2-1.9,0.6-2.8,0.9c-0.8,0.3-1.5,0.7-2.2,1c-0.4,0.2-1,0.4-1.5,0.2   c-0.2-0.1-0.2-0.2-0.3-0.3c-0.2-0.4-0.5-0.8-0.7-1.2c-0.2-0.3-0.5-0.6-0.7-0.8c0.2,1.1,0.2,2.2,0.7,3.2c0.1,0.1-0.1,0.3-0.2,0.2   c-0.4-0.4-0.7-0.8-1.1-1.2c0.1,0.4,0.2,0.8,0.3,1.2c0.1,0.5,0.2,1.3,0.8,1.3c0.6,0,1.2-0.5,1.7-0.9c0.2-0.1,0.3-0.2,0.5-0.3   c0,0,0.1,0,0.1,0c0.1,0,0.2-0.1,0.4-0.1c0,0,0.1,0,0.1,0C41.9,96,42.3,95.7,43,95.6z"></path>		<path class="st12" d="M76.4,86.7c0.3-0.8-0.2-0.8-1-0.9c-0.6,0-1.2,0-1.7-0.1c0.1,0.8,0.1,1.6,0,2.4c-0.2,1.3-0.4,2.8-1,4   c-0.5,1.2-1.4,2.3-2.8,1.8c-1.4-0.5-2.9-1.2-4.5-1.4c1.1,0.6,2.1,1.4,2.9,2.3c0.6,0.7,1.6,1.5,1.5,2.5c-0.2,1.7-2.6,2.7-4,3.2   c-2.7,1.1-5.4,2.1-8.2,2.7c-1.2,0.3-2.2,0.3-3-0.7c-0.7-0.9-1.3-1.6-2.1-2.3c0.9,1.3,1.6,2.8,1.9,4.3c0.2,1.1,0.4,2.4,0.5,3.6   c0.3-0.1,0.6-0.2,0.9-0.3c0,0,0-0.1,0-0.1c0-0.1,0.1-0.2,0-0.2c0-0.2,0-0.5,0-0.7c1-0.2,1.9-0.5,2.9-0.8c1.4-0.4,2.9-0.8,4.3-1.4   c2.7-1.1,5.5-2.3,7.9-4.1c2.1-1.5,3.7-3.9,4.6-6.3C76.2,92,76.8,89.3,76.4,86.7z"></path>		<g>			<g>				<path class="st13" d="M47.2,57.9c-1.6,1.5-2.6,3.5-3.6,5.5c-0.7,1.4-1.3,2.7-1.8,4.1c-0.1,0-0.1,0-0.2,0     c-0.1,0.1-0.3,0.2-0.4,0.3C41.1,67.9,41,68,41,68.2c0,0,0,0,0,0.1c-0.1,0.3,0,0.6,0.1,0.8c0.1,0.2,0.2,0.4,0.3,0.5c0,0,0,0,0,0     c1.4,1.5,3.2,2.3,5.1,2.8c1.1,0.3,2.1,0.4,3.2,0.3c0.7-0.1,1.7-0.1,2.2-0.5c0.6-0.5,0.6-1.3,0.2-1.9c0.2-1,0.7-2,1-3     c0.4-1.1,0.7-2.3,1-3.4c0.3-1.1,0.5-2.2,0.6-3.4c1-0.3,2-1.5,2.5-2.4c0.1-0.3,0.8-1.3,0.1-1.2c-0.4-0.5-2-1-2.4-1.1     c-0.8-0.2-1.6-0.3-2.5-0.3C50.5,55.7,48.6,56.6,47.2,57.9z"></path>				<path class="st13" d="M52.4,56c1.8,0,3.3,0.7,4.9,1.2c0.2,0.7-2,2.6-2.6,3.1c0.1-0.7,0.1-1.3,0.1-2c0-0.1-0.1,0-0.1,0     c-0.1,1.2-0.1,2.3-0.4,3.5c-0.3,1.1-0.6,2.2-0.9,3.4c-0.4,1.2-0.7,2.3-1.1,3.5C52.3,69,52.1,69.5,52,70     c-0.1-0.1-0.1-0.1-0.2-0.2c0,0,0,0,0,0c0.4,0.5,0.5,1.1,0.3,1.5c0,0.2-0.1,0.4-0.3,0.5c-0.3,0.2-0.6,0.4-1.1,0.4     c-0.4,0-0.8,0-1.2,0c-1.1,0-2.1-0.1-3.2-0.4c-1.1-0.3-2.3-0.7-3.2-1.4c-0.3-0.3-0.8-0.5-1.1-0.9c-0.4-0.3-0.5-0.6-0.6-1     c-0.1-0.6,0.5-1,1-1.1c-0.1,0-0.1,0-0.2,0c0.4-1.1,0.9-2.2,1.4-3.3c0.9-2,1.9-4.2,3.6-5.7C48.5,57.2,50.4,56,52.4,56z"></path>				<path class="st14" d="M57.4,57.2c-1.7-0.6-3.1-1.3-4.9-1.2c-0.6,0-1.1,0.1-1.7,0.3c-0.3,0.3-0.7,0.6-0.9,0.9     c-1.3,1.6-2.1,3.6-2.6,5.7c-0.2,1-0.4,2-0.5,3c0,0.5-0.1,0.9-0.3,1.3c-0.3,0.6-1.2,0.5-2,0.4c0.9,0.4,1.7,0.9,2.4,1.6     c0.2,0.2-0.1,0.5-0.3,0.4c-0.8-0.5-1.6-0.9-2.5-1.1c-0.5-0.1-2-0.4-2.2,0.5c0,0.3,0,0.5,0.1,0.7c0.3,0.3,0.7,0.6,1.1,0.8     c1,0.7,2.1,1,3.2,1.4c1.1,0.3,2.1,0.5,3.2,0.4c0.4,0.1,0.8,0.1,1.2,0c0.5,0,0.8-0.2,1.1-0.4c0.2-0.1,0.3-0.3,0.3-0.5     c0.2-0.5,0.1-1-0.3-1.5c0,0,0,0,0,0c0.1,0.1,0.1,0.1,0.2,0.2c0.1-0.5,0.3-1,0.5-1.4c0.4-1.2,0.7-2.3,1.1-3.5     c0.3-1.1,0.7-2.2,0.9-3.4c0.3-1.1,0.2-2.3,0.4-3.5c0-0.1,0.1-0.1,0.1,0c0,0.7,0,1.4-0.1,2C55.4,59.8,57.5,57.9,57.4,57.2z"></path>				<path class="st15" d="M48.3,57.9c-2.4,1.7-4.2,5.1-4.8,7.9c0,0.1,0.1,0,0.1,0c1.3-2.7,2.6-5.6,4.8-7.8     C48.4,58,48.4,57.9,48.3,57.9z"></path>			</g>			<path class="st13" d="M77.5,83.2c-0.2-2-0.6-3.9-1-5.8c-0.4-2-0.9-4-1.4-6c-0.3-1.5-0.8-3-1.2-4.5c-0.2-1.6-0.4-3.2-0.7-4.8    c-0.8-4.3-4.6-7.5-7.9-10.1c-0.1,0-0.1,0.1-0.1,0.1c0.1,0.1,0.1,0.2,0.2,0.2c-0.1-0.1-0.3-0.1-0.5-0.2c-0.9-0.2-2,0-3,0    c-2.4,0.1-4.9,0.7-7.2,1.4c-0.8,0.3-2,0.5-2.7,1c-0.8,0.5-1.3,1.3-1.9,2.1c-0.5,0.7-1.4,2.4-1.5,2.9c-1.2,3.8-1.2,7.9-1.2,11.9    c0,3.5,0.2,7.2,1,10.6c-0.1,1.9-1.2,4.1,0,5.8c0.5,0.8,1.4,1,2.2,1.2c1.2,0.3,2.5,0.6,3.7,0.8c2.5,0.3,5.1,0.3,7.6,0.1    c0.9-0.1,1.9-0.2,2.8-0.3c2.9,0,5.8-0.2,8.7-0.9c1.2-0.3,2.3-0.8,3.3-1.5c0.8-0.6,0.9-1.5,0.8-2.4C77.6,84.3,77.6,83.7,77.5,83.2    z"></path>			<path class="st16" d="M76.7,86.4c-0.1,0.2,0,0.4,0.2,0.2c0,0,0.1-0.1,0.1-0.1c-0.1,0.1-0.2,0.3-0.4,0.4c-0.5,0.5-1.1,0.8-1.7,1    c-1.2,0.5-2.4,0.7-3.7,0.9c-1.5,0.2-2.9,0.3-4.4,0.4c0.6-0.1,1.1-0.3,1.7-0.5c-0.7,0.1-1.3,0.2-2,0.3c-3.5,0.7-7.2,0.7-10.7,0.5    c-1.2-0.1-2.4-0.2-3.5-0.5c-1-0.2-2.2-0.4-3.1-1.1c-1.6-1.2-0.8-3.6-0.7-5.5c0.1,0.4,0.2,0.9,0.4,1.3c0-0.1,0-0.2,0-0.3    c-0.1-1-0.2-1.9-0.2-2.9c-0.4-2.8-0.8-5.7-0.8-8.5c-0.1-3.5-0.1-7.2,0.6-10.8c0.4-1.7,1.2-3.6,2.2-4.9c0.8-1,1.6-1.6,2.7-2.1    c0.8-0.3,1.7-0.7,2.5-0.9c2-0.5,4-1,6-1.1c0.9-0.1,2-0.2,2.9,0c0.5,0.1,0.9,0.4,1.3,0.6c1.3,1.3,2.6,2.5,3.8,3.8    c1.7,1.8,2.6,3.9,3,6.3c0.4,2.4,0.8,4.8,1.1,7.3c0,0.2,0.1,0.5,0.1,0.7c0.1,0.4,0.2,0.7,0.3,1.1c-0.1-1.1-0.2-2.2-0.3-3.2    c0.1,0.5,0.2,1,0.3,1.4c0.4,1.7,0.8,3.4,1.2,5.1c0.4,1.7,0.7,3.4,1,5.2C77.1,82.1,77.9,85.1,76.7,86.4z"></path>			<path class="st13" d="M76.7,86.4c-0.1,0.2,0,0.4,0.2,0.2c0,0,0.1-0.1,0.1-0.1c-0.1,0.1-0.2,0.3-0.4,0.4c-0.5,0.5-1.1,0.8-1.7,1    c-1.2,0.5-2.4,0.7-3.7,0.9c-1.5,0.2-2.9,0.3-4.4,0.4c0.6-0.1,1.1-0.3,1.7-0.5c-0.7,0.1-1.3,0.2-2,0.3c-3.5,0.7-7.2,0.7-10.7,0.5    c-1.2-0.1-2.4-0.2-3.5-0.5c-1-0.2-2.2-0.4-3.1-1.1c-1.6-1.2-0.8-3.6-0.7-5.5c0.1,0.4,0.2,0.9,0.4,1.3c0-0.1,0-0.2,0-0.3    c-0.1-1-0.2-1.9-0.2-2.9c-0.4-2.8-0.8-5.7-0.8-8.5c-0.1-3.5-0.1-7.2,0.6-10.8c0.4-1.7,1.2-3.6,2.2-4.9c0.8-1,1.6-1.6,2.7-2.1    c0.8-0.3,1.7-0.7,2.5-0.9c2-0.5,4-1,6-1.1c0.9-0.1,2-0.2,2.9,0c0.5,0.1,0.9,0.4,1.3,0.6c1.3,1.3,2.6,2.5,3.8,3.8    c1.7,1.8,2.6,3.9,3,6.3c0.4,2.4,0.8,4.8,1.1,7.3c0,0.2,0.1,0.5,0.1,0.7c0.1,0.4,0.2,0.7,0.3,1.1c-0.1-1.1-0.2-2.2-0.3-3.2    c0.1,0.5,0.2,1,0.3,1.4c0.4,1.7,0.8,3.4,1.2,5.1c0.4,1.7,0.7,3.4,1,5.2C77.1,82.1,77.9,85.1,76.7,86.4z"></path>			<path class="st14" d="M76.7,86.4c1.2-1.3,0.4-4.3,0.1-5.8c-0.3-1.7-0.6-3.5-1-5.2c-0.4-1.7-0.8-3.4-1.2-5.1    c-0.1-0.5-0.2-0.9-0.3-1.4c0.1,1.1,0.2,2.2,0.3,3.2c-0.1-0.4-0.2-0.7-0.3-1.1c0-0.2-0.1-0.5-0.1-0.7c-0.3-2.4-0.7-4.8-1.1-7.3    c-0.4-2.4-1.4-4.5-3-6.3c-1.2-1.3-2.6-2.5-3.8-3.8c-0.4-0.3-0.8-0.5-1.3-0.6c-0.9-0.2-2-0.1-2.9,0c-2,0.1-4.1,0.6-6,1.1    c-0.9,0.2-1.7,0.6-2.5,0.9c-0.6,0.2-1.1,0.5-1.6,0.9c-0.1,1.2,0,2.4,0.4,3.5c0.9-1.3,1.9-2.5,3.3-3.3c0.1-0.1,0.3,0,0.3,0.1    c0.2,0.6,0.4,1.1,0.7,1.7c0.4-0.7,0.7-1.5,1.6-1.4c1.2,0.2,1.6,1.9,2.2,2.9c1.4-1.2,2.9-2.3,4.4-3.4c0.2-0.1,0.4,0.1,0.3,0.3    c-1.1,1.8-2.4,3.7-3.4,5.5c-0.8,1.4-1.4,3-2.5,4.2c-0.5,0.5-1.3,0.3-1.5,1.2c-0.1,0.9-0.3,1.8-0.6,2.7c-0.6,1.6-1.8,3-2.8,4.3    c-0.6,0.7-1.1,1.4-1.7,2.1c-0.4,0.5-0.9,1.1-1.5,1.3c-1.1,0.5-2-0.4-2.4-1.4c-0.4-0.9-0.6-1.9-0.8-2.8c0.1,2.6,0.4,5.1,0.8,7.7    c0.1,1,0.1,1.9,0.2,2.9c0,0.1,0,0.2,0,0.3c-0.1-0.4-0.3-0.8-0.4-1.3c-0.1,1.9-1,4.3,0.7,5.5c0.9,0.6,2,0.8,3.1,1.1    c1.2,0.3,2.3,0.4,3.5,0.5c3.5,0.2,7.2,0.2,10.7-0.5c0.7-0.1,1.3-0.1,2-0.3c-0.6,0.2-1.1,0.4-1.7,0.5c1.5-0.1,2.9-0.2,4.4-0.4    c1.2-0.2,2.5-0.4,3.7-0.9c0.6-0.2,1.2-0.6,1.7-1c0.1-0.1,0.3-0.3,0.4-0.4c0,0-0.1,0.1-0.1,0.1C76.7,86.8,76.5,86.6,76.7,86.4z     M75.4,83.9c-0.8,2.1-2.7,3.1-4.7,3.7c-2.9,0.9-5.9,1.2-8.9,1c-2.4-0.2-5,0.1-7.3-1c-0.2-0.1-0.1-0.3,0-0.4c3.4-2,6.9-4,9.8-6.7    c1.5-1.4,2.7-3,4-4.6c0.5-0.7,1.1-1.3,1.6-2c0.8-1.7,1.6-3.5,2.3-5.3c0.1-0.2,0.4-0.2,0.4,0c0.6,2.9-0.3,6.1-1.6,8.7    c-0.7,1.4-1.5,2.8-2.4,4.1c-0.9,1.2-2.1,2.2-2.9,3.5c1.7-0.1,3.3-1.9,4.4-2.9c0.8-0.7,1.6-1.3,2.4-2c0.7-0.6,1.3-1.5,2.1-2    c0.1-0.1,0.2,0,0.3,0.1C76,79.6,76,82.2,75.4,83.9z"></path>			<g>				<g>					<path class="st17" d="M58.6,53.6c1.5-1,3.3-1.9,3.4-2.3c0-0.4-0.3-1.3-0.3-1.3l-0.1-0.5l-6,2l0.1,0.7c0.1,0.1,0.1,0.1,0.1,0.2      c0.1,0.4,0.2,2,0.9,3.3c0.1,0.1,0.1,0.1,0.1,0.1s0,0,0.1,0C57.1,55.3,57.6,54.3,58.6,53.6z"></path>					<path class="st18" d="M58.6,53.6c1.5-1,3.3-1.9,3.4-2.3c0-0.4-0.3-1.3-0.3-1.3l-0.1-0.5l-6,2l0.1,0.7c0.1,0.1,0.1,0.1,0.1,0.2      c0.1,0.4,0.2,2,0.9,3.3c0.1,0.1,0.1,0.1,0.1,0.1s0,0,0.1,0C57.1,55.3,57.6,54.3,58.6,53.6z"></path>					<path class="st19" d="M56.7,56C56.7,56,56.7,56,56.7,56c-0.1,0-0.1,0-0.1-0.1c0,0,0,0-0.1-0.1c-0.6-1.1-0.8-2.4-0.9-3      c0-0.1,0-0.3-0.1-0.3c0,0,0-0.1-0.1-0.1c0,0,0,0,0-0.1l-0.1-0.7c0-0.1,0-0.1,0.1-0.1l6-2c0,0,0.1,0,0.1,0c0,0,0.1,0,0.1,0.1      l0.1,0.5c0,0,0.4,0.9,0.3,1.3c0,0.3-0.6,0.6-1.6,1.2c-0.6,0.3-1.2,0.7-1.8,1.1c-1,0.7-1.5,1.7-1.8,2.2c0,0,0,0,0,0l-0.1,0      C56.8,56,56.8,56,56.7,56z M55.8,52.2c0.1,0.1,0.1,0.1,0.1,0.2c0,0.1,0,0.2,0.1,0.3c0.1,0.6,0.3,1.8,0.8,2.8      c0.3-0.6,0.9-1.5,1.8-2.1c0.6-0.4,1.3-0.8,1.9-1.2c0.7-0.4,1.5-0.9,1.5-1c0-0.3-0.2-1-0.3-1.2l-0.1-0.4l-5.8,1.9L55.8,52.2z"></path>				</g>				<g>					<path class="st8" d="M55.6,52.3L55.6,52.3c0,0.1-0.3-0.3-1.9,0.7c-1.1,0.8-1.3,2.2-1.4,3c-0.1,0.7,0.6,0.9,0.6,0.9      s0.9-1.6,2.1-1.8c0.9-0.2,1.4,0.4,1.7,0.7c-0.7-1.3-0.8-3-0.9-3.3C55.7,52.4,55.7,52.3,55.6,52.3z"></path>					<path class="st10" d="M52.9,57C52.9,57,52.9,57,52.9,57c-0.3-0.1-0.9-0.4-0.8-1c0.1-0.8,0.3-2.2,1.4-3c0.8-0.5,1.4-0.7,1.8-0.7      c0.1,0,0.1,0,0.1,0c0,0,0,0,0,0c0.1,0,0.1,0,0.2,0c0.1,0.1,0.2,0.2,0.2,0.3c0,0.1,0,0.2,0.1,0.3c0.1,0.6,0.3,1.9,0.8,2.9      c0,0.1,0,0.1-0.1,0.2c-0.1,0-0.2,0-0.2,0c-0.2-0.2-0.6-0.6-1.2-0.6c-0.1,0-0.2,0-0.3,0c-1,0.2-1.9,1.7-2,1.7      C53,57,53,57,52.9,57z M55.4,52.4c-0.2,0-0.6,0.1-1.6,0.7c-1.1,0.8-1.2,2.1-1.3,2.9c-0.1,0.5,0.2,0.7,0.4,0.7      c0.2-0.4,1.1-1.5,2.1-1.7c0.1,0,0.2,0,0.3,0c0.4,0,0.7,0.1,1,0.3c-0.4-0.9-0.5-1.9-0.6-2.4c0-0.1,0-0.3-0.1-0.3c0,0,0,0,0,0      c0,0-0.1,0-0.1-0.1C55.5,52.4,55.5,52.4,55.4,52.4z"></path>				</g>				<g>					<g>						<path class="st8" d="M65.4,50.7c-0.8-0.9-1.9-0.7-2.6-0.7c-0.7,0-1.1,0-1.1,0S62,51,62,51.3c0,0.4-1.9,1.2-3.4,2.3       c-1,0.7-1.6,1.7-1.8,2.2c0.2-0.2,1.1-0.9,1.9-0.8c0.9,0.1,1.7,1.1,2.3,1.7c0.5,0.6,0.8,0.5,1.5-0.2c0.7-0.7,3.6-3.2,4-3.7       C66.9,52.2,66.2,51.6,65.4,50.7z"></path>						<path class="st10" d="M61.6,57.2L61.6,57.2c-0.3,0-0.5-0.2-0.7-0.4l-0.2-0.2c-0.5-0.6-1.2-1.4-2-1.5c-0.6,0-1.3,0.4-1.8,0.8       c0,0-0.1,0-0.2,0c-0.1,0-0.1-0.1-0.1-0.1c0.3-0.6,0.8-1.6,1.9-2.3c0.6-0.4,1.3-0.8,1.9-1.2c0.7-0.4,1.5-0.9,1.5-1       c0-0.3-0.2-1-0.3-1.2c0,0,0-0.1,0-0.1c0,0,0.1,0,0.1,0c0,0,0.4,0,1.1,0l0.2,0c0.2,0,0.4,0,0.6,0c0.6,0,1.4,0.1,2,0.8       c0.1,0.2,0.3,0.3,0.4,0.4c0.6,0.7,1.1,1.2,0.7,1.7c-0.3,0.4-1.5,1.4-2.5,2.3c-0.7,0.6-1.3,1.1-1.5,1.4       C62.1,57,61.9,57.2,61.6,57.2z M58.6,54.9c0,0,0.1,0,0.1,0c0.9,0.1,1.7,0.9,2.2,1.6l0.2,0.2c0.2,0.2,0.4,0.3,0.5,0.3       c0.2,0,0.4-0.2,0.8-0.5c0.3-0.3,0.9-0.8,1.5-1.4c1-0.9,2.2-2,2.5-2.3c0.3-0.4,0-0.8-0.7-1.5c-0.1-0.1-0.3-0.3-0.4-0.5       c-0.5-0.6-1.2-0.7-1.8-0.7c-0.2,0-0.4,0-0.5,0l-0.2,0c-0.4,0-0.7,0-0.9,0c0.1,0.3,0.3,0.9,0.3,1.2c0,0.3-0.6,0.6-1.6,1.2       c-0.6,0.3-1.2,0.7-1.8,1.1c-0.7,0.5-1.2,1.2-1.5,1.7C57.6,55.2,58.1,54.9,58.6,54.9z"></path>					</g>				</g>				<g class="st20">					<path class="st10" d="M55.7,52.5c0-0.1-0.1-0.1-0.1-0.2l0,0.1c0,0-0.3-0.4-1.9,0.6c-0.3,0.2-0.6,0.5-0.8,0.9      c0.7-0.6,1.6-1.2,2-0.8c0.6,0.6-1.2,1.3-2.3,3.7c0.1,0.1,0.3,0.1,0.3,0.1s0.9-1.6,2.1-1.8c0.9-0.2,1.4,0.4,1.7,0.7      C56,54.5,55.8,52.8,55.7,52.5z"></path>				</g>				<g class="st20">					<path class="st10" d="M63,52c1.2-1.1,2.4-0.5,3.4,0.8c0,0,0,0,0,0c0.5-0.6-0.3-1.2-1.1-2c-0.8-0.9-1.9-0.7-2.6-0.7      c-0.7,0-1.1,0-1.1,0S62,51,62,51.3c0,0.4-1.9,1.2-3.4,2.3c-1,0.7-1.6,1.7-1.8,2.2c0.2-0.2,1.1-0.9,1.9-0.8      c0.9,0.1,1.7,1.1,2.3,1.7c0.3,0.3,0.5,0.4,0.8,0.3c-0.2-0.6-0.8-1.5-1.7-2.4C58.6,53.4,61.7,53.4,63,52z"></path>				</g>				<path class="st21" d="M60.5,54.5c0.8-0.5,1.6-0.9,2.3-1.5c0.7-0.6,1.5-1.3,1.9-2.1c0-0.1,0.2,0,0.1,0c-0.3,0.9-0.8,1.7-1.6,2.4     c-0.4,0.4-1.2,1.3-2.6,1.4C60.5,54.8,60.4,54.6,60.5,54.5z"></path>			</g>			<path class="st16" d="M72.9,62.9c-0.2,2.5-1.4,5-2.5,7.2c-0.6,1.2-1.2,2.4-1.9,3.5c0,0-0.1-0.1-0.1-0.1c0.3,0.6,0.4,1.3-0.2,1.6    c-0.3,0.2-0.7,0.3-1.3,0.2c-0.5-0.1-1.1-0.2-1.5-0.4c-1.3-0.3-2.4-1.1-3.5-1.8c-1-0.7-1.9-1.5-2.6-2.5c-0.3-0.3-0.6-0.7-0.9-1    c-0.3-0.4-0.4-0.9-0.4-1.3c0-0.3,0-0.5,0.2-0.6c0.3-0.5,0.8-0.8,1.6-0.8c0,0,0,0,0-0.1c-0.1,0-0.2,0-0.3,0c0.3-0.5,0.6-1,0.9-1.4    c0.8-1.1,1.5-2.3,2.3-3.4c0.7-1.1,1.5-2.1,2.3-3.2c0.8-1.1,1.8-1.9,2.8-2.8c0,0,0-0.1,0-0.1c-0.6,0.5-1.2,1-1.7,1.5    c0-0.9,0.2-4.1,0.9-4.4c1.7,1.1,3.3,1.8,4.5,3.4C72.7,58.2,73.1,60.7,72.9,62.9z"></path>			<g>				<path class="st13" d="M71.7,56.1c-0.5-0.8-1.3-1.4-2-1.9c-0.4-0.3-1.9-1.4-2.7-1.4c-0.2-0.3-0.3-0.2-0.5,0     c0.5,0.8,0.3,1.3,0,2.2c-0.3,0.7-0.5,1.5-0.9,2.2c0,0.1,0.1,0.3,0.1,0.4c-0.9,0.9-1.8,1.9-2.5,3c-0.7,1.1-1.5,2.2-2.2,3.3     c-0.6,1-1.2,2-1.9,3c-0.8,0.1-1.5,0.7-1.5,1.5c0,0.8,0.7,1.7,1.1,2.3c0.7,1,1.6,1.8,2.6,2.6c1.8,1.3,3.8,2.4,6.1,2.5     c0,0,0,0,0,0c0.2,0,0.5-0.1,0.7-0.1c0.3-0.1,0.6-0.2,0.8-0.5c0,0,0,0,0-0.1c0.1-0.1,0.2-0.3,0.1-0.5c0-0.2-0.1-0.4-0.1-0.5     c0,0-0.1-0.1-0.1-0.1c0.9-1.5,1.6-3,2.4-4.5c1-2.2,2.1-4.6,2.2-7C73.5,60.2,73,57.9,71.7,56.1z"></path>				<path class="st13" d="M72.9,62.9c-0.2,2.5-1.4,5-2.5,7.2c-0.6,1.2-1.2,2.4-1.9,3.5c0,0-0.1-0.1-0.1-0.1c0.3,0.6,0.4,1.3-0.2,1.6     c-0.3,0.2-0.7,0.3-1.3,0.2c-0.5-0.1-1.1-0.2-1.5-0.4c-1.3-0.3-2.4-1.1-3.5-1.8c-1-0.7-1.9-1.5-2.6-2.5c-0.3-0.3-0.6-0.7-0.9-1     c-0.3-0.4-0.4-0.9-0.4-1.3c0-0.3,0-0.5,0.2-0.6c0.3-0.5,0.8-0.8,1.6-0.8c0,0,0,0,0-0.1c-0.1,0-0.2,0-0.3,0     c0.3-0.5,0.6-1,0.9-1.4c0.8-1.1,1.5-2.3,2.3-3.4c0.7-1.1,1.5-2.1,2.3-3.2c0.8-1.1,1.8-1.9,2.8-2.8c0,0,0-0.1,0-0.1     c-0.6,0.5-1.2,1-1.7,1.5c0-0.9,0.2-4.1,0.9-4.4c1.7,1.1,3.3,1.8,4.5,3.4C72.7,58.2,73.1,60.7,72.9,62.9z"></path>				<path class="st12" d="M71.3,56.4c-1.3-1.6-2.9-2.4-4.5-3.4c-0.8,0.4-0.9,3.6-0.9,4.4c0.5-0.5,1.1-1,1.7-1.5c0.1-0.1,0.1,0,0,0.1     c-0.9,0.9-2,1.7-2.8,2.8c-0.1,0.1-0.1,0.2-0.2,0.3c1.4-1,3-1.7,4.3-0.8c2.3,1.5,1.5,5,0.8,7.1c-0.4,1.4-1.1,2.6-1.6,3.9     c-0.1,0.3-0.4,1.4-1,1.2c-0.8-0.3-1.3-1-1.9-1.6c-0.5-0.5-1-0.9-1.6-1.2c1.7,1.3,3,3.2,3.8,5c0.1,0.2-0.2,0.5-0.4,0.3     c-1.5-1.3-2.9-2.7-4.6-3.7c-0.9-0.5-1.8-1.1-2.8-1.3c-0.3-0.1-0.5-0.1-0.8-0.1c-0.6,0.3-0.9,0.6-0.9,1c0.1,0.1,0.1,0.3,0.2,0.4     c0.3,0.4,0.6,0.7,0.9,1c0.8,1,1.6,1.8,2.6,2.5c1.1,0.7,2.2,1.5,3.5,1.8c0.5,0.1,1,0.3,1.5,0.4c0.6,0.1,1,0,1.3-0.2     c0.6-0.4,0.5-1.1,0.2-1.6c0,0,0.1,0.1,0.1,0.1c0.7-1.2,1.3-2.3,1.9-3.5c1-2.2,2.3-4.7,2.5-7.2C73.1,60.7,72.7,58.2,71.3,56.4z"></path>				<path class="st15" d="M65.1,59.7c-0.8,1-1.7,2-2.5,3c-0.8,1-1.4,2.3-2,3.4c-0.1,0.2,0.1,0.2,0.2,0.1c0.8-1.2,1.6-2.3,2.5-3.4     c0.7-0.9,1.3-2,1.9-3C65.4,59.6,65.2,59.6,65.1,59.7z"></path>				<path class="st15" d="M65.3,69.7c-0.9-0.8-1.7-1.6-2.8-2.1c-1.2-0.5-2.1-0.5-3.3-0.4c-0.1,0-0.2,0.2-0.1,0.2     c2.4,0.1,4.1,1.4,6.1,2.4C65.2,69.9,65.3,69.8,65.3,69.7z"></path>			</g>			<path class="st15" d="M50.6,57.4c-2.3,4.3-2.9,9.5-2.3,14.4c0,0.2,0.3,0,0.3-0.2c0-4.9,0.4-9.6,2.1-14.2    C50.8,57.3,50.6,57.4,50.6,57.4z"></path>			<path class="st22" d="M53.2,53.9c-0.1,0.2-0.2,0.4-0.3,0.6c-0.1,0.1-0.2,0.4-0.1,0.6c0.1,0.1,0.2,0,0.3-0.1    c0.1-0.2,0.1-0.4,0.2-0.6c0.1-0.2,0.2-0.4,0.1-0.6C53.4,53.7,53.2,53.8,53.2,53.9z"></path>		</g>		<g>			<g>				<g>					<path class="st13" d="M81.6,23c0,0,17.2,4.1,17.1,8.4c-0.1,4.3-10.6,5.6-17.3,3.4C74.7,32.6,81.6,23,81.6,23z"></path>					<path class="st23" d="M81.4,34.9c-1.5-0.5-2.4-1.4-2.8-2.6c-0.6-1.9,0.2-4.3,1-6.1c0.9-1.9,1.9-3.3,1.9-3.3l0-0.1l0.1,0      c0.7,0.2,17.3,4.2,17.2,8.5c0,2.2-2.7,3.8-7.2,4.4l0,0C88.2,36.2,84.4,35.9,81.4,34.9z M78.8,32.2c0.4,1.2,1.3,2,2.7,2.5      c3,1,6.7,1.3,10.2,0.9c4.3-0.5,7-2.1,7-4.2c0.1-4-15.8-8-17-8.3C81.2,23.7,77.7,28.9,78.8,32.2z"></path>				</g>				<path class="st24" d="M81.6,23c0,0,1.7,0.4,4.1,1.1c-0.2,0.2-0.2,0.5-0.1,0.9c0.5,1.3,1.9,2.2,2.1,3.7c0.2,1.3-0.6,3.1,0.2,4.3     c1.1,1.6,3.5,2.2,5.7,2.4c-3.6,0.8-8.4,0.7-12.1-0.6C74.7,32.6,81.6,23,81.6,23z"></path>				<g>					<path class="st25" d="M87.9,25.3c3.4,1.2,8.7,2,9.8,6.1c0.1,0.2-0.4,0-0.5-0.1c-1.2-2.1-2.7-3.3-5-4.2c-1.5-0.6-3-1-4.4-1.7      C87.8,25.4,87.7,25.3,87.9,25.3z"></path>					<path class="st25" d="M97.6,32.8c0.1-0.2,0.2-0.5,0.2-0.8c0-0.1,0.2,0,0.2,0.1c0.1,0.3,0.1,0.6,0,0.9      C97.8,33.1,97.5,32.9,97.6,32.8z"></path>				</g>			</g>			<g>				<g>					<path class="st1" d="M34.2,36.4c0,0-2.4-1.6-3.7,0.6c-1.8,3,1.3,7.6,4.7,6.1C34.4,36.8,34.2,36.4,34.2,36.4z"></path>					<path class="st26" d="M30.7,41.6c-1-1.5-1-3.3-0.2-4.6c0.4-0.7,1-1.1,1.7-1.2c1.1-0.1,2.1,0.5,2.1,0.6c0,0,0,0,0,0      c0,0,0.3,0.6,1,6.8c0,0,0,0.1-0.1,0.1c-0.3,0.1-0.6,0.2-1,0.3C32.9,43.6,31.5,42.9,30.7,41.6z M34.1,36.5      c-0.2-0.1-1.1-0.6-2-0.5c-0.6,0.1-1.2,0.4-1.5,1.1c-0.8,1.3-0.7,3,0.2,4.4c0.8,1.3,2.2,2,3.4,1.8c0.3,0,0.6-0.1,0.8-0.2      C34.4,37.5,34.1,36.6,34.1,36.5z"></path>				</g>				<g>					<path class="st27" d="M33.5,38.3c0,0-0.7-1.3-1.6-0.9c-0.9,0.4-1,3.8,1.4,4.7c2.4,0.9,2.8-1.4,1.3-1.9      C33.1,39.6,32.8,39,33.5,38.3z"></path>					<g>						<path class="st28" d="M34.6,40.1c-1.5-0.6-1.7-1.1-1.1-1.8c0,0-0.5-0.9-1.2-1c-0.3,0.4-0.7,1.5,0.2,3.1       c0.9,1.4,2.2,1.3,2.9,0.9C35.4,40.8,35.1,40.4,34.6,40.1z"></path>					</g>				</g>			</g>			<g>				<g>					<path class="st13" d="M28.7,27C24,8.2,43.4,1,61.4,1.2C81.7,2,81.6,23,81.6,23S54.5,13,28.7,27z"></path>					<path class="st29" d="M81.6,23.1c-0.1-0.1-13.9-5-31-2.9c-7.8,1-15.2,3.3-21.8,6.9c0,0-0.1,0-0.1,0c0,0,0,0-0.1-0.1      c-1.4-5.7-0.7-10.6,2.1-14.7C34.6,6.7,42.5,2.9,53,1.6c2.7-0.3,5.6-0.5,8.4-0.5c10.5,0.4,15.5,6.3,17.8,11.2      c2.5,5.3,2.5,10.6,2.5,10.6C81.7,23,81.7,23.1,81.6,23.1C81.6,23.1,81.6,23.1,81.6,23.1C81.6,23.1,81.6,23.1,81.6,23.1z       M30.9,12.4c-2.7,4-3.4,8.8-2.1,14.4c6.6-3.6,14-5.9,21.8-6.8c16.2-2,29.4,2.4,30.9,2.9c0-0.9-0.2-5.6-2.5-10.4      C76.7,7.6,71.8,1.7,61.4,1.3c-2.8,0-5.7,0.1-8.4,0.5C42.5,3.1,34.7,6.8,30.9,12.4z"></path>				</g>				<g>					<path class="st8" d="M28.7,27c25.7-13.9,52.9-4,52.9-4c6.6,6.6,4.6,8.7,4.7,9c0.1,0.3-0.4-0.4-2.7-3.3c2.2,4.7,0.5,7.6,0.5,7.6      s-0.6-1-1.9-3.3c1.7,9.3-11.2,12.3-11.2,12.3s3.2-6.4,2.7-9.2c0,0,2.5,1.4,3.7-1.1c1.2-2.5,0.5-8.5-4.1-6.5      c-0.2,2.6-1.5,4.3-1.5,4.3s-0.2-2.8-2.2-5.7c1.3,3.4,1.3,6.1,1.3,6.1S66.3,25,62.4,22c2.5,4.3,2.9,5.7,2.9,5.7      s-5.6-0.1-11.8-4.5c2.5,2.7,2.8,2.9,2.8,2.9s-4.8-0.8-7.5-2.6c2.8,2.9,3.6,3.8,3.6,3.8s-7.1,0.3-12.5-2      c2.5,2.5,2.7,2.8,2.7,2.8L37,25.8l1.5,3.5l-7.2-2.1c0,0-0.5,1-1.1,2.3c0-0.3,0.1-0.5,0.1-0.5s-1.8,3-2.2,2.7      C26.8,29.4,28.7,27,28.7,27z"></path>					<path class="st8" d="M70.9,45.4c0,0-0.1,0-0.1-0.1c0,0,0-0.1,0-0.1c0.2-0.4,3.2-6.5,2.7-9.1c0,0,0-0.1,0-0.1c0,0,0.1,0,0.1,0      c0,0,0.8,0.5,1.8,0.4c0.8-0.1,1.4-0.6,1.8-1.5c0.7-1.5,0.7-4.2-0.3-5.7c-0.8-1.1-2-1.3-3.6-0.7c-0.2,2.6-1.6,4.3-1.6,4.3      c0,0,0,0-0.1,0c-0.1,0-0.1,0-0.1-0.1c0,0,0,0,0,0c0-0.3-0.3-2.5-1.8-4.9c1,3.1,1,5.3,1,5.4c0,0,0,0.1-0.1,0.1c0,0-0.1,0-0.1,0      c0-0.1-4.1-7.5-7.8-10.8c2.3,3.9,2.6,5.2,2.7,5.2c0,0,0,0.1,0,0.1c0,0,0,0-0.1,0c0,0-1.4,0-3.6-0.6c-1.8-0.5-4.6-1.5-7.5-3.4      c1.9,2,2.1,2.2,2.2,2.2c0,0,0,0.1,0,0.1c0,0-0.1,0.1-0.1,0.1c0,0-4.2-0.7-6.9-2.2c2.4,2.5,3.1,3.3,3.1,3.3c0,0,0,0.1,0,0.1      c0,0,0,0.1-0.1,0.1c-0.1,0-6.8,0.3-12.1-1.8c2.1,2.2,2.4,2.5,2.4,2.5c0,0,0,0.1,0,0.1c0,0-0.1,0-0.1,0L37.1,26l1.4,3.3      c0,0,0,0.1,0,0.1c0,0-0.1,0-0.1,0l-7.1-2.1c-0.1,0.3-0.6,1.1-1,2.2c0,0,0,0-0.1,0.1c0,0-0.1,0-0.1-0.1      c-0.5,0.8-1.5,2.3-1.9,2.3l0,0c-0.1,0-0.1,0-0.1,0c0,0,0,0,0,0c-1.4-2.4,0.6-4.8,0.6-4.8c0,0,0,0,0,0c6.7-3.6,14-5.9,21.9-6.9      c17.1-2.1,30.9,2.9,31,2.9c0,0,0,0,0,0c3.9,3.9,5.4,6.9,4.7,8.9c0,0.1,0,0.1,0,0.1c0,0,0,0.1,0,0.1c0,0,0,0-0.1,0      c-0.1,0-0.1,0-0.9-1c-0.3-0.4-0.8-1-1.4-1.8c0.9,2.1,0.9,3.8,0.8,4.9c-0.2,1.3-0.6,2.1-0.6,2.1c0,0,0,0.1-0.1,0      c0,0-0.1,0-0.1,0c0,0-0.5-0.9-1.7-2.9C83.4,42.4,71.1,45.4,70.9,45.4L70.9,45.4C70.9,45.4,70.9,45.4,70.9,45.4z M82.2,33      c1,1.7,1.6,2.8,1.9,3.1c0.1-0.3,0.4-0.9,0.5-1.9c0.1-1.2,0.1-3.1-1.1-5.5c0,0,0-0.1,0-0.1c0,0,0.1,0,0.1,0      c0.9,1.1,1.5,1.9,1.9,2.4c0.3,0.4,0.5,0.6,0.6,0.8c0,0,0,0,0-0.1c0.7-2-0.9-4.9-4.7-8.7c-0.6-0.2-14.2-5-30.9-2.9      c-7.8,1-15.2,3.3-21.8,6.9c-0.2,0.2-1.8,2.4-0.6,4.6v0c0.3,0,1.4-1.7,2-2.7c0,0,0.1-0.1,0.1,0c0,0,0,0,0,0      c0.5-1,0.8-1.8,0.8-1.8c0,0,0.1-0.1,0.1-0.1l7,2.1l-1.4-3.3c0,0,0-0.1,0-0.1c0,0,0.1,0,0.1,0l5.3,2.2c-0.3-0.3-1-1.1-2.4-2.5      c0,0,0-0.1,0-0.1c0,0,0.1-0.1,0.1,0c4.8,2.1,11.1,2,12.3,2c-0.3-0.4-1.3-1.5-3.4-3.7c0,0,0-0.1,0-0.1c0,0,0.1,0,0.1,0      c2.2,1.5,6.1,2.3,7.2,2.5c-0.3-0.3-1-1-2.6-2.7c0,0,0-0.1,0-0.1c0,0,0.1,0,0.1,0c3.2,2.2,6.2,3.3,8.2,3.8      c1.7,0.5,3,0.6,3.4,0.6c-0.2-0.4-0.8-2-2.9-5.5c0,0,0-0.1,0-0.1c0,0,0.1,0,0.1,0c3.4,2.6,7.2,9.2,8.1,10.8      c-0.1-0.9-0.3-3-1.3-5.6c0,0,0-0.1,0-0.1c0,0,0.1,0,0.1,0c1.6,2.4,2.1,4.7,2.2,5.5c0.3-0.5,1.2-2,1.4-4.1c0,0,0-0.1,0.1-0.1      c1.7-0.7,3-0.4,3.9,0.7c1.1,1.6,1.1,4.4,0.4,5.9c-0.4,0.9-1.1,1.5-1.9,1.6c-0.7,0.1-1.4-0.2-1.7-0.3c0.3,2.6-2.1,7.8-2.6,8.9      C72.7,44.7,83.5,41.5,82,33c0,0,0-0.1,0.1-0.1C82.1,32.9,82.1,32.9,82.2,33C82.1,32.9,82.2,32.9,82.2,33z"></path>				</g>				<path class="st13" d="M36.6,6.9c-4.3,2.8-5.4,5.8-2.5,3.7c8.5-4.6,12.5,2.3,13.1,8c5.8-1.6,18.8-3.5,27.5-1.3     C71.7,2.6,60.5,1.1,54.2,1.6c2.4-0.2,4.8-0.4,7.2-0.3C81.7,2,81.6,23,81.6,23s-27.1-10-52.9,4C26.4,17.5,30.1,11,36.6,6.9z"></path>			</g>			<g>				<g>					<path class="st8" d="M33.5,34.7c-3.3-1.8-3.4-4.2-3.3-5.2c0.4-0.9,0.7-1.6,0.9-2C33.3,31.1,33.5,34.7,33.5,34.7z"></path>					<path class="st30" d="M33.5,34.7c-3.3-1.8-3.4-4.3-3.3-5.3c0,0,0,0,0,0c0.4-0.8,0.7-1.6,0.9-1.9l0-0.1c0,0,0.1-0.1,0.1-0.1      c0,0,0.1,0,0.1,0c2.2,3.6,2.4,7.2,2.4,7.2C33.6,34.7,33.6,34.7,33.5,34.7C33.6,34.8,33.6,34.8,33.5,34.7      C33.5,34.8,33.5,34.8,33.5,34.7z M30.3,29.5c-0.1,0.9,0,3.2,3.1,5c-0.1-0.8-0.5-3.8-2.3-6.8C31,28.1,30.7,28.7,30.3,29.5z"></path>				</g>				<g>					<path class="st1" d="M33.5,34.7c0,0-0.2-3.6-2.4-7.2c0.1-0.2,0.1-0.3,0.1-0.3l7.2,2.1L37,25.8l5.6,2.4c0,0-0.2-0.3-2.7-2.8      c5.4,2.3,12.5,2,12.5,2s-0.8-1-3.6-3.8c2.7,1.8,7.5,2.6,7.5,2.6s-0.2-0.2-2.8-2.9c6.2,4.3,11.8,4.5,11.8,4.5s-0.4-1.3-2.9-5.7      c3.9,3,8.3,11.1,8.3,11.1s0-2.6-1.3-6.1c2,2.9,2.2,5.7,2.2,5.7s1.3-1.7,1.5-4.3c4.6-1.9,5.3,4,4.1,6.5      c-1.2,2.5-3.7,1.1-3.7,1.1c0.5,2.8-2.7,9.2-2.7,9.2s-7,6.4-17.5,7.4C31.7,53.2,33.1,39.3,33.5,34.7z"></path>					<path class="st26" d="M53.5,52.8c-7.8,0.2-13.5-1.5-16.8-5c-4-4.3-3.5-10.1-3.3-13l0-0.2c0,0-0.2-3.6-2.4-7.2c0,0,0-0.1,0-0.1      l0.1-0.3c0,0,0.1-0.1,0.1-0.1l7,2.1l-1.4-3.3c0,0,0-0.1,0-0.1c0,0,0.1,0,0.1,0l5.3,2.2c-0.3-0.3-1-1.1-2.4-2.5c0,0,0-0.1,0-0.1      c0,0,0.1-0.1,0.1,0c4.8,2.1,11.1,2,12.3,2c-0.3-0.4-1.3-1.5-3.4-3.7c0,0,0-0.1,0-0.1c0,0,0.1,0,0.1,0c2.2,1.5,6.1,2.3,7.2,2.5      c-0.3-0.3-1-1-2.6-2.7c0,0,0-0.1,0-0.1c0,0,0.1,0,0.1,0c5.5,3.9,10.7,4.4,11.6,4.4c-0.2-0.4-0.8-2-2.9-5.5c0,0,0-0.1,0-0.1      c0,0,0.1,0,0.1,0c3.4,2.6,7.2,9.2,8.1,10.8c-0.1-0.9-0.3-3-1.3-5.6c0,0,0-0.1,0-0.1c0,0,0.1,0,0.1,0c1.6,2.4,2.1,4.7,2.2,5.5      c0.3-0.5,1.2-2,1.4-4.1c0,0,0-0.1,0.1-0.1c1.7-0.7,3-0.4,3.9,0.7c1.1,1.6,1.1,4.4,0.4,5.9c-0.4,0.9-1.1,1.5-1.9,1.6      c-0.7,0.1-1.4-0.2-1.7-0.3c0.4,2.9-2.6,8.8-2.7,9.1c0,0,0,0,0,0c-0.1,0.1-6.8,6.1-16.7,7.4h0C54,52.8,53.7,52.8,53.5,52.8z       M73.5,36.1C73.5,36,73.5,36,73.5,36.1c0.1-0.1,0.1-0.1,0.1-0.1c0,0,0.8,0.5,1.8,0.4c0.8-0.1,1.4-0.6,1.8-1.5      c0.7-1.5,0.7-4.2-0.3-5.7c-0.8-1.1-2-1.3-3.6-0.7c-0.2,2.6-1.6,4.3-1.6,4.3c0,0-0.1,0-0.1,0c0,0-0.1,0-0.1-0.1      c0,0-0.2-2.4-1.8-4.9c1,3.1,1,5.3,1,5.4c0,0,0,0.1-0.1,0.1c0,0-0.1,0-0.1,0c0-0.1-4.1-7.5-7.8-10.8c2.3,3.9,2.6,5.2,2.7,5.2      c0,0,0,0.1,0,0.1c0,0,0,0-0.1,0c-0.1,0-5.3-0.2-11.1-4c1.9,2,2.1,2.2,2.2,2.2c0,0,0,0.1,0,0.1c0,0-0.1,0.1-0.1,0.1      c0,0-4.2-0.7-6.9-2.2c2.4,2.5,3.1,3.3,3.1,3.3c0,0,0,0.1,0,0.1c0,0,0,0.1-0.1,0.1c-0.1,0-6.8,0.3-12.1-1.8      c2.1,2.2,2.4,2.5,2.4,2.5c0,0,0,0.1,0,0.1c0,0-0.1,0-0.1,0L37.1,26l1.4,3.3c0,0,0,0.1,0,0.1c0,0-0.1,0-0.1,0l-7.1-2.1l-0.1,0.2      c2.1,3.6,2.4,7.2,2.4,7.2l0,0.2c-0.2,2.8-0.7,8.6,3.2,12.8c3.2,3.5,8.8,5.1,16.6,4.9c0.3,0,0.6-0.1,0.8-0.1c0,0,0,0,0,0      c9.6-1.2,16.2-7,16.5-7.3C71,44.9,74,38.7,73.5,36.1z"></path>				</g>				<path class="st31" d="M42,45.8c0,0-1.1,0.5-0.5,1.1c0.6,0.6,4.6,0,7.7-2c3-2,4.5-4.2,4.5-4.2s6,4.1,4,9.2     c-1.2,2-4.9,4.4-14.2-1.9c-1,0.5-2.7,0.2-2.9-1.2C40.2,45.5,42,45.8,42,45.8z"></path>				<g class="st32">					<path class="st33" d="M53.5,52.7c10.5-1,17.5-7.4,17.5-7.4s3.2-6.4,2.7-9.2c0,0,2.1,1.2,3.3-0.6c-0.9,0.1-1.7-0.1-2.4-0.6      c-0.5-0.4-0.8-0.9-1-1.5c-0.1-0.5,0-0.9,0.1-1.3c0.1-0.6-0.3-1.1-0.2-1.7c0.2-1.1,1.9-1.3,2.7-1.3c0.3,0,0.6,0.1,0.9,0.2      c-0.7-1.1-1.9-1.7-3.9-0.9c-0.2,2.6-1.5,4.3-1.5,4.3s-0.2-2.8-2.2-5.7c1.3,3.4,1.3,6.1,1.3,6.1S66.3,25,62.4,22      c2.5,4.3,2.9,5.7,2.9,5.7s-5.6-0.1-11.8-4.5c2.5,2.7,2.8,2.9,2.8,2.9s-4.8-0.8-7.5-2.6c2.8,2.9,3.6,3.8,3.6,3.8      s-7.1,0.3-12.5-2c2.5,2.5,2.7,2.8,2.7,2.8L37,25.8l1.5,3.5l-7.2-2.1c0,0-0.1,0.1-0.1,0.3c2.2,3.6,2.4,7.2,2.4,7.2      C33.1,39.3,31.7,53.2,53.5,52.7z M34.1,37.6c0.6-6.1-1.3-8.7-1.3-8.7c6.4,0.9,7.2,2.5,7.2,2.5l-0.6-2.6l5.1,1      c0,0,0-1.2-1.1-1.9c5.5,0.1,12,2.1,12,2.1s-0.1-0.8-1.6-2.5c3,0.9,7.3,4,7.3,4s-0.4-1-2-3c6.4,1.9,11.7,6.4,10.9,11.8      c-1.3,9.1-9,11.9-20.9,11.4C37.2,51,33.5,43.7,34.1,37.6z"></path>				</g>			</g>			<g>				<path class="st34" d="M52.1,37.4c0,0-2.2,0-2.5,2.5c0,0-0.2-0.3-0.3-1.2c-1.2,0.5-3.4-1.2-4.2-4c-0.8-2.8,1-5.3,4-2.3     c2,2.2,1.7,4.7,1.7,4.7S51.8,36.9,52.1,37.4z"></path>				<g>					<g>						<g>							<path class="st35" d="M49.5,33.8c1,1.8,1.1,3.7,0.2,4.3c-0.9,0.6-2.5-0.4-3.6-2.2c-1-1.8-1.1-3.7-0.2-4.3        C46.9,31,48.5,32,49.5,33.8z"></path>						</g>					</g>					<path class="st26" d="M51.9,37.4c0,0-1.8,0-2.4,2.2C49.4,37.9,50.4,37.1,51.9,37.4z"></path>					<path class="st36" d="M52.1,37.6c0,0-1.8,0-2.4,2.2C49.5,38.1,50.6,37.3,52.1,37.6z"></path>				</g>			</g>			<g>				<path class="st37" d="M49.4,35.3c0.7,1.2,0.7,2.5,0.1,2.9c-0.7,0.4-1.8-0.2-2.5-1.4c-0.7-1.2-0.7-2.5-0.1-2.9     C47.6,33.5,48.7,34.1,49.4,35.3z"></path>				<path class="st38" d="M49.2,35.6c0.5,0.9,0.5,1.8,0,2.1c-0.5,0.3-1.3-0.2-1.8-1c-0.5-0.9-0.5-1.8-0.1-2.1     C47.8,34.3,48.7,34.7,49.2,35.6z"></path>				<path class="st35" d="M47.6,35.2c0.2,0.4,0.1,0.9-0.1,0.9c-0.3,0.1-0.6-0.2-0.8-0.7c-0.2-0.4-0.1-0.9,0.1-0.9     C47,34.5,47.4,34.8,47.6,35.2z"></path>				<path class="st39" d="M49.7,36.8c0.2,0.4,0.2,0.7,0,0.8c-0.2,0.1-0.5-0.1-0.7-0.5c-0.2-0.4-0.2-0.7,0-0.8     C49.2,36.2,49.5,36.4,49.7,36.8z"></path>			</g>			<g>				<path class="st34" d="M35.2,42.4c0,0,1.4-1.4,3.3,0c0,0-0.1-0.4-0.6-1c1.1-0.5,1.4-3,0-5.4c-1.4-2.4-4.2-2.7-4.1,1.2     c0.2,2.8,2.1,4.1,2.1,4.1S35.1,41.9,35.2,42.4z"></path>				<g>					<g>						<g>							<path class="st35" d="M34.4,38.3c0.5,1.8,1.8,3.1,2.8,2.9c1-0.2,1.4-2,0.8-3.8c-0.5-1.8-1.8-3.1-2.8-2.9        C34.3,34.8,33.9,36.5,34.4,38.3z"></path>						</g>					</g>					<path class="st26" d="M35.3,42.2c0,0,1.2-1.2,3-0.2C37.3,40.9,36.1,41.1,35.3,42.2z"></path>					<path class="st36" d="M35.4,42.5c0,0,1.2-1.2,3-0.2C37.3,41.1,36.1,41.3,35.4,42.5z"></path>				</g>			</g>			<g>				<path class="st37" d="M37.4,38.4c0.4,1.2,0.2,2.5-0.5,2.7c-0.7,0.3-1.6-0.5-2.1-1.8c-0.4-1.3-0.2-2.5,0.5-2.7     C36,36.3,36.9,37.1,37.4,38.4z"></path>				<path class="st38" d="M37.1,38.6c0.3,0.9,0.2,1.8-0.4,2c-0.5,0.2-1.2-0.4-1.5-1.3c-0.3-0.9-0.2-1.8,0.4-2     C36.1,37.1,36.8,37.7,37.1,38.6z"></path>				<path class="st35" d="M35.7,38c0.1,0.4,0,0.8-0.3,0.8c-0.3,0-0.6-0.3-0.7-0.8c-0.1-0.5,0-0.8,0.3-0.8     C35.3,37.2,35.6,37.5,35.7,38z"></path>				<path class="st39" d="M37.3,39.8c0.1,0.4,0,0.7-0.2,0.7c-0.2,0-0.5-0.2-0.6-0.6c-0.1-0.4,0-0.7,0.2-0.8     C37,39.2,37.2,39.5,37.3,39.8z"></path>			</g>			<g>				<path class="st40" d="M49,29.8c0,0-3.6-3.7-4.2,1.4C44,28.5,46.3,25.5,49,29.8z"></path>				<path class="st41" d="M44.9,31.3c0,0-0.1,0-0.1-0.1c-0.3-1-0.2-2.1,0.3-2.9c0.3-0.5,0.7-0.7,1.2-0.8c0.9-0.1,2,0.7,2.9,2.2     c0,0,0,0.1,0,0.1c0,0-0.1,0-0.1,0c0,0-1.4-1.4-2.5-1.3C45.6,28.7,45.2,29.6,44.9,31.3C45,31.3,45,31.3,44.9,31.3L44.9,31.3z      M48.6,29.3c-0.8-1.1-1.6-1.6-2.3-1.5c-0.4,0-0.8,0.3-1,0.7c-0.4,0.6-0.5,1.4-0.4,2.2c0.2-1.4,0.8-2.1,1.6-2.2     C47.2,28.3,48,28.9,48.6,29.3z"></path>			</g>			<g>				<path class="st40" d="M36.2,33.1c0,0-2-3.1-3,0.4C33.1,30.8,34.5,29.9,36.2,33.1z"></path>				<path class="st41" d="M33.2,33.6C33.2,33.6,33.2,33.6,33.2,33.6c-0.2-1.6,0.2-2.6,0.9-2.7c0.6-0.1,1.4,0.7,2.2,2.1     c0,0,0,0.1,0,0.1c0,0-0.1,0-0.1,0c0,0-0.8-1.3-1.6-1.2c-0.5,0.1-0.9,0.6-1.1,1.6C33.3,33.6,33.3,33.6,33.2,33.6     C33.3,33.6,33.3,33.6,33.2,33.6z M35.5,32.2c-0.5-0.7-1-1.1-1.4-1c-0.5,0.1-0.8,0.8-0.8,1.8c0.3-0.7,0.7-1.2,1.1-1.2     C34.8,31.7,35.2,31.9,35.5,32.2z"></path>			</g>			<g>				<g>					<g>						<path class="st42" d="M42.5,39.3c0,0,1,1.9,0,2.5c0,0-1.3-0.5-2,0.7c-0.7,1.2,0.8,2.5,1.9,2.8c1.1,0.2-2.9,0.7-2.6-2.6       c0.4-1.7,2.5-1.2,2.5-1.2S42.8,40.9,42.5,39.3z"></path>						<path class="st33" d="M40.9,42.7c0,0.3,0.3,0.7,0.8,0.7c0.5,0,0.9-0.2,0.9-0.6c0-0.3-0.3-0.7-0.8-0.7       C41.4,42.1,41,42.4,40.9,42.7z"></path>					</g>					<path class="st31" d="M46.1,43.1c0,0-2.4,1.7-4.3,0.9c-2-0.8-1.6-2.1-1.6-2.1s-1.3,3.3,2.3,3.6C45.3,45.8,46.1,43.1,46.1,43.1z      "></path>				</g>				<path class="st43" d="M43.3,47.6c0,0,7-1.5,10.3-6c4.6,3.9,4.6,8.3,1.4,9.9C51.8,53.1,44.6,48.8,43.3,47.6z"></path>				<g class="st32">					<path class="st43" d="M43.3,47.6c1.3,1.2,8.5,5.5,11.7,3.9c3.2-1.6,3.2-6-1.4-9.9C50.3,46.1,43.3,47.6,43.3,47.6z M47.8,47.2      c2.6-0.9,5.5-3.3,5.5-3.3c1.3-1.2,3.6,2.5,1.7,2.4c-4.6,0-2.7,5.3-4.3,4.2C48.2,48.6,45.2,48.1,47.8,47.2z"></path>				</g>				<path class="st42" d="M43.3,47.6c0,0-0.3,0-0.7,0c-0.1,0-0.2,0-0.3,0c-0.1,0-0.2,0-0.4-0.1c-0.1,0-0.2-0.1-0.4-0.1     c-0.1,0-0.2-0.1-0.3-0.2c-0.1-0.1-0.2-0.2-0.2-0.2c-0.1-0.1-0.1-0.2-0.1-0.3c-0.1-0.2,0-0.4,0.2-0.5c0.1-0.1,0.3-0.2,0.4-0.3     c0.1,0,0.2-0.1,0.2-0.1s-0.1,0-0.2,0c-0.1,0-0.3,0-0.5,0.1c-0.1,0.1-0.2,0.2-0.3,0.3c-0.1,0.1-0.1,0.3-0.1,0.5     c0,0.2,0.1,0.3,0.1,0.5c0.1,0.2,0.2,0.3,0.3,0.4c0.1,0.1,0.3,0.2,0.4,0.2c0.2,0.1,0.3,0.1,0.4,0.1c0.3,0,0.6,0,0.8-0.1     C43.1,47.8,43.3,47.6,43.3,47.6z"></path>				<g>					<path class="st44" d="M57.2,46.8c0.5,2.1-0.3,3.8-2.1,4.7c-0.8,0.4-1.8,0.4-2.9,0.2C51.9,47.3,55.4,46.8,57.2,46.8z"></path>					<path class="st45" d="M44.7,47.2c2.2-0.7,6.6-2.4,9-5.7c0.5,0.5,1,0.9,1.4,1.4C53.4,44.5,48.3,48.7,44.7,47.2z"></path>				</g>				<g class="st46">					<path class="st44" d="M56,50.1c1-2,0.1-3-0.8-2.8c-0.9,0.2-1.3,0.9-0.9,3c-0.6-1-0.2-2.4-1-2c-0.3,0.1-0.5,0.4-0.7,0.8      c1-2,3.2-2.3,4.6-2.2c0.5,2.1-0.3,3.8-2.1,4.7c-0.8,0.4-1.8,0.4-2.9,0.2c0-0.1,0-0.3,0-0.4C53.5,51.7,55.1,51.9,56,50.1z"></path>				</g>				<path class="st47" d="M52.8,49c0,0-0.8,1.4-0.2,1.6C53.1,50.8,53.4,47.9,52.8,49z"></path>				<g class="st32">					<path class="st48" d="M52.4,43.6c-2.8,2.6-5.8,3.6-7.1,3.9c-0.2,0-0.4-0.1-0.6-0.2c2.2-0.7,6.6-2.4,9-5.7      c0.5,0.5,1,0.9,1.4,1.4c-0.2,0.2-0.4,0.4-0.7,0.6C54.1,43.1,53.4,42.5,52.4,43.6z"></path>				</g>				<g>					<path class="st42" d="M44.6,48.5c0.4,0.3,0.9,0.5,1.3,0.8c0.9,0.5,1.8,0.9,2.8,1.3c1,0.4,1.9,0.7,2.9,0.9      c0.5,0.1,1,0.2,1.5,0.2c0.5,0,1,0,1.5-0.2c0.1,0,0.2-0.1,0.4-0.1l0.3-0.2c0.2-0.1,0.4-0.3,0.6-0.4c0.1-0.1,0.2-0.2,0.3-0.3      c0.1-0.1,0.2-0.2,0.2-0.3c0.1-0.2,0.3-0.4,0.4-0.7c0-0.1,0.1-0.2,0.1-0.3l0.1-0.4l0.1-0.2l0-0.2l0-0.4c0-0.3,0-0.5,0-0.8      c0-0.2-0.1-0.5-0.1-0.7c-0.1-0.5-0.3-1-0.5-1.4c-0.1-0.2-0.2-0.5-0.4-0.7l-0.4-0.6c-0.3-0.4-0.6-0.8-1-1.2      c-0.3-0.4-0.7-0.7-1.1-1.1l0.1,0l-0.5,0.6c-0.1,0.2-0.3,0.4-0.5,0.6c-0.2,0.2-0.3,0.4-0.6,0.5l-0.6,0.5      c-0.2,0.2-0.4,0.3-0.6,0.5c-0.2,0.2-0.4,0.3-0.6,0.4c-0.2,0.1-0.4,0.3-0.6,0.4L49,45.5c-0.2,0.1-0.4,0.2-0.7,0.3      c-0.2,0.1-0.5,0.2-0.7,0.3c-0.2,0.1-0.5,0.2-0.7,0.3c-0.2,0.1-0.5,0.2-0.7,0.3c-1,0.4-1.9,0.7-2.9,0.9      C43.7,47.9,44.2,48.2,44.6,48.5z M46.2,46.7c0.2-0.1,0.5-0.2,0.7-0.3c0.2-0.1,0.5-0.2,0.7-0.3c0.5-0.2,0.9-0.4,1.3-0.7l0.7-0.4      c0.2-0.1,0.4-0.3,0.6-0.4c0.2-0.1,0.4-0.3,0.6-0.4c0.2-0.2,0.4-0.3,0.6-0.5l0.6-0.5c0.2-0.2,0.4-0.4,0.5-0.5      c0.2-0.2,0.4-0.4,0.5-0.6l0.5-0.6l0.1-0.1l0.1,0.1c0.4,0.4,0.8,0.7,1.1,1.1c0.4,0.4,0.7,0.8,1,1.2l0.4,0.6      c0.1,0.2,0.3,0.5,0.4,0.7c0.2,0.5,0.4,1,0.6,1.5c0.1,0.3,0.1,0.5,0.1,0.8c0,0.3,0,0.5,0,0.8l0,0.4l0,0.2l0,0.2l-0.1,0.4      c0,0.1-0.1,0.2-0.2,0.4c-0.1,0.2-0.3,0.5-0.4,0.7c-0.1,0.1-0.2,0.2-0.3,0.3c-0.1,0.1-0.2,0.2-0.3,0.3c-0.2,0.2-0.4,0.3-0.6,0.5      l-0.4,0.2c-0.1,0-0.2,0.1-0.4,0.1c-0.5,0.2-1,0.2-1.6,0.2c-0.5,0-1-0.1-1.5-0.2c-1-0.2-2-0.6-2.9-1c-1-0.4-1.9-0.9-2.8-1.4      c-0.5-0.3-0.9-0.5-1.3-0.8c-0.4-0.3-0.9-0.6-1.2-0.9C44.3,47.4,45.3,47,46.2,46.7z"></path>				</g>			</g>			<path class="st49" d="M72.3,30.1c0.5-2.1,0.6-4.1-0.1-6.1c0-0.1,0.2,0,0.3,0.1c0.7,2,0.9,4.2,0.2,6.2    C72.7,30.4,72.3,30.2,72.3,30.1z"></path>			<g>				<path class="st27" d="M73.5,31.1c0,0-0.1-1.5,1-1.6c1.1-0.1,3.4,3,1.6,4.9c-1.8,1.9-3.6,0-2.5-1.2C74.6,32,74.6,31.5,73.5,31.1z     "></path>				<g>					<path class="st28" d="M73.6,33.2c1.1-1.2,1-1.8-0.1-2.1c0,0-0.1-1.1,0.6-1.5c0.5,0.2,1.7,1,1.7,2.9c0,1.7-1.4,2.1-2.3,2.1      C73.1,34.3,73.1,33.7,73.6,33.2z"></path>				</g>			</g>			<g>				<path class="st50" d="M34.1,37.6c0.6-6.1-1.3-8.7-1.3-8.7c6.4,0.9,7.2,2.5,7.2,2.5l-0.6-2.6l5.1,1c0,0,0-1.2-1.1-1.9     c5.5,0.1,12,2.1,12,2.1s-0.1-0.8-1.6-2.5c3,0.9,7.3,4,7.3,4s-0.4-1-2-3c6.4,1.9,11.7,6.4,10.9,11.8c-1.3,9.1-9,11.9-20.9,11.4     C37.2,51,33.5,43.7,34.1,37.6z"></path>				<path class="st31" d="M72.9,30.9c-0.9,2.6-1.3,5.3-1.7,4c-0.4-1.3-3.1-5.4-7.4-6.6c-4.1-0.9-6.9-2.4-6.9-2.4s0.2,0.5,1.1,2.1     c-1.7-1.4-6.5-2.3-6.5-2.3s0.8,0.9,1.9,2.5c-5.2-0.2-11.6-1.6-11.6-1.6l1.7,2.1L38,27.1l1.1,3.1L35,28.3l3.5,1L37,25.8l5.6,2.4     c0,0-0.2-0.3-2.7-2.8c5.4,2.3,12.5,2,12.5,2s-0.8-1-3.6-3.8c2.7,1.8,7.5,2.6,7.5,2.6s-0.2-0.2-2.8-2.9     c6.2,4.3,11.8,4.5,11.8,4.5s-0.4-1.3-2.9-5.7c3.9,3,8.3,11.1,8.3,11.1s0-2.6-1.3-6.1c2,2.9,2.2,5.7,2.2,5.7s1.3-1.7,1.5-4.3     c0.5-0.2,0.9-0.3,1.3-0.4C73.8,28.5,73.4,29.5,72.9,30.9z"></path>			</g>			<g>				<path class="st8" d="M31,26.5c0,0,4.7,1.6,5.5,1.4c0.8-0.2-0.9-3.3-0.9-3.3s3,1.3,3.7,1.4c0.7,0-1.2-1.7-1.2-1.7     s5.8,1.9,10.5,1.9c2.2,0.1-2.3-4.2-2.3-4.2s4.7,2.1,6.2,2.4c1.5,0.2-1.5-2.6-1.5-2.6s7.7,4,10.9,4.1c2.3,0-1.9-5.2-1.9-5.2     s3.6,0.5,7.5,5.8c2.1,2.9,1.2,0-0.7-2.6c-1-1.8,2.7,0.7,4.7,4.9c1,1.8,1.3-2.6-0.1-6c-0.8-2,2.1,0.6,2.7,3.6     c0.6,1.8,0.6-0.8,0-2.7c2.6,2.3,4.4,5.7,5.4,7.9c0.9,1.9,1.9-1.4-1.2-6c2.2,2,4.5,6,4.5,6s0.9-2.3-1.8-6.1     c3.7,2.9,2.2-1.3-1.9-2.7c-4.1-1.5-13.3-2.7-21.7-2.5c-8.2,0.3-19.3,1.7-29.2,8c0.3-0.7,0.7-1.2,0.7-1.2     c25.7-13.9,52.9-4,52.9-4c6.6,6.6,4.6,8.7,4.7,9c0.1,0.3-0.4-0.4-2.7-3.3c2.2,4.7,0.5,7.6,0.5,7.6s-0.6-1-1.9-3.3     c1.7,9.3-11.2,12.3-11.2,12.3s3.2-6.4,2.7-9.2c0,0,2.5,1.4,3.7-1.1c1.2-2.5,0.5-8.5-4.1-6.5c-0.2,2.6-1.5,4.3-1.5,4.3     s-0.2-2.8-2.2-5.7c1.3,3.4,1.3,6.1,1.3,6.1S66.3,25,62.4,22c2.5,4.3,2.9,5.7,2.9,5.7s-5.6-0.1-11.8-4.5c2.5,2.7,2.8,2.9,2.8,2.9     s-4.8-0.8-7.5-2.6c2.8,2.9,3.6,3.8,3.6,3.8s-7.1,0.3-12.5-2c2.5,2.5,2.7,2.8,2.7,2.8L37,25.8l1.5,3.5l-7.2-2.1     c0,0-0.5,1-1.1,2.3c0-0.3,0.1-0.5,0.1-0.5s-1.8,3-2.2,2.7c-0.2-0.4-0.3-0.7-0.4-1.1C28.6,29.8,29.8,28.4,31,26.5z"></path>			</g>			<g>				<path class="st50" d="M60.5,26.7c-1.2-0.2-2.6-0.6-4.1-1.4C55.9,25,55.5,25,55.3,25c-0.4-0.4-0.9-1-1.7-1.8     C56.1,25,58.5,26,60.5,26.7z"></path>				<path class="st8" d="M62.2,21.7c3,1.5,7.6,8.6,7.6,8.6l-0.8-4.9c0,0,1.6,1.1,3,5.2c1.4-2,0.8-5,0.8-5s0.3-0.7,1,2.1     c1.1-1.3,3.1-1,4.2,2.2c0.9,3.6,0.1,5.8-3,9c0.7,0.3,3.3-1.4,4-3.7c0,2.8-2.2,6.4-0.9,5.1c4.1-3.4,3.1-10.1,3.1-10.1     s2.5,4.3,2.9,3.9c0.1-0.1,0.3-0.4,0.5-0.7c-0.1,1.7-0.6,2.7-0.6,2.7s-0.6-1-1.9-3.3c1.7,9.3-11.2,12.3-11.2,12.3     s3.2-6.4,2.7-9.2c0,0,2.5,1.4,3.7-1.1c1.2-2.5,0.5-8.5-4.1-6.5c-0.2,2.6-1.5,4.3-1.5,4.3s-0.2-2.8-2.2-5.7     c1.3,3.4,1.3,6.1,1.3,6.1S66.3,25,62.4,22c2.5,4.3,2.9,5.7,2.9,5.7s-2-0.1-4.8-1c2.2,0.3,3.5-0.1,3.5-0.1S64,26.2,62.2,21.7z"></path>			</g>			<g>				<path class="st8" d="M50.6,20.5C50.6,20.4,50.7,20.5,50.6,20.5c0.9,1.4,3.1,2.4,4.6,3c1.4,0.6,2.8,0.8,4.3,1     c0.1,0,0.7,0.4,0.4,0.5c-2,0.2-4.1-0.7-5.8-1.6C53,22.8,51,21.8,50.6,20.5z"></path>				<path class="st8" d="M46.2,21.1c0.7,0.8,2,1.4,3,1.8c0.9,0.3,1.8,0.5,2.7,0.8c0.1,0,0.4,0.3,0.1,0.3c-1.3-0.2-2.5-0.6-3.7-1.2     c-0.9-0.4-1.9-0.9-2.4-1.8C45.9,21,46.2,21.1,46.2,21.1z"></path>				<path class="st8" d="M37.3,23.9c3.2,1.3,7.3,1.8,10.7,1.7c0,0,0.1,0.1,0.1,0.1c-2.3,0.3-4.8-0.1-7-0.4c-0.9-0.1-1.7-0.3-2.6-0.6     c0.4,0.4,0.4,0.3,0.7,0.9c0.1,0.3-0.3,0.1-0.4,0c-0.5-0.5-1-0.9-1.6-1.3C37.1,24.1,37,23.8,37.3,23.9z"></path>			</g>			<g>				<g>					<path class="st8" d="M44.9,19c0,0-8-0.2-13.3,3.5c-2.1-6.6,1.2-10.4,5.7-11.4C41.7,10.2,45.3,12.8,44.9,19z"></path>					<path class="st8" d="M31.5,22.6C31.5,22.6,31.5,22.6,31.5,22.6c-1-3.1-0.9-5.8,0.3-7.9c1.1-1.8,3-3.2,5.4-3.7      c0.3-0.1,0.6-0.1,0.8-0.1c2-0.2,3.7,0.2,5,1.4c1.5,1.4,2.2,3.7,1.9,6.7c0,0.1,0,0.1-0.1,0.1c0,0-1.6,0-3.7,0.2      C38.4,19.7,34.6,20.5,31.5,22.6C31.6,22.6,31.6,22.6,31.5,22.6C31.5,22.6,31.5,22.6,31.5,22.6z M44.8,18.9      c0.2-2.8-0.5-5.1-1.9-6.4c-1.2-1.1-2.9-1.6-4.8-1.4c-0.3,0-0.5,0.1-0.8,0.1C34.9,11.8,33,13,32,14.8c-1.1,2-1.3,4.6-0.4,7.5      c3-2.1,6.8-2.9,9.6-3.2C43,18.9,44.4,18.9,44.8,18.9z"></path>				</g>				<g class="st32">					<path class="st8" d="M33.2,13.2c-3.2,3.4-1.4,8.7-1.2,6.8c0.3-2.3,0.9-4.9,2-3.1c1.1,1.8,2.9,1.4,2.9,1.4s-3-4.7-1.4-2.9      c1.7,1.8,5.9,2.4,5.9,2.4L39.4,13c0,0,2.9,0.8,3.8,3.9c0.2-2.9-0.9-4.7-1.3-5.1c2,1.1,3.2,3.5,2.9,7.3c0,0-8-0.2-13.3,3.5      C30.2,18.2,31.1,15.1,33.2,13.2z"></path>				</g>				<g>					<path class="st8" d="M31.5,16.2c0.3-3.5,4.6-4.8,7.4-5c0,0,0.1,0.1,0.1,0.1c-1.9,0.3-3.3,0.6-4.8,1.8c-1.1,0.9-1.8,2-2.3,3.3      C31.8,16.6,31.5,16.3,31.5,16.2z"></path>					<path class="st8" d="M31.5,16.6c0-0.1,0.2,0,0.2,0.1c0,0.2,0,0.5,0,0.7c0,0.3,0,0.5,0,0.8c0,0.2-0.3-0.1-0.3-0.1      C31.2,17.6,31.4,17,31.5,16.6z"></path>				</g>			</g>			<g>				<path class="st50" d="M54.2,1.6c-1.3,0.1-2.7,0.3-4,0.5C50.9,1.9,52.3,1.7,54.2,1.6z"></path>				<g>					<path class="st4" d="M49.8,2.2c0.1,0,0.3-0.1,0.5-0.1C49.9,2.2,49.8,2.2,49.8,2.2C49.8,2.2,49.8,2.2,49.8,2.2z"></path>					<path class="st51" d="M49.8,2.3C49.8,2.3,49.8,2.3,49.8,2.3c0,0,0.2-0.1,0.5-0.1c0.1,0,0.1-0.1,0.1-0.1C50.3,2,50.2,2,50.2,2      l-0.1,0c-0.1,0-0.2,0-0.3,0.1c0,0-0.1,0.1-0.1,0.1l0,0C49.7,2.2,49.7,2.3,49.8,2.3C49.7,2.3,49.7,2.3,49.8,2.3z"></path>				</g>			</g>			<path class="st52" d="M40.7,5.3c8.1-4.1,17.6-4.4,25.9-1.1c0.2,0.1,0.6,0.6,0.1,0.4c-4-1.4-8-2.2-12.3-2.1    c-4.6,0-9.2,1.6-13.5,3.1C40.8,5.5,40.5,5.3,40.7,5.3z"></path>			<path class="st52" d="M37.8,7c0.6-0.4,1.2-0.8,1.9-1.1c0.1,0,0.3,0.1,0.2,0.2c-0.7,0.3-1.2,0.9-1.9,1.1C38,7.3,37.7,7.1,37.8,7z"></path>			<g class="st53">				<path class="st8" d="M78.3,20C77.4,8.9,72.2,4.5,69.5,2.9C81.7,8.1,81.6,23,81.6,23s-27.1-10-52.9,4c0,0,0,0,0-0.1     C41.7,17,69.2,17.4,78.3,20z"></path>			</g>			<g>				<path class="st54" d="M38.1,19.7c0,0,0.5,2.1,0.2,2.9c-0.3,0.8-2.2,0.9-2.2,0.9s-0.9-2.1-1-2.7C35,20.1,36.6,19.2,38.1,19.7z"></path>				<path class="st13" d="M36.2,23.6C36.1,23.6,36.1,23.5,36.2,23.6c-0.1-0.1-1-2.2-1.1-2.8c0-0.2,0-0.3,0.1-0.5     c0.3-0.4,1-0.7,1.7-0.8c0.5-0.1,0.9,0,1.3,0.1c0,0,0.1,0,0.1,0.1c0,0.1,0.5,2.2,0.2,2.9c-0.2,0.6-1.3,0.8-2,0.9l0,0     C36.3,23.5,36.2,23.6,36.2,23.6z M36.9,19.7c-0.8,0.1-1.3,0.4-1.5,0.7c-0.1,0.1-0.1,0.2-0.1,0.3c0.1,0.6,0.8,2.3,1,2.6     c0.1,0,0.1,0,0.2,0c0.5-0.1,1.7-0.3,1.8-0.8c0.2-0.7-0.1-2.4-0.2-2.8C37.7,19.6,37.3,19.6,36.9,19.7z"></path>			</g>			<g>				<path class="st55" d="M35.1,20.7c0,0-3.2,1.3-3.5,2.2c-0.2,0.8,0.8,2,0.8,2l3.7-1.5L35.1,20.7z"></path>				<path class="st13" d="M32.4,25.1c0,0-1-1.2-0.8-2.1c0.3-1,3.4-2.3,3.5-2.3c0,0,0.1,0,0.1,0c0,0,0,0,0.1,0.1l1,2.7     c0,0,0,0.1-0.1,0.1l-3.7,1.5C32.5,25.1,32.5,25.1,32.4,25.1C32.5,25.1,32.4,25.1,32.4,25.1z M35.1,20.9     c-0.9,0.4-3.1,1.4-3.3,2.1c-0.1,0.7,0.6,1.6,0.7,1.9l3.5-1.5L35.1,20.9z"></path>			</g>			<path class="st45" d="M35.1,20.7c0-0.2,0.1-0.4,0.4-0.6c0.2,0.7,0.5,1.3,1.1,1.7c0.4,0.3,1,0.1,1.2-0.4c0.3-0.6,0-1.3-0.2-1.9    c0.2,0,0.3,0.1,0.5,0.1c0,0,0.5,2.1,0.2,2.9c-0.3,0.8-2.2,0.9-2.2,0.9S35.3,21.4,35.1,20.7z"></path>			<path class="st45" d="M33.7,23.7c1.1-0.7,1.3-1.7,1-2.8c0.3-0.1,0.5-0.2,0.5-0.2l1,2.7L32.5,25c0,0-0.2-0.3-0.4-0.6    C32.6,24.3,33.2,24,33.7,23.7z"></path>			<path class="st52" d="M35.8,20.3c0.4-0.3,0.9-0.5,1.4-0.4c0.1,0,0.3,0.2,0.2,0.2c-0.4,0-0.8,0.3-1.2,0.5    C36.1,20.7,35.7,20.4,35.8,20.3z"></path>			<path class="st52" d="M31.9,23.5c0.2-1.1,1.4-1.6,2.3-2c0,0,0.1,0,0.1,0.1c-0.4,0.3-0.7,0.7-1.1,1c-0.4,0.4-0.6,0.8-0.8,1.3    C32.3,24,31.9,23.7,31.9,23.5z"></path>		</g>		<g>			<path class="st0" d="M45.8,69.7c-1-0.5-2-0.9-3.1-0.8c-0.4-0.5-0.8-1-1.1-1.5c-0.7-1-1.6-1.9-2.4-2.8c-0.9-1-1.7-2-2.5-3    c-0.8-0.9-1.6-1.8-2.5-2.6c0.1-1.3,0-2.7-0.5-3.9c0,0,0,0,0-0.1c-0.4-1.2-0.8-2.4-1.3-3.6c-0.5-1.1-1.3-2.2-2-3.2    c-0.7-1.1-1.6-2-2.3-3.1c-0.5-0.7-1-1.8-1.9-2.1c-0.4-0.2-0.9-0.1-1.1,0.4c-0.3,0.8,0,1.7,0.4,2.5c0.5,1,1.3,1.8,2,2.6    c0.4,0.4,0.8,0.9,1.1,1.5c-0.9-0.1-1.8-0.2-2.5,0.5c-0.1,0.1-0.3,0.3-0.3,0.5c-1.3,0.2-1.9,0.9-2.2,1.9c0,0,0,0,0,0    c-1.3,0.8-1.1,2.9-0.6,4.2c0.3,0.9,1.5,1.9,2.4,1.6c0.7,1.2,1.5,2.3,2.8,2.9c0.8,0.4,1.7,0.4,2.4,0.1c2.2,3.8,4.5,7.6,7.5,10.9    c1.3,1.4,2.9,3.4,5,3c0.9-0.2,1.6-0.8,2.2-1.4c0.7-0.7,1.4-1.4,1.9-2.3c0,0,0-0.1,0-0.1C47.6,70.8,46.4,70,45.8,69.7z"></path>			<path class="st1" d="M27,47.3c-0.7-0.8-1.3-1.7-1.6-2.7c-0.1-0.3-0.1-0.6-0.1-0.8c0-1,0.7-0.6,1-0.4c0.4,0.3,0.7,0.7,1,1.1    c1.2,1.7,2.5,3.3,3.6,5c0.9,1.4,1.6,2.9,2.2,4.5c-0.4-0.5-1-1-1.5-1.4c-0.6-0.4-1.2-0.6-1.8-0.8c0,0,0,0,0-0.1    c-0.2-0.6-0.5-1.2-0.7-1.7c0,0,0-0.1,0-0.1C28.4,49,27.7,48.2,27,47.3z"></path>			<path class="st2" d="M31,49.5c-1.1-1.7-2.4-3.3-3.6-5c-0.3-0.4-0.6-0.9-1-1.1c-0.3-0.2-1-0.6-1,0.3c0.8,0.1,1.5,0.8,1.9,1.5    c0.7,1,1.3,2.1,1.9,3.1c0.6,0.9,1.1,1.9,1.1,3c0,0.1-0.2,0.2-0.2,0.1c-0.2-0.2-0.4-0.4-0.6-0.6c0.1,0.3,0.3,0.6,0.4,1    c0,0,0,0,0,0.1c0.6,0.2,1.3,0.4,1.8,0.8c0.5,0.4,1.1,0.8,1.5,1.4C32.6,52.4,31.9,50.9,31,49.5z"></path>			<path class="st1" d="M25.9,51.2c0.4-1.2,1.8-1.1,2.9-1c0.3,0.5,0.5,1,0.8,1.5c-0.2-0.1-0.4-0.1-0.5-0.2c-0.6-0.3-2.4-1.9-2.7-0.3    c-0.2,1.2,0.6,2.1,1.5,2.7c0,0,0,0,0,0c0.1,0.3,0.1,0.5,0.5,0.6c0.2,0.1,0.5,0,0.7,0.1c0.2,0,0.3,0.2,0.5,0.2c0,0,0,0,0,0    c0.1,0,0.1,0.1,0.2,0.1c0.4,0.4,0.3,1,0.2,1.5c0,0,0-0.1-0.1,0c-0.5,0.1-1,0.3-1.5,0.4c-0.5,0.1-1.1-0.3-1.5-0.6    c-0.8-0.5-1.1-1.3-1.3-2.2C25.5,53.1,25.6,52.1,25.9,51.2z"></path>			<path class="st2" d="M28.6,50.4c-0.1,0.4-0.5,0.2-0.8,0.2c-0.2,0-0.4-0.1-0.6-0.1c0.6,0.2,1.4,0.8,1.8,1c0.2,0.1,0.4,0.2,0.5,0.2    c-0.2-0.5-0.5-1-0.8-1.5c-0.1,0-0.2,0-0.2,0C28.6,50.3,28.6,50.3,28.6,50.4z"></path>			<path class="st2" d="M29.7,55c-0.1,0-0.1-0.1-0.2-0.1c0,0,0,0,0,0c-0.2-0.1-0.3-0.2-0.5-0.2c-0.2,0-0.5,0-0.7-0.1    c-0.4-0.1-0.3-0.3-0.5-0.6c0,0,0,0,0,0c-0.9-0.6-1.7-1.5-1.5-2.7c0-0.2,0.1-0.3,0.2-0.5c-0.1,0.1-0.2,0.3-0.3,0.5    c-0.1,0.4-0.1,0.9,0,1.3c0.1,0.7,0.3,1.4,0.3,2.1c0,0.1-0.1,0.1-0.1,0.1c-0.2,0-0.4-0.1-0.5-0.2c0.2,0.6,0.5,1.2,1.1,1.6    c0.4,0.3,1,0.6,1.5,0.6c0.5-0.1,1-0.2,1.5-0.4c0.1,0,0.1,0,0.1,0C30.1,55.9,30.2,55.4,29.7,55z"></path>			<path class="st1" d="M28.2,54.1c0.1,0.1,0.3,0.1,0.4,0.2c-0.1,0-0.1,0-0.2,0C28.3,54.2,28.2,54.1,28.2,54.1z"></path>			<path class="st1" d="M23.7,53.1c0.1-1.1,0.9-1.7,2-2c-0.3,0.7-0.3,1.5-0.3,2.2c0,1.2,0.3,2.2,1.2,3c0.3,0.3,0.7,0.5,1.2,0.7    c-0.3,0.5-0.7,0.8-1.3,0.9c-0.5,0.1-0.9-0.4-1.2-0.6c-0.6-0.5-0.9-1.2-1.1-1.8C23.8,54.7,23.7,53.9,23.7,53.1z"></path>			<path class="st2" d="M26.5,56.3c-0.9-0.8-1.2-1.9-1.2-3c0-0.5,0-1.1,0.2-1.7c-0.2,0.4-0.4,0.9-0.5,1.3c-0.1,0.6-0.2,1.6,0,2.2    c0.1,0.2,0.6,1.2-0.1,1.1c-0.4,0-0.8-0.5-1-0.9c0,0,0,0.1,0,0.1c0.2,0.7,0.6,1.4,1.1,1.8c0.3,0.3,0.8,0.7,1.2,0.6    c0.6-0.1,1-0.4,1.3-0.9C27.3,56.9,26.9,56.7,26.5,56.3z"></path>			<path class="st1" d="M23.6,53c-0.2,0.8-0.1,1.6,0.2,2.5c0.3,1,0.9,2.1,1.9,2.6C23.5,59.4,21.6,54.3,23.6,53z"></path>			<path class="st2" d="M23.7,55.4c-0.3-0.8-0.3-1.6-0.2-2.3c0,0,0,0,0-0.1c-0.2,0.6-0.2,1.3-0.2,1.9c0.1,0.4,0.1,0.8,0.2,1.3    c0.1,0.2,0.2,0.4,0.2,0.6c0,0.2-0.2,0.3-0.4,0.3c0.5,0.9,1.4,1.4,2.3,0.9C24.7,57.5,24.1,56.5,23.7,55.4z"></path>			<path class="st1" d="M47.1,71.6c0,0-0.1,0-0.1,0.1c-1,1.7-2.9,4-5.2,3.4c-0.9-0.2-1.6-1-2.2-1.6c-0.8-0.7-1.5-1.5-2.2-2.3    c-2.5-3-4.7-6.3-6.7-9.7c0.2-0.1,0.5-0.3,0.7-0.5c0,0,0-0.1,0-0.1c-0.8,0.6-1.8,0.9-2.7,0.5c-0.3-0.1-0.6-0.3-0.9-0.5    c-0.9-0.6-1.5-1.5-2.2-2.4c0.1-0.1,0.3-0.2,0.4-0.3c0,0,0,0,0,0c0.8,0.3,1.7-0.4,2-1.1c0,0,0.1,0,0.1,0c0.6,0.1,1.3-0.2,1.8-0.4    c0,0,0.1-0.1,0.1-0.1c0,0,0,0,0,0c-0.3,1.1-0.2,2,0.2,3c-0.1-0.4-0.1-0.8-0.1-1.3c-0.1-0.3-0.1-0.7,0-1c0.1-0.5,0.4-1,0.3-1.5    c0-0.5-0.1-0.7-0.4-1.1c-0.3-0.3-0.8-0.6-1.2-0.7c0,0,0,0,0,0c-1.1-0.6-2.2-1.2-2.1-2.7c0.3-0.5,0.7-0.7,1.1-0.3    c0.1,0.1,0.2,0.2,0.4,0.2c0.3,0.2,0.5,0.4,0.8,0.5c0.5,0.3,1.1,0.4,1.6,0.5c0.6,0.2,1.2,0.8,1.7,1.2c0.5,0.4,0.9,0.9,1.2,1.4    c0.5,1.1,0.7,2.5,0.7,3.8c0,0,0,0.1,0,0.1c0,0,0,0.1,0,0.1c0.1,0.2,0.2,0.3,0.3,0.5c1.5,1.7,3,3.5,4.5,5.3c0.8,1,1.7,2,2.5,3    c0.2,0.3,0.4,0.5,0.6,0.8c0,0,0.1,0,0.1,0c0.3,0.3,0.6,0.7,1,1c0.2,0.2,0.3,0.5,0.6,0.7c-0.2-0.4-0.5-0.8-0.7-1.1    c0.7,0,1.4,0.2,2.1,0.5C45.5,69.9,47.3,70.6,47.1,71.6z"></path>			<path class="st2" d="M44.9,69.6c-0.7-0.4-1.4-0.5-2.1-0.5c0.3,0.4,0.5,0.8,0.7,1.1c-0.2-0.1-0.4-0.5-0.6-0.7    c-0.2-0.2-0.4-0.4-0.6-0.7c0,0,0,0.1,0,0.1c0.4,1,0.7,2,0.8,3.1c0,0.5,0.2,1.5-0.4,1.8c-0.7,0.2-1.2-0.6-1.7-1    c-2.3-2.1-4-4.7-5.9-7.2c-0.8-1.1-1.7-2.2-2-3.6c-0.2-1.1,0.3-2.1,0.9-3c0-0.1-0.1-0.1-0.1-0.2c0,0,0-0.1,0-0.1c0,0,0-0.1,0-0.1    c0-1.3-0.1-2.7-0.7-3.8c-0.1-0.2-0.2-0.4-0.3-0.5c0.3,0.8,0.4,1.6,0.2,2.4c-0.1,0.8-0.4,1.8-0.8,2.5c-0.4,0.5-0.8,0.8-1.4,0.4    c-0.6-0.4-0.7-1.4-0.6-2.1c0.1-0.5,0.1-1,0.2-1.5c0.1-0.4,0.3-0.9,0.2-1.3c-0.1-0.9-1.1-1.3-1.8-1.7c-0.6-0.3-2.5-1.2-2.3-2.1    c-0.1,0.1-0.1,0.1-0.2,0.2c0,1.4,1.1,2.1,2.1,2.7c0,0,0,0,0,0c0.4,0.2,1,0.4,1.2,0.7c0.3,0.4,0.4,0.6,0.4,1.1    c0,0.5-0.2,1-0.3,1.5c-0.1,0.4,0,0.7,0,1c0,0.4,0,0.8,0.1,1.3c-0.4-1-0.5-1.9-0.2-3c0,0,0,0,0,0c0,0-0.1,0.1-0.1,0.1    c-0.5,0.2-1.2,0.5-1.8,0.4c0,0-0.1,0-0.1,0c-0.3,0.7-1.2,1.4-2,1.1c0,0,0,0,0,0c-0.1,0.1-0.2,0.2-0.4,0.3    c0.7,0.9,1.3,1.7,2.2,2.4c0.3,0.2,0.6,0.4,0.9,0.5c0.9,0.4,1.9,0.1,2.7-0.5c0,0,0,0.1,0,0.1c-0.2,0.2-0.4,0.4-0.7,0.5    c2,3.4,4.2,6.6,6.7,9.7c0.7,0.8,1.4,1.6,2.2,2.3c0.6,0.6,1.4,1.3,2.2,1.6c2.2,0.6,4.1-1.8,5.2-3.4c0-0.1,0.1-0.1,0.1-0.1    C47.3,70.6,45.5,69.9,44.9,69.6z"></path>			<path class="st2" d="M44.9,69.6c-0.3-0.1-0.5-0.2-0.8-0.3c0.4,0.3,0.6,0.6,0.9,1c0.2,0.3,0.3,0.6,0.5,1c0.1,0.2-0.1,0.4-0.2,0.6    c-0.4,1.1-0.8,2.1-1.5,3c1.3-0.6,2.4-2.1,3.1-3.2c0-0.1,0.1-0.1,0.1-0.1C47.3,70.6,45.5,69.9,44.9,69.6z"></path>		</g>		<g>			<g>				<g>					<path class="st56" d="M8.4,60.3l22.2,3.8c0,0,1.9,0.1,2.7,1.6l11.2,25c0,0,0.6,0.6-0.6,1.2l-20.9-5c0,0-1.1-0.1-1.9-1.2      L7.6,61.7C7.6,61.7,6.9,60.3,8.4,60.3z"></path>					<path class="st57" d="M43.9,92l-20.9-5c0,0-1.2-0.2-2-1.3L7.4,61.8c0,0-0.4-0.8-0.1-1.3c0.2-0.3,0.5-0.4,1-0.4l22.3,3.8      c0.1,0,2.1,0.1,2.8,1.7l11.2,24.9c0.1,0.1,0.2,0.3,0.2,0.6C44.8,91.5,44.5,91.8,43.9,92L43.9,92z M8.4,60.5      c-0.3,0-0.5,0.1-0.6,0.2c-0.2,0.3,0,0.7,0.1,0.8l13.5,23.9c0.7,1,1.7,1.1,1.7,1.1l20.8,5c0.3-0.2,0.5-0.4,0.6-0.5      c0-0.1-0.1-0.3-0.1-0.3l0-0.1l-11.2-25c-0.7-1.4-2.5-1.5-2.5-1.5L8.4,60.5z"></path>				</g>				<path class="st56" d="M44.5,90.6l-11.2-25c-0.7-1.5-2.7-1.6-2.7-1.6L8.4,60.3c-1.5,0-0.8,1.4-0.8,1.4l13.5,23.9     c0.8,1.1,1.9,1.2,1.9,1.2l20.9,5C45.1,91.2,44.5,90.6,44.5,90.6z M36.8,85.9l-15.9-3.8c0,0-0.8-0.1-1.4-0.9L9.2,63     c0,0-0.5-1.1,0.6-1.1l16.9,2.9c0,0,1.5,0.1,2,1.2l8.5,19C37.3,85,37.7,85.5,36.8,85.9z"></path>				<path class="st56" d="M34.1,69.3c0.3,0.8,0.7,1.7,1,2.5c0.2,0.6,0.4,1.2,0.7,1.8c0.2,0.3,0.3,0.7,0.4,1c0.1,0.6-0.5,1-0.9,1.2     c-0.6,0.4-1,1-1.4,1.7c0.4-0.2,0.8-0.4,1.1-0.5c0.9-0.3,1.9-0.5,2.9-0.4c0.1,0,0.2,0,0.2,0.1l-4.9-11c-0.5-1.1-1.7-1.4-2.3-1.5     C32.5,65.4,33.4,67.4,34.1,69.3z"></path>				<path class="st56" d="M44.5,90.6l-5.9-13.2c0,0,0,0,0,0c-0.4,0.5-0.9,0.8-1.2,1.3c-0.5,0.9-1,2-0.8,3c0.2,1,0.8,2,1.6,2.8     c0.4,0.4,0.9,0.9,1.5,0.8c0.3,0,0.5-0.2,0.8-0.3c0.3-0.1,0.6,0.6,0.6,0.8c0.3,0.6,0.6,1.2,1,1.8c0.6,1,1.5,2.6,0.4,3.7     c0,0-0.1,0.1-0.1,0.1l1.5,0.4C45.1,91.2,44.5,90.6,44.5,90.6z"></path>			</g>			<path class="st9" d="M11.1,63.2c0.3,0.4,0.3,0.8,0.1,1c-0.2,0.2-0.6,0-0.9-0.4c-0.3-0.4-0.3-0.8-0.1-1    C10.4,62.6,10.8,62.8,11.1,63.2z"></path>			<path class="st45" d="M10.6,63.1c0.1,0.2,0.1,0.3,0,0.4c-0.1,0.1-0.3,0-0.4-0.2c-0.1-0.2-0.1-0.4,0-0.4    C10.3,62.9,10.5,63,10.6,63.1z"></path>			<path class="st45" d="M10.5,62.2c0.1,0,16.9,3,16.9,3s0.5,0,1.1,0.9c0.6,0.9,2.3,4.9,2.3,4.9l-2.8-4.8c0,0-0.3-0.6-2.4-0.9    C23.4,64.9,10.5,62.2,10.5,62.2z"></path>		</g>		<g>			<path class="st0" d="M65.9,73.2c-0.5-0.7-1.2-1.2-1.9-1.8c-0.8-0.7-1.5-1.3-2.4-1.8c-0.5-0.3-1-0.6-1.6-0.6c-0.2,0-0.4,0-0.6,0    c0.4,0.1,0.8,0.2,1.3,0.4c-0.6,1.2-1.4,2.4-2.1,3.5c-0.8,1.4-1.7,2.7-2.5,4.1c-3.6,0.4-7.2,1.2-10.8,1.9c-1.3-1.4-3-2.6-4.8-3.1    c0,0,0,0,0,0c0,0-0.1,0-0.2-0.1c-0.2,0-0.4-0.2-0.7-0.3c-0.4-0.2-0.7-0.3-1.1-0.5c-0.4-0.2-0.8-0.4-1.2-0.6c0,0-0.1,0-0.1,0    c0,0.3,0.1,0.5,0.2,0.8c0,0,0,0.1,0.1,0.1c0.1,0.2,0.1,0.3,0.1,0.5c-0.7,0.1-1.4,0.4-2,0.5c-0.8,0.2-1.7,0.4-2.1,1.2    c-0.5,0.8-1.7,5.7,0.3,5.3c0.7-0.2,0.8-1.3,0.8-1.9c0-1,0.2-1.8,1.1-2.3c0.5-0.4,1.2-0.5,1.9-0.6c-0.6,0.5-1.2,1.1-1.6,1.8    c-0.1,0.3-0.2,0.5-0.2,0.7c-0.2,0.5-0.3,1.1-0.1,1.7c0.2,0.7,0.5,1.3,1,1.7c0,0,0,0,0,0c0.1,0.2,0.3,0.3,0.6,0.5c0,0,0,0,0,0    c0.1,0.6,0.5,1.3,1.1,1.5c0.2,0.1,0.5,0,0.7,0c0.3,0,0.6,0,0.9,0c0.2,0,0.5-0.2,0.6-0.3c0.3-0.6-0.1-1.1-0.7-1.4    c0.5-0.3,1-0.5,1.6-0.3c0.8,0.2,1.6,0.4,2.4,0.6c0.9,0.1,1.7-0.2,2.2-0.8c1,0.1,2.1,0.2,3.1,0.3c1.5,0.1,3.1,0.1,4.6,0.1    c2-0.1,4.1-0.4,5.8-1.4c0.3-0.3,0.6-0.5,0.9-0.8c0.4-0.3,0.7-0.6,1.1-1c0.1-0.2,0.3-0.4,0.4-0.6c0.6-0.8,1.1-1.7,1.7-2.5    c0.6-0.8,1.1-1.6,1.7-2.3c0.3-0.4,0.5-0.8,0.8-1.2c0,0,0,0,0.1,0.1C66.2,73.8,66.1,73.5,65.9,73.2z"></path>			<path class="st1" d="M37.5,74.8c0.3,0.2,0.7,0.4,1,0.6c0.3,0.1,0.5,0.2,0.8,0.4c-0.5-0.1-0.9,0-1.4,0.1    C37.8,75.4,37.6,75.1,37.5,74.8z"></path>			<path class="st1" d="M65.3,75.1c-0.6,0.8-1.2,1.7-1.9,2.5c-0.6,0.7-1.1,1.5-1.6,2.3c-0.3,0.4-0.6,0.8-0.9,1.1    c-0.9,0.8-1.8,1.4-3,1.8c-1.4,0.5-3.1,0.6-4.6,0.6c-1.3,0-2.7,0-4.1,0c-1,0-2.1-0.1-3.1-0.2c0.1-0.1,0.1-0.3,0.1-0.3    c-0.1,0.1-0.2,0.3-0.3,0.4l0,0c0,0,0,0-0.1,0.1l0,0c-1,0.9-2.6,0.5-3.8,0.1c-0.6-0.2-1-0.3-1.6-0.1c-0.4,0.2-0.8,0.4-1.2,0.6    c0,0.1-0.1,0.2-0.1,0.3c0.1-0.1,0.2-0.1,0.3-0.2c0.1,0.1,0.2,0.1,0.4,0.2c0.3,0.2,0.9,0.9,0.1,1.1c-0.2,0-0.5,0-0.7,0    c-0.4,0-0.8,0.1-1.2-0.1c-0.9-0.5-0.6-1.7-0.1-2.3c0.4-0.4,0.8-0.8,1.2-1.1c0.1,0,0-0.2,0-0.1c-0.4,0.3-0.9,0.7-1.3,1.1    c-0.3,0.2-0.7,0.6-0.7,0.9c0,0,0,0.1,0,0.1c-0.2-0.2-0.4-0.4-0.5-0.6c-0.4-0.6-0.1-1.1,0.2-1.6c0.2-0.4,0.5-0.7,0.8-1.1    c0.1-0.1,0.1-0.3,0.2-0.4c-0.7,0.8-1.6,1.8-1.6,2.7c-0.2-0.3-0.3-0.5-0.5-0.9c0,0,0,0-0.1-0.1c-0.2-0.7-0.1-1.5,0.2-2.1    c0-0.1,0.1-0.3,0.3-0.5c0.4-0.6,1-1,1.5-1.5c0,0,0,0,0,0c0,0,0,0,0,0c0-0.1,0-0.2,0-0.3c0,0-0.1,0.1-0.1,0.1    c-1.4,0.1-2.8,0.5-3.3,2.1c-0.1,0.4-0.1,0.8-0.1,1.2c0,0.2,0,0.4-0.1,0.7c-0.1,0.6-0.7,1.2-1.2,0.5c-0.3-0.5-0.2-1.3-0.2-1.9    c0-0.7,0.2-1.3,0.4-1.9c0.4-1.4,1.7-1.7,2.9-1.9c1.2-0.3,2.3-0.6,3.5-0.4c2.3,0.5,4.4,2,5.9,3.8c0.1,0.1-0.1-0.4-0.3-0.6    c2.1-0.3,4.1-0.7,6.1-1.1c1.4-0.3,2.8-0.5,4.2-0.7c0.3-0.1,0.5-0.3,0.8-0.4c0,0-0.1,0-0.1,0c0.9-1.3,1.7-2.6,2.5-4    c0.7-1.1,1.4-2.3,2-3.5c0.1,0.1,0.2,0.1,0.4,0.2c0.6,0.4,1.2,0.8,1.8,1.2c0.6,0.4,1.2,1,1.8,1.5c0.5,0.4,0.8,0.9,1.2,1.4    C65.9,74.3,65.6,74.7,65.3,75.1z"></path>			<path class="st1" d="M36.1,77c1.7-0.3,3.3-0.6,5,0c0.7,0.3,1.5,0.6,2.2,1c0.6,0.3,1.1,0.7,1.7,1c-1.4-1.4-3.2-2.6-5.1-3    c-1.2-0.3-2.4,0.1-3.5,0.4c-1.2,0.3-2.6,0.5-2.9,1.9C33.9,77.5,35.1,77.2,36.1,77z"></path>			<path class="st1" d="M58.6,73.6c0-0.1,0.1-0.1,0.1-0.2c-0.7,1.3-1.5,2.5-2.3,3.7C57.4,76.2,58,74.8,58.6,73.6z"></path>			<path class="st1" d="M50.6,78.8c0.9-0.1,1.8-0.3,2.7-0.5c0.8-0.2,1.7-0.3,2.4-0.7c0.2-0.1,0.3-0.2,0.5-0.3    c-0.1,0.1-0.3,0.1-0.4,0.2c-1.4,0.2-2.8,0.4-4.2,0.7c-1.8,0.4-3.7,0.7-5.5,1C47.5,79.5,49.2,79.1,50.6,78.8z"></path>			<path class="st2" d="M64.9,72.5c-0.6-0.5-1.2-1-1.8-1.5c-0.6-0.4-1.2-0.8-1.8-1.2c-0.1-0.1-0.2-0.1-0.4-0.2    c0,0.1-0.1,0.1-0.1,0.2c1.4,0.3,2.5,1.9,2,3.3c-0.4,1.1-1.4,1.9-2.1,2.7c-0.8,0.8-1.3,2-2.2,2.7c-0.1,0.1-0.1,0.1-0.2,0    c-0.5-0.4-1-0.6-1.5-0.8c0.4,0.6,0.8,1.3,0,1.8c-1.3,0.7-2.8,0.9-4.2,1.1c-1.8,0.3-3.6,0.7-5.3,1c-0.4,0.1-0.8,0.2-1.2,0    c-0.2-0.1-0.4-0.4-0.5-0.7c-0.4,0.6-0.9,0.9-1.7,0.9c-0.8,0-1.8-0.1-2.5-0.4c-0.9-0.4-1.2-1.2-1.6-2.1c-0.3-0.6-0.6-1.3-1.1-1.8    c-0.2-0.2-0.4-0.3-0.6-0.4c-0.9,0.1-1.7,0.3-2.5,0.6c-0.7,0.2-1.1,0.6-1.3,1.4c-0.2,1-0.1,2.1-0.7,2.9c0,0.1-0.1,0.1-0.2,0.1    C33.1,82,33,82,33,81.9c0,0.1,0.1,0.2,0.1,0.3c0.4,0.7,1.1,0.1,1.2-0.5c0-0.2,0-0.4,0.1-0.7c0-0.4,0-0.8,0.1-1.2    c0.5-1.5,1.9-1.9,3.3-2.1c0,0,0.1-0.1,0.1-0.1c0,0.1,0,0.2,0,0.3c0,0,0,0,0,0c0,0,0,0,0,0c-0.5,0.5-1,1-1.5,1.5    c-0.1,0.2-0.2,0.3-0.3,0.5c-0.4,0.6-0.5,1.5-0.2,2.1c0,0,0,0.1,0.1,0.1c0.1,0.3,0.3,0.6,0.5,0.9c-0.1-0.9,0.8-2,1.6-2.7    c-0.1,0.1-0.1,0.3-0.2,0.4c-0.3,0.3-0.6,0.7-0.8,1.1c-0.3,0.5-0.6,1-0.2,1.6c0.1,0.2,0.3,0.4,0.5,0.6c0,0,0-0.1,0-0.1    c0.1-0.4,0.5-0.7,0.7-0.9c0.4-0.4,0.8-0.7,1.3-1.1c0.1-0.1,0.1,0.1,0,0.1c-0.4,0.4-0.8,0.7-1.2,1.1c-0.6,0.6-0.8,1.8,0.1,2.3    c0.4,0.2,0.8,0.1,1.2,0.1c0.2,0,0.5,0.1,0.7,0c0.8-0.2,0.2-0.9-0.1-1.1c-0.1-0.1-0.2-0.1-0.4-0.2c-0.1,0.1-0.2,0.1-0.3,0.2    c0-0.1,0-0.2,0.1-0.3c0.4-0.3,0.8-0.5,1.2-0.6c0.6-0.2,1-0.1,1.6,0.1c1.2,0.4,2.8,0.8,3.8-0.1l0,0c0,0,0,0,0.1-0.1l0,0    c0.1-0.1,0.2-0.2,0.3-0.4c0-0.1,0,0.2-0.1,0.3c1,0.1,2.1,0.1,3.1,0.2c1.3,0.1,2.7,0.1,4.1,0c1.5,0,3.1-0.1,4.6-0.6    c1.2-0.4,2.1-1.1,3-1.8c0.3-0.4,0.6-0.7,0.9-1.1c0.5-0.8,1-1.5,1.6-2.3c0.6-0.8,1.2-1.7,1.9-2.5c0.3-0.4,0.5-0.8,0.8-1.2    C65.8,73.4,65.4,72.9,64.9,72.5z"></path>		</g>	</g></g></svg>