<svg xmlns="http://www.w3.org/2000/svg" height="291" viewBox="0 0 294 291" width="294"><path d="m18 441.5-9 9-9-9 9-9zm33 0-7 7-7-7 7-7zm34 0-6 6-6-6 6-6zm34 .5-4.498306 4.5-4.501694-4.5 4.501694-4.5zm35-.5-4 4-4-4 4-4zm-120 18-8 8-8-8 8-8zm34-.5-6.4982167 6.5-6.5017833-6.5 6.5017833-6.5zm34 .5-5 5-5-5 5-5zm34 0-4 4-4-4 4-4zm35-.5-3.5 3.5-3.5-3.5 3.5-3.5zm-120 17.5-7 7-7-7 7-7zm34 0-6 6-6-6 6-6zm34 .5-4.498306 4.5-4.501694-4.5 4.501694-4.5zm35-.5-4 4-4-4 4-4zm34 0-3 3-3-3 3-3zm-120 17.5-6.4982167 6.5-6.5017833-6.5 6.5017833-6.5zm34 .5-5 5-5-5 5-5zm34 0-4 4-4-4 4-4zm35-.5-3.5 3.5-3.5-3.5 3.5-3.5zm35 .5-2.998088 3-3.001912-3 3.001912-3zm-121 18-6 6-6-6 6-6zm34-.5-4.498306 4.5-4.501694-4.5 4.501694-4.5zm35 .5-4 4-4-4 4-4zm34 0-3 3-3-3 3-3zm35-.5-2.5 2.5-2.5-2.5 2.5-2.5zm-121 17.5-5 5-5-5 5-5zm34 0-4 4-4-4 4-4zm35 .5-3.5 3.5-3.5-3.5 3.5-3.5zm35-.5-2.998088 3-3.001912-3 3.001912-3zm34 0-1.998426 2-2.001574-2 2.001574-2zm-121 17.5-4.498306 4.5-4.501694-4.5 4.501694-4.5zm35 .5-4 4-4-4 4-4zm34 0-3 3-3-3 3-3zm35-.5-2.5 2.5-2.5-2.5 2.5-2.5zm35 .5-2 2-2-2 2-2zm-122 18-4 4-4-4 4-4zm35-.5-3.5 3.5-3.5-3.5 3.5-3.5zm35 .5-2.998088 3-3.001912-3 3.001912-3zm34 0-1.998426 2-2.001574-2 2.001574-2zm36 0-2 2-2-2 2-2zm-122 17-4 4-4-4 4-4zm34 0-3 3-3-3 3-3zm35 .5-2.5 2.5-2.5-2.5 2.5-2.5zm35-.5-2 2-2-2 2-2zm35 .500162-1.5 1.499838-1.5-1.499838 1.5-1.500162zm-259-159.500162-8 8-8-8 8-8zm34 .5-6.4982167 6.5-6.5017833-6.5 6.5017833-6.5zm34-.5-5 5-5-5 5-5zm34 0-4 4-4-4 4-4zm35 .5-3.5 3.5-3.5-3.5 3.5-3.5zm-120-17.5-7 7-7-7 7-7zm34 0-6 6-6-6 6-6zm34-.5-4.498306 4.5-4.501694-4.5 4.501694-4.5zm35 .5-4 4-4-4 4-4zm34 0-3 3-3-3 3-3zm-120-17.5-6.4982167 6.5-6.5017833-6.5 6.5017833-6.5zm34-.5-5 5-5-5 5-5zm34 0-4 4-4-4 4-4zm35 .5-3.5 3.5-3.5-3.5 3.5-3.5zm35-.5-2.998088 3-3.001912-3 3.001912-3zm-121-18-6 6-6-6 6-6zm34 .5-4.498306 4.5-4.501694-4.5 4.501694-4.5zm35-.5-4 4-4-4 4-4zm34 0-3 3-3-3 3-3zm35 .5-2.5 2.5-2.5-2.5 2.5-2.5zm-121-17.5-5 5-5-5 5-5zm34 0-4 4-4-4 4-4zm35-.5-3.5 3.5-3.5-3.5 3.5-3.5zm35 .5-2.998088 3-3.001912-3 3.001912-3zm34 0-1.998426 2-2.001574-2 2.001574-2zm-121-17.5-4.498306 4.5-4.501694-4.5 4.501694-4.5zm35-.5-4 4-4-4 4-4zm34 0-3 3-3-3 3-3zm35 .5-2.5 2.5-2.5-2.5 2.5-2.5zm35-.5-2 2-2-2 2-2zm-122-18-4 4-4-4 4-4zm35 .5-3.5 3.5-3.5-3.5 3.5-3.5zm35-.5-2.998088 3-3.001912-3 3.001912-3zm34 0-1.998426 2-2.001574-2 2.001574-2zm36 0-2 2-2-2 2-2zm-122-17-4 4-4-4 4-4zm34 0-3 3-3-3 3-3zm35-.5-2.5 2.5-2.5-2.5 2.5-2.5zm35 .5-2 2-2-2 2-2zm35-.5-1.5 1.5-1.5-1.5 1.5-1.5z" fill-rule="evenodd" transform="matrix(-1 0 0 -1 293.5 587)"></path></svg>