<svg xmlns="http://www.w3.org/2000/svg" xmlns:xlink="http://www.w3.org/1999/xlink" x="0px" y="0px" viewBox="0 0 1080 1080" style="enable-background:new 0 0 1080 1080;" xml:space="preserve"><style type="text/css">	.st0{display:none;fill:#1F85FF;}	.st1{fill:#FFFFFF;}	.st2{opacity:0.19;}	.st3{opacity:0;fill:#FFFFFF;}	.st4{opacity:3.846154e-02;fill:#F8F8F9;}	.st5{opacity:7.692308e-02;fill:#F1F2F4;}	.st6{opacity:0.1154;fill:#EAEBEE;}	.st7{opacity:0.1538;fill:#E3E4E8;}	.st8{opacity:0.1923;fill:#DDDEE3;}	.st9{opacity:0.2308;fill:#D6D7DD;}	.st10{opacity:0.2692;fill:#CFD0D7;}	.st11{opacity:0.3077;fill:#C8CAD2;}	.st12{opacity:0.3462;fill:#C1C3CC;}	.st13{opacity:0.3846;fill:#BABCC6;}	.st14{opacity:0.4231;fill:#B3B6C1;}	.st15{opacity:0.4615;fill:#ACAFBB;}	.st16{opacity:0.5;fill:#A6A9B6;}	.st17{opacity:0.5385;fill:#9FA2B0;}	.st18{opacity:0.5769;fill:#989BAA;}	.st19{opacity:0.6154;fill:#9195A5;}	.st20{opacity:0.6538;fill:#8A8E9F;}	.st21{opacity:0.6923;fill:#838799;}	.st22{opacity:0.7308;fill:#7C8194;}	.st23{opacity:0.7692;fill:#757A8E;}	.st24{opacity:0.8077;fill:#6E7388;}	.st25{opacity:0.8462;fill:#686D83;}	.st26{opacity:0.8846;fill:#61667D;}	.st27{opacity:0.9231;fill:#5A5F77;}	.st28{opacity:0.9615;fill:#535972;}	.st29{fill:#4C526C;}	.st30{fill:#E6AF93;}	.st31{fill:#232323;}	.st32{fill:#2D2D2D;}	.st33{fill:#BFE5EB;}	.st34{fill:#E2A88F;}	.st35{fill:#0067E2;}	.st36{fill:#2991B9;}	.st37{opacity:0.15;fill:#0067E2;}	.st38{fill:url(#SVGID_1_);}	.st39{fill:url(#SVGID_00000171692287661450524460000009481225280512285118_);}	.st40{fill:url(#SVGID_00000093895993868564323550000010858637910141293742_);}	.st41{fill:#0D77F7;}	.st42{fill:#0D6EFD;}	.st43{fill:#DB9923;}	.st44{fill:#754942;}	.st45{opacity:0.16;fill:#1F1F39;}	.st46{fill:#3B3B4D;}	.st47{opacity:0.26;fill:#3D3D59;}	.st48{fill:#EFAEA6;}	.st49{opacity:0.14;fill:#1F1F39;}	.st50{fill:#0267A4;}	.st51{opacity:0.11;fill:#1F1F39;}	.st52{fill:#0069A8;}	.st53{opacity:0.18;fill:#1F1F39;}	.st54{fill:url(#SVGID_00000163038541251044283130000015058159983110447283_);}	.st55{opacity:0.18;fill:#FFFFFF;}	.st56{fill:#004A93;}	.st57{fill:#F2B233;}	.st58{opacity:0.75;}	.st59{fill:#EA4F26;}	.st60{opacity:0.65;}	.st61{fill:#CC820A;}	.st62{fill:#F4C83D;}	.st63{fill:none;stroke:#FFFFFF;stroke-width:23.989;stroke-linecap:round;stroke-miterlimit:10;}	.st64{fill:#575759;}	.st65{opacity:0.6;fill:#2C2C42;}	.st66{fill:#AAAAAF;}	.st67{fill:#160661;}	.st68{fill:url(#SVGID_00000123417074244175592280000016539835334416229025_);}	.st69{fill:#0A004F;}	.st70{fill:url(#SVGID_00000013894936031987843330000013413135649746078119_);}	.st71{fill:url(#SVGID_00000143586586841521842220000000340688861667723705_);}	.st72{fill:url(#SVGID_00000130638033161146259860000004847490381295467681_);}	.st73{fill:url(#SVGID_00000119812298723576809780000018090861737115134862_);}	.st74{fill:url(#SVGID_00000108289126248451608590000008468167630933761943_);}	.st75{fill:url(#SVGID_00000168806421786488274800000002096879313859665054_);}	.st76{fill:#1F85FF;}	.st77{opacity:0.44;fill:#1F1F39;}	.st78{opacity:0.57;fill:#1F1F39;}	.st79{opacity:0.87;}	.st80{opacity:0.14;fill:#1F1F3B;}	.st81{opacity:0.24;fill:#1F1F3B;}	.st82{fill:url(#SVGID_00000048460500911330798520000016613347724540006274_);}	.st83{fill:none;stroke:#FFFFFF;stroke-width:21.0387;stroke-linecap:round;stroke-miterlimit:10;}	.st84{fill:url(#SVGID_00000083800248339692999290000012579198243036359828_);}	.st85{fill:url(#SVGID_00000176741036799135041420000016708018234704432794_);}	.st86{opacity:0.6;fill:#1F1F3B;}</style><g id="Layer_1">	<rect x="-4.2" y="-4.2" class="st0" width="1088.4" height="1088.4"></rect>	<g>		<g>			<path class="st1" d="M983.6,341.2c-3.4-6.5-12.4-11.2-22.9-11.2c-10.5,0-19.4,4.7-22.9,11.2H983.6z"></path>			<path class="st1" d="M996.1,362.9c-2.6-3.8-8.2-6.4-14.5-6.4c-6.4,0-11.9,2.6-14.5,6.4H996.1z"></path>		</g>		<g id="shadown_1_" class="st2">			<path class="st3" d="M1042,874.5c0,10.1-54.7,18.4-122.3,18.5c-67.6,0.1-122.4-7.9-122.4-18c0-10.1,54.7-18.4,122.3-18.5    C987.2,856.4,1042,864.4,1042,874.5z"></path>			<path class="st4" d="M1037.6,874.6c0,9.8-53.7,17.8-119.9,17.9c-66.2,0.1-120-7.6-120-17.4c0-9.8,53.7-17.8,119.9-17.9    C983.9,857,1037.6,864.8,1037.6,874.6z"></path>			<path class="st5" d="M1033.2,874.7c0,9.5-52.6,17.2-117.5,17.4c-64.9,0.1-117.5-7.4-117.6-16.9c0-9.5,52.6-17.2,117.5-17.4    C980.5,857.6,1033.2,865.2,1033.2,874.7z"></path>			<path class="st6" d="M1028.8,874.7c0,9.1-51.5,16.7-115.1,16.8c-63.6,0.1-115.1-7.2-115.2-16.3c0-9.2,51.5-16.7,115.1-16.8    C977.2,858.3,1028.7,865.6,1028.8,874.7z"></path>			<path class="st7" d="M1024.3,874.8c0,8.8-50.4,16.1-112.7,16.3c-62.2,0.1-112.7-6.9-112.7-15.8c0-8.8,50.4-16.1,112.7-16.3    C973.8,858.9,1024.3,866,1024.3,874.8z"></path>			<path class="st8" d="M1019.9,874.9c0,8.5-49.3,15.6-110.2,15.7c-60.9,0.1-110.3-6.7-110.3-15.2c0-8.5,49.3-15.6,110.2-15.7    C970.5,859.5,1019.9,866.3,1019.9,874.9z"></path>			<path class="st9" d="M1015.5,874.9c0,8.2-48.3,15-107.8,15.1c-59.6,0.1-107.9-6.4-107.9-14.7c0-8.2,48.3-15,107.8-15.1    C967.2,860.2,1015.5,866.7,1015.5,874.9z"></path>			<path class="st10" d="M1011.1,875c0,7.9-47.2,14.4-105.4,14.6c-58.2,0.1-105.5-6.2-105.5-14.1c0-7.9,47.2-14.5,105.4-14.6    C963.8,860.8,1011.1,867.1,1011.1,875z"></path>			<path class="st11" d="M1006.7,875.1c0,7.6-46.1,13.9-103,14c-56.9,0.1-103-5.9-103.1-13.6c0-7.6,46.1-13.9,103-14    C960.5,861.4,1006.7,867.5,1006.7,875.1z"></path>			<path class="st12" d="M1002.3,875.2c0,7.3-45,13.3-100.6,13.5c-55.6,0.1-100.6-5.7-100.6-13c0-7.3,45-13.3,100.6-13.5    C957.2,862,1002.2,867.9,1002.3,875.2z"></path>			<path class="st13" d="M997.8,875.2c0,7-43.9,12.8-98.2,12.9c-54.2,0.1-98.2-5.5-98.2-12.5c0-7,43.9-12.8,98.2-12.9    C953.8,862.7,997.8,868.2,997.8,875.2z"></path>			<path class="st14" d="M993.4,875.3c0,6.7-42.8,12.2-95.7,12.3c-52.9,0.1-95.8-5.2-95.8-11.9c0-6.7,42.9-12.2,95.8-12.3    C950.5,863.3,993.4,868.6,993.4,875.3z"></path>			<path class="st15" d="M989,875.4c0,6.4-41.8,11.7-93.3,11.8c-51.6,0.1-93.4-5-93.4-11.4c0-6.4,41.8-11.7,93.3-11.8    C947.2,863.9,989,869,989,875.4z"></path>			<path class="st16" d="M984.6,875.5c0,6.1-40.7,11.1-90.9,11.2c-50.2,0.1-91-4.7-91-10.8c0-6.1,40.7-11.1,90.9-11.2    C943.8,864.5,984.6,869.4,984.6,875.5z"></path>			<path class="st17" d="M980.2,875.5c0,5.8-39.6,10.5-88.5,10.7c-48.9,0.1-88.5-4.5-88.6-10.3c0-5.8,39.6-10.5,88.5-10.7    C940.5,865.2,980.2,869.8,980.2,875.5z"></path>			<path class="st18" d="M975.8,875.6c0,5.5-38.5,10-86.1,10.1c-47.6,0.1-86.1-4.2-86.1-9.7c0-5.5,38.5-10,86.1-10.1    C937.2,865.8,975.7,870.1,975.8,875.6z"></path>			<path class="st19" d="M971.3,875.7c0,5.2-37.4,9.4-83.7,9.5c-46.2,0.1-83.7-4-83.7-9.2c0-5.2,37.5-9.4,83.7-9.5    C933.8,866.4,971.3,870.5,971.3,875.7z"></path>			<path class="st20" d="M966.9,875.8c0,4.9-36.4,8.9-81.3,9c-44.9,0.1-81.3-3.8-81.3-8.6c0-4.9,36.4-8.9,81.3-9    C930.5,867,966.9,870.9,966.9,875.8z"></path>			<path class="st21" d="M962.5,875.8c0,4.5-35.3,8.3-78.8,8.4c-43.6,0.1-78.9-3.5-78.9-8.1c0-4.5,35.3-8.3,78.8-8.4    C927.2,867.7,962.5,871.3,962.5,875.8z"></path>			<path class="st22" d="M958.1,875.9c0,4.2-34.2,7.8-76.4,7.8c-42.2,0.1-76.5-3.3-76.5-7.5c0-4.2,34.2-7.8,76.4-7.8    C923.8,868.3,958.1,871.7,958.1,875.9z"></path>			<path class="st23" d="M953.7,876c0,3.9-33.1,7.2-74,7.3c-40.9,0.1-74-3-74-7c0-3.9,33.1-7.2,74-7.3    C920.5,868.9,953.7,872,953.7,876z"></path>			<path class="st24" d="M949.2,876c0,3.6-32,6.6-71.6,6.7c-39.6,0.1-71.6-2.8-71.6-6.4c0-3.6,32-6.6,71.6-6.7    C917.2,869.5,949.2,872.4,949.2,876z"></path>			<path class="st25" d="M944.8,876.1c0,3.3-31,6.1-69.2,6.2c-38.2,0.1-69.2-2.5-69.2-5.9c0-3.3,31-6.1,69.2-6.2    C913.8,870.2,944.8,872.8,944.8,876.1z"></path>			<path class="st26" d="M940.4,876.2c0,3-29.9,5.5-66.8,5.6c-36.9,0.1-66.8-2.3-66.8-5.3c0-3,29.9-5.5,66.8-5.6    C910.5,870.8,940.4,873.2,940.4,876.2z"></path>			<path class="st27" d="M936,876.3c0,2.7-28.8,5-64.3,5c-35.5,0.1-64.4-2.1-64.4-4.8c0-2.7,28.8-5,64.4-5    C907.2,871.4,936,873.6,936,876.3z"></path>			<path class="st28" d="M931.6,876.3c0,2.4-27.7,4.4-61.9,4.5c-34.2,0.1-62-1.8-62-4.2c0-2.4,27.7-4.4,61.9-4.5    C903.8,872,931.6,873.9,931.6,876.3z"></path>			<path class="st29" d="M927.2,876.4c0,2.1-26.6,3.8-59.5,3.9c-32.9,0.1-59.5-1.6-59.5-3.7c0-2.1,26.6-3.9,59.5-3.9    C900.5,872.7,927.2,874.3,927.2,876.4z"></path>		</g>		<g id="shadown_2_" class="st2">			<path class="st3" d="M5.7,874.5c0,10.1,54.7,18.4,122.3,18.5c67.6,0.1,122.4-7.9,122.4-18c0-10.1-54.7-18.4-122.3-18.5    C60.5,856.4,5.7,864.4,5.7,874.5z"></path>			<path class="st4" d="M10.1,874.6c0,9.8,53.7,17.8,119.9,17.9c66.2,0.1,120-7.6,120-17.4c0-9.8-53.7-17.8-119.9-17.9    C63.8,857,10.1,864.8,10.1,874.6z"></path>			<path class="st5" d="M14.5,874.7c0,9.5,52.6,17.2,117.5,17.4c64.9,0.1,117.5-7.4,117.6-16.9c0-9.5-52.6-17.2-117.5-17.4    C67.2,857.6,14.5,865.2,14.5,874.7z"></path>			<path class="st6" d="M18.9,874.7c0,9.1,51.5,16.7,115.1,16.8c63.6,0.1,115.1-7.2,115.2-16.3c0-9.2-51.5-16.7-115.1-16.8    C70.5,858.3,18.9,865.6,18.9,874.7z"></path>			<path class="st7" d="M23.3,874.8c0,8.8,50.4,16.1,112.7,16.3c62.2,0.1,112.7-6.9,112.7-15.8c0-8.8-50.4-16.1-112.7-16.3    C73.8,858.9,23.4,866,23.3,874.8z"></path>			<path class="st8" d="M27.8,874.9c0,8.5,49.3,15.6,110.2,15.7c60.9,0.1,110.3-6.7,110.3-15.2c0-8.5-49.3-15.6-110.2-15.7    C77.2,859.5,27.8,866.3,27.8,874.9z"></path>			<path class="st9" d="M32.2,874.9c0,8.2,48.3,15,107.8,15.1c59.6,0.1,107.9-6.4,107.9-14.7c0-8.2-48.3-15-107.8-15.1    C80.5,860.2,32.2,866.7,32.2,874.9z"></path>			<path class="st10" d="M36.6,875c0,7.9,47.2,14.4,105.4,14.6c58.2,0.1,105.5-6.2,105.5-14.1c0-7.9-47.2-14.5-105.4-14.6    C83.8,860.8,36.6,867.1,36.6,875z"></path>			<path class="st11" d="M41,875.1c0,7.6,46.1,13.9,103,14c56.9,0.1,103-5.9,103.1-13.6c0-7.6-46.1-13.9-103-14    C87.2,861.4,41,867.5,41,875.1z"></path>			<path class="st12" d="M45.4,875.2c0,7.3,45,13.3,100.6,13.5c55.6,0.1,100.6-5.7,100.6-13c0-7.3-45-13.3-100.6-13.5    C90.5,862,45.4,867.9,45.4,875.2z"></path>			<path class="st13" d="M49.8,875.2c0,7,43.9,12.8,98.2,12.9c54.2,0.1,98.2-5.5,98.2-12.5c0-7-43.9-12.8-98.2-12.9    C93.8,862.7,49.9,868.2,49.8,875.2z"></path>			<path class="st14" d="M54.3,875.3c0,6.7,42.9,12.2,95.7,12.3c52.9,0.1,95.8-5.2,95.8-11.9c0-6.7-42.9-12.2-95.8-12.3    C97.2,863.3,54.3,868.6,54.3,875.3z"></path>			<path class="st15" d="M58.7,875.4c0,6.4,41.8,11.7,93.3,11.8c51.6,0.1,93.4-5,93.4-11.4c0-6.4-41.8-11.7-93.3-11.8    C100.5,863.9,58.7,869,58.7,875.4z"></path>			<path class="st16" d="M63.1,875.5c0,6.1,40.7,11.1,90.9,11.2c50.2,0.1,91-4.7,91-10.8c0-6.1-40.7-11.1-90.9-11.2    C103.8,864.5,63.1,869.4,63.1,875.5z"></path>			<path class="st17" d="M67.5,875.5c0,5.8,39.6,10.5,88.5,10.7c48.9,0.1,88.5-4.5,88.6-10.3c0-5.8-39.6-10.5-88.5-10.7    C107.2,865.2,67.5,869.8,67.5,875.5z"></path>			<path class="st18" d="M71.9,875.6c0,5.5,38.5,10,86.1,10.1c47.6,0.1,86.1-4.2,86.1-9.7c0-5.5-38.5-10-86.1-10.1    C110.5,865.8,71.9,870.1,71.9,875.6z"></path>			<path class="st19" d="M76.3,875.7c0,5.2,37.4,9.4,83.7,9.5c46.2,0.1,83.7-4,83.7-9.2c0-5.2-37.5-9.4-83.7-9.5    C113.8,866.4,76.4,870.5,76.3,875.7z"></path>			<path class="st20" d="M80.8,875.8c0,4.9,36.4,8.9,81.3,9c44.9,0.1,81.3-3.8,81.3-8.6c0-4.9-36.4-8.9-81.3-9    C117.2,867,80.8,870.9,80.8,875.8z"></path>			<path class="st21" d="M85.2,875.8c0,4.5,35.3,8.3,78.8,8.4c43.6,0.1,78.9-3.5,78.9-8.1c0-4.5-35.3-8.3-78.8-8.4    C120.5,867.7,85.2,871.3,85.2,875.8z"></path>			<path class="st22" d="M89.6,875.9c0,4.2,34.2,7.8,76.4,7.8c42.2,0.1,76.5-3.3,76.5-7.5c0-4.2-34.2-7.8-76.4-7.8    C123.8,868.3,89.6,871.7,89.6,875.9z"></path>			<path class="st23" d="M94,876c0,3.9,33.1,7.2,74,7.3c40.9,0.1,74-3,74-7c0-3.9-33.1-7.2-74-7.3C127.2,868.9,94,872,94,876z"></path>			<path class="st24" d="M98.4,876c0,3.6,32,6.6,71.6,6.7c39.6,0.1,71.6-2.8,71.6-6.4c0-3.6-32-6.6-71.6-6.7    C130.5,869.5,98.4,872.4,98.4,876z"></path>			<path class="st25" d="M102.8,876.1c0,3.3,31,6.1,69.2,6.2c38.2,0.1,69.2-2.5,69.2-5.9c0-3.3-31-6.1-69.2-6.2    C133.8,870.2,102.8,872.8,102.8,876.1z"></path>			<path class="st26" d="M107.3,876.2c0,3,29.9,5.5,66.8,5.6c36.9,0.1,66.8-2.3,66.8-5.3c0-3-29.9-5.5-66.8-5.6    C137.2,870.8,107.3,873.2,107.3,876.2z"></path>			<path class="st27" d="M111.7,876.3c0,2.7,28.8,5,64.3,5c35.5,0.1,64.4-2.1,64.4-4.8c0-2.7-28.8-5-64.4-5    C140.5,871.4,111.7,873.6,111.7,876.3z"></path>			<path class="st28" d="M116.1,876.3c0,2.4,27.7,4.4,61.9,4.5c34.2,0.1,62-1.8,62-4.2c0-2.4-27.7-4.4-61.9-4.5    C143.8,872,116.1,873.9,116.1,876.3z"></path>			<path class="st29" d="M120.5,876.4c0,2.1,26.6,3.8,59.5,3.9c32.9,0.1,59.5-1.6,59.5-3.7c0-2.1-26.6-3.9-59.5-3.9    C147.2,872.7,120.5,874.3,120.5,876.4z"></path>		</g>		<path class="st30" d="M247.2,449.6c-8.7,6.2-14.3,6.6-24.1,9.6c-1,0.3-11,10.4-12,10.5l4.2,14.4l2.9,18.1l3.4,9.8l16.5,3.8   c0,0-2.5-20.7-0.6-20.3c2,0.4,19.6,7,18.6,2.8C255.1,494.2,248.9,448.4,247.2,449.6z"></path>		<path class="st30" d="M332.8,509.7c1.9,1.4,3.6,2.8,5.7,3.8c0.2,0.1,0.4,0,0.5-0.2c0.7-1.9,1.2-3.9,1.9-5.9c0.3-0.8,0.5-2,0.8-3.4   c1.6-2.3,3.4-5,4.5-7c1.5-2.9,3-7.8,1.3-7.4c-0.3,0.1-0.6,0.3-0.9,0.5c-0.2-0.9-0.5-1.4-1.2-1.2c-0.8,0.2-1.3,0.8-1.7,1.6   c0.3-1.2,0.4-1.9-0.6-1.9c-1.4,0-1.5,3.3-2.3,5c-0.3,0.7-2.5,3.6-3.3,1.6c-0.3-0.8-0.8-1.4-1.4-2c0,0-2-0.2-0.9,1.9   c1.4,2.7,3.4,6-0.2,11.1c-0.1,0.1-2.5,2.9-2.4,3.1C332.6,509.4,332.7,509.6,332.8,509.7"></path>		<path class="st31" d="M341.9,505.2c-3.4-3.3-2.8-2.7-3.4-3.3c-2.4-2.1-4.1-3-4.5-2.5c-13.2,20.1-27.9,40.7-45.6,56.7   c-10.2-14.4-17.3-30.7-23.5-38.8c-2,9.2-4.8,16.9-7.9,25.8c-1.9,5.5-5.1,2.1-10.4,8.6c12.4,16,24,36.2,44.9,47.4   c3.6-3.3,6.8-6.9,9.6-11c0,0,0,0,0.1,0C319.7,564,333.6,532.6,341.9,505.2z"></path>		<path class="st32" d="M234.8,510.2c1.3-1.8,2.1-3.6,2.1-5.5c0.3,0.1,11.3,3.9,18.4,7.3c1.1,0.5,20.9,6.1,13.5,27.4   c-1.6,4.7-12.6,30-21.6,70.1c-1.7,8.8-23.4,58.6-24.9,77c-2.2,3.2,6.4-63.7,6.4-63.7L234.8,510.2z"></path>		<path class="st30" d="M242.1,463.5c-2.1,4.2-0.2,7.4,2.7,10.7c1.4,1.6,2.7,3.1,3.8,5c1.1,2,1.2-0.6,2.3-1.2   c-1,0.4-1.9,0.9-2.9,1.4c-2.7,1.4-3.7,5.6,0.3,3.4c2.3-1.2,11.4,0.4,7.3-4.9c-1.4-1.8-4-6.9-4.1-9.1c-0.1-2.9-5.8-3.4-4.3-6.5   C248.9,459,242.9,461.7,242.1,463.5"></path>		<path class="st30" d="M255.1,493.9c0,0.1,0.3,4.6,0.3,4.7c-2.5-0.5-5.4-4.9-8-4.8c-0.9-3.5-1.7-7-2.6-10.4   c2.6-0.2,2.8-3.1,5.2-3.9c-2.2-3.2,2.3,2.5,2.3,2.5c-0.5,0.9,2,2.6,2.8,3.3c0.8,0.7-0.4,1.2-0.8,2.3c-0.4,1.1,1.7,2,1.8,2.6   C256.2,490.7,254.5,491.9,255.1,493.9z"></path>		<path class="st32" d="M217.7,476.6c0-5.1,4.7-6.7,7.1-2.4c0,0,1.1,3.9,1,5c1.3-2.9,3.5-6.4,6.1-8.4c2.7-4.8,3.1-8.6,3.1-8.6   s14.1-3.5,15-4.1c0.9-0.6,6.7-7.9,6.3-9.6c0,0-4.3,4.1-6.1,3.7l2.4-3.6c0,0-27.1-2.8-28.4-3c-1.3-0.2-14.8,7.1-17,9.6   c-2.2,2.5-0.8,12.8,2.2,18.6c1.6,3,7.5,19.9,7.4,20.8c-0.2,1.2,4.6-6.3,5.4-10.5C222.4,483.5,217.7,481.7,217.7,476.6z"></path>		<polygon class="st32" points="226,479.8 225,478.9 223.7,471.6 226.9,467.7   "></polygon>		<path class="st33" d="M254.5,487.1c0,0-1.8,1.6-3.9,2.5c0,0,1.5,0.2,4.2-1C254.7,488.6,254.6,487.4,254.5,487.1z"></path>		<path class="st34" d="M237.2,495.9c-0.4,1-0.4,1.1-0.4,1.1s-7-4.5-8.1-6.6c-1.2-2.1-2.2-8.2-2.2-8.2s2.2,6.4,4.3,8.2   c2,1.8,6.6,5.2,6.6,5.2S237.3,495.7,237.2,495.9z"></path>		<path class="st1" d="M237,504.7C237,504.7,236.9,504.7,237,504.7c-0.1,4.6-5.7,9.4-9.3,13.5c-2-4.9-6.8-13.1-9.7-17.9   c-2.8,39.6-31.5,153.8-31.2,157.2l36.3,1.1c0.1-0.6,8.3-3.5,8-4.1c-1.9-5.2,14.6-51.9,16.1-77.1C247.4,569.2,237.1,513,237,504.7z   "></path>		<path class="st35" d="M166.4,747.9c-9.8-56.2-16.4-102.9,14.4-97.8l51.4,0.5c8.5,32.5,18.9,84,17.4,77.2c2,8.7,3.4,12.6,2.9,13.4   c-0.6,0.8-39.2,127.1-41.8,128.5c-2.6,1.3-13.3-4.5-13.3-4.5s19.3-111.5,20.4-113.1c1.1-1.6,1-11.2,0.8-12.5   c-0.3-1.3-15.1-45.1-15.1-45.1l-5,48.5c0,0-0.3,7.6-3.2,18.1c-2.9,10.5-11.5,52.3-11.2,55.2c0.3,2.9-5.4,55.8-7.5,55.8   c-7.9,0-15,2.7-14.2-3.5C163.7,859.1,166.8,750.4,166.4,747.9z"></path>		<path class="st32" d="M144.4,677.5l27.2-70.4c6.5-37.1-2.6-48.8-0.8-63.7c10.3-12.2,20.6-27,4.5-35.2c8.1-0.8,31.2-10.9,42.1-8.6   c1.4,2.3,3.4,5.6,5.3,8.9c-0.1,0.4-0.1,0.7-0.1,1.2c0,0-12.2,71.9-14.4,85c-4.4,24.8-20,56.9-20,56.9L144.4,677.5z"></path>		<path class="st1" d="M239.9,513.2l-2.3-7.7l-0.6-1.6c0,0-0.4,2-1.3,3.3c-0.9,1.3-7.6,10.7-7.6,10.7s-7-18.1-12.1-19.9   c0,0-0.3,3.5-2.1,4.3c-1.8,0.9-3.4,1.1-2.2,1.2c1.2,0,4.7,1,5.3-0.3c0.6-1.3,6.5,4.9,10.6,17.9l8.5-12.3l4,5.8l2.4-1.3   L239.9,513.2z"></path>		<path class="st35" d="M233.1,512.5c0,0-2.5-2.7-4.3-2.4c-1.7,0.3-4.3,4.1-4.3,4.1l3.9,8c0,0-9.5,24-27.7,45.9   c-8,9.6-16.6,16.8-16.6,16.8l-8,20.1l20.1-5.1c0,0,14.7-15,20.2-26c13.9-27.9,15.5-50.9,15.2-51.1   C231.2,522.4,235.6,514.8,233.1,512.5"></path>		<path class="st32" d="M197.4,864.7l9.8-0.2c0.1,0,6,0,6,0c4.2,2.9,10.6,3.7,15.6,4.8c4.9,1.1,7.1,1.2,12.7,2.5   c1.1,0.2,1.3,1.1,0.7,2c-2.3,3.4-8.2,3.3-11.8,3.4c-3.5,0.1-10.8-0.6-14.3-0.7c-8-0.4-12-2-13-0.5c-0.7,1-9,0.3-8.6-1.5   C195.4,869.7,197,867,197.4,864.7z"></path>		<path class="st32" d="M162.3,864.5h10.3c0.1,0,6,0,6,0c4.2,2.9,10.6,3.7,15.6,4.8c4.9,1.1,7.1,1.2,12.7,2.5c1.1,0.2,1.3,1.1,0.7,2   c-2.3,3.4-8.2,3.3-11.8,3.4c-3.5,0.1-10.8-0.6-14.3-0.7c-8-0.4-12-2-13-0.5c-0.7,1-9,0.3-8.6-1.5   C160.9,869.7,161.9,866.9,162.3,864.5z"></path>		<path class="st36" d="M203.1,700.2c-0.2,0.3-0.3,0.7-0.4,1c-0.5-0.7-0.3-1.3-0.2-2.3c0.2-3.6,4.3-8.3,4.3-8.3s-1.4,4.5-1.9,7.7   C204.1,698.7,203.5,699.4,203.1,700.2z"></path>		<path class="st37" d="M754.9,866.8c0,14.5-111,26.2-248,26.2c-137,0-248-11.7-248-26.2c0-14.5,111-26.2,248-26.2   C643.9,840.6,754.9,852.4,754.9,866.8z"></path>		<linearGradient id="SVGID_1_" gradientUnits="userSpaceOnUse" x1="270.8026" y1="630.1359" x2="750.8341" y2="630.1359">			<stop offset="0" style="stop-color:#212972"></stop>			<stop offset="0.9958" style="stop-color:#160661"></stop>		</linearGradient>		<path class="st38" d="M510.8,865.3c-132.3,0-240-105.5-240-235.2c0-129.7,107.7-235.2,240-235.2c132.3,0,240,105.5,240,235.2   C750.8,759.8,643.2,865.3,510.8,865.3z"></path>		<path class="st1" d="M510.8,818.2c-105.8,0-191.9-84.3-191.9-188.1C318.9,526.4,405,442,510.8,442c105.8,0,191.9,84.4,191.9,188.1   C702.8,733.9,616.6,818.2,510.8,818.2z"></path>					<linearGradient id="SVGID_00000173120619779145310190000009360884852691402670_" gradientUnits="userSpaceOnUse" x1="366.9296" y1="630.1324" x2="654.7065" y2="630.1324">			<stop offset="0" style="stop-color:#212972"></stop>			<stop offset="0.9958" style="stop-color:#160661"></stop>		</linearGradient>		<path style="fill:url(#SVGID_00000173120619779145310190000009360884852691402670_);" d="M510.8,771.1   c-79.3,0-143.9-63.2-143.9-141c0-77.7,64.6-141,143.9-141c79.3,0,143.9,63.2,143.9,141C654.7,707.9,590.1,771.1,510.8,771.1z"></path>		<path class="st1" d="M510.8,724c-52.8,0-95.8-42.1-95.8-93.9c0-51.7,43-93.9,95.8-93.9c52.8,0,95.8,42.1,95.8,93.9   C606.6,681.9,563.6,724,510.8,724z"></path>					<linearGradient id="SVGID_00000024704578698241029150000003993394750642049711_" gradientUnits="userSpaceOnUse" x1="463.0672" y1="630.1337" x2="558.5714" y2="630.1337">			<stop offset="0" style="stop-color:#212972"></stop>			<stop offset="0.9958" style="stop-color:#160661"></stop>		</linearGradient>		<path style="fill:url(#SVGID_00000024704578698241029150000003993394750642049711_);" d="M558.6,630.1c0,25.8-21.4,46.8-47.7,46.8   c-26.4,0-47.8-20.9-47.8-46.8c0-25.8,21.4-46.8,47.8-46.8C537.2,583.4,558.6,604.3,558.6,630.1z"></path>		<g>			<path class="st30" d="M293.2,603.2c-1.2,3.7-2.6,7.2-3.1,11.1c0,0.4,0.3,0.6,0.7,0.7c3.6,0.1,7.1-0.2,10.7-0.2    c1.4,0,3.6-0.3,6-0.7c4.6,1.2,10.1,2.7,14.1,3.3c5.6,0.8,12.3-0.3,10.3-2.1c-0.4-0.4,1.3-0.6,1.5-0.9c1.2-1.4-0.6-1.8-3-2.4    c1.5,0.4,4.5,0.2,3.9-0.8c-0.7-1.1-1.5-1.3-3-1.4c2.2-0.2,3.1-0.9,1.4-1.6c-1.6-0.6-4.9-1-8.2-1.2c-1.4-0.1-7.4-2-4.5-4.4    c1.2-1,1.9-2,2.5-3.4c0,0-0.7-3.2-3.5-0.4c-3.7,3.7-8.1,8.8-18.5,5.8c-0.3-0.1-6.1-2.3-6.4-2.1    C293.6,602.7,293.3,602.9,293.2,603.2"></path>			<path class="st31" d="M297.6,609.5c1.5-3.9,2-6.3,1.1-6.6c-35.7-7.9-59.1-12.1-89.9-30.2c-5-26.8-12.3-45.7-15.2-57.6    c-4.6-12.5-33.9-9.9-34.6,14.6c1.1,23,31.5,76.7,31.8,76.7c22.6,6.8,65.8,10.9,104.2,8.7C297.6,609.5,297.2,610.6,297.6,609.5z"></path>		</g>		<path class="st30" d="M796.7,449.6c8.7,6.2,14.3,6.6,24.1,9.6c1,0.3,11,10.4,12,10.5l-4.2,14.4l-2.9,18.1l-3.4,9.8l-16.5,3.8   c0,0,2.5-20.7,0.6-20.3c-2,0.4-19.6,7-18.6,2.8C788.7,494.2,795,448.4,796.7,449.6z"></path>		<path class="st30" d="M711.2,500.7c-2,1.2-3.8,2.5-6,3.3c-0.2,0.1-0.4-0.1-0.5-0.3c-0.6-2-0.9-4-1.4-6c-0.2-0.8-0.3-2-0.4-3.5   c-1.3-2.4-3-5.3-3.8-7.4c-1.2-3-2.3-8.1-0.6-7.5c0.3,0.1,0.6,0.3,0.8,0.6c0.2-0.9,0.7-1.3,1.3-1.1c0.7,0.2,1.2,0.9,1.5,1.8   c-0.2-1.3-0.2-1.9,0.8-1.8c1.4,0.1,1.2,3.4,1.8,5.2c0.2,0.8,2.2,3.8,3.2,1.9c0.4-0.8,0.9-1.3,1.6-1.9c0,0,2-0.1,0.7,1.9   c-1.6,2.6-4,5.7-0.8,11.1c0.1,0.1,2.2,3.1,2.1,3.3C711.5,500.5,711.4,500.6,711.2,500.7"></path>		<path class="st31" d="M702.5,497.7c3.8-2.9,3.1-2.4,3.8-2.9c2.7-1.8,4.4-2.5,4.7-1.9c10.6,21.5,22.6,43.7,38.2,61.8   c11.9-13,21.1-28.4,28.2-35.7c0.8,9.4,2.7,17.3,4.6,26.5c1.2,5.7,4.8,2.7,9.2,9.7c-14.3,14.4-28.3,33.1-50.5,41.6   c-3.1-3.7-5.9-7.7-8.2-12c0,0,0,0-0.1,0C717.3,558.7,707.4,525.8,702.5,497.7z"></path>		<path class="st32" d="M809,510.2c-1.3-1.8-2.1-3.6-2.1-5.5c-0.3,0.1-11.3,3.9-18.4,7.3c-1.1,0.5-21,6.1-13.5,27.4   c1.6,4.7,12.6,30,21.6,70.1c1.7,8.8,23.4,58.6,24.9,77c2.2,3.2-6.4-63.7-6.4-63.7L809,510.2z"></path>		<path class="st30" d="M801.8,463.5c2.1,4.2,0.2,7.4-2.7,10.7c-1.4,1.6-2.7,3.1-3.8,5c-1.2,2-1.2-0.6-2.3-1.2   c1,0.4,1.9,0.9,2.9,1.4c2.7,1.4,3.7,5.6-0.3,3.4c-2.3-1.2-11.4,0.4-7.3-4.9c1.4-1.8,4-6.9,4.1-9.1c0.1-2.9,5.8-3.4,4.3-6.5   C795,459,800.9,461.7,801.8,463.5"></path>		<path class="st30" d="M788.7,493.9c0,0.1-0.3,4.6-0.3,4.7c2.5-0.5,5.4-4.9,8-4.8c0.9-3.5,1.7-7,2.6-10.4c-2.6-0.2-2.8-3.1-5.2-3.9   c2.2-3.2-2.3,2.5-2.3,2.5c0.5,0.9-2,2.6-2.8,3.3c-0.8,0.7,0.4,1.2,0.8,2.3c0.4,1.1-1.7,2-1.8,2.6   C787.6,490.7,789.3,491.9,788.7,493.9z"></path>		<path class="st32" d="M826.1,476.6c0-5.1-4.7-6.7-7.1-2.4c0,0-1.1,3.9-1,5c-1.3-2.9-3.5-6.4-6.1-8.4c-2.7-4.8-3.1-8.6-3.1-8.6   s-14.1-3.5-15-4.1c-0.9-0.6-6.7-7.9-6.3-9.6c0,0,4.3,4.1,6.1,3.7l-2.4-3.6c0,0,27.1-2.8,28.4-3c1.3-0.2,14.8,7.1,17,9.6   c2.2,2.5,0.8,12.8-2.2,18.6c-1.6,3-7.5,19.9-7.4,20.8c0.2,1.2-4.6-6.3-5.4-10.5C821.5,483.5,826.1,481.7,826.1,476.6z"></path>		<polygon class="st32" points="817.8,479.8 818.9,478.9 820.1,471.6 817,467.7   "></polygon>		<path class="st34" d="M789.4,487.1c0,0,1.8,1.6,4,2.5c0,0-1.5,0.2-4.2-1C789.2,488.6,789.3,487.4,789.4,487.1z"></path>		<path class="st34" d="M806.6,495.9c0.4,1,0.4,1.1,0.4,1.1s7-4.5,8.1-6.6c1.2-2.1,2.2-8.2,2.2-8.2s-2.2,6.4-4.3,8.2   c-2,1.8-6.6,5.2-6.6,5.2S806.5,495.7,806.6,495.9z"></path>		<path class="st1" d="M806.9,504.7C806.9,504.7,806.9,504.7,806.9,504.7c0.1,4.6,5.7,9.4,9.3,13.5c2-4.9,6.8-13.1,9.7-17.9   c2.8,39.6,31.5,153.8,31.2,157.2l-36.3,1.1c-0.1-0.6-8.3-3.5-8-4.1c1.9-5.2-14.6-51.9-16.1-77.1   C796.5,569.2,806.8,513,806.9,504.7z"></path>		<path class="st35" d="M877.5,747.9c9.8-56.2,16.4-102.9-14.4-97.8l-51.4,0.5c-8.5,32.5-18.9,84-17.4,77.2   c-2,8.7-3.4,12.6-2.9,13.4s39.2,127.1,41.8,128.5c2.6,1.3,13.3-4.5,13.3-4.5s-19.3-111.5-20.4-113.1c-1.1-1.6-1-11.2-0.8-12.5   c0.3-1.3,15.1-45.1,15.1-45.1l5,48.5c0,0,0.3,7.6,3.2,18.1c2.9,10.5,11.5,52.3,11.2,55.2c-0.3,2.9,5.4,55.8,7.5,55.8   c7.9,0,15,2.7,14.2-3.5C880.2,859.1,877.1,750.4,877.5,747.9z"></path>		<path class="st32" d="M899.4,677.5l-27.2-70.4c-6.5-37.1,2.6-48.8,0.8-63.7c-10.3-12.2-20.6-27-4.5-35.2   c-8.1-0.8-31.2-10.9-42.1-8.6c-1.4,2.3-3.4,5.6-5.3,8.9c0.1,0.4,0.1,0.7,0.1,1.2c0,0,12.2,71.9,14.4,85c4.4,24.8,20,56.9,20,56.9   L899.4,677.5z"></path>		<path class="st1" d="M804,513.2l2.3-7.7l0.6-1.6c0,0,0.4,2,1.3,3.3c0.9,1.3,7.6,10.7,7.6,10.7s7-18.1,12.1-19.9   c0,0,0.3,3.5,2.1,4.3c1.8,0.9,3.4,1.1,2.2,1.2c-1.2,0-4.7,1-5.3-0.3c-0.6-1.3-6.5,4.9-10.6,17.9l-8.5-12.3l-4,5.8l-2.4-1.3   L804,513.2z"></path>		<path class="st35" d="M810.7,512.5c0,0,2.5-2.7,4.3-2.4c1.7,0.3,4.3,4.1,4.3,4.1l-3.9,8c0,0,9.5,24,27.7,45.9   c8,9.6,16.6,16.8,16.6,16.8l8,20.1l-20.1-5.1c0,0-14.7-15-20.2-26c-13.9-27.9-15.5-50.9-15.2-51.1   C812.7,522.4,808.3,514.8,810.7,512.5"></path>		<path class="st32" d="M846.5,864.7l-9.8-0.2c-0.1,0-6,0-6,0c-4.2,2.9-10.6,3.7-15.6,4.8c-4.9,1.1-7.1,1.2-12.7,2.5   c-1.1,0.2-1.3,1.1-0.7,2c2.3,3.4,8.2,3.3,11.8,3.4c3.5,0.1,10.8-0.6,14.3-0.7c8-0.4,12-2,13-0.5c0.7,1,9,0.3,8.6-1.5   C848.4,869.7,846.8,867,846.5,864.7z"></path>		<path class="st32" d="M881.6,864.5h-10.3c-0.1,0-6,0-6.1,0c-4.2,2.9-10.6,3.7-15.6,4.8c-4.9,1.1-7.1,1.2-12.7,2.5   c-1.1,0.2-1.3,1.1-0.7,2c2.3,3.4,8.2,3.3,11.8,3.4c3.5,0.1,10.8-0.6,14.3-0.7c8-0.4,12-2,13-0.5c0.7,1,9,0.3,8.6-1.5   C883,869.7,881.9,866.9,881.6,864.5z"></path>		<path class="st36" d="M840.8,700.2c0.2,0.3,0.3,0.7,0.4,1c0.5-0.7,0.3-1.3,0.2-2.3c-0.2-3.6-4.3-8.3-4.3-8.3s1.4,4.5,1.9,7.7   C839.7,698.7,840.4,699.4,840.8,700.2z"></path>		<g>			<path class="st41" d="M614.6,569.9c4.7-3.7,9.5-7.5,14.3-11.2c80-62.2,160.2-124.2,239.9-186.8c7.7-6,13.3-3.6,19.8-0.8    c61,25.6,136-5.2,168.9-48c28.9-37.6,20.1-65.7-25.9-80c-0.8-0.3-1.7-0.5-2.6-0.8c0-0.9-0.1-1.8-0.1-2.6    c-1.7-47.2-27-63.1-71.7-45.9c-50.9,19.6-101.2,82.1-92.4,146.6c0.9,6.9,1.9,12.8-6.1,18.5c-82.9,58.5-165.3,117.6-247.9,176.5    c-4.9,3.5-9.9,7-14.8,10.5C600.8,552.2,609.7,563.7,614.6,569.9z"></path>			<path class="st35" d="M871.5,361.9c5.6,3.5,8.8,5.3,16.8,9c0.1,0.1,0.3,0.1,0.4,0.2c61,25.6,136-5.2,168.9-48    c28.9-37.6,21.2-65.9-28.5-80.8C1028.9,242.2,871.5,361.9,871.5,361.9z"></path>			<path class="st42" d="M594.2,593.6c-2.2-1.7,0.5-4-27.1-34.9c9.4,10.5-55.6,71.6-55.6,71.6C584.4,586.2,592,592,594.2,593.6z"></path>			<path class="st35" d="M592.6,594.9c7.3-8,15.8-15,25.5-20.6c-1.3-1.4-2.5-2.7-3.8-4.1c0.1-0.1,0.2-0.2,0.3-0.3    c-4.9-6.3-13.8-17.7-18.6-24c-0.1,0.1-0.2,0.2-0.3,0.2c-1-1.6-2-3.1-3-4.7c-8.1,7.6-17.2,13.8-27.1,18.5    C566.5,562.4,590.4,593.2,592.6,594.9z"></path>		</g>		<g>			<path class="st30" d="M726.6,499.3c-1.9,3.5-3.5,6.9-6,9.9c-0.3,0.3-0.7,0.2-0.9,0c-2.6-2.5-4.8-5.2-7.3-7.7    c-1-1-2.3-2.7-3.7-4.7c-4.1-2.4-9-5.2-12.2-7.6c-4.5-3.4-8.3-8.9-5.6-8.7c0.6,0-0.4-1.3-0.4-1.6c0.2-1.8,1.7-0.8,3.8,0.5    c-1.3-0.8-3.3-3-2.1-3.2c1.3-0.3,2,0.2,3.2,1.1c-1.4-1.7-1.4-2.8,0.2-2.1c1.6,0.7,4.2,2.8,6.6,5c1,0.9,6.6,3.8,6.3,0.2    c-0.1-1.5,0.1-2.7,0.7-4.1c0,0,2.8-1.8,2.7,2.3c-0.1,5.1-0.8,11.8,8.6,17c0.3,0.1,6,2.7,6,3C726.7,498.7,726.8,499.1,726.6,499.3    "></path>			<path class="st31" d="M719,500.6c1.8-3.8,3.3-5.8,4.1-5.3c30.6,19.7,49.9,33.3,84.6,42.5c23.1-15,42.1-23.1,52.9-29.2    c12.4-5.4,30.9,17,13.2,34.6c-17.7,15.2-78.2,31-78.4,30.8c-20.7-11.2-53.7-38.9-78.7-67.5C719,500.6,718.5,501.6,719,500.6z"></path>		</g>	</g></g><g id="Layer_2"></g><g id="Layer_5"></g><g id="Layer_3"></g><g id="Layer_4"></g></svg>