<svg xmlns="http://www.w3.org/2000/svg" xmlns:xlink="http://www.w3.org/1999/xlink" x="0px" y="0px" viewBox="0 0 1080 1080" style="enable-background:new 0 0 1080 1080;" xml:space="preserve"><style type="text/css">	.st0{display:none;fill:#1F85FF;}	.st1{fill:#FFFFFF;}	.st2{opacity:0.19;}	.st3{opacity:0;fill:#FFFFFF;}	.st4{opacity:3.846154e-02;fill:#F8F8F9;}	.st5{opacity:7.692308e-02;fill:#F1F2F4;}	.st6{opacity:0.1154;fill:#EAEBEE;}	.st7{opacity:0.1538;fill:#E3E4E8;}	.st8{opacity:0.1923;fill:#DDDEE3;}	.st9{opacity:0.2308;fill:#D6D7DD;}	.st10{opacity:0.2692;fill:#CFD0D7;}	.st11{opacity:0.3077;fill:#C8CAD2;}	.st12{opacity:0.3462;fill:#C1C3CC;}	.st13{opacity:0.3846;fill:#BABCC6;}	.st14{opacity:0.4231;fill:#B3B6C1;}	.st15{opacity:0.4615;fill:#ACAFBB;}	.st16{opacity:0.5;fill:#A6A9B6;}	.st17{opacity:0.5385;fill:#9FA2B0;}	.st18{opacity:0.5769;fill:#989BAA;}	.st19{opacity:0.6154;fill:#9195A5;}	.st20{opacity:0.6538;fill:#8A8E9F;}	.st21{opacity:0.6923;fill:#838799;}	.st22{opacity:0.7308;fill:#7C8194;}	.st23{opacity:0.7692;fill:#757A8E;}	.st24{opacity:0.8077;fill:#6E7388;}	.st25{opacity:0.8462;fill:#686D83;}	.st26{opacity:0.8846;fill:#61667D;}	.st27{opacity:0.9231;fill:#5A5F77;}	.st28{opacity:0.9615;fill:#535972;}	.st29{fill:#4C526C;}	.st30{fill:#E6AF93;}	.st31{fill:#232323;}	.st32{fill:#2D2D2D;}	.st33{fill:#BFE5EB;}	.st34{fill:#E2A88F;}	.st35{fill:#0067E2;}	.st36{fill:#2991B9;}	.st37{opacity:0.15;fill:#0067E2;}	.st38{fill:url(#SVGID_1_);}	.st39{fill:url(#SVGID_00000053530844782674664970000010705417067638455684_);}	.st40{fill:url(#SVGID_00000183945972009878635530000011495049930970996397_);}	.st41{fill:#0D77F7;}	.st42{fill:#0D6EFD;}	.st43{fill:#DB9923;}	.st44{fill:#754942;}	.st45{opacity:0.16;fill:#1F1F39;}	.st46{fill:#3B3B4D;}	.st47{opacity:0.26;fill:#3D3D59;}	.st48{fill:#EFAEA6;}	.st49{opacity:0.14;fill:#1F1F39;}	.st50{fill:#0267A4;}	.st51{opacity:0.11;fill:#1F1F39;}	.st52{fill:#0069A8;}	.st53{opacity:0.18;fill:#1F1F39;}	.st54{fill:url(#SVGID_00000059274892229081207340000012385713222853835402_);}	.st55{opacity:0.18;fill:#FFFFFF;}	.st56{fill:#004A93;}	.st57{fill:#F2B233;}	.st58{opacity:0.75;}	.st59{fill:#EA4F26;}	.st60{opacity:0.65;}	.st61{fill:#CC820A;}	.st62{fill:#F4C83D;}	.st63{fill:none;stroke:#FFFFFF;stroke-width:23.989;stroke-linecap:round;stroke-miterlimit:10;}	.st64{fill:#575759;}	.st65{opacity:0.6;fill:#2C2C42;}	.st66{fill:#AAAAAF;}	.st67{fill:#160661;}	.st68{fill:url(#SVGID_00000120560627195407516330000009799152652166868110_);}	.st69{fill:#0A004F;}	.st70{fill:url(#SVGID_00000145773346650588759950000000079501987807202983_);}	.st71{fill:url(#SVGID_00000070803785336193817350000005164894677211820210_);}	.st72{fill:url(#SVGID_00000012456956032390938000000003973498888705087929_);}	.st73{fill:url(#SVGID_00000152222818003576573180000017488365204935045047_);}	.st74{fill:url(#SVGID_00000180359016059908694630000013890266024177153163_);}	.st75{fill:url(#SVGID_00000017484716443421602220000002006163440808211857_);}	.st76{fill:#1F85FF;}	.st77{opacity:0.44;fill:#1F1F39;}	.st78{opacity:0.57;fill:#1F1F39;}	.st79{opacity:0.87;}	.st80{opacity:0.14;fill:#1F1F3B;}	.st81{opacity:0.24;fill:#1F1F3B;}	.st82{fill:url(#SVGID_00000176001979561497558250000011200400710272802192_);}	.st83{fill:none;stroke:#FFFFFF;stroke-width:21.0387;stroke-linecap:round;stroke-miterlimit:10;}	.st84{fill:url(#SVGID_00000047766173666206949780000007942355524978460823_);}	.st85{fill:url(#SVGID_00000085933421680558073630000004447487681098120343_);}	.st86{opacity:0.6;fill:#1F1F3B;}</style><g id="Layer_1"></g><g id="Layer_2"></g><g id="Layer_5">	<rect x="-4.2" y="-4.2" class="st0" width="1088.4" height="1088.4"></rect>	<g>		<g>			<path class="st1" d="M254.1,886.2c0.9-5.9,1.2-21,1.2-21l-15.9-1.3l-0.3,22.7l10.2,7.7L254.1,886.2z"></path>			<path class="st32" d="M254.5,886c1.7-0.2,0.9,1.3,1.2,3.8c0.8,5.8,21.8,8,24.9,8.9c1.6,0.4,3.4,9.1-4.7,8.2    c-7-0.7-29.5-2.9-37.1-3.8c-1.6-0.2-2.9-1.4-3.1-3c-0.8-5.6,0.4-14.1,2.6-14.1C241.5,885.4,247.3,887,254.5,886z"></path>			<g>				<path class="st1" d="M32.2,776c5.8,1.5,21,3.5,21,3.5l3.1-15.5l-22.7-2.7l-8.9,9.2L32.2,776z"></path>				<path class="st32" d="M34.5,777.6c0.1,1.7-1.4,0.7-4,0.8C24.5,778.7,20.1,799,19,802c-0.6,1.5-9.5,2.4-7.8-5.5     c1.5-6.8,6-28.7,7.7-36.2c0.3-1.6,1.7-2.7,3.3-2.8c5.8-0.2,14.2,1.8,13.9,3.9C36.4,764.9,34.2,770.5,34.5,777.6z"></path>			</g>			<path class="st35" d="M259.8,875.4c-0.5,2.6-25.9,5.2-25.8,0.9c0.1-4.3,8.1-79.5,5.6-88c-3-9.9-13.3-32.7-24.2-50.2    c-10-16.1-19-29.7-19.3-30.1c0,0,0,0,0,0s-31.5,51.9-50.8,71.1c-12.2,12.1-100.7,3-104.4,2.5c-3.7-0.5,2.5-25.1,5.9-24.5    c3.5,0.6,74.1,2.7,80.8-3.4c5.2-4.7,15.4-35.7,26.5-63.6c1.7-4.3,3.4-8.4,5-12.2l2.3-5.5l4.3-10.2c0.8-2,5-9.7,5-10    c0.2-1.3,6.5-0.9,14.3,0c13.5,1.7,31.8,5.2,31.8,5.2l11.3,3.5c7.7,25.3,37.9,111.7,39.3,124.8S260.3,872.8,259.8,875.4z"></path>			<path class="st77" d="M196.9,663.7c0,0-16.8,7.4-35.5,8.8l4.3-10.2c0.8-2,5-9.7,5-10c0.2-1.3,6.5-0.9,14.3,0L196.9,663.7z"></path>			<path class="st78" d="M215.4,738.1c-10-16.1-19-29.7-19.3-30.1c0,0,0,0,0,0l5.9-9.9C201.9,698.1,214.7,724.6,215.4,738.1z"></path>		</g>		<g class="st79">			<g>				<g>					<line class="st1" x1="39.3" y1="700.2" x2="122.8" y2="700.8"></line>											<rect x="80.9" y="658.7" transform="matrix(6.213807e-03 -1 1 6.213807e-03 -619.9372 777.1821)" class="st1" width="0.3" height="83.5"></rect>				</g>				<g>					<path class="st1" d="M123.6,700.6c0,0.1,0,0.1,0,0.2c0,0.4-0.4,0.7-0.9,0.7l-83.5-0.5c-0.4,0-0.8-0.3-0.7-0.7      c0-0.4,0.4-0.7,0.9-0.7l83.5,0.5C123.3,700.1,123.5,700.3,123.6,700.6z"></path>					<path class="st1" d="M122.7,701.6C122.7,701.6,122.7,701.6,122.7,701.6l-83.6-0.5c-0.3,0-0.5-0.1-0.7-0.3      c-0.1-0.2-0.2-0.3-0.2-0.5c0.1-0.4,0.5-0.8,1-0.8c0,0,0,0,0,0l83.5,0.5c0.4,0,0.8,0.3,0.9,0.6c0,0.1,0,0.2,0,0.2      C123.7,701.2,123.3,701.6,122.7,701.6z M39.3,699.7c-0.4,0-0.7,0.2-0.7,0.5c0,0.1,0,0.2,0.1,0.3c0.1,0.1,0.3,0.2,0.5,0.2      l83.5,0.5c0,0,0,0,0,0c0.4,0,0.7-0.2,0.7-0.5c0,0,0-0.1,0-0.1v0c0-0.2-0.3-0.4-0.6-0.4L39.3,699.7      C39.3,699.7,39.3,699.7,39.3,699.7z"></path>				</g>			</g>			<g>				<g>					<line class="st1" x1="72.2" y1="705.4" x2="105.5" y2="705.2"></line>					<polygon class="st1" points="72.2,705.6 72.2,705.3 105.5,705 105.5,705.3      "></polygon>				</g>				<g>					<path class="st1" d="M106.4,705c0,0.1,0,0.1,0,0.2c-0.1,0.4-0.5,0.7-0.9,0.7l-33.3,0.3c-0.5,0-0.8-0.3-0.8-0.7      c0.1-0.4,0.5-0.7,0.9-0.7l33.3-0.3C106,704.5,106.3,704.7,106.4,705z"></path>					<path class="st1" d="M72.1,706.3c-0.3,0-0.6-0.1-0.7-0.3c-0.1-0.2-0.2-0.3-0.2-0.5c0.1-0.4,0.6-0.8,1.1-0.8l33.3-0.3      c0,0,0,0,0,0c0.5,0,0.8,0.2,0.9,0.6l0,0c0,0.1,0,0.2,0,0.2c-0.1,0.4-0.6,0.8-1.1,0.8L72.1,706.3      C72.1,706.3,72.1,706.3,72.1,706.3z M105.6,704.7C105.6,704.7,105.6,704.7,105.6,704.7l-33.4,0.3c-0.4,0-0.7,0.2-0.8,0.5      c0,0.1,0,0.2,0.1,0.3c0.1,0.1,0.3,0.2,0.5,0.2c0,0,0,0,0,0l33.3-0.3c0.4,0,0.7-0.2,0.8-0.5c0,0,0-0.1,0-0.1      C106.2,704.8,105.9,704.7,105.6,704.7z"></path>				</g>			</g>			<g>				<g>					<line class="st1" x1="94" y1="695.1" x2="127.3" y2="694.9"></line>					<polygon class="st1" points="94,695.3 94,695 127.3,694.7 127.3,695      "></polygon>				</g>				<g>					<path class="st1" d="M128.2,694.7c0,0.1,0,0.1,0,0.2c-0.1,0.4-0.5,0.7-0.9,0.7l-33.3,0.3c-0.5,0-0.8-0.3-0.8-0.7      c0.1-0.4,0.5-0.7,0.9-0.7l33.3-0.3C127.8,694.2,128.1,694.4,128.2,694.7z"></path>					<path class="st1" d="M93.9,696c-0.3,0-0.6-0.1-0.8-0.3c-0.1-0.2-0.2-0.3-0.2-0.5c0.1-0.4,0.6-0.8,1.1-0.8l33.3-0.3c0,0,0,0,0,0      c0.5,0,0.8,0.2,0.9,0.6l0,0c0,0.1,0,0.2,0,0.2c-0.1,0.4-0.6,0.8-1.1,0.8L93.9,696C93.9,696,93.9,696,93.9,696z M127.4,694.4      C127.4,694.4,127.4,694.4,127.4,694.4l-33.3,0.3c-0.4,0-0.7,0.2-0.8,0.5c0,0.1,0,0.2,0.1,0.3c0.1,0.1,0.3,0.2,0.5,0.2      c0,0,0,0,0,0l33.3-0.3c0.4,0,0.7-0.2,0.8-0.5c0,0,0-0.1,0-0.1C128,694.5,127.7,694.4,127.4,694.4z"></path>				</g>			</g>		</g>		<g>			<path class="st48" d="M368.4,593.4c-1.3,0.6-3.7,2-4.7,2.8c-1.4,1.1-3,1.4-4.4,3c-0.3,0.4-0.7,0.8-1.1,1.3    c-0.4,0.5-0.8,0.9-1.2,1.3c-2.4,2.7-4.2,3.9-6.5,5.9c0,0-8.4-7-7.4-8.8c0.6-1.1-1.4,0.7,0.8-1c0.9-0.7,5.8-4.7,6.7-5.5    c0.4-0.4,1.7-1.9,2.3-3.2c1.7-3.9,7.5-11.3,10.3-10.9c4.1,0.6-6.6,11.5,6-1.8c3.2-3.3,10.4,2.4,8.2,8.9    C376.9,586.7,371.5,592,368.4,593.4z"></path>			<g>				<path class="st48" d="M281.6,558.8c-4.1,3.8-16.8,10-20.5,14.9l7.7,11.1c0,0,7.6,10.7,7.9,6.8c0.4-5.1-0.1-2.9,0.8-5.7     c0.5-1.7,2.2-4.4,4.1-7.1c2.6-3.7,5.6-7.6,7.2-9.5c0.6-0.7,1-1.2,1-1.2l0.9-0.7l4.4-12.7C295,554.7,286.1,554.6,281.6,558.8z"></path>				<path class="st80" d="M281.7,578.8c2.6-3.7,5.6-7.6,7.2-9.5l-1.4-3.1c0,0-2.6-3.2-4.5-2.8C280.1,564,274.7,576.1,281.7,578.8z"></path>			</g>			<path class="st1" d="M269.2,566.6c5.1,1.5,0.4,9.5,4.4,12.7c2.1,1.7,2.3,0.3,4.2-0.2c1.1-0.3,2.3-0.7,2.5,1.2    c5.4,37.8-53.2,85.2-53.2,91.2c-0.1,4.9-26-1.2-35.3-11.6c-23.2-26.2-4.1-26.8,3.2-35.3c2.8-3.2,52.1-56.4,52.1-56.4    S257.9,568.8,269.2,566.6z"></path>			<path class="st32" d="M360.3,601.7c-0.2,1-24.2,48.9-43,48.2c-12.2-0.5-21.2-11.5-28.2-19.6c-4.4-5.1-8-8.9-11.2-8.2    c-2.4,0.5-5.5,2.5-8.6,5.2c-3.6,3.2-7.1,7.4-8.6,11.1c-1.6,4-10.8,19.8-12.2,22.5c-3.5,6.8-7,23.7-10.9,26.6    c-3.9,2.9-6.8,4.4-9.4,4.6c-2.6,0.2-19-3.9-20-8.5c-0.5-2.5,0-8.1,2.8-12.7c0.1-0.1,0.1-0.2,0.2-0.3c3.1-4.9,11.5-9.9,16.2-16.5    c4.6-6.5,9.5-13.6,13.7-21.2c9.6-17.6,23.1-22.7,30.5-37.6c0.8-1.6,1.6-3.1,2.3-4.4c0.3-0.6,0.6-1.2,0.9-1.7    c1.6-2.9,2.9-5,3.9-6.4c1.1-1.7,1.7-2.4,1.7-2.4c0.1,0.1,0.1,0.1,0.2,0.2c15.7,16.9,29.7,44.3,36.2,46.4    c7.5,2.4,25.9-29.9,31.3-34.8c0,0,0.6,0.2,1.6,0.5c0.1,0,0.2,0.1,0.4,0.1c0,0,0,0,0,0C352.6,593.6,360.4,601.2,360.3,601.7z"></path>			<g>				<path class="st48" d="M280.2,548.8c0,0-0.2,2.3-0.3,5.1c-0.1,3.5-0.2,7.9,0.3,10.2c0,0.2,0.1,0.3,0.2,0.5     c1.5,4,10.1,9.3,17.8,9.4c3.3,0-0.3-10.3,2.7-10.1c1.8,0.1,1-3-0.1-6.5c-0.7-2.5-1.6-5.2-1.8-7.2c0-0.1,0-0.2,0-0.3L280.2,548.8     z"></path>				<path class="st32" d="M273.6,550.7c-0.5,0.5-0.8,1-1,1.5c-1.7,5,6.7,13.3,7.8,12.3l0,0c1.5-1.4-0.5-6.3,1-7.4     c2.2-1.6,2.4,0.3,4.2,2.2c1.9,2,5.5,2.3,3.3-1.5c-0.6-1-0.9-1.8-1-2.4c-0.2-1.6,1.2-1.8,2.8-1.5c2.5,0.4,2.6,1,4.3,0.2     c1.8-0.8-1.2-3.5,2.1-3.9c0.6-0.1,1.3-0.1,1.9-0.2c2.5-0.3,4.8-0.9,5.4-3.6c0-0.2,0.1-0.4,0.1-0.6c0.1-1.3,0-2.2-0.3-2.9     c-0.1-0.3-0.3-0.5-0.5-0.7l0,0c-1.3-1.5-3.9-1.2-5.9-0.9c-0.2,0-0.3,0.1-0.5,0.1c-0.4,0.1-0.7-0.1-1-0.3c-1.2-0.9-2-3.7-5.1-3.7     c-3,0-2.7,1.9-5.4,2c-1.6,0.1-4.7-2.9-7.3-0.9c-0.9,0.6-1.4,1.3-1.8,2C274.9,543.8,276.9,547.6,273.6,550.7z"></path>			</g>			<g>				<path class="st48" d="M367.5,508.8c-13.5-0.7-8.1,4.6-10,6.2c-3.1,2.5-7.5-4.5-11.7-4.1c-4.2,0.4-11,0.4-12.2,0.1     c-2-0.4,0.3-12.7,2-12.5c8.7,0.9,12.8-2,15.8-2.8c0.7-0.2,1.3-0.3,1.9-0.2l0,0c0.1,0,0.2,0,0.3,0.1c8.2,2.1,13.6,2.1,14.6,3     C371.4,501.6,370,508.9,367.5,508.8z"></path>				<path class="st32" d="M269.2,566.6c-10.3-10.4,16.4-43.6,20.9-49.9c3.7-5,47.5-2.4,49.3-2.9c1.9-0.5,4.2-19,1.6-19.2     c-2.6-0.2-53.9-5-65.3,5.7c-9.1,9.1-29.1,38.9-40.1,62.1c-4.5,9.5-26,35.6-30.1,42.6c-3.8,6.8-9.7,12.3-14.6,16.9     c-4.9,4.6-35.1,24-28.8,31.5c5.6,6.7,19.1,12.6,29.7,10.1c6.3-1.4,7.2-11.2,19.6-22.1c5.3-4.6,13.5-12.3,20.1-19.6     C243.7,608.7,262.8,577.8,269.2,566.6z"></path>			</g>			<g>				<path class="st81" d="M273.2,580.3c-0.5-0.5-8.7,9.8-17,11.9c-2.3,0.6-4.7,0.8-7.1,0.4c-6.9-1.1-20.6-4.2-28.8-7.3     c8.6-11.5,4.9-6,8.8-10.7c5.7,3.5,17.3,10.2,21,10.6c2.7,0.3,5.4,0.1,7.9-0.5c4.8-1,9.2-3.1,12.5-5.1c1.7-1,2.4-2.9,4.1-2.6     C276.8,577.5,273.7,581,273.2,580.3z"></path>				<path class="st35" d="M277.1,578.7c0.2-1.2-0.1-3.2-2.4-3.6c-1.7-0.3-2,0.4-3.8,1.4c-5.2,3-12.7,6.4-20.5,5.5     c-7.8-0.8-22.6-15.2-34.4-15.2c-11.8,0.1-17.6,9.9-34.4,9c-16.8-0.9-32.5-12.1-37.5-12.3c-5-0.2-8.1,0.2-8.5,2.3     c-0.3,2,1.3,5.9,4.3,8c3,2.2,32.1,10.9,40.1,11.6c13.1,1.1,26.9-8.6,35.3-7.6c8.4,1.1,24.5,9.9,34.2,11.5     c10.9,1.8,22.6-9.5,23.2-8.8c0.6,0.7,1.1,1.3,2.6,1.2C276.4,581.9,276.9,579.9,277.1,578.7z"></path>			</g>		</g>		<path class="st48" d="M350.2,507.9c3.3,0,8.6,0.1,6.6,1.8c-2,1.8-6.6,2.4-7.3,2.2C348.5,511.7,350.2,507.9,350.2,507.9z"></path>		<path class="st81" d="M289.1,630.3c-4.4-5.1-8-8.9-11.2-8.2c-2.4,0.5-5.5,2.5-8.6,5.2c1-2.3,1.8-6.6,5-9.9   C280.5,610.7,287.6,625.1,289.1,630.3z"></path>		<path class="st80" d="M364.1,581.5c-1.3,2,3.8,12,3.8,12s2.1-1,2.5-1.1C370.3,592.1,364.1,581.5,364.1,581.5z"></path>		<path class="st1" d="M817.8,887.1c-0.5-6,0.2-21.3,0.2-21.3l16.1-0.3l-1.2,22.9l-10.8,7.1L817.8,887.1z"></path>		<path class="st32" d="M817.7,887c-1.7-0.4-1,1.2-1.6,3.7c-1.4,5.8-22.7,6-25.9,6.5c-1.7,0.3-4.3,8.8,4,8.7c7.1,0,30-0.1,37.8-0.2   c1.6,0,3-1.1,3.4-2.7c1.4-5.6,0.9-14.3-1.2-14.4C830.9,887.6,824.8,888.7,817.7,887z"></path>		<g>			<path class="st1" d="M1049.1,790.7c-6,1.1-21.4,2.1-21.4,2.1l-2.1-15.9l23.1-1.2l8.3,9.9L1049.1,790.7z"></path>			<path class="st32" d="M1046.7,792.2c-0.2,1.7,1.3,0.8,3.9,1.1c6,0.6,9.1,21.5,10,24.6c0.5,1.6,9.4,3.1,8.2-5    c-1-7-4.2-29.4-5.3-37c-0.2-1.6-1.5-2.9-3.2-3c-5.8-0.6-14.4,0.9-14.3,3C1045.5,779.2,1047.4,785.1,1046.7,792.2z"></path>		</g>		<path class="st35" d="M812.8,875.8c0.3,2.7,25.8,7,25.9,2.7c0.1-4.3-2.9-80.7,0.3-89.2c3.7-9.8,15.6-32.1,27.8-49   c11.2-15.6,21.2-28.7,21.5-29.1c0,0,0,0,0,0s28.4,54.5,46.5,75.1c11.5,13,101.4,9.8,105.2,9.5c3.8-0.3-0.8-25.5-4.3-25.1   c-3.5,0.4-75-2.3-81.4-8.9c-5-5.1-13.1-37.1-22.5-65.9c-1.5-4.4-2.9-8.7-4.2-12.6l-1.9-5.7l-3.6-10.6c-0.7-2-4.4-10.1-4.4-10.4   c-0.2-1.3-6.5-1.4-14.5-0.9c-13.8,0.8-32.4,3.2-32.4,3.2l-11.6,2.7c-9.5,25-45.8,110.2-48,123.3S812.4,873.1,812.8,875.8z"></path>		<path class="st77" d="M890.4,666.4c0,0,16.5,8.6,35.2,11.2l-3.6-10.6c-0.7-2-4.4-10.1-4.4-10.4c-0.2-1.3-6.5-1.4-14.5-0.9   L890.4,666.4z"></path>		<path class="st78" d="M866.8,740.3c11.2-15.6,21.2-28.7,21.5-29.1c0,0,0,0,0,0l-5.2-10.3C883,700.8,868.4,726.7,866.8,740.3z"></path>		<g>			<path class="st1" d="M892.7,822.8c-0.2,0.1-0.4,0.2-0.6,0.1c-8.2-2.6-15.7-1.9-23,2.2c-0.3,0.2-0.7,0.1-0.9-0.3    c-0.2-0.3-0.1-0.7,0.3-0.9c7.7-4.3,15.6-5.1,24.1-2.3c0.4,0.1,0.6,0.5,0.4,0.9C892.9,822.6,892.9,822.7,892.7,822.8z"></path>		</g>		<g>			<path class="st1" d="M882.7,815.7c-0.1,0.1-0.3,0.2-0.4,0.1c-4.5-0.2-8.2,0.3-11.8,1.5c-3.4,1.2-6.7,3.1-10.2,5.9c0,0,0,0,0,0    c-0.3,0.2-0.7,0.2-1-0.1c-0.2-0.3-0.2-0.7,0.1-1c7.2-5.8,13.9-8.1,22.9-7.8c0.4,0,0.7,0.3,0.7,0.7    C883,815.4,882.9,815.6,882.7,815.7z"></path>		</g>		<path class="st37" d="M44.2,903.4c0,4.5,234.3,9.6,504.3,9.6s488.9-3.6,488.9-8.1c0-4.5-218.9-8.1-488.9-8.1S44.2,899,44.2,903.4z   "></path>		<path class="st48" d="M814.4,590.3l6-14.7c-5.2-3.6-17-14-22.3-16.3c-5.8-2.6-5.8-1.9-5.8-1.9l-0.5,11.1l-0.3,5.2   c0,0,2.4,1,5.3,4.2c2.1,2.3,4.4,5.6,6.3,10.6C804.6,592.3,814.4,590.3,814.4,590.3z"></path>		<path class="st49" d="M791.5,573.8c0,0,2.8,1.5,5.8,4.7c8-4.9,5.4-12.8,2.2-12.3c-2,0.3-7.7,2.4-7.7,2.4L791.5,573.8z"></path>		<path class="st48" d="M777.3,552.5c0.8,5-2.1,15.7,1.1,14.8c3.3-0.8,1.7,10.5,5.2,9.8c8.6-1.8,17-9.7,17.1-14.1   c0.1-4.4-3.4-15.7-3.4-15.7L777.3,552.5z"></path>		<path class="st32" d="M787.1,555.9c-2.7-0.7-2.3,0.7-4.4,0.3s0.5-3.8-3.2-3.5c-3.7,0.3-5.8,0-6.8-4c-0.6-2.6,0.7-5.7,4.1-5.9   c2.2-0.1,0.9-3.7,4.9-4.9c3.2-1,4.7,1.1,7.9,1.4c1.8,0.2,5.4-2.7,8.6-1.2c6,2.6,1.8,6.9,6.9,9.9c6,3.6-3,16-4.6,16.9   c-0.6,0.3-2.6-0.7-1.8-3.6c0.4-1.5,0.3-4.6-0.6-5c-1.6-0.7-4.7-2.8-4.5,1.1c0.1,2.8,3.6,11.7,3,12.7c-1.6,2.5-13.3,9.5-14.4,6.3   c-1.3-4,10.4-3.2,8.8-7.3c-1.2-3.1-9.5,2.4-11,0.1c-1.7-2.7,11.3-2,11.4-5C791.3,560.5,788.6,556.3,787.1,555.9z"></path>		<path class="st48" d="M735.3,601.5c1,1.8-7.3,9.1-7.3,9.1c-2.4-2-4.2-3.2-6.7-5.8c-0.4-0.4-0.8-0.8-1.2-1.3   c-0.4-0.4-0.8-0.8-1.1-1.2c-1.5-1.6-3.1-1.9-4.6-2.9c-0.5-0.4-1.4-0.9-2.2-1.4c-0.9-0.5-1.9-1-2.6-1.3c0,0,0,0,0,0   c-3.2-1.3-8.8-6.5-9.3-7.8c-2.4-6.5,4.8-12.6,8.1-9.3c12.7,12.8,7-0.5,10.1,1.5c2.3,1.6,4.9,7,6.7,10.8c0.6,1.3,2,2.8,2.4,3.2   c0.9,0.8,6,4.7,6.9,5.4c0.4,0.3,0.7,0.5,0.8,0.6C735.2,601.1,735.1,601.1,735.3,601.5z"></path>		<path class="st48" d="M735.6,601.3c0,0-0.1,0-0.2-0.1C735.5,601.2,735.6,601.3,735.6,601.3z"></path>		<path class="st1" d="M810.2,567.3c-5.1,1.7-0.2,9.6-4.1,13c-2.1,1.8-2.4,0.3-4.2-0.1c-1.1-0.2-3.5,0.8-3.7,2.7   c-5.2,44.8,57.4,89,57.4,89.4c0.2,4.9,26.3-1.9,35.3-12.7c22.8-27.1,3.4-27.2-4.1-35.6c-2.9-3.2-54.2-55.7-54.2-55.7   S821.7,569.2,810.2,567.3z"></path>		<path class="st32" d="M716.4,602.1c0.3,1,28.3,51.9,47.4,50.7c12.4-0.8,18.1-7,27.1-14.1c5.3-4.2,7.9-9.3,11.1-8.6   c2.4,0.5,5.7,2.4,8.8,5c3.8,3.2,7.1,11.7,10.4,15.2c8.2,8.5,5.6,10.1,10.3,19.5c3.5,6.9,6.4,15.8,10.4,18.6   c4,2.8,8.3,3.1,10.9,3.2c5.1,0.1,14.5-3.5,15.4-8.2c0.5-2.6-4.3-6.2-5.9-9.6c-2.4-5.3-5.6-10.8-10.5-17.4   c-4.9-6.4-12-17.9-16.3-25.5c-10.1-17.5-19.1-19.7-27-34.4c-0.9-1.6-1.7-3.1-2.4-4.4c-0.3-0.6-0.7-1.2-1-1.7   c-1.7-2.9-3.1-5-4.1-6.4c-1.2-1.7-2.9-1-3-1c-15.4,17.5-27.9,44.4-34.3,46.6c-7.6,2.6-26.9-29.5-32.5-34.4c0,0-0.6,0.2-1.6,0.6   c-0.1,0-0.2,0.1-0.4,0.1c0,0,0,0,0,0c-2.7,0.9-7.3,2.7-10.2,4.2C717.3,600.8,716.3,601.6,716.4,602.1z"></path>		<path class="st48" d="M732.2,495.1c3.2-0.9,7.1,3.9,18.2,2.5c1.7-0.2,4.4,12.1,2.3,12.6c-1.3,0.3-8,1.8-12.3,1.5   s-9.4,2.7-12.6,0.2c-2-1.5,4.2-4.1-9.5-3.1c-2.6,0.2-4.1-7.1-0.8-10.3C718.4,497.6,723.9,497.4,732.2,495.1z"></path>		<path class="st81" d="M715.4,585.2l-5.9,11.4c-0.9-0.5-4.6-2.7-5.3-3l9.2-9.6L715.4,585.2z"></path>		<path class="st81" d="M729.3,496c0.3,0,2.6-1,3-0.9c0.4,0.1,0.5,14.7,0.5,14.7l-3.2-0.4L729.3,496z"></path>		<linearGradient id="SVGID_1_" gradientUnits="userSpaceOnUse" x1="505.2297" y1="549.0727" x2="730.7587" y2="549.0727">			<stop offset="0" style="stop-color:#212972"></stop>			<stop offset="0.9958" style="stop-color:#160661"></stop>		</linearGradient>		<path class="st38" d="M624.4,733.2c-4.7,9.9-7.3,18.9-6.8,27.4c0,0.3,0,0.6,0,0.9c0,7.5-4.9,13.2-12.6,17.3c-4.1,2.2-9,3.8-14.4,5   c-1.3,0.3-2.7,0.6-4,0.8c-1.8,0.3-3.5,0.6-5.4,0.8c0,0-0.1,0-0.1,0l-0.1,0c-5.4,0.6-11,0.8-16.7,0.6c-0.1-47.2-0.5-109.5-0.8-165   c16.3,11.8,57.8,6.3,57.7-21.6c0-27.8-40.8-37.2-57.4-25.2c-0.4-65.7-1.2-107.2-2.3-105c-4.9,9.3-55.4,12.8-56.4-20.7   c-0.8-30.9,45-30.9,56.3-20.5c3.9,3.5-0.9-71.4-1.7-115.7c97.2,4.4,170.8,75.9,170.9,185.6C730.9,608.6,649,681.5,624.4,733.2z"></path>		<g>			<g>				<g>					<path class="st1" d="M632.5,388.8c-4-4-8.4-7.6-13.1-10.6c-4.7-2.9-9.6-5.2-14.5-6.1c-3.8-0.8-6.3-4.5-5.5-8.3      c0.8-3.8,4.5-6.3,8.3-5.5l0,0l0,0c3.5,0.7,6.9,1.9,10.1,3.2c3.2,1.4,6.2,3,9.1,4.8c5.7,3.6,10.8,7.9,15.4,12.5      c2.7,2.7,2.7,7.1,0,9.8C639.6,391.6,635.2,391.6,632.5,388.8L632.5,388.8z"></path>				</g>			</g>			<g>				<g>					<path class="st1" d="M677.8,509.4c1.2-9,1.9-18,1.8-27c-0.1-8.9-1-17.8-3-26.4c-2-8.6-5-16.9-9-24.7c-4-7.8-9.1-15.1-14.9-21.8      l0,0c-2.5-2.9-2.2-7.2,0.7-9.7c2.9-2.5,7.2-2.2,9.7,0.7c6.4,7.4,12.2,15.6,16.8,24.4c4.6,8.8,8.1,18.2,10.3,27.9      c2.2,9.7,3.3,19.5,3.4,29.3c0.1,9.8-0.6,19.5-1.9,29c-0.5,3.8-4,6.5-7.9,6C680,516.8,677.3,513.2,677.8,509.4L677.8,509.4      L677.8,509.4z"></path>				</g>			</g>		</g>		<path class="st32" d="M810.2,567.3c10.2-10.7-8.7-46.2-13.5-52.4c-3.8-5-48-1.2-50-1.6c-1.9-0.4-4.8-19.1-2.1-19.3   c2.6-0.3,54.4-6.5,66.1,4.1c9.5,9,21.4,41.1,33.2,64.3c4.8,9.5,27.3,35.3,31.6,42.2c4.1,6.8,10.1,12.2,15.2,16.7   c5.1,4.5,36.1,30,29.9,37.8c-5.5,6.9-22.9,9.6-33.7,7.5c-6.4-1.3-4.6-9.8-17.5-20.4c-5.5-4.6-16.9-22.7-23.7-29.8   C833.2,603.1,817,578.5,810.2,567.3z"></path>		<path class="st81" d="M808.3,582c0.3-0.6,11.2,7,19.9,6.7c2.4-0.1,4.8-0.5,7-1.6c6.4-3,11.6-4.6,18.8-9.9   c-7.5-10.8-2.4-7.3-7.5-10.8c-4.6,5-10.8,12.4-14.3,13.8c-2.5,1-5.2,1.6-7.8,1.8c-4.9,0.4-9.8-0.5-13.6-1.4   c-2-0.5-3.2-2.2-4.7-1.4C803.9,580.2,807.9,582.8,808.3,582z"></path>		<path class="st35" d="M803.9,581.5c-0.5-1.1-0.8-3.1,1.4-4.2c1.6-0.8,2.1-0.2,4,0.3c5.9,1.4,14.1,2.6,21.4-0.4   c7.3-3,17.7-21.2,29.2-24.5s19.9,4.7,36-1c16.1-5.6,28.2-20.9,33-22.5s8-2,8.9-0.2c0.9,1.9,0.4,6.1-1.9,9   c-2.3,3-28.1,19.7-35.7,22.6c-12.5,4.7-28.5-0.8-36.4,2.6s-21,16.6-30,20.9c-10.1,4.8-24.6-2.8-25-2c-0.4,0.8-0.7,1.6-2.2,1.9   C805.6,584.4,804.5,582.6,803.9,581.5z"></path>		<path class="st81" d="M790.9,638.7c4.3-5.2,7.9-9.3,11.1-8.6c2.4,0.5,5.7,2.4,8.8,5c-1.1-2.3-2-6.7-5.3-9.9   C799,618.6,792.2,633.3,790.9,638.7z"></path>		<path class="st48" d="M720.1,582.8c-1.9-3.1-5.4-6.9-5.9-4.1c-0.5,2.8,2.8,8.1,2.7,9.2S720.1,582.8,720.1,582.8z"></path>		<path class="st48" d="M720.3,583.1c-1.9-3.1-5.4-6.9-5.9-4.1c-0.5,2.8,2.8,8.1,2.7,9.2C717,589.3,720.3,583.1,720.3,583.1z"></path>		<path class="st48" d="M733.9,512.6c-3.6,0.6-10.1,0.5-8.3-1.7c1.8-2.2,6.6-2.9,7.4-3.6C733.7,506.5,733.9,512.6,733.9,512.6z"></path>					<linearGradient id="SVGID_00000106120590147342537700000005688042421297361298_" gradientUnits="userSpaceOnUse" x1="351.3209" y1="548.7035" x2="581.3132" y2="548.7035">			<stop offset="0" style="stop-color:#212972"></stop>			<stop offset="0.9958" style="stop-color:#160661"></stop>		</linearGradient>		<path style="fill:url(#SVGID_00000106120590147342537700000005688042421297361298_);" d="M581.3,602.8   c-0.1,27.9-42.2,32.5-58.5,20.6c0.1,55.4,0.1,115.1,0.1,162.3c-9.7-0.4-19.3-2.1-27.7-4.9c-0.7-0.2-1.3-0.4-1.9-0.7   c-0.3-0.1-0.5-0.2-0.7-0.3c-2.5-0.9-4.8-2-7-3.2c-4.2-2.3-7.9-4.9-10.6-8c-3.4-3.9-5.5-8.4-5.7-13.6c-0.1-1.9-0.4-3.8-1-5.8   c-1.4-4.9-4.1-10.2-7.9-16c-7.3-11.4-18.6-24.7-31.1-40.4c0,0,0,0,0,0c-5.9-7.4-12-15.3-18.2-23.8c-1.7-2.3-3.4-4.7-5-7.1   c-3.4-4.8-6.7-9.8-10-14.9c-1.1-1.7-2.2-3.5-3.2-5.2c-0.5-0.9-1.1-1.8-1.6-2.7c-1.1-1.8-2.1-3.6-3.2-5.4   c-4.4-7.8-8.7-15.9-12.6-24.4c-0.7-1.5-1.4-3-2-4.6c-0.9-2-1.8-4.1-2.6-6.2c-0.6-1.6-1.3-3.1-1.9-4.7c-0.4-1.1-0.8-2.1-1.2-3.2   c-0.4-1.1-0.8-2.2-1.2-3.2c-0.4-1.1-0.8-2.2-1.1-3.3c-0.2-0.5-0.4-1.1-0.6-1.6c-0.4-1.1-0.7-2.2-1.1-3.3c-1.6-5-3.1-10.1-4.4-15.4   c-0.4-1.7-0.9-3.5-1.3-5.3c-2.2-9.5-3.9-19.3-5-29.6c-0.1-1.3-0.3-2.6-0.4-3.9c-0.7-7.8-1.1-15.8-1.1-24   c-0.1-84.3,43.2-184.9,149.6-189.2c0.4,0,0.8,0,1.2,0c0.3,0,0.7,0,1,0l0.2,0c5.5-0.2,11-0.1,16.4,0.2   c0.7,44.3,5.2,111.5,1.3,107.9c-11.2-10.4-57.4-5.7-56.6,25.2c0.8,33.5,51.5,30.1,56.4,20.8c1.2-2.2,1.5,49.7,1.8,115.4   C541.7,565.3,581.4,574.9,581.3,602.8z"></path>					<linearGradient id="SVGID_00000111171812599993904190000016945506252027691174_" gradientUnits="userSpaceOnUse" x1="351.3192" y1="502.3204" x2="503.3641" y2="502.3204">			<stop offset="0" style="stop-color:#212972"></stop>			<stop offset="0.9958" style="stop-color:#160661"></stop>		</linearGradient>		<path style="fill:url(#SVGID_00000111171812599993904190000016945506252027691174_);" d="M429.2,692.8   C395,649.9,351.4,589,351.3,501c-0.1-84.3,43.2-184.9,149.6-189.2c0.8,0,1.6-0.1,2.5-0.1C335.3,437.5,373.7,550.5,429.2,692.8z"></path>		<path class="st32" d="M602.8,788.8c0,2.3,0,4.6,0,6.9c-0.1,7.5-0.4,15.3-0.7,22.3c-0.1,2.4-0.2,4.7-0.4,6.9   c-0.6,10.8-1.2,18.6-1.2,18.6c0,1.3,0,2.6,0,4c-0.1,2.3-0.3,4.6-0.6,6.9c-0.4,3.1-1.1,6.1-2,9c-1,3.4-2.3,6.7-3.9,9.9   c-6.3,12.6-16.6,22.8-29.4,29c-1.3,0.6-2.6,1.2-3.9,1.7c-6.9,2.8-14.5,4.4-22.4,4.6l-4.6,0.1c-8,0.2-15.7-1.1-22.9-3.6   c-3.9-1.4-7.6-3.1-11.1-5.1c-14.5-8.5-25.4-22.5-29.6-39.2c-0.6-2.3-1.1-4.7-1.4-7.2c-0.3-2.3-0.5-4.6-0.6-6.9   c0,0-0.1-0.8-0.2-2.3c-0.2-2.2-0.5-6-0.8-10.8c-0.4-5.4-0.8-11.9-1.2-18.9c-0.2-3.7-0.4-7.5-0.6-11.3c-0.3-6.7-0.6-13.3-0.7-19.3   c-0.1-3.8-0.1-7.3,0-10.3c0.1-5.9,0.5-10,1.3-11.2c4.1-5.7,123.7-8.8,132.4-3.1C601.6,761.5,602.7,774,602.8,788.8z"></path>		<path class="st86" d="M602.2,814.6c-20-4.9-117.9-16-136.4-18.4c0.1-2.4,0.2-4.7,0.4-6.9l135.8,10.2   C602.1,803.2,602.8,809.2,602.2,814.6z"></path>		<path class="st86" d="M600,847.5c-26.4-4.9-116.1-15.9-133-18.1c0.1-2.3,0.3-4.6,0.6-6.9l134.2,8.9   C601.9,833.6,601.3,842.1,600,847.5z"></path>		<path class="st1" d="M458.2,782.7l-0.2,1.8c-0.4,4.9,3.4,9.3,8.5,9.8l133.4,11.9c5.1,0.5,9.6-3.2,10-8.1l0.2-1.8   c0.4-4.9-3.4-9.3-8.5-9.8l-133.4-11.9C463.1,774.1,458.6,777.8,458.2,782.7z"></path>		<path class="st1" d="M458.9,816.1l-0.2,1.8c-0.4,4.9,3.3,9.3,8.4,9.8l132.1,11.8c5.1,0.5,9.5-3.2,9.9-8.1l0.2-1.8   c0.4-4.9-3.3-9.3-8.4-9.8L468.9,808C463.8,807.5,459.4,811.1,458.9,816.1z"></path>		<path class="st86" d="M597.9,863.3c-1,3.4-4.7,11.5-6.7,14c-30.3-4.5-99.9-14.2-121.1-16.6c-0.6-2.3-1.1-4.7-1.4-7.2L597.9,863.3z   "></path>		<path class="st1" d="M458.9,847.1l-0.2,1.8c-0.4,4.9,3.3,9.3,8.4,9.8l132.1,11.8c5.1,0.5,9.5-3.2,9.9-8.1l0.2-1.8   c0.4-4.9-3.3-9.3-8.4-9.8l-132.1-11.8C463.8,838.5,459.3,842.1,458.9,847.1z"></path>		<path class="st48" d="M349.7,512.3c3.4,1.9,8.8,3.5,7.7,0.6c-1.1-2.9-6.9-6.1-7.4-7.1C349.5,504.8,349.7,512.3,349.7,512.3z"></path>		<path class="st48" d="M359.2,580.6c3.8-3.3,6.3-6.8,7.1-4.1c0.8,2.7-3.4,7-3.2,8C363.3,585.6,359.2,580.6,359.2,580.6z"></path>		<path class="st1" d="M397.4,418c18.9-2.8,21.6-10.7,25.1-35.3c2.4,23.4,5.6,32.2,24.8,34.9c-16.8,6.7-22.6,9.1-25.6,36.1   C417.5,426.3,413.9,423.9,397.4,418z"></path>		<path class="st1" d="M620.2,515.8c15.9-2.3,18.2-9,21.2-29.8c2.1,19.7,4.7,27.2,20.9,29.4c-14.1,5.6-19.1,7.7-21.6,30.5   C637.1,522.8,634,520.7,620.2,515.8z"></path>		<g>			<g>				<g>					<path class="st76" d="M868.9,457.9C868.9,457.9,868.9,457.9,868.9,457.9l-86.2-0.4c-4,0-7.1-3.2-7.1-7.2c0-3.9,3.2-7.1,7.2-7.1      c0,0,0,0,0,0l86.1,0.4c4,0,7.1,3.2,7.1,7.2C876,454.7,872.8,457.9,868.9,457.9z"></path>				</g>				<g>					<path class="st76" d="M767,457.3C767,457.3,767,457.3,767,457.3l-5.5,0c-4,0-7.1-3.2-7.1-7.2c0-4,3.3-7.1,7.2-7.1l5.5,0      c4,0,7.1,3.2,7.1,7.2C774.1,454.2,770.9,457.3,767,457.3z"></path>				</g>			</g>			<g>				<g>					<path class="st76" d="M753.1,371.5c-2.8,0-5.5-1.7-6.6-4.4c-1.5-3.7,0.2-7.8,3.9-9.3l79.6-32.9c3.7-1.5,7.8,0.2,9.3,3.9      c1.5,3.7-0.2,7.8-3.9,9.3l-79.6,32.9C754.9,371.3,754,371.5,753.1,371.5z"></path>				</g>				<g>					<path class="st76" d="M733.4,379.6c-2.8,0-5.5-1.7-6.6-4.4c-1.5-3.7,0.2-7.8,3.9-9.3l5.1-2.1c3.7-1.5,7.8,0.2,9.3,3.9      c1.5,3.7-0.2,7.8-3.9,9.3l-5.1,2.1C735.3,379.4,734.3,379.6,733.4,379.6z"></path>				</g>			</g>			<g>				<g>					<path class="st76" d="M683.6,296.7c-1.8,0-3.6-0.7-5-2c-2.8-2.8-2.9-7.3-0.1-10.1l60.2-61.6c2.8-2.8,7.3-2.9,10.1-0.1      c2.8,2.8,2.9,7.3,0.1,10.1l-60.2,61.6C687.3,296,685.4,296.7,683.6,296.7z"></path>				</g>				<g>					<path class="st76" d="M668.7,311.9c-1.8,0-3.6-0.7-5-2c-2.8-2.8-2.9-7.3-0.1-10.1l3.8-3.9c2.8-2.8,7.3-2.9,10.1-0.1      c2.8,2.8,2.9,7.3,0.1,10.1l-3.8,3.9C672.5,311.2,670.6,311.9,668.7,311.9z"></path>				</g>			</g>			<g>				<g>					<path class="st76" d="M586.6,264.5c-0.6,0-1.2-0.1-1.8-0.2c-3.8-1-6.1-4.9-5.1-8.8l22.2-83.2c1-3.8,4.9-6.1,8.8-5.1      c3.8,1,6.1,4.9,5.1,8.8l-22.2,83.2C592.7,262.4,589.8,264.5,586.6,264.5z"></path>				</g>				<g>					<path class="st76" d="M581.2,285c-0.6,0-1.2-0.1-1.8-0.2c-3.8-1-6.1-4.9-5.1-8.8l1.4-5.3c1-3.8,4.9-6.1,8.8-5.1      c3.8,1,6.1,4.9,5.1,8.8l-1.4,5.3C587.2,282.9,584.3,285,581.2,285z"></path>				</g>			</g>			<g>				<g>					<path class="st76" d="M487.9,266c-3.1,0-5.9-2-6.8-5.1l-25.3-82.3c-1.2-3.8,1-7.8,4.7-8.9c3.8-1.2,7.8,1,8.9,4.7l25.3,82.3      c1.2,3.8-1,7.8-4.7,8.9C489.4,265.9,488.6,266,487.9,266z"></path>				</g>				<g>					<path class="st76" d="M494.2,286.3c-3.1,0-5.9-2-6.8-5.1l-1.6-5.3c-1.2-3.8,1-7.8,4.7-8.9c3.8-1.2,7.8,1,8.9,4.7l1.6,5.3      c1.2,3.8-1,7.8-4.7,8.9C495.6,286.2,494.9,286.3,494.2,286.3z"></path>				</g>			</g>			<g>				<g>					<path class="st76" d="M217.9,458.7c-3.9,0-7.1-3.1-7.2-7c-0.1-4,3.1-7.2,7-7.3l93.1-1.9c4-0.1,7.2,3.1,7.3,7      c0.1,4-3.1,7.2-7,7.3l-93.1,1.9C218,458.7,218,458.7,217.9,458.7z"></path>				</g>				<g>					<path class="st76" d="M326.8,456.2c-3.8,0-7-3.1-7.1-6.9c-0.1-4,3-7.3,6.9-7.4l5.5-0.2c4-0.1,7.3,3,7.4,6.9      c0.1,4-3,7.3-6.9,7.4l-5.5,0.2C327,456.2,326.9,456.2,326.8,456.2z"></path>				</g>			</g>			<g>				<g>					<path class="st76" d="M331.4,366.8c-1,0-1.9-0.2-2.9-0.6l-78.9-34.5c-3.6-1.6-5.3-5.8-3.7-9.4c1.6-3.6,5.8-5.3,9.4-3.7      l78.9,34.5c3.6,1.6,5.3,5.8,3.7,9.4C336.8,365.2,334.2,366.8,331.4,366.8z"></path>				</g>				<g>					<path class="st76" d="M350.9,375.3c-1,0-1.9-0.2-2.9-0.6l-5-2.2c-3.6-1.6-5.3-5.8-3.7-9.4c1.6-3.6,5.8-5.3,9.4-3.7l5,2.2      c3.6,1.6,5.3,5.8,3.7,9.4C356.3,373.7,353.6,375.3,350.9,375.3z"></path>				</g>			</g>			<g>				<g>					<path class="st76" d="M389.2,301.2c-2,0-4-0.8-5.4-2.4l-57-64.6c-2.6-3-2.3-7.5,0.6-10.1c3-2.6,7.5-2.3,10.1,0.6l57,64.6      c2.6,3,2.3,7.5-0.6,10.1C392.6,300.7,390.9,301.2,389.2,301.2z"></path>				</g>				<g>					<path class="st76" d="M403.3,317.2c-2,0-4-0.8-5.4-2.4l-3.6-4.1c-2.6-3-2.3-7.5,0.6-10.1c3-2.6,7.5-2.3,10.1,0.6l3.6,4.1      c2.6,3,2.3,7.5-0.6,10.1C406.7,316.6,405,317.2,403.3,317.2z"></path>				</g>			</g>		</g>	</g></g><g id="Layer_3"></g><g id="Layer_4"></g></svg>