<svg xmlns="http://www.w3.org/2000/svg" id="Layer_1" data-name="Layer 1" viewBox="0 0 980.9 584.06"><defs><style>      .cls-1 {        fill: #2d2d2d;        stroke-width: 0px;      }    </style></defs><path class="cls-1" d="m967.39,580.8H13.52c-.8,0-1.45.74-1.45,1.61s.65,1.62,1.45,1.62h953.89c.81,0,1.45-.74,1.45-1.62s-.64-1.61-1.45-1.61h-.02Z"></path><path class="cls-1" d="m80.56,250.87c1.08,0,1.96-.74,1.96-1.62v-10.46c0-.88-.88-1.62-1.96-1.62s-1.96.74-1.96,1.62v10.46c0,.88.88,1.62,1.96,1.62Z"></path><path class="cls-1" d="m59.68,237.17c-1.08,0-1.96.74-1.96,1.62v10.46c0,.88.88,1.62,1.96,1.62s1.96-.74,1.96-1.62v-10.46c0-.88-.88-1.62-1.96-1.62Z"></path><path class="cls-1" d="m89.54,233.43h-14.98v-9.47c0-.88-.88-1.62-1.96-1.62h-8.89v-15.62c0-.91-.88-1.61-1.96-1.61h-3.86l-2.09-68.49h7.54c1.08,0,1.96-.74,1.96-1.62v-8.82c0-.88-.88-1.62-1.96-1.62h-7.91l-.12-3.91-2.43-79.41h4.54c1.08,0,1.96-.71,1.96-1.62v-5.7c0-.88-.88-1.62-1.96-1.62h-4.82l-.67-21.72-.27-9.02c-.02-.88-.9-1.59-1.96-1.59h-7.95c-1.06,0-1.94.71-1.96,1.59l-.94,30.73h-4.84c-1.08,0-1.96.74-1.96,1.62v5.7c0,.91.88,1.62,1.96,1.62h4.56l-2.55,83.35h-7.93c-1.08,0-1.96.71-1.96,1.59v8.82c0,.91.88,1.62,1.96,1.62h7.56l-2.09,68.49h-3.88c-1.08,0-1.96.74-1.96,1.61v15.65h-8.89c-1.08,0-1.96.71-1.96,1.62v9.44H1.96c-1.08,0-1.96.74-1.96,1.61v18c0,.88.88,1.62,1.96,1.62h7.01v16.16c0,.88.88,1.62,1.96,1.62h18.11l-16.99,309.92c-.02.45.18.88.55,1.19.37.34.88.51,1.41.51h63.51c.53,0,1.04-.17,1.41-.51.37-.31.57-.74.55-1.19l-17-309.92h18.11c1.08,0,1.96-.74,1.96-1.62v-16.16h7.01c1.08,0,1.96-.74,1.96-1.62v-18c0-.88-.88-1.61-1.96-1.61h-.02ZM43.68,3.26h4.13l.18,5.73h-4.48l.18-5.73Zm-.27,8.96h4.68l.61,20.1h-5.89l.61-20.1Zm-7.4,25.8v-2.47h19.46v2.47m-6.3,9.87l2.17,71.16h-11.2l2.17-71.16h6.85Zm-6.75-3.23l.1-3.4h6.44l.1,3.4h-6.66.02Zm9.03,77.62l.08,2.27h-11.53l.08-2.27h11.4-.02Zm-21.34,11.09v-5.59h31.29v5.59h-31.29Zm21.99,9.69l1.9,62.03h-16.47l1.9-62.03h12.67Zm-12.57-3.23l.1-3.23h12.28l.1,3.23h-12.47Zm-7.83,68.49h28.12v14.03h-28.12v-14.03Zm-10.85,17.26h49.81v7.82H20.85v-7.82h-.02Zm22.95,355.22h-27.76l.39-7.03h27.37v7.03Zm0-10.26h-27.2l.39-7.23h26.8v7.23Zm0-10.46h-26.63l.39-7.23h26.22v7.23h.02Zm0-10.46h-26.04l.39-7.23h25.65v7.23Zm0-10.43h-25.47l.39-7.23h25.08v7.23Zm0-10.46h-24.9l.39-7.23h24.49v7.23h.02Zm0-10.46h-24.32l.39-7.23h23.93v7.23Zm0-10.46h-23.75l.39-7.23h23.36v7.23Zm0-10.46h-23.18l.39-7.23h22.77v7.23h.02Zm0-10.46h-22.59l.39-7.23h22.2v7.23Zm0-10.43h-22.03l.39-7.23h21.63v7.23Zm0-10.46h-21.46l.39-7.23h21.07v7.23Zm0-10.46h-20.89l.39-7.23h20.48v7.23h.02Zm0-10.46h-20.3l.39-7.23h19.91v7.23Zm0-10.46h-19.74l.39-7.23h19.34v7.23Zm0-10.46h-19.17l.39-7.23h18.76v7.23h.02Zm0-10.43h-18.58l.39-7.23h18.19v7.23Zm0-10.46h-18.01l.39-7.23h17.62v7.23Zm0-10.46h-17.44l.39-7.23h17.03v7.23h.02Zm0-10.46h-16.86l.39-7.23h16.47v7.23Zm0-10.46h-16.29l.39-7.23h15.9v7.23Zm0-10.46h-15.72l.39-7.23h15.33v7.23Zm0-10.43h-15.15l.39-7.23h14.74v7.23h.02Zm0-10.46h-14.57l.39-7.23h14.18v7.23Zm0-10.46h-14l.39-7.23h13.61v7.23Zm0-10.46h-13.43l.39-7.23h13.02v7.23h.02Zm0-10.46h-12.84l.39-7.23h12.45v7.23Zm0-10.46h-12.28l.39-7.23h11.88v7.23Zm0-10.43h-11.71l.39-7.23h11.3v7.23h.02Zm0-10.46h-11.12l.29-5.24h10.85v5.24h-.02Zm7.28,303.14h-3.37v-308.41h3.37v308.41Zm24.38,0h-20.46v-308.41h3.54l16.92,308.41Zm3.15-311.65H12.88v-3.49h65.73v3.49h-.02Zm0-6.69H12.88v-7.85h65.73v7.85h-.02Zm8.97-11.08H3.92v-14.77h83.66v14.77h-.02Z"></path><path class="cls-1" d="m71.67,238.79v10.46c0,.88.88,1.62,1.96,1.62s1.96-.74,1.96-1.62v-10.46c0-.88-.88-1.62-1.96-1.62s-1.96.74-1.96,1.62Z"></path><path class="cls-1" d="m66.64,237.17c-1.08,0-1.96.74-1.96,1.62v10.46c0,.88.88,1.62,1.96,1.62s1.96-.74,1.96-1.62v-10.46c0-.88-.88-1.62-1.96-1.62Z"></path><path class="cls-1" d="m17.9,237.17c-1.08,0-1.96.74-1.96,1.62v10.46c0,.88.88,1.62,1.96,1.62s1.96-.74,1.96-1.62v-10.46c0-.88-.88-1.62-1.96-1.62Z"></path><path class="cls-1" d="m10.92,237.17c-1.08,0-1.96.74-1.96,1.62v10.46c0,.88.88,1.62,1.96,1.62s1.96-.74,1.96-1.62v-10.46c0-.88-.88-1.62-1.96-1.62Z"></path><path class="cls-1" d="m52.71,237.17c-1.08,0-1.96.74-1.96,1.62v10.46c0,.88.88,1.62,1.96,1.62s1.96-.74,1.96-1.62v-10.46c0-.88-.88-1.62-1.96-1.62Z"></path><path class="cls-1" d="m24.87,237.17c-1.08,0-1.96.74-1.96,1.62v10.46c0,.88.88,1.62,1.96,1.62s1.96-.74,1.96-1.62v-10.46c0-.88-.88-1.62-1.96-1.62Z"></path><path class="cls-1" d="m31.82,237.17c-1.08,0-1.96.74-1.96,1.62v10.46c0,.88.88,1.62,1.96,1.62s1.96-.74,1.96-1.62v-10.46c0-.88-.88-1.62-1.96-1.62Z"></path><path class="cls-1" d="m45.76,237.17c-1.08,0-1.96.74-1.96,1.62v10.46c0,.88.88,1.62,1.96,1.62s1.96-.74,1.96-1.62v-10.46c0-.88-.88-1.62-1.96-1.62Z"></path><path class="cls-1" d="m38.79,237.17c-1.08,0-1.96.74-1.96,1.62v10.46c0,.88.88,1.62,1.96,1.62s1.96-.74,1.96-1.62v-10.46c0-.88-.88-1.62-1.96-1.62Z"></path><path class="cls-1" d="m170.34,555.96c-1.08,0-1.96.71-1.96,1.62v17.86c0,.88.88,1.62,1.96,1.62s1.96-.74,1.96-1.62v-17.86c0-.91-.88-1.62-1.96-1.62Z"></path><path class="cls-1" d="m81.7,577.06c1.08,0,1.96-.74,1.96-1.62v-17.86c0-.91-.88-1.62-1.96-1.62s-1.96.71-1.96,1.62v17.86c0,.88.88,1.62,1.96,1.62Z"></path><path class="cls-1" d="m190.04,555.96c-1.07,0-1.96.71-1.96,1.62v17.86c0,.88.88,1.62,1.96,1.62s1.96-.74,1.96-1.62v-17.86c0-.91-.88-1.62-1.96-1.62Z"></path><path class="cls-1" d="m81.7,538.13h108.33c1.08,0,1.96-.74,1.96-1.62s-.88-1.62-1.96-1.62h-108.33c-1.08,0-1.96.71-1.96,1.62s.88,1.62,1.96,1.62Z"></path><path class="cls-1" d="m81.7,550.26h108.33c1.08,0,1.96-.74,1.96-1.62s-.88-1.62-1.96-1.62h-108.33c-1.08,0-1.96.71-1.96,1.62s.88,1.62,1.96,1.62Z"></path><path class="cls-1" d="m81.7,526h108.33c1.08,0,1.96-.74,1.96-1.62s-.88-1.62-1.96-1.62h-108.33c-1.08,0-1.96.71-1.96,1.62s.88,1.62,1.96,1.62Z"></path><path class="cls-1" d="m121.1,555.96c-1.08,0-1.96.71-1.96,1.62v17.86c0,.88.88,1.62,1.96,1.62s1.96-.74,1.96-1.62v-17.86c0-.91-.88-1.62-1.96-1.62Z"></path><path class="cls-1" d="m111.25,555.96c-1.07,0-1.96.71-1.96,1.62v17.86c0,.88.88,1.62,1.96,1.62s1.96-.74,1.96-1.62v-17.86c0-.91-.88-1.62-1.96-1.62Z"></path><path class="cls-1" d="m160.49,555.96c-1.08,0-1.96.71-1.96,1.62v17.86c0,.88.88,1.62,1.96,1.62s1.96-.74,1.96-1.62v-17.86c0-.91-.88-1.62-1.96-1.62Z"></path><path class="cls-1" d="m91.56,555.96c-1.08,0-1.96.71-1.96,1.62v17.86c0,.88.88,1.62,1.96,1.62s1.96-.74,1.96-1.62v-17.86c0-.91-.88-1.62-1.96-1.62Z"></path><path class="cls-1" d="m101.4,555.96c-1.08,0-1.96.71-1.96,1.62v17.86c0,.88.88,1.62,1.96,1.62s1.96-.74,1.96-1.62v-17.86c0-.91-.88-1.62-1.96-1.62Z"></path><path class="cls-1" d="m150.65,555.96c-1.08,0-1.96.71-1.96,1.62v17.86c0,.88.88,1.62,1.96,1.62s1.96-.74,1.96-1.62v-17.86c0-.91-.88-1.62-1.96-1.62Z"></path><path class="cls-1" d="m130.95,555.96c-1.08,0-1.96.71-1.96,1.62v17.86c0,.88.88,1.62,1.96,1.62s1.96-.74,1.96-1.62v-17.86c0-.91-.88-1.62-1.96-1.62Z"></path><path class="cls-1" d="m140.79,555.96c-1.08,0-1.96.71-1.96,1.62v17.86c0,.88.88,1.62,1.96,1.62s1.96-.74,1.96-1.62v-17.86c0-.91-.88-1.62-1.96-1.62Z"></path><path class="cls-1" d="m180.2,555.96c-1.08,0-1.96.71-1.96,1.62v17.86c0,.88.88,1.62,1.96,1.62s1.96-.74,1.96-1.62v-17.86c0-.91-.88-1.62-1.96-1.62Z"></path><path class="cls-1" d="m190.04,411.41h-103.46c-1.08,0-1.96.71-1.96,1.61s.88,1.62,1.96,1.62h103.46c1.08,0,1.96-.74,1.96-1.62s-.88-1.61-1.96-1.61Z"></path><path class="cls-1" d="m190.04,435.42h-105.08c-1.08,0-1.96.71-1.96,1.62s.88,1.62,1.96,1.62h105.08c1.08,0,1.96-.74,1.96-1.62s-.88-1.62-1.96-1.62Z"></path><path class="cls-1" d="m142.6,342.6h47.42c1.08,0,1.96-.74,1.96-1.62s-.88-1.62-1.96-1.62h-47.42c-1.08,0-1.96.74-1.96,1.62s.88,1.62,1.96,1.62Z"></path><path class="cls-1" d="m113.56,378.35h75.44c1.08,0,1.96-.74,1.96-1.62s-.88-1.62-1.96-1.62h-75.44c-1.08,0-1.96.71-1.96,1.62s.88,1.62,1.96,1.62Z"></path><path class="cls-1" d="m132.93,354.51h56.76c1.08,0,1.96-.74,1.96-1.62s-.88-1.62-1.96-1.62h-56.76c-1.08,0-1.96.74-1.96,1.62s.88,1.62,1.96,1.62Z"></path><path class="cls-1" d="m224.03,311.64c-7.73,0-15.31.48-22.75,1.39-74.05,9.1-131.04,61.86-131.04,125.36v55h-7.75c-1.08,0-1.96.74-1.96,1.62v15.62c0,.91.88,1.62,1.96,1.62h7.75v70.16c0,.88.88,1.59,1.96,1.59h151.82c1.08,0,1.96-.71,1.96-1.59v-269.18c0-.88-.88-1.59-1.96-1.59h.02Zm-24.71,269.15h-125.19v-68.52h125.19v68.52Zm0-71.75H64.43v-12.39h134.9v12.39Zm0-15.62h-125.19v-55c0-61.21,54.25-112.12,125.19-121.88v176.87Zm22.75,87.37h-18.84v-264.7c6.17-.71,12.45-1.13,18.84-1.19v265.89Z"></path><path class="cls-1" d="m123.23,366.45h66.1c1.08,0,1.96-.74,1.96-1.62s-.88-1.61-1.96-1.61h-66.1c-1.08,0-1.96.71-1.96,1.61s.88,1.62,1.96,1.62Z"></path><path class="cls-1" d="m190.03,423.4h-104.28c-1.08,0-1.96.74-1.96,1.61s.88,1.62,1.96,1.62h104.28c1.08,0,1.96-.71,1.96-1.62s-.88-1.61-1.96-1.61Z"></path><path class="cls-1" d="m95.54,402.53h94.12c1.08,0,1.96-.74,1.96-1.62s-.88-1.61-1.96-1.61h-94.12c-1.08,0-1.96.74-1.96,1.61s.88,1.62,1.96,1.62Z"></path><path class="cls-1" d="m190.03,483.44h-108.33c-1.08,0-1.96.71-1.96,1.62s.88,1.61,1.96,1.61h108.33c1.08,0,1.96-.74,1.96-1.61s-.88-1.62-1.96-1.62Z"></path><path class="cls-1" d="m104.54,390.43h84.78c1.08,0,1.96-.74,1.96-1.62s-.88-1.62-1.96-1.62h-84.78c-1.08,0-1.96.74-1.96,1.62s.88,1.62,1.96,1.62Z"></path><path class="cls-1" d="m190.03,447.41h-105.88c-1.08,0-1.96.74-1.96,1.62s.88,1.62,1.96,1.62h105.88c1.08,0,1.96-.74,1.96-1.62s-.88-1.62-1.96-1.62Z"></path><path class="cls-1" d="m190.03,471.42h-107.51c-1.08,0-1.96.74-1.96,1.62s.88,1.61,1.96,1.61h107.51c1.08,0,1.96-.74,1.96-1.61s-.88-1.62-1.96-1.62Z"></path><path class="cls-1" d="m190.04,459.43h-106.71c-1.08,0-1.96.71-1.96,1.62s.88,1.62,1.96,1.62h106.71c1.08,0,1.96-.74,1.96-1.62s-.88-1.62-1.96-1.62Z"></path><path class="cls-1" d="m551.25,237.17c-26.57,0-48.21,17.83-48.21,39.75v305.52c0,.88.88,1.62,1.96,1.62h92.47c1.07,0,1.96-.74,1.96-1.62v-305.52c0-21.91-21.61-39.75-48.2-39.75h.02Zm-26.57,343.63h-17.7v-303.91c0-11.91,6.95-22.51,17.7-29.17v333.08Zm49.24,0h-45.33v-7.03h45.33v7.03Zm0-10.26h-45.33v-6.15h45.33v6.15Zm0-9.38h-45.33v-6.18h45.33v6.18Zm0-9.38h-45.33v-6.18h45.33v6.18Zm0-9.41h-45.33v-6.15h45.33v6.15Zm0-9.38h-45.33v-6.15h45.33v6.15Zm0-9.38h-45.33v-6.18h45.33v6.18Zm0-9.38h-45.33v-6.18h45.33v6.18Zm0-9.41h-45.33v-6.15h45.33v6.15Zm0-9.38h-45.33v-6.15h45.33v6.15Zm0-9.38h-45.33v-6.18h45.33v6.18Zm0-9.41h-45.33v-6.15h45.33v6.15Zm0-9.38h-45.33v-6.15h45.33v6.15Zm0-9.38h-45.33v-6.15h45.33v6.15Zm0-9.38h-45.33v-6.18h45.33v6.18Zm0-9.41h-45.33v-6.15h45.33v6.15Zm0-9.38h-45.33v-6.15h45.33v6.15Zm0-9.38h-45.33v-6.18h45.33v6.18Zm0-9.38h-45.33v-6.18h45.33v6.18Zm0-9.41h-45.33v-6.15h45.33v6.15Zm0-9.38h-45.33v-6.15h45.33v6.15Zm0-9.38h-45.33v-6.18h45.33v6.18Zm0-9.38h-45.33v-6.18h45.33v6.18Zm0-9.41h-45.33v-6.15h45.33v6.15Zm-45.33-9.38v-6.15h45.33v6.15m0-15.56v6.18h-45.33v-6.18m45.33-3.23h-45.33v-6.15h45.33v6.15Zm-45.33-9.38v-6.15h45.33v6.15m0-9.38h-45.33v-6.15h45.33v6.15Zm0-9.38h-45.33v-6.18h45.33v6.18Zm0-9.41h-45.33v-6.15h45.33v6.15Zm0-9.38h-45.33v-6.15h45.33v6.15Zm-45.33-9.38v-6.18h45.33v6.18m-45.33-9.38v-6.18h45.33v6.18m0-9.41h-45.33v-6.15h45.33v6.15Zm0-9.38h-45.33v-5.84c6.64-3.29,14.39-5.16,22.65-5.16s16.03,1.87,22.65,5.16v5.84h.02Zm21.62,329.39h-17.7V247.58c10.75,6.66,17.7,17.27,17.7,29.17v303.91-.03Z"></path><path class="cls-1" d="m978.93,213.73h-74.91c-1.08,0-1.96.71-1.96,1.62v367.07s.02.09.02.11v.14c0,.06.06.14.1.23.04.06.06.14.1.23.06.11.16.23.26.31.06.06.1.11.16.17.14.09.27.17.43.23.06.03.1.06.16.09.23.08.47.14.72.14h74.95c.52,0,1-.2,1.35-.48.04-.03.06-.06.08-.09.13-.11.23-.23.31-.37.04-.09.06-.14.08-.2.04-.09.07-.14.09-.26v-.11c0-.06.04-.09.04-.14V215.34c0-.91-.88-1.62-1.95-1.62h-.02Zm-71.92,82.68l-1.03.67v-9.6m0,14.19l1.49-1.25.18,1.47-1.67,1.25v-1.47Zm0,5.78l2.12-1.56.2,1.7-2.31,1.53v-1.67Zm0,5.78l2.74-1.81.22,1.87-2.96,1.78v-1.84Zm0,5.78l3.37-2.07.23,2.04-3.6,1.98v-1.98.03Zm0,5.76l4.01-2.21.23,2.13-4.25,2.18v-2.1Zm0,5.78l4.64-2.38.26,2.24-4.89,2.33v-2.18Zm0,5.76l5.29-2.49.26,2.3-5.54,2.47v-2.27Zm0,5.78l5.93-2.66.28,2.38-6.19,2.61v-2.33h-.02Zm0,5.76l6.56-2.75.27,2.44-6.85,2.69v-2.38h.02Zm0,5.76l7.2-2.83.27,2.47-7.5,2.81v-2.44h.02Zm0,8.22v-2.47l7.85-2.92.29,2.5m-8.15,6.18l8.5-2.98.3,2.55-8.79,2.95v-2.52Zm0,8.31v-2.52l9.14-3.09.3,2.58m-9.44,6.27l9.79-3.15.29,2.61-10.08,3.09v-2.55Zm0,5.75l10.44-3.2.29,2.64-10.75,3.15v-2.58h.02Zm0,5.76l11.08-3.26.29,2.67-11.39,3.2v-2.61h.02Zm0,5.76l11.73-3.29.29,2.67-12.04,3.26v-2.64h.02Zm0,5.78l12.39-3.37.32,2.69-12.69,3.29v-2.61h-.02Zm0,5.76l13.04-3.4.32,2.69-13.33,3.34v-2.64h-.02Zm0,5.76l13.68-3.46.31,2.69-14,3.4v-2.64Zm0,5.76l14.33-3.49.31,2.69-14.65,3.46v-2.66Zm0,5.76l14.98-3.52.31,2.72-15.29,3.49v-2.69Zm0,5.78l15.62-3.57.31,2.69-15.94,3.54v-2.67Zm0,5.76l16.29-3.6.31,2.69-16.58,3.57v-2.67h-.02Zm0,5.76l16.94-3.63.31,2.72-17.25,3.57v-2.69.03Zm0,5.76l17.58-3.63.31,2.69-17.9,3.63v-2.69Zm0,5.76l18.23-3.66.32,2.69-18.54,3.66v-2.69Zm0,5.78l18.87-3.71.31,2.69-19.19,3.69v-2.66Zm0,5.76l19.54-3.74.32,2.69-19.83,3.69v-2.66l-.02.03Zm0,5.76l20.18-3.77.32,2.69-20.5,3.74v-2.66Zm0,5.76l20.83-3.8.31,2.69-21.14,3.77v-2.66Zm0,5.75l21.48-3.8.31,2.69-21.79,3.77v-2.67Zm0,5.78l22.14-3.85.31,2.69-22.44,3.77v-2.64l-.02.03Zm0,5.76l22.79-3.86.31,2.67-23.08,3.83v-2.64h-.02Zm0,5.76l23.44-3.88.29,2.67-23.75,3.85v-2.64h.02Zm0,5.76l24.08-3.91.29,2.66-24.39,3.88v-2.64h.02Zm0,5.76l24.75-3.91.3,2.64-25.04,3.91v-2.64Zm0,5.78l25.39-3.94.3,2.64-25.69,3.91v-2.61Zm0,5.75l26.04-3.97.29,2.64-26.33,3.91v-2.58Zm0,5.76l26.69-4,.29,2.64-27,3.94v-2.58h.02Zm0,5.76l27.35-4,.29,2.61-27.64,3.97v-2.58Zm0,5.76l28-4,.29,2.58-28.29,4v-2.58Zm0,5.78l28.65-4.05.29,2.61-28.94,4v-2.55Zm0,5.76l29.31-4.05.29,2.58-29.6,4.03v-2.55Zm0,5.76l29.96-4.05.29,2.55-30.25,4.02v-2.52Zm0,5.76l30.6-4.08.29,2.55-30.9,4.05v-2.52Zm0,5.75l31.25-4.08.3,2.55-31.54,4.05v-2.52Zm0,5.78l31.91-4.14.29,2.55-32.19,4.08v-2.49h-.02Zm0,5.76l32.56-4.14.29,2.52-32.85,4.08v-2.47Zm24.08,2.75l9.14-1.16.14,1.16h-9.28Zm13.57,0l.14-1.13,9.05,1.13h-9.18Zm33.34-.25l-32.86-4.11.29-2.49,32.56,4.11v2.5Zm0-5.76l-32.19-4.08.29-2.52,31.91,4.11v2.49h-.02Zm0-5.73l-31.54-4.08.29-2.55,31.25,4.14v2.49Zm0-5.75l-30.9-4.05.29-2.58,30.6,4.11v2.52Zm0-5.76l-30.25-4.03.29-2.58,29.96,4.08v2.52Zm0-5.73l-29.58-4.02.29-2.61,29.29,4.08v2.55Zm0-5.75l-28.94-4,.29-2.61,28.65,4.05v2.55Zm0-5.73l-28.29-4.02.29-2.61,28,4.05v2.58Zm0-5.76l-27.65-4,.29-2.61,27.33,4.03v2.58h.02Zm0-5.75l-26.98-3.97.29-2.61,26.69,4v2.58Zm0-5.73l-26.34-3.97.3-2.64,26.04,4v2.61Zm0-5.76l-25.69-3.94.29-2.64,25.38,3.97v2.61h.02Zm0-5.76l-25.04-3.91.29-2.67,24.73,3.97v2.61h.02Zm0-5.73l-24.38-3.91.32-2.67,24.08,3.91v2.64l-.02.03Zm0-5.76l-23.73-3.88.31-2.67,23.42,3.91v2.64Zm0-5.73l-23.09-3.88.32-2.69,22.77,3.91v2.66Zm0-5.76l-22.44-3.85.31-2.69,22.13,3.91v2.64Zm0-5.76l-21.77-3.83.31-2.69,21.48,3.85v2.66h-.02Zm0-5.73l-21.13-3.83.32-2.69,20.81,3.83v2.69Zm0-5.75l-20.48-3.77.31-2.72,20.17,3.83v2.69-.03Zm0-5.75l-19.82-3.74.32-2.72,19.52,3.8v2.67h-.02Zm0-5.73l-19.17-3.74.31-2.72,18.86,3.77v2.69Zm0-5.76l-18.52-3.71.31-2.75,18.21,3.77v2.69Zm0-5.78l-17.88-3.66.32-2.75,17.56,3.71v2.69Zm0-5.76l-17.21-3.63.31-2.75,16.92,3.71v2.66h-.02Zm0-5.76l-16.57-3.63.32-2.72,16.25,3.66v2.69Zm0-5.76l-15.92-3.6.31-2.72,15.61,3.63v2.69Zm0-5.76l-15.27-3.57.31-2.72,14.96,3.6v2.69Zm0-5.78l-14.61-3.51.31-2.69,14.32,3.54v2.69l-.02-.03Zm0-5.75l-13.96-3.46.31-2.72,13.67,3.52v2.67h-.02Zm0-5.76l-13.31-3.43.31-2.69,13,3.49v2.66-.03Zm0-5.76l-12.67-3.4.31-2.69,12.36,3.43v2.67Zm0-5.78l-12.02-3.35.31-2.66,11.71,3.37v2.64Zm0-5.78l-11.36-3.29.3-2.66,11.06,3.34v2.61Zm0-5.78l-10.71-3.23.29-2.64,10.42,3.29v2.58Zm0-5.76l-10.07-3.17.3-2.64,9.77,3.23v2.58Zm0-5.81l-9.42-3.09.3-2.61,9.12,3.15v2.55Zm0-5.78l-8.75-3.03.29-2.55,8.48,3.09v2.49h-.02Zm0-5.78l-8.11-2.95.3-2.52,7.83,3.01v2.47h-.02Zm0-5.81l-7.46-2.89.27-2.47,7.19,2.92v2.44Zm0-5.81l-6.81-2.78.27-2.44,6.54,2.83v2.38Zm0-5.84l-6.17-2.66.27-2.35,5.9,2.72v2.3Zm0-5.84l-5.5-2.55.25-2.27,5.25,2.58v2.24Zm0-5.84l-4.86-2.41.26-2.21,4.6,2.44v2.18Zm0-5.87l-4.21-2.27.23-2.1,3.98,2.3v2.07Zm0-5.9l-3.57-2.07.24-1.98,3.33,2.1v1.96Zm0-5.92l-2.92-1.84.22-1.84,2.7,1.9v1.79Zm0-5.95l-2.27-1.59.19-1.64,2.08,1.62v1.62Zm0-6.01l-1.63-1.28.16-1.39,1.47,1.28v1.39Zm0-6.12v.03l-.98-.85.98-8.56m0-34.59l-35.5,312.16-35.5-312.44v-35.72h70.99v36Z"></path><path class="cls-1" d="m917.99,254.32h46.99c1.08,0,1.96-.71,1.96-1.62v-23.44c0-.88-.88-1.62-1.96-1.62h-46.99c-1.08,0-1.96.74-1.96,1.62v23.44c0,.91.88,1.62,1.96,1.62Zm1.96-23.45h43.07v20.24h-43.07v-20.24Z"></path><path class="cls-1" d="m917.99,263.71h46.99c1.08,0,1.96-.74,1.96-1.62s-.88-1.62-1.96-1.62h-46.99c-1.08,0-1.96.71-1.96,1.62s.88,1.62,1.96,1.62Z"></path><path class="cls-1" d="m297.41,499.57h12c1.08,0,1.96-.74,1.96-1.62v-12.76c0-3.6-3.56-6.55-7.97-6.55s-7.97,2.92-7.97,6.55v12.76c0,.88.88,1.62,1.96,1.62h.02Zm1.96-14.37c0-1.84,1.82-3.35,4.05-3.35s4.05,1.5,4.05,3.35v11.14h-8.09v-11.14h-.02Z"></path><path class="cls-1" d="m319.85,499.57h12c1.08,0,1.96-.74,1.96-1.62v-12.76c0-3.6-3.56-6.55-7.97-6.55s-7.97,2.92-7.97,6.55v12.76c0,.88.88,1.62,1.96,1.62h.02Zm1.96-14.37c0-1.84,1.82-3.35,4.05-3.35s4.05,1.5,4.05,3.35v11.14h-8.08v-11.14h-.02Z"></path><path class="cls-1" d="m432.12,499.57h12c1.08,0,1.96-.74,1.96-1.62v-12.76c0-3.6-3.56-6.55-7.97-6.55s-7.95,2.92-7.95,6.55v12.76c0,.88.88,1.62,1.96,1.62Zm1.96-14.37c0-1.84,1.82-3.35,4.03-3.35s4.05,1.5,4.05,3.35v11.14h-8.08v-11.14Z"></path><path class="cls-1" d="m499.46,499.57h12c1.07,0,1.96-.74,1.96-1.62v-12.76c0-3.6-3.56-6.55-7.97-6.55s-7.97,2.92-7.97,6.55v12.76c0,.88.88,1.62,1.96,1.62h.02Zm1.96-14.37c0-1.84,1.82-3.35,4.05-3.35s4.05,1.5,4.05,3.35v11.14h-8.09v-11.14h-.02Z"></path><path class="cls-1" d="m454.54,499.57h12c1.08,0,1.96-.74,1.96-1.62v-12.76c0-3.6-3.56-6.55-7.97-6.55s-7.97,2.92-7.97,6.55v12.76c0,.88.88,1.62,1.96,1.62h.02Zm1.96-14.37c0-1.84,1.82-3.35,4.05-3.35s4.05,1.5,4.05,3.35v11.14h-8.09v-11.14h-.02Z"></path><path class="cls-1" d="m342.29,499.57h12c1.08,0,1.96-.74,1.96-1.62v-12.76c0-3.6-3.56-6.55-7.97-6.55s-7.95,2.92-7.95,6.55v12.76c0,.88.88,1.62,1.96,1.62Zm1.96-14.37c0-1.84,1.82-3.35,4.03-3.35s4.05,1.5,4.05,3.35v11.14h-8.09v-11.14Z"></path><path class="cls-1" d="m409.64,499.57h12c1.08,0,1.96-.74,1.96-1.62v-12.76c0-3.6-3.56-6.55-7.97-6.55s-7.97,2.92-7.97,6.55v12.76c0,.88.88,1.62,1.96,1.62h.02Zm1.96-14.37c0-1.84,1.82-3.35,4.05-3.35s4.05,1.5,4.05,3.35v11.14h-8.09v-11.14h-.02Z"></path><path class="cls-1" d="m477,499.57h12c1.08,0,1.96-.74,1.96-1.62v-12.76c0-3.6-3.56-6.55-7.97-6.55s-7.95,2.92-7.95,6.55v12.76c0,.88.88,1.62,1.96,1.62Zm1.96-14.37c0-1.84,1.82-3.35,4.05-3.35s4.03,1.5,4.03,3.35v11.14h-8.09v-11.14Z"></path><path class="cls-1" d="m258.51,518.26c-4.39,0-7.97,2.95-7.97,6.58v12.73c0,.91.88,1.62,1.96,1.62h12c1.08,0,1.96-.71,1.96-1.62v-12.73c0-3.63-3.56-6.58-7.97-6.58h.02Zm4.05,17.69h-8.08v-11.11c0-1.84,1.82-3.35,4.05-3.35s4.05,1.5,4.05,3.35v11.11h-.02Z"></path><path class="cls-1" d="m303.4,518.26c-4.39,0-7.97,2.95-7.97,6.58v12.73c0,.91.88,1.62,1.96,1.62h12c1.08,0,1.96-.71,1.96-1.62v-12.73c0-3.63-3.56-6.58-7.97-6.58h.02Zm4.07,17.69h-8.1v-11.11c0-1.84,1.82-3.35,4.05-3.35s4.05,1.5,4.05,3.35"></path><path class="cls-1" d="m280.97,518.26c-4.39,0-7.97,2.95-7.97,6.58v12.73c0,.91.88,1.62,1.96,1.62h12c1.08,0,1.96-.71,1.96-1.62v-12.73c0-3.63-3.56-6.58-7.97-6.58h.02Zm4.05,17.69h-8.08v-11.11c0-1.84,1.82-3.35,4.05-3.35s4.05,1.5,4.05,3.35v11.11h-.02Z"></path><path class="cls-1" d="m409.64,539.18h12c1.08,0,1.96-.71,1.96-1.62v-12.73c0-3.63-3.56-6.58-7.97-6.58s-7.97,2.95-7.97,6.58v12.73c0,.91.88,1.62,1.96,1.62h.02Zm1.96-14.34c0-1.84,1.82-3.35,4.05-3.35s4.05,1.5,4.05,3.35v11.11h-8.09v-11.11h-.02Z"></path><path class="cls-1" d="m348.31,518.26c-4.39,0-7.95,2.95-7.95,6.58v12.73c0,.91.88,1.62,1.96,1.62h12c1.08,0,1.96-.71,1.96-1.62v-12.73c0-3.63-3.56-6.58-7.97-6.58Zm4.05,17.69h-8.09v-11.11c0-1.84,1.82-3.35,4.04-3.35s4.05,1.5,4.05,3.35v11.11Z"></path><path class="cls-1" d="m527.22,512.1c2.84,0,5.13-1.9,5.13-4.22s-2.31-4.22-5.13-4.22h-1.43v-29.43c0-.88-.88-1.62-1.96-1.62h-156.54l-22.61-64.92s-.04-.06-.06-.09c-.04-.08-.08-.14-.12-.2-.08-.11-.16-.23-.26-.31-.06-.06-.12-.11-.18-.14-.12-.09-.26-.17-.39-.23-.06-.03-.14-.06-.2-.09-.22-.06-.45-.08-.71-.08h-105.38c-2.84,0-5.15,1.9-5.15,4.22s2.31,4.22,5.15,4.22h1.41v46.98h-1.41c-2.84,0-5.15,1.9-5.15,4.22s2.31,4.22,5.15,4.22h1.41v33.22h-1.43c-2.84,0-5.13,1.93-5.13,4.25s2.31,4.22,5.13,4.22h1.43v33.23h-1.43c-2.84,0-5.13,1.9-5.13,4.22s2.31,4.22,5.13,4.22h1.43v28.63c0,.88.88,1.62,1.96,1.62h283.04c1.08,0,1.96-.74,1.96-1.62v-28.63h1.43c2.84,0,5.13-1.9,5.13-4.22s-2.31-4.22-5.13-4.22h-1.43v-33.23h1.43l.02-.03Zm-5.34-36.26v27.81h-132.63l-9.89-27.81h142.52Zm-146.59,0l9.89,27.81h-7.07l-9.67-27.81h6.87-.02Zm-1.25,27.81h-131.26v-33.22h119.71l11.57,33.22h-.02Zm-30.86-88.65l16.35,46.98h-116.75v-46.98h100.4Zm-105.73-3.23c-.67,0-1.23-.45-1.23-.99,0-.57.55-1.02,1.23-1.02h103.91l.7,2.01h-104.61Zm0,55.42c-.69,0-1.23-.45-1.23-.99,0-.57.55-.99,1.23-.99h123.21l.71,1.98h-123.92Zm25.1,113.62h-8.09v-17.43c0-1.84,1.82-3.34,4.05-3.34s4.05,1.5,4.05,3.34v17.43h-.02Zm22.46,0h-8.08v-17.43c0-1.84,1.82-3.34,4.05-3.34s4.05,1.5,4.05,3.34v17.43h-.02Zm22.46,0h-8.08v-17.43c0-1.84,1.82-3.34,4.05-3.34s4.05,1.5,4.05,3.34v17.43h-.02Zm22.46,0h-8.08v-17.43c0-1.84,1.82-3.34,4.05-3.34s4.05,1.5,4.05,3.34v17.43h-.02Zm22.46,0h-8.09v-17.43c0-1.84,1.82-3.34,4.03-3.34s4.05,1.5,4.05,3.34v17.43Zm22.46,0h-8.09v-17.43c0-1.84,1.82-3.34,4.05-3.34s4.05,1.5,4.05,3.34v17.43h-.02Zm3.91,0v-17.43c0-3.6-3.56-6.58-7.97-6.58s-7.97,2.95-7.97,6.58v17.43h-6.54v-17.43c0-3.6-3.56-6.58-7.97-6.58s-7.95,2.95-7.95,6.58v17.43h-6.54v-17.43c0-3.6-3.56-6.58-7.97-6.58s-7.97,2.95-7.97,6.58v17.43h-6.54v-17.43c0-3.6-3.56-6.58-7.97-6.58s-7.97,2.95-7.97,6.58v17.43h-6.54v-17.43c0-3.6-3.56-6.58-7.97-6.58s-7.97,2.95-7.97,6.58v17.43h-6.54v-17.43c0-3.6-3.56-6.58-7.97-6.58s-7.97,2.95-7.97,6.58v17.43h-7.77v-27.02h148.72l9.4,27.02h-22.18.14Zm24.3-27.02l9.59,27.02h-7.64l-9.4-27.02m46.58,27.02h-8.08v-17.43c0-1.84,1.82-3.34,4.03-3.34s4.05,1.5,4.05,3.34v17.43Zm22.46,0h-8.09v-17.43c0-1.84,1.82-3.34,4.05-3.34s4.05,1.5,4.05,3.34v17.43h-.02Zm22.46,0h-8.09v-17.43c0-1.84,1.82-3.34,4.05-3.34s4.03,1.5,4.03,3.34v17.43Zm22.46,0h-8.09v-17.43c0-1.84,1.82-3.34,4.05-3.34s4.05,1.5,4.05,3.34v17.43h-.02Zm12.37,0h-8.46v-17.43c0-3.6-3.56-6.58-7.97-6.58s-7.97,2.95-7.97,6.58v17.43h-6.54v-17.43c0-3.6-3.56-6.58-7.97-6.58s-7.95,2.95-7.95,6.58v17.43h-6.54v-17.43c0-3.6-3.56-6.58-7.97-6.58s-7.97,2.95-7.97,6.58v17.43h-6.54v-17.43c0-3.6-3.56-6.58-7.97-6.58s-7.95,2.95-7.95,6.58v17.43h-13.47l-9.59-27.02h114.79v27.02h.06Zm-130.85-32.26h136.19c.67,0,1.21.45,1.21,1.02s-.55.99-1.21.99H237.43c-.67,0-1.21-.45-1.21-.99,0-.57.55-1.02,1.21-1.02h3.39m159.24-3.2h-7.38l-11.57-33.23h7.14l11.81,33.23Zm-7.73-33.23h129.61v33.23h-117.81l-11.8-33.23Zm-3.72,33.23h-145.77v-33.23h134.19l11.57,33.23Zm-11.98-38.47h150.52c.67,0,1.21.45,1.21,1.02s-.55.99-1.21.99h-3.37.14H237.45c-.67,0-1.21-.45-1.21-.99,0-.57.55-1.02,1.21-1.02h3.37"></path><path class="cls-1" d="m370.75,518.26c-4.39,0-7.97,2.95-7.97,6.58v12.73c0,.91.88,1.62,1.96,1.62h12c1.08,0,1.96-.71,1.96-1.62v-12.73c0-3.63-3.56-6.58-7.97-6.58h.02Zm4.05,17.69h-8.08v-11.11c0-1.84,1.82-3.35,4.05-3.35s4.05,1.5,4.05,3.35v11.11h-.02Z"></path><path class="cls-1" d="m325.86,518.26c-4.39,0-7.97,2.95-7.97,6.58v12.73c0,.91.88,1.62,1.96,1.62h12c1.08,0,1.96-.71,1.96-1.62v-12.73c0-3.63-3.56-6.58-7.97-6.58h.02Zm4.05,17.69h-8.09v-11.11c0-1.84,1.82-3.35,4.05-3.35s4.05,1.5,4.05,3.35v11.11h-.02Z"></path><path class="cls-1" d="m432.12,539.18h12c1.08,0,1.96-.71,1.96-1.62v-12.73c0-3.63-3.56-6.58-7.97-6.58s-7.95,2.95-7.95,6.58v12.73c0,.91.88,1.62,1.96,1.62Zm1.96-14.34c0-1.84,1.82-3.35,4.03-3.35s4.05,1.5,4.05,3.35v11.11h-8.08v-11.11Z"></path><path class="cls-1" d="m252.48,450.76h12c1.08,0,1.96-.74,1.96-1.62v-12.73c0-3.63-3.56-6.58-7.97-6.58s-7.97,2.92-7.97,6.58v12.73c0,.88.88,1.62,1.96,1.62h.02Zm1.96-14.34c0-1.84,1.82-3.35,4.05-3.35s4.05,1.5,4.05,3.35v11.11h-8.09v-11.11h-.02Z"></path><path class="cls-1" d="m274.96,450.76h12c1.08,0,1.96-.74,1.96-1.62v-12.73c0-3.63-3.56-6.58-7.97-6.58s-7.97,2.92-7.97,6.58v12.73c0,.88.88,1.62,1.96,1.62h.02Zm1.96-14.34c0-1.84,1.82-3.35,4.05-3.35s4.05,1.5,4.05,3.35v11.11h-8.08v-11.11h-.02Z"></path><path class="cls-1" d="m297.41,450.76h12c1.08,0,1.96-.74,1.96-1.62v-12.73c0-3.63-3.56-6.58-7.97-6.58s-7.97,2.92-7.97,6.58v12.73c0,.88.88,1.62,1.96,1.62h.02Zm1.96-14.34c0-1.84,1.82-3.35,4.05-3.35s4.05,1.5,4.05,3.35v11.11h-8.09v-11.11h-.02Z"></path><path class="cls-1" d="m319.85,450.76h12c1.08,0,1.96-.74,1.96-1.62v-12.73c0-3.63-3.56-6.58-7.97-6.58s-7.97,2.92-7.97,6.58v12.73c0,.88.88,1.62,1.96,1.62h.02Zm1.96-14.34c0-1.84,1.82-3.35,4.05-3.35s4.05,1.5,4.05,3.35v11.11h-8.08v-11.11h-.02Z"></path><path class="cls-1" d="m252.48,499.57h12c1.08,0,1.96-.74,1.96-1.62v-12.76c0-3.6-3.56-6.55-7.97-6.55s-7.97,2.92-7.97,6.55v12.76c0,.88.88,1.62,1.96,1.62h.02Zm1.96-14.37c0-1.84,1.82-3.35,4.05-3.35s4.05,1.5,4.05,3.35v11.14h-8.09v-11.14h-.02Z"></path><path class="cls-1" d="m477,539.18h12c1.08,0,1.96-.71,1.96-1.62v-12.73c0-3.63-3.56-6.58-7.97-6.58s-7.95,2.95-7.95,6.58v12.73c0,.91.88,1.62,1.96,1.62Zm1.96-14.34c0-1.84,1.82-3.35,4.05-3.35s4.03,1.5,4.03,3.35v11.11h-8.09v-11.11Z"></path><path class="cls-1" d="m454.54,539.18h12c1.08,0,1.96-.71,1.96-1.62v-12.73c0-3.63-3.56-6.58-7.97-6.58s-7.97,2.95-7.97,6.58v12.73c0,.91.88,1.62,1.96,1.62h.02Zm1.96-14.34c0-1.84,1.82-3.35,4.05-3.35s4.05,1.5,4.05,3.35v11.11h-8.09v-11.11h-.02Z"></path><path class="cls-1" d="m499.46,539.18h12c1.07,0,1.96-.71,1.96-1.62v-12.73c0-3.63-3.56-6.58-7.97-6.58s-7.97,2.95-7.97,6.58v12.73c0,.91.88,1.62,1.96,1.62h.02Zm1.96-14.34c0-1.84,1.82-3.35,4.05-3.35s4.05,1.5,4.05,3.35v11.11h-8.09v-11.11h-.02Z"></path><path class="cls-1" d="m274.96,499.57h12c1.08,0,1.96-.74,1.96-1.62v-12.76c0-3.6-3.56-6.55-7.97-6.55s-7.97,2.92-7.97,6.55v12.76c0,.88.88,1.62,1.96,1.62h.02Zm1.96-14.37c0-1.84,1.82-3.35,4.05-3.35s4.05,1.5,4.05,3.35v11.14h-8.08v-11.14h-.02Z"></path><path class="cls-1" d="m795.03,449.88h-15.47v-12.79c0-.88-.88-1.61-1.96-1.61h-8.79v-8.96c0-.88-.88-1.62-1.96-1.62h-14.86v-3.37c0-10.21-4.84-19.82-13.59-27.04-6.3-5.22-14.14-8.7-22.73-10.26v-2.47c0-4.62-4.52-8.36-10.1-8.36s-10.12,3.74-10.12,8.36v2.49c-21.13,3.86-36.3,19.31-36.3,37.28v3.37h-14.86c-1.07,0-1.96.74-1.96,1.62v8.96h-8.79c-1.08,0-1.96.74-1.96,1.61v12.79h-15.47c-1.08,0-1.96.74-1.96,1.62v130.92c0,.88.88,1.62,1.96,1.62h60.66c1.08,0,1.96-.74,1.96-1.62v-64.01c0-12.19,12.04-22.11,26.84-22.11s26.84,9.92,26.84,22.11v64.01c0,.88.88,1.62,1.96,1.62h60.66c1.08,0,1.96-.74,1.96-1.62v-130.92c0-.88-.88-1.62-1.96-1.62Zm-52.45-45.27h.17c3.45,5.13,5.31,10.91,5.31,16.95v3.37h-4.78v-14.46c0-.88-.88-1.62-1.96-1.62h-1.68c-.51-2.1-1.19-4.03-2.04-5.81,2.62.77,3.96,1.33,3.99,1.36.31.14.63.2.96.2h.02Zm-3.19,7.48v12.81h-2.74v-12.81h2.74Zm-3.76-15.31c1.25,1.02,2.37,2.13,3.45,3.26-1.04-.31-2.29-.65-3.72-.99-1.78-2.61-3.9-4.79-6.17-6.61,2.29,1.25,4.45,2.69,6.44,4.34Zm-7.26,12.08h-1.78c-.26-1.79-.84-4.93-2.17-8.42,3.23.43,6.01.91,8.32,1.39,1.25,2.07,2.25,4.4,2.96,7.03h-.96c-1.08,0-1.96.74-1.96,1.62v14.46h-2.41v-14.46c0-.88-.88-1.62-1.96-1.62h-.04Zm-1.96,3.23v12.81h-2.74v-12.81h2.74Zm3.39-14.15c-2.08-.37-4.37-.68-6.93-.99-1.31-2.55-3.06-5.13-5.37-7.4,4.17,1.7,8.67,4.34,12.29,8.39Zm-14.41,10.91h-6.66c-.51,0-.98.2-1.33.45.06-.17.12-.34.12-.51v-9.47c4.66.03,8.81.26,12.47.59,1.57,3.6,2.29,6.97,2.61,8.93h-.9c-1.08,0-1.96.74-1.96,1.62v14.43h-2.41v-14.43c0-.88-.88-1.62-1.96-1.62h.02Zm-1.96,3.23v12.81h-2.74v-12.81h2.74Zm4.84-15.53c-3.23-.26-6.84-.43-10.73-.45v-8.87c5.05,1.9,8.46,5.5,10.73,9.33Zm-18.9-14.8c0-2.83,2.78-5.13,6.21-5.13s6.19,2.3,6.19,5.13v1.9c-1.94-.2-3.9-.34-5.89-.37h-.57c-2,0-4,.17-5.93.37v-1.9Zm4.86,28.21c.35.26.82.45,1.35.45s.98-.2,1.33-.45c-.06.17-.12.34-.12.51v14.46h-2.41v-14.46c0-.17-.06-.34-.14-.51h-.02Zm-8.48-1.11c-1.08,0-1.96.74-1.96,1.62v14.46h-2.41v-14.46c0-.88-.88-1.62-1.96-1.62h-.88c.31-1.93,1.02-5.3,2.6-8.9,3.68-.34,7.85-.57,12.49-.62v9.47c0,.2.06.37.14.54-.35-.28-.82-.45-1.35-.45h-6.66l-.02-.03Zm4.7,3.23v12.81h-2.74v-12.81h2.74Zm3.17-24.86v8.87c-3.9.03-7.5.2-10.75.42,2.29-3.83,5.68-7.43,10.75-9.33v.03Zm-9.83,2.18c-2.39,2.3-4.17,4.93-5.5,7.54-2.59.28-4.9.6-6.99.94,3.66-4.14,8.26-6.8,12.49-8.48Zm-17.35,19.45h-.94c.71-2.66,1.7-5.05,2.94-7.12,2.33-.48,5.11-.96,8.32-1.36-1.35,3.51-1.94,6.69-2.19,8.45h-1.8c-1.07,0-1.96.74-1.96,1.62v14.46h-2.41v-14.46c0-.88-.88-1.62-1.96-1.62v.03Zm8.28,3.23h2.74v12.81h-2.74v-12.81Zm-2.8-19.65c-2.23,1.81-4.33,3.94-6.09,6.49-1.37.31-2.58.62-3.62.91,2.74-2.84,6.01-5.36,9.71-7.4Zm-18.85,29.09c0-6.15,1.94-11.93,5.36-17.01.16-.03.31-.06.47-.11.04-.03,1.6-.68,4.68-1.53-.86,1.84-1.57,3.8-2.09,5.95h-1.7c-1.08,0-1.96.74-1.96,1.62v14.46h-4.76v-3.37Zm11.41-9.44v12.81h-2.74v-12.81h2.74Zm-28.21,16.05h118.63v7.34h-118.63v-7.34Zm-2.76,152.66h-25.41v-12.02h25.41v12.02Zm31.33,0h-27.41v-12.02h27.41v12.02Zm88.93,0h-27.41v-12.02h27.41v12.02Zm0-15.25h-27.41v-47.15c0-13.98-13.8-25.35-30.76-25.35s-30.76,11.37-30.76,25.35v47.15h-27.41v-47.15c0-26.42,26.1-47.91,58.17-47.91s58.17,21.49,58.17,47.91v47.15Zm3.91,3.23h25.42v12.02h-25.42m25.42-15.25h-25.42v-47.15c0-28.21-27.86-51.14-62.08-51.14s-62.09,22.93-62.09,51.14v47.15h-25.41v-112.43h15.47c1.08,0,1.96-.71,1.96-1.62v-12.79h140.09v12.79c0,.91.88,1.62,1.96,1.62h15.47v112.43h.06Z"></path><path class="cls-1" d="m900.73,574.08h-8.3v-15.51c0-.88-.88-1.62-1.96-1.62h-6.44v-25.63c0-.88-.88-1.61-1.96-1.61h-18.91v-112.78h2.72c.92,0,1.72-.54,1.92-1.28l2.11-8.28c.12-.48-.02-.99-.39-1.36-.37-.37-.92-.6-1.53-.6h-16.05v-2.58c4.13-.37,8.36-1.62,8.56-1.7.49-.14.9-.45,1.12-.85.22-.4.23-.85.04-1.25l-5.58-11.65h11.94c.65,0,1.25-.26,1.63-.71.37-.45.43-.99.2-1.5-2.47-4.96-10.97-6.12-15.43-6.41.72-2.13,1.33-5.39-.47-7.88-.92-1.3-2.88-2.89-6.97-3.18h-.16c-.06,0-.1-.03-.15,0-4.07.28-6.03,1.87-6.97,3.18-1.8,2.49-1.19,5.76-.47,7.88-4.46.28-12.96,1.45-15.43,6.41-.26.51-.18,1.05.2,1.5.37.45.98.71,1.62.71h11.94l-5.58,11.65c-.2.4-.17.85.04,1.25.22.4.61.71,1.11.85.2.09,4.43,1.36,8.56,1.7v2.58h-16.05c-.59,0-1.15.23-1.52.6-.38.37-.51.85-.39,1.36l2.11,8.28c.2.74,1,1.28,1.92,1.28h2.72v112.78h-18.91c-1.08,0-1.96.74-1.96,1.61v25.63h-6.44c-1.08,0-1.96.74-1.96,1.62v15.51h-8.3c-1.08,0-1.96.71-1.96,1.62v6.72c0,.88.88,1.62,1.96,1.62h107.9c1.07,0,1.96-.74,1.96-1.62v-6.72c0-.91-.88-1.62-1.96-1.62h-.06Zm-64.4-175.45l5.87-12.25c.24-.51.16-1.08-.19-1.5-.37-.42-.98-.71-1.62-.71h-10.61c3.52-1.9,9.52-2.3,12.1-2.27.69,0,1.29-.26,1.66-.71.37-.45.43-1.05.16-1.56-.69-1.28-2.17-5.08-.69-7.12.65-.91,1.88-1.42,3.74-1.59,1.86.17,3.09.68,3.74,1.59,1.49,2.04,0,5.84-.68,7.12-.27.51-.21,1.08.16,1.56.37.45,1,.74,1.66.71,2.58-.03,8.58.37,12.1,2.27h-10.61c-.65,0-1.25.26-1.63.71-.37.42-.43.99-.2,1.5l5.87,12.25c-1.88.45-4.8,1.08-7.24,1.08-1.08,0-1.96.71-1.96,1.62v4.11h-2.47v-4.11c0-.91-.88-1.62-1.96-1.62-2.45,0-5.36-.59-7.24-1.08h.04Zm-7.07,15.08l-1.29-5.05h37.59l-1.29,5.05h-35.01Zm5.03,106.74v-103.5h24.94v103.5h-24.94Zm24.94,3.23v6.07h-24.94v-6.07h24.94Zm-45.81,9.3h66.68v24.01h-3.47v-14.6c0-.88-.88-1.59-1.96-1.59s-1.96.71-1.96,1.59v14.6h-4.05v-14.6c0-.88-.88-1.59-1.96-1.59s-1.96.71-1.96,1.59v14.6h-4.05v-14.6c0-.88-.88-1.59-1.96-1.59s-1.96.71-1.96,1.59v14.6h-4.05v-14.6c0-.88-.88-1.59-1.96-1.59s-1.96.71-1.96,1.59v14.6h-4.05v-14.6c0-.88-.88-1.59-1.96-1.59s-1.96.71-1.96,1.59v14.6h-4.05v-14.6c0-.88-.88-1.59-1.96-1.59s-1.96.71-1.96,1.59v14.6h-4.05v-14.6c0-.88-.88-1.59-1.96-1.59s-1.96.71-1.96,1.59v14.6h-4.05v-14.6c0-.88-.88-1.59-1.96-1.59s-1.96.71-1.96,1.59v14.6h-3.47v-24.01h-.06Zm-8.4,27.24h83.48v13.86h-4.48v-9.47c0-.91-.88-1.62-1.96-1.62h-70.6c-1.08,0-1.96.71-1.96,1.62v9.47h-4.48v-13.86Zm75.08,6.01v7.85h-66.68v-7.85h66.68Zm18.66,14.6h-103.98v-3.49h103.98v3.49Z"></path><path class="cls-1" d="m841.92,489.91c-1.08,0-1.96.74-1.96,1.62v24.24c0,.88.88,1.62,1.96,1.62s1.96-.74,1.96-1.62v-24.24c0-.88-.88-1.62-1.96-1.62Z"></path><path class="cls-1" d="m841.92,454.72c-1.08,0-1.96.71-1.96,1.59v24.24c0,.91.88,1.62,1.96,1.62s1.96-.71,1.96-1.62v-24.24c0-.88-.88-1.59-1.96-1.59Z"></path><path class="cls-1" d="m851.63,489.91c-1.07,0-1.96.74-1.96,1.62v24.24c0,.88.88,1.62,1.96,1.62s1.96-.74,1.96-1.62v-24.24c0-.88-.88-1.62-1.96-1.62Z"></path><path class="cls-1" d="m851.63,419.52c-1.07,0-1.96.74-1.96,1.62v24.24c0,.88.88,1.61,1.96,1.61s1.96-.74,1.96-1.61v-24.24c0-.88-.88-1.62-1.96-1.62Z"></path><path class="cls-1" d="m841.92,419.52c-1.08,0-1.96.74-1.96,1.62v24.24c0,.88.88,1.61,1.96,1.61s1.96-.74,1.96-1.61v-24.24c0-.88-.88-1.62-1.96-1.62Z"></path><path class="cls-1" d="m851.63,454.72c-1.07,0-1.96.71-1.96,1.59v24.24c0,.91.88,1.62,1.96,1.62s1.96-.71,1.96-1.62v-24.24c0-.88-.88-1.59-1.96-1.59Z"></path></svg>