<svg xmlns="http://www.w3.org/2000/svg" xmlns:xlink="http://www.w3.org/1999/xlink" x="0px" y="0px" viewBox="0 0 1080 1080" style="enable-background:new 0 0 1080 1080;" xml:space="preserve"><style type="text/css">	.st0{display:none;fill:#1F85FF;}	.st1{fill:#FFFFFF;}	.st2{opacity:0.19;}	.st3{opacity:0;fill:#FFFFFF;}	.st4{opacity:3.846154e-02;fill:#F8F8F9;}	.st5{opacity:7.692308e-02;fill:#F1F2F4;}	.st6{opacity:0.1154;fill:#EAEBEE;}	.st7{opacity:0.1538;fill:#E3E4E8;}	.st8{opacity:0.1923;fill:#DDDEE3;}	.st9{opacity:0.2308;fill:#D6D7DD;}	.st10{opacity:0.2692;fill:#CFD0D7;}	.st11{opacity:0.3077;fill:#C8CAD2;}	.st12{opacity:0.3462;fill:#C1C3CC;}	.st13{opacity:0.3846;fill:#BABCC6;}	.st14{opacity:0.4231;fill:#B3B6C1;}	.st15{opacity:0.4615;fill:#ACAFBB;}	.st16{opacity:0.5;fill:#A6A9B6;}	.st17{opacity:0.5385;fill:#9FA2B0;}	.st18{opacity:0.5769;fill:#989BAA;}	.st19{opacity:0.6154;fill:#9195A5;}	.st20{opacity:0.6538;fill:#8A8E9F;}	.st21{opacity:0.6923;fill:#838799;}	.st22{opacity:0.7308;fill:#7C8194;}	.st23{opacity:0.7692;fill:#757A8E;}	.st24{opacity:0.8077;fill:#6E7388;}	.st25{opacity:0.8462;fill:#686D83;}	.st26{opacity:0.8846;fill:#61667D;}	.st27{opacity:0.9231;fill:#5A5F77;}	.st28{opacity:0.9615;fill:#535972;}	.st29{fill:#4C526C;}	.st30{fill:#E6AF93;}	.st31{fill:#232323;}	.st32{fill:#2D2D2D;}	.st33{fill:#BFE5EB;}	.st34{fill:#E2A88F;}	.st35{fill:#0067E2;}	.st36{fill:#2991B9;}	.st37{opacity:0.15;fill:#0067E2;}	.st38{fill:url(#SVGID_1_);}	.st39{fill:url(#SVGID_00000094613353694039084800000016974715230490430354_);}	.st40{fill:url(#SVGID_00000019643189352986155740000017457125448628408221_);}	.st41{fill:#0D77F7;}	.st42{fill:#0D6EFD;}	.st43{fill:#DB9923;}	.st44{fill:#754942;}	.st45{opacity:0.16;fill:#1F1F39;}	.st46{fill:#3B3B4D;}	.st47{opacity:0.26;fill:#3D3D59;}	.st48{fill:#EFAEA6;}	.st49{opacity:0.14;fill:#1F1F39;}	.st50{fill:#0267A4;}	.st51{opacity:0.11;fill:#1F1F39;}	.st52{fill:#0069A8;}	.st53{opacity:0.18;fill:#1F1F39;}	.st54{fill:url(#SVGID_00000019647974295606254150000005114011642367372479_);}	.st55{opacity:0.18;fill:#FFFFFF;}	.st56{fill:#004A93;}	.st57{fill:#F2B233;}	.st58{opacity:0.75;}	.st59{fill:#EA4F26;}	.st60{opacity:0.65;}	.st61{fill:#CC820A;}	.st62{fill:#F4C83D;}	.st63{fill:none;stroke:#FFFFFF;stroke-width:23.989;stroke-linecap:round;stroke-miterlimit:10;}	.st64{fill:#575759;}	.st65{opacity:0.6;fill:#2C2C42;}	.st66{fill:#AAAAAF;}	.st67{fill:#160661;}	.st68{fill:url(#SVGID_00000158724369322648791270000016217861851950759849_);}	.st69{fill:#0A004F;}	.st70{fill:url(#SVGID_00000134956918281109422480000017093942232368840332_);}	.st71{fill:url(#SVGID_00000031171625407063717560000017618597436833837976_);}	.st72{fill:url(#SVGID_00000015334781952294147620000006623645763370496146_);}	.st73{fill:url(#SVGID_00000036213735963633786450000015074446310524925102_);}	.st74{fill:url(#SVGID_00000093869880748182414040000002826213333615502491_);}	.st75{fill:url(#SVGID_00000010289991685741292930000013895809240379066280_);}	.st76{fill:#1F85FF;}	.st77{opacity:0.44;fill:#1F1F39;}	.st78{opacity:0.57;fill:#1F1F39;}	.st79{opacity:0.87;}	.st80{opacity:0.14;fill:#1F1F3B;}	.st81{opacity:0.24;fill:#1F1F3B;}	.st82{fill:url(#SVGID_00000182518126359207393960000011075406538066708870_);}	.st83{fill:none;stroke:#FFFFFF;stroke-width:21.0387;stroke-linecap:round;stroke-miterlimit:10;}	.st84{fill:url(#SVGID_00000070108977977465282380000017200945784029607062_);}	.st85{fill:url(#SVGID_00000093865192045107848230000006145034800564037792_);}	.st86{opacity:0.6;fill:#1F1F3B;}</style><g id="Layer_1"></g><g id="Layer_2">	<rect x="-4.2" y="-4.2" class="st0" width="1088.4" height="1088.4"></rect>	<g>		<path class="st43" d="M728.3,500.1c-77.2-31.2-180-23.6-244-23.6s-225.2,15-224.2,26.2c1,11.2,54.3,113.2,118.3,113.2   S677,560.3,677,560.3L728.3,500.1z"></path>		<g>			<g>				<path class="st44" d="M721.2,350.8c0,1.6,0.1,3.7,1,5.3c0.9,1.6,2.5,2.7,5.5,2.8c5.7,0.1,6.4-2.7,13.9-1.9     c7.5,0.8,21.5,9.7,26.3,9.5c4.4-0.2,112.7,16.4,133.1,12.4c0.7-0.1,1.3-0.3,1.8-0.5c0.9-0.4,1.4-0.8,1.5-1.4     c0.1-0.7,0.1-1.7,0.2-3c0.6-13.8,0.1-58.7-3.2-73.2c-0.7-2.9-1.4-4.6-2.3-4.5c-0.7,0-2.2,0.3-4.3,0.8     c-21.6,4.9-108.9,31.2-124.3,33.7c-16.4,2.6-23.1,13.4-27.8,13.9c-6.6,0.7-6-1.7-15.6-1.2C721.9,343.8,721.2,348.8,721.2,350.8z     "></path>				<path class="st45" d="M722.2,356.1c0.9,1.6,2.5,2.7,5.5,2.8c5.7,0.1,6.4-2.7,13.9-1.9c7.5,0.8,21.5,9.7,26.3,9.5     c4.4-0.2,112.7,16.4,133.1,12.4c-0.1-0.1-0.1-0.2-0.2-0.4c-0.9-1.6-1.9-3.2-2.8-4.8c-5.4-9.3-10.6-18.1-14.2-24.3     c-3.2-5.4-5.2-8.8-5.2-8.8c-0.8,1.2-2.6,2.4-5.3,3.4c-23.3,9.3-110.7,11.2-126.3,9.2C733.8,351.4,725.4,354.6,722.2,356.1z"></path>				<g>					<path class="st46" d="M873.2,340.6c0.9,16.4,8.2,29.5,17.7,35c3.6,2.1,7.4,3.1,11.4,2.8c12.1-0.9,21-19.4,19.8-42      c-1.2-22.5-10-41-22.2-40.5c-1.7,0.1-3.5,0.4-5.2,1.1l0,0c0,0,0,0,0,0c-2.7,1-5.3,2.8-7.8,5.1      C878.5,310.2,872.4,325.2,873.2,340.6z"></path>					<path class="st1" d="M882.4,338.4c0.9,18.3,9.8,36.6,19.7,36.1c9.8-0.5,16.9-19.6,15.9-37.9c-0.9-18.3-8.3-36.4-18.1-35.9      S881.4,320.1,882.4,338.4z"></path>				</g>				<path class="st47" d="M873.2,340.6c0.9,16.4,8.2,29.5,17.7,35c9.3,0.8,19.6,1.4,11.1-1.2c-13.9-4.1-13.8-28-14.1-37.3     c-0.3-9.4,4.4-23,13.5-36.4l-6.6-3.7l0,0c0,0,0,0,0,0c-0.2,0.2-3.8,2.4-7.8,5.1C878.5,310.2,872.4,325.2,873.2,340.6z"></path>			</g>			<path class="st48" d="M801.1,396.1c3.4-27.9,16.5-13.9,22.7-29.5c1-2.6-11.3-20.4-22-15.1c-10.6,5.3-18.9,21.2-20.3,29.3    c-1.5,8.1,8.1,12.6,11,12.6C795.3,393.3,801.1,396.1,801.1,396.1z"></path>			<path class="st48" d="M619.5,404.4l19.1,10.5c0,0,18.6,10,16.4,4.4c-3-7.5-0.5-13.4-1.1-18c-0.4-2.9,0-6.8,0.8-10.6    c1.3-6.7,3.5-13.1,3.5-13.1l0.8-1.5l-0.6-5.3l-1.7-15.5c0,0-15.7,2.4-19.5,11.2C633.7,374.4,621.5,395,619.5,404.4z"></path>			<path class="st49" d="M654.7,390.7c1.3-6.7,3.5-13.1,3.5-13.1l0.8-1.5l-0.6-5.3l-2-1.7c0,0-8.5,3.5-11.1,5.3    C641.7,376.9,644,390,654.7,390.7z"></path>			<path class="st1" d="M629.7,381.1c9.3,0.9,4.5,15.6,12.7,19.6c4.3,2.1,4.1-0.3,7.1-1.6c1.8-0.8,3.6-1.8,4.8,1.2    c24.3,60.6-62.9,154.8-60.6,164.7c1.8,8.1-38.9,8.1-58.9-6.2c-27.4-19.6-12.1-52.9-8.7-59.1c3.4-6.2,66.5-109.1,66.5-109.1    S611.2,388.3,629.7,381.1z"></path>			<path class="st50" d="M806,391.3c-1.2,3.1-28.9,93.8-64.9,91.2c-15.9-1.2-69.2-11.3-79.8-8c-8.1,2.5-19.8,15.3-21.8,24    c-1.6,7-3,13.9-4.4,18.8c-3.5,12.7-16,58.4-25.1,64.5c-12.2,8.1-43,8-46.5,0.6c-6-12.7,32.3-42.2,44.4-83.5    c9.3-31.9,30.3-44.6,37.2-71.3c5.2-20.2,9.1-27.2,9.1-27.2c39.6,37,72.6,42.8,84.5,43.2c15.2,0.5,30.9-61.7,37.2-63.5    C778.4,379.3,809,384,806,391.3z"></path>			<path class="st51" d="M806,391.3c-1.2,3.1-28.9,93.8-64.9,91.2c-15.9-1.2-69.2-11.3-79.8-8c-8.1,2.5-19.8,15.3-21.8,24    c-1.6,7-3,13.9-4.4,18.8c-3.5,12.7-16,58.4-25.1,64.5c-12.2,8.1-43,8-46.5,0.6c-6-12.7,32.3-42.2,44.4-83.5    c9.3-31.9,30.3-44.6,37.2-71.3c5.2-20.2,9.1-27.2,9.1-27.2c39.6,37,72.6,42.8,84.5,43.2c15.2,0.5,30.9-61.7,37.2-63.5    C778.4,379.3,809,384,806,391.3z"></path>			<path class="st52" d="M474.6,560.8c-2.1,17.3,43.5,15.7,60.2,7.6c13.8-6.7,9.4-24.2,26.2-46c8.5-11,22.4-30.2,30.8-46    c0.8-1.6,1.6-3.1,2.3-4.6c6-12.4,11.8-26.1,17-39c2.3-5.9,4.5-11.6,6.5-17c1.3-3.5,2.5-6.8,3.6-9.9c4.2-11.6,7.2-20.7,8.4-24.7    c0,0-21.3-7.8-46,4.1c-2.8,1.3-7.5,3.6-10.6,6.9c-2.6,2.7-14.8,14.4-21.9,30c-8.5,18.8-13.7,32.9-18.5,44.4    c-5.2,12.7-13.7,23.1-22.3,43.3C502.7,528,475.7,551.7,474.6,560.8z"></path>			<path class="st53" d="M590.4,412.2c-2.1,5-4.3,66-6,76.8c0.8-1.6,9-15.8,9.8-17.2c6-12.4,11.8-26.1,17-39L590.4,412.2z"></path>			<g>				<path class="st48" d="M671.2,342c2.3,8,14.2,21.9,8.7,23c-5.5,1.1,4.9,17-1,18.4c-14.2,3.4-32.3-2.2-35.6-8.7     c-3.2-6.5-6-25.9-6-25.9L671.2,342z"></path>				<path class="st32" d="M658.1,352.9c4.6-0.4,4.9,0.6,7.8-1.5s-3.5-5.4,2.2-7.6c5.7-2.2,12.1-3.9,11.3-10.7     c-1-9.9-9.4-6.6-14.5-4.4c-3.3,1.4-5.6-5.8-12.4-4.1c-5.3,1.4-4.1,4.4-8.8,5.8c-2.8,0.9-9.4-2.7-13.2,1.7     c-7.1,8.2,1.5,14.7-4.1,23c-6.5,9.7,15.7,23,17.4,20.5c2.1-2.9-3.3-10.5-1.1-13c3.3-3.7,4.4-0.5,8.3,1.9c4.1,2.6,10.6,1.4,5.2-4     C650.9,354.8,653.9,353.3,658.1,352.9z"></path>			</g>			<path class="st44" d="M670.2,351.3c0,1.6,0.1,3.7,1,5.3c0.9,1.6,2.5,2.7,5.5,2.8c5.7,0.1,6.4-2.7,13.9-1.9    c7.5,0.8,21.5,9.7,26.3,9.5c4.4-0.2,112.7,16.4,133.1,12.4c0.7-0.1,1.3-0.3,1.8-0.5c0.9-0.4,1.4-0.8,1.5-1.4    c0.1-0.7,0.1-1.7,0.2-3c0.6-13.7,0.1-58.7-3.2-73.2c-0.7-2.9-1.4-4.6-2.3-4.5c-0.7,0-2.2,0.3-4.3,0.8    c-21.6,4.9-108.9,31.2-124.3,33.7c-16.4,2.6-23.1,13.4-27.8,13.9c-6.6,0.7-6-1.7-15.6-1.2c-2.6,0.1-4,1.4-4.8,2.9    C670.4,348.5,670.2,350.2,670.2,351.3z"></path>			<linearGradient id="SVGID_1_" gradientUnits="userSpaceOnUse" x1="671.2496" y1="360.5089" x2="850.1202" y2="360.5089">				<stop offset="0" style="stop-color:#212972"></stop>				<stop offset="0.9958" style="stop-color:#160661"></stop>			</linearGradient>			<path class="st38" d="M671.2,356.6c0.9,1.6,2.5,2.7,5.5,2.8c5.7,0.1,6.4-2.7,13.9-1.9c7.5,0.8,21.5,9.7,26.3,9.5    c4.4-0.2,112.7,16.4,133.1,12.4c-0.1-0.1-0.1-0.2-0.2-0.4c-0.9-1.6-1.9-3.2-2.8-4.8c-5.4-9.3-10.6-18.1-14.2-24.3    c-3.2-5.4-5.2-8.8-5.2-8.8c-0.8,1.2,4.3,15.5,1.7,16.6c-23.3,9.3-117.7-1.9-133.3-4C682.8,351.9,674.4,355.1,671.2,356.6z"></path>			<path class="st55" d="M670.2,351.3c3.8,4,143.2-23.3,158.1-25.9l9.4-18.6c0,0-137.4,39.1-143.3,40.3c-5.9,1.2-16.5,0.5-21,0    c-0.8-0.1-1.6-0.1-2.2-0.1C670.4,348.5,670.2,350.2,670.2,351.3z"></path>			<g>				<path class="st46" d="M822.3,341.1c0.9,16.4,8.2,29.5,17.7,35c3.6,2.1,7.4,3.1,11.4,2.8c12.1-0.9,21-19.4,19.8-42     c-1.2-22.5-10-41-22.2-40.5c-1.7,0.1-3.5,0.4-5.2,1.1l0,0c0,0,0,0,0,0c-2.7,1-5.3,2.8-7.8,5.1     C827.6,310.7,821.5,325.7,822.3,341.1z"></path>				<path class="st1" d="M831.5,338.9c0.9,18.3,9.8,36.6,19.7,36.1c9.8-0.5,16.9-19.6,15.9-37.9c-0.9-18.3-8.3-36.4-18.1-35.9     S830.5,320.6,831.5,338.9z"></path>			</g>			<path class="st47" d="M822.3,341.1c0.9,16.4,8.2,29.5,17.7,35c9.3,0.8,19.6,1.4,11.1-1.2c-13.9-4.1-13.8-28-14.1-37.3    c-0.3-9.4,4.4-23,13.5-36.4l-6.6-3.7l0,0c0,0,0,0,0,0c-0.2,0.2-3.8,2.4-7.8,5.1C827.6,310.7,821.5,325.7,822.3,341.1z"></path>			<path class="st48" d="M731.3,382.3c1-3.3,14.5-8.5,13.8-11.1c-1.2-4.8-8.2-0.7-9.2-8.9c-0.8-6.4,12.1-14.4,4.8-17.7    c-16.9-7.7-26.7,4.8-25,20.5c1.3,12.2-6.6,19.3-7.9,29.6c-1.3,10.3,21.4,2.8,21.4,2.8S729.4,388.5,731.3,382.3z"></path>			<path class="st52" d="M617.2,384.7c34.8,40,63.5,147.8,89.8-0.7c0.6-3.6,31-4.5,30.3,1c-30.9,238.7-139.4,51.5-154.7,33.9    c-6.5-7.5,2-38.1,15.4-35.9C611.4,385.2,617.2,384.7,617.2,384.7z"></path>			<g>				<path class="st53" d="M639.9,402.1c-0.8-0.8-14.2,16.5-28.6,20.3c-4,1.1-8.1,1.5-12.2,1c-12.1-1.6-44.1-8.7-44.1-8.7     s5.5-9.3,12.1-14.3c10.2,5.5,26.6,10.2,33,10.7c4.7,0.4,9.3-0.1,13.7-1.1c8.2-1.9,15.6-5.5,21.3-8.9c2.9-1.7,3.9-4.9,6.9-4.5     C646,397.2,640.9,403.2,639.9,402.1z"></path>				<path class="st56" d="M646.7,396.5c0-1.7-1-4.5-4.6-4.6c-2.7-0.1-3,1-5.3,2.8c-7.1,5.4-17.6,11.9-29.5,12.4     c-11.9,0.5-38-16.9-55.7-14.2s-24.2,18-49.8,20.4c-25.6,2.3-52.1-10.2-59.7-9.4c-7.6,0.8-12.2,2.1-12.2,5.1     c0,3,3.4,8.1,8.5,10.6c5.1,2.4,51.1,8.7,63.4,7.8c20.1-1.4,38.4-18.2,51.3-18.5c5.4-0.1,13.3,1.4,21.7,3.3     c11.5,2.5,24.1,5.7,32.9,5.8c16.8,0.2,31.8-18.5,32.9-17.6c1.1,0.8,2,1.6,4.2,1.2C646.3,401.2,646.7,398.2,646.7,396.5z"></path>			</g>		</g>		<g>			<path class="st57" d="M728.3,500.1c-11,137.7-113.3,237.2-144.5,304.5c0,0,0,0,0,0c-6.3,13.7-9.8,26.2-9.1,37.9    c0,0.4,0,0.8,0,1.2c0,0,0,0,0,0c0.1,10.3-6.6,18.3-17.2,24c0,0,0,0,0,0c-5.5,2.9-11.9,5.2-19.1,6.9c-2,0.5-4.1,0.9-6.2,1.3    c-2.5,0.5-5,0.8-7.6,1.1h0l-0.1,0c-0.2,0-0.3,0-0.5,0.1c-20,2.4-42.5,0.6-60.8-5.4c-0.9-0.3-1.9-0.6-2.8-0.9    c-0.3-0.1-0.7-0.3-1-0.4h0c0,0,0,0,0,0c-4-1.5-7.8-3.2-11.2-5c-0.3-0.2-0.7-0.4-1-0.5c-0.6-0.4-1.3-0.7-1.9-1.1    c-0.3-0.2-0.6-0.4-0.9-0.6c-0.3-0.2-0.6-0.4-0.9-0.6c-0.1,0-0.1-0.1-0.2-0.1c-0.5-0.3-1-0.7-1.4-1c0,0-0.1-0.1-0.1-0.1    c-0.3-0.2-0.6-0.4-0.8-0.6c-0.2-0.2-0.4-0.3-0.6-0.5c-0.3-0.3-0.7-0.5-1-0.8c-0.4-0.4-0.9-0.7-1.3-1.1c0,0-0.1-0.1-0.1-0.1    c-0.2-0.2-0.4-0.3-0.6-0.5c0,0-0.1-0.1-0.1-0.1c-0.2-0.1-0.3-0.3-0.5-0.4c-0.6-0.6-1.2-1.2-1.8-1.9c-4.8-5.3-7.7-11.5-8.1-18.7    c-0.1-2.6-0.6-5.3-1.5-8c0,0,0,0,0,0c-2-6.7-5.9-13.9-11.2-21.9c0,0,0,0,0,0c-10.3-15.6-26-33.8-43.5-55.3    c-45.4-55.8-103.4-137.5-110.4-249.2c0,0,103.8,32.2,227.2,34.5C632.9,539.4,728.3,500.1,728.3,500.1z"></path>		</g>		<g class="st58">			<path class="st1" d="M620.8,602.9c-2-7.8-6.4-13.9-12.9-17.5c-7-3.9-15.9-4.8-26.5-2.7c-7.8,1.5-14.6,7.5-20.8,18.3    c-4.9,8.6-9.5,20.7-13.7,35.8c-1.6,5.7-3.1,11.9-4.6,18.6c-2.6-0.1-5.3-0.2-7.9-0.4c-7.4-0.6-14.3-1.9-20.7-3.7    c0.4-0.4,0.8-0.8,1.2-1.2c9.2-9.3,13.7-21.6,13.1-35.6c-1.2-25-17.8-38-33.7-38h-0.2c-7.8,0.1-15,3.2-20.3,8.8    c-5.7,6-8.9,14.5-9.2,24.5c-0.5,16.5,6.2,30.5,19.4,40.6c0.8,0.6,1.7,1.3,2.6,1.9c-6,1.6-12.7,2.3-19.9,2    c-6-0.2-11.8-0.7-17.3-1.4c-1-14.5-1.5-25.3-1.3-30.3c0.4-9.4-1.6-18.3-5.8-25.7c-4.1-7.1-10-12.4-16.7-14.9    c-10.6-4-21.5-0.7-29.2,8.9c-14.5,18.2-12.5,32.7-8.4,41.7c6.9,14.8,24.8,25.6,49.9,30.7c2.7,36,7.6,87.7,12,131.9    c0.8,8.3,1.6,16.3,2.4,23.9c0.8,7.9,1.6,15.4,2.3,22.3c0.3,2.6,0.5,5.2,0.8,7.6c0.1,1.2,0.2,2.3,0.3,3.4c1,9.4,1.8,17,2.3,22.3    c0.4,4.1,0.7,6.7,0.8,7.5c0.1,1.2,0.6,2.3,1.3,3.2c1.1,1.4,2.8,2.3,4.7,2.3c0.2,0,0.4,0,0.6,0c1.2-0.1,2.3-0.6,3.2-1.4    c1.5-1.3,2.4-3.2,2.2-5.4c0-0.2-0.2-1.9-0.5-5c-0.5-4.5-1.3-11.9-2.2-21.5c0-0.3-0.1-0.5-0.1-0.8c-0.4-3.4-0.7-7.1-1.1-11    c-0.7-6.8-1.5-14.3-2.3-22.3c-0.8-8.2-1.7-16.9-2.6-25.9c-4.3-43.1-9.1-93.6-11.8-129.2c5.1,0.6,10.4,1,16,1.2    c13.1,0.4,25-1.9,34.7-6.6c11.7,4.7,25.1,7.1,38.7,7.6c-3.9,20-7.4,43.4-10.4,70.2c-2.1,19-3.8,38.1-5.2,55.7    c-0.9,11.6-1.6,22.7-2.2,32.8c-0.5,8-0.9,15.3-1.2,21.9c-0.2,3.9-0.4,7.5-0.5,10.8c0,0,0,0.1,0,0.1c-0.6,13.3-0.8,21.3-0.8,21.6    c0,0.1,0,0.2,0,0.3c0,3.3,2.7,5.9,5.9,6h0.2c2.9,0,5.4-2,6-4.8c0.1-0.4,0.1-0.8,0.1-1.2c0-0.2,0.2-8,0.8-20.8    c0-1.1,0.1-2.1,0.1-3.3c0.1-2.4,0.2-4.9,0.4-7.6c0.3-6.6,0.7-13.9,1.2-21.9c0.6-10.3,1.4-21.7,2.3-33.8c1.3-17.4,3-36,5.1-54.7    c3.1-27.5,6.7-51.4,10.7-71.5c12.6-0.5,24.9-2.6,35.6-5.9C612.4,654.2,625.9,623.4,620.8,602.9z M421.5,645.6    c-11.3-4.7-18.9-11-22.3-18.2c-3.9-8.5-1.6-18.3,6.9-28.9c3.1-3.9,6.9-5.9,10.8-5.9c1.5,0,3,0.3,4.5,0.9    c7.6,2.9,15.4,13,14.6,28.6c-0.2,4.9,0.2,15.1,1.1,28.6C431.4,649.3,426.2,647.6,421.5,645.6z M500.5,646.2    c-3.3-1.6-6.3-3.5-9-5.5c-10.1-7.7-15-18-14.6-30.6c0.5-15.8,9.7-21.4,17.4-21.5h0.1c5,0,10,2.2,13.8,6.2    c4.6,4.8,7.3,11.8,7.7,20.2c0.5,10.5-2.8,19.7-9.6,26.5C504.6,643.2,502.6,644.8,500.5,646.2z M584.3,649.9    c-9.2,2.8-19.2,4.5-29.4,5.2c1.2-5.4,2.5-10.4,3.8-15.1c10.2-37.2,20.1-44.4,25.1-45.4c2.6-0.5,5.3-0.9,8-0.9    c7.6,0,14.8,2.7,17.2,12.1C612.7,620.8,601.8,644.6,584.3,649.9z"></path>		</g>		<g class="st2">			<path class="st59" d="M370.6,751.4c-45.4-55.8-103.4-137-110.4-248.7l55.3,13.2C309.8,590.4,333.8,652.1,370.6,751.4z"></path>		</g>		<g>			<g>				<path class="st57" d="M596.8,174c0,0-3.4,5.4-9.6,14.7c-19.9,30-68.5,100-125,157.5c-56.9,57.9-200.7,151.5-200.7,151.5     c-4.4-4-8.8-8.2-13.1-12.6c-81.9-82.7-137-223.6-36.6-330.9c0.8-0.8,1.5-1.6,2.4-2.5c100.4-105,252.1-112.3,364.2,1.7     c1.5,1.6,3,3.1,4.5,4.7C587.8,163.4,592.4,168.7,596.8,174z"></path>			</g>			<g class="st60">				<g>					<g>						<g>							<path class="st1" d="M360.9,110.8c-2.4,0.7-5.5,1.4-9,2.1c-3.4,0.7-7.2,1.5-11.2,2.5c-4,1-8.3,2.2-12.6,3.9        c-4.4,1.7-8.9,3.9-13.4,6.7l-0.1,0.1c-9.7,6.3-12.6,19.2-6.3,29c6.3,9.7,19.2,12.6,29,6.3c0.1,0,0.2-0.1,0.3-0.2        c3.1-2.1,7.7-3.9,13.6-5.4c2.9-0.8,6.1-1.5,9.7-2.3c3.6-0.8,7.4-1.6,11.9-3c11-3.3,17.3-14.8,14-25.8        c-3.2-10.9-14.7-17.2-25.6-14.1L360.9,110.8z"></path>						</g>					</g>				</g>				<g>					<g>						<g>							<path class="st1" d="M535.9,183.5c-6.4-8.4-13.3-16.6-20.9-24.3c-7.6-7.7-16-14.9-25-21.2c-9-6.4-18.7-11.9-28.6-16.4        c-10-4.6-20.2-8.1-30.4-11l0,0c-10.8-3-22,3.3-25,14.1c-3,10.8,3.3,21.9,14,25c17,4.9,32.6,11.9,46.4,21.8        c13.8,9.8,25.8,22.5,36.4,36.8l0,0.1c6.8,9.2,19.8,11.1,29,4.3c9.2-6.8,11.1-19.8,4.3-29L535.9,183.5z"></path>						</g>					</g>				</g>			</g>			<g class="st2">				<path class="st59" d="M214.1,151.8c8,160.7,37.3,254.5,87.7,315.3l-40.3,30.7c-4.4-4-8.8-8.2-13.1-12.6     c-81.9-82.7-137-223.6-36.6-330.9C212.5,153.4,213.3,152.6,214.1,151.8z"></path>			</g>		</g>		<g>			<ellipse class="st61" cx="263.8" cy="502.9" rx="29.8" ry="30.5"></ellipse>			<ellipse class="st62" cx="263.8" cy="502.9" rx="18" ry="18.4"></ellipse>		</g>		<g>			<path class="st64" d="M412,850.7c0,2.9,0.1,5.9,0.2,8.9c0.4,9.6,1,19.5,1.6,28.5c0.2,3.1,0.5,6,0.7,8.8    c1.1,13.8,2.2,23.8,2.2,23.8c0,1.7,0.1,3.4,0.2,5.1c0.2,3,0.5,5.9,1,8.8c0.7,3.9,1.6,7.7,2.8,11.5c1.4,4.4,3.2,8.5,5.3,12.5    c8.3,15.9,21.7,28.7,38,36.2c1.6,0.7,3.3,1.4,5,2.1c8.8,3.4,18.4,5.2,28.4,5.2l5.8,0c10.1,0,19.8-1.9,28.7-5.4    c4.8-1.9,9.5-4.2,13.8-6.9c18-11.3,31.2-29.6,36.1-51.1c0.7-3,1.2-6.1,1.5-9.2c0.3-2.9,0.5-5.9,0.5-8.9c0,0,0.1-1,0.1-2.9    c0.1-2.9,0.4-7.7,0.6-13.9c0.3-6.9,0.6-15.3,0.9-24.3c0.1-4.7,0.3-9.6,0.4-14.5c0.2-8.6,0.3-17.1,0.2-24.7    c0-4.9-0.1-9.4-0.3-13.2c-0.3-7.5-1-12.8-2.1-14.3c-5.4-7.1-156.3-7.3-167.1,0.2C412.6,815.8,411.6,831.8,412,850.7z"></path>			<path class="st65" d="M413.7,883.7c25.1-6.9,148.2-24.2,171.4-27.9c-0.2-3.1-0.5-6-0.7-8.8l-171,17.5    C413.3,869.2,412.8,876.8,413.7,883.7z"></path>			<path class="st65" d="M417.5,925.7c33.1-7.1,145.9-24.1,167.2-27.5c-0.2-3-0.5-5.9-1-8.8l-168.9,15.6    C414.6,908,415.7,918.9,417.5,925.7z"></path>			<path class="st66" d="M594.2,838.3l0.3,2.3c0.7,6.3-3.9,12-10.3,12.8l-167.9,19.5c-6.4,0.7-12.2-3.8-12.9-10.1l-0.3-2.3    c-0.7-6.3,3.9-12,10.3-12.8l167.9-19.5C587.7,827.4,593.5,832,594.2,838.3z"></path>			<path class="st66" d="M594.4,881l0.3,2.3c0.7,6.3-3.9,12-10.2,12.8l-166.2,19.3c-6.4,0.7-12.1-3.8-12.8-10.1l-0.3-2.3    c-0.7-6.3,3.9-12,10.2-12.8L581.6,871C587.9,870.2,593.7,874.7,594.4,881z"></path>			<path class="st65" d="M420.7,945.9c1.4,4.4,6.3,14.5,8.9,17.7c38.1-6.7,125.6-21.4,152.2-25.1c0.7-3,1.2-6.1,1.5-9.2L420.7,945.9    z"></path>			<path class="st66" d="M591.7,924l0.3,2.3c0.7,6.3-3.5,12-9.5,12.7l-155.9,18.1c-6,0.7-11.4-3.9-12.1-10.2l-0.3-2.3    c-0.7-6.3,3.5-12,9.5-12.7l155.9-18.1C585.5,913.2,591,917.7,591.7,924z"></path>		</g>		<path class="st1" d="M395.3,268.3c21.9-3.1,25-12.2,29-40.1c2.8,26.5,6.4,36.6,28.7,39.6c-19.4,7.6-26.2,10.3-29.6,41   C418.6,277.7,414.3,275,395.3,268.3z"></path>		<path class="st1" d="M753.3,578.7c21.9-3.1,25-12.2,29-40.1c2.8,26.5,6.4,36.6,28.7,39.6c-19.4,7.6-26.2,10.3-29.6,41   C776.6,588.1,772.3,585.4,753.3,578.7z"></path>		<path class="st1" d="M600.9,212c26.6-3.8,30.4-14.8,35.3-48.8c3.4,32.3,7.8,44.5,34.9,48.2c-23.6,9.2-31.9,12.5-36.1,49.9   C629.2,223.4,624.1,220.1,600.9,212z"></path>		<path class="st37" d="M164.3,995.9c0,6.3,153.9,13.6,331.3,13.6s321.2-5.1,321.2-11.4S673,986.8,495.7,986.8   S164.3,989.7,164.3,995.9z"></path>		<path class="st67" d="M728.5,499.7c-77.2-31.2-180-23.6-244-23.6c-64,0-225.2,15-224.2,26.2c1,11.2,54.3,113.2,118.3,113.2   s298.6-55.6,298.6-55.6L728.5,499.7z"></path>					<linearGradient id="SVGID_00000106113728479654125520000008526189739847350686_" gradientUnits="userSpaceOnUse" x1="721.3405" y1="337.4043" x2="904.9376" y2="337.4043">			<stop offset="0" style="stop-color:#212972"></stop>			<stop offset="0.9958" style="stop-color:#160661"></stop>		</linearGradient>		<path style="fill:url(#SVGID_00000106113728479654125520000008526189739847350686_);" d="M721.3,350.3c0,1.6,0.1,3.7,1,5.3   c0.9,1.6,2.5,2.7,5.5,2.8c5.7,0.1,6.4-2.7,13.9-1.9c7.5,0.8,21.5,9.7,26.3,9.5c4.4-0.2,112.7,16.4,133.1,12.4   c0.7-0.1,1.3-0.3,1.8-0.5c0.9-0.4,1.4-0.8,1.5-1.4c0.1-0.7,0.1-1.7,0.2-3c0.6-13.8,0.1-58.7-3.2-73.2c-0.7-2.9-1.4-4.6-2.3-4.5   c-0.7,0-2.2,0.3-4.3,0.8c-21.6,4.9-108.9,31.2-124.3,33.7c-16.4,2.6-23.1,13.4-27.8,13.9c-6.6,0.7-6-1.7-15.6-1.2   C722,343.3,721.3,348.3,721.3,350.3z"></path>		<path class="st45" d="M722.3,355.6c0.9,1.6,2.5,2.7,5.5,2.8c5.7,0.1,6.4-2.7,13.9-1.9c7.5,0.8,21.5,9.7,26.3,9.5   c4.4-0.2,112.7,16.4,133.1,12.4c-0.1-0.1-0.1-0.2-0.2-0.4c-0.9-1.6-1.9-3.2-2.8-4.8c-5.4-9.3-10.6-18.1-14.2-24.3   c-3.2-5.4-5.2-8.8-5.2-8.8c-0.8,1.2-2.6,2.4-5.3,3.4c-23.3,9.3-110.7,11.2-126.3,9.2C733.9,351,725.5,354.1,722.3,355.6z"></path>		<path class="st69" d="M873.4,340.2c0.9,16.4,8.2,29.5,17.7,35c3.6,2.1,7.4,3.1,11.4,2.8c12.1-0.9,21-19.4,19.8-42   c-1.2-22.5-10-41-22.2-40.5c-1.7,0.1-3.5,0.4-5.2,1.1l0,0c0,0,0,0,0,0c-2.7,1-5.3,2.8-7.8,5.1   C878.7,309.8,872.6,324.8,873.4,340.2z"></path>		<path class="st1" d="M882.5,338c0.9,18.3,9.8,36.6,19.7,36.1c9.8-0.5,16.9-19.6,15.9-37.9c-0.9-18.3-8.3-36.4-18.1-35.9   C890.2,300.8,881.6,319.7,882.5,338z"></path>		<path class="st47" d="M873.4,340.2c0.9,16.4,8.2,29.5,17.7,35c9.3,0.8,19.6,1.4,11.1-1.2c-13.9-4.1-13.8-28-14.1-37.3   c-0.3-9.4,4.4-23,13.5-36.4l-6.6-3.7l0,0c0,0,0,0,0,0c-0.2,0.2-3.8,2.4-7.8,5.1C878.7,309.8,872.6,324.8,873.4,340.2z"></path>		<path class="st48" d="M801.3,395.7c3.4-27.9,16.5-13.9,22.7-29.5c1-2.6-11.3-20.4-22-15.1c-10.6,5.3-18.9,21.2-20.3,29.3   c-1.5,8.1,8.1,12.6,11,12.6C795.5,392.9,801.3,395.7,801.3,395.7z"></path>		<path class="st48" d="M619.6,403.9l19.1,10.5c0,0,18.6,10,16.4,4.4c-3-7.5-0.5-13.4-1.1-18c-0.4-2.9,0-6.8,0.8-10.6   c1.3-6.7,3.5-13.1,3.5-13.1l0.8-1.5l-0.6-5.3l-1.7-15.5c0,0-15.7,2.4-19.5,11.2C633.8,374,621.6,394.5,619.6,403.9z"></path>		<path class="st49" d="M654.8,390.2c1.3-6.7,3.5-13.1,3.5-13.1l0.8-1.5l-0.6-5.3l-2-1.7c0,0-8.5,3.5-11.1,5.3   C641.8,376.4,644.1,389.6,654.8,390.2z"></path>		<path class="st1" d="M629.8,380.7c9.3,0.9,4.5,15.6,12.7,19.6c4.3,2.1,4.1-0.3,7.1-1.6c1.8-0.8,3.6-1.8,4.8,1.2   c24.3,60.6-62.9,154.8-60.6,164.7c1.8,8.1-38.9,8.1-58.9-6.2c-27.4-19.6-12.1-52.9-8.7-59.1c3.4-6.2,66.5-109.1,66.5-109.1   S611.4,387.8,629.8,380.7z"></path>		<path class="st50" d="M806.2,390.9c-1.2,3.1-28.9,93.8-64.9,91.2c-15.9-1.2-69.2-11.3-79.8-8c-8.1,2.5-19.8,15.3-21.8,24   c-1.6,7-3,13.9-4.4,18.8c-3.5,12.7-16,58.4-25.1,64.5c-12.2,8.1-43,8-46.5,0.6c-6-12.7,32.3-42.2,44.4-83.5   c9.3-31.9,30.3-44.6,37.2-71.3c5.2-20.2,9.1-27.2,9.1-27.2c39.6,37,72.6,42.8,84.5,43.2c15.2,0.5,30.9-61.7,37.2-63.5   C778.6,378.8,809.2,383.5,806.2,390.9z"></path>		<path class="st31" d="M806.2,390.9c-1.2,3.1-28.9,93.8-64.9,91.2c-15.9-1.2-69.2-11.3-79.8-8c-8.1,2.5-19.8,15.3-21.8,24   c-1.6,7-3,13.9-4.4,18.8c-3.5,12.7-16,58.4-25.1,64.5c-12.2,8.1-43,8-46.5,0.6c-6-12.7,32.3-42.2,44.4-83.5   c9.3-31.9,30.3-44.6,37.2-71.3c5.2-20.2,9.1-27.2,9.1-27.2c39.6,37,72.6,42.8,84.5,43.2c15.2,0.5,30.9-61.7,37.2-63.5   C778.6,378.8,809.2,383.5,806.2,390.9z"></path>		<path class="st32" d="M474.7,560.3c-2.1,17.3,43.5,15.7,60.2,7.6c13.8-6.7,9.4-24.2,26.2-46c8.5-11,22.4-30.2,30.8-46   c0.8-1.6,1.6-3.1,2.3-4.6c6-12.4,11.8-26.1,17-39c2.3-5.9,4.5-11.6,6.5-17c1.3-3.5,2.5-6.8,3.6-9.9c4.2-11.6,7.2-20.7,8.4-24.7   c0,0-21.3-7.8-46,4.1c-2.8,1.3-7.5,3.6-10.6,6.9c-2.6,2.7-14.8,14.4-21.9,30c-8.5,18.8-13.7,32.9-18.5,44.4   c-5.2,12.7-13.7,23.1-22.3,43.3C502.9,527.5,475.8,551.3,474.7,560.3z"></path>		<path class="st32" d="M590.5,411.8c-2.1,5-4.3,66-6,76.8c0.8-1.6,9-15.8,9.8-17.2c6-12.4,11.8-26.1,17-39L590.5,411.8z"></path>		<g>			<path class="st48" d="M671.4,341.6c2.3,8,14.2,21.9,8.7,23c-5.5,1.1,4.9,17-1,18.4c-14.2,3.4-32.3-2.2-35.6-8.7    c-3.2-6.5-6-25.9-6-25.9L671.4,341.6z"></path>			<path class="st32" d="M658.2,352.5c4.6-0.4,4.9,0.6,7.8-1.5c2.8-2.2-3.5-5.4,2.2-7.6s12.1-3.9,11.3-10.7c-1-9.9-9.4-6.6-14.5-4.4    c-3.3,1.4-5.6-5.8-12.4-4.1c-5.3,1.4-4.1,4.4-8.8,5.8c-2.8,0.9-9.4-2.7-13.2,1.7c-7.1,8.2,1.5,14.7-4.1,23    c-6.5,9.7,15.7,23,17.4,20.5c2.1-2.9-3.3-10.5-1.1-13c3.3-3.7,4.4-0.5,8.3,1.9c4.1,2.6,10.6,1.4,5.2-4    C651,354.4,654.1,352.8,658.2,352.5z"></path>		</g>					<linearGradient id="SVGID_00000131325187355512170640000015566483693866916484_" gradientUnits="userSpaceOnUse" x1="670.3978" y1="337.9026" x2="853.9955" y2="337.9026">			<stop offset="0" style="stop-color:#212972"></stop>			<stop offset="0.9958" style="stop-color:#160661"></stop>		</linearGradient>		<path style="fill:url(#SVGID_00000131325187355512170640000015566483693866916484_);" d="M670.4,350.8c0,1.6,0.1,3.7,1,5.3   c0.9,1.6,2.5,2.7,5.5,2.8c5.7,0.1,6.4-2.7,13.9-1.9c7.5,0.8,21.5,9.7,26.3,9.5c4.4-0.2,112.7,16.4,133.1,12.4   c0.7-0.1,1.3-0.3,1.8-0.5c0.9-0.4,1.4-0.8,1.5-1.4c0.1-0.7,0.1-1.7,0.2-3c0.6-13.7,0.1-58.7-3.2-73.2c-0.7-2.9-1.4-4.6-2.3-4.5   c-0.7,0-2.2,0.3-4.3,0.8c-21.6,4.9-108.9,31.2-124.3,33.7c-16.4,2.6-23.1,13.4-27.8,13.9c-6.6,0.7-6-1.7-15.6-1.2   c-2.6,0.1-4,1.4-4.8,2.9C670.6,348,670.4,349.8,670.4,350.8z"></path>		<path class="st45" d="M671.4,356.1c0.9,1.6,2.5,2.7,5.5,2.8c5.7,0.1,6.4-2.7,13.9-1.9c7.5,0.8,21.5,9.7,26.3,9.5   c4.4-0.2,112.7,16.4,133.1,12.4c-0.1-0.1-0.1-0.2-0.2-0.4c-0.9-1.6-1.9-3.2-2.8-4.8c-5.4-9.3-10.6-18.1-14.2-24.3   c-3.2-5.4-5.2-8.8-5.2-8.8c-0.8,1.2,4.3,15.5,1.7,16.6c-23.3,9.3-117.7-1.9-133.3-4C683,351.5,674.6,354.6,671.4,356.1z"></path>					<linearGradient id="SVGID_00000099637315419043830280000013711341635595073678_" gradientUnits="userSpaceOnUse" x1="670.3978" y1="328.7651" x2="837.8953" y2="328.7651">			<stop offset="0" style="stop-color:#212972"></stop>			<stop offset="0.9958" style="stop-color:#160661"></stop>		</linearGradient>		<path style="fill:url(#SVGID_00000099637315419043830280000013711341635595073678_);" d="M670.4,350.8   c3.8,4,143.2-23.3,158.1-25.9l9.4-18.6c0,0-137.4,39.1-143.3,40.3c-5.9,1.2-16.5,0.5-21,0c-0.8-0.1-1.6-0.1-2.2-0.1   C670.6,348,670.4,349.8,670.4,350.8z"></path>		<g>			<path class="st69" d="M822.4,340.7c0.9,16.4,8.2,29.5,17.7,35c3.6,2.1,7.4,3.1,11.4,2.8c12.1-0.9,21-19.4,19.8-42    c-1.2-22.5-10-41-22.2-40.5c-1.7,0.1-3.5,0.4-5.2,1.1l0,0c0,0,0,0,0,0c-2.7,1-5.3,2.8-7.8,5.1    C827.7,310.3,821.6,325.3,822.4,340.7z"></path>			<path class="st1" d="M831.6,338.5c0.9,18.3,9.8,36.6,19.7,36.1s16.9-19.6,15.9-37.9c-0.9-18.3-8.3-36.4-18.1-35.9    C839.3,301.3,830.7,320.2,831.6,338.5z"></path>		</g>		<path class="st69" d="M822.4,340.7c0.9,16.4,8.2,29.5,17.7,35c9.3,0.8,19.6,1.4,11.1-1.2c-13.9-4.1-13.8-28-14.1-37.3   c-0.3-9.4,4.4-23,13.5-36.4l-6.6-3.7l0,0c0,0,0,0,0,0c-0.2,0.2-3.8,2.4-7.8,5.1C827.7,310.3,821.6,325.3,822.4,340.7z"></path>		<path class="st48" d="M731.4,381.8c1-3.3,14.5-8.5,13.8-11.1c-1.2-4.8-8.2-0.7-9.2-8.9c-0.8-6.4,12.1-14.4,4.8-17.7   c-16.9-7.7-26.7,4.8-25,20.5c1.3,12.2-6.6,19.3-7.9,29.6c-1.3,10.3,21.4,2.8,21.4,2.8S729.5,388,731.4,381.8z"></path>		<path class="st32" d="M617.4,384.3c34.8,40,63.5,147.8,89.8-0.7c0.6-3.6,31-4.5,30.3,1c-30.9,238.7-139.4,51.5-154.7,33.9   c-6.5-7.5,2-38.1,15.4-35.9C611.5,384.8,617.4,384.3,617.4,384.3z"></path>		<g>			<path class="st53" d="M640,401.7c-0.8-0.8-14.2,16.5-28.6,20.3c-4,1.1-8.1,1.5-12.2,1c-12.1-1.6-44.1-8.7-44.1-8.7    s5.5-9.3,12.1-14.3c10.2,5.5,26.6,10.2,33,10.7c4.7,0.4,9.3-0.1,13.7-1.1c8.2-1.9,15.6-5.5,21.3-8.9c2.9-1.7,3.9-4.9,6.9-4.5    C646.2,396.8,641.1,402.7,640,401.7z"></path>			<path class="st35" d="M646.8,396.1c0-1.7-1-4.5-4.6-4.6c-2.7-0.1-3,1-5.3,2.8c-7.1,5.4-17.6,11.9-29.5,12.4    c-11.9,0.5-38-16.9-55.7-14.2c-17.8,2.6-24.2,18-49.8,20.4c-25.6,2.3-52.1-10.2-59.7-9.4c-7.6,0.8-12.2,2.1-12.2,5.1    c0,3,3.4,8.1,8.5,10.6c5.1,2.4,51.1,8.7,63.4,7.8c20.1-1.4,38.4-18.2,51.3-18.5c5.4-0.1,13.3,1.4,21.7,3.3    c11.5,2.5,24.1,5.7,32.9,5.8c16.8,0.2,31.8-18.5,32.9-17.6c1.1,0.8,2,1.6,4.2,1.2C646.5,400.7,646.8,397.8,646.8,396.1z"></path>		</g>		<g>							<linearGradient id="SVGID_00000032616859108708168090000013767648738403073420_" gradientUnits="userSpaceOnUse" x1="260.2974" y1="688.6896" x2="728.4641" y2="688.6896">				<stop offset="0" style="stop-color:#212972"></stop>				<stop offset="0.9958" style="stop-color:#160661"></stop>			</linearGradient>			<path style="fill:url(#SVGID_00000032616859108708168090000013767648738403073420_);" d="M728.5,499.7    c-11,137.7-113.3,237.2-144.5,304.5c0,0,0,0,0,0c-6.3,13.7-9.8,26.2-9.1,37.9c0,0.4,0,0.8,0,1.2c0,0,0,0,0,0    c0.1,10.3-6.6,18.3-17.2,24c0,0,0,0,0,0c-5.5,2.9-11.9,5.2-19.1,6.9c-2,0.5-4.1,0.9-6.2,1.3c-2.5,0.5-5,0.8-7.6,1.1h0l-0.1,0    c-0.2,0-0.3,0-0.5,0.1c-20,2.4-42.5,0.6-60.8-5.4c-0.9-0.3-1.9-0.6-2.8-0.9c-0.3-0.1-0.7-0.3-1-0.4h0c0,0,0,0,0,0    c-4-1.5-7.8-3.2-11.2-5c-0.3-0.2-0.7-0.4-1-0.5c-0.6-0.4-1.3-0.7-1.9-1.1c-0.3-0.2-0.6-0.4-0.9-0.6c-0.3-0.2-0.6-0.4-0.9-0.6    c-0.1,0-0.1-0.1-0.2-0.1c-0.5-0.3-1-0.7-1.4-1c0,0-0.1-0.1-0.1-0.1c-0.3-0.2-0.6-0.4-0.8-0.6c-0.2-0.2-0.4-0.3-0.6-0.5    c-0.3-0.3-0.7-0.5-1-0.8c-0.4-0.4-0.9-0.7-1.3-1.1c0,0-0.1-0.1-0.1-0.1c-0.2-0.2-0.4-0.3-0.6-0.5c0,0-0.1-0.1-0.1-0.1    c-0.2-0.1-0.3-0.3-0.5-0.4c-0.6-0.6-1.2-1.2-1.8-1.9c-4.8-5.3-7.7-11.5-8.1-18.7c-0.1-2.6-0.6-5.3-1.5-8c0,0,0,0,0,0    c-2-6.7-5.9-13.9-11.2-21.9c0,0,0,0,0,0c-10.3-15.6-26-33.8-43.5-55.3c-45.4-55.8-103.4-137.5-110.4-249.2    c0,0,103.8,32.2,227.2,34.5C633,538.9,728.5,499.7,728.5,499.7z"></path>		</g>		<g>			<path class="st1" d="M620.9,602.4c-2-7.8-6.4-13.9-12.9-17.5c-7-3.9-15.9-4.8-26.5-2.7c-7.8,1.5-14.6,7.5-20.8,18.3    c-4.9,8.6-9.5,20.7-13.7,35.8c-1.6,5.7-3.1,11.9-4.6,18.6c-2.6-0.1-5.3-0.2-7.9-0.4c-7.4-0.6-14.3-1.9-20.7-3.7    c0.4-0.4,0.8-0.8,1.2-1.2c9.2-9.3,13.7-21.6,13.1-35.6c-1.2-25-17.8-38-33.7-38h-0.2c-7.8,0.1-15,3.2-20.3,8.8    c-5.7,6-8.9,14.5-9.2,24.5c-0.5,16.5,6.2,30.5,19.4,40.6c0.8,0.6,1.7,1.3,2.6,1.9c-6,1.6-12.7,2.3-19.9,2    c-6-0.2-11.8-0.7-17.3-1.4c-1-14.5-1.5-25.3-1.3-30.3c0.4-9.4-1.6-18.3-5.8-25.7c-4.1-7.1-10-12.4-16.7-14.9    c-10.6-4-21.5-0.7-29.2,8.9c-14.5,18.2-12.5,32.7-8.4,41.7c6.9,14.8,24.8,25.6,49.9,30.7c2.7,36,7.6,87.7,12,131.9    c0.8,8.3,1.6,16.3,2.4,23.9c0.8,7.9,1.6,15.4,2.3,22.3c0.3,2.6,0.5,5.2,0.8,7.6c0.1,1.2,0.2,2.3,0.3,3.4c1,9.4,1.8,17,2.3,22.3    c0.4,4.1,0.7,6.7,0.8,7.5c0.1,1.2,0.6,2.3,1.3,3.2c1.1,1.4,2.8,2.3,4.7,2.3c0.2,0,0.4,0,0.6,0c1.2-0.1,2.3-0.6,3.2-1.4    c1.5-1.3,2.4-3.2,2.2-5.4c0-0.2-0.2-1.9-0.5-5c-0.5-4.5-1.3-11.9-2.2-21.5c0-0.3-0.1-0.5-0.1-0.8c-0.4-3.4-0.7-7.1-1.1-11    c-0.7-6.8-1.5-14.3-2.3-22.3c-0.8-8.2-1.7-16.9-2.6-25.9c-4.3-43.1-9.1-93.6-11.8-129.2c5.1,0.6,10.4,1,16,1.2    c13.1,0.4,25-1.9,34.7-6.6c11.7,4.7,25.1,7.1,38.7,7.6c-3.9,20-7.4,43.4-10.4,70.2c-2.1,19-3.8,38.1-5.2,55.7    c-0.9,11.6-1.6,22.7-2.2,32.8c-0.5,8-0.9,15.3-1.2,21.9c-0.2,3.9-0.4,7.5-0.5,10.8c0,0,0,0.1,0,0.1c-0.6,13.3-0.8,21.3-0.8,21.6    c0,0.1,0,0.2,0,0.3c0,3.3,2.7,5.9,5.9,6h0.2c2.9,0,5.4-2,6-4.8c0.1-0.4,0.1-0.8,0.1-1.2c0-0.2,0.2-8,0.8-20.8    c0-1.1,0.1-2.1,0.1-3.3c0.1-2.4,0.2-4.9,0.4-7.6c0.3-6.6,0.7-13.9,1.2-21.9c0.6-10.3,1.4-21.7,2.3-33.8c1.3-17.4,3-36,5.1-54.7    c3.1-27.5,6.7-51.4,10.7-71.5c12.6-0.5,24.9-2.6,35.6-5.9C612.5,653.7,626.1,622.9,620.9,602.4z M421.6,645.2    c-11.3-4.7-18.9-11-22.3-18.2c-3.9-8.5-1.6-18.3,6.9-28.9c3.1-3.9,6.9-5.9,10.8-5.9c1.5,0,3,0.3,4.5,0.9    c7.6,2.9,15.4,13,14.6,28.6c-0.2,4.9,0.2,15.1,1.1,28.6C431.6,648.8,426.3,647.2,421.6,645.2z M500.7,645.8    c-3.3-1.6-6.3-3.5-9-5.5c-10.1-7.7-15-18-14.6-30.6c0.5-15.8,9.7-21.4,17.4-21.5h0.1c5,0,10,2.2,13.8,6.2    c4.6,4.8,7.3,11.8,7.7,20.2c0.5,10.5-2.8,19.7-9.6,26.5C504.7,642.8,502.8,644.4,500.7,645.8z M584.4,649.5    c-9.2,2.8-19.2,4.5-29.4,5.2c1.2-5.4,2.5-10.4,3.8-15.1c10.2-37.2,20.1-44.4,25.1-45.4c2.6-0.5,5.3-0.9,8-0.9    c7.6,0,14.8,2.7,17.2,12.1C612.8,620.4,602,644.2,584.4,649.5z"></path>		</g>		<g>							<linearGradient id="SVGID_00000150069371380898818600000014807612272715030687_" gradientUnits="userSpaceOnUse" x1="260.2974" y1="626.564" x2="370.7144" y2="626.564">				<stop offset="0" style="stop-color:#212972"></stop>				<stop offset="0.9958" style="stop-color:#160661"></stop>			</linearGradient>			<path style="fill:url(#SVGID_00000150069371380898818600000014807612272715030687_);" d="M370.7,750.9    c-45.4-55.8-103.4-137-110.4-248.7l55.3,13.2C309.9,589.9,333.9,651.7,370.7,750.9z"></path>		</g>		<g>							<linearGradient id="SVGID_00000081632989994251236890000003125553271798983078_" gradientUnits="userSpaceOnUse" x1="157.7647" y1="283.6929" x2="596.9532" y2="283.6929">				<stop offset="0" style="stop-color:#212972"></stop>				<stop offset="0.9958" style="stop-color:#160661"></stop>			</linearGradient>			<path style="fill:url(#SVGID_00000081632989994251236890000003125553271798983078_);" d="M597,173.6c0,0-3.4,5.4-9.6,14.7    c-19.9,30-68.5,100-125,157.5c-56.9,57.9-200.7,151.5-200.7,151.5c-4.4-4-8.8-8.2-13.1-12.6c-81.9-82.7-137-223.6-36.6-330.9    c0.8-0.8,1.5-1.6,2.4-2.5c100.4-105,252.1-112.3,364.2,1.7c1.5,1.6,3,3.1,4.5,4.7C587.9,162.9,592.6,168.2,597,173.6z"></path>		</g>		<g>			<g>				<g>					<g>						<path class="st1" d="M361,110.4c-2.4,0.7-5.5,1.4-9,2.1c-3.4,0.7-7.2,1.5-11.2,2.5c-4,1-8.3,2.2-12.6,3.9       c-4.4,1.7-8.9,3.9-13.4,6.7l-0.1,0.1c-9.7,6.3-12.6,19.2-6.3,29c6.3,9.7,19.2,12.6,29,6.3c0.1,0,0.2-0.1,0.3-0.2       c3.1-2.1,7.7-3.9,13.6-5.4c2.9-0.8,6.1-1.5,9.7-2.3c3.6-0.8,7.4-1.6,11.9-3c11-3.3,17.3-14.8,14-25.8       c-3.2-10.9-14.7-17.2-25.6-14.1L361,110.4z"></path>					</g>				</g>			</g>			<g>				<g>					<g>						<path class="st1" d="M536,183.1c-6.4-8.4-13.3-16.6-20.9-24.3c-7.6-7.7-16-14.9-25-21.2c-9-6.4-18.7-11.9-28.6-16.4       c-10-4.6-20.2-8.1-30.4-11l0,0c-10.8-3-22,3.3-25,14.1c-3,10.8,3.3,21.9,14,25c17,4.9,32.6,11.9,46.4,21.8       c13.8,9.8,25.8,22.5,36.4,36.8l0,0.1c6.8,9.2,19.8,11.1,29,4.3c9.2-6.8,11.1-19.8,4.3-29L536,183.1z"></path>					</g>				</g>			</g>		</g>		<g>							<linearGradient id="SVGID_00000052090019288025432600000004488480169151572384_" gradientUnits="userSpaceOnUse" x1="157.7646" y1="324.3386" x2="301.9347" y2="324.3386">				<stop offset="0" style="stop-color:#212972"></stop>				<stop offset="0.9958" style="stop-color:#160661"></stop>			</linearGradient>			<path style="fill:url(#SVGID_00000052090019288025432600000004488480169151572384_);" d="M214.3,151.3    c8,160.7,37.3,254.5,87.7,315.3l-40.3,30.7c-4.4-4-8.8-8.2-13.1-12.6c-81.9-82.7-137-223.6-36.6-330.9    C212.7,153,213.4,152.2,214.3,151.3z"></path>		</g>		<g>			<ellipse class="st35" cx="263.9" cy="502.5" rx="29.8" ry="30.5"></ellipse>			<ellipse class="st41" cx="263.9" cy="502.5" rx="18" ry="18.4"></ellipse>		</g>		<path class="st32" d="M412.1,850.2c0,2.9,0.1,5.9,0.2,8.9c0.4,9.6,1,19.5,1.6,28.5c0.2,3.1,0.5,6,0.7,8.8   c1.1,13.8,2.2,23.8,2.2,23.8c0,1.7,0.1,3.4,0.2,5.1c0.2,3,0.5,5.9,1,8.8c0.7,3.9,1.6,7.7,2.8,11.5c1.4,4.4,3.2,8.5,5.3,12.5   c8.3,15.9,21.7,28.7,38,36.2c1.6,0.7,3.3,1.4,5,2.1c8.8,3.4,18.4,5.2,28.4,5.2l5.8,0c10.1,0,19.8-1.9,28.7-5.4   c4.8-1.9,9.5-4.2,13.8-6.9c18-11.3,31.2-29.6,36.1-51.1c0.7-3,1.2-6.1,1.5-9.2c0.3-2.9,0.5-5.9,0.5-8.9c0,0,0.1-1,0.1-2.9   c0.1-2.9,0.4-7.7,0.6-13.9c0.3-6.9,0.6-15.3,0.9-24.3c0.1-4.7,0.3-9.6,0.4-14.5c0.2-8.6,0.3-17.1,0.2-24.7c0-4.9-0.1-9.4-0.3-13.2   c-0.3-7.5-1-12.8-2.1-14.3c-5.4-7.1-156.3-7.3-167.1,0.2C412.8,815.3,411.8,831.3,412.1,850.2z"></path>		<path class="st65" d="M413.8,883.3c25.1-6.9,148.2-24.2,171.4-27.9c-0.2-3.1-0.5-6-0.7-8.8l-171,17.5   C413.5,868.7,412.9,876.4,413.8,883.3z"></path>		<path class="st65" d="M417.7,925.3c33.1-7.1,145.9-24.1,167.2-27.5c-0.2-3-0.5-5.9-1-8.8l-168.9,15.6   C414.7,907.6,415.9,918.4,417.7,925.3z"></path>		<path class="st1" d="M594.4,837.8l0.3,2.3c0.7,6.3-3.9,12-10.3,12.8l-167.9,19.5c-6.4,0.7-12.2-3.8-12.9-10.1l-0.3-2.3   c-0.7-6.3,3.9-12,10.3-12.8l167.9-19.5C587.9,827,593.7,831.5,594.4,837.8z"></path>		<path class="st1" d="M594.5,880.6l0.3,2.3c0.7,6.3-3.9,12-10.2,12.8L418.4,915c-6.4,0.7-12.1-3.8-12.8-10.1l-0.3-2.3   c-0.7-6.3,3.9-12,10.2-12.8l166.2-19.3C588.1,869.8,593.8,874.3,594.5,880.6z"></path>		<path class="st65" d="M420.8,945.5c1.4,4.4,6.3,14.5,8.9,17.7c38.1-6.7,125.6-21.4,152.2-25.1c0.7-3,1.2-6.1,1.5-9.2L420.8,945.5z   "></path>		<path class="st1" d="M591.8,923.6l0.3,2.3c0.7,6.3-3.5,12-9.5,12.7l-155.9,18.1c-6,0.7-11.4-3.9-12.1-10.2l-0.3-2.3   c-0.7-6.3,3.5-12,9.5-12.7l155.9-18.1C585.7,912.7,591.1,917.3,591.8,923.6z"></path>		<path class="st1" d="M395.5,267.9c21.9-3.1,25-12.2,29-40.1c2.8,26.5,6.4,36.6,28.7,39.6c-19.4,7.6-26.2,10.3-29.6,41   C418.7,277.3,414.5,274.5,395.5,267.9z"></path>		<path class="st76" d="M753.4,578.3c21.9-3.1,25-12.2,29-40.1c2.8,26.5,6.4,36.6,28.7,39.6c-19.4,7.6-26.2,10.3-29.6,41   C776.7,587.7,772.5,585,753.4,578.3z"></path>		<path class="st76" d="M601.1,211.5c26.6-3.8,30.4-14.8,35.3-48.8c3.4,32.3,7.8,44.5,34.9,48.2c-23.6,9.2-31.9,12.5-36.1,49.9   C629.4,223,624.2,219.6,601.1,211.5z"></path>	</g></g><g id="Layer_5"></g><g id="Layer_3"></g><g id="Layer_4"></g></svg>