<svg xmlns="http://www.w3.org/2000/svg" id="Layer_1" data-name="Layer 1" viewBox="0 0 476 475.97"><defs><style> .cls-1 {        fill: #0050af;      }      .cls-1, .cls-2, .cls-3 {        stroke-width: 0px;      }      .cls-2 {        fill: #0d6efd;      }      .cls-3 {        fill: #fff;      } </style></defs><g id="Layer_23" data-name="Layer 23"><rect class="cls-2" x="7.21" y="7.21" width="375.01" height="115.39" rx="28.59" ry="28.59"/><rect class="cls-2" x="7.21" y="151.45" width="375.01" height="115.39" rx="28.59" ry="28.59"/><rect class="cls-2" x="7.21" y="295.68" width="375.01" height="115.39" rx="28.59" ry="28.59"/><g><circle class="cls-2" cx="64.91" cy="64.91" r="28.85"/><circle class="cls-2" cx="64.91" cy="209.14" r="28.85"/><circle class="cls-2" cx="64.91" cy="353.37" r="28.85"/><path class="cls-2" d="m468.76,317.31c.05-51.78-41.88-93.79-93.66-93.84-51.78-.05-93.79,41.88-93.84,93.66-.04,39.61,24.82,74.97,62.11,88.34l10.01,20.02v14.42l7.21,7.21h28.85l7.21-7.21v-14.42l17.18-22.91c33.44-15.2,54.92-48.53,54.93-85.26Z"/></g></g><g id="Layer_25" data-name="Layer 25"><path class="cls-3" d="m64.91,28.85c-19.91,0-36.06,16.14-36.06,36.06s16.14,36.06,36.06,36.06,36.06-16.14,36.06-36.06c-.02-19.9-16.15-36.04-36.06-36.06Zm0,57.69c-11.95,0-21.64-9.69-21.64-21.64s9.69-21.64,21.64-21.64,21.64,9.69,21.64,21.64c-.01,11.94-9.69,21.62-21.64,21.64Z"/><path class="cls-3" d="m338.95,57.69h7.21c3.98,0,7.21-3.23,7.21-7.21s-3.23-7.21-7.21-7.21h-7.21c-3.98,0-7.21,3.23-7.21,7.21s3.23,7.21,7.21,7.21Z"/><path class="cls-3" d="m310.1,43.27h-7.21c-3.98,0-7.21,3.23-7.21,7.21s3.23,7.21,7.21,7.21h7.21c3.98,0,7.21-3.23,7.21-7.21s-3.23-7.21-7.21-7.21Z"/><path class="cls-3" d="m274.04,43.27h-7.21c-3.98,0-7.21,3.23-7.21,7.21s3.23,7.21,7.21,7.21h7.21c3.98,0,7.21-3.23,7.21-7.21s-3.23-7.21-7.21-7.21Z"/><path class="cls-3" d="m237.99,43.27h-7.21c-3.98,0-7.21,3.23-7.21,7.21s3.23,7.21,7.21,7.21h7.21c3.98,0,7.21-3.23,7.21-7.21s-3.23-7.21-7.21-7.21Z"/><path class="cls-3" d="m346.16,72.12h-7.21c-3.98,0-7.21,3.23-7.21,7.21s3.23,7.21,7.21,7.21h7.21c3.98,0,7.21-3.23,7.21-7.21s-3.23-7.21-7.21-7.21Z"/><path class="cls-3" d="m310.1,72.12h-7.21c-3.98,0-7.21,3.23-7.21,7.21s3.23,7.21,7.21,7.21h7.21c3.98,0,7.21-3.23,7.21-7.21s-3.23-7.21-7.21-7.21Z"/><path class="cls-3" d="m274.04,72.12h-7.21c-3.98,0-7.21,3.23-7.21,7.21s3.23,7.21,7.21,7.21h7.21c3.98,0,7.21-3.23,7.21-7.21s-3.23-7.21-7.21-7.21Z"/><path class="cls-3" d="m237.99,72.12h-7.21c-3.98,0-7.21,3.23-7.21,7.21s3.23,7.21,7.21,7.21h7.21c3.98,0,7.21-3.23,7.21-7.21s-3.23-7.21-7.21-7.21Z"/><path class="cls-3" d="m28.85,209.14c0,19.91,16.14,36.06,36.06,36.06s36.06-16.14,36.06-36.06-16.14-36.06-36.06-36.06c-19.9.02-36.04,16.15-36.06,36.06Zm57.69,0c0,11.95-9.69,21.64-21.64,21.64s-21.64-9.69-21.64-21.64,9.69-21.64,21.64-21.64c11.94.01,21.62,9.69,21.64,21.64Z"/><path class="cls-3" d="m338.95,187.5c-3.98,0-7.21,3.23-7.21,7.21s3.23,7.21,7.21,7.21h7.21c3.98,0,7.21-3.23,7.21-7.21s-3.23-7.21-7.21-7.21h-7.21Z"/><path class="cls-3" d="m310.1,187.5h-7.21c-3.98,0-7.21,3.23-7.21,7.21s3.23,7.21,7.21,7.21h7.21c3.98,0,7.21-3.23,7.21-7.21s-3.23-7.21-7.21-7.21Z"/><path class="cls-3" d="m274.04,187.5h-7.21c-3.98,0-7.21,3.23-7.21,7.21s3.23,7.21,7.21,7.21h7.21c3.98,0,7.21-3.23,7.21-7.21s-3.23-7.21-7.21-7.21Z"/><path class="cls-3" d="m237.99,187.5h-7.21c-3.98,0-7.21,3.23-7.21,7.21s3.23,7.21,7.21,7.21h7.21c3.98,0,7.21-3.23,7.21-7.21s-3.23-7.21-7.21-7.21Z"/><path class="cls-3" d="m310.1,216.35h-7.21c-3.98,0-7.21,3.23-7.21,7.21s3.23,7.21,7.21,7.21h7.21c3.98,0,7.21-3.23,7.21-7.21s-3.23-7.21-7.21-7.21Z"/><path class="cls-3" d="m274.04,216.35h-7.21c-3.98,0-7.21,3.23-7.21,7.21s3.23,7.21,7.21,7.21h7.21c3.98,0,7.21-3.23,7.21-7.21s-3.23-7.21-7.21-7.21Z"/><path class="cls-3" d="m237.99,216.35h-7.21c-3.98,0-7.21,3.23-7.21,7.21s3.23,7.21,7.21,7.21h7.21c3.98,0,7.21-3.23,7.21-7.21s-3.23-7.21-7.21-7.21Z"/><path class="cls-3" d="m36.06,418.28h271.81c3.98,0,7.21-3.23,7.21-7.21s-3.23-7.21-7.21-7.21H36.06c-11.94-.01-21.62-9.69-21.64-21.64v-57.69c.01-11.94,9.69-21.62,21.64-21.64h225.65c3.98,0,7.21-3.23,7.21-7.21s-3.23-7.21-7.21-7.21H57.69v-14.42h213.61c3.98,0,7.21-3.23,7.21-7.21s-3.23-7.21-7.21-7.21H36.06c-11.94-.01-21.62-9.69-21.64-21.64v-57.69c.01-11.94,9.69-21.62,21.64-21.64h317.31c11.94.01,21.62,9.69,21.64,21.64v21.92c0,3.98,3.23,7.21,7.21,7.21s7.21-3.23,7.21-7.21v-21.92c-.02-19.9-16.15-36.04-36.06-36.06h-7.21v-14.42h7.21c19.9-.02,36.04-16.15,36.06-36.06v-57.69c-.02-19.9-16.15-36.04-36.06-36.06H36.06C16.15.02.02,16.15,0,36.06v57.69c.02,19.9,16.15,36.04,36.06,36.06h7.21v14.42h-7.21c-19.9.02-36.04,16.15-36.06,36.06v57.69c.02,19.9,16.15,36.04,36.06,36.06h7.21v14.42h-7.21c-19.9.02-36.04,16.15-36.06,36.06v57.69c.02,19.9,16.15,36.04,36.06,36.06Zm0-302.89c-11.94-.01-21.62-9.69-21.64-21.64v-57.69c.01-11.94,9.69-21.62,21.64-21.64h317.31c11.94.01,21.62,9.69,21.64,21.64v57.69c-.01,11.94-9.69,21.62-21.64,21.64H36.06Zm21.64,14.42h274.04v14.42H57.69v-14.42Z"/><path class="cls-3" d="m28.85,353.37c0,19.91,16.14,36.06,36.06,36.06s36.06-16.14,36.06-36.06-16.14-36.06-36.06-36.06c-19.9.02-36.04,16.15-36.06,36.06Zm57.69,0c0,11.95-9.69,21.64-21.64,21.64s-21.64-9.69-21.64-21.64,9.69-21.64,21.64-21.64c11.94.01,21.62,9.69,21.64,21.64Z"/><path class="cls-3" d="m237.99,331.74h-7.21c-3.98,0-7.21,3.23-7.21,7.21s3.23,7.21,7.21,7.21h7.21c3.98,0,7.21-3.23,7.21-7.21s-3.23-7.21-7.21-7.21Z"/><path class="cls-3" d="m237.99,360.59h-7.21c-3.98,0-7.21,3.23-7.21,7.21s3.23,7.21,7.21,7.21h7.21c3.98,0,7.21-3.23,7.21-7.21s-3.23-7.21-7.21-7.21Z"/><path class="cls-1" d="m442.32,242.06c-41.52-37.2-105.34-33.69-142.54,7.84-37.2,41.52-33.69,105.34,7.84,142.54,7.1,6.36,15.07,11.69,23.67,15.82,8.89,3.98,14.68,12.74,14.87,22.48v1.97c.01,11.94,9.69,21.62,21.64,21.64h14.42c11.94-.01,21.62-9.69,21.64-21.64v-1.45c-.18-9.49,5.13-18.22,13.64-22.42,50.56-23.43,72.55-83.41,49.12-133.96-5.78-12.47-14.05-23.64-24.3-32.8h0Zm-30.9,153.68c-13.59,6.58-22.16,20.41-21.99,35.51v1.45c0,3.98-3.23,7.21-7.21,7.21h-14.42c-3.98,0-7.21-3.23-7.21-7.21v-1.97c-.15-15.29-9.13-29.12-23.04-35.48-43.07-20.66-61.23-72.33-40.57-115.4,12.86-26.8,38.57-45.12,68.1-48.51,3.34-.37,6.69-.56,10.05-.56,21.27-.06,41.8,7.8,57.59,22.04,35.6,31.83,38.66,86.5,6.83,122.1-7.85,8.79-17.42,15.87-28.12,20.83Z"/><path class="cls-3" d="m396.64,353.37h-43.27c-3.98,0-7.21,3.23-7.21,7.21,0,1.91.76,3.75,2.11,5.1l17.41,17.41c1.35,1.36,2.11,3.19,2.11,5.1v15.66c0,3.98,3.23,7.21,7.21,7.21s7.21-3.23,7.21-7.21v-15.66c.01-5.74-2.27-11.25-6.34-15.3l-5.1-5.1h25.86c3.98,0,7.21-3.23,7.21-7.21s-3.23-7.21-7.21-7.21h0Z"/><path class="cls-2" d="m389.43,475.97c3.98,0,7.21-3.23,7.21-7.21s-3.23-7.21-7.21-7.21h-28.85c-3.98,0-7.21,3.23-7.21,7.21s3.23,7.21,7.21,7.21h28.85Z"/></g></svg>