<svg xmlns="http://www.w3.org/2000/svg" xmlns:xlink="http://www.w3.org/1999/xlink" id="&#xD1;&#xEB;&#xEE;&#xE9;_1" x="0px" y="0px" viewBox="0 0 2560 1677" style="enable-background:new 0 0 2560 1677;" xml:space="preserve"><style type="text/css">	.st0{fill:#172063;}	.st1{fill:url(#SVGID_1_);}	.st2{fill:url(#SVGID_00000026124550649048994490000011488023325205154948_);}	.st3{fill-rule:evenodd;clip-rule:evenodd;fill:#B8E6F5;}	.st4{fill-rule:evenodd;clip-rule:evenodd;fill:#8FD6FF;}	.st5{fill-rule:evenodd;clip-rule:evenodd;fill:#48A3D8;}	.st6{opacity:0.05;}	.st7{fill-rule:evenodd;clip-rule:evenodd;fill:#FEFEFE;}	.st8{fill:#8FD6FF;}	.st9{fill:#2C87CE;}	.st10{fill:#0067C8;}	.st11{fill:#48A3D8;}	.st12{fill:#195392;}	.st13{fill:#0069DE;}	.st14{fill:#F09D69;}	.st15{fill:#009BFF;}	.st16{fill:#0096EA;}	.st17{fill:#1E1E1E;}	.st18{fill:#EF8A52;}	.st19{fill:#242424;}	.st20{fill:#FFFFFF;}	.st21{fill:#E5605A;}	.st22{fill:#0098ED;}	.st23{fill-rule:evenodd;clip-rule:evenodd;fill:url(#SVGID_00000032617233011976616430000015163280823545537154_);}	.st24{fill-rule:evenodd;clip-rule:evenodd;fill:url(#SVGID_00000083081327537817412080000011570917829272727228_);}	.st25{fill:#FEFEFE;}	.st26{fill-rule:evenodd;clip-rule:evenodd;fill:#D6F1FA;}	.st27{fill-rule:evenodd;clip-rule:evenodd;fill:url(#SVGID_00000092444119863927450520000005123930275000921769_);}	.st28{fill:#B8E6F5;}	.st29{fill-rule:evenodd;clip-rule:evenodd;fill:#69BFF0;}	.st30{fill:#0094EF;}	.st31{fill-rule:evenodd;clip-rule:evenodd;fill:#0067C8;}	.st32{fill-rule:evenodd;clip-rule:evenodd;fill:#195392;}	.st33{fill-rule:evenodd;clip-rule:evenodd;fill:#0069DE;}	.st34{fill:#0063BC;}	.st35{fill:#111111;}	.st36{fill:#191919;}	.st37{fill:#0D2B40;}	.st38{fill:#006FFF;}	.st39{fill:#0094FD;}	.st40{fill:url(#XMLID_00000100371261020886336900000002231320900135546001_);}	.st41{fill:url(#SVGID_00000179610036586706429670000009240987074418450075_);}	.st42{opacity:0.5;fill:#335F98;}	.st43{opacity:0.4;fill:#1F85FF;}	.st44{fill:#1F85FF;}	.st45{fill:url(#SVGID_00000159458125652582656120000009741895249938699397_);}	.st46{fill:url(#SVGID_00000028309597911925226940000012188015840153904803_);}	.st47{opacity:0.8;}	.st48{fill:url(#SVGID_00000120549910590216886120000013657563408894665871_);}	.st49{fill:#FFCAD4;}	.st50{opacity:0.8;fill:url(#SVGID_00000149350074405157531930000013637433189543930241_);}	.st51{fill:url(#SVGID_00000029005205703291926190000016161658324978595206_);}	.st52{fill:#0067E2;}	.st53{opacity:0.2;}	.st54{opacity:0.2;fill:#FFFFFF;}	.st55{fill:#4CC9F0;}	.st56{display:none;}	.st57{display:inline;fill:#005FD1;}</style><g>	<rect x="-1.56" y="-1.09" class="st0" width="2563.11" height="1679.19"></rect>	<linearGradient id="SVGID_1_" gradientUnits="userSpaceOnUse" x1="473.1541" y1="468.3774" x2="-286.9116" y2="-453.2758">		<stop offset="0" style="stop-color:#121A24;stop-opacity:0"></stop>		<stop offset="0.5804" style="stop-color:#25272A;stop-opacity:0.5804"></stop>		<stop offset="1" style="stop-color:#2D2D2D"></stop>	</linearGradient>	<polygon class="st1" points="997.16,-1.09 -1.56,-1.09 -1.56,997.62  "></polygon>			<linearGradient id="SVGID_00000082336453361895537910000000840708072324346787_" gradientUnits="userSpaceOnUse" x1="477.4924" y1="1025.2993" x2="-282.5732" y2="103.646" gradientTransform="matrix(-1 0 0 -1 2564.3384 2233.9219)">		<stop offset="0" style="stop-color:#121A24;stop-opacity:0"></stop>		<stop offset="0.5804" style="stop-color:#25272A;stop-opacity:0.5804"></stop>		<stop offset="1" style="stop-color:#2D2D2D"></stop>	</linearGradient>	<polygon style="fill:url(#SVGID_00000082336453361895537910000000840708072324346787_);" points="1562.84,1678.09 2561.56,1678.09   2561.56,679.38  "></polygon></g><g>	<rect x="1741.39" y="959.13" class="st3" width="102.27" height="9.39"></rect>	<rect x="1755.58" y="947.68" class="st4" width="88.07" height="9.39"></rect>	<rect x="1755.58" y="957.07" class="st5" width="88.07" height="2.07"></rect></g><g class="st6">	<rect x="1347.36" y="598.03" class="st7" width="93.99" height="140.87"></rect>	<rect x="1459.4" y="598.03" class="st7" width="93.99" height="140.87"></rect>	<rect x="1571.35" y="598.03" class="st7" width="94" height="140.87"></rect>	<rect x="1683.3" y="598.03" class="st7" width="93.99" height="140.87"></rect>	<rect x="1347.36" y="756.84" class="st7" width="93.99" height="140.87"></rect>	<rect x="1459.4" y="756.84" class="st7" width="93.99" height="140.87"></rect>	<rect x="1571.35" y="756.84" class="st7" width="94" height="140.87"></rect>	<rect x="1683.3" y="756.84" class="st7" width="93.99" height="140.87"></rect>	<rect x="1347.36" y="439.22" class="st7" width="93.99" height="140.87"></rect>	<rect x="1459.4" y="439.22" class="st7" width="93.99" height="140.87"></rect>	<rect x="1571.35" y="439.22" class="st7" width="94" height="140.87"></rect>	<rect x="1683.3" y="439.22" class="st7" width="93.99" height="140.87"></rect></g><path class="st8" d="M1326.63,1322.68c-1.67,0-2.99-2.16-2.99-4.7c0-2.63,1.32-4.7,2.99-4.7h1002.96c1.62,0,2.99,2.07,2.99,4.7 c0,2.54-1.38,4.7-2.99,4.7H1326.63z"></path><g>	<g>		<path class="st9" d="M2093.77,1182.09h136.57c2.63,0,4.79-2.07,4.79-4.7v-12.21h-146.07v12.21   C2089.08,1180.02,2091.14,1182.09,2093.77,1182.09L2093.77,1182.09z"></path>		<path class="st10" d="M2159.01,1108.74h-103.39c-2.91,0-5.55,1.78-6.58,4.41c-6.2,16.25-3.76,35.78,0.47,50.34   c0.85,3.01,3.57,5.07,6.67,5.07h148.89c2.44,0,4.7-1.32,5.92-3.38C2220.29,1150.25,2196.04,1108.74,2159.01,1108.74   L2159.01,1108.74z"></path>		<rect x="2134" y="1182.09" class="st11" width="56.11" height="106.41"></rect>		<path class="st8" d="M2190.12,1240.41v48.08H2134v-72.78C2151.39,1211.2,2174.52,1220.13,2190.12,1240.41L2190.12,1240.41z"></path>		<path class="st12" d="M2130.34,1190.54h63.54c2.63,0,4.7-2.07,4.7-4.7v-3.76h-73.03v3.76   C2125.55,1188.48,2127.71,1190.54,2130.34,1190.54L2130.34,1190.54z"></path>		<path class="st9" d="M2027.98,1307.56l97.57-18.69h73.03l97.66,18.69c0.75,0.09,1.22,0.66,1.22,1.41v2.82   c0,0.85-0.66,1.5-1.41,1.5h-267.89c-0.85,0-1.5-0.66-1.5-1.5v-2.82C2026.66,1308.22,2027.23,1307.66,2027.98,1307.56   L2027.98,1307.56z"></path>		<path class="st12" d="M2193.88,1280.42h-63.54c-2.63,0-4.79,2.07-4.79,4.7v3.76h73.03v-3.76   C2198.58,1282.49,2196.51,1280.42,2193.88,1280.42L2193.88,1280.42z"></path>		<path class="st10" d="M2266.44,1107.52c9.68-36.25,43.9-135.52,42.3-266.72c-0.09-5.54,4.42-10.14,9.96-10.14h16.45   c6.77,0,13.35,3.01,17.39,8.45c12.97,17.09,15.04,57.38,15.04,75.7c0,155.05-76.79,200.89-94.65,200.89   C2268.51,1115.69,2265.32,1111.75,2266.44,1107.52L2266.44,1107.52z"></path>		<path class="st13" d="M2309.68,840.8c-0.85-5.54,3.48-10.14,9.02-10.14h-90.61c-5.55,0-10.06,4.6-9.96,10.14   c1.6,131.2-32.62,230.47-42.3,266.72c-1.13,4.23,2.16,8.17,6.49,8.17c1.6,0,3.38-0.47,5.36-1.5l-0.09,1.5c0,0,84.97,0,85.35,0   C2272.93,1115.22,2334.03,991.25,2309.68,840.8L2309.68,840.8z"></path>		<path class="st13" d="M2232.79,1109.49h-78.67c-2.91,0-5.45,1.78-6.49,4.51c-6.3,16.15-3.85,35.69,0.38,50.34   c0.85,2.91,3.57,4.98,6.67,4.98h124.26c2.35,0,4.61-1.22,5.92-3.29C2294.08,1151,2269.83,1109.49,2232.79,1109.49L2232.79,1109.49   z"></path>	</g>	<g>		<path class="st14" d="M1941.88,888.42c1.22-3.19,7.43-4.51,9.87-3.76c2.54,0.66,22.75,9.11,22.75,9.11l20.02,9.3   c9.87,11.83-2.16,23.1-5.92,22.54c0,0-20.68-6.67-24.25-7.7c-3.48-1.03-12.13-11.08-14.19-13.71   C1946.95,900.34,1940.75,891.42,1941.88,888.42L1941.88,888.42z"></path>		<path class="st14" d="M1981.64,882.03c0.38,2.72,0.75,6.29,1.69,8.17c0.75,1.41,2.73,3.01,3.48,3.94   c0.75,1.03,4.98,6.67,7.14,12.68c0,0-17.11-6.48-18.89-13.52c-0.47-1.88-0.19-4.98,0.38-8.36   C1976,881,1981.17,878.84,1981.64,882.03L1981.64,882.03z"></path>		<path class="st15" d="M2206.76,817.13c-72.28-11.46-95.22,73.72-134.22,92.51c-14.76-1.97-56.4-6.67-79.24-11.08   c-4.32-0.19-10.9,27.8-9.12,32.21c23.12,6.01,76.32,27.33,102.45,25.08C2136.54,943.92,2227.81,820.42,2206.76,817.13   L2206.76,817.13z"></path>		<path class="st16" d="M2152.43,885.03l2.54,19.44c-15.6,17-32.71,32.59-48.13,42.17C2109.57,917.53,2135.98,888.13,2152.43,885.03   L2152.43,885.03z"></path>		<path class="st15" d="M2179.31,1045.07c30.74,11.74,55.65-3.47,57.81-13.05c12.03-53.53,37.03-207.27-30.08-220.42   c-38.73-7.61-52.83,36.06-64.39,87.62c-5.26,23.29-10.06,48.09-16.26,70.62c-7.61,27.24-17.39,51-33.09,64.14   C2080.8,1044.5,2126.86,1025.16,2179.31,1045.07L2179.31,1045.07z"></path>		<path class="st16" d="M2109.57,1016.61c-0.47-5.82,1.88-15.87,8.46-21.32c3.85-11.18,7.52-24.61,10.81-34.65   c8.84-5.92,28.48-9.2,57.71-5.92c17.58,2.07-13.63-73.25,44.08-67.62l21.15,29.4c-0.66,44.05-9.02,90.63-14.66,115.52   c-1.03,4.51-7.05,10.24-16.35,13.81C2190.59,1041.69,2100.35,1027.04,2109.57,1016.61L2109.57,1016.61z"></path>		<path class="st17" d="M2066.33,1284.27c14.57-52.5,3.1-152.8-10.9-174.78c0,0,102.27,0,123.89,0c17.01,0-15.23-59.07-31.96-74.29   c-59.59,0-142.21,13.15-152.84,52.12c-6.2,22.82,40.61,154.87,47.37,192.62C2042.83,1285.49,2064.82,1289.72,2066.33,1284.27   L2066.33,1284.27z"></path>		<path class="st18" d="M2097.63,971.25c-12.78,2.35-11.65,7.04-8.46,7.7c2.07,0.38,6.67,1.69,8.55,1.97   c2.91,0.47,6.77-1.31,11-1.13C2106.46,971.63,2097.63,971.25,2097.63,971.25L2097.63,971.25z"></path>		<path class="st14" d="M2066.05,962.89c0,0,12.5,4.04,16.64,5.64c6.58,2.54,26.04,11.27,26.04,11.27   c4.7,1.88,10.81,4.88,17.77,8.45c3.29-6.67,7.05-14.56,10.72-22.07c-8.08-2.82-15.23-5.26-20.49-6.67   c-7.05-2.25-17.95-4.6-20.3-4.88c-7.52-0.94-13.54-0.85-17.3-0.47c-4.32,0.47-11.09,3.85-13.72,4.88   C2064.26,959.6,2063.79,962.05,2066.05,962.89L2066.05,962.89z"></path>		<path class="st19" d="M2232.32,1038.59c0,22.92-12.31,70.91-53.01,70.91c-78.39,0-119.75-52.78-159.32-52.78   c-11.19,0-4.7-59.17,20.49-59.17C2092.93,997.55,2172.73,1038.59,2232.32,1038.59L2232.32,1038.59z"></path>		<path class="st17" d="M2078.64,1002.71c25.75,5.82,54.52,15.59,82.72,23.48c28.86,19.53-9.59,41.04-40.42,20.94   C2093.02,1029.01,2085.41,1005.72,2078.64,1002.71L2078.64,1002.71z"></path>		<path class="st15" d="M2203.66,819.76c30.36,0.94,46.34,23.2,50.29,71.85c7.43,49.21-18.05,103.68-32.24,114.67   c-14.48,11.18-92.4-5.45-104.62-11.46c-8.08-4.04,5.26-38.22,13.25-33.81c10.72,5.92,56.96,1.97,68.8,2.25   c5.64-20.85,1.97-40.01-6.02-51.94C2186.08,900.91,2203.66,819.76,2203.66,819.76L2203.66,819.76z"></path>		<path class="st13" d="M2166.24,820.7c-4.79,6.95-16.45,57.01,5.64,87.44c18.7-10.33,57.06-68.75,57.06-86.87   c0-2.25-17.2-9.3-34.12-9.49C2181.75,811.5,2167.84,818.45,2166.24,820.7L2166.24,820.7z"></path>		<path class="st10" d="M2174.23,892.27c-15.32-16.06-9.78-74.57-2.07-80.11c3.48-2.44,8.74-8.45,23.5-8.08   c12.78,0.28,25.57,5.17,25.57,12.02C2221.23,826.15,2190.87,880.43,2174.23,892.27L2174.23,892.27z"></path>		<path class="st20" d="M2181.28,844.28c1.03,0.19,1.6,1.97,1.22,4.13c-0.38,2.07-1.5,3.66-2.63,3.47c-1.03-0.19-1.6-2.07-1.22-4.13   C2179.03,845.59,2180.25,844.09,2181.28,844.28L2181.28,844.28z"></path>		<path class="st20" d="M2177.43,867.29c1.03,0.19,1.69,2.07,1.32,4.23c-0.28,2.07-1.41,3.66-2.44,3.57   c-1.13-0.19-1.69-2.07-1.41-4.23C2175.27,868.79,2176.3,867.19,2177.43,867.29L2177.43,867.29z"></path>		<path class="st19" d="M2142.75,729.23c1.03,8.64,2.91,16.72,9.78,17.84c6.77,1.13,5.83-23.38,5.83-23.38L2142.75,729.23z"></path>		<path class="st14" d="M2216.53,812.81v-45.74l-42.49,5.45v43.48c0,2.07,0,14.84,9.02,19.53   C2197.64,832.72,2216.53,821.17,2216.53,812.81L2216.53,812.81z"></path>		<path class="st18" d="M2174.05,816.01v-22.16l27.26-10.99C2208.17,800.7,2196.14,821.17,2174.05,816.01L2174.05,816.01z"></path>		<path class="st14" d="M2164.93,722.94l25.1-8.73l11.66,1.03c6.96-0.85,5.64,10.89,6.49,17.94l4.23,34.37   c1.97,16.62-17.95,39.63-34.59,41.6c-16.54,2.07-30.64-18.13-26.88-45.17C2149.14,757.12,2142.28,725.75,2164.93,722.94   L2164.93,722.94z"></path>		<path class="st19" d="M2195.29,718.9c-1.13-9.3,5.64-20.76,14.85-18.97c27.82,5.54,16.82,60.29,7.52,61.51   c-2.07-17.37-17.86-5.54-18.99-14.93C2198.02,740.87,2196.04,724.63,2195.29,718.9L2195.29,718.9z"></path>		<path class="st18" d="M2156.47,778.91c-1.79-2.25,3.01-8.08,3.01-8.08c-0.09,2.35-1.69,4.98-0.56,6.39   c1.13,1.41,4.7,1.41,6.02,2.91C2164.93,780.13,2158.16,780.98,2156.47,778.91L2156.47,778.91z"></path>		<path class="st14" d="M2212.02,768.2l4.42,0.47c4.7,0.56,7.9-2.25,7.9-6.86c0-2.91,0.47-7.51,0.09-12.3   c-0.19-3.94-4.04-6.86-8.08-6.29c-3.95,0.47-6.86,4.04-6.39,8.08L2212.02,768.2z"></path>		<path class="st19" d="M2177.9,760.5c-0.28-2.25-1.79-4.04-3.48-3.85c-1.6,0.28-2.73,2.25-2.44,4.6c0.28,2.35,1.79,4.04,3.48,3.85   C2177.05,764.82,2178.18,762.85,2177.9,760.5L2177.9,760.5z"></path>		<path class="st19" d="M2154.68,763.32c-0.28-2.16-1.6-3.85-2.82-3.66c-1.32,0.09-2.07,2.07-1.79,4.23   c0.28,2.25,1.5,3.94,2.73,3.76C2154.12,767.45,2154.97,765.57,2154.68,763.32L2154.68,763.32z"></path>		<path class="st18" d="M2174.05,799.76c-3.85,1.22-7.9,1.5-9.4,0.75C2166.15,803.89,2171.32,804.64,2174.05,799.76L2174.05,799.76z   "></path>		<path class="st21" d="M2177.43,767.64c2.82-0.28,5.17,0.56,5.36,1.97c0.19,1.41-1.97,2.82-4.7,3.1c-2.73,0.38-5.17-0.47-5.36-1.88   C2172.64,769.43,2174.7,768.02,2177.43,767.64L2177.43,767.64z"></path>		<path class="st19" d="M2168.88,750.17c0.28,0,0.56-0.09,0.85-0.28c1.13-1.03,2.73-1.6,4.51-1.69c1.79,0,3.48,0.47,4.61,1.31   c0.56,0.47,1.41,0.38,1.79-0.19c0.47-0.56,0.38-1.41-0.19-1.88c-1.6-1.22-3.95-1.88-6.3-1.78c-2.35,0.09-4.61,0.85-6.11,2.25   c-0.56,0.47-0.56,1.31-0.19,1.78C2168.12,749.98,2168.5,750.17,2168.88,750.17L2168.88,750.17z"></path>		<path class="st19" d="M2153.65,752.24c0.47,0,0.94-0.19,1.13-0.66c0.38-0.66,0.09-1.41-0.47-1.69c-1.88-1.03-4.14-1.31-6.49-0.85   c-0.75,0.19-1.22,0.85-1.03,1.5c0.09,0.75,0.75,1.22,1.5,1.03c1.79-0.38,3.48-0.09,4.7,0.56   C2153.27,752.24,2153.46,752.24,2153.65,752.24L2153.65,752.24z"></path>		<path class="st19" d="M2210.42,706.41c-3.48-17.09-26.32-16.06-40.14-13.62c-9.59,1.69-27.63,9.58-19.36,12.11   c-13.82,11.18-20.02,31.93-9.87,30.71C2159.57,733.36,2210.42,706.41,2210.42,706.41L2210.42,706.41z"></path>		<path class="st19" d="M2202.06,724.82l-2.26-18.31l-15.7,1.88l1.79,15.21c0.66,4.6,3.57,8.55,7.9,10.42   c2.16,0.94,3.76,3.01,4.04,5.35l2.44,20.47c0.56,4.13,10.72-0.56,9.96-6.57c-0.19-1.78-3.2-26.58-3.48-28.36   C2206.76,724.91,2204.6,724.25,2202.06,724.82L2202.06,724.82z"></path>		<path class="st19" d="M2152.62,791.03c-0.28-1.78,0-7.42,4.14-7.89l17.86-2.25c3.1-0.38,6.11,1.6,7.71,3.76l6.86-0.85   c9.31-1.13,12.5-12.58,11.09-23.95c0,0,9.59-9.58,9.96-6.57c4.51,37.1-3.29,44.42-11.28,50.43c-12.88,9.77-31.3,10.8-37.6,6.86   C2156.38,807.55,2153.56,799.38,2152.62,791.03L2152.62,791.03z"></path>		<path class="st20" d="M2156.47,788.96c0,0-0.09,6.01,8.74,4.98c8.08-1.03,10.25-7.23,10.25-7.23L2156.47,788.96z"></path>		<path class="st19" d="M2064.45,1135.7c8.84,39.54,13.07,108.19,1.88,148.57c-1.5,5.45-23.5,1.22-24.44-4.32   c-5.83-32.21-40.61-132.8-46.9-176C2015.76,1092.59,2046.12,1113.91,2064.45,1135.7L2064.45,1135.7z"></path>		<path class="st15" d="M2069.15,1306.72c0,1.97-1.6,3.47-3.48,3.47h-62.22c-2.35,0-3.48-1.31-3.76-3.47   c-0.09-0.94-0.09-2.25,0.09-3.29c1.22-5.54,18.24-10.14,24.63-13.43c9.96-5.26,15.13-13.05,22.37-13.05   c9.78,0,11.94,5.73,16.26,6.95C2069.15,1285.68,2069.15,1306.72,2069.15,1306.72L2069.15,1306.72z"></path>		<path class="st22" d="M2067.08,1313.29h-65.23c-1.22,0-2.16-0.94-2.16-2.16v-4.41h69.46v4.41   C2069.15,1312.35,2068.21,1313.29,2067.08,1313.29L2067.08,1313.29z"></path>		<path class="st15" d="M1877.49,1127.71c-3.01,2.35-7.9,6.29-15.98,10.52c-1.79,0.85-3.95,0.28-4.79-1.41l-36-69.5   c-1.03-2.07-0.38-4.32,1.41-5.26c1.13-0.56,2.44-0.85,3.67-0.28c11,4.7,33.65,32.87,48.03,38.51c5.08,2.07,1.88,13.05,5.26,21.79   C1879.84,1124.14,1879.28,1126.4,1877.49,1127.71L1877.49,1127.71z"></path>		<path class="st22" d="M1854.75,1139.36l-37.5-72.41c-0.47-1.03-0.09-2.25,0.94-2.82l3.95-2.07l39.38,76.17l-3.95,1.97   C1856.53,1140.77,1855.22,1140.39,1854.75,1139.36L1854.75,1139.36z"></path>		<path class="st19" d="M1875.33,1102.83c58.94-27.99,125.95-113.17,163.93-106.41c17.2,3.01,27.73,9.77,41.26,13.62l-54.8,46.39   c-16.07,7.7-27.63,17.84-31.21,30.9c0,0.09-0.09,0.28-0.09,0.47c-36.19,24.61-84.97,37.47-113.26,36.91   C1875.52,1124.61,1870.25,1105.27,1875.33,1102.83L1875.33,1102.83z"></path>	</g></g><g>			<linearGradient id="SVGID_00000048469972443126942590000017431072124400843145_" gradientUnits="userSpaceOnUse" x1="1224.5103" y1="630.9581" x2="1495.3096" y2="630.9581">		<stop offset="0.0303" style="stop-color:#1F85FF"></stop>		<stop offset="1" style="stop-color:#0067E2"></stop>	</linearGradient>	<path style="fill-rule:evenodd;clip-rule:evenodd;fill:url(#SVGID_00000048469972443126942590000017431072124400843145_);" d="  M1359.96,549.66c-74.82,0-135.45,28.08-135.45,62.74c0,34.65,60.63,62.83,135.45,62.83c10.72,0,19.55,8.73,19.55,19.53  c0,6.39-3.1,12.12-7.9,15.68c-0.47,0.28-0.56,0.75-0.38,1.22c0.19,0.47,0.66,0.66,1.13,0.56c18.14-3.01,31.96-18.69,31.96-37.66  c0-0.94,0-1.88-0.09-2.82c53.01-8.45,91.08-31.84,91.08-59.35C1495.31,577.74,1434.68,549.66,1359.96,549.66L1359.96,549.66z"></path>	<g>		<path class="st7" d="M1334.58,606.11c-3.48,0-6.39,2.82-6.39,6.29c0,3.57,2.91,6.39,6.39,6.39c3.48,0,6.39-2.82,6.39-6.39   C1340.97,608.92,1338.06,606.11,1334.58,606.11z"></path>		<path class="st7" d="M1359.96,606.11c-3.57,0-6.39,2.82-6.39,6.29c0,3.57,2.82,6.39,6.39,6.39c3.48,0,6.3-2.82,6.3-6.39   C1366.25,608.92,1363.43,606.11,1359.96,606.11z"></path>		<path class="st7" d="M1385.24,606.11c-3.48,0-6.39,2.82-6.39,6.29c0,3.57,2.91,6.39,6.39,6.39c3.48,0,6.39-2.82,6.39-6.39   C1391.63,608.92,1388.72,606.11,1385.24,606.11z"></path>	</g></g><g>			<linearGradient id="SVGID_00000046334746133937836380000008719447929345350023_" gradientUnits="userSpaceOnUse" x1="1857.1898" y1="425.694" x2="1999.9679" y2="425.694">		<stop offset="0.0303" style="stop-color:#1F85FF"></stop>		<stop offset="1" style="stop-color:#0067E2"></stop>	</linearGradient>	<path style="fill-rule:evenodd;clip-rule:evenodd;fill:url(#SVGID_00000046334746133937836380000008719447929345350023_);" d="  M1928.53,497.07c39.38,0,71.44-32.03,71.44-71.38c0-39.26-32.05-71.38-71.44-71.38c-39.29,0-71.34,32.12-71.34,71.38  C1857.19,465.04,1889.24,497.07,1928.53,497.07L1928.53,497.07z"></path>	<path class="st25" d="M1929.85,427.67c-0.38,0.28-0.85,0.38-1.22,0.38c-1.32,0-2.35-1.03-2.35-2.35v-29.4  c0-1.31,1.03-2.35,2.35-2.35c1.22,0,2.35,1.03,2.35,2.35v25.45l13.63-7.61c1.13-0.56,2.54-0.19,3.2,0.94  c0.66,1.13,0.19,2.54-0.94,3.19L1929.85,427.67z M1953.72,377.61c0.56-1.13,2.07-1.5,3.2-0.85c1.13,0.66,1.5,2.07,0.85,3.19  l-5.26,9.11c-0.66,1.13-2.07,1.5-3.2,0.85c-1.13-0.66-1.5-2.07-0.85-3.19L1953.72,377.61z M1974.4,396.58  c1.13-0.66,2.54-0.28,3.2,0.85c0.66,1.13,0.28,2.54-0.85,3.19l-9.12,5.26c-1.13,0.66-2.54,0.28-3.2-0.85  c-0.66-1.13-0.28-2.54,0.85-3.19L1974.4,396.58z M1982.86,423.35c1.32,0,2.35,1.03,2.35,2.35c0,1.31-1.03,2.35-2.35,2.35h-10.53  c-1.32,0-2.35-1.03-2.35-2.35c0-1.31,1.03-2.35,2.35-2.35H1982.86z M1976.75,450.77c1.13,0.66,1.5,2.07,0.85,3.19  c-0.66,1.13-2.07,1.5-3.2,0.94l-9.12-5.26c-1.13-0.66-1.5-2.07-0.85-3.19c0.66-1.13,2.07-1.5,3.2-0.94L1976.75,450.77z   M1957.76,471.52c0.66,1.13,0.28,2.54-0.85,3.19c-1.13,0.66-2.63,0.28-3.2-0.85l-5.26-9.11c-0.66-1.13-0.28-2.54,0.85-3.19  c1.13-0.66,2.54-0.28,3.2,0.85L1957.76,471.52z M1930.98,479.98c0,1.22-1.13,2.35-2.35,2.35c-1.32,0-2.35-1.13-2.35-2.35v-10.52  c0-1.31,1.03-2.35,2.35-2.35c1.22,0,2.35,1.03,2.35,2.35V479.98z M1903.44,473.87c-0.56,1.13-2.07,1.5-3.2,0.85  c-1.13-0.66-1.5-2.07-0.85-3.19l5.26-9.11c0.66-1.13,2.07-1.5,3.2-0.85c1.13,0.66,1.5,2.07,0.85,3.19L1903.44,473.87z   M1882.76,454.9c-1.13,0.56-2.54,0.19-3.2-0.94c-0.66-1.03-0.28-2.54,0.85-3.19l9.12-5.26c1.13-0.56,2.54-0.19,3.2,0.94  c0.66,1.03,0.28,2.54-0.85,3.19L1882.76,454.9z M1874.3,428.04c-1.32,0-2.35-1.03-2.35-2.35c0-1.31,1.03-2.35,2.35-2.35h10.53  c1.32,0,2.35,1.03,2.35,2.35c0,1.31-1.03,2.35-2.35,2.35H1874.3z M1880.41,400.62c-1.13-0.66-1.5-2.07-0.85-3.19  c0.66-1.13,2.07-1.5,3.2-0.85l9.12,5.26c1.13,0.66,1.5,2.07,0.85,3.19c-0.66,1.13-2.07,1.5-3.2,0.85L1880.41,400.62z   M1899.39,379.96c-0.66-1.13-0.28-2.54,0.85-3.19c1.13-0.66,2.63-0.28,3.2,0.85l5.26,9.11c0.66,1.13,0.28,2.54-0.85,3.19  c-1.13,0.66-2.54,0.28-3.2-0.85L1899.39,379.96z M1926.28,371.5c0-1.31,1.03-2.35,2.35-2.35c1.22,0,2.35,1.03,2.35,2.35v10.52  c0,1.31-1.13,2.35-2.35,2.35c-1.32,0-2.35-1.03-2.35-2.35V371.5z"></path></g><g>	<g>		<path class="st26" d="M2102.14,504.4h25.76c0.94,0,1.69,0.75,1.69,1.69v115.7c0,0.94-0.75,1.78-1.69,1.78h-25.76   c-0.94,0-1.79-0.85-1.79-1.78v-115.7C2100.35,505.15,2101.2,504.4,2102.14,504.4L2102.14,504.4z"></path>		<path class="st3" d="M2115.02,533.32c4.14,0,7.43-3.38,7.43-7.51c0-4.04-3.29-7.42-7.43-7.42c-4.14,0-7.52,3.38-7.52,7.42   C2107.5,529.94,2110.88,533.32,2115.02,533.32L2115.02,533.32z"></path>		<path class="st3" d="M2131.37,504.4h25.75c0.94,0,1.69,0.75,1.69,1.69v115.7c0,0.94-0.75,1.78-1.69,1.78h-25.75   c-0.94,0-1.79-0.85-1.79-1.78v-115.7C2129.59,505.15,2130.43,504.4,2131.37,504.4L2131.37,504.4z"></path>		<path class="st4" d="M2144.25,533.32c4.04,0,7.43-3.38,7.43-7.51c0-4.04-3.38-7.42-7.43-7.42c-4.14,0-7.52,3.38-7.52,7.42   C2136.73,529.94,2140.11,533.32,2144.25,533.32L2144.25,533.32z"></path>		<path class="st4" d="M2160.51,504.4h25.85c0.94,0,1.69,0.75,1.69,1.69v115.7c0,0.94-0.75,1.78-1.69,1.78h-25.85   c-0.94,0-1.69-0.85-1.69-1.78v-115.7C2158.82,505.15,2159.57,504.4,2160.51,504.4L2160.51,504.4z"></path>		<path class="st5" d="M2173.48,533.32c4.04,0,7.43-3.38,7.43-7.51c0-4.04-3.38-7.42-7.43-7.42c-4.14,0-7.52,3.38-7.52,7.42   C2165.96,529.94,2169.35,533.32,2173.48,533.32L2173.48,533.32z"></path>	</g>			<linearGradient id="SVGID_00000064320606958318884600000012810801578708327557_" gradientUnits="userSpaceOnUse" x1="1982.7667" y1="603.8987" x2="2206.0989" y2="603.8987">		<stop offset="0.0303" style="stop-color:#1F85FF"></stop>		<stop offset="1" style="stop-color:#0067E2"></stop>	</linearGradient>	<path style="fill-rule:evenodd;clip-rule:evenodd;fill:url(#SVGID_00000064320606958318884600000012810801578708327557_);" d="  M2000.72,623.57h187.33v-53.44c0-2.07,1.79-3.85,3.85-3.85h10.34c2.07,0,3.85,1.78,3.85,3.85v57.29v3.57v6.67  c0,2.16-1.79,3.85-3.85,3.85h-215.62c-2.16,0-3.85-1.69-3.85-3.85v-6.67v-3.57v-57.29c0-2.07,1.69-3.85,3.85-3.85h10.25  c2.16,0,3.85,1.78,3.85,3.85V623.57z"></path>	<g>		<g>			<path class="st4" d="M2050.82,586.76h42.2c2.07,0,3.95,0.85,5.36,2.16c1.32,1.41,2.16,3.29,2.16,5.26c0,2.07-0.85,3.94-2.16,5.35    c-1.41,1.31-3.29,2.16-5.36,2.16h-42.2c-1.32,0-2.35-1.03-2.35-2.35v-10.24C2048.47,587.79,2049.5,586.76,2050.82,586.76    L2050.82,586.76z"></path>			<path class="st7" d="M2029.29,589.11h31.3c2.82,0,5.17,2.25,5.17,5.07l0,0c0,2.91-2.35,5.17-5.17,5.17h-31.3V589.11z"></path>			<path class="st28" d="M2026.66,591.45c-1.22,0-2.35-1.03-2.35-2.35s1.13-2.35,2.35-2.35h33.93c2.07,0,3.95,0.85,5.26,2.16    c1.41,1.41,2.26,3.29,2.26,5.26c0,2.07-0.85,3.94-2.16,5.35l-0.19,0.09c-1.41,1.31-3.2,2.07-5.17,2.07h-33.93    c-1.22,0-2.35-1.03-2.35-2.35c0-1.31,1.13-2.35,2.35-2.35h33.93c0.75,0,1.41-0.28,1.88-0.66l0.09-0.19    c0.56-0.47,0.85-1.13,0.85-1.97c0-0.75-0.28-1.41-0.85-1.88c-0.47-0.56-1.22-0.85-1.97-0.85H2026.66z"></path>		</g>		<g>			<path class="st5" d="M2033.15,601.69h56.49c3.01,0,5.73,1.22,7.71,3.19l0,0c1.97,1.97,3.2,4.7,3.2,7.7c0,3.01-1.22,5.73-3.2,7.7    l0,0c-1.97,1.97-4.7,3.29-7.71,3.29h-56.49c-1.32,0-2.35-1.13-2.35-2.35v-17.19C2030.8,602.73,2031.83,601.69,2033.15,601.69    L2033.15,601.69z"></path>			<path class="st29" d="M2006.64,604.04h52.17c4.7,0,8.55,3.85,8.55,8.55l0,0c0,4.79-3.85,8.64-8.55,8.64h-52.17V604.04z"></path>			<path class="st8" d="M2003.07,606.39c-1.32,0-2.35-1.03-2.35-2.35c0-1.31,1.03-2.35,2.35-2.35h55.74c3.01,0,5.73,1.22,7.71,3.19    l0,0c1.97,1.97,3.2,4.7,3.2,7.7c0,3.01-1.22,5.73-3.2,7.7l0,0c-1.97,1.97-4.7,3.29-7.71,3.29h-55.74c-1.32,0-2.35-1.13-2.35-2.35    c0-1.32,1.03-2.35,2.35-2.35h55.74c1.69,0,3.29-0.75,4.42-1.88c1.13-1.13,1.79-2.63,1.79-4.41c0-1.69-0.66-3.19-1.79-4.32    c-1.13-1.13-2.73-1.88-4.42-1.88H2003.07z"></path>		</g>	</g></g><g class="st6">	<rect x="1887.17" y="674.57" class="st7" width="62.32" height="87.06"></rect>	<rect x="1964.81" y="719.93" class="st7" width="62.32" height="87.06"></rect></g><g>	<polygon class="st30" points="1808.31,980.45 1808.31,1051.17 1805.96,1313.29 1798.91,1313.29 1796.56,1051.17 1796.56,980.45    "></polygon>	<polygon class="st15" points="1815.36,980.45 1815.36,1051.17 1813.01,1313.29 1805.96,1313.29 1803.61,1051.17 1803.61,980.45    "></polygon>	<polygon class="st30" points="1653.5,980.45 1653.5,1051.17 1651.15,1313.29 1644.1,1313.29 1641.75,1051.17 1641.75,980.45  "></polygon>	<polygon class="st15" points="1660.55,980.45 1660.55,1051.17 1658.2,1313.29 1651.15,1313.29 1648.8,1051.17 1648.8,980.45  "></polygon>	<polygon class="st8" points="2043.77,980.45 2043.77,1051.17 2041.42,1313.29 2034.37,1313.29 2032.02,1051.17 2032.02,980.45  "></polygon>	<polygon class="st15" points="2050.82,980.45 2050.82,1051.17 2048.47,1313.29 2041.42,1313.29 2039.07,1051.17 2039.07,980.45    "></polygon>	<rect x="1884.35" y="968.53" class="st15" width="198.33" height="17.94"></rect>	<rect x="1641.75" y="968.53" class="st30" width="242.6" height="17.94"></rect>	<polygon class="st30" points="1889.05,980.45 1889.05,1051.17 1886.7,1313.29 1879.65,1313.29 1877.3,1051.17 1877.3,980.45  "></polygon>	<polygon class="st15" points="1896.1,980.45 1896.1,1051.17 1893.75,1313.29 1886.7,1313.29 1884.35,1051.17 1884.35,980.45  "></polygon></g><g>	<polygon class="st13" points="1941.03,950.78 1940,948.33 2030.05,948.33 2032.49,950.78  "></polygon>	<path class="st10" d="M1833.69,968.53h201.24c1.5,0,2.63-1.22,2.63-2.63v-12.49c0-1.5-1.13-2.63-2.63-2.63h-201.24  c-1.5,0-2.73,1.13-2.73,2.63v12.49C1830.97,967.31,1832.19,968.53,1833.69,968.53L1833.69,968.53z"></path>	<path class="st10" d="M1833.69,968.53h112.32c1.5,0,2.73-1.22,2.73-2.63v-12.49c0-1.5-1.22-2.63-2.73-2.63h-112.32  c-1.5,0-2.73,1.13-2.73,2.63v12.49C1830.97,967.31,1832.19,968.53,1833.69,968.53L1833.69,968.53z"></path>	<path class="st13" d="M1797.22,872.07c0.38-0.56,1.03-0.94,1.69-0.94h112.42c0.75,0,1.5,0.47,1.88,1.22l34.68,77.57  c0.28,0.56,0.19,1.31-0.19,1.88c-0.28,0.56-0.94,0.94-1.69,0.94h-112.32c-0.85,0-1.5-0.47-1.88-1.22l-34.68-77.57  C1796.85,873.3,1796.85,872.64,1797.22,872.07L1797.22,872.07z"></path>	<path class="st15" d="M1973.84,956.32h11.94c0.47,0,0.85,0.38,0.85,0.85v4.98c0,0.47-0.38,0.85-0.85,0.85h-11.94  c-0.47,0-0.85-0.38-0.85-0.85v-4.98C1972.99,956.69,1973.37,956.32,1973.84,956.32L1973.84,956.32z"></path>	<path class="st15" d="M1956.54,956.32h11.94c0.47,0,0.85,0.38,0.85,0.85v4.98c0,0.47-0.38,0.85-0.85,0.85h-11.94  c-0.38,0-0.75-0.38-0.75-0.85v-4.98C1955.79,956.69,1956.17,956.32,1956.54,956.32L1956.54,956.32z"></path>	<path class="st15" d="M1992.69,959.6c0,1.03,0.75,1.78,1.79,1.78c0.94,0,1.79-0.75,1.79-1.78c0-0.94-0.85-1.69-1.79-1.69  C1993.44,957.91,1992.69,958.66,1992.69,959.6L1992.69,959.6z"></path>	<path class="st15" d="M1999.08,959.6c0,1.03,0.75,1.78,1.79,1.78c0.94,0,1.79-0.75,1.79-1.78c0-0.94-0.85-1.69-1.79-1.69  C1999.84,957.91,1999.08,958.66,1999.08,959.6L1999.08,959.6z"></path>	<path class="st15" d="M1859.54,911.61c1.97,4.7,6.2,8.55,9.4,8.55c3.29,0,4.32-3.85,2.44-8.55c-1.97-4.7-6.2-8.55-9.4-8.55  C1858.69,903.07,1857.57,906.92,1859.54,911.61L1859.54,911.61z"></path></g><g>	<g>		<path class="st4" d="M1751.87,901.94l-1.32-0.28c-0.38-0.09-0.56-0.47-0.47-0.85l0.94-3.38c0.09-0.28,0.47-0.56,0.75-0.47   l1.32,0.38c0.38,0.09,0.56,0.47,0.47,0.85l-0.94,3.29C1752.52,901.85,1752.24,902.03,1751.87,901.94L1751.87,901.94z"></path>		<path class="st5" d="M1752.9,900.72l-2.54-0.66c-0.66-0.19-1.22,0.19-1.41,0.75l-12.22,45.55c-0.09,0.56,0.19,1.22,0.75,1.31   l2.63,0.75c0.56,0.09,1.13-0.19,1.32-0.75l12.22-45.64C1753.84,901.47,1753.46,900.81,1752.9,900.72L1752.9,900.72z"></path>		<path class="st11" d="M1750.64,918.84c-0.19,0.56,0.09,1.03,0.66,1.13c0.47,0.19,0.94-0.09,1.13-0.66l3.57-13.34   c0.19-0.56,0.09-1.03-0.19-1.5c-0.28-0.47-0.75-0.85-1.22-0.94l-2.54-0.66c-0.56-0.19-1.03,0.09-1.22,0.66   c-0.09,0.47,0.19,0.94,0.66,1.13l2.63,0.66c0,0,0,0.09,0.09,0.09v0.09L1750.64,918.84z"></path>	</g>	<g>		<path class="st5" d="M1728.27,915.84L1728.27,915.84c-2.26,0-4.14,1.78-4.14,4.13v31.46c0,2.25,1.88,4.13,4.14,4.13l0,0   c2.35,0,4.14-1.88,4.14-4.13v-31.46C1732.41,917.62,1730.62,915.84,1728.27,915.84L1728.27,915.84z"></path>		<path class="st8" d="M1736.08,889.92h1.41c2.16,0,4.14,0.94,5.55,2.35c1.41,1.41,2.26,3.38,2.26,5.45v7.14   c0,2.07-0.85,4.04-2.26,5.45s-3.38,2.25-5.55,2.25h-1.41c-1.03,0-2.16-0.19-3.1-0.56V918c0,1.32-1.03,2.35-2.35,2.35h-4.7v-7.89   h2.35v-7.61v-7.14c0-2.07,0.94-4.04,2.35-5.45C1732.03,890.86,1733.91,889.92,1736.08,889.92L1736.08,889.92z M1737.49,894.61   h-1.41c-0.85,0-1.6,0.38-2.16,0.94c-0.56,0.56-0.94,1.31-0.94,2.16v7.14l0,0c0.09,0.85,0.38,1.6,0.94,2.16   c0.56,0.56,1.32,0.85,2.16,0.85h1.41c0.85,0,1.6-0.28,2.16-0.85c0.56-0.56,0.94-1.31,0.94-2.16v-7.14c0-0.85-0.38-1.6-0.94-2.16   C1739.08,894.99,1738.33,894.61,1737.49,894.61L1737.49,894.61z"></path>		<path class="st8" d="M1720.57,889.92h-1.41c-2.16,0-4.14,0.94-5.55,2.35c-1.41,1.41-2.26,3.38-2.26,5.45v7.14   c0,2.07,0.85,4.04,2.26,5.45s3.38,2.25,5.55,2.25h1.41c1.03,0,2.07-0.19,3.01-0.56V918c0,1.32,1.13,2.35,2.35,2.35   c1.32,0,2.35-1.03,2.35-2.35v-13.15v-7.14c0-2.07-0.85-4.04-2.26-5.45C1724.61,890.86,1722.63,889.92,1720.57,889.92   L1720.57,889.92z M1719.16,894.61h1.41c0.85,0,1.6,0.38,2.16,0.94c0.56,0.56,0.85,1.31,0.85,2.16v7.14l0,0   c0,0.85-0.28,1.6-0.85,2.16c-0.56,0.56-1.32,0.85-2.16,0.85h-1.41c-0.85,0-1.69-0.28-2.26-0.85c-0.56-0.56-0.85-1.31-0.85-2.16   v-7.14c0-0.85,0.28-1.6,0.85-2.16C1717.46,894.99,1718.31,894.61,1719.16,894.61L1719.16,894.61z"></path>	</g>	<path class="st31" d="M1747.45,922.51c-9.12,0-23.03,0-32.05,0c-1.69,0-3.38,1.69-3.1,3.85l3.76,42.17h30.74l3.76-42.17  C1750.74,924.2,1749.14,922.51,1747.45,922.51L1747.45,922.51z"></path>	<g>		<path class="st5" d="M1719.81,893.21l-2.82-10.05c0-0.56-0.47-0.85-1.03-0.85c-0.47,0.09-0.85,0.56-0.85,1.03l-0.66,10.42   C1720,898.75,1715.4,899.22,1719.81,893.21L1719.81,893.21z"></path>		<polygon class="st32" points="1714.46,893.77 1717.28,894.8 1719.81,893.21 1726.21,954.25 1720.75,954.81 1717.65,924.29   "></polygon>	</g>	<path class="st33" d="M1735.98,922.51c-6.86,0-13.72,0-20.58,0c-1.69,0-3.38,1.69-3.1,3.85l3.76,42.17h19.27l3.76-42.17  C1739.27,924.2,1737.67,922.51,1735.98,922.51L1735.98,922.51z"></path></g><g>	<polygon class="st11" points="1502.22,1228.67 1502.22,1313.29 1509.46,1313.29 1515.19,1262.86 1515.19,1228.67  "></polygon>	<polygon class="st11" points="1704.03,1228.67 1704.03,1313.29 1696.69,1313.29 1690.96,1262.86 1690.96,1228.67  "></polygon>	<polygon class="st9" points="1371.19,1228.67 1371.19,1313.29 1378.43,1313.29 1384.16,1262.86 1384.16,1228.67  "></polygon>	<polygon class="st9" points="1570.83,1228.67 1570.83,1313.29 1563.6,1313.29 1557.86,1262.86 1557.86,1228.67  "></polygon>	<path class="st9" d="M1705.53,1235.9h-334.34c-1.5,0-2.63-1.13-2.63-2.54v-12.02h339.6v12.02  C1708.16,1234.78,1706.94,1235.9,1705.53,1235.9L1705.53,1235.9z"></path>	<polygon class="st13" points="1397.6,970.22 1536.43,970.22 1536.43,1224.73 1412.17,1224.73  "></polygon>	<path class="st34" d="M1521.58,1164.9h193.44v57.76c0,1.13-0.85,2.07-2.07,2.07h-191.37V1164.9z"></path>	<path class="st10" d="M1431.44,1176.74h133.75c2.35,0,4.23,1.78,4.23,4.13v39.73c0,2.25-1.88,4.13-4.23,4.13h-133.75V1176.74z"></path>	<path class="st10" d="M1368.09,970.22h32.8c3.29,0,6.11,2.54,6.49,5.82l12.78,122.37c0.75,7.42,1.13,14.74,1.13,22.26v99.46  c0,2.54-2.07,4.6-4.51,4.6h-50.66c-2.44,0-4.51-2.07-4.51-4.6V976.7C1361.6,973.13,1364.52,970.22,1368.09,970.22L1368.09,970.22z"></path>	<path class="st13" d="M1426.18,1109.49H1717c2.54,0,4.7,2.07,4.7,4.7v50.43c0,2.54-2.16,4.7-4.7,4.7h-290.82V1109.49z"></path>	<path class="st10" d="M1597.9,1109.49c-18.42,42.54-2.44,91.47,16.54,88.66c20.49-3.01,31.58-88.66,31.58-88.66H1597.9z"></path>	<path class="st10" d="M1433.04,1109.49h136.29c2.54,0,4.61,2.07,4.61,4.7v50.43c0,2.54-2.07,4.7-4.61,4.7h-136.29  c-2.54,0-4.7-2.16-4.7-4.7v-50.43C1428.34,1111.56,1430.5,1109.49,1433.04,1109.49L1433.04,1109.49z"></path></g><g>	<path class="st35" d="M1477.87,744.16c-0.75-13.05,16.64-23.29,26.88-24.04c17.01-1.31,29.14,2.44,36.56,5.92  c18.14,8.55,21.71,40.57-8.84,50.9c-25,8.45,45.96,59.17,15.98,90.91c0.47,12.49-27.54-16.72-27.54-16.72L1477.87,744.16z"></path>	<path class="st35" d="M1468.85,889.82c-12.97-5.64-24.82-15.87-26.69-40.76c-1.22-17.66,60.25-46.68,60.34-45.17  c0.09,1.6,1.32,74.94,1.32,74.94L1468.85,889.82z"></path>	<path class="st22" d="M1690.49,1087.61c-6.96-41.23-132.91-64.8-208.39-62.27c0,0-4.61,27.05,8.65,50.81  c15.23,27.14,42.3,33.34,67.86,33.34h92.58c-4.51,59.17,54.14,170.74,66.92,183.23c9.68,9.39,9.02,6.95,15.6-8.36  C1716.06,1211.96,1700.27,1145.37,1690.49,1087.61L1690.49,1087.61z"></path>	<path class="st15" d="M1668.21,1103.58c4.89-25.64-17.39-37.38-28.1-41.23c-40.04-14.28-120.13-35.12-180.38-37  c0,0-4.61,27.05,8.65,50.81c15.23,27.14,42.3,33.34,67.86,33.34h82.72c-22.18,42.26-10.25,147.45-11.75,176.28  c-0.75,13.52,13.54,12.87,20.11-2.44C1645.37,1205.38,1657.97,1157.95,1668.21,1103.58L1668.21,1103.58z"></path>	<path class="st18" d="M1679.4,888.89c5.36-10.99,3.38-13.9,1.03-11.65c-1.5,1.41-5.17,4.41-6.49,5.73  c-2.07,2.16-2.82,6.29-5.36,9.58C1676.58,895.37,1679.4,888.89,1679.4,888.89L1679.4,888.89z"></path>	<path class="st14" d="M1706.56,867.57c0,0-10.43,7.8-14.01,10.24c-5.83,3.94-23.97,14.74-23.97,14.74  c-13.82,9.11-48.69,23.2-70.97,35.69c0,0-18.42-23.29-24.44-32.12l-29.51,15.21c0,0,31.58,46.77,46.81,48.84  c8.65,1.13,68.9-37.1,88.07-52.97c5.92-4.41,14.01-11.93,15.51-13.71c5.08-5.54,8.46-10.52,10.34-13.81  c2.07-3.66,3.95-8.17,4.51-10.89C1709.19,867.57,1708.54,866.16,1706.56,867.57L1706.56,867.57z"></path>	<path class="st18" d="M1582.96,909.36c-1.79-2.35-3.57-4.7-5.17-6.86l-32.99,10.61c3.01,4.23,11,15.4,19.93,25.92  C1575.53,930.4,1583.05,918.84,1582.96,909.36L1582.96,909.36z"></path>	<path class="st19" d="M1580.7,901.56c7.61,11.36-26.6,24.79-26.6,24.79c-11.47-18.31-81.59-74.76-61.19-79.08  c16.73-3.47,30.55-3.85,41.73,2.16C1549.69,857.42,1567.07,881.09,1580.7,901.56L1580.7,901.56z"></path>	<path class="st17" d="M1534.74,890.01c16.45,1.69,34.03,6.1,44.18,21.22c-7.14,8.17-24.81,15.12-24.81,15.12  c-1.88-3.01-5.26-6.95-9.59-11.55C1538.88,897.43,1526.66,889.17,1534.74,890.01L1534.74,890.01z"></path>	<path class="st19" d="M1506.54,840.05c-11.28-0.09-27.73,15.12-30.74,40.2c-3.29,27.24,12.03,63.86,7.43,87.53  c-3.01,15.31-18.42,36.06-23.97,54.75c-3.1,10.42,42.58,6.67,73.03,13.52c16.54,3.66,32.62,6.01,30.45-5.26  c-2.63-13.71-16.54-50.25-8.37-81.71c9.12-5.54,14.29-24.7,1.32-39.35C1533.52,884.66,1528.82,840.14,1506.54,840.05  L1506.54,840.05z"></path>	<path class="st15" d="M1733.73,1284.36c-6.58,15.31-5.92,17.75-15.6,8.36c-8.08-7.89-34.5-55.5-51.7-104.34  c5.36-34.19,22.93-71.94,24.06-100.77C1700.27,1145.37,1716.06,1211.96,1733.73,1284.36L1733.73,1284.36z"></path>	<path class="st19" d="M1713.42,1291.31c-0.66,3.29-1.69,9.3-1.69,16.34c0,1.69,1.22,3.1,2.91,3.1h62.98c2.07,0,3.38-1.32,3.48-3.1  c0-0.94-0.38-2.25-1.22-2.91c-7.99-6.48-40.79-21.98-45.78-21.98c-4.61,0-9.12,4.32-17.01,5.17  C1715.21,1288.12,1713.71,1289.44,1713.42,1291.31L1713.42,1291.31z"></path>	<path class="st36" d="M1725.46,1310.85c1.13-9.77,7.99-16.9,7.99-16.9s3.85,1.03,6.67,3.19c-3.1,4.32-5.26,9.11-6.11,13.99  L1725.46,1310.85z"></path>	<path class="st36" d="M1779.31,1313.29h-65.8c-1.03,0-1.79-0.85-1.79-1.78v-3.85h69.37v3.85  C1781.1,1312.45,1780.26,1313.29,1779.31,1313.29L1779.31,1313.29z"></path>	<path class="st19" d="M1607.3,1291.31c-0.56,3.29-1.69,9.3-1.69,16.34c0,1.69,1.22,3.1,2.91,3.1h50.57c2.07,0,3.38-1.32,3.38-3.1  c0-0.94-0.28-2.25-1.22-2.91c-7.9-6.48-28.2-21.98-33.18-21.98c-4.7,0-9.21,4.32-17.11,5.17  C1609.09,1288.12,1607.59,1289.44,1607.3,1291.31L1607.3,1291.31z"></path>	<path class="st36" d="M1613.13,1310.85c1.13-9.77,7.99-16.9,7.99-16.9s3.85,1.03,6.67,3.19c-3.2,4.32-5.26,9.11-6.11,13.99  L1613.13,1310.85z"></path>	<path class="st36" d="M1660.69,1313.29h-53.29c-1.03,0-1.79-0.85-1.79-1.78v-3.85h56.87v3.85  C1662.48,1312.45,1661.73,1313.29,1660.69,1313.29L1660.69,1313.29z"></path>	<path class="st17" d="M1488.21,999.05c-7.8,2.44-13.35,0.66-17.2-2.91c5.36-10.24,10.62-20.1,12.22-28.36  c0.19-1.13,0.38-2.35,0.56-3.57l51.98-44.89C1534.74,942.14,1511.05,991.82,1488.21,999.05L1488.21,999.05z"></path>	<path class="st17" d="M1502.59,918.19c-1.5,10.14-1.22,21.6,11.47,28.27c5.64,3.01-17.76,13.24-31.02,9.49  c-1.5-15.4-2.26-33.43-4.42-50.06C1488.03,899.12,1503.72,910.39,1502.59,918.19L1502.59,918.19z"></path>	<path class="st14" d="M1457.66,986.56c-14.66,0-9.02-88.66,3.38-115.8c3.67-7.8,34.68,11.65,34.68,11.65s-16.64,38.69-10.81,73.82  C1485.86,962.42,1470.54,982.05,1457.66,986.56L1457.66,986.56z"></path>	<path class="st18" d="M1483.7,938.47c0.09-6.95,0.85-13.62,1.88-19.91l-35.15,3.01c-0.38,4.23-0.75,8.45-1.03,12.68  C1454.75,938.75,1469.32,941.95,1483.7,938.47L1483.7,938.47z"></path>	<path class="st19" d="M1508.61,836.67c-17.11-0.19-37.22,8.26-45.21,18.78c-12.13,15.87-16.92,58.89-16.07,75.13  c0.38,7.14,45.4,3.01,44.84-4.51c-0.56-7.51,2.35-25.83,9.87-30.15C1522.61,884,1515.94,853.2,1508.61,836.67L1508.61,836.67z"></path>	<path class="st14" d="M1557.77,898.56c0.94-1.97,3.01-15.31,3.2-17.09c0.28-1.88,0.56-10.52-0.19-13.9  c-0.75-3.57-3.57-3.57-4.42-1.6c-3.38,7.42-13.16,19.16-18.61,23.1c0,0-0.28-4.88-0.47-5.92c-0.19-1.03-0.75-4.04-2.44-4.6  c-0.66-0.19-1.32,0.28-1.6,0.94c-1.79,4.6-4.42,9.39-4.98,10.99c-0.75,2.07,2.07,7.51-1.13,14.09c-1.03,1.97-3.67,4.98-5.36,6.39  c-30.17,25.08-45.31,32.21-60.25,40.95c-7.8,4.6-3.85,34.66-3.85,34.66c21.9,0,56.11-37.85,80.65-65.18  c1.41-1.6,8.46-6.29,10.15-8.08C1550.34,911.24,1556.74,900.53,1557.77,898.56L1557.77,898.56z"></path>	<path class="st22" d="M1555.33,1043.75c15.7,14.65,15.42,52.59,9.21,65.74h-28.29c-4.61,0-9.31-0.19-13.91-0.75l12.13-55.88  L1555.33,1043.75z"></path>	<path class="st14" d="M1490.09,836.29l0.75-47.71l34.31,6.48l-0.75,45.55c0,3.57,1.41,14.65-2.16,20.29  C1509.17,858.83,1490,844.56,1490.09,836.29L1490.09,836.29z"></path>	<path class="st18" d="M1524.49,834.41l0.28-18.22l-20.21-8.83C1504.47,816.85,1508.05,830.28,1524.49,834.41L1524.49,834.41z"></path>	<path class="st14" d="M1532.39,742.75c-8.93,0.66-23.31,29.58-45.12,21.22c-0.75-0.28-2.35-24.7-2.35-24.7  c-6.96,0.56-3.38,11.74-2.91,18.69l2.54,34.19c4.14,22.16,30.83,33.06,47.37,31.84c14.01-0.94,18.8-36.16,11.66-47.05  C1545.36,771.21,1544.61,747.92,1532.39,742.75L1532.39,742.75z"></path>	<path class="st20" d="M1524.49,802.2c0,0,2.16,5.35,10.34,4.7c7.43-0.56,7.24-6.01,7.24-6.01L1524.49,802.2z"></path>	<path class="st18" d="M1541.6,792.53c1.32-2.54-4.42-7.23-4.42-7.23c0.56,2.16,2.54,4.41,1.69,6.1c-0.75,1.5-4.32,2.16-5.26,3.85  C1533.61,795.25,1540.29,794.88,1541.6,792.53L1541.6,792.53z"></path>	<path class="st37" d="M1522.43,778.35c0.19,2.25-0.94,4.32-2.63,4.41c-1.6,0.09-3.1-1.69-3.2-3.94c-0.19-2.35,0.94-4.32,2.63-4.41  C1520.83,774.31,1522.33,776.09,1522.43,778.35L1522.43,778.35z"></path>	<path class="st37" d="M1544.14,776.75c0.19,2.25-0.85,4.13-2.26,4.23c-1.5,0.09-2.82-1.6-2.91-3.85c-0.19-2.25,0.85-4.13,2.26-4.23  C1542.73,772.81,1544.05,774.5,1544.14,776.75L1544.14,776.75z"></path>	<path class="st18" d="M1529.76,811.22c3.95,0.47,7.9,0,9.21-1.03C1538.22,813.75,1533.33,815.44,1529.76,811.22L1529.76,811.22z"></path>	<path class="st21" d="M1514.25,785.95c-2.82,0.19-4.89,1.5-4.79,2.91c0.09,1.41,2.35,2.35,5.17,2.16c2.73-0.19,4.89-1.5,4.79-2.91  C1519.23,786.71,1516.98,785.77,1514.25,785.95L1514.25,785.95z"></path>	<path class="st37" d="M1512.56,769.61c0.28,0,0.56-0.09,0.75-0.28c1.03-1.03,2.73-1.69,4.51-1.78c1.79-0.19,3.57,0.28,4.79,1.13  c0.47,0.38,1.13,0.19,1.41-0.28c0.38-0.47,0.28-1.13-0.19-1.41c-1.6-1.13-3.85-1.69-6.11-1.5c-2.35,0.19-4.42,1.03-5.83,2.35  c-0.47,0.38-0.47,1.13-0.09,1.5C1511.99,769.52,1512.28,769.61,1512.56,769.61L1512.56,769.61z"></path>	<path class="st37" d="M1538.5,767.73c0.19,0,0.47-0.09,0.66-0.28c1.13-1.03,2.73-1.69,4.61-1.78c0.56-0.09,0.94-0.56,0.94-1.13  c-0.09-0.56-0.56-1.03-1.13-1.03c-2.26,0.19-4.42,1.03-5.83,2.44c-0.38,0.38-0.38,1.03,0,1.41  C1537.94,767.64,1538.22,767.73,1538.5,767.73L1538.5,767.73z"></path>	<path class="st35" d="M1462.55,768.86c-1.79-25.08,17.01-46.96,42.2-48.74c5.45-0.47,6.49,17.66,3.2,22.16  c-23.69,32.31,17.77,98.8-34.31,102.56c-7.24,0.56-19.74,14.28-31.49,4.23C1440.37,824.18,1465,800.7,1462.55,768.86  L1462.55,768.86z"></path>	<path class="st22" d="M1618.96,1109.49c7.8-13.24,12.78-16.44,12.78-16.44c-10.62-1.5-20.87,8.83-33.84,16.44H1618.96z"></path></g><g class="st56">	<rect x="101.44" y="-1.09" class="st57" width="277.33" height="347.26"></rect>	<rect x="101.44" y="1330.83" class="st57" width="277.33" height="347.26"></rect></g></svg>