<svg xmlns="http://www.w3.org/2000/svg" xmlns:xlink="http://www.w3.org/1999/xlink" id="Illustration" x="0px" y="0px" viewBox="0 0 2560 1677" style="enable-background:new 0 0 2560 1677;" xml:space="preserve"><style type="text/css">	.st0{fill:#172063;}	.st1{fill:url(#SVGID_1_);}	.st2{fill:url(#SVGID_00000093866794578375837560000004722614552243678130_);}	.st3{fill:url(#SVGID_00000103944937064187408710000010710032528730362761_);}			.st4{fill:url(#SVGID_00000025419919871451723900000001733574223625707966_);stroke:#FFFFFF;stroke-width:0.5;stroke-miterlimit:10;}	.st5{fill:#FFFFFF;}	.st6{fill:#0067E2;}	.st7{fill:#0075EA;}	.st8{fill:#1F85FF;}	.st9{fill:#2D2D2D;}	.st10{fill:#0376D6;}	.st11{fill:url(#SVGID_00000035491487168061605180000006564470332391684274_);}	.st12{fill:#E2EAFF;}	.st13{fill:#0080FF;}	.st14{fill:#0D6EFD;}	.st15{fill:#0D77F7;}	.st16{display:none;}	.st17{display:inline;fill:#005FD1;}</style><g>	<rect x="-1.6" y="-1.1" class="st0" width="2563.1" height="1679.2"></rect>	<linearGradient id="SVGID_1_" gradientUnits="userSpaceOnUse" x1="473.1541" y1="468.3774" x2="-286.9116" y2="-453.2758">		<stop offset="0" style="stop-color:#121A24;stop-opacity:0"></stop>		<stop offset="0.5804" style="stop-color:#25272A;stop-opacity:0.5804"></stop>		<stop offset="1" style="stop-color:#2D2D2D"></stop>	</linearGradient>	<polygon class="st1" points="997.2,-1.1 -1.6,-1.1 -1.6,997.6  "></polygon>			<linearGradient id="SVGID_00000140720233483169490140000010157784593964696505_" gradientUnits="userSpaceOnUse" x1="476.4924" y1="1025.2993" x2="-283.5732" y2="103.646" gradientTransform="matrix(-1 0 0 -1 2563.3384 2233.9219)">		<stop offset="0" style="stop-color:#121A24;stop-opacity:0"></stop>		<stop offset="0.5804" style="stop-color:#25272A;stop-opacity:0.5804"></stop>		<stop offset="1" style="stop-color:#2D2D2D"></stop>	</linearGradient>	<polygon style="fill:url(#SVGID_00000140720233483169490140000010157784593964696505_);" points="1562.8,1678.1 2561.6,1678.1   2561.6,679.4  "></polygon></g><g>			<linearGradient id="SVGID_00000109718574244842053620000015263667433646160565_" gradientUnits="userSpaceOnUse" x1="1518.0392" y1="754.6607" x2="1935.1804" y2="754.6607">		<stop offset="0" style="stop-color:#0D77F7"></stop>		<stop offset="1" style="stop-color:#1F85FF"></stop>	</linearGradient>	<path style="fill:url(#SVGID_00000109718574244842053620000015263667433646160565_);" d="M1596.6,1134.7h260.1  c43.2,0,78.5-35.3,78.5-78.5V453.2c0-43.2-35.3-78.5-78.5-78.5h-260.1c-43.2,0-78.5,35.3-78.5,78.5v602.9  C1518,1099.3,1553.4,1134.7,1596.6,1134.7z"></path>			<linearGradient id="SVGID_00000182504390979217492980000015198661758583212688_" gradientUnits="userSpaceOnUse" x1="1538.5028" y1="753.6118" x2="1914.7169" y2="753.6118">		<stop offset="5.586590e-03" style="stop-color:#2163CF"></stop>		<stop offset="0.3677" style="stop-color:#2074E7"></stop>		<stop offset="0.7299" style="stop-color:#1F81F9"></stop>		<stop offset="0.9958" style="stop-color:#1F85FF"></stop>	</linearGradient>			<path style="fill:url(#SVGID_00000182504390979217492980000015198661758583212688_);stroke:#FFFFFF;stroke-width:0.5;stroke-miterlimit:10;" d="  M1598,1110.5h257.2c32.7,0,59.5-26.8,59.5-59.5V456.2c0-32.7-26.8-59.5-59.5-59.5H1598c-32.7,0-59.5,26.8-59.5,59.5V1051  C1538.5,1083.8,1565.3,1110.5,1598,1110.5z"></path>	<path class="st5" d="M1765.7,419.3h-82.9c-0.6,0-1.1-0.5-1.1-1.1c0-0.6,0.5-1.1,1.1-1.1h82.9c0.6,0,1.1,0.5,1.1,1.1  C1766.8,418.8,1766.3,419.3,1765.7,419.3z"></path>	<rect x="1581.4" y="507.3" class="st5" width="290.4" height="290.4"></rect>	<path class="st6" d="M1820.8,604c0-30.6-24.8-55.4-55.4-55.4h-9.7c-2.7,14.8-15.7,26.1-31.4,26.1c-15.6,0-28.6-11.2-31.4-26.1h-9.7  c-30.6,0-55.4,24.8-55.4,55.4v45.1h34.3v107.4h124.4V649.1h34.3V604z"></path>	<path class="st7" d="M1786.5,757.6H1662c-0.6,0-1.1-0.5-1.1-1.1V650.2h-33.2c-0.6,0-1.1-0.5-1.1-1.1V604  c0-31.2,25.4-56.6,56.6-56.6h9.7c0.5,0,1,0.4,1.1,0.9c2.7,14.6,15.4,25.1,30.3,25.1s27.6-10.6,30.3-25.1c0.1-0.5,0.6-0.9,1.1-0.9  h9.7c31.2,0,56.6,25.4,56.6,56.6v45.1c0,0.6-0.5,1.1-1.1,1.1h-33.2v106.3C1787.6,757.1,1787.1,757.6,1786.5,757.6z M1663.2,755.3  h122.2V649.1c0-0.6,0.5-1.1,1.1-1.1h33.2V604c0-29.9-24.4-54.3-54.3-54.3h-8.8c-3.3,15.2-16.7,26.1-32.3,26.1s-29-10.9-32.3-26.1  h-8.8c-29.9,0-54.3,24.4-54.3,54.3v43.9h33.2c0.6,0,1.1,0.5,1.1,1.1V755.3z"></path>	<path class="st7" d="M1661.9,649.5c-0.6,0-1.1-0.5-1.1-1.1v-21.6c0-0.6,0.5-1.1,1.1-1.1c0.6,0,1.1,0.5,1.1,1.1v21.6  C1663,649,1662.5,649.5,1661.9,649.5z"></path>	<path class="st7" d="M1786.5,650.6c-0.6,0-1.1-0.5-1.1-1.1v-22.7c0-0.6,0.5-1.1,1.1-1.1c0.6,0,1.1,0.5,1.1,1.1v22.7  C1787.6,650.1,1787.1,650.6,1786.5,650.6z"></path>	<path class="st5" d="M1750.4,476.4h-169c-0.6,0-1.1-0.5-1.1-1.1c0-0.6,0.5-1.1,1.1-1.1h169c0.6,0,1.1,0.5,1.1,1.1  C1751.5,475.9,1751,476.4,1750.4,476.4z"></path>	<path class="st5" d="M1869.6,824h-66.9c-0.6,0-1.1-0.5-1.1-1.1c0-0.6,0.5-1.1,1.1-1.1h66.9c0.6,0,1.1,0.5,1.1,1.1  C1870.7,823.5,1870.2,824,1869.6,824z"></path>	<path class="st5" d="M1872.9,982.2c0-32.8-26.6-59.4-59.4-59.4h-171.6c-32.8,0-59.4,26.6-59.4,59.4s26.6,59.4,59.4,59.4h171.6  C1846.3,1041.6,1872.9,1015,1872.9,982.2z"></path>	<g>		<path class="st6" d="M1685.8,982c2.6-0.8,4.7-2.1,6.2-4.1c1.8-2.3,2.7-5.3,2.7-8.7c0-4.8-1.6-8.5-4.8-11.1   c-3.2-2.5-7.9-3.8-14.1-3.8h-15.3v57.6h18.6c5.7,0,10.1-1.4,13.3-4.3c3.2-2.8,4.8-6.8,4.8-11.7c0-3.5-1.2-6.6-3.7-9.3   C1691.5,984.2,1688.9,982.7,1685.8,982z M1690.6,1005.6c-2.7,2.3-6.5,3.5-11.2,3.5h-16.2v-25.5h17c4.4,0.1,7.9,1.3,10.5,3.6   c2.6,2.3,3.9,5.2,3.9,8.7C1694.6,1000,1693.3,1003.3,1690.6,1005.6z M1688.2,978.1c-2.6,1.9-6.5,2.9-11.6,2.9h-13.4v-24.1h13.1   c10.6,0.1,15.7,4.1,15.7,12.1C1692,973.1,1690.7,976.1,1688.2,978.1z"></path>		<path class="st6" d="M1745.1,993c0,5.2-1.6,9.4-4.7,12.4c-3.1,3-7.3,4.5-12.4,4.5c-5.1,0-9.3-1.5-12.4-4.5   c-3.1-3-4.7-7.2-4.7-12.3v-38.8h-2.7v39c0,6,1.8,10.7,5.4,14.2c3.5,3.4,8.4,5.1,14.4,5.1c6,0,10.9-1.7,14.4-5.1   c3.5-3.4,5.3-8.2,5.3-14.3v-38.9h-2.7V993z"></path>		<polygon class="st6" points="1798.4,954.3 1778.6,987.4 1759,954.3 1755.6,954.3 1777.3,990 1777.3,1011.8 1780,1011.8 1780,990    1801.7,954.3   "></polygon>	</g>	<path class="st5" d="M1750.4,870.3h-169c-0.6,0-1.1-0.5-1.1-1.1c0-0.6,0.5-1.1,1.1-1.1h169c0.6,0,1.1,0.5,1.1,1.1  C1751.5,869.8,1751,870.3,1750.4,870.3z"></path>			<rect x="1286.5" y="565.3" transform="matrix(-1.836970e-16 1 -1 -1.836970e-16 2124.7441 -629.8049)" class="st8" width="181.6" height="364.3"></rect>	<path class="st5" d="M1559.4,839.4h-364.3c-0.6,0-1.1-0.5-1.1-1.1V656.7c0-0.6,0.5-1.1,1.1-1.1h364.3c0.6,0,1.1,0.5,1.1,1.1v181.6  C1560.6,838.9,1560.1,839.4,1559.4,839.4z M1196.2,837.2h362.1V657.8h-362.1V837.2z"></path>	<g>		<g>			<path class="st5" d="M1531.3,791.4h-308c-0.6,0-1.1-0.5-1.1-1.1c0-0.6,0.5-1.1,1.1-1.1h308c0.6,0,1.1,0.5,1.1,1.1    C1532.4,790.9,1531.9,791.4,1531.3,791.4z"></path>		</g>		<g>							<ellipse transform="matrix(0.3827 -0.9239 0.9239 0.3827 186.5694 1859.6857)" class="st5" cx="1484.9" cy="790.2" rx="10.1" ry="10.1"></ellipse>			<path class="st6" d="M1484.9,801.4c-6.2,0-11.2-5-11.2-11.2s5-11.2,11.2-11.2c6.2,0,11.2,5,11.2,11.2S1491.1,801.4,1484.9,801.4z     M1484.9,781.3c-4.9,0-9,4-9,9s4,9,9,9c4.9,0,9-4,9-9S1489.8,781.3,1484.9,781.3z"></path>		</g>	</g>	<g>		<g>			<path class="st5" d="M1531.3,747.8h-308c-0.6,0-1.1-0.5-1.1-1.1s0.5-1.1,1.1-1.1h308c0.6,0,1.1,0.5,1.1,1.1    S1531.9,747.8,1531.3,747.8z"></path>		</g>		<g>			<circle class="st5" cx="1277.8" cy="746.4" r="10.1"></circle>			<path class="st6" d="M1277.8,757.6c-6.2,0-11.2-5-11.2-11.2c0-6.2,5-11.2,11.2-11.2c6.2,0,11.2,5,11.2,11.2    C1289,752.6,1284,757.6,1277.8,757.6z M1277.8,737.4c-4.9,0-9,4-9,9c0,4.9,4,9,9,9c4.9,0,9-4,9-9    C1286.7,741.5,1282.7,737.4,1277.8,737.4z"></path>		</g>	</g>	<g>		<g>			<path class="st5" d="M1531.3,704.3h-308c-0.6,0-1.1-0.5-1.1-1.1c0-0.6,0.5-1.1,1.1-1.1h308c0.6,0,1.1,0.5,1.1,1.1    C1532.4,703.7,1531.9,704.3,1531.3,704.3z"></path>		</g>		<g>							<ellipse transform="matrix(0.1602 -0.9871 0.9871 0.1602 484.2985 1974.9541)" class="st5" cx="1402.8" cy="702.9" rx="10.1" ry="10.1"></ellipse>			<path class="st6" d="M1402.8,714.1c-6.2,0-11.2-5-11.2-11.2c0-6.2,5-11.2,11.2-11.2c6.2,0,11.2,5,11.2,11.2    C1414,709,1409,714.1,1402.8,714.1z M1402.8,693.9c-4.9,0-9,4-9,9c0,4.9,4,9,9,9c4.9,0,9-4,9-9    C1411.8,697.9,1407.7,693.9,1402.8,693.9z"></path>		</g>	</g>	<g>		<g>			<polygon class="st6" points="1449.2,1213.2 1476.7,1303 1215.8,1303 1214.4,1273.6    "></polygon>			<path d="M1476.2,1304c-0.5,0-0.9-0.3-1.1-0.8l-23.6-81c-0.2-0.6,0.2-1.2,0.8-1.4c0.6-0.2,1.2,0.2,1.4,0.8l23.6,81    c0.2,0.6-0.2,1.2-0.8,1.4C1476.4,1304,1476.3,1304,1476.2,1304z"></path>		</g>		<g>			<g>				<g>					<path class="st9" d="M1381.8,819c4.7-7.1,8.7-15.9,5.9-24.1c-2.9-8.6-13.7-13.5-22-10c3.5-6.1,6.4-12.6,8.5-19.3      c-22.8-0.7-46.3,3.4-65.8,15.2c-19.5,11.8-34.5,32.3-36.3,55c-0.8,9.5,0.9,19.5,6.5,27.1c5.9,8,15.5,12.6,25.2,15      c12.6,3.1,26.5,3.1,38-3c7.7-4.1,14.1-11.2,16.8-19.6c0.7-2.1,1.2-4.3,1.3-6.6c0.1-1.6-0.7-4.6-0.1-6c0.7-1.7,3.9-3.4,5.3-4.6      c2-1.7,3.9-3.6,5.7-5.5C1374.9,828.4,1378.6,823.9,1381.8,819z"></path>					<path class="st9" d="M1360.8,820c-0.3,0-0.6-0.1-0.8-0.3c-0.4-0.4-0.4-1.1,0-1.6c4.8-4.8,8.3-10.8,10.2-17.2      c0.2-0.6,0.8-0.9,1.4-0.8c0.6,0.2,0.9,0.8,0.8,1.4c-2,6.8-5.7,13.1-10.7,18.2C1361.3,819.9,1361,820,1360.8,820z"></path>				</g>				<path class="st5" d="M1358.7,943.1l-12.8-1.4l3.4-43.6c0,0-10.6-53.1-51.4-13.4l-7.5,59.2l-12,1.5c0,0,4.9,27.6,39.1,27.5     C1346.6,972.8,1359.2,962.9,1358.7,943.1z"></path>				<path class="st9" d="M1283.2,945.8c-0.6,0-1-0.4-1.1-1c-0.1-0.6,0.4-1.2,1-1.3l6.3-0.8l7.4-58.3c0-0.3,0.1-0.5,0.3-0.7     c12.7-12.3,23.9-17.1,33.4-14.2c15.1,4.7,19.8,27.3,20,28.2c0,0.1,0,0.2,0,0.3l-3.3,42.5l6.4,0.7c0.6,0.1,1.1,0.6,1,1.2     c-0.1,0.6-0.6,1.1-1.2,1l-7.5-0.8c-0.6-0.1-1-0.6-1-1.2l3.4-43.4c-0.4-1.9-5.2-22.3-18.4-26.4c-8.5-2.6-18.9,1.9-30.8,13.4     l-7.4,58.8c-0.1,0.5-0.5,0.9-1,1l-7.1,0.9C1283.3,945.8,1283.2,945.8,1283.2,945.8z"></path>				<g>					<path class="st5" d="M1316.7,886.7c6.1,5.2,13.4,9.3,21.3,10.8c7.9,1.5,16.5,0.3,23.2-4.2c11.2-7.5,15.3-22.6,13.3-35.9      c-2-13.3-8.9-25.4-15.8-36.9c0,0-26.3,20.2-50.5,23.4c-3.1,7.8-3.4,15.5-1.7,23c0,0-5.4-4.9-10.3-1.7c-5.3,3.5-7.5,11-4.9,16.8      s9.2,9.4,15.6,8.8C1310.6,890.4,1313.8,889.7,1316.7,886.7z"></path>					<path class="st9" d="M1344.5,899.2c-2.2,0-4.5-0.2-6.7-0.6c-7.2-1.4-14.5-5-21.1-10.4c-3.1,2.8-6.6,3.4-9.7,3.7      c-7,0.7-14-3.3-16.7-9.4c-2.8-6.3-0.4-14.5,5.3-18.2c3.5-2.3,7-1.1,9.3,0.1c-1.2-7.1-0.4-14.1,2.3-20.9      c0.1-0.4,0.5-0.6,0.9-0.7c23.6-3.2,49.7-23,49.9-23.2c0.3-0.2,0.6-0.3,0.9-0.2c0.3,0.1,0.6,0.3,0.8,0.5      c6.2,10.4,13.9,23.3,16,37.4c2.3,15.4-3.1,29.9-13.8,37C1357,897.5,1350.9,899.2,1344.5,899.2z M1316.7,885.6      c0.3,0,0.5,0.1,0.7,0.3c6.5,5.6,13.7,9.2,20.8,10.6c8.1,1.5,16.2,0.1,22.4-4c11.3-7.5,14.6-22.9,12.8-34.8      c-2-13.1-9.1-25.4-15-35.5c-5.1,3.7-27.7,19.6-49.3,22.8c-2.7,7.2-3.1,14.3-1.4,21.7c0.1,0.5-0.1,1-0.5,1.2      c-0.4,0.2-1,0.2-1.3-0.1c-0.2-0.2-4.8-4.2-8.9-1.5c-4.8,3.2-6.8,10.1-4.5,15.4c2.3,5.3,8.4,8.7,14.4,8.1c3.7-0.4,6.6-1.1,9-3.7      C1316.1,885.7,1316.4,885.6,1316.7,885.6z"></path>				</g>				<path class="st9" d="M1311.7,880.7c-0.1,0-0.2,0-0.3,0c-3.2-0.7-6.2-2-9-3.7c-0.5-0.3-0.7-1-0.4-1.5c0.3-0.5,1-0.7,1.5-0.4     c2.6,1.6,5.4,2.7,8.3,3.4c0.6,0.1,1,0.7,0.8,1.3C1312.6,880.4,1312.2,880.7,1311.7,880.7z"></path>			</g>		</g>		<g>			<g>				<path class="st8" d="M1439.7,1078.5c0,0,135.2,85.1,177.3-63.6c-21.9-12.6-48-29.9-55.2-59.8c0,0-19.1,41.9-40.7,33.7     c-52.4-20.1-92.8-41.7-162.4-46.3c-1.4,4.4-3.3,8.6-6.3,12.2c-5.6,6.9-14.6,10.7-23.2,12.1c-8.3,1.3-17,0.9-25.1-1.4     c-7.3-2-14.4-5.7-19.7-11.1c-2.5-2.5-4.5-5.3-6-8.3c-50.3,4-81.9,10.1-108.4,42.5c-34.2,41.8-62.7,120.3-54.4,170     c8.3,49.6,31.1,65,60.2,74.5l-1.3,26.8c-1.4,29.7,28,51.2,55.9,40.9l232.4-86.1c11.3-4.2,17.2-16.6,13.4-28L1439.7,1078.5z"></path>				<path class="st9" d="M1439.1,1077.4c-0.5,0-0.9-0.3-1.1-0.8l-6.3-18.7c-0.2-0.6,0.1-1.2,0.7-1.4c0.6-0.2,1.2,0.1,1.4,0.7     l6.3,18.7c0.2,0.6-0.1,1.2-0.7,1.4C1439.3,1077.4,1439.2,1077.4,1439.1,1077.4z"></path>			</g>			<g>				<path class="st5" d="M1559.4,961c15.5-38.8,27.3-79.5,49.7-114.7c2-3.1,4.1-6.3,7.3-8.1c3.2-1.9,7.6-2.1,10.2,0.5     c2.7,2.6,2.5,6.9,2,10.6c-1.7,11.6-6,24.7-12.1,34.7c0,0,15.7-4.8,21.6,9.3c0,0,9.4-2.6,13.5,15.9c0,0,11.2,10.7,3,23.6     c-5.9,9.3-12.4,9.9-12.4,9.9s-11.1,48.7-23.6,69.5C1606.4,1033,1551.1,981.8,1559.4,961z"></path>				<path class="st9" d="M1620.2,1011.3c-0.1,0-0.3,0-0.4-0.1c-0.6-0.2-0.8-0.9-0.6-1.5c9.6-23,22-67,22.2-67.4     c0.1-0.4,0.5-0.8,1-0.8c0.1,0,6.1-0.7,11.5-9.4c7.6-12-2.8-22.1-2.9-22.2c-0.2-0.2-0.3-0.4-0.3-0.6c-2-9-5.2-12.6-7.6-14.1     c-2.5-1.5-4.4-1-4.5-1c-0.5,0.1-1.1-0.1-1.3-0.7c-5.4-13.1-19.7-8.9-20.3-8.7c-0.4,0.1-0.9,0-1.2-0.4c-0.3-0.4-0.3-0.9-0.1-1.3     c5.7-9.3,10.1-22.1,11.9-34.3c0.4-3,0.7-7.2-1.7-9.6c-2.3-2.3-6.3-1.9-8.9-0.3c-2.9,1.7-4.9,4.7-6.9,7.8     c-16.6,26.1-28.5,58.1-40,89c-3.3,8.9-6.4,17.2-9.6,25.5c-0.2,0.6-0.9,0.9-1.5,0.6c-0.6-0.2-0.9-0.9-0.6-1.5     c3.2-8.2,6.3-16.6,9.6-25.4c11.5-31,23.5-63.1,40.2-89.4c2-3.2,4.3-6.5,7.7-8.5c3.4-2,8.5-2.4,11.6,0.7     c3.1,3.1,2.8,8.1,2.3,11.5c-1.7,11.5-5.7,23.7-10.9,33c4.8-0.7,15.2-0.9,20.1,9.7c1.1-0.1,3.1,0,5.2,1.3c4,2.4,6.9,7.5,8.6,15.3     c1.7,1.8,10.8,12.3,3,24.8c-5,7.9-10.4,9.8-12.4,10.3c-1.6,5.7-13.1,45.4-22.1,67C1621.1,1011,1620.6,1011.3,1620.2,1011.3z"></path>				<path class="st9" d="M1626.4,937.6c-0.6,0-1.2-0.1-1.8-0.2c-2.4-0.5-4.6-2.2-5.8-4.5c-1-2-1.2-4.1-0.3-6     c0.3-0.6,0.9-0.8,1.5-0.6c0.6,0.3,0.8,0.9,0.6,1.5c-0.5,1.2-0.4,2.7,0.3,4c0.9,1.7,2.5,3,4.2,3.3c3.6,0.7,7.2-1.6,9.2-4.2     c2.2-3,3.3-6.8,4.1-10.6c1-4.9,2.1-11.4,1.2-17.8c-0.3-2.2-0.9-4.4-1.7-6.4c-0.2-0.6,0-1.2,0.6-1.5c0.6-0.2,1.2,0,1.5,0.6     c0.9,2.2,1.5,4.5,1.8,6.9c1,6.7-0.1,13.4-1.2,18.5c-0.8,4-2,8.1-4.5,11.5C1633.5,935.7,1629.9,937.6,1626.4,937.6z"></path>				<path class="st9" d="M1597.8,942.5c-1.4,0-2.9-0.4-4.1-1.3c-0.5-0.4-0.6-1.1-0.2-1.6c0.4-0.5,1.1-0.6,1.6-0.2     c2.4,1.8,6.2,0.6,8.3-1.8c1.9-2.2,3-5.1,4-8c0.2-0.5,0.4-1,0.5-1.5c1.2-3.3,3-7.4,6.7-9.4c2.1-1.1,4.4-1.5,6.6-1.8     c2.3-0.3,4.5-0.6,6.2-1.8c1.7-1.1,2.7-3,3-5.3c0.3-2.9-0.7-6.1-2.6-8.1c-4.3-4.6-11.2-4.9-15-4.6c-6.9,0.4-13.5,2.8-19.1,6.7     c-0.5,0.4-1.2,0.2-1.6-0.3c-0.4-0.5-0.2-1.2,0.3-1.6c6-4.2,13-6.6,20.2-7.1c4.1-0.3,11.8,0.1,16.8,5.3c2.4,2.5,3.6,6.3,3.2,9.9     c-0.3,3-1.8,5.4-4,6.9c-2.2,1.4-4.7,1.8-7.1,2.1c-2.1,0.3-4.1,0.6-5.8,1.5c-3,1.7-4.6,5.3-5.6,8.2c-0.2,0.5-0.3,1-0.5,1.5     c-1.1,3.1-2.2,6.2-4.4,8.7C1603.3,941.2,1600.5,942.5,1597.8,942.5z"></path>				<path class="st9" d="M1634.5,942.4c-3,0-5.8-1.6-7-4c-0.3-0.5-0.1-1.2,0.5-1.5c0.5-0.3,1.2-0.1,1.5,0.5c0.9,1.8,3.1,2.9,5.3,2.8     c2.1-0.1,4.2-1.1,6-2.8c1.8-1.7,3.1-3.9,4.2-5.9c3.5-6.5,5.3-12.4,5.4-17.9c0-0.6,0.5-1.1,1.1-1.1c0.6,0,1.1,0.5,1.1,1.1     c-0.1,5.9-1.9,12.1-5.6,19c-1.1,2.1-2.6,4.5-4.6,6.4c-2.2,2.1-4.9,3.4-7.5,3.5C1634.7,942.4,1634.6,942.4,1634.5,942.4z"></path>				<path d="M1641.8,943.3c-0.1,0-0.2,0-0.4-0.1c-1.2-0.4-2.3-1-3.3-1.9c-0.5-0.4-0.5-1.1-0.1-1.6c0.4-0.5,1.1-0.5,1.6-0.1     c0.7,0.6,1.6,1.1,2.5,1.5c0.6,0.2,0.9,0.8,0.7,1.4C1642.7,943,1642.2,943.3,1641.8,943.3z"></path>			</g>			<path class="st10" d="M1443.2,997.8h-117.1c-1.7,0-3.1,1.1-3.6,2.7l-44.5,149.9c-0.7,2.4,1.1,4.9,3.6,4.9h117.1    c1.7,0,3.1-1.1,3.6-2.7l44.5-149.9C1447.5,1000.2,1445.7,997.8,1443.2,997.8z"></path>			<g>				<g>					<path class="st5" d="M1383,1114.6c5-4.8,8.1-10.1,4.9-15.3c-3.2-5.2-11.3-6.4-15.9-2.4c3.4-2.7,6.9-5.4,8.9-9.2      c2.1-3.8,2.3-8.9-0.5-12.2c-2.5-2.9-6.8-3.6-10.5-2.7c-1.8,0.4-3.6,1.1-5.2,2c1.6-2.4,2.1-5.8,0.7-8.5c-2.3-4.5-8-6.4-13-5.9      c-5,0.6-9.6,3.1-14,5.6c-29.6,16.6-88,50.4-88,50.4c-1.5,8.4,29.2,76.1,40.9,87.4c7.5-2.3,64-47.5,85.4-65.8      c3.6-3.1,7.3-6.3,9.1-10.7C1387.6,1123,1387,1117.2,1383,1114.6z"></path>					<path class="st9" d="M1330.1,1098.4c-0.4,0-0.7-0.2-1-0.5c-0.3-0.5-0.2-1.2,0.4-1.5c10.8-6.6,21.6-13.6,32.1-20.7      c0.5-0.3,1.2-0.2,1.6,0.3c0.3,0.5,0.2,1.2-0.3,1.6c-10.6,7.1-21.4,14-32.2,20.7C1330.5,1098.3,1330.3,1098.4,1330.1,1098.4z"></path>					<path class="st9" d="M1343.8,1118.6c-0.3,0-0.7-0.2-0.9-0.5c-0.4-0.5-0.2-1.2,0.3-1.6l27.9-19.9c0.5-0.4,1.2-0.2,1.6,0.3      c0.4,0.5,0.2,1.2-0.3,1.6l-27.9,19.9C1344.3,1118.6,1344,1118.6,1343.8,1118.6z"></path>					<path class="st9" d="M1356.9,1135.2c-0.4,0-0.7-0.2-0.9-0.5c-0.3-0.5-0.2-1.2,0.3-1.6c8.5-5.7,16.8-11.9,24.6-18.4      c0.5-0.4,1.2-0.3,1.6,0.2c0.4,0.5,0.3,1.2-0.2,1.6c-7.9,6.5-16.3,12.8-24.8,18.5C1357.3,1135.2,1357.1,1135.2,1356.9,1135.2z"></path>				</g>				<path class="st9" d="M1202,1237.5c-8,0-15.9-0.6-23.8-1.9c-0.6-0.1-1-0.7-0.9-1.3c0.1-0.6,0.7-1,1.3-0.9     c39,6.3,79.6-3.4,111.4-26.9c0.5-0.4,1.2-0.3,1.6,0.2c0.4,0.5,0.3,1.2-0.2,1.6C1265.4,1227.4,1233.8,1237.5,1202,1237.5z"></path>				<path class="st9" d="M1184.5,1155.9c-0.4,0-0.8-0.2-1-0.6c-0.3-0.5-0.1-1.2,0.4-1.5l62.7-36.2c0.5-0.3,1.2-0.1,1.5,0.4     c0.3,0.5,0.1,1.2-0.4,1.5l-62.7,36.2C1184.9,1155.8,1184.7,1155.9,1184.5,1155.9z"></path>				<path class="st9" d="M1204.6,1139.8c-0.1,0-0.2,0-0.2,0c-0.6-0.1-1-0.7-0.9-1.3l16.9-82.3c0.1-0.6,0.7-1,1.3-0.9     c0.6,0.1,1,0.7,0.9,1.3l-16.9,82.3C1205.6,1139.5,1205.1,1139.8,1204.6,1139.8z"></path>			</g>		</g>	</g>	<g>		<g>			<g>				<circle class="st6" cx="1287.8" cy="500.1" r="76.2"></circle>				<path class="st5" d="M1287.8,577.5c-42.7,0-77.4-34.7-77.4-77.4c0-42.7,34.7-77.4,77.4-77.4s77.4,34.7,77.4,77.4     C1365.2,542.8,1330.5,577.5,1287.8,577.5z M1287.8,425c-41.4,0-75.1,33.7-75.1,75.1s33.7,75.1,75.1,75.1s75.1-33.7,75.1-75.1     S1329.2,425,1287.8,425z"></path>			</g>			<g>				<circle class="st6" cx="1307.7" cy="500.1" r="76.2"></circle>				<path class="st5" d="M1307.7,577.5c-42.7,0-77.4-34.7-77.4-77.4c0-42.7,34.7-77.4,77.4-77.4s77.4,34.7,77.4,77.4     C1385,542.8,1350.3,577.5,1307.7,577.5z M1307.7,425c-41.4,0-75.1,33.7-75.1,75.1s33.7,75.1,75.1,75.1s75.1-33.7,75.1-75.1     S1349.1,425,1307.7,425z"></path>			</g>			<g>				<circle class="st6" cx="1326.9" cy="500.1" r="76.2"></circle>				<path class="st5" d="M1326.9,577.5c-42.7,0-77.4-34.7-77.4-77.4c0-42.7,34.7-77.4,77.4-77.4c42.7,0,77.4,34.7,77.4,77.4     C1404.2,542.8,1369.5,577.5,1326.9,577.5z M1326.9,425c-41.4,0-75.1,33.7-75.1,75.1s33.7,75.1,75.1,75.1s75.1-33.7,75.1-75.1     S1368.3,425,1326.9,425z"></path>			</g>			<g>									<ellipse transform="matrix(0.1545 -0.988 0.988 0.1545 627.7061 1733.743)" class="st6" cx="1326.9" cy="500.1" rx="59.9" ry="59.9"></ellipse>				<path class="st5" d="M1326.9,561.2c-33.7,0-61.1-27.4-61.1-61.1s27.4-61.1,61.1-61.1c33.7,0,61.1,27.4,61.1,61.1     S1360.5,561.2,1326.9,561.2z M1326.9,441.3c-32.4,0-58.8,26.4-58.8,58.8c0,32.4,26.4,58.8,58.8,58.8c32.4,0,58.8-26.4,58.8-58.8     C1385.7,467.7,1359.3,441.3,1326.9,441.3z"></path>			</g>			<path class="st5" d="M1343,507c-0.6-1.5-1.5-2.9-2.8-4.2c-1.2-1.2-2.8-2.3-4.7-3.3c-1.9-0.9-4.6-2-8-3.2    c-3.4-1.2-6.2-2.4-8.1-3.5c-1.9-1.2-3.2-2.5-4-3.9c-0.8-1.4-1.2-3.4-1.2-5.8c0-3.4,1.2-6.2,3.6-8.4c2.4-2.2,5.7-3.3,9.7-3.3    c4.2,0,7.5,1.3,9.9,3.9c2.4,2.6,3.6,6,3.6,10.3c0,0.1,0.1,0.3,0.3,0.3h2.1c0.1,0,0.3-0.1,0.3-0.3c0-5-1.3-9-3.9-11.9    c-2.5-2.9-6.2-4.4-10.8-4.7v-6.9c0-0.1-0.1-0.3-0.3-0.3h-2.1c-0.1,0-0.3,0.1-0.3,0.3v6.9c-4.3,0.2-7.9,1.6-10.6,4    c-2.8,2.5-4.2,6-4.2,10.2c0,2.6,0.5,4.8,1.4,6.6c0.9,1.8,2.4,3.4,4.4,4.8c1.9,1.3,5,2.7,9.1,4.2c4,1.4,7.1,2.7,9.2,4    c2,1.2,3.5,2.6,4.4,4.1c0.9,1.5,1.3,3.3,1.3,5.6c0,3.3-1.3,6-3.8,8.3c-2.5,2.2-5.8,3.4-9.7,3.4c-4.7,0-8.5-1.3-11.3-3.7    c-2.7-2.5-4.1-6-4.1-10.4c0-0.1-0.1-0.3-0.3-0.3h-2.1c-0.1,0-0.3,0.1-0.3,0.3c0,5.1,1.5,9.1,4.5,12c2.9,2.8,7.1,4.4,12.4,4.7v6.9    c0,0.1,0.1,0.3,0.3,0.3h2.1c0.1,0,0.3-0.1,0.3-0.3v-6.9c4.4-0.3,7.9-1.7,10.5-4.2c2.7-2.5,4-5.9,4-10    C1343.9,510.3,1343.6,508.5,1343,507z"></path>		</g>	</g>			<linearGradient id="SVGID_00000033354062696797670120000001851458364149196975_" gradientUnits="userSpaceOnUse" x1="2025.0476" y1="902.9946" x2="2312.376" y2="902.9946">		<stop offset="0" style="stop-color:#0D77F7"></stop>		<stop offset="1" style="stop-color:#1F85FF"></stop>	</linearGradient>			<rect x="2025" y="801" style="fill:url(#SVGID_00000033354062696797670120000001851458364149196975_);" width="287.3" height="204"></rect>	<g>		<path class="st5" d="M2325.4,1131.3h-368c-0.6,0-1.1-0.5-1.1-1.1v-113.1c0-0.6,0.5-1.1,1.1-1.1h368c0.6,0,1.1,0.5,1.1,1.1v113.1   C2326.5,1130.8,2326,1131.3,2325.4,1131.3z M1958.5,1129.1h365.7v-110.9h-365.7V1129.1z"></path>		<path class="st5" d="M2340.1,1152.4H1926c-0.5,0-0.9-0.3-1.1-0.7l-94.2-259.9c-0.2-0.6,0.1-1.2,0.7-1.4c0.6-0.2,1.2,0.1,1.4,0.7   l94,259.2h412.5l81.6-291.8c0.1-0.5,0.6-0.8,1.1-0.8h86.5c0.6,0,1.1,0.5,1.1,1.1s-0.5,1.1-1.1,1.1h-85.6l-81.6,291.8   C2341.1,1152.1,2340.6,1152.4,2340.1,1152.4z"></path>		<path class="st5" d="M2411.5,897.2h-355.3c-0.6,0-1.1-0.5-1.1-1.1c0-0.6,0.5-1.1,1.1-1.1h355.3c0.6,0,1.1,0.5,1.1,1.1   C2412.6,896.7,2412.1,897.2,2411.5,897.2z"></path>		<path class="st5" d="M2390.5,972.4h-253.2c-0.6,0-1.1-0.5-1.1-1.1c0-0.6,0.5-1.1,1.1-1.1h253.2c0.6,0,1.1,0.5,1.1,1.1   C2391.6,971.9,2391.1,972.4,2390.5,972.4z"></path>		<path class="st5" d="M2250.6,1152.4c-0.6,0-1.1-0.5-1.1-1.1V931.5c0-0.6,0.5-1.1,1.1-1.1c0.6,0,1.1,0.5,1.1,1.1v219.9   C2251.7,1151.9,2251.2,1152.4,2250.6,1152.4z"></path>		<path class="st5" d="M2020.4,1279.8c-0.2,0-0.3,0-0.5-0.1c-0.6-0.3-0.8-0.9-0.5-1.5c15-30.3,32.6-54,52.2-70.4   c19.7-16.5,40.6-24.8,62-24.8H2340c0.6,0,1.1,0.5,1.1,1.1v94.6c0,0.6-0.5,1.1-1.1,1.1c-0.6,0-1.1-0.5-1.1-1.1v-93.5h-205.3   c-41.7,0-82.6,34.2-112.1,94C2021.2,1279.5,2020.8,1279.8,2020.4,1279.8z"></path>	</g>	<g>		<circle class="st5" cx="2339.2" cy="1266.8" r="26.8"></circle>		<path class="st5" d="M2339.2,1294.7c-15.4,0-27.9-12.5-27.9-27.9c0-15.4,12.5-27.9,27.9-27.9c15.4,0,27.9,12.5,27.9,27.9   C2367.1,1282.2,2354.6,1294.7,2339.2,1294.7z M2339.2,1241.1c-14.2,0-25.7,11.5-25.7,25.7s11.5,25.7,25.7,25.7   c14.2,0,25.7-11.5,25.7-25.7S2353.3,1241.1,2339.2,1241.1z"></path>	</g>	<g>		<circle class="st5" cx="2025.1" cy="1266.8" r="26.8"></circle>		<path class="st5" d="M2025.1,1294.7c-15.4,0-27.9-12.5-27.9-27.9c0-15.4,12.5-27.9,27.9-27.9c15.4,0,27.9,12.5,27.9,27.9   C2053,1282.2,2040.5,1294.7,2025.1,1294.7z M2025.1,1241.1c-14.2,0-25.7,11.5-25.7,25.7s11.5,25.7,25.7,25.7   c14.2,0,25.7-11.5,25.7-25.7S2039.2,1241.1,2025.1,1241.1z"></path>	</g>	<g>		<g>							<ellipse transform="matrix(0.5212 -0.8535 0.8535 0.5212 613.198 1965.3385)" class="st12" cx="2058.1" cy="436.2" rx="13.5" ry="13.5"></ellipse>							<ellipse transform="matrix(0.9903 -0.1392 0.1392 0.9903 -41.067 285.2415)" class="st12" cx="2018.6" cy="436.2" rx="13.5" ry="13.5"></ellipse>							<ellipse transform="matrix(0.8478 -0.5303 0.5303 0.8478 69.8995 1115.9392)" class="st12" cx="1979.1" cy="436.2" rx="13.5" ry="13.5"></ellipse>		</g>		<path class="st5" d="M2124.5,517.9c-0.6,0-1.1-0.5-1.1-1.1v-81.1h-31.9c-0.6,0-1.1-0.5-1.1-1.1s0.5-1.1,1.1-1.1h33   c0.6,0,1.1,0.5,1.1,1.1v82.3C2125.6,517.4,2125.1,517.9,2124.5,517.9z"></path>	</g>	<g>		<g>							<ellipse transform="matrix(0.5257 -0.8507 0.8507 0.5257 230.007 1496.8723)" class="st12" cx="1457.4" cy="542.2" rx="13.5" ry="13.5"></ellipse>							<ellipse transform="matrix(0.9821 -0.1882 0.1882 0.9821 -68.5568 283.2652)" class="st12" cx="1457.4" cy="502.7" rx="13.5" ry="13.5"></ellipse>							<ellipse transform="matrix(0.842 -0.5394 0.5394 0.842 -19.6142 859.3054)" class="st12" cx="1457.4" cy="463.1" rx="13.5" ry="13.5"></ellipse>		</g>		<path class="st5" d="M1459.1,635.4c-0.6,0-1.1-0.5-1.1-1.1v-58.7c0-0.6,0.5-1.1,1.1-1.1s1.1,0.5,1.1,1.1v58.7   C1460.2,634.9,1459.7,635.4,1459.1,635.4z"></path>	</g>	<g>		<path class="st9" d="M2390.4,563.8c-1.9-21.4-16.3-39.5-31-55.1c-32-33.9-68.6-63.1-107.4-89c-11.3-7.5-23.1-14.9-36.3-18   c-13.2-3.1-28.3-1.4-38.4,7.6c-12,10.7-14.3,28.5-13.3,44.6c3,46.1,28.3,90.3,66.7,116c29.5,19.8,65.9,28.3,101.2,24.7   C2357.2,592,2394,604.7,2390.4,563.8z"></path>		<g>			<g>				<path class="st5" d="M2182.5,680.6l-56.6-26.6l-137.4-19c-57.9-8-99.5,54.4-69.7,104.7l85.3,144.1v-85.7h88.2l-47.4-59.5     C2045,738.6,2199.8,742.3,2182.5,680.6z"></path>			</g>			<g>				<path class="st6" d="M2209.4,691.8l-83.5-37.8l-137.4-19c-57.9-8-99.5,54.4-69.7,104.7l60.5,102.1V801h115.4l-49.7-62.4     C2045,738.6,2226.7,753.5,2209.4,691.8z"></path>			</g>			<path class="st6" d="M2196.3,698.9l-116.9-2.9c-56.3-1.4-107.9,31.3-130.7,82.8c-37.4,84.5-95.8,208.5-137.1,259.2    c-4.9,6,0.1,14.8,7.7,13.8l116.8-15.3c18.9-2.5,35.5-13.7,44.8-30.2l107.4-190.3c0,0,215,10.4,196-32.2    C2265.3,741.1,2196.3,698.9,2196.3,698.9z"></path>			<path class="st9" d="M1818.2,1053c-3.5,0-6.6-1.8-8.3-4.9c-2-3.5-1.6-7.6,0.9-10.8c7.8-9.6,16.6-22.3,26.2-37.9    c0.3-0.5,1-0.7,1.5-0.4c0.5,0.3,0.7,1,0.4,1.5c-9.7,15.6-18.5,28.5-26.4,38.1c-2.3,2.9-1.9,6.2-0.7,8.3c1.2,2.1,3.7,4.2,7.4,3.7    l116.8-15.3c18.4-2.4,34.9-13.5,44-29.7l3.5-6.2c0.3-0.5,1-0.7,1.5-0.4c0.5,0.3,0.7,1,0.4,1.5l-3.5,6.2    c-9.5,16.8-26.5,28.3-45.6,30.8l-116.8,15.3C1819.1,1052.9,1818.6,1053,1818.2,1053z"></path>			<path class="st6" d="M1965.7,997.3c-9.3,0.8-18.5,1.6-27.8,2.1c-9.3,0.5-18.6,0.6-27.9,0.6c-18.6-0.1-37.3-0.3-55.9-1.1    c-5-0.2-9.9-0.5-14.9-0.8c37.1-60.5,79.9-152.3,109.6-219.3c22.8-51.5,74.4-84.2,130.7-82.8l116.9,2.9c0,0,69,42.2,88,84.8    c19,42.6-196,32.2-196,32.2l-101.3,179.5C1979.9,996,1972.8,996.7,1965.7,997.3z"></path>			<path class="st9" d="M1948.8,779.9c-0.2,0-0.3,0-0.5-0.1c-0.6-0.3-0.8-0.9-0.6-1.5c23.1-52.1,74.8-84.9,131.7-83.4l102.1,2.6    c0.6,0,1.1,0.5,1.1,1.1c0,0.6-0.5,1.1-1.1,1.1l-102.1-2.6c-56-1.4-106.9,30.8-129.6,82.1C1949.6,779.6,1949.2,779.9,1948.8,779.9    z"></path>			<path class="st9" d="M2045,817.2c-0.6,0-1.1-0.5-1.1-1.1c0-0.6,0.5-1.1,1.1-1.1l37.5-0.1c0,0,0,0,0,0c0.6,0,1.1,0.5,1.1,1.1    c0,0.6-0.5,1.1-1.1,1.1L2045,817.2C2045,817.2,2045,817.2,2045,817.2z"></path>			<g>				<path class="st6" d="M2125.9,654l60.1,43.9c0,0,60.3,54.3,64.8,111.4c0,0,117.1-12.4,84.6-141.8l-148.3-4.2L2125.9,654z"></path>			</g>		</g>		<g>			<g>				<path class="st8" d="M2321.2,682.1L2277.4,506c0,0-80.8-1.6-109.2,4.8c0,0-3.1,143.1-4.6,171.4H2321.2z"></path>				<g>					<path class="st8" d="M2115.9,652.1c0,0,23.8-142.7,52.4-141.3l-4.6,141.3H2115.9z"></path>					<path class="st9" d="M2163.7,653.2h-47.8c-0.3,0-0.6-0.1-0.9-0.4c-0.2-0.3-0.3-0.6-0.3-0.9c0.1-0.4,6.1-36.1,15.5-71.3      c12.8-47.7,25.6-71.6,38.1-71c0.6,0,1.1,0.5,1.1,1.2l-4.6,141.3C2164.8,652.7,2164.3,653.2,2163.7,653.2z M2117.2,651h45.4      l4.5-139c-7.8,0.8-19.9,14-34.7,69.3C2124.1,612.5,2118.4,644.2,2117.2,651z"></path>				</g>			</g>			<g>				<path class="st13" d="M1998.7,657.1h219v-6.6c0-5.8-4.7-10.5-10.5-10.5h-223.9l1.8,6.7C1986.8,652.8,1992.4,657.1,1998.7,657.1z     "></path>				<path class="st8" d="M1992.5,649.3h132.1c5.6,0,9.8-5.3,8.4-10.8l-25-100.7c-1-3.9-4.4-6.6-8.4-6.6h-132.1     c-5.6,0-9.8,5.3-8.4,10.8l25,100.7C1985,646.6,1988.5,649.3,1992.5,649.3z"></path>				<circle class="st5" cx="2037.3" cy="570.1" r="4.4"></circle>			</g>		</g>		<g>			<g>				<path class="st8" d="M2173.2,640c0,0,24.1-41.3,57-29.1c32.9,12.2,79.9,41.6,79.9,41.6s-43.3-117.7-32.6-146.4     c0,0,56.8,17,83,101.9c26.3,84.9-12.9,113.7-40.7,114.2c-27.8,0.5-97.4-72.8-108.4-72.8L2173.2,640z"></path>				<path class="st9" d="M2319.5,723.2c-17.6,0-49.9-27.1-76-49c-14.6-12.2-28.4-23.8-32.2-23.8c0,0,0,0,0,0c-0.1,0-0.2,0-0.3,0     l-38.2-9.4c-0.3-0.1-0.6-0.3-0.8-0.7c-0.1-0.3-0.1-0.7,0.1-1c0.2-0.4,25-42,58.4-29.6c28.1,10.4,66.8,33.5,77.3,40     c-6.8-19-41.4-117.7-31.5-144.2c0.2-0.6,0.8-0.8,1.4-0.7c0.6,0.2,14.6,4.5,32.1,19.3c16.1,13.7,38.1,39.2,51.7,83.3     c16.1,52.1,6.9,80.5-3.7,95.1c-9.1,12.6-23.3,20.3-38.1,20.5C2319.7,723.2,2319.6,723.2,2319.5,723.2z M2211.5,648.2     c4.5,0.2,15.2,9,33.5,24.3c24.5,20.6,58.1,48.7,74.8,48.5c14-0.3,27.6-7.6,36.3-19.6c10.3-14.2,19.2-41.9,3.4-93.1     c-23.9-77.1-73.5-98-81.3-100.8c-9.1,29.7,32.5,143.5,33,144.6c0.2,0.4,0,1-0.3,1.3c-0.4,0.3-0.9,0.3-1.3,0.1     c-0.5-0.3-47.2-29.4-79.7-41.5c-28.4-10.5-50.5,20.5-54.9,27.3L2211.5,648.2z"></path>			</g>			<path class="st9" d="M2202.8,644.5c-0.1,0-0.2,0-0.4-0.1c-0.6-0.2-0.9-0.8-0.7-1.4c2.3-6.6,7.5-12.3,13.9-15.1    c0.6-0.2,1.2,0,1.5,0.6c0.2,0.6,0,1.2-0.6,1.5c-5.9,2.6-10.6,7.7-12.7,13.8C2203.7,644.2,2203.2,644.5,2202.8,644.5z"></path>			<path class="st9" d="M2190.8,642.1c-0.1,0-0.2,0-0.3,0c-0.6-0.2-0.9-0.8-0.8-1.4c2.4-8,8.3-14.9,15.9-18.4c0.6-0.3,1.2,0,1.5,0.5    c0.3,0.6,0,1.2-0.5,1.5c-7,3.3-12.5,9.7-14.7,17.1C2191.7,641.8,2191.2,642.1,2190.8,642.1z"></path>			<path class="st13" d="M2217.7,657.1v-6.6c0-5.8-4.7-10.5-10.5-10.5h-43.5L2217.7,657.1z"></path>		</g>		<g>			<g>				<g>					<path class="st5" d="M2226.9,458.2l19,48.1c0,0-10.6,14-34.5,17.2c-23.9,3.2-3.6-16.8-3.6-16.8l-11.5-33L2226.9,458.2z"></path>					<path class="st9" d="M2206.7,525c-4.1,0-6.7-1-7.7-3.1c-2.4-4.8,5.2-13.1,7.4-15.4l-11.3-32.3c-0.2-0.5,0-1.1,0.5-1.4      l30.6-15.6c0.3-0.1,0.6-0.2,0.9,0c0.3,0.1,0.5,0.3,0.6,0.6l19,48.1c0.1,0.4,0.1,0.8-0.1,1.1c-0.4,0.6-11.2,14.4-35.3,17.7      C2209.7,524.9,2208.1,525,2206.7,525z M2197.6,474.3l11.2,32.1c0.1,0.4,0,0.9-0.3,1.2c-3.7,3.6-8.9,10.4-7.5,13.3      c0.9,1.7,4.4,2.3,10.1,1.5c20.6-2.8,31.3-13.9,33.4-16.3l-18.3-46.4L2197.6,474.3z"></path>				</g>			</g>			<g>				<g>					<g>						<path class="st5" d="M2172.5,454.3c0.7,7.3,2.7,14.6,7,20.6c4.2,6,10.9,10.5,18.2,11.2c6.3,0.6,12.7-1.8,17.7-5.8       c5-4,8.6-9.4,11.2-15.2c6.6,0.4,13.3-4.2,15.2-10.5c1.1-3.7,0.7-8-1.9-10.9c-2.6-2.8-7.5-3.6-10.3-1.1c-1.6,1.4-2.5,3.7-4.2,5       c-1.9,1.5-4.6,1.7-7,1s-4.3-2.3-6-4.1c-5.4-5.5-8.6-13-9-20.7c0,0.7-3.3,2.8-3.9,3.2c-1.5,1-3,1.9-4.6,2.6       c-3.2,1.5-6.6,2.4-10.1,2.8c-1.8,0.2-3.6,0.2-5.3,0.1c-1.4-0.1-3.4-0.8-4.8-0.5c-2.9,0.8-2.2,6.2-2.4,8.4       C2172.1,445.1,2172.1,449.7,2172.5,454.3z"></path>						<path class="st9" d="M2199.5,487.3c-0.6,0-1.3,0-1.9-0.1c-7.2-0.6-14.3-5-19-11.7c-4-5.6-6.4-12.7-7.2-21.2       c-0.4-4-0.4-8.4-0.1-13.9c0-0.4,0-0.8,0-1.3c0-2.9,0-7.2,3.2-8.1c1.1-0.3,2.5,0,3.6,0.2c0.6,0.1,1.1,0.2,1.5,0.2       c1.7,0.1,3.4,0.1,5.1-0.1c3.4-0.4,6.7-1.3,9.8-2.7c1.6-0.7,3.1-1.6,4.5-2.5c0.1-0.1,0.2-0.2,0.4-0.3c2.1-1.4,2.8-2,3-2.2       c0.1-0.5,0.5-0.8,1-0.9c0.6,0,1.1,0.4,1.2,1.1c0.4,7.4,3.5,14.7,8.7,20c2,2,3.7,3.2,5.5,3.8c2.2,0.7,4.4,0.4,5.9-0.8       c0.8-0.6,1.3-1.5,2-2.4c0.6-0.9,1.3-1.9,2.2-2.6c3.2-2.8,8.8-2.3,11.9,1.2c2.7,3,3.5,7.5,2.2,11.9c-2,6.7-8.7,11.4-15.6,11.3       c-2.9,6.3-6.7,11.3-11.2,15C2211.2,485.2,2205.2,487.3,2199.5,487.3z M2173.6,454.2c0.8,8.1,3.1,14.8,6.8,20.1       c4.3,6.1,10.8,10.1,17.4,10.7c5.7,0.5,11.9-1.5,16.9-5.5c4.4-3.5,8.1-8.5,10.9-14.8c0.2-0.4,0.6-0.7,1.1-0.7       c6.1,0.4,12.3-3.9,14.1-9.7c1.1-3.6,0.4-7.4-1.7-9.8c-2.3-2.5-6.5-3-8.8-1c-0.7,0.6-1.2,1.4-1.8,2.2c-0.7,1-1.4,2-2.4,2.8       c-2.1,1.7-5.1,2.1-8,1.2c-2.2-0.7-4.2-2.1-6.4-4.4c-5-5.1-8.2-11.9-9.1-19c-0.5,0.4-1.2,0.8-2,1.3l-0.4,0.2       c-1.5,1-3.1,1.9-4.8,2.7c-3.3,1.5-6.8,2.5-10.5,2.9c-1.8,0.2-3.7,0.2-5.5,0.1c-0.6,0-1.2-0.2-1.8-0.3c-0.9-0.2-2-0.4-2.6-0.2       c-1.5,0.4-1.5,3.9-1.5,5.9c0,0.6,0,1.1,0,1.5C2173.2,446,2173.3,450.3,2173.6,454.2z M2202.4,423.9       C2202.4,423.9,2202.4,423.9,2202.4,423.9C2202.4,423.9,2202.4,423.9,2202.4,423.9z"></path>					</g>					<g>						<path class="st5" d="M2233.6,451c-3.4,0.8-6.2,3.8-6.8,7.2L2233.6,451z"></path>						<path class="st9" d="M2226.9,459.3c-0.1,0-0.1,0-0.2,0c-0.6-0.1-1-0.7-0.9-1.3c0.6-3.9,3.8-7.3,7.6-8.1       c0.6-0.1,1.2,0.2,1.3,0.8c0.1,0.6-0.2,1.2-0.8,1.3c-3,0.7-5.4,3.3-5.9,6.3C2227.9,458.9,2227.4,459.3,2226.9,459.3z"></path>					</g>				</g>			</g>		</g>	</g>	<g>		<g>			<g>				<rect x="1836.3" y="472.9" class="st5" width="178.4" height="85.8"></rect>				<path class="st7" d="M2014.7,559.8h-178.4c-0.6,0-1.1-0.5-1.1-1.1v-85.8c0-0.6,0.5-1.1,1.1-1.1h178.4c0.6,0,1.1,0.5,1.1,1.1     v85.8C2015.8,559.3,2015.3,559.8,2014.7,559.8z M1837.4,557.6h176.2V474h-176.2V557.6z"></path>			</g>		</g>		<g>			<path class="st6" d="M1946.7,540.5c-0.3,0-0.6-0.1-0.8-0.3c-0.4-0.4-0.4-1.1,0-1.6l20.6-20.6l-20.6-20.6c-0.4-0.4-0.4-1.1,0-1.6    c0.4-0.4,1.1-0.4,1.6,0l21.4,21.4c0.2,0.2,0.3,0.5,0.3,0.8s-0.1,0.6-0.3,0.8l-21.4,21.4C1947.2,540.4,1947,540.5,1946.7,540.5z"></path>			<path class="st6" d="M1901.4,540.5c-0.3,0-0.6-0.1-0.8-0.3l-21.4-21.4c-0.2-0.2-0.3-0.5-0.3-0.8s0.1-0.6,0.3-0.8l21.4-21.4    c0.4-0.4,1.1-0.4,1.6,0c0.4,0.4,0.4,1.1,0,1.6l-20.6,20.6l20.6,20.6c0.4,0.4,0.4,1.1,0,1.6C1902,540.4,1901.7,540.5,1901.4,540.5    z"></path>			<path class="st6" d="M1912.4,547c-0.1,0-0.3,0-0.4-0.1c-0.6-0.2-0.8-0.9-0.6-1.5l23.5-55.9c0.2-0.6,0.9-0.8,1.5-0.6    c0.6,0.2,0.8,0.9,0.6,1.5l-23.5,55.9C1913.2,546.7,1912.8,547,1912.4,547z"></path>		</g>	</g>	<g>		<path class="st5" d="M1957.4,1205h-220.1c-0.6,0-1.1-0.5-1.1-1.1c0-0.6,0.5-1.1,1.1-1.1h220.1c0.6,0,1.1,0.5,1.1,1.1   C1958.5,1204.5,1958,1205,1957.4,1205z"></path>		<path class="st5" d="M1847.3,1241.1h-239.1c-0.6,0-1.1-0.5-1.1-1.1c0-0.6,0.5-1.1,1.1-1.1h239.1c0.6,0,1.1,0.5,1.1,1.1   C1848.4,1240.6,1847.9,1241.1,1847.3,1241.1z"></path>	</g></g><g class="st16">	<rect x="328.5" y="-1.1" class="st17" width="277.3" height="347.3"></rect>	<rect x="328.5" y="1330.8" class="st17" width="277.3" height="347.3"></rect></g></svg>