<svg xmlns="http://www.w3.org/2000/svg" id="Layer_1" data-name="Layer 1" viewBox="0 0 496.78 492.8"><defs><style> .cls-1 {        fill: #0d6efd;        stroke-width: 0px;      } </style></defs><path class="cls-1" d="m487.47,350.84c-8.53-4.65-16.29-10.08-24.82-15.52-3.88-2.33-8.53-1.55-10.86,1.55-2.33,3.88-1.55,8.53,1.55,10.86,8.53,5.43,17.07,11.64,25.6,16.29,1.55.78,2.33.78,3.88.78,2.33,0,5.43-1.55,6.98-3.88,2.33-3.1,1.55-7.76-2.33-10.08Z"/><path class="cls-1" d="m494.45,238.35l-38.01-38.01c-6.21-6.21-13.19-12.41-19.39-17.84-4.65-3.88-10.08-7.76-14.74-11.64l49.65-49.65.78-.78c13.19-13.19,20.17-31.03,20.17-49.65s-6.98-36.46-20.17-49.65l-.78-.78c-27.15-27.15-71.37-27.15-98.52,0l-1.55,1.55-95.42,95.42c-71.37-5.43-144.29,15.52-202.47,62.84-7.76,6.21-14.74,13.19-21.72,20.17l-38.01,38.01c-1.55,1.55-2.33,3.1-2.33,5.43s.78,3.88,2.33,5.43l38.01,38.01c6.98,6.98,14.74,13.96,21.72,20.17,2.33,1.55,4.65,3.88,6.98,5.43l-54.3,54.3-.78.78v.78c-.78.78-.78,1.55-.78,2.33L.29,483.49c-.78,2.33,0,5.43,2.33,6.98,1.55,1.55,3.1,2.33,5.43,2.33h1.55l112.48-24.05h.78q.78,0,1.55-.78c.78,0,.78-.78,1.55-.78h.78l96.97-96.97c10.08.78,20.95,1.55,31.03,1.55,65.16,0,129.55-21.72,182.3-65.94,6.98-5.43,13.19-11.64,19.39-17.84l38.01-38.01c1.55-1.55,2.33-3.1,2.33-5.43s-.78-4.65-2.33-6.21h0Zm-39.56-122.57l-45.77,45.77c-13.96-9.31-28.7-16.29-43.44-23.27l56.63-55.85,32.58,33.36Zm-77.58-76.8l33.36,33.36-61.28,60.51c-17.07-6.21-35.68-10.86-53.53-13.19l81.45-80.68ZM46.84,369.45l46.55-46.55c13.96,9.31,27.93,17.07,42.67,24.05l-38.79,38.79-50.42-16.29Zm77.58,77.58l-15.52-50.42,43.44-43.44c17.07,6.21,34.13,11.64,51.98,14.74l-79.9,79.13Zm321.16-169.89c-6.21,6.21-12.41,11.64-18.62,17.07-99.3,82.23-243.59,83.01-342.88,1.55-6.98-6.21-13.96-12.41-20.95-18.62l-32.58-32.58,32.58-32.58c6.98-6.98,13.96-13.19,20.95-18.62,99.3-82.23,243.59-81.45,342.88.78,6.21,5.43,12.41,10.86,18.62,17.07l32.58,32.58-32.58,33.36Z"/><path class="cls-1" d="m253.96,150.69c-51.2,0-93.87,41.89-93.87,93.09s41.89,93.87,93.87,93.87,93.87-41.89,93.87-93.87-41.89-93.09-93.87-93.09h0Zm0,123.35c-16.29,0-30.25-13.19-30.25-30.25s13.19-30.25,30.25-30.25,29.48,13.19,29.48,30.25c.78,17.07-13.19,30.25-29.48,30.25Z"/><path class="cls-1" d="m138.38,101.82c1.55,2.33,3.88,3.88,6.98,3.88,1.55,0,2.33,0,3.88-.78,3.88-2.33,4.65-6.98,3.1-10.86-4.65-8.53-10.08-17.07-14.74-24.82-2.33-3.88-6.98-4.65-10.86-2.33s-4.65,6.98-2.33,10.86c3.88,7.76,8.53,16.29,13.96,24.05Z"/><path class="cls-1" d="m15.03,136.73c8.53,5.43,17.07,10.08,24.82,16.29,1.55.78,3.1,1.55,4.65,1.55,2.33,0,4.65-.78,6.21-3.1,2.33-3.88,1.55-8.53-2.33-10.86-8.53-5.43-17.07-11.64-25.6-16.29-3.88-2.33-8.53-.78-10.86,2.33-1.55,3.1-.78,7.76,3.1,10.08Z"/><path class="cls-1" d="m253.96,84.75c4.65,0,7.76-3.1,7.76-7.76v-27.93c0-4.65-3.1-7.76-7.76-7.76s-7.76,3.1-7.76,7.76v27.93c0,4.65,3.88,7.76,7.76,7.76Z"/><path class="cls-1" d="m372.65,383.42c-2.33-3.88-6.98-4.65-10.86-3.1-3.88,2.33-4.65,6.98-3.1,10.86,4.65,8.53,10.08,17.07,14.74,24.82,1.55,2.33,3.88,3.88,6.21,3.88,1.55,0,3.1,0,3.88-1.55,3.88-2.33,4.65-6.98,2.33-10.86-3.88-7.76-8.53-15.52-13.19-24.05h0Z"/><path class="cls-1" d="m256.29,400.48c-4.65,0-7.76,3.1-7.76,7.76v27.93c0,4.65,3.1,7.76,7.76,7.76s7.76-3.1,7.76-7.76v-27.93c0-4.65-3.1-7.76-7.76-7.76Z"/></svg>