<svg xmlns="http://www.w3.org/2000/svg" id="Layer_1" data-name="Layer 1" viewBox="0 0 414.37 459.73"><defs><style> .cls-1 {        fill: #0d6efd;        stroke-width: 0px;      } </style></defs><g id="_15_Consistancy" data-name="15 Consistancy"><path class="cls-1" d="m380.77,285.8c-2.6,0-5.15.27-7.7.85-2.07.53-4.09-1.28-4.09-3.51v-106.99c0-8.98-8.34-15.4-17.37-13.39-15.99,3.61-31.34-10.52-27.52-27.73,1.81-8.39,8.39-15.09,16.73-17.05,3.61-.85,7.28-.9,10.78-.11,8.87,1.96,17.37-4.73,17.37-13.81v-44.41c0-7.81-6.37-14.18-14.24-14.18h-44.89c-2.23,0-3.56-2.23-3.03-4.41.53-2.44.8-4.94.8-7.44,0-21.25-19.49-37.5-41.06-32.83-12.75,2.76-23,13.28-25.45,26.19-.9,4.78-.85,9.51.21,14.08.48,2.18-.8,4.41-3.03,4.41h-44.3c-8.18,0-14.82,6.64-14.82,14.82v43.77c0,1.49-.85,2.34-1.33,2.76-.85.69-2.02.96-3.13.69-4.99-1.17-10.2-1.12-15.4.11-12.27,2.82-21.99,12.59-24.75,24.86-4.89,21.73,11.47,41.43,32.72,41.43,2.5,0,4.99-.26,7.44-.8,1.22-.32,2.44-.05,3.29.69.53.37,1.17,1.17,1.17,2.39v48.34h-48.39c-8.98,0-15.4,8.39-13.44,17.32.37,1.7.59,3.4.59,5.1,0,14.4-13.33,26.08-28.9,22.36-12.32-2.98-19.23-15.83-16.52-27.46,2.18-9.24-4.36-17.32-13.86-17.32H14.82c-8.18,0-14.82,6.64-14.82,14.82v44.2c0,8.98,8.39,15.46,17.32,13.39,15.99-3.61,31.29,10.52,27.46,27.83-1.81,8.34-8.39,14.98-16.68,16.95-3.61.85-7.28.9-10.73.11C8.34,339.82,0,346.62,0,355.65v44.41c0,7.81,6.38,14.18,14.24,14.18h44.89c2.23,0,3.51,2.23,3.03,4.41-.58,2.39-.85,4.89-.85,7.44,0,21.2,19.5,37.5,41.06,32.83,12.75-2.76,23-13.28,25.44-26.19.96-4.78.85-9.51-.16-14.08-.53-2.18.8-4.41,3.03-4.41h107.09c9.08,0,15.88-8.39,13.86-17.16-.42-1.7-.58-3.51-.58-5.26,0-14.34,13.23-26.08,28.85-22.31,6.53,1.54,12.27,6.32,14.98,12.54,2.12,4.73,2.66,9.77,1.65,14.61-2.02,9.08,4.62,17.58,13.76,17.58h44.36c7.86,0,14.24-6.38,14.24-14.24v-49.14c6.16,2.34,12.91,2.76,19.65,1.27,12.17-2.71,21.94-12.32,24.86-24.43,5.21-21.83-11.1-41.91-32.62-41.91h0Zm-208.39-123.03c-16.04,3.61-31.34-10.57-27.46-27.94,1.91-8.34,8.5-14.93,16.79-16.89,3.61-.8,7.22-.85,10.68-.05,4.3.96,8.71-.05,12.11-2.76,3.35-2.71,5.31-6.75,5.31-11.05v-43.77c0-2.34,1.86-4.2,4.2-4.2h44.3c8.98,0,15.4-8.45,13.39-17.37-.74-3.13-.74-6.43-.11-9.77,1.65-8.71,8.61-15.88,17.26-17.8,15.25-3.29,28.15,8.34,28.15,22.47,0,1.75-.16,3.45-.53,5.1-2.02,8.98,4.41,17.37,13.39,17.37h44.89c1.96,0,3.61,1.59,3.61,3.56v44.41c0,2.34-2.18,3.93-4.41,3.45-5.1-1.17-10.36-1.12-15.62.16-12.27,2.92-21.94,12.75-24.65,25.07-4.73,21.57,11.63,41.17,32.83,41.17,2.55,0,5.05-.26,7.44-.8,2.23-.53,4.41.8,4.41,3.03v48.39h-48.08c-1.91,0-3.24-1.43-3.45-2.55-.05-.58-.21-.96,0-1.8,5.1-22.63-13.7-43.67-36.92-40.9-18.7,2.29-33.15,20.98-28.58,41.01.05.58.21,1.06-.05,1.91-.64,1.49-2.07,2.34-3.51,2.34h-47.97v-48.34c0-4.2-1.86-8.13-5.15-10.73-3.4-2.71-7.86-3.72-12.27-2.71h0Zm6.8,192.88v47.97h-48.5c-8.98,0-15.4,8.39-13.39,17.37.69,3.13.74,6.43.11,9.77-1.65,8.71-8.61,15.88-17.32,17.8-15.14,3.29-28.15-8.29-28.15-22.47,0-1.75.21-3.45.58-5.1,2.02-8.98-4.41-17.37-13.39-17.37H14.24c-2.02,0-3.61-1.59-3.61-3.56v-44.41c0-2.07,1.7-3.56,3.56-3.56,1.43,0,7.33,2.13,16.36-.05,12.22-2.87,21.89-12.7,24.6-24.97,4.83-21.67-11.53-41.27-32.72-41.27-2.5,0-4.99.27-7.44.8-2.18.53-4.36-.8-4.36-3.03v-44.2c0-2.34,1.86-4.2,4.2-4.2h43.83c2.6,0,4.14,1.59,3.51,4.3-4.04,17.37,6.48,35.86,24.44,40.16,21.99,5.26,41.97-11.16,41.97-32.67,0-2.44-.27-4.94-.8-7.44-.53-2.18.74-4.36,3.03-4.36h48.39v51.21c0,4.57,7.81,12.75,17.42,10.57,15.94-3.61,31.34,10.52,27.41,27.94-1.86,8.34-8.45,14.93-16.73,16.84-3.66.85-7.22.9-10.73.11-8.98-2.02-17.37,4.67-17.37,13.81h0Z"/></g></svg>