<svg xmlns="http://www.w3.org/2000/svg" id="Layer_1" data-name="Layer 1" viewBox="0 0 512 512"><defs><style> .cls-1 {        fill: #0d6efd;        stroke-width: 0px;      } </style></defs><path class="cls-1" d="m412.67,484.94c4.39,0,8.72,1.67,12.02,4.85,21.06,20.34,51.79,27.11,79.11,18.64-17.58-36.62-20.01-78.58-6.39-117.43,16.91-48.33,21.14-96.78,1.9-145.36-16.9-42.68-49.52-78.14-90.81-98.36,2.54,13.54,3.82,27.34,3.82,41.28,0,59.18-22.75,114.84-64.07,156.72-41.32,41.89-96.71,65.45-155.97,66.33-11.01.17-21.97-.48-32.8-1.9,32.57,57.08,93.99,94.26,161.48,95.26,29.52.46,57.87-5.73,84.27-18.34,2.38-1.14,4.92-1.69,7.45-1.69Z"/><path class="cls-1" d="m192.76.04C87.64-2.05.25,82.99,0,188.09c-.06,25.68,4.95,50.57,14.9,74,.14.34.28.69.4,1.04,13.62,38.85,11.19,80.8-6.39,117.43,27.32,8.47,58.04,1.7,79.11-18.64,5.19-5.01,12.95-6.28,19.47-3.16,26.4,12.61,54.75,18.81,84.27,18.34,104.3-1.55,186-84.36,185.99-188.53,0-101.9-82.99-186.46-184.99-188.51Zm-104.63,216.67c-15.1,0-27.35-12.22-27.35-27.3s12.24-27.3,27.35-27.3,27.35,12.22,27.35,27.3c0,15.08-12.24,27.3-27.35,27.3Zm100.75,0c-15.1,0-27.35-12.22-27.35-27.3s12.24-27.3,27.35-27.3,27.35,12.22,27.35,27.3-12.24,27.3-27.35,27.3Zm100.75,0c-15.1,0-27.35-12.22-27.35-27.3s12.24-27.3,27.35-27.3,27.35,12.22,27.35,27.3-12.24,27.3-27.35,27.3Z"/></svg>