<svg xmlns="http://www.w3.org/2000/svg" id="Layer_1" data-name="Layer 1" viewBox="0 0 474.25 508.01"><defs><style> .cls-1 {        fill: #0d6efd;      }      .cls-1, .cls-2, .cls-3, .cls-4 {        stroke-width: 0px;      }      .cls-2 {        fill: #fff;      }      .cls-3 {        fill: #e0ebfc;      }      .cls-4 {        fill: #3762cc;      } </style></defs><circle class="cls-1" cx="237.14" cy="254.01" r="223.11"/><g><path class="cls-2" d="m203.28,198.37l17.68,3.33c3.21.6-1-2.84,60.3,58.46l-90.99,90.99-54-54c-10.16-10.16-9.32-23.56-9.28-22.05-.06-2.05-.85-3.94-2.24-5.33l-50.56-50.56c-1.2-1.2-1.2-3.14,0-4.34l69.66-69.66c1.2-1.2,3.14-1.2,4.34,0,55.41,55.41,51.73,52.52,55.08,53.15h0Z"/><path class="cls-1" d="m190.27,355.14c-1.02,0-2.05-.39-2.83-1.17l-54-54c-8.18-8.18-10.48-19.03-10.4-24.24-.03-.17-.04-.35-.05-.52h.07s-.07,0-.07,0c-.03-1.02-.41-1.95-1.07-2.61l-50.56-50.56c-1.33-1.33-2.07-3.11-2.07-5,0-1.89.73-3.67,2.07-5l69.66-69.66c2.75-2.75,7.24-2.76,10,0,12.64,12.64,22.21,22.25,29.48,29.56,15.38,15.44,21.37,21.46,22.85,22.39l.65.11,17.94,3.37q3.23.45,29.36,26.69c8.05,8.08,18.68,18.75,32.77,32.84.75.75,1.17,1.77,1.17,2.83s-.42,2.08-1.17,2.83l-90.99,90.99c-.78.78-1.81,1.17-2.83,1.17h0Zm-59.3-79.56c.05,1.72.67,11.27,8.13,18.74l51.17,51.17,85.33-85.33c-12.7-12.7-22.44-22.48-29.95-30.02-16.66-16.72-23.24-23.33-24.86-24.42-.23-.03-.4-.06-.58-.09l-17.98-3.38q-3.35-.52-27.39-24.66c-7.15-7.18-16.5-16.57-28.81-28.89l-68.34,68.34,49.9,49.9c2.11,2.11,3.32,4.96,3.41,8.04h0c0,.21,0,.4-.03.6h0Z"/><path class="cls-2" d="m190.29,373.85c-4.79,4.79-12.56,4.79-17.35,0l-4.97-4.97c-4.79-4.79-4.79-12.56,0-17.35l-2.3,2.3c-4.79,4.79-12.56,4.79-17.35,0l-4.97-4.97c-4.79-4.79-4.79-12.56,0-17.35,21.98-21.98,92.82-92.82,114.85-114.85,4.05-4.05,9.75-5.98,15.43-5.24l3.75.49,67.63-64.58c1.17-1.17,3.06-1.17,4.22,0l62.67,62.67c1.17,1.17,1.17,3.06,0,4.22l-56.06,56.06c-4.62,4.62-9.3,7.81-7.08,13.56,4.5,7.65,3.26,17.38-3.02,23.66l-59.9,59.9c-1.99,1.99-4.28,3.62-6.76,4.88l1.04,1.04-32.06,32.07c-4.79,4.79-12.56,4.79-17.35,0l-4.97-4.97c-4.79-4.79-4.79-12.56,0-17.35l-8.84,8.84c-4.79,4.79-12.56,4.79-17.35,0l-4.97-4.97c-4.79-4.79-4.79-12.56,0-17.35l-4.28,4.28Z"/><path class="cls-1" d="m181.61,381.44c-4.35,0-8.43-1.69-11.5-4.77l-4.97-4.97c-3.07-3.07-4.77-7.16-4.77-11.5s1.69-8.43,4.77-11.51l47.65-47.65c1.56-1.56,4.09-1.56,5.66,0s1.56,4.09,0,5.66l-47.65,47.65c-1.56,1.56-2.42,3.64-2.42,5.85s.86,4.29,2.42,5.85l4.97,4.97c1.56,1.56,3.64,2.42,5.85,2.42s4.29-.86,5.85-2.42c1.56-1.56,4.09-1.56,5.66,0s1.56,4.09,0,5.66c-3.07,3.07-7.16,4.76-11.51,4.76h0Z"/><path class="cls-1" d="m208.21,399.49c-4.35,0-8.43-1.69-11.51-4.76l-4.97-4.97c-3.07-3.07-4.77-7.16-4.77-11.5s1.69-8.43,4.77-11.51l43.97-43.97c1.56-1.56,4.09-1.56,5.66,0s1.56,4.09,0,5.66l-43.97,43.97c-1.56,1.56-2.42,3.64-2.42,5.85s.86,4.29,2.42,5.85l4.97,4.97c1.56,1.56,3.64,2.42,5.85,2.42s4.29-.86,5.85-2.42l43.97-43.97c1.56-1.56,4.09-1.56,5.66,0s1.56,4.09,0,5.66l-43.97,43.97c-3.07,3.07-7.16,4.76-11.5,4.76h0Z"/><path class="cls-1" d="m239.37,412.97c-4.35,0-8.43-1.69-11.5-4.77l-4.97-4.97c-6.34-6.35-6.34-16.67,0-23.01l32.07-32.06c1.56-1.56,4.09-1.56,5.66,0l22.32,22.32c1.56,1.56,1.56,4.09,0,5.66l-32.06,32.06c-3.07,3.07-7.16,4.77-11.51,4.77h0Zm8.68-7.59h.02-.02Zm9.74-48.73l-29.24,29.24c-3.22,3.22-3.22,8.47,0,11.7l4.97,4.97c1.56,1.56,3.64,2.42,5.85,2.42s4.29-.86,5.85-2.42l29.24-29.24-16.67-16.67Z"/><path class="cls-1" d="m239.37,412.96c-4.17,0-8.33-1.59-11.5-4.76l-4.97-4.97c-2.15-2.15-3.57-4.76-4.27-7.52-6.39,5.33-15.93,5-21.92-.99l-4.97-4.97c-2.54-2.54-4.13-5.77-4.61-9.26-1.75.63-3.61.95-5.52.95-4.35,0-8.43-1.69-11.5-4.77l-4.97-4.97c-2.87-2.87-4.54-6.63-4.74-10.66-5.22,1.1-10.87-.36-14.91-4.4l-4.97-4.97c-6.34-6.34-6.34-16.67,0-23.01l114.85-114.85c4.89-4.89,11.9-7.28,18.78-6.37l1.85.25,65.9-62.94c1.57-1.5,4.06-1.47,5.59.06l66.9,66.9c1.56,1.56,1.56,4.09,0,5.66l-55.72,55.73c-.67.67-1.33,1.3-1.98,1.92-4.19,4-4.94,5.18-4.29,7.11,5.2,9.17,3.65,20.71-3.83,28.19l-59.9,59.9c-1.41,1.41-2.95,2.67-4.62,3.78-.14.78-.51,1.54-1.11,2.14l-32.06,32.07c-3.17,3.17-7.34,4.76-11.51,4.76h0Zm-13.65-33.91c1.02,0,2.05.39,2.83,1.17,1.56,1.56,1.56,4.09,0,5.66-3.22,3.22-3.22,8.47,0,11.7l4.97,4.97c3.23,3.23,8.47,3.22,11.7,0l29.88-29.88c-.03-.34-.02-.68.03-1.03.2-1.27,1-2.36,2.14-2.94,2.15-1.09,4.08-2.48,5.74-4.14l59.9-59.9c4.99-4.99,5.98-12.72,2.4-18.81-.11-.19-.21-.39-.29-.59-2.87-7.44,2.12-12.2,6.13-16.03.61-.58,1.23-1.17,1.85-1.79l52.9-52.9-61.31-61.31-64.46,61.56c-.88.84-2.07,1.22-3.29,1.07l-3.75-.5c-4.41-.59-8.93.95-12.08,4.1l-114.85,114.85c-3.22,3.23-3.22,8.47,0,11.7l4.97,4.97c3.23,3.22,8.47,3.23,11.7,0l2.3-2.3c1.56-1.56,4.09-1.56,5.66,0s1.56,4.09,0,5.66-2.42,3.64-2.42,5.85.86,4.29,2.42,5.85l4.97,4.97c1.56,1.56,3.64,2.42,5.85,2.42s4.29-.86,5.85-2.42l4.28-4.28c1.56-1.56,4.09-1.56,5.66,0,.78.78,1.17,1.8,1.17,2.83s-.39,2.05-1.17,2.83c-1.56,1.56-2.42,3.64-2.42,5.85s.86,4.29,2.42,5.85l4.97,4.97c3.23,3.22,8.47,3.22,11.7,0l8.84-8.83c.79-.78,1.81-1.17,2.83-1.17h0Z"/><path class="cls-2" d="m251.17,344.2l33.75,31.95c3.69,3.49,3.85,9.32.36,13.01l-9.05,9.56c-3.49,3.69-9.32,3.85-13.01.36l-33.75-31.95c-6.33-5.99-6.61-15.98-.61-22.31,5.99-6.33,15.98-6.61,22.31-.61h0Z"/><path class="cls-2" d="m278.99,327.06l27.63,26.15c3.69,3.49,3.85,9.32.36,13.01l-9.05,9.56c-3.49,3.69-9.32,3.85-13.01.36l-27.63-26.15c-6.33-5.99-6.61-15.98-.61-22.31,5.99-6.33,15.98-6.61,22.31-.61h0Z"/><path class="cls-2" d="m338.6,296.54l11.43,10.82c3.69,3.49,3.85,9.32.36,13.01l-9.05,9.56c-3.49,3.69-9.32,3.85-13.01.36l-11.43-10.82c-6.33-5.99-6.61-15.98-.61-22.31,5.99-6.33,15.98-6.61,22.31-.61h0Z"/><path class="cls-1" d="m269.54,405.58c-3.26,0-6.52-1.2-9.07-3.61l-33.75-31.95c-3.84-3.63-6.03-8.54-6.18-13.83-.14-5.28,1.78-10.31,5.41-14.14,3.63-3.84,8.54-6.03,13.82-6.18,5.25-.15,10.3,1.78,14.14,5.41l33.75,31.95c5.29,5,5.52,13.38.51,18.67l-9.05,9.56c-2.59,2.74-6.09,4.12-9.59,4.12h0Zm-29.22-61.71c-.11,0-.22,0-.33,0-3.15.09-6.07,1.39-8.23,3.68-2.17,2.29-3.31,5.28-3.22,8.42.09,3.15,1.39,6.07,3.68,8.24l33.75,31.95c2.08,1.97,5.38,1.88,7.36-.2l9.05-9.56c1.97-2.08,1.88-5.38-.2-7.36l-33.75-31.95c-2.21-2.09-5.07-3.22-8.09-3.22Z"/><path class="cls-1" d="m291.24,382.66c-3.26,0-6.52-1.2-9.07-3.61l-27.63-26.15c-3.84-3.63-6.03-8.54-6.18-13.83-.14-5.28,1.78-10.31,5.41-14.14,7.49-7.92,20.04-8.27,27.97-.77l27.63,26.15c5.29,5,5.52,13.38.51,18.67l-9.05,9.56c-2.59,2.74-6.09,4.12-9.59,4.12h0Zm-23.1-55.91c-3.13,0-6.25,1.23-8.56,3.68-2.16,2.29-3.31,5.28-3.22,8.42.09,3.15,1.39,6.07,3.68,8.23l27.63,26.15c2.09,1.97,5.39,1.88,7.36-.2l9.05-9.56c.96-1.01,1.46-2.33,1.42-3.72-.04-1.39-.62-2.68-1.63-3.64l-27.63-26.15c-2.27-2.15-5.19-3.22-8.1-3.22h0Z"/><path class="cls-1" d="m334.65,336.8c-3.26,0-6.53-1.2-9.07-3.61l-11.43-10.82c-7.92-7.5-8.27-20.05-.77-27.97,7.5-7.92,20.04-8.27,27.97-.77l11.43,10.82c2.56,2.42,4.03,5.7,4.12,9.23.1,3.53-1.18,6.88-3.61,9.44l-9.04,9.56c-2.59,2.74-6.09,4.12-9.59,4.12h0Zm-6.9-40.57c-3.13,0-6.25,1.23-8.56,3.68-4.47,4.72-4.26,12.19.46,16.66l11.43,10.82c2.08,1.97,5.38,1.88,7.36-.2l9.04-9.56c.96-1.01,1.46-2.33,1.42-3.72-.04-1.39-.62-2.68-1.63-3.63l-11.43-10.82c-2.27-2.15-5.19-3.22-8.1-3.22h0Z"/><path class="cls-2" d="m308.25,311.29l20.07,19c3.69,3.49,3.85,9.32.36,13.01l-9.05,9.56c-3.49,3.69-9.32,3.85-13.01.36l-20.07-19c-6.33-5.99-6.61-15.98-.61-22.31,5.99-6.33,15.98-6.61,22.31-.61h0Z"/><path class="cls-1" d="m312.94,359.73c-3.39,0-6.6-1.28-9.07-3.61l-20.07-19c-7.92-7.5-8.27-20.05-.77-27.97,3.63-3.84,8.54-6.03,13.83-6.18,5.29-.15,10.3,1.78,14.14,5.41l20.07,19c2.56,2.42,4.03,5.7,4.12,9.23.1,3.53-1.18,6.88-3.61,9.44l-9.05,9.56c-2.42,2.56-5.7,4.03-9.22,4.12-.13,0-.25,0-.37,0Zm-15.53-48.76c-.11,0-.22,0-.33,0-3.15.09-6.07,1.39-8.24,3.68-4.46,4.72-4.26,12.19.46,16.66l20.07,19c1.01.96,2.33,1.47,3.72,1.42,1.39-.04,2.68-.62,3.64-1.63l9.05-9.56c.96-1.01,1.46-2.33,1.42-3.72-.04-1.39-.62-2.68-1.63-3.64l-20.07-19c-2.2-2.09-5.06-3.22-8.09-3.22h0Z"/><path class="cls-2" d="m215.05,210.29l8.04-8.04c1.54.53-1.25-.86,38.74,20.23,2.23,1.18,4.09,2.94,5.39,5.11l30.77,51.53c.32.53.52,1.18.59,1.67,0,.02,0,.04,0,.05.22,1.7-.56,3.44-2.11,4.38-7.6,4.55-17.15,4.47-24.61.06-6.71-3.98-6.49-5.21-29.99-44.56-.72-1.21-1.69-2.26-2.83-3.09l-4.39-3.16-19.59-24.19Z"/><path class="cls-1" d="m284.61,292.66c-10.29,0-19.45-5.09-24.58-13.68l-21.61-36.2c-.45-.75-1.03-1.39-1.74-1.9l-4.39-3.16c-1.79-1.29-2.2-3.79-.9-5.58,1.29-1.79,3.79-2.2,5.58-.9l4.39,3.16c1.6,1.15,2.92,2.6,3.93,4.29l21.61,36.19c5.08,8.5,14.05,10.51,20.75,9.57,4.49-.63,6.75-2.43,6.98-3.11,0,0-30.67-51.38-30.86-51.7-.92-1.54-2.24-2.79-3.82-3.62l-36.71-19.36c-1.42-.75-1.47-.78-10.45-2.45-2.09-.39-4.64-.86-7.77-1.45-2.17-.41-3.6-2.5-3.19-4.67.41-2.17,2.49-3.6,4.67-3.19,3.12.59,5.66,1.06,7.75,1.45,9.41,1.75,10.18,1.89,12.73,3.23l36.71,19.36c2.88,1.52,5.29,3.8,6.95,6.6l30.76,51.53c1.56,2.62,1.63,5.62.17,8.22-2.95,5.3-10.81,7.36-16.97,7.36h0Z"/><path class="cls-3" d="m280.27,194.05l55.3-55.49,83.58,83.59-55.39,55.4c-2.22,2.22-5.83,2.22-8.06,0l-75.43-75.44c-2.22-2.22-2.22-5.82,0-8.05h0Z"/><path class="cls-1" d="m359.74,283.2c-2.48,0-4.96-.95-6.86-2.84l-75.43-75.44c-3.77-3.77-3.78-9.92-.01-13.7l55.3-55.49c.75-.75,1.77-1.18,2.83-1.18h0c1.06,0,2.08.42,2.83,1.17l83.59,83.58c1.56,1.56,1.56,4.09,0,5.66l-55.39,55.4c-1.89,1.89-4.37,2.84-6.86,2.84h0Zm-24.16-138.99l-52.47,52.65h0c-.66.66-.66,1.74,0,2.4l75.43,75.44c.66.66,1.74.66,2.4,0l52.56-52.57-77.92-77.92Zm-55.31,49.83h.02-.02Z"/><path class="cls-2" d="m329.24,132.22l96.3,96.3c2.22,2.22,2.22,5.83,0,8.05l-34.59,34.6c-5.19,5.19-13.61,5.19-18.8,0l-85.49-85.51c-5.18-5.18-5.19-13.59-.02-18.78l34.54-34.66c2.22-2.23,5.83-2.23,8.06,0h0Z"/><circle class="cls-3" cx="384.61" cy="228.87" r="13.26"/><path class="cls-4" d="m384.61,246.13c-9.52,0-17.26-7.74-17.26-17.26s7.74-17.26,17.26-17.26,17.26,7.74,17.26,17.26-7.74,17.26-17.26,17.26Zm0-26.52c-5.11,0-9.26,4.15-9.26,9.26s4.15,9.26,9.26,9.26,9.26-4.15,9.26-9.26-4.15-9.26-9.26-9.26Z"/><path class="cls-1" d="m381.55,279.06c-4.62,0-8.96-1.8-12.23-5.06l-85.49-85.51c-6.73-6.73-6.74-17.69-.02-24.43l34.54-34.66c1.83-1.84,4.27-2.85,6.86-2.85h.01c2.59,0,5.02,1.01,6.86,2.84l96.3,96.3c1.83,1.83,2.84,4.27,2.84,6.86s-1.01,5.03-2.84,6.86l-34.59,34.6c-3.27,3.27-7.61,5.07-12.23,5.07h0Zm-56.34-144.51s0,0,0,0c-.27,0-.77.07-1.2.5l-34.54,34.66c-3.61,3.62-3.61,9.51.01,13.13l85.49,85.51c1.75,1.75,4.09,2.72,6.57,2.72s4.81-.97,6.57-2.72l34.59-34.6c.43-.43.5-.94.5-1.2s-.06-.77-.5-1.2l-96.3-96.3c-.43-.43-.94-.5-1.2-.5h0Z"/><path class="cls-3" d="m150.3,124.64l53.51,55.21c2.17,2.24,2.14,5.81-.08,8.01l-86.48,85.86c-2.22,2.21-5.81,2.21-8.03,0l-54.2-53.81,95.27-95.27Z"/><path class="cls-1" d="m113.23,279.37c-2.47,0-4.95-.93-6.83-2.8l-54.2-53.81c-.75-.75-1.18-1.77-1.18-2.83s.42-2.08,1.17-2.83l95.28-95.27c.76-.76,1.83-1.19,2.86-1.17,1.07,0,2.1.45,2.84,1.22l53.51,55.21c3.67,3.79,3.62,9.91-.13,13.63l-86.48,85.86c-1.88,1.87-4.36,2.8-6.83,2.8h0Zm-52.54-59.46l51.35,50.98c.66.65,1.73.66,2.39,0l86.48-85.86c.65-.65.66-1.72.02-2.38l-50.68-52.3-89.56,89.56Z"/><path class="cls-2" d="m164.38,118.74l32.95,34c5.06,5.23,4.98,13.55-.18,18.68l-96.49,95.8c-5.18,5.14-13.54,5.14-18.73,0l-33.18-32.94c-2.24-2.22-2.24-5.84-.01-8.07l107.53-107.53c2.25-2.25,5.9-2.22,8.12.06h0Z"/><path class="cls-1" d="m91.3,275.05c-4.41,0-8.82-1.67-12.18-5l-33.18-32.94c-1.84-1.83-2.86-4.27-2.87-6.87,0-2.6,1-5.04,2.84-6.87l107.53-107.53c1.83-1.83,4.26-2.84,6.85-2.84h.08c2.62.02,5.07,1.07,6.89,2.95l32.95,34c6.55,6.77,6.45,17.67-.24,24.3l-96.49,95.8c-3.36,3.33-7.77,5-12.18,5Zm69-154.05c-.27,0-.77.07-1.2.5l-107.53,107.53c-.43.43-.5.94-.5,1.2s.07.77.5,1.2l33.18,32.94c3.61,3.58,9.48,3.58,13.09,0l96.49-95.8c3.59-3.57,3.65-9.42.13-13.06l-32.95-34c-.44-.45-.92-.51-1.22-.52Z"/><circle class="cls-3" cx="90.7" cy="232.42" r="13.26"/><path class="cls-1" d="m90.7,249.68c-9.52,0-17.26-7.74-17.26-17.26s7.74-17.26,17.26-17.26,17.26,7.74,17.26,17.26-7.74,17.26-17.26,17.26Zm0-26.52c-5.11,0-9.26,4.15-9.26,9.26s4.15,9.26,9.26,9.26,9.26-4.15,9.26-9.26-4.15-9.26-9.26-9.26Z"/></g><path class="cls-2" d="m259.54,26.81l-40.31-22.22c-3.1-1.71-6.89.53-6.89,4.07v13.56C105.43,33.63,16.99,118.48,5.3,229.64c-10.91,103.79,48.4,199.08,139.52,238.44,5.86,2.53,12.57-.93,13.83-7.19v-.02c.93-4.64-1.52-9.27-5.87-11.14C69.46,413.75,15.22,326.63,25.19,231.73,35.79,130.84,115.54,53.66,212.33,42.33v10.76c0,3.54,3.79,5.77,6.89,4.07l40.31-22.22c3.21-1.77,3.21-6.37,0-8.14h0Z"/><path class="cls-2" d="m322.34,37.01c-5.83-2.29-12.32,1.17-13.56,7.31-.95,4.76,1.66,9.5,6.19,11.27,87,34.16,144.35,123.33,134.11,220.69-11.18,106.37-99.22,186.39-203.08,190.64v-12.01c0-3.54-3.79-5.77-6.89-4.07l-40.31,22.22c-3.2,1.77-3.2,6.37,0,8.14l40.31,22.22c3.1,1.71,6.89-.53,6.89-4.07v-12.4c113.95-4.26,210.71-91.95,222.97-208.58,11.19-106.47-51.51-203.98-146.63-241.36h0Z"/><path class="cls-1" d="m148.83,472.91c-1.9,0-3.8-.39-5.6-1.16-45.39-19.61-84.4-53.94-109.87-96.68C7.02,330.86-4.06,280.42,1.32,229.22c5.7-54.2,30.19-105.18,68.97-143.54C107.67,48.71,156.57,24.99,208.34,18.65v-9.99c0-3.09,1.59-5.87,4.25-7.44,2.66-1.57,5.86-1.62,8.57-.13l40.31,22.22c2.76,1.52,4.47,4.42,4.47,7.57s-1.71,6.05-4.47,7.57l-40.31,22.22c-2.71,1.49-5.91,1.45-8.57-.13-2.66-1.57-4.25-4.35-4.25-7.44v-6.21C114.15,60,39.15,137.22,29.17,232.15c-9.61,91.46,40.7,177.42,125.2,213.9,6.04,2.61,9.49,9.17,8.21,15.6-.84,4.18-3.47,7.69-7.22,9.66-2.05,1.07-4.28,1.61-6.52,1.61h0ZM216.98,8.01c-.11,0-.22.03-.33.09-.21.13-.32.31-.32.56v13.56c0,2.04-1.54,3.76-3.58,3.98C106.08,37.58,20.5,123.32,9.28,230.05c-10.53,100.19,44.58,194.37,137.13,234.35,1.69.73,3.6.67,5.23-.19,1.61-.84,2.73-2.34,3.09-4.12.56-2.82-.89-5.56-3.53-6.7-41.57-17.95-77.31-49.38-100.63-88.52-24.13-40.49-34.28-86.67-29.35-133.56,5.18-49.26,27.34-95.67,62.4-130.7,34.55-34.51,80.1-56.62,128.25-62.25,1.13-.14,2.27.23,3.12.98s1.34,1.85,1.34,2.99v10.76c0,.24.11.43.32.56.21.13.43.13.64,0l40.31-22.22c.08-.05.33-.18.33-.56s-.25-.52-.33-.57l-40.31-22.21c-.1-.06-.21-.09-.31-.09h0Z"/><path class="cls-1" d="m241.36,508.01c-1.43,0-2.86-.36-4.18-1.09l-40.31-22.22c-2.76-1.52-4.47-4.42-4.47-7.57s1.71-6.05,4.47-7.57l40.31-22.22c2.71-1.49,5.91-1.44,8.57.13,2.66,1.57,4.25,4.35,4.25,7.44v7.8c100.97-6.18,184.48-85.8,195.1-186.85,9.8-93.23-44.32-182.28-131.6-216.55-6.35-2.49-9.98-9.13-8.65-15.78.81-4.06,3.37-7.53,7.01-9.51,3.68-2,8.03-2.27,11.94-.73,98.92,38.88,160.25,139.83,149.15,245.5-5.99,57.02-32.49,109.92-74.61,148.95-40.77,37.77-93.31,60.07-148.34,63.04v8.58c0,3.09-1.59,5.87-4.25,7.44-1.37.81-2.88,1.21-4.39,1.21Zm0-53.74c-.1,0-.21.03-.31.09l-40.31,22.22c-.08.05-.33.18-.33.56s.25.52.33.57l40.31,22.22c.21.12.43.12.64-.01.21-.12.32-.31.32-.55v-12.4c0-2.15,1.7-3.92,3.85-4,113.09-4.23,207.3-92.36,219.14-205,10.73-102.11-48.53-199.65-144.12-237.22-1.71-.67-3.59-.55-5.18.31-1.57.86-2.64,2.3-2.99,4.06-.57,2.85,1,5.69,3.73,6.76,90.62,35.58,146.8,128.03,136.63,224.83-5.47,52.08-29.64,100.42-68.04,136.13-38.03,35.35-87.34,55.98-138.86,58.09-1.09.04-2.15-.36-2.93-1.11-.79-.75-1.23-1.8-1.23-2.89v-12.01c0-.24-.11-.43-.32-.55-.1-.07-.21-.1-.32-.1h0Z"/></svg>