<svg xmlns="http://www.w3.org/2000/svg" xmlns:xlink="http://www.w3.org/1999/xlink" id="Layer_1" x="0px" y="0px" viewBox="0 0 1080 1920" style="enable-background:new 0 0 1080 1920;" xml:space="preserve"><style type="text/css">	.st0{fill:#172063;}	.st1{fill:none;stroke:#1F85FF;stroke-miterlimit:10;stroke-dasharray:8,10;}	.st2{fill:#14205E;}	.st3{fill:#FE8B6C;}	.st4{fill:#E4E4E4;}	.st5{fill:#F0F0F0;}	.st6{fill:#2D2D2D;}	.st7{fill:#212121;}	.st8{fill:#1F85FF;}	.st9{fill:#E5CBBA;}	.st10{fill:#D4D4D4;}	.st11{fill:#E0E0E0;}	.st12{fill:#FFC525;}	.st13{fill:#0D77F7;}	.st14{fill:#EDD9CC;}	.st15{fill:#0067E2;}	.st16{fill:#FFFFFF;}	.st17{fill:url(#SVGID_1_);}	.st18{fill:url(#SVGID_00000085231471744320105750000011379392381617550995_);}	.st19{fill:url(#SVGID_00000110466376948832015160000001857872558999862916_);}	.st20{fill:url(#SVGID_00000150789697693766569070000007382045425157542562_);}	.st21{fill:url(#SVGID_00000013157141937636907700000016565713503489500819_);}	.st22{fill:url(#SVGID_00000141437901622491547180000016391557769102967938_);}	.st23{fill:url(#SVGID_00000174592667410060526790000013089003330126615441_);}	.st24{fill:url(#SVGID_00000153680421677929056970000004034453379211080092_);}	.st25{fill:url(#SVGID_00000145048430613487684350000015872852368063012238_);}	.st26{fill:url(#SVGID_00000142155772354699658140000015508735660334695057_);}	.st27{fill:url(#SVGID_00000045620304015959387440000004858651349912783287_);}	.st28{fill:none;stroke:#1F85FF;stroke-miterlimit:10;stroke-dasharray:8.0352,10.044;}	.st29{fill:none;stroke:#1F85FF;stroke-miterlimit:10;}	.st30{fill:#0D6EFD;}	.st31{fill:none;stroke:#1F85FF;stroke-width:0.5;stroke-linecap:round;stroke-miterlimit:10;}</style><rect x="-0.6" y="-2.6" class="st0" width="1081.3" height="1925.1"></rect><path class="st1" d="M773.7,1929.3c2.2-21.4,3.4-43.2,3.4-65.2c0-344.2-279.1-623.3-623.3-623.3c-53.3,0-105.1,6.7-154.5,19.3"></path><ellipse class="st2" cx="351.3" cy="1830.2" rx="160.6" ry="43.7"></ellipse><path class="st3" d="M752.7,240.1c-11.7-8.8-27.4-1.1-37.4,6.7c-6.5,5-11.3,12-15.2,19c-3.2,5.7-6.2,11.8-7.5,18.3 c-1.2,6-0.8,14.2,4,18.8c1.8,1.7,4.2,2,6.6,1.6c3.7-0.7,7.4-2.2,10.7-3.9c6.7-2.6,13.3-5.4,19.2-9.6c6.6-4.6,12.8-10.6,17.7-17 c2.4-3.1,4.4-6.6,6.3-10c1.5-2.7,2.8-5.7,3-8.8C760.4,249.3,757.2,243.5,752.7,240.1z"></path><g>	<path class="st4" d="M762.7,185.6c1.6,2.3,3.6,4.4,5.4,6.5c3.9,4.7,7.9,9.3,11.8,14c7.7,9.2,15.6,18.3,23.1,27.7  c0.9,1.2,1.9,2.4,2.9,3.5c0.5,0.6,0.9,1.1,1.4,1.7c0.2,0.3,0.5,0.5,0.7,0.8c0.3,0.5,0.4,0.5,0.2,0.9c-0.4,1-1.8,1.9-2.6,2.6  c-1,0.8-2.2,1.6-3.2,2.3c-2.3,1.6-4.3,3.5-6.4,5.3c-2.3,2-4.6,4-6.9,6c-9.2,8-18.8,15.6-28.2,23.3c-4.6,3.8-9.2,7.5-14,11  c-4.8,3.5-9.8,6.9-14.3,10.7c-0.5,0.4-1,0.9-1.5,1.3c-0.5,0.4-1.3,1.2-2,1.3c-0.6,0.1-1.2-0.8-1.6-1.2c-0.6-0.6-1.2-1.2-1.7-1.8  c-2-2.1-3.9-4.3-5.8-6.5c-3.8-4.5-7.4-9.2-11-13.8c-3.7-4.6-7.5-9.2-11.3-13.7c-3.8-4.6-7.9-9-11.3-13.8c-1.6-2.2-3.1-4.4-4.7-6.6  c4.5-2.8,8.3-6.8,12.3-10.2c4.7-3.9,9.3-7.9,14-11.8c9.3-7.8,18.6-15.6,27.9-23.4c4.6-3.9,9.2-7.8,13.9-11.7c1.6-1.3,3-2.7,4.4-4.1  c1.2-1.3,2.6-2.8,4.3-3.4C760.6,181.7,761.7,184.1,762.7,185.6z"></path>	<path class="st5" d="M715.7,252.1c5.5,0.5,10.9,1,16.4,1.6c5.3,0.6,10.5,1.4,15.7,2.2c2.6,0.4,5.2,0.6,7.8,0.7c1,0,3,0.4,3.5-0.6  c0.5-1.1,0.6-2.6,0.9-3.8c1.1-5.1,1.8-10.3,2.2-15.5c0.8-10.3,0.3-20.7-1-30.9c-1-7.7-2.4-15.5-2.5-23.3c-0.1,0-0.2,0.1-0.4,0.1  c-1.7,0.6-3.1,2.1-4.3,3.4c-1.4,1.5-2.9,2.8-4.4,4.1c-4.6,3.9-9.2,7.8-13.9,11.7c-9.3,7.8-18.6,15.6-27.9,23.4  c-4.7,3.9-9.3,7.9-14,11.8c-4,3.4-7.9,7.4-12.3,10.2c0.1,0.1,0.2,0.2,0.3,0.4C693,249.8,704.4,251,715.7,252.1z"></path></g><path class="st6" d="M445.7,1816.9c-8.9-5.2-17.7-10.6-27.2-14.7c-5.6-2.4-11.7-2.6-17.4-4.7c-3.5-1.2-4.8-3-5.8-6.5 c-0.8-3-1.7-6.1-2.2-9.2c-1-6-0.3-11.9-0.6-17.9c-0.1-1.2-0.1-3-1-3.8c-1-0.9-2.8-0.2-4-0.1c-7.9,1-16.1,0.4-24,0.3 c-5.7,0-12-1.3-17.6,0.3c-0.1,0-0.2,0.1-0.2,0.1c-0.1,0.1-0.2,0.2-0.2,0.4c0,14.3-0.1,28.7-0.5,43c-0.1,3.3-0.2,6.6-0.4,9.9 c-0.1,2.8-0.7,5.5-0.7,8.3c-0.1,3.3,2.9,3.8,5.6,3.9c4.6,0.2,9.2-0.4,13.8-0.3c7.1,0.1,14.2,0.2,21.2,0.4c14.5,0.4,29,0.6,43.6,0.7 c6.3,0.1,12.6-0.1,18.9,0.2c2.2,0.1,7.2,1.2,8.9-0.7C458.8,1823.7,447.4,1818,445.7,1816.9z"></path><path class="st7" d="M365,1825.2c-8.9-5.2-17.7-10.6-27.2-14.7c-5.6-2.4-11.7-2.6-17.4-4.7c-3.5-1.2-4.8-3-5.8-6.5 c-0.8-3-1.7-6.1-2.2-9.2c-1-6-0.3-11.9-0.6-17.9c-0.1-1.2-0.1-3-1-3.8c-1-0.9-2.8-0.2-4-0.1c-7.9,1-16.1,0.4-24,0.3 c-5.7,0-12-1.3-17.6,0.3c-0.1,0-0.2,0.1-0.2,0.1c-0.1,0.1-0.2,0.2-0.2,0.4c0,14.3-0.1,28.7-0.5,43c-0.1,3.3-0.2,6.6-0.4,9.9 c-0.1,2.8-0.7,5.5-0.7,8.3c-0.1,3.3,2.9,3.8,5.6,3.9c4.6,0.2,9.2-0.4,13.8-0.3c7.1,0.1,14.2,0.2,21.2,0.4c14.5,0.4,29,0.6,43.6,0.7 c6.3,0.1,12.6-0.1,18.9,0.2c2.2,0.1,7.2,1.2,8.9-0.7C378.1,1832,366.7,1826.2,365,1825.2z"></path><path class="st7" d="M468.4,1052.5c6-31,13.3-63.3,3.8-94.4c-8.7-0.1-17.4-0.2-26.2-0.3c-24.6-0.2-49.2,0-73.7-0.1 c-12.3-0.1-24.6-0.4-36.8-0.5c-5.9,0-11.8,0.1-17.7,0.1c-4.5,0-9.2,0.2-13.8-0.5c0,4.6,0,9.2,0,13.7c0,30.5,0.6,61.1,5,91.2 c4.3,29.5,12.9,57.7,18.5,86.9c5.4,27.7,7.1,56.2,7.7,84.5c0.7,29.7,0.5,59.5-1.1,89.2c-1.5,29.6-4.1,59.2-5.8,88.8 c-1.8,30.7-2.3,61.5-1.9,92.3c0.4,31.1,1.7,62.3,3.4,93.4c1.7,30.7,4.2,61.4,5.3,92.2c0.5,15.4,0.9,30.8,1.7,46.2 c0.6,11.1,0.8,23.1,3.2,33.9c0.4,1.6,0.8,3.1,1.3,4.4h52.4c5.9-6.7,7.8-19.2,8.6-28c1.6-16.5,0.8-33.2,0.1-49.7 c-0.3-6.1-0.6-12.2-0.4-18.2c0.4-13.8,2.8-27.6,5.7-40.9c6.8-31.1-2-60.9,5.7-91.6c16.1-64.4,35.6-128,44.2-194.6 c4.1-32,5.5-64.4,4.5-96.8c-1.1-34.6-2.5-69.2-2-103.8C460.7,1117.2,462.3,1084.4,468.4,1052.5z"></path><path class="st6" d="M255.9,1233.2c0.7,29.7,0.5,59.5-1.1,89.2c-1.5,29.6-4.1,59.2-5.8,88.8c-1.8,30.7-2.3,61.5-1.9,92.3 c0.4,31.1,1.7,62.3,3.4,93.4c1.7,30.7,4.2,61.4,5.3,92.2c0.5,15.4,0.9,30.8,1.7,46.2c0.6,11.1,0.8,23.1,3.2,33.9 c0.4,1.6,0.8,3.1,1.3,4.4h52.4c5.9-6.7,7.8-19.2,8.6-28c1.6-16.5,0.8-33.2,0.1-49.7c-0.3-6.1-0.6-12.2-0.4-18.2 c0.4-13.8,2.8-27.6,5.7-40.9c6.8-31.1-2-60.9,5.7-91.6c16.1-64.4,35.6-128,44.2-194.6c4.1-32,5.5-64.4,4.5-96.8 c-1.1-34.6-2.5-69.2-2-103.8c0.4-32.6,2-65.4,8.1-97.3c6-31,13.3-63.3,3.8-94.4c-8.7-0.1-17.4-0.2-26.2-0.3 c-24.6-0.2-49.2,0-73.7-0.1c-12.3-0.1-24.6-0.4-36.8-0.5c-5.9,0-11.8,0.1-17.7,0.1c-4.5,0-9.2,0.2-13.8-0.5c0,4.6,0,9.2,0,13.7 c0,30.5,0.6,61.1,5,91.2c4.3,29.5,12.9,57.7,18.5,86.9C253.5,1176.4,255.3,1204.9,255.9,1233.2z"></path><path class="st8" d="M698.2,323.4c0.2-0.3-0.1-0.8-0.6-0.8c-0.1-0.1-0.2-0.3-0.3-0.4c-0.3-0.4-0.8-0.1-0.9,0.3 c-0.1,0.3-0.3,0.6-0.7,0.6c-4.6,0.4-9.3-5-12.1-7.8c-3.3-3.4-6.4-6.8-9.6-10.3c0-0.1-0.1-0.1-0.1-0.1c0,0,0,0,0-0.1 c-0.2-0.3-0.5-0.2-0.7,0c-5.4,0.2-10.4,1.7-14.5,5.3c-4.1,3.5-6.8,8.3-9.4,12.9c-8.1,14.4-17.3,28.1-26.1,42.1 c-8.7,13.8-17.1,27.9-25.6,41.8c-8.2,13.4-16.3,26.9-23.3,41c-1.1,2.3-2.2,4.6-3.3,6.9c-0.1,0.2-0.2,0.3-0.4,0.4 c-1,0.6-2.1,1.2-3.1,1.8c-6.6,3.7-13.1,7.6-19.3,11.8c-6.3,4.3-11.8,9.5-18.1,13.8c-12,8.3-25.7,13.7-38.9,19.9 c-7.4,3.5-14.3,7.3-22.4,8.7c-8,1.4-16.1,1.2-24.1,1.1c-16.9-0.1-32.9-4-48.9-8.8c-0.5-0.2-0.8-0.7-0.6-1.2c0.2-0.4,0.3-0.8,0.4-1.2 c0.2-0.7-0.9-1-1.1-0.3c-0.1,0.5-0.3,0.9-0.5,1.4c-0.2,0.4-0.7,0.6-1.1,0.5c-1-0.3-2-0.6-3-0.9c-0.7-0.2-1,0.8-0.3,1.1 c0,1.7-0.1,2-0.1,3.7c-2.3,1.1-5.1,1.6-7.6,1.9c-4.8,0.6-9.7,0.3-14.6,0.1c-5.8-0.3-11.6-1-16.6-4.2c-2.4-1.6-4.3-3.6-5.6-5.8 c-0.3-0.6,0-1.3,0.7-1.4c0.5-0.1,1-0.2,1.6-0.2c0.7-0.1,0.4-1.2-0.3-1.1c-0.8,0.1-1.5,0.3-2.3,0.4c-0.4,0.1-0.8-0.2-1-0.6 c-1-2.7-1.4-5.6-1.3-8.6c0-0.7-1.1-0.7-1.1,0c-0.1,2.9,0.3,5.7,1.1,8.4c0.2,0.5-0.2,1.1-0.7,1.2c-9.9,1.3-19.7,2-29.2,6 c-10.3,4.3-19.7,10.5-29.5,15.8c-10.9,6-21.8,11.8-33,17.3c-10,5-20.2,9.5-30.2,14.4c-9,4.4-17.9,9.2-25.8,15.5 c-7.7,6.1-13.8,13.7-19.2,21.8c-5.8,8.7-10.6,18-14.5,27.6c-4.1,10-6.8,20.4-9.7,30.8c-3.3,11.5-6.7,22.9-9.1,34.6 c-2.4,11.8-3.7,23.8-5.6,35.7c-1.9,12-4.6,23.7-8.5,35.2c-3.8,11.2-5.2,22.9-7.6,34.5c-3.1,15-9.3,29-12.5,44 c-2.5,11.6-4.7,27.1,3.8,36.9c5.1,5.9,13.1,7.6,20.7,7.9c5.2,0.2,10.4-0.2,15.5-0.4c5.4-0.2,10.9-0.2,16.3-0.3 c10.9-0.2,22-0.5,32.7-2.7c4.3-0.9,8-2.2,11.7-4.3c0.6-0.3,1.3,0,1.4,0.7c1,9.6,1.3,19.3,1.5,28.9c0.1,11.2,0.3,22.4-0.3,33.6 c-0.5,8.5-1,17.3,0.9,25.7c0.8,3.3,2,6.6,4.3,9.1c2.7,2.9,6.7,3.7,10.5,4.1c4.9,0.4,9.8-0.2,14.7,0.1c7,0.4,13.9,1.3,20.9,1.6 c14.2,0.7,28.4,0.5,42.6,0.5c28.8,0,57.5-0.2,86.3,0.1c15.6,0.1,31.3,0.9,46.9,0.6c13.5-0.2,27.1-1.5,40-5.3c0.1,0,0.3-0.1,0.4-0.2 c0,0,0,0,0,0c1.7-1.5,2.5-3.7,2.2-5.9c-1-8.5-0.2-17.3-0.1-25.8c0.2-12.3-1.7-24.7-2.1-37c-0.9-26.2,0.3-52.5,0.5-78.7 c0.2-26.8,2.1-53.6,3.1-80.4c0.5-13.1,1.4-26.2,4.9-38.8c3.5-12.6,7-25.1,10.3-37.7c3.7-14.2,7.5-28.4,12.5-42.2 c2-5.5,3.9-10.9,6.4-16.1c0.1-0.1,0.1-0.2,0.2-0.3c11-10.5,25.7-15.9,38.2-24.2c6.4-4.2,12.1-9.1,17.9-14.1 c6.4-5.5,12.8-11,19.2-16.5c10.8-9.2,22.9-17.5,30.4-29.8c6.8-11.1,10.9-23.5,16.1-35.4c3-6.8,6.4-13.4,9.5-20.2 c3.5-7.5,6.9-15.1,10.4-22.6c7.1-14.9,15.8-29,24.5-43c7.7-12.2,15.4-24.6,19.5-38.6C705.3,346.7,705.7,333.7,698.2,323.4z"></path><path class="st3" d="M420.5,543.6c-0.8-12.7-6-23.5-9.9-35.3c-2.2-6.8-3.9-13.9-4.2-21.2c-0.3-7.7,0.2-15.5,0-23.3 c-0.3-13.2-13.7-10.7-22.5-12c-7.7-1.2-15.4-2.1-23.2-2.8c-8.2-0.7-17.1,0-25.2-1.9c-0.2,0-0.4-0.1-0.6-0.1c-4-4.1-11.4,1.2-8.1,6.8 c2.4,4.1,3.3,10.1,3.5,14.9c0.3,7.2,0.2,14.5,0.1,21.7c-0.2,13.8-4.7,29-1.2,42.6c5.6,21.8,30.3,33.2,49.1,36.5 c5.5,1,11.1,1.5,16.6,1.4c5.4-0.1,12.6-0.3,17.4-3.3C419.9,563,421,552.1,420.5,543.6z"></path><path class="st3" d="M448.6,399.9c-7.1-7.3-15.8-12.2-22.1-20.5c-5.7-7.6-8.2-15.9-10-25.1c-3.5-18-10.1-37.4-27.3-46.7 c-10.1-5.4-22.2-4.7-33.3-4.2c-6.8,0.3-23.6,0-24.4,9.6c-6.9,2.7-13.9,5.3-20.4,8.8c-10.7,5.7-15.7,17.3-19.4,28.3 c-4.2,12.5-6.3,26.1-5.4,39.2c0.9,12.8,5,24.5,9.6,36.3c4.3,11,9.4,21.2,16.8,30.5c7.3,9.1,14.6,15.1,26.5,16.2 c13.3,1.3,27.2,0,40.6,0c7,0,14.1-0.3,21.1,0c7.4,0.3,14.8,2.6,22.2,2.4c12.5-0.4,23.6-8.6,24.3-21.7c0.3-6.9-1.3-14.2-2.4-21 c-0.6-3.8-1.4-7.1-2.8-10.6c-1.1-2.8-2.4-5.6-2.8-8.6c3.2-1.5,6.4-2.8,9.2-5C451,405.9,450.5,401.9,448.6,399.9z"></path><path class="st6" d="M419.5,299.9c-0.2-5.5-0.4-11.2-2-16.5c-2.7-8.9-9.6-17.1-17.8-21.5c-3.8-2-19.9-7.6-16.5,1.8 c-3.8,0.8-8.4-2.9-12.1-3.7c-3.6-0.8-7.7-1.2-11.4-1c-2,0.1-4.6,0.6-5.5,2.7c-1,2.6,1.4,3.8,2.8,5.5c-3.1,0.8-7.2-0.1-10.2-0.3 c-3.3-0.2-7.4-0.7-10.5,0.7c-2.6,1.2-3.1,3.9-1.9,6.3c1.2,2.4,3.6,3.8,5,6c2.5,4.1,0.1,10.4-3.8,12.9c-5.6,3.5-14.1,2.4-20.3,2.3 c-7.4-0.2-15.1-0.6-22.3,1.6c-6.6,2-12.5,5.9-18.1,9.9c-4.9,3.5-9,8-11.6,13.4c-3,6.3-4.3,14.2-4.8,21.1c-0.3,3.8-0.1,7.5,1.2,11.1 c0.7,2,1.7,3.8,2.8,5.7c-1.1,1.1-1.9,2.4-2.5,4.1c-1.7,5.2-2.3,11-2.4,16.4c-0.3,11.7,3.6,23.2,9.1,33.4 c5.7,10.4,13.5,19.5,20.8,28.7c3.9,4.9,7.8,9.6,12,14.2c4.5,4.8,8.3,10,12.2,15.2c3.9,5.4,7.2,11,10.2,17c1.5,3.2,3.6,5.2,5.8,1.8 c1.1,0.6,2.2,1,3.5,0.5c1.7-0.7,3.2-2.7,4.1-4.3c1.3-2.2,1.9-4.7,2.8-7c1-2.8,2.6-5.3,3.6-8c1.8-4.7,2-9.9,1.7-15 c-0.3-4.9-0.8-10.1-1.8-14.9c-0.6-3.1-1.9-6.3-5-7.5c-2.2-0.9-4.5-0.8-6.7-1.8c-2.8-1.4-5.1-3.5-6.9-6.1c-3.3-4.8-2.6-11.1-2.4-16.7 c0.2-4.9,1.6-12.6,5.9-15.6c4.2-2.9,11.1-1.8,14.4,1.9c2.7,3.2,4.9,15.6,5.2,16l11.2,16.4c3.6-1.5,7.3-3.8,10.4-5.2 c3.3-1.5,6.4-3.3,9.4-5.1c-0.8-4.5-5.9-10.5-7.4-13c-2.7-4.6-4.9-9.5-7.4-14.2c-1.2-2.2-3-5.1-1.6-7.6c1.2-2.2,2.9-4.1,4.1-6.3 c2.7-4.7,4.6-10.8,5.5-16.1c0.5-3.1,0.7-6.2,0.8-9.3c3.9,0,7.9-0.2,11.7-1.2c5.5-1.6,10.3-4.7,15.1-7.6c4.5-2.7,8.8-5.4,12.2-9.6 c3.4-4.2,6.2-8.9,7.7-14.1C419.5,311.5,419.7,305.7,419.5,299.9z"></path><path class="st3" d="M724.9,258.3c-2.4-3.4-6.9-5.8-10.3-8c-2-1.3-4.2-2.5-6.2-4c-1.6-1.2-3.1-2.6-4.8-3.7c-2.5-1.6-5.1-2-7.6-0.2 c-1.6,1.2-2.8,2.9-4.1,4.2c-1.7,1.7-3.2,3.3-4.7,5.2c-3.1,4-6.1,8.5-7.3,13.5c-1.2,5.6-0.2,11.7,0.2,17.3c0.2,3.1,0.7,6.5,0.1,9.5 c-0.5,2.4-1.8,4.7-3.2,6.7c-2.6,3.9-5.8,7.4-8.2,11.4c0.5,1.2,1.1,2.4,1.6,3.6c0.9,1.2,1.8,2.5,2.7,3.7c4.1,4.4,9.2,8.3,13.2,11.6 c3.3,2.8,6.7,4.9,10.3,6.4c1.1-1.3,1.7-3,2.1-4.5c1.2-4.2,2.5-8.3,4.4-12.3c2-4.3,5.1-7.9,6.9-12.3c3.7-8.9,3.6-18.8,0.7-27.9 c-1.6-5-4.5-9.2-6.3-14.1c-0.4-1-1.2-2.4-0.3-3.1c0.7-0.6,2.1-0.1,2.9,0.1c2.6,0.5,5.1,1.2,7.7,1.8c2.8,0.6,7.5,1.8,10.1-0.2 C726.7,261.8,726,259.8,724.9,258.3z"></path><path class="st9" d="M229.2,588.3c3.4,2.7,5.8,6.5,7.4,10.5c1.6,4,2.6,8.3,3.1,12.6c1.1,8.6,0.6,17.3-0.2,25.9 c-0.9,8.6-2.4,17.2-4.2,25.6c-1.8,8.5-3.9,16.9-6.3,25.2c-4.7,16.7-10.2,33.1-16.1,49.3c-5.9,16.3-12.3,32.3-19.1,48.3l-5.1-2.3 c7.2-15.7,13.9-31.5,20.3-47.5c6.3-16,12.2-32.2,17.3-48.6c2.5-8.2,4.9-16.5,6.9-24.9c2-8.4,3.7-16.8,4.9-25.3 c1.1-8.5,1.8-17.1,0.9-25.7c-0.4-4.3-1.2-8.5-2.7-12.5C234.9,594.9,232.5,591.1,229.2,588.3z"></path><path class="st9" d="M234.4,781.8c-5.8,1.1-11.5,1.8-17.2,2.4c-5.7,0.6-11.4,1.1-17.1,1.6l-17,1.4c-5.7,0.5-11.3,1-17.2,1.6 c5.2-2.8,10.8-4.6,16.5-6c5.7-1.4,11.5-2.1,17.2-2.7c5.8-0.5,11.6-0.6,17.4-0.4C222.9,780,228.7,780.5,234.4,781.8z"></path><g>	<path class="st10" d="M297.5,682.5c2.5,1.2,5.3,2,8,3c5.7,2.1,11.5,4.2,17.2,6.3c11.3,4.2,22.6,8.2,33.8,12.6  c1.4,0.6,2.8,1.1,4.2,1.7c0.7,0.3,1.4,0.5,2,0.8c0.3,0.1,0.7,0.2,1,0.4c0.5,0.2,0.6,0.2,0.6,0.7c0.1,1.1-0.6,2.6-1,3.5  c-0.5,1.2-1.1,2.4-1.7,3.6c-1.2,2.5-2,5.2-2.9,7.8c-1,2.9-2,5.8-3,8.7c-4.1,11.5-8.6,22.9-13,34.3c-2.1,5.5-4.2,11.1-6.7,16.5  c-2.4,5.4-5.1,10.8-7.1,16.4c-0.2,0.6-0.5,1.2-0.7,1.9c-0.2,0.6-0.6,1.7-1.1,2.1c-0.5,0.4-1.4-0.1-2-0.3c-0.8-0.2-1.6-0.4-2.4-0.7  c-2.8-0.8-5.6-1.8-8.3-2.8c-5.5-2-11-4.3-16.4-6.6c-5.5-2.2-11-4.3-16.6-6.3c-5.6-2.1-11.3-3.9-16.7-6.4c-2.5-1.1-4.9-2.3-7.4-3.4  c2.5-4.7,3.8-10,5.7-15c2.1-5.7,4.2-11.4,6.3-17.2c4.2-11.4,8.4-22.8,12.6-34.2c2.1-5.7,4.2-11.3,6.3-17c0.7-1.9,1.3-3.8,1.8-5.8  c0.4-1.7,0.9-3.7,2.1-5.1C293.7,680.2,295.8,681.8,297.5,682.5z"></path>	<path class="st11" d="M289.6,763.5c5-2.3,10-4.5,15-6.7c4.9-2.1,9.8-4,14.7-5.9c2.4-1,4.9-2,7.2-3.3c0.9-0.5,2.8-1.1,2.7-2.2  c-0.1-1.2-0.8-2.6-1.1-3.8c-1.6-5-3.6-9.8-5.8-14.6c-4.4-9.3-10-18.1-16.2-26.4c-4.7-6.2-9.7-12.3-13.7-19.1  c-0.1,0.1-0.2,0.2-0.3,0.3c-1.2,1.4-1.6,3.4-2.1,5.1c-0.5,2-1.1,3.9-1.8,5.8c-2.1,5.7-4.2,11.3-6.3,17  c-4.2,11.4-8.4,22.8-12.6,34.2c-2.1,5.7-4.2,11.4-6.3,17.2c-1.8,5-3.2,10.3-5.7,15c0.1,0.1,0.3,0.1,0.4,0.2  C268.7,772.8,279.2,768.2,289.6,763.5z"></path></g><g>	<path class="st4" d="M347.7,710.6c1.8,2.2,3.9,4.1,5.9,6.1c4.2,4.4,8.5,8.8,12.7,13.2c8.3,8.7,16.8,17.2,24.9,26.1  c1,1.1,2,2.2,3.1,3.3c0.5,0.5,1,1,1.5,1.6c0.2,0.3,0.5,0.5,0.8,0.8c0.4,0.4,0.4,0.4,0.3,0.9c-0.4,1-1.6,2.1-2.4,2.8  c-1,0.9-2,1.7-3.1,2.5c-2.2,1.7-4.1,3.8-6,5.7c-2.2,2.2-4.3,4.3-6.5,6.5c-8.7,8.6-17.7,16.8-26.6,25.2c-4.3,4.1-8.7,8.1-13.2,11.9  c-4.5,3.8-9.3,7.5-13.6,11.6c-0.5,0.5-1,0.9-1.5,1.4c-0.5,0.4-1.2,1.3-1.9,1.4c-0.6,0.1-1.2-0.7-1.6-1.1c-0.6-0.5-1.2-1.1-1.8-1.7  c-2.1-2-4.2-4-6.2-6.1c-4.1-4.3-8-8.7-11.9-13.1c-4-4.4-8.1-8.6-12.2-12.9c-4.1-4.3-8.4-8.4-12.2-13c-1.7-2.1-3.4-4.2-5.1-6.3  c4.3-3.1,7.8-7.3,11.6-11c4.4-4.2,8.8-8.5,13.2-12.7c8.7-8.4,17.5-16.8,26.2-25.3c4.3-4.2,8.7-8.4,13-12.6c1.5-1.4,2.8-2.9,4.2-4.4  c1.1-1.3,2.4-3,4.1-3.7C345.3,706.8,346.5,709.2,347.7,710.6z"></path>	<path class="st5" d="M305.3,780.1c5.5,0.2,11,0.3,16.5,0.5c5.3,0.2,10.6,0.7,15.9,1.1c2.6,0.2,5.2,0.3,7.9,0.2c1,0,3,0.2,3.4-0.8  c0.4-1.1,0.4-2.7,0.6-3.9c0.7-5.2,1.1-10.4,1.1-15.6c0.1-10.3-1.1-20.7-3.1-30.8c-1.5-7.7-3.4-15.3-4-23.1c-0.1,0-0.2,0.1-0.4,0.1  c-1.7,0.7-3,2.4-4.1,3.7c-1.3,1.6-2.7,3-4.2,4.4c-4.3,4.2-8.7,8.4-13,12.6c-8.7,8.4-17.5,16.8-26.2,25.3  c-4.4,4.2-8.8,8.5-13.2,12.7c-3.8,3.7-7.3,7.9-11.6,11c0.1,0.1,0.2,0.2,0.3,0.3C282.4,779.3,293.9,779.7,305.3,780.1z"></path></g><path class="st3" d="M349.4,755.5c-1.6-2.1-4.6-2.4-7-2.3c-4.5,0.1-9.1,0.8-13.6,1.2c-6,0.5-11.9,0.9-17.9,1.5 c-6.9,0.7-13.9,0.9-20.8,1.2c-2.9,0.1-5.8,0.2-8.6,0.7c-3.1,0.5-13.7,3.5-16.9,3.5c0.2-5.8,15.1-5.5,5-20c-0.2-0.3-0.6-0.2-0.8,0 c-10.9,10.7-24.1,18.7-34.6,29.7c-5.6,5.8-9.7,12.6-14.2,19.2c-5,7.5-10.3,14.8-15.2,22.4c-4.4,6.9-8.3,14.9-8.9,23.3 c0,0.2,0.3,1.6,0.6,2.2c0.6,1.5,2.4,2.3,3.8,2.9c5.4,2.2,11.8,2.1,17.3,0.5c5.8-1.7,11.7-5,16.1-9.1c3-2.7,5-6.1,7-9.5 c4.9,0.3,9.8,0.4,14.7,0.5c10.1,0.1,20.1,1,30.2,1.6c7.7,0.5,16.6,1.4,23.6-2.8c6.7-4,8.2-11.3,9.2-18.5c1.4-10.2,0.5-20.5-1.4-30.6 c5.9-1.4,11.8-2.6,17.6-4.1c4.9-1.2,12.3-1.5,15.2-6.4C350.8,760.5,350.8,757.5,349.4,755.5z"></path><g>	<g>		<path class="st3" d="M929.9,282.9c0,0-0.1,0.2-0.1,0.3c0,0,0,0.1-0.1,0.1c-0.1,0.1-0.2,0.2-0.2,0.2c0,0-0.1,0.1-0.1,0.1   c0,0,0,0-0.1,0c-0.3,0.2-0.6,0.3-0.9,0.5c0,0,0,0,0,0c0,0-0.1,0-0.1,0c-0.2,0.1-0.4,0.1-0.6,0.2c-0.1,0-0.2,0.1-0.3,0.1   c0.2-0.5,0.2-1.1-0.1-1.6c-0.5-0.8-1.7-1.3-2.6-0.7c-1.1,0.7-1.9,1.7-2.6,2.8c-1.2,0.3-2.5,0.6-3.7,0.9c-0.3,0.1-0.6,0.1-0.9,0.2   c-0.2,0-0.3,0.1-0.5,0.1c0,0-0.2,0-0.3,0c-0.1,0-0.3,0-0.3,0c-0.1,0-0.3,0-0.4,0c-0.4,0-0.8,0.1-1.2,0.1c-2.6,0.1-4.6-0.4-7.1-1.2   c-0.5-0.2-0.9-0.3-1.4-0.5c-0.1,0-0.3-0.1-0.5-0.2c-0.1,0-0.1-0.1-0.1-0.1c-0.2-0.1-0.3-0.1-0.5-0.2c-1-0.5-2-1-3-1.5   c-1-0.6-2.1-1.2-3.1-1.9c-0.4-0.3-0.8-0.6-1.2-0.9c0,0-0.4-0.3-0.5-0.4c-0.2-0.2-0.4-0.4-0.6-0.6c-0.5-0.4-0.9-0.8-1.3-1.3   c-0.2-0.2-0.3-0.4-0.5-0.6c-0.1-0.1-0.2-0.3-0.3-0.4c-0.1-0.2-0.3-0.4-0.4-0.6c-0.1-0.1-0.1-0.2-0.2-0.3c-0.1-0.1-0.3-0.4-0.1-0.2   c0,0,0,0.1,0.1,0.1c0,0-0.1-0.1-0.1-0.2c0-0.1-0.1-0.3-0.1-0.4c-0.1-0.2-0.2-1.1-0.1-0.3c-0.1-1.3-1-2.6-2.5-2.5   c-1.2,0-2.7,1.1-2.5,2.5c0.6,5.3,5.3,8.9,9.6,11.5c4.4,2.6,9.5,4.9,14.8,5.1c3.3,0.1,6.6-0.5,9.7-1.3c1,1.6,2.7,2.7,4.5,2.9   c2,0.3,4.7,0,5.8-2c0.5-0.9,0.2-2.1-0.7-2.6c-0.8-0.5-2.1-0.2-2.6,0.6c0,0-0.1,0.1,0,0.1c0,0,0,0,0,0c-0.1,0-0.5,0.1-0.5,0.1   c-0.3,0-1.1,0.1-1.5,0c-0.4-0.1-0.8-0.3-1.2-0.6c2.9-0.5,6-1.6,6.7-4.5C934.2,281.5,930.5,280.5,929.9,282.9z"></path>		<path class="st12" d="M894.3,275.5C894.4,275.5,894.4,275.6,894.3,275.5L894.3,275.5z"></path>	</g>	<path class="st13" d="M861.5,218.6c4.1,1.3,8.3,2.1,12.6,2.4c4.5,0.2,9.1-0.2,13.5-1.1c5.5-1.3,10.6-3.3,15.6-5.8  c2.9-1.5,5.8-3,8.7-4.6c4.9-2.7,9.6-5.6,14.2-8.7c1-1.1,2-2.2,3-3.3c3.3-3.7,6.3-7.5,9.6-11.2c2-2.2,4.2-4.3,5.8-6.8  c0.9-1.4,1.6-3.1,1.6-4.8c0-2.2-1.3-4.3-3.3-5.3c-1.6-0.8-3.3-1.1-5.1-1c2.1-3.2,4.1-6.5,5.9-9.9c2.8-5.3,5.1-10.9,6.7-16.6  c0.7-2.7,1.4-5.6,1.4-8.4c0-3.1-1.5-6.4-4.8-7.2c-3.9-0.8-7.4,2-10.4,4.1c-3.7,2.5-7.3,5-11.1,7.4c1.2-4.5,2.1-9.1,2.3-13.8  c0.2-4.1-0.3-8.3-1.3-12.3c-0.9-3.4-2.4-7.4-5.7-9.1c-1.8-1-4.1-1.1-6-0.4c-2.5,0.9-4.4,2.7-6.2,4.5c-1.9,1.9-3.7,3.9-5.4,5.9  c0-6.2-0.7-12.3-1.7-18.4c-1.1-6.6-2.3-15.3-8.9-18.7c-2-1-4.2-0.2-5.4,1.6c-3.2,5-5.1,10.8-7.9,16c-0.9,1.6-1.8,3.2-2.6,4.8  c-0.6-2.9-1.4-5.8-2.4-8.6c-1.7-5-3.9-9.8-6.8-14.1c-1.5-2.2-3.2-4.3-4.9-6.3c-1.2-1.4-2.4-2.8-4-3.6c-2.6-1.3-5.5-0.7-7.5,1.4  c-1.4,1.5-2.3,3.6-2.8,5.6c-0.9,3.8-0.6,7.9-0.3,11.8c0.8,8.9,1.9,17.7,3.2,26.5c0.8,4.9,1.6,9.8,2.4,14.7c0.2,1.2,0.4,2.4,0.6,3.5  c0,0.3,0.1,0.6,0.1,0.9c0,0.1,0,0.2,0,0.3c0.1,0.6,0.2,1.3,0.3,1.9c0.4,2.5,0.7,4.9,1,7.4c0.6,4.8,1,9.6,1.2,14.5  c0.2,4.9,0.1,9.7,0.3,14.6c0.3,4.7,0.7,9.5,0.8,14.2c0.1,2.4,0.1,4.8,0,7.1c0,1.1-0.1,2.1-0.2,3.2c0,0.3-0.1,0.6-0.1,0.9  c0,0,0,0,0,0c0,0,0,0.1,0,0.1c-0.1,0.7-0.2,1.4-0.3,2c-0.7,4.2-1.7,8.4-2.8,12.5c-0.5,1.9-1.2,3.8-1.8,5.7  C855.3,216.1,858.3,217.5,861.5,218.6z"></path>	<g>		<path class="st14" d="M1000.1,217.9C1000.1,217.9,1000.1,217.9,1000.1,217.9C1000.2,217.9,1000.2,217.9,1000.1,217.9   c0,0-0.1,0-0.1,0C1000,217.9,1000.1,217.9,1000.1,217.9z"></path>		<path class="st14" d="M1035.2,194.7C1035.2,194.7,1035.2,194.7,1035.2,194.7c0,0,0,0,0.1,0.1c0.1,0,0.2,0.1,0.2,0.1   C1035.5,194.9,1035.4,194.8,1035.2,194.7C1035.2,194.8,1035.2,194.7,1035.2,194.7z"></path>		<path class="st14" d="M928.9,239.8c0.1-0.1,0.1-0.1,0.2-0.2c-0.1,0.1-0.2,0.2-0.4,0.3C928.8,239.9,928.9,239.8,928.9,239.8z"></path>		<path class="st14" d="M907.5,207.5c0.4,0,0.5-0.1-0.6-0.1c0,0,0,0,0,0C907.1,207.4,907.3,207.5,907.5,207.5z"></path>		<path class="st14" d="M863.4,191C863.6,191.1,863.7,191.2,863.4,191L863.4,191z"></path>		<path class="st14" d="M953.8,228.4C953.4,228.9,952.8,229.7,953.8,228.4L953.8,228.4z"></path>		<path class="st15" d="M1044.6,185.4c-2.9-3.3-7.7-4.2-11.9-4.4c-2.6-0.1-5.2,0-7.8,0.4c1.6-1.4,3.1-2.8,4.6-4.3   c3-3,6-6.4,7.4-10.5c1.8-5.4-1.6-11-7-12.1c-2.9-0.6-6.1-0.6-9,0c-3.5,0.7-6.6,2.9-9.2,5.2c-2.3,2-4.3,4.4-6.3,6.7   c-1.3,1.6-2.6,3.3-3.9,5c-0.3,0.4-0.5,0.7-0.8,1.1c-0.1,0.1-0.2,0.3-0.3,0.4c-0.3,0.3-0.5,0.6-0.8,1c-1.6,2-3.2,3.8-5.2,5.5   c0,0,0.1,0,0.1-0.1c-0.1,0-0.1,0.1-0.2,0.1c-0.1,0.1-0.2,0.1-0.2,0.2c-0.1,0-0.1,0.1-0.2,0.1c0,0-0.1,0-0.1,0.1   c-0.4,0.3-0.9,0.6-1.3,0.9c-0.9,0.6-1.8,1.2-2.7,1.8c-1.8,1.2-3.7,2.2-5.6,3.3c-7.6,4.1-15.7,7.5-23.6,10.9   c-1.7,0.8-3.5,1.5-5.3,2.2c-9.9,4-20,7.3-30.6,8.7c-3.7,0.4-7.5,0.6-11.3,0.4c-2-0.1-4-0.2-6-0.5c0,0-0.1,0-0.1,0   c-0.1,0-0.1,0-0.2,0c-0.1,0-0.3,0-0.4-0.1c0,0-0.1,0-0.1,0c0,0,0,0,0.1,0c-0.3-0.1-0.6-0.1-1-0.2c-1.1-0.2-2.1-0.4-3.2-0.6   c-3.4-0.8-6.7-1.7-10-2.8c-3.3-1.1-6.6-2.2-9.8-3.5c-6.9-2.9-14.1-5.4-20.2-9.7c0.2,0.1,0.4,0.2,0.6,0.4c-1.8-1.1-3.1-2.6-4.2-4.2   c-4.4-5.9-6.9-12.8-11.8-17.9c-2.4-2.8-5.2-5.2-8.4-7.2c-4.9-3-10.4-4.6-16.1-5c-9.8-0.6-20.7,3.3-27.2,10.9   c-3.7,4.3-5.9,9.2-6.5,14.8c-1,7.6,2.2,15,6.7,21.1c1.6,2.2,5.5,2,6.7,2.9c2.8,2,5.3,4.1,7.6,6.4c2.3,2.3,4.4,4.8,6.4,7.4   c8.9,11.4,14.3,24.9,22.5,36.7c17.4,24.8,54.3,27.4,80.7,16.6c3.6-1.6,7-3.6,10.2-5.9c6.4-4.6,11.7-10.7,15.6-18.3   c1.8-3.5,2.8-7.1,3.9-10.7c1.1-3.6,2.4-7.1,4.5-10.3c-0.2,0-0.1,0.2-0.3,0.2c1.1-1,1.6-2.3,2.9-3.1c0.2-0.1,0.4-0.4,0.6-0.5   c0.5-0.3,1.1-0.6,1.6-0.9c0.8-0.3,1.6-0.5,2.5-0.6c1.7-0.1,3.4,0,5.1,0.2c0.2,0,0.3,0.1,0.5,0.1c0.5,0.1,1,0.2,1.5,0.3   c1.1,0.2,2.3,0.5,3.4,0.8c4.2,1.1,8.2,2.4,12.4,3.5c3.8,1,7.7,1.8,11.6,2.4c6.3,1,12.6,1.7,18.9,0.8c6-0.8,12-4,13.7-10.2   c1-3.5,0.3-7-1.6-9.7c1.5-0.6,3-1.3,4.5-2c5-2.6,10.1-6,13.4-10.6C1047.9,194.8,1048.1,189.3,1044.6,185.4z M1016.4,219.5   c0,0,0.1,0,0.1,0.1c0,0,0,0,0.1,0.1C1017,220,1017.2,220.6,1016.4,219.5z"></path>		<path class="st14" d="M946.3,239.9c-2.5,1.7-5,3.6-7.5,5.3c-3.2,2.1-6.5,4.1-10,5.7c-6.7,3.1-13.9,5-21.3,4.7   c-13.4-0.4-25-7.9-35.8-15.1c-4.8-3.2-9.7-6.3-14.5-9.6c-4.6-3.1-9.7-6.3-15.3-7.2c-4.9-0.8-10.9,1-13.5,5.5   c-1.1,2-1.6,4.2-1.8,6.5c4,7.1,7.8,14.4,12.4,21.1c17.4,24.8,54.3,27.4,80.7,16.6c3.6-1.6,7-3.6,10.2-5.9   c6.4-4.6,11.7-10.7,15.6-18.3c1.8-3.5,2.8-7.1,3.9-10.7c0.1-0.2,0.1-0.5,0.2-0.7C948.6,238.4,947.4,239.1,946.3,239.9z"></path>		<path class="st14" d="M994.5,179.3c-1,0.5-0.8,0.6-0.5,0.4C994.1,179.5,994.3,179.4,994.5,179.3   C994.4,179.3,994.5,179.3,994.5,179.3z"></path>	</g>	<g>		<path class="st3" d="M809.6,195.6c-0.2-0.3-0.3-0.5-0.5-0.7c-0.3-0.3-0.6-0.6-1-0.9c-1.8-1.5-3.9-2.9-6.1-3.8   c-1.8-0.7-3.9-1.1-5.8-0.2c-2,0.9-3.4,3.1-4.6,4.9c-1.4,2.2-2.5,4.6-3.6,7c-0.1,0.2-0.2,0.4-0.3,0.6c-0.1,0.1-0.1,0.3-0.2,0.4   c0,0,0,0,0,0.1c0,0,0,0,0,0c-0.3,0.8-0.6,1.7-0.9,2.5c-0.4,0.9-0.8,2.2-1.4,3.5c-0.2,0.6-0.4,1.1-0.6,1.7   c-0.8,2.3-1.5,4.6-1.6,7.1c-0.1,1.6,1.2,3.6,2.9,3.9c1.7,0.3,3.1,0.1,4.7-0.8c1-0.6,2-1.4,2.8-2.2c0.7-0.7,1.4-1.4,2.1-2   c0.2-0.2,0.5-0.5,0.8-0.7c0,0,0,0,0.1,0c0,0-0.1,0.1-0.2,0.1c-0.8,0.6,0.6-0.4,0.6-0.4c0.3-0.2,0.6-0.5,1-0.7   c2.3-1.8,4.5-3.6,6.6-5.6c1.7-1.6,3.4-3.2,4.8-5.1C811,201.4,811.2,198.2,809.6,195.6z"></path>		<path class="st12" d="M796.4,215.8C796.6,215.6,796.5,215.7,796.4,215.8L796.4,215.8z"></path>	</g>	<path class="st12" d="M893.3,151.5C893.3,151.3,893.4,151.1,893.3,151.5L893.3,151.5z"></path>	<path class="st12" d="M902.8,70.3c-0.1,0.3-0.1,0.5,0.1-0.3c0,0,0,0,0,0C902.8,70.1,902.8,70.2,902.8,70.3z"></path>	<polygon class="st12" points="951.9,120.6 951.9,120.6 951.9,120.6  "></polygon>	<path class="st12" d="M895.6,215.7c0.1,0,0.1,0,0.2,0c0,0,0,0,0,0c0,0,0,0,0,0C894.9,215.7,895.3,215.7,895.6,215.7z"></path>	<path class="st12" d="M951.2,190.3C951.2,190.3,951.2,190.3,951.2,190.3C951.2,190.3,951.2,190.3,951.2,190.3  C951.2,190.3,951.2,190.3,951.2,190.3C951.2,190.3,951.2,190.3,951.2,190.3z"></path>	<path class="st15" d="M868,218.5c3.5,2.4,7.4,4.4,11.4,5.9c4.3,1.5,8.7,2.4,13.2,2.8c5.6,0.4,11.1-0.1,16.6-1.1  c3.2-0.6,6.4-1.2,9.6-1.9c5.4-1.2,10.8-2.6,16.1-4.2c1.3-0.7,2.5-1.5,3.8-2.3c4.2-2.6,8.2-5.4,12.4-7.9c2.6-1.6,5.2-2.9,7.5-4.9  c1.3-1.1,2.4-2.5,2.9-4.1c0.6-2.1-0.1-4.5-1.7-6c-1.3-1.2-2.9-2-4.6-2.4c3-2.4,5.8-5,8.5-7.8c4.2-4.2,8-8.9,11.2-14  c1.5-2.4,3-4.9,3.7-7.6c0.9-3,0.4-6.6-2.6-8.3c-3.5-1.9-7.7-0.2-11.1,0.9c-4.2,1.4-8.5,2.7-12.8,3.9c2.5-4,4.6-8.1,6.2-12.5  c1.4-3.9,2.1-8,2.3-12.1c0.2-3.5-0.2-7.8-2.9-10.4c-1.5-1.5-3.6-2.3-5.7-2.1c-2.6,0.2-5,1.3-7.3,2.5c-2.4,1.2-4.6,2.6-6.9,4.1  c1.8-5.9,2.9-12,3.7-18.1c0.8-6.6,2.2-15.3-3.1-20.5c-1.6-1.6-4-1.4-5.6,0c-4.6,3.9-8,8.9-12.2,13.1c-1.3,1.3-2.6,2.5-3.9,3.8  c0.2-3,0.3-5.9,0.2-8.9c-0.2-5.2-0.9-10.5-2.5-15.5c-0.8-2.6-1.8-5-2.9-7.5c-0.7-1.6-1.5-3.3-2.8-4.6c-2.1-2-5.1-2.3-7.5-0.8  c-1.8,1.1-3.3,2.8-4.3,4.6c-1.9,3.4-2.9,7.4-3.7,11.2c-1.8,8.7-3.3,17.5-4.6,26.3c-0.7,4.9-1.3,9.9-2,14.8  c-0.2,1.2-0.3,2.4-0.5,3.5c0,0.3-0.1,0.6-0.1,0.9c0,0.1,0,0.2,0,0.3c-0.1,0.6-0.2,1.3-0.3,1.9c-0.4,2.5-0.8,4.9-1.2,7.3  c-0.8,4.8-1.8,9.5-3.1,14.2c-1.2,4.7-2.8,9.3-3.9,14.1c-1.1,4.6-2.1,9.3-3.3,13.9c-0.6,2.3-1.3,4.6-2.1,6.8c-0.3,1-0.7,2-1.1,3  c-0.1,0.3-0.2,0.5-0.3,0.8c0,0,0,0,0,0c0,0,0,0.1,0,0.1c-0.3,0.6-0.6,1.3-0.9,1.9c-1.9,3.9-4,7.6-6.4,11.2  c-1.1,1.7-2.2,3.3-3.4,4.9C862.7,214.2,865.2,216.5,868,218.5z"></path>	<path class="st12" d="M970.1,152.5C970.1,152.5,970.1,152.5,970.1,152.5C970.1,152.5,970.1,152.5,970.1,152.5  C970.1,152.5,970.1,152.5,970.1,152.5z"></path>	<g>		<path class="st3" d="M951,260c0.3,1.2,0.5,2,0.4,3.2c0,0.1,0,0.1,0,0.1c0,0,0,0,0,0c0,0.2-0.1,0.3-0.1,0.5   c-0.1,0.2-0.1,0.2-0.3,0.5c0.1-0.1-0.1,0.1-0.1,0.1c-0.1,0.1-0.2,0.2-0.3,0.2c0.2-0.2-0.3,0.2-0.4,0.2c-0.2,0.1-0.4,0.2-0.6,0.3   c0,0,0,0-0.1,0c-0.1,0-0.2,0.1-0.4,0.1c-0.3,0.1-0.6,0.2-0.9,0.3c1.4-2.8,1.1-6.5-1-8.8c-0.7-0.8-2-0.7-2.7,0   c-0.8,0.8-0.7,1.9,0,2.7c0.1,0.1,0.1,0.1,0.1,0.1c0,0,0,0.1,0.1,0.1c0.1,0.1,0.2,0.3,0.2,0.4c0,0.1,0,0.1,0,0c0,0,0,0.1,0,0.1   c0.1,0.2,0.1,0.4,0.2,0.6c0.1,0.4,0.1,1.2,0,1.7c-0.1,0.5-0.3,1-0.5,1.5c-0.6-1.7-2.3-2.9-4.3-3.1c-1-0.1-1.9,0.9-1.9,1.9   c0,1.1,0.8,1.8,1.9,1.9c-0.3,0,0.3,0.1,0.2,0.1c0.1,0,0.1,0.1,0.2,0.1c0,0,0.1,0.1,0.2,0.2c0,0,0,0,0,0c0,0,0,0,0,0   c0,0,0,0.1,0.1,0.1c0,0,0,0.2,0,0.2c0,0.1,0,0.3,0,0.3c0,0.5,0.2,1,0.5,1.3c0,0,0,0.1,0,0.1c0,0.1-0.1,0.2-0.1,0.2   c-0.1,0.3-0.3,0.6-0.5,0.8c-0.1,0.1-0.2,0.2-0.3,0.4c0.4-0.6-0.1,0.1-0.2,0.2c-0.4,0.5-0.9,0.9-1.4,1.3c0,0-0.1,0.1-0.1,0.1   c-0.1,0.1-0.2,0.2-0.3,0.3c-0.3,0.2-0.6,0.4-1,0.6c-0.6,0.4-1.3,0.7-1.9,1c-0.3,0.1-0.6,0.3-0.9,0.4c-0.2,0.1-0.4,0.2-0.6,0.2   c0,0-0.1,0-0.1,0c0,0-0.1,0-0.2,0.1c-1.4,0.5-2.8,1-4.3,1.4c-1.2,0.3-2.5,0.6-3.8,0.9c-0.5,0.1-1.1,0.2-1.6,0.3   c-0.1,0-0.1,0-0.2,0c0,0,0,0-0.1,0c-0.4,0-0.8,0.1-1.2,0.1c-1.4,0.1-2.8,0-4.2-0.1c-0.3,0-0.7-0.1-1-0.1c0,0-0.1,0-0.1,0   c0,0-0.1,0-0.1,0c-0.2,0-0.4-0.1-0.6-0.1c-0.7-0.1-1.5-0.3-2.2-0.5c-0.5-0.1-0.9-0.3-1.3-0.4c-0.1,0-0.2-0.1-0.4-0.1   c-0.1,0-0.6-0.2-0.5-0.2c-0.6-0.3-1.2-0.6-1.8-1c-0.2-0.1-0.3-0.2-0.4-0.3c0.5,0.4-0.1-0.1-0.2-0.2c-0.3-0.2-0.5-0.5-0.7-0.7   c0,0-0.1-0.1-0.1-0.1c0,0,0,0.1,0.1,0.1c-0.1-0.1-0.2-0.3-0.3-0.4c-0.1-0.1-0.2-0.3-0.2-0.4c0-0.1-0.1-0.1-0.1-0.2   c-0.5-1.2-1.7-2.2-3-1.7c-1.2,0.4-2.3,1.7-1.8,3c2.5,6.9,11.2,8.7,17.7,8.7c2.8,0,5.6-0.6,8.4-1.3c3.3-0.8,6.6-1.9,9.5-3.6   c2.6-1.5,5.1-3.5,6.4-6.3c2,0.3,4.3-0.4,6-1.4c1.5-0.8,2.6-2.2,2.9-3.9c0.3-1.7,0-3.5-0.4-5.2C954.1,256.7,950.4,257.7,951,260z"></path>		<path class="st12" d="M909.5,271.6C909.3,271.4,909.4,271.5,909.5,271.6L909.5,271.6z"></path>	</g>	<path class="st16" d="M810.2,181.8c-0.5-1.7-2.2-2.8-4-2.4c-1.7,0.4-2.9,2.3-2.4,4c0.5,1.7,2.2,2.8,4,2.4  C809.5,185.4,810.7,183.5,810.2,181.8z"></path>	<path class="st16" d="M791.8,184.1c-1.4,0.4-2.4,1.9-2,3.3c0.4,1.4,1.9,2.3,3.3,2c1.4-0.4,2.4-1.9,2-3.3  C794.7,184.6,793.3,183.7,791.8,184.1z"></path></g><linearGradient id="SVGID_1_" gradientUnits="userSpaceOnUse" x1="927.9862" y1="1747.4443" x2="975.6771" y2="1795.1353">	<stop offset="0" style="stop-color:#212972"></stop>	<stop offset="0.9958" style="stop-color:#160661"></stop></linearGradient><path class="st17" d="M951.8,1737.6c-43.4,0-43.4,67.4,0,67.4C995.2,1805,995.3,1737.6,951.8,1737.6z"></path><linearGradient id="SVGID_00000183932696826030219810000011784776087771915957_" gradientUnits="userSpaceOnUse" x1="906.2177" y1="1677.1996" x2="920.7322" y2="1691.7141">	<stop offset="0" style="stop-color:#212972"></stop>	<stop offset="0.9958" style="stop-color:#160661"></stop></linearGradient><path style="fill:url(#SVGID_00000183932696826030219810000011784776087771915957_);" d="M913.5,1674.2c-13.2,0-13.2,20.5,0,20.5 C926.7,1694.7,926.7,1674.2,913.5,1674.2z"></path><linearGradient id="SVGID_00000010273357397117749880000012322673109327779476_" gradientUnits="userSpaceOnUse" x1="177.3922" y1="1233.6028" x2="191.9068" y2="1248.1174">	<stop offset="0" style="stop-color:#212972"></stop>	<stop offset="0.9958" style="stop-color:#160661"></stop></linearGradient><path style="fill:url(#SVGID_00000010273357397117749880000012322673109327779476_);" d="M184.6,1230.6c-13.2,0-13.2,20.5,0,20.5 C197.8,1251.1,197.9,1230.6,184.6,1230.6z"></path><linearGradient id="SVGID_00000127733386901640051230000001762533548189377975_" gradientUnits="userSpaceOnUse" x1="580.5793" y1="1441.6167" x2="719.54" y2="1580.5774">	<stop offset="0" style="stop-color:#212972"></stop>	<stop offset="0.9958" style="stop-color:#160661"></stop></linearGradient><path style="fill:url(#SVGID_00000127733386901640051230000001762533548189377975_);" d="M650.1,1412.9 c-126.4,0-126.6,196.4,0,196.4C776.4,1609.3,776.6,1412.9,650.1,1412.9z"></path><linearGradient id="SVGID_00000119834542118899129700000000287754351727140001_" gradientUnits="userSpaceOnUse" x1="44.8353" y1="1225.4646" x2="87.1277" y2="1267.757">	<stop offset="0" style="stop-color:#212972"></stop>	<stop offset="0.9958" style="stop-color:#160661"></stop></linearGradient><path style="fill:url(#SVGID_00000119834542118899129700000000287754351727140001_);" d="M66,1216.7c-38.5,0-38.5,59.8,0,59.8 C104.4,1276.5,104.5,1216.7,66,1216.7z"></path><linearGradient id="SVGID_00000037675819219251420990000014342450131287289224_" gradientUnits="userSpaceOnUse" x1="855.848" y1="328.087" x2="859.7807" y2="332.0197">	<stop offset="0" style="stop-color:#212972"></stop>	<stop offset="0.9958" style="stop-color:#160661"></stop></linearGradient><path style="fill:url(#SVGID_00000037675819219251420990000014342450131287289224_);" d="M857.8,327.3c-3.6,0-3.6,5.6,0,5.6 C861.4,332.8,861.4,327.3,857.8,327.3z"></path><linearGradient id="SVGID_00000109002379528300398370000006449781575722482595_" gradientUnits="userSpaceOnUse" x1="845.0864" y1="298.2014" x2="855.1826" y2="308.2975">	<stop offset="0" style="stop-color:#212972"></stop>	<stop offset="0.9958" style="stop-color:#160661"></stop></linearGradient><path style="fill:url(#SVGID_00000109002379528300398370000006449781575722482595_);" d="M850.1,296.1c-9.2,0-9.2,14.3,0,14.3 C859.3,310.4,859.3,296.1,850.1,296.1z"></path><linearGradient id="SVGID_00000067917698456665376800000008762336051569655474_" gradientUnits="userSpaceOnUse" x1="828.1811" y1="318.4164" x2="843.4648" y2="333.7002">	<stop offset="0" style="stop-color:#212972"></stop>	<stop offset="0.9958" style="stop-color:#160661"></stop></linearGradient><path style="fill:url(#SVGID_00000067917698456665376800000008762336051569655474_);" d="M835.8,315.3c-13.9,0-13.9,21.6,0,21.6 C849.7,336.9,849.7,315.3,835.8,315.3z"></path><linearGradient id="SVGID_00000172425438321527450550000004271474667413561006_" gradientUnits="userSpaceOnUse" x1="985.3676" y1="412.8802" x2="995.4638" y2="422.9764">	<stop offset="0" style="stop-color:#212972"></stop>	<stop offset="0.9958" style="stop-color:#160661"></stop></linearGradient><path style="fill:url(#SVGID_00000172425438321527450550000004271474667413561006_);" d="M990.4,410.8c-9.2,0-9.2,14.3,0,14.3 C999.6,425.1,999.6,410.8,990.4,410.8z"></path><linearGradient id="SVGID_00000151543592872908715360000011606588646992883076_" gradientUnits="userSpaceOnUse" x1="975.8831" y1="443.8943" x2="991.1668" y2="459.178">	<stop offset="0" style="stop-color:#212972"></stop>	<stop offset="0.9958" style="stop-color:#160661"></stop></linearGradient><path style="fill:url(#SVGID_00000151543592872908715360000011606588646992883076_);" d="M983.5,440.7c-13.9,0-13.9,21.6,0,21.6 C997.4,462.3,997.4,440.7,983.5,440.7z"></path><linearGradient id="SVGID_00000093147474645715594370000001984035022350101690_" gradientUnits="userSpaceOnUse" x1="988.9997" y1="1681.9108" x2="1026.323" y2="1719.2341">	<stop offset="0" style="stop-color:#212972"></stop>	<stop offset="0.9958" style="stop-color:#160661"></stop></linearGradient><path style="fill:url(#SVGID_00000093147474645715594370000001984035022350101690_);" d="M1007.7,1674.2c-33.9,0-34,52.7,0,52.7 C1041.6,1726.9,1041.7,1674.2,1007.7,1674.2z"></path><g>	<circle class="st28" cx="946.8" cy="1424.8" r="86.3"></circle></g><g>	<line class="st29" x1="883.1" y1="1271.1" x2="883.1" y2="1312.1"></line>	<line class="st29" x1="903.6" y1="1291.6" x2="862.5" y2="1291.6"></line></g><g>	<line class="st29" x1="133.9" y1="1344.8" x2="133.9" y2="1385.8"></line>	<line class="st29" x1="154.4" y1="1365.3" x2="113.4" y2="1365.3"></line></g><path class="st31" d="M1030.8,702.4c-98,97.3-199.1,198.4-295.5,295.5"></path><path class="st31" d="M931.2,665.3c-65.5,67-132.9,130.2-195.8,195.8"></path></svg>