<svg xmlns="http://www.w3.org/2000/svg" xmlns:xlink="http://www.w3.org/1999/xlink" x="0px" y="0px" viewBox="0 0 2560 1677" style="enable-background:new 0 0 2560 1677;" xml:space="preserve"><style type="text/css">	.st0{fill:#172063;}	.st1{fill:#0D6EFD;}	.st2{fill:#1F85FF;}	.st3{fill:#0D77F7;}	.st4{fill:#0067E2;}	.st5{opacity:0.2;fill:#1F85FF;}	.st6{fill:#FFFFFF;}	.st7{fill:#CADDFF;}	.st8{fill:#5479F7;}	.st9{fill:#99B9FF;}	.st10{fill:#2D2D2D;}	.st11{fill:url(#SVGID_1_);}</style><g id="BACKGROUND">	<rect x="-1.6" y="-2.4" class="st0" width="2563.1" height="1679.2"></rect>	<rect x="1485.2" y="-339.9" class="st1" width="149.3" height="136"></rect>	<rect x="1687.9" y="-339.9" class="st2" width="149.3" height="136"></rect>	<rect x="1893" y="-339.9" class="st3" width="149.3" height="136"></rect>	<rect x="2098.2" y="-339.9" class="st4" width="149.3" height="136"></rect></g><g id="OBJECTS">	<g id="Home_staging_design_1_">		<path class="st5" d="M1690.4,616.3c94.7-95.3,67.6-155,132.3-199.1c99.7-67.9,285.7-9.5,395.4,83.9   c134.4,114.3,203.7,323.1,124.8,512c-84.1,201.1-305.5,305.6-503,274.1c-176.4-28.1-349.8-167.1-367.1-333.8   c-1.9-18.1-10.2-115.8,48.1-200C1569.1,683.8,1615.4,691.9,1690.4,616.3z"></path>		<g>			<g>				<g>					<path class="st6" d="M1702.5,418.5l-88.9,56.6c-6.5,4.2-8.5,12.9-4.3,19.4l137.6,216.2c4.2,6.5,12.9,8.5,19.4,4.3l88.9-56.6      c6.5-4.2,8.5-12.9,4.3-19.4l-137.6-216.2C1717.8,416.2,1709.1,414.3,1702.5,418.5z"></path>					<path d="M1758.8,718.8c-5.2,0-10.3-2.6-13.3-7.3L1608,495.3c-2.2-3.5-3-7.7-2.1-11.8c0.9-4.1,3.4-7.6,6.9-9.8l88.9-56.6      c7.3-4.6,17-2.5,21.7,4.8l137.6,216.2c4.6,7.3,2.5,17-4.8,21.7l-88.9,56.6C1764.6,718,1761.7,718.8,1758.8,718.8z       M1702.5,418.5l0.9,1.4l-88.9,56.6c-2.8,1.8-4.7,4.5-5.5,7.8c-0.7,3.2-0.1,6.6,1.6,9.4l137.6,216.2c3.7,5.8,11.4,7.5,17.1,3.8      l88.9-56.6c5.8-3.7,7.5-11.4,3.8-17.1l-137.6-216.2c-3.7-5.8-11.4-7.5-17.1-3.8L1702.5,418.5z"></path>				</g>									<rect x="1637.2" y="455.9" transform="matrix(0.8436 -0.5369 0.5369 0.8436 0.6458 981.4318)" class="st4" width="96.4" height="67.3"></rect>									<rect x="1678.4" y="520.7" transform="matrix(0.8436 -0.5369 0.5369 0.8436 -27.6781 1013.6823)" class="st2" width="96.4" height="67.3"></rect>									<rect x="1719.6" y="585.4" transform="matrix(0.8436 -0.5369 0.5369 0.8436 -56.0014 1045.936)" class="st7" width="96.4" height="67.3"></rect>			</g>			<g>				<g>					<path class="st6" d="M1627.7,429.9l-81.8,77.9c-6,5.7-6.3,15.3-0.5,21.3l189.4,199.1c5.7,6,15.3,6.3,21.3,0.5l81.8-77.9      c6-5.7,6.3-15.3,0.5-21.3L1649,430.4C1643.3,424.4,1633.8,424.1,1627.7,429.9z"></path>					<path d="M1745.7,734.5c-0.1,0-0.3,0-0.4,0c-4.5-0.1-8.6-2-11.7-5.2l-189.4-199.1c-3.1-3.2-4.7-7.5-4.6-11.9s2-8.6,5.2-11.7      l81.8-77.9c3.2-3.1,7.5-4.7,11.9-4.6c4.5,0.1,8.6,2,11.7,5.2l189.4,199.1c3.1,3.2,4.7,7.5,4.6,11.9c-0.1,4.5-2,8.6-5.2,11.7      l-81.8,77.9C1754.1,732.8,1750,734.5,1745.7,734.5z M1627.7,429.9l1.1,1.2l-81.8,77.9c-2.6,2.5-4.1,5.8-4.2,9.4      c-0.1,3.6,1.2,7,3.7,9.6L1736,727c2.5,2.6,5.8,4.1,9.4,4.2c3.6,0.1,7-1.2,9.6-3.7l81.8-77.9c2.6-2.5,4.1-5.8,4.2-9.4      c0.1-3.6-1.2-7-3.7-9.6l-189.4-199.1c-2.5-2.6-5.8-4.1-9.4-4.2c-3.6-0.1-7,1.2-9.6,3.7L1627.7,429.9z"></path>				</g>									<rect x="1572.7" y="472.2" transform="matrix(0.7245 -0.6893 0.6893 0.7245 97.1923 1259.7278)" class="st4" width="103.4" height="72.2"></rect>									<rect x="1629.4" y="531.8" transform="matrix(0.7245 -0.6893 0.6893 0.7245 71.7245 1315.2561)" class="st2" width="103.4" height="72.2"></rect>									<rect x="1686.2" y="591.4" transform="matrix(0.7245 -0.6893 0.6893 0.7245 46.2568 1370.7844)" class="st7" width="103.4" height="72.2"></rect>			</g>			<g>				<g>					<path class="st6" d="M1538.5,485.7l-57.4,118.7c-4.2,8.7-0.6,19.3,8.2,23.5l288.8,139.6c8.7,4.2,19.3,0.6,23.5-8.2l57.4-118.7      c4.2-8.7,0.6-19.3-8.2-23.5L1562,477.5C1553.3,473.3,1542.8,477,1538.5,485.7z"></path>					<path d="M1785.8,770.8c-2.8,0-5.6-0.6-8.3-1.9l-288.8-139.6c-4.6-2.2-8.1-6.1-9.8-11c-1.7-4.8-1.4-10.1,0.8-14.7l57.4-118.7      l1.5,0.7l-1.5-0.7c2.2-4.6,6.1-8.1,11-9.8c4.8-1.7,10.1-1.4,14.7,0.8l288.8,139.6c9.5,4.6,13.6,16.1,8.9,25.7L1803.2,760      C1799.8,766.8,1793,770.8,1785.8,770.8z M1554.4,477.4c-1.8,0-3.5,0.3-5.3,0.9c-4,1.4-7.3,4.3-9.1,8.1l-57.4,118.7      c-1.9,3.8-2.1,8.2-0.7,12.2c1.4,4,4.3,7.3,8.1,9.1L1778.9,766c7.9,3.8,17.5,0.5,21.3-7.4l57.4-118.7c3.8-7.9,0.5-17.5-7.4-21.3      L1561.3,479C1559.1,477.9,1556.8,477.4,1554.4,477.4z"></path>				</g>									<rect x="1506.8" y="530.6" transform="matrix(0.435 -0.9004 0.9004 0.435 369.6807 1734.6267)" class="st4" width="120.7" height="84.3"></rect>									<rect x="1593.3" y="572.4" transform="matrix(0.435 -0.9004 0.9004 0.435 380.9191 1836.1178)" class="st2" width="120.7" height="84.3"></rect>									<rect x="1679.8" y="614.2" transform="matrix(0.435 -0.9004 0.9004 0.435 392.1558 1937.6073)" class="st7" width="120.7" height="84.3"></rect>			</g>		</g>		<g>			<g>				<rect x="1700.7" y="509.8" class="st6" width="485.8" height="662.7"></rect>				<path class="st2" d="M2186.5,1174.2h-485.8c-0.9,0-1.6-0.7-1.6-1.6V509.8c0-0.9,0.7-1.6,1.6-1.6h485.8c0.9,0,1.6,0.7,1.6,1.6     v662.7C2188.2,1173.5,2187.4,1174.2,2186.5,1174.2z M1702.4,1170.9h482.5V511.5h-482.5V1170.9z"></path>			</g>			<g>				<path class="st2" d="M2156.8,1144.5h-426.2c-0.9,0-1.6-0.7-1.6-1.6V830.6c0-0.9,0.7-1.6,1.6-1.6h426.2c0.9,0,1.6,0.7,1.6,1.6     v312.3C2158.5,1143.8,2157.8,1144.5,2156.8,1144.5z M1732.3,1141.2h422.9v-309h-422.9V1141.2z"></path>				<path class="st2" d="M2138.2,1125.8h-388.8c-0.9,0-1.6-0.7-1.6-1.6V849.2c0-0.9,0.7-1.6,1.6-1.6h388.8c0.9,0,1.6,0.7,1.6,1.6     v274.9C2139.8,1125.1,2139.1,1125.8,2138.2,1125.8z M1751,1122.5h385.5V850.9H1751V1122.5z"></path>				<rect x="1730.7" y="925.6" class="st4" width="18.7" height="217.2"></rect>				<rect x="2138.2" y="1068.3" class="st4" width="18.7" height="74.5"></rect>				<rect x="1937.3" y="1011.5" class="st2" width="18.7" height="131.3"></rect>				<rect x="1937.3" y="830.6" class="st2" width="18.7" height="93.8"></rect>				<rect x="1730.7" y="830.6" class="st4" width="18.7" height="58.2"></rect>				<rect x="2138.2" y="830.6" class="st4" width="18.7" height="72.5"></rect>				<rect x="2138.2" y="955.7" class="st8" width="18.7" height="61.8"></rect>				<rect x="1730.7" y="830.6" class="st4" width="135.2" height="18.7"></rect>				<rect x="1730.7" y="978.7" class="st2" width="130.1" height="7.9"></rect>				<rect x="1901.3" y="916.4" class="st2" width="54.7" height="7.9"></rect>				<rect x="1858.9" y="916.4" class="st8" width="12.1" height="7.9"></rect>				<rect x="1899.8" y="1011.5" class="st2" width="56.3" height="7.9"></rect>				<rect x="1854.9" y="1011.5" class="st2" width="17.1" height="7.9"></rect>				<rect x="1854.9" y="830.6" class="st2" width="7.9" height="109.1"></rect>				<rect x="1854.9" y="967" class="st2" width="7.9" height="50.1"></rect>				<rect x="1913.4" y="830.6" class="st4" width="122.7" height="18.7"></rect>				<rect x="2087.8" y="830.6" class="st4" width="69.1" height="18.7"></rect>				<rect x="1852.2" y="1124.2" class="st4" width="304.7" height="18.7"></rect>				<rect x="1730.7" y="1124.2" class="st4" width="67.6" height="18.7"></rect>				<g>					<g>						<rect x="2025.1" y="881" class="st6" width="70.7" height="35.6"></rect>						<path class="st2" d="M2095.9,918.2h-70.8c-0.9,0-1.6-0.7-1.6-1.6V881c0-0.9,0.7-1.6,1.6-1.6h70.8c0.9,0,1.6,0.7,1.6,1.6v35.6       C2097.5,917.5,2096.8,918.2,2095.9,918.2z M2026.8,915h67.5v-32.3h-67.5V915z"></path>					</g>					<path class="st2" d="M2035.6,917.9c-0.9,0-1.6-0.7-1.6-1.6v-25.1c0-0.9,0.7-1.6,1.6-1.6c0.9,0,1.6,0.7,1.6,1.6v25.1      C2037.3,917.2,2036.5,917.9,2035.6,917.9z"></path>					<path class="st2" d="M2095.3,892.8h-69.5c-0.9,0-1.6-0.7-1.6-1.6s0.7-1.6,1.6-1.6h69.5c0.9,0,1.6,0.7,1.6,1.6      S2096.2,892.8,2095.3,892.8z"></path>					<path class="st2" d="M2085.4,917.9c-0.9,0-1.6-0.7-1.6-1.6v-25.1c0-0.9,0.7-1.6,1.6-1.6c0.9,0,1.6,0.7,1.6,1.6v25.1      C2087.1,917.2,2086.3,917.9,2085.4,917.9z"></path>				</g>				<g>					<g>						<path class="st2" d="M2054.5,1125.7h-99.5c-0.9,0-1.6-0.7-1.6-1.6v-39.4c0-0.9,0.7-1.6,1.6-1.6h99.5c0.9,0,1.6,0.7,1.6,1.6       v39.4C2056.1,1125,2055.4,1125.7,2054.5,1125.7z M1956.6,1122.5h96.3v-36.2h-96.3V1122.5z"></path>						<path class="st2" d="M2006.2,1125.7c-0.9,0-1.6-0.7-1.6-1.6v-39.4c0-0.9,0.7-1.6,1.6-1.6c0.9,0,1.6,0.7,1.6,1.6v39.4       C2007.8,1125,2007.1,1125.7,2006.2,1125.7z"></path>						<path class="st2" d="M2018.3,1125.7c-0.9,0-1.6-0.7-1.6-1.6v-39.4c0-0.9,0.7-1.6,1.6-1.6c0.9,0,1.6,0.7,1.6,1.6v39.4       C2019.9,1125,2019.2,1125.7,2018.3,1125.7z"></path>						<path class="st2" d="M2030.3,1125.7c-0.9,0-1.6-0.7-1.6-1.6v-39.4c0-0.9,0.7-1.6,1.6-1.6c0.9,0,1.6,0.7,1.6,1.6v39.4       C2032,1125,2031.3,1125.7,2030.3,1125.7z"></path>						<path class="st2" d="M2042.4,1125.7c-0.9,0-1.6-0.7-1.6-1.6v-39.4c0-0.9,0.7-1.6,1.6-1.6c0.9,0,1.6,0.7,1.6,1.6v39.4       C2044.1,1125,2043.3,1125.7,2042.4,1125.7z"></path>						<path class="st2" d="M1994.1,1124.6h-39.4c-0.9,0-1.6-0.7-1.6-1.6v-97.7c0-0.9,0.7-1.6,1.6-1.6h39.4c0.9,0,1.6,0.7,1.6,1.6       v97.7C1995.8,1123.9,1995,1124.6,1994.1,1124.6z M1956.3,1121.3h36.2v-94.4h-36.2V1121.3z"></path>						<path class="st2" d="M1994.1,1074.2h-39.4c-0.9,0-1.6-0.7-1.6-1.6s0.7-1.6,1.6-1.6h39.4c0.9,0,1.6,0.7,1.6,1.6       S1995,1074.2,1994.1,1074.2z"></path>						<path class="st2" d="M1994.1,1062.2h-39.4c-0.9,0-1.6-0.7-1.6-1.6c0-0.9,0.7-1.6,1.6-1.6h39.4c0.9,0,1.6,0.7,1.6,1.6       C1995.8,1061.5,1995,1062.2,1994.1,1062.2z"></path>						<path class="st2" d="M1994.1,1050.3h-39.4c-0.9,0-1.6-0.7-1.6-1.6c0-0.9,0.7-1.6,1.6-1.6h39.4c0.9,0,1.6,0.7,1.6,1.6       C1995.8,1049.6,1995,1050.3,1994.1,1050.3z"></path>						<path class="st2" d="M1994.1,1038.4h-39.4c-0.9,0-1.6-0.7-1.6-1.6c0-0.9,0.7-1.6,1.6-1.6h39.4c0.9,0,1.6,0.7,1.6,1.6       C1995.8,1037.6,1995,1038.4,1994.1,1038.4z"></path>					</g>				</g>				<g>					<path class="st2" d="M1832.1,1114h-70.8c-0.9,0-1.6-0.7-1.6-1.6v-35.6c0-0.9,0.7-1.6,1.6-1.6h70.8c0.9,0,1.6,0.7,1.6,1.6v35.6      C1833.7,1113.2,1833,1114,1832.1,1114z M1763,1110.7h67.5v-32.3H1763V1110.7z"></path>					<path class="st8" d="M1821.6,1105.7c-0.9,0-1.6-0.7-1.6-1.6v-27c0-0.9,0.7-1.6,1.6-1.6s1.6,0.7,1.6,1.6v27      C1823.2,1105,1822.5,1105.7,1821.6,1105.7z"></path>					<path class="st2" d="M1831.5,1105.7h-69.5c-0.9,0-1.6-0.7-1.6-1.6c0-0.9,0.7-1.6,1.6-1.6h69.5c0.9,0,1.6,0.7,1.6,1.6      C1833.1,1105,1832.4,1105.7,1831.5,1105.7z"></path>					<path class="st8" d="M1771.8,1105.7c-0.9,0-1.6-0.7-1.6-1.6v-27c0-0.9,0.7-1.6,1.6-1.6s1.6,0.7,1.6,1.6v27      C1773.4,1105,1772.7,1105.7,1771.8,1105.7z"></path>				</g>				<g>											<ellipse transform="matrix(0.9871 -0.1602 0.1602 0.9871 -127.3014 342.465)" class="st6" cx="2060.5" cy="960.8" rx="22.6" ry="22.6"></ellipse>					<path class="st2" d="M2060.5,985.1c-13.4,0-24.2-10.9-24.2-24.2c0-13.4,10.9-24.2,24.2-24.2c13.4,0,24.2,10.9,24.2,24.2      C2084.8,974.2,2073.9,985.1,2060.5,985.1z M2060.5,939.9c-11.6,0-21,9.4-21,21c0,11.6,9.4,21,21,21c11.6,0,21-9.4,21-21      C2081.5,949.3,2072.1,939.9,2060.5,939.9z"></path>				</g>				<g>					<path class="st6" d="M1786.6,856.8h-29.7v58c0,7.7,6.3,14,14,14h0.6c7.7,0,14-6.3,15.1-14V856.8z"></path>					<path class="st2" d="M1771.5,930.5h-0.6c-8.6,0-15.6-7-15.6-15.6v-58c0-0.9,0.7-1.6,1.6-1.6h29.7c0.9,0,1.6,0.7,1.6,1.6v58      c0,0.1,0,0.2,0,0.2C1786.9,923.9,1779.8,930.5,1771.5,930.5z M1758.5,858.5v56.4c0,6.8,5.5,12.4,12.4,12.4h0.6      c6.6,0,12.4-5.4,13.5-12.5v-56.2H1758.5z"></path>				</g>				<path class="st2" d="M1837.4,878.3c-3.8,0-7.4-1.6-10-4.4c-2.5-2.8-3.8-6.6-3.4-10.4l0.7-6.8c0.1-0.8,0.8-1.5,1.6-1.5h22.2     c0.8,0,1.5,0.6,1.6,1.5l0.7,6.8c0.4,3.8-0.9,7.6-3.4,10.4C1844.9,876.7,1841.2,878.3,1837.4,878.3z M1827.8,858.5l-0.5,5.3     c-0.3,2.9,0.7,5.7,2.6,7.9c1.9,2.1,4.7,3.4,7.6,3.4s5.6-1.2,7.6-3.4c1.9-2.1,2.9-5,2.6-7.9l-0.5-5.3H1827.8z"></path>				<g>					<g>						<path class="st6" d="M1814.4,867.9h-17.1v16c0,4.7,3.8,8.5,8.5,8.5l0,0c4.7,0,8.5-3.8,8.5-8.5V867.9z"></path>						<path class="st2" d="M1806.1,894.1h-0.4c-5.5,0-10-4.5-10-10v-16.1c0-0.9,0.7-1.6,1.6-1.6h17.1c0.9,0,1.6,0.7,1.6,1.6v16.1       C1816,889.6,1811.6,894.1,1806.1,894.1z M1799,869.6v14.5c0,3.7,3,6.7,6.7,6.7h0.4c3.7,0,6.7-3,6.7-6.7v-14.5H1799z"></path>					</g>					<g>						<rect x="1795.1" y="856.6" class="st6" width="21.5" height="11.4"></rect>						<path class="st2" d="M1816.6,869.6h-21.5c-0.9,0-1.6-0.7-1.6-1.6v-11.4c0-0.9,0.7-1.6,1.6-1.6h21.5c0.9,0,1.6,0.7,1.6,1.6V868       C1818.2,868.9,1817.5,869.6,1816.6,869.6z M1796.7,866.4h18.2v-8.1h-18.2V866.4z"></path>					</g>				</g>				<path class="st2" d="M1860.8,970.1h-37.6c-0.9,0-1.6-0.7-1.6-1.6s0.7-1.6,1.6-1.6h37.6c0.9,0,1.6,0.7,1.6,1.6     S1861.7,970.1,1860.8,970.1z"></path>				<path class="st2" d="M1871,925c-0.9,0-1.6-0.7-1.6-1.6v-35.5c0-0.9,0.7-1.6,1.6-1.6s1.6,0.7,1.6,1.6v35.5     C1872.6,924.3,1871.9,925,1871,925z"></path>				<path class="st2" d="M1871,1017.4c-0.9,0-1.6-0.7-1.6-1.6v-34.9c0-0.9,0.7-1.6,1.6-1.6s1.6,0.7,1.6,1.6v34.9     C1872.6,1016.7,1871.9,1017.4,1871,1017.4z"></path>				<path class="st2" d="M1901.3,925.1c-0.9,0-1.6-0.7-1.6-1.6c0-2.6-0.2-5-0.5-7.4c-0.1-0.9,0.5-1.7,1.4-1.8     c0.9-0.1,1.7,0.5,1.8,1.4c0.3,2.5,0.5,5.1,0.5,7.8C1902.9,924.3,1902.2,925.1,1901.3,925.1z M1899.1,910c-0.7,0-1.3-0.4-1.6-1.1     c-0.8-2.4-1.8-4.6-2.9-6.6c-0.5-0.8-0.2-1.8,0.6-2.2c0.8-0.5,1.8-0.2,2.2,0.6c1.3,2.2,2.4,4.7,3.2,7.3c0.3,0.9-0.2,1.8-1.1,2.1     C1899.4,910,1899.3,910,1899.1,910z M1891.3,897.1c-0.4,0-0.8-0.2-1.1-0.5c-1.7-1.7-3.7-3.1-5.8-4.2c-0.8-0.4-1.1-1.4-0.7-2.2     c0.4-0.8,1.4-1.1,2.2-0.7c2.4,1.2,4.6,2.8,6.5,4.7c0.6,0.6,0.7,1.7,0,2.3C1892.2,896.9,1891.7,897.1,1891.3,897.1z M1878,890.1     c-0.1,0-0.2,0-0.3,0c-2.1-0.4-4.3-0.7-6.7-0.7c-0.9,0-1.6-0.7-1.6-1.6c0-0.9,0.7-1.6,1.6-1.6c2.5,0,5,0.3,7.3,0.7     c0.9,0.2,1.4,1.1,1.3,1.9C1879.4,889.6,1878.8,890.1,1878,890.1z"></path>				<path class="st2" d="M1901.3,1017.8c-0.9,0-1.6-0.7-1.6-1.6c0-2.6-0.2-5-0.5-7.4c-0.1-0.9,0.5-1.7,1.4-1.8     c0.9-0.1,1.7,0.5,1.8,1.4c0.3,2.5,0.5,5.1,0.5,7.8C1902.9,1017.1,1902.2,1017.8,1901.3,1017.8z M1899.1,1002.8     c-0.7,0-1.3-0.4-1.6-1.1c-0.8-2.4-1.8-4.6-2.9-6.6c-0.5-0.8-0.2-1.8,0.6-2.2c0.8-0.5,1.8-0.2,2.2,0.6c1.3,2.2,2.4,4.7,3.2,7.3     c0.3,0.9-0.2,1.8-1.1,2.1C1899.4,1002.8,1899.3,1002.8,1899.1,1002.8z M1891.3,989.8c-0.4,0-0.8-0.2-1.1-0.5     c-1.7-1.7-3.7-3.1-5.8-4.2c-0.8-0.4-1.1-1.4-0.7-2.2c0.4-0.8,1.4-1.1,2.2-0.7c2.4,1.2,4.6,2.8,6.5,4.7c0.6,0.6,0.7,1.7,0,2.3     C1892.2,989.7,1891.7,989.8,1891.3,989.8z M1878,982.8c-0.1,0-0.2,0-0.3,0c-2.1-0.4-4.3-0.7-6.7-0.7c-0.9,0-1.6-0.7-1.6-1.6     c0-0.9,0.7-1.6,1.6-1.6c2.5,0,5,0.3,7.3,0.7c0.9,0.2,1.4,1.1,1.3,1.9C1879.4,982.3,1878.8,982.8,1878,982.8z"></path>				<path class="st2" d="M1823.2,970.1c-0.9,0-1.6-0.7-1.6-1.6c0-2.5,0.3-5,0.7-7.3c0.2-0.9,1.1-1.4,1.9-1.3     c0.9,0.2,1.4,1.1,1.3,1.9c-0.4,2.1-0.7,4.3-0.7,6.7C1824.8,969.3,1824.1,970.1,1823.2,970.1z M1826.4,955.9     c-0.3,0-0.5-0.1-0.8-0.2c-0.8-0.4-1.1-1.4-0.7-2.2c1.2-2.4,2.8-4.6,4.7-6.5c0.6-0.6,1.7-0.7,2.3,0c0.6,0.6,0.7,1.7,0,2.3     c-1.7,1.7-3.1,3.7-4.2,5.8C1827.6,955.6,1827,955.9,1826.4,955.9z M1836.9,945.1c-0.6,0-1.1-0.3-1.4-0.8     c-0.5-0.8-0.2-1.8,0.6-2.2c2.2-1.3,4.7-2.4,7.3-3.2c0.9-0.3,1.8,0.2,2.1,1.1c0.3,0.9-0.2,1.8-1.1,2.1c-2.4,0.8-4.6,1.8-6.6,2.9     C1837.4,945,1837.2,945.1,1836.9,945.1z M1851.3,940.3c-0.8,0-1.5-0.6-1.6-1.4c-0.1-0.9,0.5-1.7,1.4-1.8     c2.5-0.3,5.1-0.5,7.8-0.5c0.9,0,1.6,0.7,1.6,1.6c0,0.9-0.7,1.6-1.6,1.6c-2.6,0-5,0.2-7.4,0.5     C1851.4,940.3,1851.3,940.3,1851.3,940.3z"></path>				<g>					<g>													<rect x="2025.1" y="1007.5" transform="matrix(-1 -1.224647e-16 1.224647e-16 -1 4121.0352 2050.5571)" class="st6" width="70.7" height="35.6"></rect>						<path class="st2" d="M2095.9,1044.7h-70.8c-0.9,0-1.6-0.7-1.6-1.6v-35.6c0-0.9,0.7-1.6,1.6-1.6h70.8c0.9,0,1.6,0.7,1.6,1.6       v35.6C2097.5,1044,2096.8,1044.7,2095.9,1044.7z M2026.8,1041.4h67.5v-32.3h-67.5V1041.4z"></path>					</g>					<path class="st2" d="M2085.4,1034.5c-0.9,0-1.6-0.7-1.6-1.6v-25.1c0-0.9,0.7-1.6,1.6-1.6c0.9,0,1.6,0.7,1.6,1.6v25.1      C2087.1,1033.8,2086.3,1034.5,2085.4,1034.5z"></path>					<path class="st2" d="M2095.3,1034.5h-69.5c-0.9,0-1.6-0.7-1.6-1.6s0.7-1.6,1.6-1.6h69.5c0.9,0,1.6,0.7,1.6,1.6      S2096.2,1034.5,2095.3,1034.5z"></path>					<path class="st2" d="M2035.6,1034.5c-0.9,0-1.6-0.7-1.6-1.6v-25.1c0-0.9,0.7-1.6,1.6-1.6c0.9,0,1.6,0.7,1.6,1.6v25.1      C2037.3,1033.8,2036.5,1034.5,2035.6,1034.5z"></path>				</g>			</g>			<g>				<g>					<rect x="1813.1" y="646.2" class="st6" width="258.9" height="148.2"></rect>					<path class="st4" d="M2072,796h-258.9c-0.9,0-1.6-0.7-1.6-1.6V646.2c0-0.9,0.7-1.6,1.6-1.6H2072c0.9,0,1.6,0.7,1.6,1.6v148.2      C2073.6,795.3,2072.9,796,2072,796z M1814.7,792.8h255.6V647.8h-255.6V792.8z"></path>				</g>				<g>					<path class="st6" d="M1848,771.3h-17.6c-3.9,0-7-3.1-7-7v-42.4c0-3.9,3.1-7,7-7h17.6c3.9,0,7,3.1,7,7v42.4      C1855.1,768.2,1851.9,771.3,1848,771.3z"></path>					<path class="st1" d="M1851.6,773h-24.7c-2.8,0-5.1-2.3-5.1-5.1v-49.5c0-2.8,2.3-5.1,5.1-5.1h24.7c2.8,0,5.1,2.3,5.1,5.1v49.5      C1856.7,770.7,1854.4,773,1851.6,773z M1826.9,716.5c-1,0-1.8,0.8-1.8,1.8v49.5c0,1,0.8,1.8,1.8,1.8h24.7c1,0,1.8-0.8,1.8-1.8      v-49.5c0-1-0.8-1.8-1.8-1.8H1826.9z"></path>				</g>				<g>					<path class="st6" d="M2055.2,771.3h-17.6c-3.9,0-7-3.1-7-7v-42.4c0-3.9,3.1-7,7-7h17.6c3.9,0,7,3.1,7,7v42.4      C2062.2,768.2,2059.1,771.3,2055.2,771.3z"></path>					<path class="st1" d="M2058.8,773H2034c-2.8,0-5.1-2.3-5.1-5.1v-49.5c0-2.8,2.3-5.1,5.1-5.1h24.7c2.8,0,5.1,2.3,5.1,5.1v49.5      C2063.9,770.7,2061.6,773,2058.8,773z M2034,716.5c-1,0-1.8,0.8-1.8,1.8v49.5c0,1,0.8,1.8,1.8,1.8h24.7c1,0,1.8-0.8,1.8-1.8      v-49.5c0-1-0.8-1.8-1.8-1.8H2034z"></path>				</g>				<g>					<polygon class="st6" points="1876.5,599.1 1860.9,599.1 1860.9,564.1 1876.5,564.1 1876.5,564.1 1876.5,599.1      "></polygon>					<path class="st4" d="M1876.5,600.8h-15.6c-0.9,0-1.6-0.7-1.6-1.6v-35c0-0.9,0.7-1.6,1.6-1.6h15.6c0.9,0,1.6,0.7,1.6,1.6v35      C1878.1,600,1877.4,600.8,1876.5,600.8z M1862.5,597.5h12.3v-31.7l-12.3,0V597.5z"></path>				</g>				<g>					<path class="st6" d="M2076.4,657.3h-267.8c-2.3,0-3.9-2.3-3.1-4.5l20.8-57.1c0.5-1.3,1.7-2.2,3.1-2.2l225.6,1.4      c1.4,0,2.6,0.9,3.1,2.1l21.4,55.8C2080.4,655,2078.7,657.3,2076.4,657.3z"></path>					<path class="st4" d="M2076.4,658.9h-267.8c-1.6,0-3.1-0.8-4.1-2.1c-0.9-1.3-1.2-3-0.6-4.5l20.8-57.1c0.7-2,2.6-3.3,4.7-3.3      c0,0,0,0,0,0l225.6,1.4c2.1,0,3.9,1.3,4.6,3.2l21.4,55.8c0.6,1.5,0.4,3.2-0.5,4.6C2079.6,658.1,2078,658.9,2076.4,658.9z       M1829.4,595.2c-0.7,0-1.3,0.4-1.6,1.1l-20.8,57.1c-0.2,0.5-0.1,1.1,0.2,1.6c0.3,0.5,0.8,0.7,1.4,0.7h267.8      c0.6,0,1.1-0.3,1.4-0.7s0.4-1,0.2-1.6l-21.4-55.8c-0.3-0.7-0.9-1.1-1.6-1.1L1829.4,595.2      C1829.4,595.2,1829.4,595.2,1829.4,595.2z"></path>				</g>				<g>					<polygon class="st6" points="2020.8,794.4 2020.3,649.5 1943.4,551.9 1864.2,648.1 1865,794.4      "></polygon>					<path class="st4" d="M2020.8,796H1865c-0.9,0-1.6-0.7-1.6-1.6l-0.7-146.3c0-0.4,0.1-0.8,0.4-1l79.2-96.2      c0.3-0.4,0.8-0.6,1.3-0.6c0.5,0,1,0.2,1.3,0.6l76.9,97.5c0.2,0.3,0.3,0.6,0.4,1l0.5,144.9c0,0.4-0.2,0.9-0.5,1.2      C2021.7,795.8,2021.3,796,2020.8,796z M1866.6,792.8h152.6l-0.5-142.7l-75.3-95.5l-77.5,94.2L1866.6,792.8z"></path>				</g>				<g>					<path class="st6" d="M1879.4,771.3l26.7,0.1c1.4,0,2.5-1.1,2.5-2.5v-51.5c0-1.4-1.1-2.5-2.5-2.5l-26.7-0.1      c-1.4,0-2.5,1.1-2.5,2.5v51.5C1876.9,770.2,1878,771.3,1879.4,771.3z"></path>					<path class="st1" d="M1906.1,773.1l-26.7-0.1c-2.3,0-4.1-1.8-4.1-4.1v-51.5c0-2.3,1.8-4.1,4.1-4.1l26.7,0.1      c2.3,0,4.1,1.8,4.1,4.1V769C1910.2,771.2,1908.3,773.1,1906.1,773.1z M1879.4,716.5c-0.5,0-0.8,0.4-0.8,0.8v51.5      c0,0.5,0.4,0.8,0.8,0.8c0,0,0,0,0,0l26.7,0.1c0.5,0,0.8-0.4,0.8-0.8v-51.5c0-0.5-0.4-0.8-0.8-0.8L1879.4,716.5z"></path>				</g>				<g>					<path class="st6" d="M1978.1,771.3l26.7,0.1c1.4,0,2.5-1.1,2.5-2.5v-51.5c0-1.4-1.1-2.5-2.5-2.5l-26.7-0.1      c-1.4,0-2.5,1.1-2.5,2.5v51.5C1975.7,770.2,1976.8,771.3,1978.1,771.3z"></path>					<path class="st1" d="M2004.8,773.1l-26.7-0.1c-2.3,0-4.1-1.8-4.1-4.1v-51.5c0-2.3,1.8-4.1,4.1-4.1l26.7,0.1      c2.3,0,4.1,1.8,4.1,4.1V769C2008.9,771.2,2007.1,773.1,2004.8,773.1z M1978.1,716.5c-0.5,0-0.8,0.4-0.8,0.8v51.5      c0,0.5,0.4,0.8,0.8,0.8c0,0,0,0,0,0l26.7,0.1c0.5,0,0.8-0.4,0.8-0.8v-51.5c0-0.5-0.4-0.8-0.8-0.8L1978.1,716.5z"></path>				</g>				<g>					<path class="st6" d="M1921.9,795.5h41.4v-72.1c0-7.3-5.9-13.2-13.2-13.2h-14.9c-7.3,0-13.2,5.9-13.2,13.2V795.5z"></path>					<path class="st4" d="M1963.3,797.1h-41.4c-0.9,0-1.6-0.7-1.6-1.6v-78.7c0-4.5,3.7-8.2,8.2-8.2h28.3c4.5,0,8.2,3.7,8.2,8.2v78.7      C1964.9,796.4,1964.2,797.1,1963.3,797.1z M1923.6,793.9h38.1v-77.1c0-2.7-2.2-4.9-4.9-4.9h-28.3c-2.7,0-4.9,2.2-4.9,4.9V793.9      z"></path>				</g>				<g>					<path class="st6" d="M1855.7,655.6l86.6-103.9c0.8-1,2.3-1,3.1,0l84.1,103.9c0.5,0.7,0.1,1.7-0.8,1.7h-8.7l-76.1-96l-80.7,96.4      h-6.4C1855.6,657.7,1855,656.4,1855.7,655.6z"></path>					<path class="st4" d="M1863.1,659.3h-6.4c-1.1,0-2.2-0.6-2.6-1.7c-0.5-1-0.3-2.2,0.4-3.1l86.6-103.9c0.7-0.8,1.7-1.4,2.8-1.3      c1.1,0,2.1,0.5,2.8,1.3l84.1,103.9c0.7,0.8,0.8,1.9,0.3,2.8c-0.4,0.9-1.4,1.5-2.4,1.5h-8.7c-0.5,0-1-0.2-1.3-0.6l-74.9-94.5      l-79.4,94.8C1864,659.1,1863.6,659.3,1863.1,659.3z M1856.9,656.7C1856.9,656.7,1856.9,656.7,1856.9,656.7      C1856.9,656.7,1856.9,656.7,1856.9,656.7z M1857.4,656h4.9l80.2-95.8c0.3-0.4,0.8-0.6,1.3-0.6c0.5,0,1,0.2,1.3,0.6l75.7,95.4      h6.7L1944,552.8c-0.1-0.1-0.2-0.1-0.3-0.1c0,0,0,0,0,0c-0.1,0-0.2,0-0.3,0.1L1857.4,656z M1855.7,655.6L1855.7,655.6      L1855.7,655.6z"></path>				</g>				<g>					<path class="st6" d="M1942.5,620.8c-21.7,0-39.4,17.6-39.4,39.4v8.7h78.7v-8.7C1981.9,638.5,1964.3,620.8,1942.5,620.8z"></path>					<path class="st4" d="M1981.9,670.6h-78.7c-0.9,0-1.6-0.7-1.6-1.6v-8.7c0-22.6,18.4-41,41-41c22.6,0,41,18.4,41,41v8.7      C1983.5,669.8,1982.8,670.6,1981.9,670.6z M1904.8,667.3h75.4v-7.1c0-20.8-16.9-37.7-37.7-37.7c-20.8,0-37.7,16.9-37.7,37.7      V667.3z"></path>				</g>			</g>		</g>		<g>			<g>				<g>					<g>						<path class="st6" d="M1636,1211.7c0,0-6.8,31,0.7,39.8l2.3,3.8l-7.3,3.1c-9.2,3.9-19.9,2.2-27.4-4.5l-1-0.9l1.8-3.9       c3.1-7,8.5-28.6,8-36L1636,1211.7z"></path>						<path d="M1621.7,1262.1c-6.7,0-13.2-2.4-18.3-7l-1-0.9c-0.5-0.5-0.7-1.2-0.4-1.9l1.8-3.9c3-6.7,8.4-28.1,7.9-35.2       c0-0.4,0.1-0.9,0.4-1.2s0.7-0.5,1.1-0.6l22.8-1.5c0.5,0,1,0.2,1.3,0.6s0.5,0.9,0.4,1.4c-1.8,8.4-5.4,31.7,0.4,38.4       c0.1,0.1,0.1,0.1,0.1,0.2l2.3,3.8c0.2,0.4,0.3,0.9,0.2,1.4c-0.1,0.5-0.5,0.8-0.9,1l-7.3,3.1       C1629,1261.4,1625.3,1262.1,1621.7,1262.1z M1605.4,1252.6l0.1,0.1c7,6.2,17,7.9,25.6,4.2l5.5-2.4l-1.3-2.1       c-6.7-8.1-2.8-31.8-1.4-39l-19.1,1.2c-0.2,8.7-5.2,28.4-8.2,35.1L1605.4,1252.6z"></path>					</g>					<g>						<g>							<path class="st6" d="M1638.7,1240.9l4.1,3.6c8.1,7.2,17.9,12.4,28.5,14.9l2,0.5c0.8,0.2,1.4,0.7,1.7,1.5l0.1,0.4        c1.6,4.2-2.2,14.7-17.5,20c-4,1.4-14.6,0.3-30.4,0.3c-6.8,0-13.9,0-18,0c-4,0-8-1.1-11.3-3.4c-3.7-2.5-7.1-6.8-5.7-13.6        c1.4-6.7,6.8-19.9,9.7-24.9c0.6-1,1.8-1.2,2.7-0.5l3,7.4c2.1,5,7.2,8.3,12.5,7.5c0.3-0.1,0.7-0.1,1-0.2        c3.4-0.8,6.4-3,8.5-5.8l5.3-7.3C1635.9,1240.1,1637.6,1240,1638.7,1240.9z"></path>							<path d="M1649.7,1284.2c-2.4,0-5.1-0.1-8.3-0.2c-4.1-0.1-8.8-0.2-14.2-0.2c-6.8,0-13.9,0-18,0c-4.5,0-8.8-1.3-12.2-3.6        c-5.5-3.7-7.7-9-6.4-15.3c1.4-6.8,6.8-20,9.9-25.4c0.5-0.8,1.3-1.4,2.3-1.6c1-0.2,2,0,2.8,0.6l0.4,0.3l3.2,7.9        c1.8,4.4,6.3,7.1,10.8,6.5c0.3,0,0.6-0.1,0.9-0.2c2.9-0.7,5.5-2.5,7.5-5.2l5.3-7.3c0.7-0.9,1.7-1.6,2.9-1.7        c1.2-0.1,2.3,0.2,3.2,1l4.1,3.6c7.9,7,17.5,12.1,27.8,14.6l2,0.5c1.3,0.3,2.3,1.3,2.8,2.5l0.1,0.4c0.8,2.2,0.5,5.2-1,8.3        c-1.6,3.5-6.1,9.9-17.5,13.8C1656.3,1284.1,1653.5,1284.2,1649.7,1284.2z M1603.4,1241.1        C1603.4,1241.1,1603.4,1241.1,1603.4,1241.1c-3,5.1-8.3,18.1-9.6,24.4c-1,5,0.7,9,5,12c2.9,2,6.5,3.1,10.4,3.1        c4.1,0,11.1,0,18,0c5.4,0,10.1,0.1,14.3,0.2c7.7,0.2,13.2,0.3,15.6-0.5c10.3-3.6,14.2-9.1,15.6-12.2c1.2-2.6,1.3-4.7,0.9-5.8        l-0.1-0.4c-0.1-0.2-0.3-0.4-0.5-0.5l-2-0.5c-10.8-2.6-20.9-7.9-29.2-15.3l-4.1-3.6c-0.2-0.2-0.5-0.2-0.7-0.2        c-0.1,0-0.4,0.1-0.6,0.3l-5.3,7.3c-2.4,3.3-5.8,5.6-9.4,6.5c-0.4,0.1-0.8,0.2-1.1,0.2c-6,0.9-11.9-2.6-14.3-8.5        L1603.4,1241.1z"></path>						</g>						<path d="M1616.9,1276.5c-13.1,0-19.6-7-19.9-7.3c-0.6-0.7-0.6-1.7,0.1-2.3c0.7-0.6,1.7-0.6,2.3,0.1c0.3,0.3,6.4,6.7,18.9,6.2       c9.6-0.4,23.9-0.2,31.5-0.1c4.4,0.1,8.5-1.1,12-3.4c1.1-0.8,2-1.5,2.5-2.2c0.5-0.7,1.6-0.9,2.3-0.3c0.7,0.5,0.9,1.6,0.3,2.3       c-0.8,1-1.9,2-3.3,2.9c-4,2.7-8.8,4.1-13.9,4c-7.6-0.1-21.8-0.3-31.3,0.1C1617.9,1276.5,1617.4,1276.5,1616.9,1276.5z"></path>					</g>				</g>				<g>					<g>						<path class="st6" d="M1534.6,1209.9c0,0-9.3,18.9-6.4,29.7l0.5,4.3l-30.3-18.9l3.3-2.2c6.6-4.4,13.2-11.5,15.4-18.2       L1534.6,1209.9z"></path>						<path d="M1528.7,1245.5c-0.3,0-0.6-0.1-0.9-0.2l-30.3-18.9c-0.5-0.3-0.8-0.8-0.8-1.4c0-0.6,0.3-1.1,0.7-1.4l3.3-2.2       c7-4.6,12.8-11.5,14.7-17.4c0.3-0.8,1.2-1.3,2-1.1l17.5,5.3c0.5,0.1,0.8,0.5,1,0.9c0.2,0.4,0.2,0.9,0,1.4       c-0.1,0.2-9,18.5-6.3,28.6c0,0.1,0,0.1,0,0.2l0.5,4.3c0.1,0.6-0.2,1.2-0.7,1.6C1529.3,1245.4,1529,1245.5,1528.7,1245.5z        M1501.4,1224.9l25.2,15.7l-0.1-0.8c-2.5-9.4,3.5-24,5.8-29l-14.2-4.3c-2.5,6.2-8.4,13-15.5,17.6L1501.4,1224.9z"></path>					</g>					<g>						<g>							<path class="st6" d="M1531.6,1233.3l0.6,5.2c1.1,10.3,4.7,20.3,10.4,28.9l4.4,6.6c0.4,0.6,0.5,1.4,0.2,2.1l-0.1,0.4        c-1.6,4-11,8.9-25.1,2.7c-8.8-3.9-17.6-15.7-42.9-39.5c-1.3-1.2-0.9-3.5,0.2-4.9c4.1-5.1,14.5-16.8,23.7-19.7        c1-0.3,2.1,0.3,2.3,1.4l2,10.2c0.9,4.6,5.3,7.6,9.9,6.7l11.6-2.3C1530.1,1230.9,1531.4,1231.9,1531.6,1233.3z"></path>							<path d="M1534.6,1283.9c-3.6,0-8.1-0.8-13.4-3.1c-5.8-2.6-11.4-8.2-21.4-18.3c-5.6-5.7-12.7-12.8-21.9-21.5        c-2-1.9-1.5-5.1,0.1-7.1c4.1-5.1,14.8-17.2,24.5-20.2c0.9-0.3,2-0.2,2.8,0.3c0.8,0.5,1.4,1.3,1.6,2.3l2,10.2        c0.3,1.8,1.4,3.4,2.9,4.4c1.5,1,3.3,1.4,5,1l11.6-2.3c1.1-0.2,2.3,0,3.2,0.7c0.9,0.7,1.5,1.7,1.6,2.8l0.6,5.2        c1.1,10,4.6,19.8,10.1,28.2l4.4,6.6c0.7,1.1,0.9,2.4,0.4,3.7l-0.1,0.4c-0.8,2.1-3.1,4-6,5.3        C1540.8,1283.1,1538.1,1283.9,1534.6,1283.9z M1503.5,1216.9C1503.5,1216.9,1503.5,1216.9,1503.5,1216.9        c-8.9,2.7-19,14.3-23,19.1c-0.6,0.8-1,2.1-0.4,2.6c9.3,8.7,16.3,15.9,22,21.6c9.8,9.8,15.1,15.3,20.4,17.6        c9.5,4.2,15.8,2.8,18.7,1.6c2.5-1,3.9-2.5,4.2-3.4l0.1-0.4c0.1-0.2,0.1-0.4-0.1-0.6l-4.4-6.6c-5.9-8.8-9.5-19.1-10.7-29.6        l-0.6-5.2c0-0.3-0.2-0.5-0.3-0.5c-0.1-0.1-0.3-0.2-0.6-0.1l-11.6,2.3c-2.6,0.5-5.3,0-7.5-1.5c-2.2-1.5-3.8-3.8-4.3-6.5        l-2-10.2C1503.7,1216.9,1503.6,1216.9,1503.5,1216.9C1503.6,1216.9,1503.5,1216.9,1503.5,1216.9z"></path>						</g>						<path d="M1537.2,1275.4c-0.1,0-0.2,0-0.2,0l-2.4-0.4c-8-1.2-15.6-5-21.4-10.8l-26.4-26.6c-0.6-0.6-0.6-1.7,0-2.3       c0.6-0.6,1.7-0.6,2.3,0l26.4,26.6c5.3,5.3,12.2,8.8,19.5,9.9l2.4,0.4c0.9,0.1,1.5,1,1.4,1.9       C1538.7,1274.8,1538,1275.4,1537.2,1275.4z"></path>					</g>				</g>				<g>					<path class="st1" d="M1653.6,899.3c20.7,5.8,33.6,9.3,33.6,9.3s-41.3,148.2-53.3,185.4c-10.8,33.7-81.9,107-94.5,121.8      c-1.3,1.5-5,3.1-5,3.1c-7.2,1.8-14.8-1.1-19.2-7.2c0,0-2.3-5.1-1.7-7.8l3.9-19.3c15-61.1,43.6-91.3,55.8-155.1      c18.3-96.3,32-118,35.1-125.3C1617.7,881.5,1653.6,899.3,1653.6,899.3z"></path>					<path class="st1" d="M1722.3,902c3.7,34.8,1.5,94.7-1.9,121.8c-9.3,74.6-70.9,179.5-82.3,200.8c-1.5,2.7-4.1,4.6-7.2,4.9      c-8.7,1-12-1.2-16.4-3.5c-3.2-1.6-5.1-5-5.2-8.6c-1.5-73.1,14-135.6,30.2-175.5c6.2-15.4,13-102.8,12.2-134.3L1722.3,902z"></path>					<path class="st7" d="M1611.1,1145c-0.1,0-0.2,0-0.3,0c-0.9-0.2-1.5-1-1.3-1.9c7.3-39.4,13.4-63.8,20.5-81.6      c9.8-24.8,15-50.6,15.4-76.7l0.2-13c0-0.9,0.7-1.6,1.6-1.6c0,0,0,0,0,0c0.9,0,1.6,0.8,1.6,1.7l-0.2,13      c-0.4,26.5-5.6,52.7-15.6,77.9c-7,17.6-13.1,41.9-20.3,81C1612.6,1144.4,1611.9,1145,1611.1,1145z"></path>				</g>			</g>			<g>				<g>					<g>						<path class="st6" d="M1795.5,752.8c1.7-3.3,2.5-5.3,2.7-6.2c0,0,0.6-1.1,0.4-2.7c-0.5-4.7-2.5-16.2,0.8-20.6       c5.5-7.4,12.9-3.2,12.9-3.2s3.4-6.9,7.8-4.3c3.4,2,6.6,6.4,6.1,13.2c-0.8,9.3-2.4,18.1-12.2,23.4c-1.9,1-3.4,2.7-4.3,4.7       L1795.5,752.8z"></path>						<path d="M1809.8,758.7c-0.2,0-0.3,0-0.5-0.1l-14.3-4.2c-0.5-0.1-0.8-0.5-1-0.9c-0.2-0.4-0.2-1,0-1.4c1.5-3,2.4-5.1,2.6-5.9       c0-0.1,0.1-0.2,0.1-0.3c0,0,0.4-0.7,0.3-1.7c-0.1-0.5-0.1-1.1-0.2-1.8c-0.7-5.8-2-15.5,1.3-20c4.3-5.8,10.1-5.6,13.6-4.3       c0.9-1.4,2.7-3.5,5-4.2c1.5-0.4,3-0.2,4.4,0.6c1.8,1.1,7.7,5.3,6.9,14.7c-0.8,9.4-2.5,19-13,24.7c-1.6,0.9-2.9,2.2-3.5,3.9       C1811,758.3,1810.4,758.7,1809.8,758.7z M1797.8,751.8l11.1,3.3c1-1.7,2.5-3.2,4.3-4.2c9.2-4.9,10.6-13.3,11.3-22.1       c0.6-7.5-3.9-10.8-5.3-11.6c-0.6-0.4-1.2-0.4-1.8-0.3c-1.7,0.5-3.3,3-3.8,3.9c-0.2,0.4-0.6,0.7-1,0.8       c-0.4,0.1-0.9,0.1-1.3-0.1c-0.2-0.1-6.3-3.4-10.8,2.8c-2.5,3.4-1.3,13-0.7,17.6c0.1,0.7,0.2,1.3,0.2,1.8       c0.2,1.6-0.3,2.9-0.5,3.4C1799.6,747.8,1799.1,749.2,1797.8,751.8z"></path>					</g>					<g>						<g>							<path class="st6" d="M1786.6,765.1l-12.9-15.9l8-5.9c0.4-0.3,1-0.5,1.5-0.6l1-0.2c1.2-0.2,2.3-1,2.7-2.2        c0.2-0.6,0.6-1.2,1.2-1.6l59.3-43.7c0.5-0.4,1-0.7,1.6-0.9l17.3-6.8l-9.9,14.9c-0.5,0.8-1.2,1.6-1.9,2.2l-54.9,48.9        c-0.5,0.4-1,0.7-1.7,0.8l-0.2,0c-1.2,0.2-2.2,1-2.6,2.2l-0.2,0.6c-0.2,0.5-0.5,1-0.9,1.4L1786.6,765.1z"></path>							<path d="M1786.6,766.7c0,0-0.1,0-0.1,0c-0.4,0-0.9-0.3-1.1-0.6l-12.9-15.9c-0.3-0.3-0.4-0.8-0.4-1.2c0.1-0.4,0.3-0.8,0.7-1.1        l8-5.9c0.6-0.5,1.4-0.8,2.2-0.9l1-0.2c0.6-0.1,1.2-0.5,1.4-1.2c0.3-0.9,1-1.7,1.8-2.3l59.3-43.7c0.6-0.4,1.3-0.8,2-1.1        l17.4-6.8c0.7-0.3,1.4-0.1,1.9,0.5c0.4,0.6,0.5,1.3,0.1,1.9l-9.9,14.9c-0.6,0.9-1.4,1.8-2.2,2.5l-54.9,48.9        c-0.7,0.6-1.5,1-2.4,1.2l-0.1,0c-0.6,0.1-1.1,0.6-1.4,1.1l-0.2,0.6c-0.3,0.8-0.8,1.5-1.4,2l-7.5,6.7        C1787.4,766.6,1787,766.7,1786.6,766.7z M1776.1,749.5l10.7,13.2l6.2-5.6c0.2-0.2,0.4-0.4,0.5-0.7l0.2-0.6        c0.6-1.6,2.1-2.9,3.8-3.2l0.1,0c0.3-0.1,0.6-0.2,0.9-0.4l54.9-48.9c0.6-0.6,1.2-1.2,1.6-1.9l7-10.6l-12.6,4.9        c-0.4,0.2-0.8,0.4-1.2,0.7l-59.3,43.7c-0.3,0.2-0.5,0.5-0.6,0.8c-0.6,1.7-2.1,3-4,3.3l-1,0.2c-0.3,0-0.6,0.2-0.8,0.3        L1776.1,749.5z"></path>						</g>						<path d="M1851.7,700.4c-0.5,0-0.9-0.2-1.2-0.6l-3.4-4c-0.6-0.7-0.5-1.7,0.2-2.3c0.7-0.6,1.7-0.5,2.3,0.2l3.4,4       c0.6,0.7,0.5,1.7-0.2,2.3C1852.4,700.2,1852,700.4,1851.7,700.4z"></path>						<g>							<path class="st9" d="M1760.5,759.5l13.5-10.6l12.8,16.1l-13.5,10.6c-2.5,1.9-6,1.6-8-0.9l-5.8-7.4        C1757.5,765,1758,761.5,1760.5,759.5z"></path>							<path d="M1769.6,778.6c-2.1,0-4.3-0.9-5.7-2.7l-5.8-7.4c-1.2-1.5-1.7-3.4-1.5-5.3c0.2-2,1.2-3.7,2.8-4.9l14.8-11.6l14.8,18.7        l-14.8,11.6C1772.9,778,1771.2,778.6,1769.6,778.6z M1761.5,760.8c-0.9,0.7-1.4,1.7-1.6,2.8c-0.1,1,0.2,2.1,0.8,2.9l5.8,7.4        c1.4,1.7,3.9,2,5.7,0.6l12.3-9.6l-10.7-13.6L1761.5,760.8z"></path>						</g>						<path class="st6" d="M1769.7,771.4c-0.5,0-1-0.2-1.3-0.6c-0.5-0.7-0.4-1.7,0.3-2.3l7.5-5.7c0.7-0.5,1.7-0.4,2.3,0.3       c0.5,0.7,0.4,1.7-0.3,2.3l-7.5,5.7C1770.4,771.3,1770,771.4,1769.7,771.4z"></path>					</g>					<g>						<path class="st6" d="M1798.2,746.6c0,0,1.9-10.1,8.5-16.5c4-4,7.8-21.1,15.5-12.9c1.7,1.8,2.8,2.9,3.7,5.7       c0.5,1.6,1.2,5.5,1,7.4c-0.8,9.3-3.1,16.8-13,22.1c-1.9,1-3.4,2.7-4.2,4.7c-0.5,1.3-12,80.2-28.4,89.8       c-18.7,10.9-51.2-30.7-51.2-30.7l28.2-29.7c0,0,13,16.2,14.9,17C1774.8,804.1,1798.2,746.6,1798.2,746.6z"></path>						<path d="M1774.5,850.3c-19.4,0-44.3-31.6-45.5-33.1l-0.9-1.1l30.5-32.1l1.2,1.5c5.1,6.3,10.8,13.2,13.3,15.6       c3.5-6.5,15.9-36.1,23.6-55c0.3-1.4,2.4-10.9,8.9-17.2c1-1,2.2-3.3,3.3-5.5c2.4-4.7,4.8-9.5,8.7-10c2-0.3,4,0.6,5.9,2.7       l0.3,0.4c1.6,1.7,2.8,3,3.8,6c0.6,1.8,1.3,5.9,1.1,8c-0.9,10.1-3.5,17.9-13.8,23.4c-1.5,0.8-2.8,2.2-3.5,3.8       c-0.1,0.4-0.4,1.9-0.7,3.7c-8.9,51.9-18.5,81.2-28.4,87C1779.8,849.7,1777.2,850.3,1774.5,850.3z M1732.4,816.3       c5.2,6.4,32.6,38.3,48.2,29.2c6.2-3.7,16-21.3,26.9-84.7c0.6-3.7,0.7-4,0.8-4.3c1-2.3,2.7-4.3,5-5.5       c9-4.8,11.3-11.5,12.1-20.8c0.1-1.6-0.5-5.3-0.9-6.7c-0.7-2.3-1.6-3.2-3-4.8l-0.3-0.4c-1.2-1.2-2.2-1.8-3-1.7       c-2.2,0.3-4.4,4.7-6.2,8.3c-1.3,2.6-2.5,5-3.9,6.3c-6.2,6-8,15.5-8,15.6l-0.1,0.3c-0.1,0.1-5.8,14.2-11.7,28.2       c-12.2,28.9-13.1,29.2-14,29.6l-0.6,0.3l-0.7-0.3c-1.8-0.8-9.3-9.8-14.4-16L1732.4,816.3z"></path>					</g>				</g>				<g>					<path class="st6" d="M1553.8,930.8c-0.5,1.5,0.8,4.5,0.6,5.7c-0.7,4.5-7.4,10.8-12.3,14.9c-3.9,3.3-6.2,8.1-6.2,13.2      c0,1.2,0.1,2.5,0.1,3.9c0.2,3.2-0.9,5-2.3,5.8c-2.8,1.7-6.3-0.3-6.7-3.5c-0.8-7.1-2-21.8,0-27c1.3-3.4,5.5-7.9,9.5-11.5      c3.9-3.6,6-8.7,6-14c-0.1-18.4,10.1-72.1,22.1-109.8l30,16.6C1594.5,825.1,1573.4,875,1553.8,930.8z"></path>					<path d="M1531.5,976.7c-0.9,0-1.8-0.2-2.6-0.6c-2-1-3.3-2.8-3.5-5c-0.9-8.1-2-22.4,0.1-27.8c1.2-3.1,4.5-7.2,9.9-12.2      c3.5-3.2,5.5-7.9,5.5-12.8c-0.1-18.1,9.8-71.3,22.2-110.3c0.1-0.5,0.5-0.8,1-1c0.5-0.2,1-0.1,1.4,0.1l30,16.6      c0.7,0.4,1,1.3,0.7,2.1c-0.2,0.5-21.3,50.4-40.7,105.5c-0.1,0.4,0.2,1.8,0.3,2.5c0.3,1.1,0.5,2,0.3,2.9      c-0.6,3.9-4.9,9.3-12.9,15.9c-3.6,3-5.6,7.4-5.6,12c0,1.2,0.1,2.5,0.1,3.9c0.2,4.3-1.5,6.4-3,7.3      C1533.6,976.4,1532.6,976.7,1531.5,976.7z M1565.5,810.9c-12,38.5-21.5,89.8-21.4,107.4c0,5.8-2.4,11.4-6.5,15.2      c-4.9,4.6-8.1,8.4-9.1,10.9c-1.3,3.4-1.3,13.2,0.1,26.3c0.1,1.1,0.7,2,1.7,2.4c0.8,0.4,1.7,0.4,2.5-0.1      c1.1-0.7,1.6-2.2,1.5-4.4c-0.1-1.4-0.1-2.8-0.1-4c0-5.6,2.5-10.9,6.8-14.5c7-5.8,11.3-10.9,11.7-13.9c0-0.3-0.2-1.1-0.3-1.6      c-0.3-1.4-0.7-3-0.2-4.4c17.7-50.2,36.7-96,40.2-104.4L1565.5,810.9z"></path>				</g>				<g>					<path class="st6" d="M1618.5,734.1c31.6-10.2,85.7-5,102.1,7.1c21.3,15.8,41.4,41.2,49.3,51.8c2.2,2.9,2.5,6.9,0.9,10.1      c-7.1,14.1-22.9,48.9-31.8,42.3c-8.9-6.5-20.2-18.8-19.6-12.4c1.7,17.1,4.6,74.2,4.6,74.2s-9.4,3.2-9.8,10.9l-1,20.8      c-0.2,2.4-2.8,3.8-5,2.7c-17.2-9-85.5-17.6-110.9-31.5c-3-1.7-4.7-5.1-4.1-8.6c3-17.4,20.2-54,13.3-76.1      c-0.7-2.3-6.2,7.1-12.7,12.8c-1.1,0.9-2.6,1-3.7,0.1l-30.1-24c-2.7-2.1-3.6-5.8-2.4-8.9      C1563.8,789.8,1584.4,745.1,1618.5,734.1z"></path>					<path d="M1709.8,943.7c-0.8,0-1.6-0.2-2.3-0.6c-7.4-3.9-25.2-7.8-44.1-12c-24.6-5.4-52.5-11.6-66.9-19.5      c-3.7-2-5.6-6.1-4.9-10.3c0.9-5.2,3-12,5.4-19.7c5.4-17.3,12.1-38.8,8.4-53.8c-0.7,0.8-1.5,1.8-2.3,2.7c-2.3,2.8-5.1,6.3-8.3,9      c-1.7,1.4-4.1,1.5-5.8,0.1l-30.1-24c-3.2-2.6-4.4-7-2.9-10.8c7.2-18.1,27.7-61.3,61.9-72.3c33-10.6,87.2-4.8,103.5,7.3      c21.5,15.9,41.9,41.7,49.7,52.1c2.6,3.4,3,8,1,11.9c-0.7,1.4-1.5,3.1-2.4,4.8c-9.2,18.6-18.8,37-27,39      c-1.8,0.4-3.4,0.1-4.9-0.9c-2.8-2-5.7-4.5-8.5-6.9c-2.9-2.5-6.6-5.7-8.5-6.7c1.7,17.2,4.6,73.4,4.6,74c0,0.7-0.4,1.4-1.1,1.6      c-0.1,0-8.3,3-8.7,9.5l-1,20.8c-0.2,1.8-1.2,3.3-2.6,4.1C1711.5,943.5,1710.6,943.7,1709.8,943.7z M1606.1,823.6      c0.1,0,0.3,0,0.4,0c0.7,0.1,1.3,0.7,1.6,1.5c5.1,16-2.1,39-7.9,57.5c-2.4,7.7-4.5,14.3-5.3,19.3c-0.5,2.8,0.8,5.5,3.3,6.8      c14,7.7,41.7,13.8,66,19.2c19.9,4.4,37.1,8.2,44.9,12.3c0.5,0.3,1.1,0.3,1.6,0c0.5-0.3,0.9-0.8,0.9-1.4l1-20.7      c0.4-7,7-10.7,9.7-11.9c-0.4-8.2-3-57.4-4.5-73c-0.2-2.1,0.6-3,1.3-3.3c2.3-1.2,5.5,1.4,12.6,7.4c2.8,2.4,5.6,4.8,8.3,6.8      c0.7,0.5,1.3,0.6,2.2,0.4c7.3-1.8,18.7-24.9,24.8-37.3c0.9-1.8,1.7-3.4,2.4-4.9c1.4-2.7,1.1-6-0.7-8.4      c-7.7-10.2-27.8-35.8-49-51.4c-15.4-11.4-69-17-100.6-6.8c-33.8,10.9-54.4,56.6-59.9,70.4c-1,2.5-0.2,5.4,1.9,7.1l30.1,24      c0.5,0.4,1.1,0.3,1.6-0.1c3-2.5,5.7-5.9,7.9-8.6C1603.3,825.2,1604.6,823.6,1606.1,823.6z"></path>				</g>			</g>			<g>				<g>					<path class="st6" d="M1711,673c2.7,0.9,3.9,6.5,4.3,9.3c1.4,9.3-3.4,31.1-10.1,32.5c-6.6,1.4-6-1.6-11,1.2      c-4,2.2-4.5,6.3-6.3,15.2c-0.1,0.6,11.4,3.8,11.6,4.4c0.5,1.2-6.7,16.3-28.8,13.5c-21-2.7-23.9-17-24-18      c0-0.6,15.8-1.7,16.1-2.3c3.7-7.6,6.4-20.8,6.4-20.8S1682.8,663.3,1711,673z"></path>					<path d="M1675.9,751.1c-1.7,0-3.6-0.1-5.5-0.4c-23.1-2.9-25.4-19.4-25.4-19.5c-0.1-1.8,1.5-2,4-2.3c1.6-0.2,3.6-0.4,5.7-0.6      c2.4-0.3,5.6-0.6,6.9-0.8c3.4-7.4,6-19.7,6-19.8l0-0.1c0.3-1.1,8.2-26.4,24.7-34.8c6.1-3.1,12.5-3.5,19.2-1.2      c3.5,1.2,4.9,7.2,5.4,10.6c1.3,8.7-3,32.6-11.4,34.4c-3.3,0.7-5.1,0.4-6.4,0.2c-1.3-0.2-2-0.4-4.2,0.9      c-2.9,1.6-3.6,4.4-5.1,12.1l-0.2,0.8c1.2,0.5,3.3,1.2,4.9,1.7c5.6,1.9,6.1,2,6.4,3c0.7,2-2.3,5.9-2.6,6.3      C1695.9,744.5,1689.1,751.1,1675.9,751.1z M1648.6,732.2c1.1,3.5,5.6,13.1,22.2,15.2c18,2.3,25.3-7.6,26.7-10.9      c-1-0.4-2.7-0.9-4-1.4c-6.8-2.2-7.6-2.5-7.3-4.3l0.4-2c1.5-7.7,2.4-11.9,6.7-14.3c3-1.7,4.5-1.6,6.4-1.3      c1.1,0.2,2.4,0.4,5.1-0.1c5.1-1.1,10.2-21.3,8.8-30.7c-0.6-4.2-2-7.6-3.3-8c-5.8-2-11.4-1.6-16.6,1      c-14.9,7.6-22.6,31.3-23.1,32.8c-0.3,1.2-2.9,13.7-6.5,21.1c-0.5,1.1-0.9,1.1-9.2,2C1652.9,731.7,1650.2,732,1648.6,732.2z       M1697.8,735.7L1697.8,735.7L1697.8,735.7z M1689.4,731.6L1689.4,731.6C1689.4,731.6,1689.4,731.6,1689.4,731.6z"></path>				</g>				<path d="M1698.2,693.6c-0.1,0-0.1,0-0.2,0c-4.6-0.6-7.7-6.7-8-12.2c-0.3-4.6,1.4-7.9,4.5-8.7c5.1-1.3,8.8,5.7,9.3,6.5     c0.4,0.8,0.1,1.8-0.7,2.2c-0.8,0.4-1.8,0.1-2.2-0.7c-0.9-1.8-3.5-5.3-5.6-4.8c-1.7,0.4-2.2,3-2.1,5.3c0.2,4,2.4,8.8,5.2,9.2     c0.9,0.1,1.5,0.9,1.4,1.8C1699.8,693,1699.1,693.6,1698.2,693.6z"></path>				<path class="st10" d="M1721.2,664c1.2,6.5-5.4,8-10.6,12.1c-5.4,4.2-5.2,4.1-7.6,5.3c-1.6,0.8-2.2-5.4-6.6-6.3     c-3.2-0.6-4.1,2.1-4.8,2.9c-2.8,3.2,26.2,67,11.5,106.1c-9.4,24.9-33.6,35.9-87.3,31c-45-4.1-56.9-49.7-48.9-66.4     c20.7-43.4,63.9-3.6,74-68.2c7.1-45.3,49.5-65.5,75.4-28.7C1719,655.4,1720.5,659.9,1721.2,664z"></path>			</g>		</g>		<g>			<g>				<g>					<polygon class="st6" points="2122.4,1116.5 2106.6,1159.3 2088.1,1163.2 2100.2,1112.7      "></polygon>					<path d="M2088.1,1164.8c-0.4,0-0.9-0.2-1.2-0.5c-0.4-0.4-0.5-1-0.4-1.5l12.1-50.5c0.2-0.8,1-1.4,1.9-1.2l22.3,3.7      c0.5,0.1,0.9,0.4,1.1,0.8c0.2,0.4,0.3,0.9,0.1,1.4l-15.8,42.9c-0.2,0.5-0.6,0.9-1.2,1l-18.5,3.9      C2088.3,1164.8,2088.2,1164.8,2088.1,1164.8z M2101.4,1114.6l-11.1,46.5l15.1-3.2l14.8-40.2L2101.4,1114.6z"></path>				</g>				<g>					<polygon class="st6" points="2243.2,1108.5 2234.8,1156.5 2221.6,1156.5 2215.1,1114.6      "></polygon>					<path d="M2234.8,1158.2h-13.2c-0.8,0-1.5-0.6-1.6-1.4l-6.5-41.9c-0.1-0.9,0.4-1.7,1.3-1.8l28-6.1c0.5-0.1,1.1,0,1.5,0.4      c0.4,0.4,0.6,0.9,0.5,1.5l-8.4,48C2236.2,1157.6,2235.5,1158.2,2234.8,1158.2z M2223,1154.9h10.4l7.7-44.3l-24.1,5.3      L2223,1154.9z"></path>				</g>				<g>					<path class="st8" d="M2220.4,1184c5.6,0.6,14.7,1,25.3-0.8c3.5-0.6,5.7-4.1,4.7-7.5c-2.7-9.5-8.4-27.5-15.7-35.6l-1.6,4.6      l-2.5-4.2c-0.3-0.6-0.9-1-1.6-1l-5.3-0.5c-1.1-0.1-2.1,0.7-2.3,1.7l-0.7,4l-2-5.1l-3.7,38      C2214.8,1180.7,2217.2,1183.6,2220.4,1184z"></path>					<path d="M2230,1186.1c-3.8,0-7.1-0.2-9.7-0.5c-4.1-0.4-7.1-4.2-6.7-8.3l3.7-38c0.1-0.8,0.7-1.4,1.4-1.5c0.7-0.1,1.5,0.3,1.7,1      l0.1,0.2c0.7-1.2,2.1-1.9,3.5-1.8l5.3,0.5c1.2,0.1,2.3,0.8,2.9,1.8l0.7,1.2l0.4-1.3c0.2-0.6,0.7-1,1.2-1.1      c0.6-0.1,1.2,0.1,1.5,0.5c7.4,8.4,13.2,26.3,16,36.3c0.6,2.1,0.3,4.3-0.9,6.1c-1.1,1.8-3,3.1-5.1,3.4      C2240.1,1185.7,2234.6,1186.1,2230,1186.1z M2219.9,1145.9l-3.1,31.7c-0.2,2.4,1.5,4.5,3.8,4.7c0,0,0,0,0,0      c5.6,0.6,14.5,1,24.9-0.8c1.2-0.2,2.3-0.9,2.9-2c0.7-1,0.8-2.3,0.5-3.5c-2.5-8.8-7.4-24.1-13.5-32.7l-0.6,1.8      c-0.2,0.6-0.7,1-1.4,1.1c-0.6,0.1-1.2-0.2-1.6-0.8l-2.5-4.2c-0.1-0.1-0.2-0.2-0.4-0.2l-5.3-0.5c-0.2,0-0.5,0.2-0.5,0.4l-0.7,4      c-0.1,0.7-0.7,1.3-1.5,1.3C2220.6,1146.3,2220.2,1146.2,2219.9,1145.9z"></path>				</g>				<path d="M2233.7,1181.5c-8.1,0-14.3-1.5-14.6-1.6c-0.9-0.2-1.4-1.1-1.2-2c0.2-0.9,1.1-1.4,2-1.2c0.1,0,13.7,3.4,26.5,0     c0.9-0.2,1.8,0.3,2,1.2c0.2,0.9-0.3,1.8-1.2,2C2242.5,1181.1,2237.8,1181.5,2233.7,1181.5z"></path>				<path class="st10" d="M2167.1,802.1c0.8-3.4,3.8-5.8,7.3-5.8h45c0,0,0,0.1,0,0.2c12.4,0.5,25.8,2.2,36.9,6.1     c6.7,2.4,11.3,8.5,11.7,15.6c2.4,42.7,9.2,208.5-21.3,302.9l-39.1,0.9l-4.1-195.2c-18,57.6-48.6,150.2-77.7,198.9h-33.9     L2167.1,802.1z"></path>				<path d="M2238.4,1166.7h-12.5c-0.9,0-1.6-0.7-1.6-1.6s0.7-1.6,1.6-1.6h12.5c0.9,0,1.6,0.7,1.6,1.6S2239.3,1166.7,2238.4,1166.7z     "></path>				<g>					<g>						<path class="st8" d="M2115.4,1182.4c0,0,2.4-21.2-4.3-30.9l-14.8,5.3v-3.2c0-1-0.7-1.9-1.7-1.9l-8.3-0.5       c-3.1-0.2-6.2,0.5-9,1.8c-9.9,4.9-32.7,17.4-32,29.5C2045.4,1182.6,2063.3,1187,2115.4,1182.4z"></path>						<path d="M2073.3,1186.2c-19.9,0-27.8-1.9-28.3-2c-0.7-0.2-1.2-0.8-1.2-1.5c-0.8-12.6,20.3-24.8,32.9-31c3.1-1.5,6.4-2.2,9.8-2       l8.3,0.5c1.8,0.1,3.2,1.7,3.2,3.5v0.9l12.6-4.5c0.7-0.2,1.5,0,1.9,0.6c6.9,10.1,4.6,31.1,4.5,32c-0.1,0.8-0.7,1.4-1.5,1.4       C2097.6,1185.6,2083.8,1186.2,2073.3,1186.2z M2047,1181.2c4.8,0.8,24.2,3.4,66.8-0.3c0.4-4.5,1.1-19.4-3.5-27.4l-13.6,4.8       c-0.5,0.2-1.1,0.1-1.5-0.2c-0.4-0.3-0.7-0.8-0.7-1.3v-3.2c0-0.2-0.1-0.3-0.1-0.3l-8.3-0.5c-2.8-0.2-5.6,0.4-8.2,1.7       C2070.9,1158.1,2048,1170.2,2047,1181.2z M2115.4,1182.4L2115.4,1182.4L2115.4,1182.4z"></path>					</g>					<path d="M2090.1,1179.6c-22.1,0-39.1-3.4-39.3-3.4c-0.9-0.2-1.5-1-1.3-1.9c0.2-0.9,1-1.5,1.9-1.3c0.3,0.1,29.2,5.8,60.6,2.1      c0.9-0.1,1.7,0.5,1.8,1.4c0.1,0.9-0.5,1.7-1.4,1.8C2104.7,1179.3,2097.1,1179.6,2090.1,1179.6z"></path>					<path d="M2072.5,1168.4c-0.5,0-1-0.2-1.3-0.7c-0.5-0.7-0.4-1.8,0.4-2.3l14.3-10.3c0.7-0.5,1.8-0.4,2.3,0.4      c0.5,0.7,0.4,1.8-0.4,2.3l-14.3,10.3C2073.1,1168.3,2072.8,1168.4,2072.5,1168.4z"></path>				</g>				<path class="st6" d="M2202.3,918c-0.9,0-1.6-0.7-1.6-1.6v-43.6l-17.4-10.2c-0.8-0.5-1-1.5-0.6-2.2c0.5-0.8,1.5-1,2.2-0.6     l18.2,10.6c0.5,0.3,0.8,0.8,0.8,1.4v44.6C2204,917.2,2203.2,918,2202.3,918z"></path>				<path class="st6" d="M2264.5,871.6c-0.3,0-0.6-0.1-0.9-0.3c-23.2-15.5-24.9-51.1-24.9-52.7c0-0.9,0.7-1.7,1.6-1.7     c0.9,0,1.7,0.7,1.7,1.6c0,0.4,1.7,35.5,23.5,50.1c0.8,0.5,1,1.5,0.4,2.3C2265.5,871.3,2265,871.6,2264.5,871.6z"></path>			</g>			<g>				<path class="st1" d="M2121.1,694.9c17.2-22.8,25.8-34.2,36.5-40.5c25.4-15.1,52.6-11.5,75.7-8.5c22.8,3,48.6,6.3,72.7,25.3     c3.1,2.5,54.1,43.9,43.9,104.7c-3.5,20.9-13.5,40-28.1,55.2c-9-13.1-20.2-21-26.8-24.9c0-0.1,0-0.1,0.1-0.2     c9.4-24,4.4-51.5-12.9-71.3c-0.2,24.7-0.4,49.4-0.7,74.1c-4.4,4.8-11.5,11.1-21.4,13.4c-22.6,5.3-37.1-15.1-64.6-17.1     c-10.3-0.7-25.1,0.9-43.8,12.3c3.4-22.7,6.7-45.4,10.1-68.1c-0.8,3.2-5.3,20.6-22,29.3c-3.3,1.7-16.6,8.6-29.5,2.8     c-14.6-6.6-17.7-24.6-18.1-26.8C2089.6,737.1,2100,722.8,2121.1,694.9z"></path>				<g>					<path class="st6" d="M2250.7,846.8c10.7-3.6,34.1-14.3,44.5-40.8c6.6,3.9,17.8,11.7,26.8,24.8c-15.3,16.1-35.7,27.9-59,33.2      C2257.6,859.2,2253.6,853.1,2250.7,846.8z"></path>					<path d="M2263.1,865.7c-0.4,0-0.8-0.1-1.1-0.4c-5.1-4.5-9.4-10.5-12.8-17.8c-0.2-0.4-0.2-0.9,0-1.3c0.2-0.4,0.5-0.8,1-0.9      c9.7-3.3,33.3-13.7,43.5-39.9c0.2-0.4,0.5-0.8,1-0.9s0.9-0.1,1.4,0.1c6.2,3.6,17.9,11.7,27.3,25.3c0.4,0.6,0.4,1.5-0.2,2.1      c-16,16.8-36.6,28.4-59.8,33.7C2263.3,865.7,2263.2,865.7,2263.1,865.7z M2253,847.7c2.9,5.9,6.4,10.7,10.6,14.5      c21.7-5.1,41.2-16,56.4-31.6c-8.1-11.4-17.9-18.6-23.9-22.3C2285.6,833,2263.7,843.8,2253,847.7z"></path>				</g>				<g>					<g>						<polygon class="st6" points="2123.4,784.2 2206.9,773.1 2179.1,668.1 2095.6,679.2       "></polygon>						<path d="M2123.4,785.9c-0.7,0-1.4-0.5-1.6-1.2l-27.8-105c-0.1-0.5,0-0.9,0.2-1.3c0.3-0.4,0.7-0.6,1.1-0.7l83.5-11.1       c0.8-0.1,1.6,0.4,1.8,1.2l27.8,105c0.1,0.5,0,0.9-0.2,1.3c-0.3,0.4-0.7,0.6-1.1,0.7l-83.5,11.1       C2123.5,785.8,2123.5,785.9,2123.4,785.9z M2097.6,680.6l27,101.8l80.3-10.7l-27-101.8L2097.6,680.6z"></path>					</g>					<g>						<polygon class="st7" points="2174.5,760.6 2192.7,758.2 2177.1,699.4 2158.9,701.9       "></polygon>						<polygon class="st7" points="2151.8,763.7 2170,761.2 2150.1,686.2 2131.9,688.7       "></polygon>						<polygon class="st7" points="2129,766.7 2147.2,764.3 2137.9,729.2 2119.7,731.6       "></polygon>					</g>					<g>						<path class="st8" d="M2183,736.7c-0.7,0-1.4-0.5-1.6-1.2l-9.5-35.8l-14.9,2l4,15c0.2,0.9-0.3,1.8-1.2,2       c-0.9,0.2-1.8-0.3-2-1.2l-4.5-16.8c-0.1-0.5,0-0.9,0.2-1.3c0.3-0.4,0.7-0.6,1.1-0.7l18.2-2.4c0.8-0.1,1.6,0.4,1.8,1.2       l9.9,37.2c0.2,0.9-0.3,1.8-1.2,2C2183.3,736.7,2183.1,736.7,2183,736.7z"></path>						<path class="st8" d="M2145.4,754.8c-0.7,0-1.4-0.5-1.6-1.2l-17.5-66.1c-0.1-0.5,0-0.9,0.2-1.3c0.3-0.4,0.7-0.6,1.1-0.7       l18.2-2.4c0.8-0.1,1.6,0.4,1.8,1.2l14.2,53.5c0.2,0.9-0.3,1.8-1.2,2c-0.9,0.2-1.8-0.3-2-1.2l-13.8-52.1l-14.9,2l17,64.3       c0.2,0.9-0.3,1.8-1.2,2C2145.7,754.8,2145.6,754.8,2145.4,754.8z"></path>						<path class="st8" d="M2141.6,758.1c-0.7,0-1.4-0.5-1.6-1.2l-7.3-27.4l-14.9,2l4.9,18.4c0.2,0.9-0.3,1.8-1.2,2       c-0.9,0.2-1.8-0.3-2-1.2l-5.4-20.2c-0.1-0.5,0-0.9,0.2-1.3c0.3-0.4,0.7-0.6,1.1-0.7l18.2-2.4c0.8-0.1,1.6,0.4,1.8,1.2       l7.6,28.8c0.2,0.9-0.3,1.8-1.2,2C2141.9,758.1,2141.7,758.1,2141.6,758.1z"></path>					</g>				</g>				<g>					<path class="st6" d="M2108.7,758.5c21.6-12.8,72.8-29.5,72.8-29.5c6.8-4.4,12.1-10.7,15.4-18.1l2.2-4.8c0,0,7.6-0.9,1.8,15.1      c1.7-0.3,0.9-0.6,2.1-0.2c6.1,2.1,3.4,7.8,3.4,7.8s2.9,5.7-0.1,8.8c0,0,1.6,12-10.1,12.6c0,0-54.7,32.3-68.7,34.7      C2113.5,787.3,2094.7,766.7,2108.7,758.5z"></path>					<path d="M2125.1,786.7c-9.4,0-19.2-7.9-22.1-15.8c-2.1-5.8-0.3-10.8,4.9-13.9c21.1-12.5,68.9-28.2,73-29.5      c6.4-4.3,11.5-10.2,14.7-17.2l2.2-4.8c0.2-0.5,0.7-0.9,1.3-1c1-0.1,3,0.2,4.4,1.9c1.9,2.5,1.9,6.7-0.1,13c0,0,0.1,0,0.1,0      c2.4,0.8,3.9,2.2,4.7,4c0.9,2.1,0.4,4.2,0,5.3c0.7,1.7,2.2,6.2-0.1,9.4c0.1,1.8,0,6.3-2.8,9.7c-2,2.4-4.8,3.7-8.5,4      c-5.1,3-55.2,32.3-68.9,34.7C2126.9,786.7,2126,786.7,2125.1,786.7z M2109.5,759.9c-4.8,2.9-4.5,7-3.5,10      c2.7,7.2,13,14.9,21.2,13.4c13.5-2.3,67.6-34.2,68.1-34.5c0.2-0.1,0.5-0.2,0.8-0.2c2.9-0.1,5.1-1.1,6.6-2.8      c2.6-3.1,2-7.9,2-7.9c-0.1-0.5,0.1-1,0.5-1.4c2.1-2.1-0.2-6.8-0.2-6.9c-0.2-0.5-0.2-1,0-1.4c0,0,0.8-1.9,0.2-3.4      c-0.4-0.9-1.3-1.6-2.7-2.1c0,0-0.1,0-0.1,0c-0.3,0.1-0.6,0.2-1.1,0.3c-0.6,0.1-1.2-0.1-1.6-0.5c-0.4-0.4-0.5-1.1-0.3-1.6      c3.1-8.5,2-11.4,1.4-12.2c-0.2-0.3-0.4-0.4-0.7-0.5l-1.6,3.7c-3.4,7.6-9,14.1-16,18.7c-0.1,0.1-0.3,0.1-0.4,0.2      C2179.9,731.2,2130.5,747.4,2109.5,759.9z M2108.7,758.5L2108.7,758.5L2108.7,758.5z"></path>				</g>			</g>			<g>				<path class="st10" d="M2243.1,601.1c0,0,4.4-10.8,6-12.8c1.6-2,2.9-4-2.4-7.3c-5.3-3.3-19.2-12.1-27.4-11.6     c-8.2,0.5-13.6,6.3-10.9,10.1c2.7,3.8,4,5.4,2,5.7c-1.9,0.4-2.9,2.7,2.8,5.7C2218.9,594,2238.9,607.4,2243.1,601.1z"></path>				<g>					<path class="st6" d="M2212.1,644.1l2-18.8c-10.2-4.4-6.6-11.6-5.4-17.2c1.3-6,5.5-19.2,5.5-19.2c8.4,4.3,24.3,2,24.3,2      s-2.1,3.8-0.7,5.5c1.4,1.7,1.4,5.7,1.4,5.7s2.7-2.8,5.9-1c1.8,1.1,0.1,6.1-1.2,8.9c-1.3,2.8-4.3,3.6-4.3,3.6s-1,2.7-1.9,5.2      l7.3,29.4l10.9,3.8l-35.1,6.8l-18.6-12.7L2212.1,644.1z"></path>					<path d="M2220.9,660.4c-0.3,0-0.6-0.1-0.9-0.3l-18.6-12.7c-0.5-0.4-0.8-1-0.7-1.7c0.1-0.6,0.6-1.1,1.3-1.3l8.6-1.8l1.8-16.5      c-8.9-4.4-7.1-11.2-5.8-16.3c0.2-0.8,0.4-1.5,0.6-2.3c1.3-6.1,5.3-18.8,5.5-19.4c0.1-0.5,0.5-0.8,0.9-1      c0.4-0.2,0.9-0.2,1.4,0.1c7.9,4.1,23.2,1.9,23.4,1.8c0.6-0.1,1.2,0.2,1.6,0.7c0.4,0.5,0.4,1.2,0.1,1.7      c-0.8,1.4-1.2,3.2-0.8,3.7c0.9,1,1.3,2.6,1.5,4c1.5-0.6,3.4-0.7,5.3,0.4c2.9,1.7,1.3,6.9-0.5,11c-1.1,2.5-3.3,3.7-4.5,4.2      c-0.3,0.9-0.9,2.4-1.4,4l7,28l10.1,3.5c0.7,0.2,1.1,0.9,1.1,1.7c-0.1,0.7-0.6,1.3-1.3,1.5l-35.1,6.8      C2221.1,660.4,2221,660.4,2220.9,660.4z M2206.4,646.9l14.9,10.1l28.5-5.5l-5.2-1.8c-0.5-0.2-0.9-0.6-1-1.1l-7.3-29.4      c-0.1-0.3-0.1-0.6,0-0.9c0.9-2.5,1.9-5.2,1.9-5.2c0.2-0.5,0.6-0.9,1.2-1c0,0,2.2-0.6,3.1-2.6c1.6-3.6,2-6.3,1.7-6.9      c-1.9-1.1-3.6,0.6-3.8,0.7c-0.5,0.5-1.2,0.6-1.8,0.4c-0.6-0.2-1-0.8-1-1.5c0-1.4-0.3-3.8-1.1-4.7c-1.1-1.3-1-3.1-0.6-4.6      c-4.6,0.4-14.1,0.9-20.8-1.7c-1.2,3.8-3.9,12.7-4.9,17.3c-0.2,0.8-0.4,1.6-0.6,2.4c-1.3,5.2-2.5,9.7,5.1,13      c0.7,0.3,1.1,1,1,1.7l-2,18.8c-0.1,0.7-0.6,1.3-1.3,1.4L2206.4,646.9z M2212.1,644.1L2212.1,644.1L2212.1,644.1z"></path>				</g>				<path d="M2222.4,628.5c-2.5,0-5.5-0.5-8.9-1.7c-0.9-0.3-1.3-1.2-1-2.1c0.3-0.9,1.2-1.3,2.1-1c14.4,5.1,18.4-4.4,18.6-4.8     c0.3-0.8,1.3-1.2,2.1-0.9c0.8,0.3,1.2,1.3,0.9,2.1C2236.2,620.2,2232.8,628.5,2222.4,628.5z"></path>			</g>		</g>		<g>			<g>				<path class="st6" d="M2110.7,450.7c-0.3,0-0.6-0.1-0.8-0.2c-89.1-50.6-182.5-46.4-183.5-46.4c-0.9,0-1.7-0.6-1.7-1.5     c0-0.9,0.6-1.7,1.5-1.7c0.9-0.1,95.2-4.3,185.2,46.8c0.8,0.4,1.1,1.4,0.6,2.2C2111.9,450.4,2111.3,450.7,2110.7,450.7z"></path>				<path class="st6" d="M2070.2,445.5c-0.2,0-0.4,0-0.6-0.1c-30.7-12.7-63.8-21.4-98.3-25.7c-0.9-0.1-1.5-0.9-1.4-1.8     c0.1-0.9,0.9-1.5,1.8-1.4c34.8,4.3,68.2,13,99.2,25.9c0.8,0.3,1.2,1.3,0.9,2.1C2071.5,445.1,2070.9,445.5,2070.2,445.5z"></path>			</g>			<g>				<path class="st6" d="M1890.1,491.2c-4.4,0-8-3.6-8-8c0-4.4,3.6-8,8-8c4.4,0,8,3.6,8,8C1898.1,487.6,1894.5,491.2,1890.1,491.2z      M1890.1,478.4c-2.6,0-4.8,2.1-4.8,4.8c0,2.6,2.1,4.8,4.8,4.8c2.6,0,4.8-2.1,4.8-4.8C1894.9,480.5,1892.7,478.4,1890.1,478.4z"></path>				<path class="st6" d="M1890.1,454.8c-6.1,0-11-4.9-11-11c0-6.1,4.9-11,11-11c6.1,0,11,4.9,11,11     C1901.1,449.9,1896.2,454.8,1890.1,454.8z M1890.1,436.1c-4.3,0-7.7,3.5-7.7,7.7c0,4.3,3.5,7.7,7.7,7.7s7.7-3.5,7.7-7.7     C1897.8,439.6,1894.4,436.1,1890.1,436.1z"></path>				<path class="st6" d="M1853.9,434.5c-0.3,0-0.7-0.1-0.9-0.3c-0.5-0.3-0.7-0.9-0.7-1.5l2-22.8c0.1-0.6,0.4-1.1,0.9-1.3     c0.5-0.2,1.2-0.2,1.6,0.1l18.7,13.1c0.5,0.3,0.7,0.9,0.7,1.5c-0.1,0.6-0.4,1.1-0.9,1.3l-20.7,9.7     C1854.3,434.5,1854.1,434.5,1853.9,434.5z M1857.2,413.1l-1.5,17.1l15.6-7.3L1857.2,413.1z"></path>			</g>			<path class="st6" d="M2346,973.3c-0.2,0-0.4,0-0.7-0.1c-0.8-0.4-1.2-1.3-0.8-2.2c0.3-0.6,28-64.3,21.7-162.4    c-0.1-0.9,0.6-1.7,1.5-1.7c0.9-0.1,1.7,0.6,1.7,1.5c6.3,99-21.7,163.3-22,164C2347.2,973,2346.6,973.3,2346,973.3z"></path>			<g>				<path class="st6" d="M1935.6,1275.3c-18.7,0-36-1.2-50.8-2.9c-46.4-5.2-79.1-15.7-79.5-15.8c-0.9-0.3-1.3-1.2-1-2.1     c0.3-0.9,1.2-1.3,2.1-1c0.3,0.1,32.8,10.5,78.9,15.7c42.5,4.8,105.7,5.9,165.3-15.7c0.8-0.3,1.8,0.1,2.1,1     c0.3,0.8-0.1,1.8-1,2.1C2012.2,1270.9,1971.2,1275.3,1935.6,1275.3z"></path>				<path class="st6" d="M1936.6,1260.5c-32.1,0-61.1-3.6-83.4-7.6c-0.9-0.2-1.5-1-1.3-1.9c0.2-0.9,1-1.5,1.9-1.3     c37.6,6.7,94.6,12.4,152.7,1.2c0.9-0.2,1.7,0.4,1.9,1.3c0.2,0.9-0.4,1.7-1.3,1.9C1983,1258.7,1959.1,1260.5,1936.6,1260.5z"></path>			</g>		</g>	</g></g><g id="Layer_3">	<linearGradient id="SVGID_1_" gradientUnits="userSpaceOnUse" x1="474.08" y1="468.3774" x2="-285.9857" y2="-453.2758">		<stop offset="0" style="stop-color:#121A24;stop-opacity:0"></stop>		<stop offset="0.5804" style="stop-color:#25272A;stop-opacity:0.5804"></stop>		<stop offset="1" style="stop-color:#2D2D2D"></stop>	</linearGradient>	<polygon class="st11" points="998.1,-1.1 -0.6,-1.1 -0.6,997.6  "></polygon>	<polygon class="st2" points="3313.3,3095.1 4312,3095.1 4312,2096.4  "></polygon></g></svg>