<svg xmlns="http://www.w3.org/2000/svg" id="Layer_5" data-name="Layer 5" viewBox="0 0 464 464"><defs><style> .cls-1 {        fill: #0d6efd;        stroke-width: 0px;      } </style></defs><path class="cls-1" d="m64,320h48v-192h32l-56-96-56,96h32v192Z"/><path class="cls-1" d="m280,80c0-26.47,21.53-48,48-48s48,21.53,48,48v48h32v-48c0-44.11-35.89-80-80-80s-80,35.89-80,80v48h32v-48Z"/><path class="cls-1" d="m344,352c10.42,0,19.22,6.71,22.53,16h37.47l14.3-19.06c3.54-4.71,8.35-8.14,13.7-10.34v-186.6c0-4.42-3.59-8-8-8h-191.99c-4.41,0-8,3.58-8,8v202.02c4.71-1.27,9.58-2.02,14.53-2.02h105.47Zm72-16h-16v-16h16v16Zm-16-184h16v16h-16v-16Zm-160,8h16v16h-16v-16Zm88,0c48.52,0,88,39.48,88,88s-39.48,88-88,88-88-39.48-88-88,39.48-88,88-88Zm-88,160h16v16h-16v-16Z"/><path class="cls-1" d="m328,320c39.7,0,72-32.3,72-72s-32.3-72-72-72-72,32.3-72,72,32.3,72,72,72Zm8-64h-16c-13.23,0-24-10.77-24-24v-24h24v-16h16v16c13.23,0,24,10.77,24,24h-16c0-4.42-3.59-8-8-8h-24v8c0,4.42,3.59,8,8,8h16c13.23,0,24,10.77,24,24v24h-24v16h-16v-16c-13.23,0-24-10.77-24-24h16c0,4.42,3.59,8,8,8h24v-8c0-4.42-3.59-8-8-8Z"/><path class="cls-1" d="m447.66,352h-3.5c-5.11,0-10,2.45-13.06,6.54l-31.1,41.46c-7.51,10.02-19.48,16-32,16h-39.78c-.08,0-.16.02-.24.02h-.02l-50.7-.02h-.02c-6.42,0-12.44,2.5-16.98,7.03l-6.62,6.62-11.31-11.31,6.62-6.62c7.55-7.55,17.6-11.72,28.28-11.72h34.75s0,0,0,0h16.22c6.33-.06,12.26-2.54,16.74-7.01,4.54-4.54,7.04-10.58,7.04-16.99,0-4.42-3.59-8-8-8h-105.47c-7.92,0-15.59,2.32-22.18,6.72l-13.92,9.28h-26.42v64h206.68c18.26,0,35.41-8.93,45.87-23.88l32.5-46.42c1.94-2.76,2.95-6,2.95-9.37,0-9-7.33-16.33-16.34-16.33h0Z"/><path class="cls-1" d="m144,384h-16v-16h-16v96h16v-64h16v64h16v-96h-16v16Z"/><path class="cls-1" d="m0,368h96v96H0v-96Z"/></svg>