<svg xmlns="http://www.w3.org/2000/svg" xmlns:xlink="http://www.w3.org/1999/xlink" id="Illustration" x="0px" y="0px" viewBox="0 0 2560 1677" style="enable-background:new 0 0 2560 1677;" xml:space="preserve"><style type="text/css">	.st0{fill:#172063;}	.st1{fill:url(#SVGID_1_);}	.st2{fill:#FFFFFF;}	.st3{fill:#005BB5;}	.st4{fill:#0067E2;}	.st5{fill:#005EBC;}	.st6{fill:#0058AF;}	.st7{fill:#2D2D2D;}	.st8{fill:#1F85FF;}	.st9{fill:#0D6EFD;}	.st10{fill:#0D77F7;}	.st11{display:none;}	.st12{display:inline;fill:#2D2D2D;}</style><rect x="-1.6" y="-1.1" class="st0" width="2563.1" height="1679.2"></rect><g>	<linearGradient id="SVGID_1_" gradientUnits="userSpaceOnUse" x1="1604.7615" y1="825.7336" x2="2348.4968" y2="825.7336">		<stop offset="0" style="stop-color:#0D77F7"></stop>		<stop offset="1" style="stop-color:#1F85FF"></stop>	</linearGradient>	<path class="st1" d="M2287.9,623.8c112.3,173.1,63.9,403.8-108,515.4s-402.3,61.6-514.6-111.5s-63.9-403.8,108-515.4  S2175.7,450.7,2287.9,623.8z"></path>	<path class="st2" d="M1979.7,1199.8c-26.5,0-53.1-2.8-79.6-8.6c-97.5-21.1-181.2-79-235.6-163c-54.5-84-73.2-184-52.7-281.6  c20.5-97.6,77.7-181.2,161.1-235.3c83.4-54.1,183-72.3,280.5-51.1c97.5,21.1,181.2,79,235.6,163c54.5,84,73.2,184,52.7,281.6  c-20.5,97.6-77.7,181.2-161.1,235.3C2119.8,1179.5,2050.5,1199.8,1979.7,1199.8z M1973.6,453.9c-70.4,0-139.3,20.2-199.7,59.4  c-171.1,111-219.5,341.5-107.7,513.8c71.5,110.2,191.4,170.3,313.3,170.3c68.7,0,138.1-19.1,199.8-59.1  c82.9-53.8,139.8-136.8,160.1-233.9c20.3-97.1,1.7-196.5-52.4-279.9c-54.1-83.5-137.3-141-234.2-162  C2026.4,456.7,1999.9,453.9,1973.6,453.9z"></path>	<g>		<path class="st2" d="M1815.3,629.8c-4.7,0-10.6-2.1-16.6-6.1c-6.2-4.1-12.8-14.8-19.3-25.2c-5.2-8.4-10.2-16.4-13.9-19.1   c-6.8-5-9.4-3.2-15.1,0.7c-0.8,0.6-1.7,1.2-2.7,1.8c-5.5,3.6-11.2,2.8-14.3,1.1c-1.8-1-2.9-2.4-2.8-3.7   c0.4-21.9,36.6-39.9,56-49.5c22.6-11.2,39.4-9.1,47.1,6c7.8,15.1-10.7,50.4-12.8,54.4c-2.2,4.1-0.2,10.5,1.7,16.6   c1.7,5.4,3.5,11.1,2.5,15.6c-0.7,3.2-2.5,5.5-5.2,6.7C1818.5,629.5,1817,629.8,1815.3,629.8z M1758.4,574.1c2.4,0,5,1,8.4,3.5   c4.1,3,9.1,11.1,14.5,19.7c6,9.7,12.9,20.7,18.6,24.5c7.4,4.9,14.7,6.9,19,5.1c2.1-0.8,3.4-2.6,3.9-5.1c0.8-4-0.8-9.3-2.4-14.5   c-2.1-6.6-4.2-13.4-1.5-18.3c7.5-14,18.7-40.9,12.8-52.4c-7.3-14.1-22.5-15.8-44.2-5c-19,9.4-54.3,27-54.7,47.6c0,0,0,0,0,0   c0,0.3,0.5,1,1.7,1.7c2.8,1.6,7.6,1.9,12-1c0.9-0.6,1.8-1.2,2.6-1.7C1752.5,575.9,1755.1,574.1,1758.4,574.1z M1731.7,579.2   L1731.7,579.2L1731.7,579.2z"></path>		<path class="st2" d="M2053.7,1172.5c-1.2,0-2.3-0.1-3.4-0.3c-10.4-1.7-39-19.1-54.1-30.3c-11.9-8.9-37.9-43.9-55.1-67.1   c-5.2-7-9.6-13-12.3-16.4c-9.3-11.8-15.7-10.4-32.7-6.7c-2.7,0.6-5.8,1.3-9.2,1.9c-24.6,4.9-31.2-1.4-41.4-17.9   c-0.9-1.5-2.3-3.3-3.9-5.5c-6.9-9.2-17.3-23-13.2-38.5c3.7-13.8-8.5-42.8-16-53.4c-2.6-3.7-2.7-8.6-0.3-12.7   c4.8-8.2,14.8-19,35.4-24.2c8.6-2.2,14.3-0.3,19.8,1.4c4.6,1.5,9.4,3,16.1,2.3c4.7-0.5,9.8-2.2,14.7-3.9   c10.3-3.5,20.9-7.1,24.7,3.3c4.7,13,26.8,15.4,53.9,5.8c15.9-5.7,32-3.2,39.2,6c4.6,5.9,4.5,13.6-0.5,21   c-12.4,18.6-8.6,23.8-0.8,31.5c2.9,2.9,6.6,5.5,10.1,8c6.6,4.7,12.3,8.8,11.5,13.4c-1.1,6.6-11.1,18.4-15.7,23.2   c-4.4,4.5-6.7,14.5-1.2,25.8c5.7,11.9,6.2,51.8,3.4,70.6c-2.4,16.8,7.4,23.4,27.1,36.6c1.6,1.1,3.3,2.2,5,3.4   c9.6,6.5,13.5,12.1,11.7,16.7C2065,1170.5,2059.2,1172.5,2053.7,1172.5z M1912.6,1046.9c6.8,0,12,2.5,18,10.1   c2.7,3.4,7,9.2,12.3,16.4c17.1,23.1,42.9,57.9,54.6,66.6c14.9,11.1,43,28.3,53.1,29.9c5.4,0.9,12.4-0.7,13.8-4.3   c1.4-3.4-2.5-8.4-10.9-14.1c-1.7-1.2-3.4-2.3-5-3.4c-19.8-13.3-30.7-20.6-28.1-38.7c2.7-18.5,2.3-57.7-3.2-69.3   c-5.9-12.4-3.4-23.1,1.7-28.3c5.5-5.7,14.1-16.6,15.1-22c0.6-3.2-4.9-7.1-10.6-11.2c-3.6-2.6-7.3-5.3-10.4-8.3   c-9.2-9-12.1-15.3,0.5-34.3c4.4-6.6,4.6-13.2,0.6-18.4c-5.4-6.9-19.2-11.5-36.7-5.3c-28.7,10.2-51.5,7.3-56.7-7.2   c-2.9-8-10.2-5.9-21.9-2c-5,1.7-10.2,3.5-15.2,4c-7.1,0.8-12.1-0.8-17-2.4c-5.5-1.7-10.7-3.4-18.6-1.4c-19.8,5-29.4,15.4-34,23.2   c-2,3.4-1.9,7.4,0.2,10.3c8,11.2,20.3,40.6,16.4,55.2c-3.9,14.4,6.2,27.8,12.8,36.6c1.6,2.2,3,4,4,5.6   c9.8,15.9,15.7,21.5,39.1,16.9c3.3-0.7,6.4-1.3,9.2-1.9C1902.6,1048.1,1908,1046.9,1912.6,1046.9z"></path>		<path class="st2" d="M2233,932.6c-1,0-2-0.2-3.1-0.5c-14.9-4.3-41.1-40-40.6-67.6c0.5-31.2-20.2-41.9-29.2-45   c-6.9-2.4-21.3-23.3-32.1-40.3l-0.6-1c-0.1-0.2-0.3-0.6-0.5-1c-1.5-2.8-4.9-9.4-12.8-10.8c-9.8-1.8-23.1,4.9-39.3,19.8   c-14.1,12.9-27.3,18.1-39.2,15.5c-13.3-2.9-24.5-15.2-33.4-36.4c-4.3-10.2-10.5-16.6-16.1-22.2c-3.3-3.3-6.3-6.5-8.6-10   c-7.1-10.9,1.8-29.5,10.5-43.1c5.2-8.2,7.9-15.7,10.4-22.9c2.4-6.7,4.6-13,8.7-18.9c5.9-8.6,12.9-5.1,19.7-1.7   c3.7,1.9,7.5,3.8,11.7,4.3c4.7,0.6,6-1.6,8.1-4.9c2.8-4.5,6.3-10.1,19.6-10.3c15.7-0.2,26.4-11.4,28.7-18.9c0.6-2,1.2-5.6-1.5-7.5   c-3.4-2.4-7-1.6-11.2-0.7c-5.4,1.2-11.6,2.5-19.1-2.4c-8.3-5.5-5.4-14.2-2.6-22.6c1.9-5.6,3.8-11.4,2.1-15.8   c-1.7-4.4-6.8-8.2-13.9-10.5c-7.2-2.3-15-2.4-18.2-0.4c-2,1.3,0,5.4,2.2,10.2c3.5,7.5,8.3,17.7,1.9,25.9c-5.6,7.3-15.2,8-24.4,8.7   c-8.3,0.6-16.9,1.2-22.4,6.6c-6.3,6-7.2,18.6-8.2,31.9c-0.9,11.6-1.7,23.6-6.3,32.4c-3.3,6.3-8.3,8.7-13.7,6.6   c-8.8-3.5-16.7-18-13.4-30c4.1-14.9-3.9-26.3-8.2-32.4c-0.6-0.8-1.1-1.5-1.5-2.1c-1.1-1.7-3.5-6.4-1.9-12.5   c1.8-6.9,7.9-13,18.2-18.4c8.3-4.3,13.5-9.3,15.1-14.5c1.2-4.2-0.3-7.1-0.3-7.1c-9.7-20.9-16.4-25.5-20.3-25.7   c-2.9-0.1-4.8,2.2-6,4.1c-0.4,0.8-0.2,5.5,0,9.6c0.6,12,1.3,28.5-5.9,31.4c-5,2-12.5-3.2-23-15.7c-15.1-18-20.9-31.9-17.2-41.2   c3.2-8.2,12.3-9.7,13.3-9.8c16.2-3.9,26.3-10.7,30.1-20.4c5.5-13.9-3.6-29.9-7.8-36.2c-0.2-0.3-0.2-0.7-0.1-1.1   c0.2-0.3,0.5-0.6,0.9-0.6c53.6-6.6,109.2-1.2,160.9,15.6c52.2,16.9,100.9,45.7,140.8,83.2c0.1,0.1,0.2,0.2,0.3,0.4   c4.2,10.1,8.7,25,6.9,38.3c-1.6,11.2,3.9,17.5,8.7,23c3.5,4.1,6.9,8,6.1,12.9c-0.2,1.5-0.3,3.3-0.3,5.1c-0.1,4.3-0.1,8.8-3.2,10.1   c-3.6,1.4-11.2-1.1-40.2-31.1c-37.1-38.3-58.3-28.3-65.7-22.2c-0.5,0.4-0.4,0.9-0.3,1.1c0.1,0.2,0.3,0.6,0.8,0.7   c7.7,0.6,21.6,2.8,28.9,11.3c3.5,4.1,5.1,9.1,4.6,15c-1.7,22.4,3.7,37.5,15.4,42.6c11.5,5,16.5,11,20.8,24.6   c1.6,5,0.9,11.7,0.3,18.8c-1.3,13.7-2.7,29.1,11,36.5c22.8,12.2,35.9,86.9,27.4,111.1c-3.9,11.3-5.4,24.7-6.8,37.7   c-1.6,15-3.2,29.2-8.5,37.9C2237.9,931.4,2235.7,932.6,2233,932.6z M2110.9,763.8c1.2,0,2.4,0.1,3.5,0.3c9.1,1.6,13,9.2,14.4,12   c0.2,0.4,0.3,0.6,0.4,0.8l0.6,1c14.8,23.4,26.1,37.7,31,39.4c9.4,3.3,31.2,14.5,30.7,47.2c-0.4,26.2,25.1,61.4,39,65.4   c3.2,0.9,5.4,0.2,6.9-2.2c5-8.2,6.6-22.2,8.2-36.9c1.4-13.1,2.9-26.7,7-38.2c4-11.5,3.2-35.3-2.1-59.2   c-5.7-25.8-14.8-44.2-24.2-49.3c-15-8-13.5-24.3-12.1-38.7c0.7-6.9,1.3-13.4-0.2-18c-4.6-14.5-10-19-19.6-23.2   c-7.3-3.2-19.2-13.2-16.7-44.8c0.4-5.3-1-9.8-4.1-13.4c-6.8-7.9-20.1-10-27.4-10.5c-1.3-0.1-2.4-0.9-2.8-2.2c-0.4-1.3,0-2.6,1-3.5   c7.9-6.5,30.3-17.3,68.7,22.4c21.2,21.9,33.9,32.2,37.8,30.6c1.7-0.7,1.8-4.6,1.8-8c0-1.9,0-3.8,0.3-5.4c0.6-3.9-2.1-7.1-5.6-11.1   c-4.9-5.6-10.9-12.6-9.2-24.8c1.8-12.7-2.6-27.1-6.7-37c-80.4-75.3-188.9-111.1-298-98.2c4.6,7.4,12.5,22.9,7,36.7   c-4.1,10.4-14.7,17.7-31.7,21.7c0,0-0.1,0-0.1,0c-0.1,0-8.8,1.3-11.6,8.5c-2.3,5.9-1.2,17.4,16.8,39c12,14.3,17.7,16.1,20.5,15   c5.8-2.2,5-19.1,4.5-29.2c-0.3-6.4-0.4-9.6,0.3-10.8c2.1-3.5,4.9-5.4,8-5.2c6.5,0.3,14,9.4,22.1,26.9c0,0.1,2,3.6,0.5,8.7   c-1.7,5.9-7.2,11.2-16.2,15.9c-9.7,5-15.5,10.7-17.1,17c-1.4,5.3,0.7,9.3,1.6,10.7c0.4,0.6,0.9,1.3,1.4,2.1   c4.5,6.4,12.9,18.4,8.5,34.3c-3,10.8,4.3,24.3,12.1,27.4c4.4,1.7,8.2-0.2,11-5.5c4.3-8.4,5.2-20.1,6-31.5c1-13.8,2-26.8,8.9-33.4   c6.2-5.9,15.1-6.6,23.8-7.2c9.2-0.7,17.8-1.3,22.8-7.8c5.5-7.2,1.3-16.3-2.2-23.7c-2.7-5.7-5-10.7-1.4-13   c3.8-2.5,12.1-2.4,20.1,0.1c7.8,2.5,13.3,6.7,15.3,11.7c2,5.1,0,11.3-2,17.3c-2.7,8-5.2,15.6,1.7,20.1c6.8,4.5,12.2,3.3,17.5,2.1   c4.4-1,8.6-1.9,12.9,1c2.9,2,3.7,5.6,2.4,10c-2.9,9.7-15.5,20.3-30.8,20.5c-12.1,0.2-15.1,5-17.8,9.3c-2.1,3.4-4.2,6.7-10.2,5.9   c-4.5-0.6-8.7-2.7-12.4-4.5c-7-3.5-12.1-6.1-16.9,0.9c-3.9,5.7-6.1,11.9-8.4,18.4c-2.5,7-5.3,14.9-10.6,23.4   c-11.8,18.6-15.5,33-10.5,40.8c2.2,3.3,5.2,6.4,8.3,9.6c5.7,5.8,12.1,12.3,16.5,22.9c8.6,20.6,19.3,32.4,31.8,35.1   c11.2,2.5,23.7-2.6,37.2-15C2088.2,770.8,2100.8,763.8,2110.9,763.8z"></path>		<path class="st2" d="M1781.9,958.8c-9.1,0-33.3-6.7-59.2-18.2c-18.6-8.3-51.6-25.4-63.4-46.3c-1.6-2.8-3.1-5.5-4.6-8   c-17.2-30.1-27.6-48.3-28.2-93c-0.2-12.4-5.6-26.4-16.2-41.9c-0.2-0.3-0.2-0.6-0.2-0.9c5.2-21.7,12.3-43.3,21.2-64.2   c0.1-0.3,0.3-0.5,0.6-0.6l0.9-0.3c12.7-5,36.4-14.2,53.5-36.9c11.5-15.2,17.7-24.8,21.8-31.2c5.5-8.5,7.4-11.4,12.9-13.9   c10.1-4.6,22.2-2.7,25.4,3.9c4.9,10.1-2.3,21.6-21.7,34.1c-11.5,7.5-18,20.1-17.2,33.8c0.5,8.6,4,16,8.7,18.4   c4.7,2.4,7.7,2.9,10.4,2c4.6-1.6,8.9-8.2,16-24c12.9-29.1,31.6-23.1,35.2-21.6c5.2,2.2,6.5,11.2,7.8,20.9   c0.6,4.3,1.2,8.7,2.2,12.6c1.7,6.8,5.1,12,7.9,16.2c2.2,3.4,4,6.1,4.2,8.6c0.3,3.7-3.6,8.9-8.8,16.2c-2.9,3.9-6.1,8.3-9.2,13.3   c-9.5,15-15.7,25.9-14.2,41.1c0.9,9.8-3.2,18.7-6.6,25.8c-2.2,4.7-4.1,8.8-3.8,11.6c0.3,2.5,2.3,6.2,4.5,10   c4.2,7.6,9,16.2,5.5,22.8c-4.6,8.6-22.1,11.9-31.3,9.8c-4.1-0.9-8.2,0.1-10.9,2.8c-2.2,2.2-3.2,5.3-2.5,8.1   c2,8.6,9.7,16.9,22.9,24.7c18.5,10.9,31.5,22,38.6,33c8.1,12.5,10.9,21.1,8.3,26.3c-1.5,3-4.6,4.7-9.3,5.1   C1782.7,958.8,1782.3,958.8,1781.9,958.8z M1612.5,750.5c10.6,15.6,16.1,30,16.3,42.7c0.6,44.2,10.3,61.2,27.9,92   c1.5,2.6,3,5.3,4.6,8.1c20.4,36,107,64.5,121.7,63.3c3.9-0.3,6.4-1.6,7.5-3.8c2.1-4.3-0.6-12.4-8.2-24.1   c-7-10.7-19.7-21.6-37.9-32.3c-13.8-8.1-21.8-16.9-23.9-26.1c-0.8-3.6,0.4-7.4,3.1-10.2c3.3-3.3,8.1-4.5,13-3.4   c9.4,2.1,25.1-1.7,28.8-8.7c3-5.6-1.5-13.6-5.4-20.7c-2.4-4.3-4.4-7.9-4.8-10.9c-0.4-3.4,1.6-7.7,4-12.8   c3.2-6.9,7.3-15.4,6.4-24.6c-1.6-17.1,6.6-30,14.6-42.5c3.2-5,6.4-9.5,9.3-13.4c4.8-6.6,8.6-11.8,8.4-14.7c-0.1-2-1.8-4.4-3.8-7.6   c-2.8-4.3-6.4-9.7-8.2-16.9c-1-4-1.6-8.5-2.2-12.8c-1.2-8.6-2.4-17.4-6.5-19.1c-3.3-1.4-20.3-6.8-32.4,20.5   c-7.4,16.7-11.9,23.3-17.2,25.2c-4.1,1.5-8.4-0.2-12.1-2.1c-5.5-2.8-9.4-10.7-9.9-20.3c-0.8-14.5,6-27.8,18.2-35.8   c18.2-11.8,25.2-22.4,20.9-31.3c-2.6-5.4-13.8-6.8-22.5-2.9c-4.9,2.2-6.5,4.7-11.9,13.1c-4.1,6.4-10.4,16.1-21.9,31.3   c-17.5,23.2-41.5,32.6-54.5,37.7l-0.5,0.2C1624.6,708,1617.6,729.2,1612.5,750.5z"></path>		<path class="st2" d="M2339.3,911.3c-0.3,0-0.6-0.1-0.8-0.3c-6.2-6-12.1-15.1-16.8-22.4l-1.4-2.2c-8.3-12.7-0.5-28.7,4.1-38.2   c5-10.2,8.5-31.8,0.3-45.5c-7.4-12.3-4.4-21.7-1.7-29.9c0.6-1.8,1.1-3.6,1.6-5.3c2.5-9.8-5.1-26.5-13.6-36.4   c-9.6-11.2-8.8-16.5-3.6-23c2.2-2.7,1.2-6.8,0.4-10.4c-0.9-3.8-1.8-7.7,1.8-9c1.2-0.5,4.4-1.6,18.5,14c0.1,0.1,0.2,0.2,0.2,0.4   c23.5,66.6,27.7,138.2,12.1,207.3c-0.1,0.4-0.4,0.7-0.8,0.8C2339.5,911.2,2339.4,911.3,2339.3,911.3z M2310.3,690.8   c-1.6,0.6-1.3,2.4-0.4,6.5c0.9,3.9,2,8.7-0.9,12.3c-4.6,5.8-5.1,10,3.6,20.2c9,10.5,16.8,27.8,14.1,38.4c-0.5,1.8-1.1,3.7-1.6,5.4   c-2.6,8.2-5.3,16.6,1.5,28.1c8.6,14.4,5,36.9-0.2,47.6c-4.4,9.1-11.8,24.3-4.2,36l1.4,2.2c4.3,6.7,9.6,14.8,15.1,20.6   c14.9-67.9,10.7-138.4-12.4-203.9C2313.9,690.4,2310.8,690.6,2310.3,690.8z"></path>	</g>	<g>		<path class="st3" d="M2218.2,653.9c0,22.3-35.6,76-44.1,88.6c-0.9,1.3-2.8,1.3-3.6,0c-6.1-9-26.1-39.1-37-63.6   c-4.3-9.7-7.2-18.6-7.2-25c0-25.4,20.6-46,46-46C2197.6,607.9,2218.2,628.5,2218.2,653.9z"></path>		<circle class="st2" cx="2172.2" cy="653.9" r="21"></circle>	</g>	<g>		<path class="st3" d="M1794.7,846.1c0,22.3-35.6,76-44.1,88.6c-0.9,1.3-2.8,1.3-3.6,0c-6.1-9-26.1-39.1-37-63.6   c-4.3-9.7-7.2-18.6-7.2-25c0-25.4,20.6-46,46-46C1774.2,800.1,1794.7,820.7,1794.7,846.1z"></path>		<circle class="st2" cx="1748.8" cy="846.1" r="21"></circle>	</g>	<g>		<path class="st4" d="M2211.9,449.3c0,0,0.1,0,0.1,0c0.9-0.1-18.1,2.3-18.1,2.3c-8.4,1.1-27.4,8.9-26.6,15.4   c0.8,6.5,21.2,9.4,29.6,8.3c0,0,17.4-2,17.8-2.1c4.1-0.5,6.8-6.3,6-12.9C2220,453.8,2216,448.9,2211.9,449.3z"></path>					<ellipse transform="matrix(0.9921 -0.1255 0.1255 0.9921 -40.3821 281.4576)" class="st2" cx="2213.6" cy="461.2" rx="7.3" ry="12.1"></ellipse>		<path class="st2" d="M2193.3,476.6c-9.4,0-26.1-2.7-27-9.5c-0.2-1.4,0.3-2.9,1.5-4.4c0.3-0.4,0.9-0.5,1.4-0.3   c8.1,4,18.4,5.7,23.7,5l14.4-1.8c0.5-0.1,1,0.2,1.2,0.7c1.3,3.2,3.4,5.5,5.4,5.8c0.5,0.1,0.9,0.6,0.9,1.1c0,0.6-0.4,1-1,1.1   l-16.8,2.1C2196.1,476.5,2194.8,476.6,2193.3,476.6z M2169.1,464.8c-0.4,0.7-0.6,1.4-0.5,2c0.7,5.4,19.8,8.4,28.3,7.4l13.2-1.7   c-1.3-1.1-2.4-2.7-3.3-4.6l-13.5,1.7C2187.8,470.3,2177.4,468.7,2169.1,464.8z"></path>		<path class="st2" d="M2193.3,476.6c-9.4,0-26.1-2.7-27-9.5c-0.5-4.3,5.4-8.3,10.4-10.9c5.5-2.8,12.6-5.2,17.1-5.8l17.3-2.2   c0.2,0,0.4,0,0.5-0.1c0,0,0,0,0.1,0c0,0,0.1,0,0.1,0l0,0c4.7-0.4,9.1,4.8,10,12c0.9,7.3-2.1,13.5-6.9,14.2   c-0.5,0.1-17.2,2-17.9,2.1C2196.1,476.5,2194.8,476.6,2193.3,476.6z M2212,450.4c-2.2,0.3-17.8,2.2-17.8,2.2   c-4.3,0.5-11,2.8-16.4,5.5c-6.1,3.1-9.5,6.3-9.2,8.6c0.7,5.4,19.8,8.4,28.3,7.4c6-0.7,17.5-2,17.8-2.1c3.5-0.4,5.7-5.8,5-11.7   C2219,454.5,2215.5,450,2212,450.4C2212,450.4,2212,450.4,2212,450.4z"></path>	</g>	<g>		<path class="st4" d="M2205.7,491.7l-59.4-96l-10,2.2c0,0,14.6,71.2,15.3,80.6c0.7,9.4-2,25.6-2,25.6L2205.7,491.7z"></path>		<path class="st2" d="M2166.6,496.6c-0.3,0-0.5-0.1-0.7-0.3c-0.3-0.2-0.4-0.6-0.4-0.9c0-0.2,1.2-16.3-0.3-25.4   c-1.3-7.7-19.9-57.6-25.6-72.7c-0.1-0.3-0.1-0.6,0.1-0.9c0.2-0.3,0.4-0.5,0.7-0.6l5.7-1.3c0.5-0.1,0.9,0.1,1.2,0.5l56.9,91.9   c0.2,0.3,0.2,0.7,0.1,1c-0.1,0.3-0.4,0.6-0.8,0.7l-36.6,8C2166.8,496.6,2166.7,496.6,2166.6,496.6z M2142.1,397.8   c7.5,20,24,64.3,25.3,71.9c1.3,7.8,0.7,20.2,0.5,24.5l33.6-7.3l-55.6-89.8L2142.1,397.8z"></path>		<path class="st2" d="M2149.5,505.2c-0.3,0-0.6-0.1-0.8-0.3c-0.3-0.3-0.4-0.6-0.3-1c0-0.2,2.7-16.1,2-25.3   c-0.7-9.3-15.1-79.7-15.3-80.5c-0.1-0.6,0.3-1.2,0.8-1.3l10-2.2c0.5-0.1,0.9,0.1,1.2,0.5l59.4,96c0.2,0.3,0.2,0.7,0.1,1   c-0.1,0.3-0.4,0.6-0.8,0.7l-56.2,12.4C2149.7,505.2,2149.6,505.2,2149.5,505.2z M2137.6,398.8c1.9,9.3,14.4,70.8,15.1,79.7   c0.6,7.8-1.1,19.9-1.8,24.2l53.1-11.7l-58.2-94L2137.6,398.8z"></path>	</g>	<path class="st2" d="M2096.5,539.7c-6.5,0-13-0.2-19.5-0.6l-73.2-4.9c-0.5,0-0.9-0.4-1-0.9l-1.4-8.5c-0.1-0.5,0.2-1.1,0.7-1.2  l9.9-3.3l-57.4-42.6c-0.4-0.3-0.5-0.7-0.4-1.2c0.1-0.4,0.5-0.8,0.9-0.8l20-3.3c0.2,0,0.4,0,0.6,0.1l78.6,32.6l232.7-33.4  c0.8-0.2,21.3-4.2,36.7,8.2c2,0.9,13.7,6.3,13.7,11.9c0,5.8-3.5,14.2-33.2,20c-20.8,4.1-113.1,17.5-166.2,25.1  C2124.3,538.7,2110.4,539.7,2096.5,539.7z M2004.9,532l72.3,4.8c20.2,1.4,40.5,0.6,60.6-2.3c53.1-7.6,145.3-21,166.1-25.1  c31.4-6.2,31.4-14.9,31.4-17.8c0-3.3-7.7-7.8-12.5-9.9c-0.1,0-0.2-0.1-0.3-0.2c-14.6-11.9-34.8-7.9-35-7.8l-233.1,33.5  c-0.2,0-0.4,0-0.6-0.1l-78.6-32.6l-17.1,2.8l57,42.3c0.3,0.2,0.5,0.7,0.4,1.1c-0.1,0.4-0.3,0.7-0.7,0.9l-11,3.7L2004.9,532z"></path>	<g>		<polygon class="st4" points="2015.7,519 2032,480.5 2041.1,478.7 2043.1,513   "></polygon>		<path class="st2" d="M2015.7,520.1c-0.3,0-0.6-0.1-0.9-0.4c-0.3-0.3-0.3-0.8-0.2-1.1l16.3-38.5c0.1-0.3,0.4-0.6,0.8-0.7l9.1-1.8   c0.3-0.1,0.6,0,0.9,0.2c0.3,0.2,0.4,0.5,0.4,0.8l2,34.3c0,0.5-0.3,1-0.9,1.1l-27.4,6C2015.8,520.1,2015.8,520.1,2015.7,520.1z    M2032.8,481.5l-15.3,36l24.4-5.3l-1.9-32.1L2032.8,481.5z"></path>	</g>	<g>		<path class="st4" d="M2155.5,547.7c0,0,0.1,0,0.1,0c0.9,0-18.2,0.9-18.2,0.9c-8.5,0.4-28,6.8-27.6,13.4c0.3,6.6,20.4,11,28.8,10.5   c0,0,17.5-0.7,18-0.7c4.2-0.2,7.3-5.8,6.9-12.4C2163.2,552.8,2159.6,547.6,2155.5,547.7z"></path>					<ellipse transform="matrix(0.9987 -5.013511e-02 5.013511e-02 0.9987 -25.3523 108.8064)" class="st2" cx="2156.2" cy="559.8" rx="7.3" ry="12.1"></ellipse>		<path class="st2" d="M2137.7,573.7c-8.3,0-28.6-4-29-11.6c-0.1-1.4,0.5-2.9,1.8-4.3c0.4-0.4,0.9-0.5,1.4-0.2   c7.8,4.6,17.9,7,23.3,6.8l14.5-0.7c0.5,0,1,0.3,1.1,0.8c1,3.3,2.9,5.7,5,6.2c0.5,0.1,0.9,0.6,0.8,1.2c-0.1,0.5-0.5,1-1,1   l-16.9,0.8C2138.4,573.6,2138,573.7,2137.7,573.7z M2111.6,560c-0.5,0.7-0.7,1.4-0.7,2c0.3,5.4,19.1,9.9,27.7,9.5l13.3-0.7   c-1.2-1.2-2.2-2.9-2.9-4.9l-13.6,0.7C2129.8,566.8,2119.6,564.4,2111.6,560z"></path>		<path class="st2" d="M2137.6,573.7c-8.3,0-28.6-4-28.9-11.6c-0.2-4.4,6-7.9,11.2-10.1c5.7-2.4,12.9-4.2,17.5-4.5l17.4-0.9   c0.2,0,0.4,0,0.5,0c0,0,0,0,0.1,0c0,0,0.1,0,0.1,0l0,0c4.7-0.1,8.7,5.5,9.1,12.7c0.2,3.4-0.5,6.7-1.9,9.2   c-1.5,2.7-3.7,4.2-6.1,4.4c-0.5,0-17.3,0.7-18,0.7C2138.4,573.6,2138,573.7,2137.6,573.7z M2155.5,548.8   c-2.2,0.1-17.9,0.9-17.9,0.9c-4.3,0.2-11.2,2-16.7,4.3c-6.3,2.6-10,5.6-9.8,7.9c0.3,5.4,19.1,9.9,27.7,9.5   c6.1-0.2,17.6-0.7,18-0.7c1.6-0.1,3.1-1.2,4.2-3.2c1.2-2.2,1.8-5,1.6-8C2162.1,553.5,2159,548.8,2155.5,548.8   C2155.5,548.8,2155.5,548.8,2155.5,548.8z"></path>	</g>	<g>		<path class="st4" d="M2054.1,504.6l233.2-32c0,0,19-3.9,33.9,6.5c1.4,1,14.5,7.1,15.2,12.5c0.7,5.2-3.5,13.3-32.3,18.9   c-21.1,4.1-116.4,18-166.1,25.1c-20.1,2.9-40.5,3.7-60.8,2.3l-73.2-4.9l-1.4-8.5l11.9-4l-59.1-43.9l20-3.3L2054.1,504.6z"></path>		<path class="st2" d="M2014.6,521.3c-0.2,0-0.5-0.1-0.7-0.2l-59.3-43.6c-0.4-0.3-0.5-0.7-0.4-1.2c0.1-0.4,0.5-0.8,0.9-0.8l11.5-1.9   c0.2,0,0.5,0,0.7,0.1l85.7,40.8c0.4,0.2,0.7,0.7,0.6,1.2c-0.1,0.5-0.5,0.9-1,0.9l-37.9,4.6   C2014.7,521.3,2014.6,521.3,2014.6,521.3z M1958.1,477.3l56.8,41.8l33.7-4.1l-82-39.1L1958.1,477.3z"></path>		<path class="st2" d="M2096.5,539.7c-6.5,0-13-0.2-19.5-0.6l-73.2-4.9c-0.5,0-0.9-0.4-1-0.9l-1-6.3c-0.1-0.3,0-0.7,0.3-0.9   c0.2-0.3,0.6-0.4,0.9-0.4c11.6,0.8,118.8,6.6,310.3-30.8c10.9-2.1,13.6-4.8,14.2-5.8c0.3-0.4,0.3-0.8,0.3-1.1   c-0.8-3.1-5.3-6.6-7.1-7.8c-0.1,0-0.1-0.1-0.2-0.1c-0.5-0.3-0.6-1-0.3-1.5c0.3-0.5,1-0.6,1.5-0.3c0,0,0.1,0,0.1,0.1   c0.3,0.2,0.8,0.5,1.5,0.8c6.6,3.6,13.5,7.9,14.1,12.4c0.8,6.1-4.2,14.5-33.2,20.2c-20.8,4.1-113.1,17.5-166.2,25.1   C2124.3,538.7,2110.4,539.7,2096.5,539.7z M2004.9,532l72.3,4.8c20.2,1.4,40.5,0.6,60.6-2.3c53.1-7.6,145.3-21,166.1-25.1   c28.7-5.6,32-13.5,31.4-17.7c-0.3-2.2-3.3-4.8-6.5-6.9c0.5,0.8,0.9,1.6,1.1,2.5c0.2,0.6,0.2,1.7-0.5,2.8   c-1.7,2.8-7.2,5.1-15.7,6.8c-185.6,36.3-292.3,32-309.4,30.9L2004.9,532z"></path>		<path class="st2" d="M2312.4,474.7c-2.6-0.8-6.4-2-8.8-2.3c3.5,2.8,5.2,5.6,4,7.3c-2.3,3.3-15.7,4.5-15.7,4.5l2.8,6.9   c11.9-1.8,21.8-4.7,22.1-8.5C2317,479.3,2315.1,476.9,2312.4,474.7z"></path>		<path class="st2" d="M2096.5,539.7c-6.5,0-13-0.2-19.5-0.6l-73.2-4.9c-0.5,0-0.9-0.4-1-0.9l-1.4-8.5c-0.1-0.5,0.2-1.1,0.7-1.2   l9.9-3.3l-57.4-42.6c-0.4-0.3-0.5-0.7-0.4-1.2c0.1-0.4,0.5-0.8,0.9-0.8l20-3.3c0.2,0,0.4,0,0.6,0.1l78.5,31.2l232.9-32   c0.7-0.2,19.5-3.9,34.7,6.7c0.2,0.1,0.8,0.5,1.6,0.9c6.6,3.6,13.5,7.9,14.1,12.4c0.8,6.1-4.2,14.5-33.2,20.2   c-20.8,4.1-113.1,17.5-166.2,25.1C2124.3,538.7,2110.4,539.7,2096.5,539.7z M2004.9,532l72.3,4.8c20.2,1.4,40.5,0.6,60.6-2.3   c53.1-7.6,145.3-21,166.1-25.1c28.7-5.6,32-13.5,31.4-17.7c-0.5-3.9-9.6-8.9-13-10.7c-0.9-0.5-1.5-0.8-1.8-1   c-14.4-10.1-32.8-6.4-33-6.4l-233.2,32.1c-0.2,0-0.4,0-0.6-0.1l-78.4-31.2l-17.1,2.8l57,42.3c0.3,0.2,0.5,0.7,0.4,1.1   c-0.1,0.4-0.3,0.7-0.7,0.9l-11,3.7L2004.9,532z"></path>	</g>	<g>		<polygon class="st4" points="1966.2,546.6 1980.5,547.7 2031.8,530.4 2003.4,530   "></polygon>		<path class="st2" d="M1980.5,548.8C1980.5,548.8,1980.4,548.8,1980.5,548.8l-14.4-1.1c-0.5,0-0.9-0.4-1-0.9   c-0.1-0.5,0.2-1,0.6-1.2l37.2-16.6c0.1-0.1,0.3-0.1,0.5-0.1l28.4,0.5c0.5,0,1,0.4,1.1,0.9c0.1,0.5-0.2,1-0.7,1.2l-51.3,17.3   C1980.7,548.8,1980.6,548.8,1980.5,548.8z M1970.6,545.8l9.7,0.8l45-15.2l-21.7-0.4L1970.6,545.8z"></path>	</g>	<g>		<path class="st4" d="M2203.8,519.4l-177.6,84.7l-26,2.4c0,0,83.9-48,94.6-55c15.7-10.2,34.6-22.8,34.6-22.8L2203.8,519.4z"></path>		<path class="st2" d="M2014.7,605.8c-0.5,0-0.9-0.3-1.1-0.8c-0.1-0.5,0.1-1,0.5-1.3l105.8-55.8c0,0,0,0,0.1,0   c10.3-4.7,37.6-18.1,40.3-23.6c0.2-0.3,0.5-0.6,0.9-0.6l42.6-5.4c0.5-0.1,1.1,0.3,1.2,0.8c0.2,0.5-0.1,1.1-0.6,1.3l-177,84.4   c-0.1,0.1-0.3,0.1-0.4,0.1L2014.7,605.8C2014.8,605.8,2014.7,605.8,2014.7,605.8z M2121,549.9l-101,53.3l6.6-0.5l170.6-81.3   l-35.2,4.4C2157.1,533.2,2124.9,548.1,2121,549.9z"></path>		<path class="st2" d="M2000.5,607.9c-0.5,0-0.9-0.3-1.1-0.8c-0.2-0.5,0-1,0.5-1.3c0.5-0.3,55.2-33.9,94.4-55.3   c13.8-7.6,34.3-22.6,34.5-22.7c0.2-0.1,0.3-0.2,0.5-0.2l74.4-9.3c0.5-0.1,1,0.3,1.2,0.8c0.2,0.5-0.1,1.1-0.6,1.3l-177.6,84.7   c-0.1,0.1-0.2,0.1-0.4,0.1l-25.7,2.7C2000.6,607.9,2000.5,607.9,2000.5,607.9z M2129.9,529.7c-2.3,1.7-21.4,15.5-34.5,22.7   c-32.9,18-76.6,44.4-90.1,52.7l20.6-2.2l171.3-81.7L2129.9,529.7z"></path>	</g>	<g>		<path class="st4" d="M1566.5,591.5V580l108.5-2.8l4.3,9.2l96.4-5.5l7.5-11.1c0,0,109.6-22.3,138.7-10.3   c26.1,10.8-21.8,36.7-27.4,45c-5.6,8.3-18.9,29.1-18.9,29.1l-262.5-4.1c-3.5-0.1-7-0.5-10.4-1.4c-9.3-2.4-26-8.6-33.2-23.1   C1567.4,600.7,1566.5,596.1,1566.5,591.5z"></path>		<path d="M1875.6,634.7C1875.6,634.7,1875.6,634.7,1875.6,634.7l-262.5-4.1c-3.6-0.1-7.2-0.6-10.6-1.4c-9.5-2.4-26.5-8.8-33.9-23.7   c-2.1-4.3-3.2-9-3.2-14V580c0-0.6,0.5-1.1,1.1-1.1l108.5-2.8c0.5,0,0.9,0.2,1,0.6l3.9,8.5l95.1-5.5l7.2-10.6   c0.2-0.2,0.4-0.4,0.7-0.5c4.5-0.9,110.3-22.3,139.4-10.2c5.1,2.1,7.9,4.9,8.3,8.5c1.2,9-12.9,19.9-24.3,28.7   c-5.1,4-9.6,7.4-10.9,9.4c-5.5,8.2-18.7,28.9-18.8,29.1C1876.3,634.5,1876,634.7,1875.6,634.7z M1567.6,581.1v10.4c0,4.6,1,9,3,13   c7,14.2,23.3,20.2,32.5,22.5c3.3,0.8,6.7,1.3,10.1,1.4l261.9,4.1c2.1-3.3,13.5-21.1,18.5-28.6c1.6-2.4,5.9-5.7,11.4-10   c10.3-8,24.5-18.9,23.5-26.6c-0.4-2.7-2.7-5-7-6.7c-27.5-11.4-130,8.7-137.6,10.3l-7.2,10.7c-0.2,0.3-0.5,0.5-0.9,0.5l-96.4,5.5   c-0.4,0-0.9-0.2-1.1-0.6l-4-8.6L1567.6,581.1z"></path>	</g>	<g>		<g>			<polygon class="st4" points="1624.7,577 1615.1,577 1615.1,541.6 1624.7,542.3    "></polygon>			<path class="st2" d="M1624.7,578.1h-9.5c-0.6,0-1.1-0.5-1.1-1.1v-35.4c0-0.3,0.1-0.6,0.4-0.8c0.2-0.2,0.5-0.3,0.8-0.3l9.5,0.7    c0.6,0,1,0.5,1,1.1V577C1625.8,577.6,1625.3,578.1,1624.7,578.1z M1616.2,575.9h7.3v-32.5l-7.3-0.5V575.9z"></path>		</g>		<g>			<polygon class="st4" points="1608.5,543.5 1615.1,542.3 1615.1,578 1608.5,578    "></polygon>			<path class="st2" d="M1615.1,579.1h-6.6c-0.6,0-1.1-0.5-1.1-1.1v-34.4c0-0.5,0.4-1,0.9-1.1l6.6-1.2c0.3-0.1,0.7,0,0.9,0.2    c0.3,0.2,0.4,0.5,0.4,0.9V578C1616.2,578.6,1615.7,579.1,1615.1,579.1z M1609.6,576.9h4.4v-33.2l-4.4,0.8V576.9z"></path>		</g>	</g>	<g>		<g>			<polygon class="st4" points="1664.6,594.8 1621.4,594.8 1621.4,559.7 1664.6,560.4    "></polygon>			<path class="st2" d="M1664.6,595.9h-43.2c-0.6,0-1.1-0.5-1.1-1.1v-35.1c0-0.3,0.1-0.6,0.3-0.8c0.2-0.2,0.5-0.3,0.8-0.3l43.2,0.7    c0.6,0,1.1,0.5,1.1,1.1v34.4C1665.7,595.4,1665.2,595.9,1664.6,595.9z M1622.5,593.7h41v-32.2l-41-0.7V593.7z"></path>		</g>		<g>			<polygon class="st4" points="1591.3,562.5 1621.3,559.5 1621.3,595.3 1591.3,595.3    "></polygon>			<path class="st2" d="M1621.3,596.4h-30c-0.6,0-1.1-0.5-1.1-1.1v-32.8c0-0.6,0.4-1,1-1.1l30-3c0.3,0,0.6,0.1,0.9,0.3    c0.2,0.2,0.4,0.5,0.4,0.8v35.8C1622.4,595.9,1621.9,596.4,1621.3,596.4z M1592.4,594.2h27.8v-33.5l-27.8,2.8V594.2z"></path>		</g>	</g>	<g>		<g>			<polygon class="st4" points="1689.1,587.1 1654.4,589.3 1654.4,554.7 1689.1,551.3    "></polygon>			<path class="st2" d="M1654.4,590.4c-0.3,0-0.6-0.1-0.8-0.3c-0.2-0.2-0.4-0.5-0.4-0.8v-34.7c0-0.6,0.4-1,1-1.1l34.7-3.4    c0.3,0,0.6,0.1,0.9,0.3c0.2,0.2,0.4,0.5,0.4,0.8v35.8c0,0.6-0.5,1.1-1,1.1L1654.4,590.4C1654.5,590.4,1654.4,590.4,1654.4,590.4z     M1655.5,555.7v32.5l32.4-2.1v-33.5L1655.5,555.7z M1689.1,587.1L1689.1,587.1L1689.1,587.1z"></path>		</g>		<g>			<path class="st2" d="M1661.1,584.6c-0.6,0-1.1-0.5-1.1-1.1v-25c0-0.6,0.5-1.1,1.1-1.1s1.1,0.5,1.1,1.1v25    C1662.2,584.1,1661.7,584.6,1661.1,584.6z"></path>			<path class="st2" d="M1667.9,583.9c-0.6,0-1.1-0.5-1.1-1.1v-25c0-0.6,0.5-1.1,1.1-1.1s1.1,0.5,1.1,1.1v25    C1669,583.4,1668.6,583.9,1667.9,583.9z"></path>			<path class="st2" d="M1674.8,583.3c-0.6,0-1.1-0.5-1.1-1.1v-25c0-0.6,0.5-1.1,1.1-1.1s1.1,0.5,1.1,1.1v25    C1675.9,582.8,1675.4,583.3,1674.8,583.3z"></path>			<path class="st2" d="M1681.6,582.6c-0.6,0-1.1-0.5-1.1-1.1v-25c0-0.6,0.5-1.1,1.1-1.1s1.1,0.5,1.1,1.1v25    C1682.7,582.1,1682.2,582.6,1681.6,582.6z"></path>		</g>		<g>			<path class="st2" d="M1688.4,587.8v-37.2l48.9,2.1v31.9L1688.4,587.8z"></path>			<path class="st2" d="M1688.4,588.9c-0.3,0-0.6-0.1-0.8-0.3c-0.2-0.2-0.4-0.5-0.4-0.8v-37.2c0-0.3,0.1-0.6,0.3-0.8    c0.2-0.2,0.5-0.3,0.8-0.3l48.9,2.1c0.6,0,1.1,0.5,1.1,1.1v31.9c0,0.6-0.5,1.1-1,1.1L1688.4,588.9    C1688.5,588.9,1688.4,588.9,1688.4,588.9z M1689.5,551.8v34.8l46.7-3v-29.8L1689.5,551.8z"></path>		</g>	</g>	<g>		<g>			<polygon class="st4" points="1730.2,583.5 1695.5,585.7 1695.5,551 1730.2,547.7    "></polygon>			<path class="st2" d="M1695.5,586.8c-0.3,0-0.6-0.1-0.8-0.3c-0.2-0.2-0.4-0.5-0.4-0.8V551c0-0.6,0.4-1,1-1.1l34.7-3.4    c0.3,0,0.6,0.1,0.9,0.3c0.2,0.2,0.4,0.5,0.4,0.8v35.8c0,0.6-0.5,1.1-1,1.1L1695.5,586.8C1695.6,586.8,1695.6,586.8,1695.5,586.8z     M1696.6,552.1v32.5l32.4-2.1v-33.5L1696.6,552.1z M1730.2,583.5L1730.2,583.5L1730.2,583.5z"></path>		</g>		<g>			<path class="st2" d="M1702.6,581.3c-0.6,0-1.1-0.5-1.1-1.1v-25c0-0.6,0.5-1.1,1.1-1.1s1.1,0.5,1.1,1.1v25    C1703.7,580.8,1703.2,581.3,1702.6,581.3z"></path>			<path class="st2" d="M1709.4,580.6c-0.6,0-1.1-0.5-1.1-1.1v-25c0-0.6,0.5-1.1,1.1-1.1c0.6,0,1.1,0.5,1.1,1.1v25    C1710.6,580.1,1710.1,580.6,1709.4,580.6z"></path>			<path class="st2" d="M1716.3,580c-0.6,0-1.1-0.5-1.1-1.1v-25c0-0.6,0.5-1.1,1.1-1.1s1.1,0.5,1.1,1.1v25    C1717.4,579.5,1716.9,580,1716.3,580z"></path>			<path class="st2" d="M1723.1,579.3c-0.6,0-1.1-0.5-1.1-1.1v-25c0-0.6,0.5-1.1,1.1-1.1c0.6,0,1.1,0.5,1.1,1.1v25    C1724.2,578.8,1723.7,579.3,1723.1,579.3z"></path>		</g>		<g>			<path class="st2" d="M1729.5,584.2V547l48.9,2.1V581L1729.5,584.2z"></path>			<path class="st2" d="M1729.5,585.3c-0.3,0-0.6-0.1-0.8-0.3c-0.2-0.2-0.4-0.5-0.4-0.8V547c0-0.3,0.1-0.6,0.3-0.8    c0.2-0.2,0.5-0.3,0.8-0.3l48.9,2.1c0.6,0,1.1,0.5,1.1,1.1V581c0,0.6-0.5,1.1-1,1.1L1729.5,585.3    C1729.6,585.3,1729.6,585.3,1729.5,585.3z M1730.6,548.2V583l46.7-3v-29.8L1730.6,548.2z"></path>		</g>	</g>	<g>		<g>			<polygon class="st4" points="1773.5,580.8 1737.5,583.1 1737.5,547.1 1773.5,543.6    "></polygon>			<path class="st2" d="M1737.5,584.2c-0.3,0-0.6-0.1-0.8-0.3c-0.2-0.2-0.4-0.5-0.4-0.8v-36c0-0.6,0.4-1,1-1.1l36-3.5    c0.3,0,0.6,0.1,0.9,0.3c0.2,0.2,0.4,0.5,0.4,0.8v37.2c0,0.6-0.5,1.1-1,1.1L1737.5,584.2C1737.6,584.2,1737.6,584.2,1737.5,584.2z     M1738.6,548.1v33.8l33.8-2.2v-34.9L1738.6,548.1z M1773.5,580.8L1773.5,580.8L1773.5,580.8z"></path>		</g>		<g>			<path class="st2" d="M1745.3,578.4c-0.6,0-1.1-0.5-1.1-1.1v-25c0-0.6,0.5-1.1,1.1-1.1s1.1,0.5,1.1,1.1v25    C1746.4,577.9,1745.9,578.4,1745.3,578.4z"></path>			<path class="st2" d="M1752.1,577.8c-0.6,0-1.1-0.5-1.1-1.1v-25c0-0.6,0.5-1.1,1.1-1.1s1.1,0.5,1.1,1.1v25    C1753.2,577.3,1752.7,577.8,1752.1,577.8z"></path>			<path class="st2" d="M1759,577.1c-0.6,0-1.1-0.5-1.1-1.1v-25c0-0.6,0.5-1.1,1.1-1.1s1.1,0.5,1.1,1.1v25    C1760.1,576.6,1759.6,577.1,1759,577.1z"></path>			<path class="st2" d="M1765.8,576.4c-0.6,0-1.1-0.5-1.1-1.1v-25c0-0.6,0.5-1.1,1.1-1.1s1.1,0.5,1.1,1.1v25    C1766.9,576,1766.4,576.4,1765.8,576.4z"></path>		</g>		<g>			<path class="st2" d="M1772.9,581.5v-38.6l50.8,2.2v33.1L1772.9,581.5z"></path>			<path class="st2" d="M1772.9,582.6c-0.3,0-0.6-0.1-0.8-0.3c-0.2-0.2-0.4-0.5-0.4-0.8v-38.6c0-0.3,0.1-0.6,0.3-0.8    c0.2-0.2,0.5-0.3,0.8-0.3l50.8,2.2c0.6,0,1.1,0.5,1.1,1.1v33.1c0,0.6-0.5,1.1-1,1.1L1772.9,582.6    C1772.9,582.6,1772.9,582.6,1772.9,582.6z M1774,544.1v36.2l48.6-3.1v-31L1774,544.1z"></path>		</g>	</g>	<g>		<g>			<polygon class="st4" points="1818.9,577.7 1781.8,580.1 1781.8,543.1 1818.9,539.5    "></polygon>			<path class="st2" d="M1781.8,581.2c-0.3,0-0.6-0.1-0.8-0.3c-0.2-0.2-0.4-0.5-0.4-0.8v-37c0-0.6,0.4-1,1-1.1l37-3.6    c0.3,0,0.6,0.1,0.9,0.3c0.2,0.2,0.4,0.5,0.4,0.8v38.2c0,0.6-0.5,1.1-1,1.1L1781.8,581.2C1781.9,581.2,1781.9,581.2,1781.8,581.2z     M1783,544.1v34.8l34.8-2.2v-36L1783,544.1z M1818.9,577.7L1818.9,577.7L1818.9,577.7z"></path>		</g>		<g>			<path class="st2" d="M1789.4,564.5c-0.6,0-1.1-0.5-1.1-1.1v-14.9c0-0.6,0.5-1.1,1.1-1.1c0.6,0,1.1,0.5,1.1,1.1v14.9    C1790.5,564,1790,564.5,1789.4,564.5z"></path>			<path class="st2" d="M1796.6,563.3c-0.6,0-1.1-0.5-1.1-1.1v-14.4c0-0.6,0.5-1.1,1.1-1.1s1.1,0.5,1.1,1.1v14.4    C1797.7,562.8,1797.2,563.3,1796.6,563.3z"></path>			<path class="st2" d="M1803.8,562.1c-0.6,0-1.1-0.5-1.1-1.1v-13.9c0-0.6,0.5-1.1,1.1-1.1s1.1,0.5,1.1,1.1V561    C1804.9,561.6,1804.4,562.1,1803.8,562.1z"></path>			<path class="st2" d="M1811,560.7c-0.6,0-1.1-0.5-1.1-1.1v-13.2c0-0.6,0.5-1.1,1.1-1.1c0.6,0,1.1,0.5,1.1,1.1v13.2    C1812.1,560.2,1811.6,560.7,1811,560.7z"></path>		</g>		<g>			<path class="st4" d="M1818.2,578.4v-39.6l52.2,2.2v34L1818.2,578.4z"></path>			<path class="st2" d="M1818.2,579.5c-0.3,0-0.6-0.1-0.8-0.3c-0.2-0.2-0.4-0.5-0.4-0.8v-39.6c0-0.3,0.1-0.6,0.3-0.8    c0.2-0.2,0.5-0.3,0.8-0.3l52.2,2.2c0.6,0,1.1,0.5,1.1,1.1v34c0,0.6-0.5,1.1-1,1.1L1818.2,579.5    C1818.3,579.5,1818.2,579.5,1818.2,579.5z M1819.3,540v37.3l50-3.2v-31.9L1819.3,540z"></path>		</g>		<path class="st2" d="M1862.4,554.2c-0.6,0-1.1-0.5-1.1-1.1v-6c0-0.6,0.5-1.1,1.1-1.1s1.1,0.5,1.1,1.1v6   C1863.5,553.7,1863,554.2,1862.4,554.2z"></path>		<path class="st2" d="M1855.1,554.9c-0.6,0-1.1-0.5-1.1-1.1v-7.1c0-0.6,0.5-1.1,1.1-1.1s1.1,0.5,1.1,1.1v7.1   C1856.2,554.4,1855.7,554.9,1855.1,554.9z"></path>		<path class="st2" d="M1847.9,556.2c-0.6,0-1.1-0.5-1.1-1.1v-8.3c0-0.6,0.5-1.1,1.1-1.1s1.1,0.5,1.1,1.1v8.3   C1849,555.7,1848.5,556.2,1847.9,556.2z"></path>		<path class="st2" d="M1840.6,557.2c-0.6,0-1.1-0.5-1.1-1.1v-9.6c0-0.6,0.5-1.1,1.1-1.1s1.1,0.5,1.1,1.1v9.6   C1841.7,556.7,1841.2,557.2,1840.6,557.2z"></path>		<path class="st2" d="M1833.4,558.1c-0.6,0-1.1-0.5-1.1-1.1V546c0-0.6,0.5-1.1,1.1-1.1c0.6,0,1.1,0.5,1.1,1.1V557   C1834.5,557.6,1834,558.1,1833.4,558.1z"></path>		<path class="st2" d="M1826.1,559c-0.6,0-1.1-0.5-1.1-1.1v-12.6c0-0.6,0.5-1.1,1.1-1.1c0.6,0,1.1,0.5,1.1,1.1v12.6   C1827.2,558.5,1826.7,559,1826.1,559z"></path>	</g>	<g>		<path class="st4" d="M1921.9,559.5c-29.1-12-138.7,10.3-138.7,10.3l-7.5,11.1l-142.3,9.2l-4.2-12.4l-62.7,2.3v11.6   c0,2.8,0.4,5.6,1.1,8.3c0.3,0.9,282.7-13.1,282.7-13.1s41-2.4,46.9-1.9c14.5,1.2,15.4,4.4,15.4,4.4   C1925.7,578.8,1938.1,566.2,1921.9,559.5z"></path>		<path class="st2" d="M1569.4,601.1c-2.7,0-2.8-0.2-2.9-0.8c-0.8-2.7-1.2-5.6-1.2-8.6V580c0-0.6,0.5-1.1,1.1-1.1l62.7-2.3   c0.5,0,0.9,0.3,1.1,0.8l4,11.6l140.9-9.1l7.2-10.6c0.2-0.2,0.4-0.4,0.7-0.5c4.5-0.9,110.3-22.3,139.4-10.2c5,2.1,7.8,4.9,8.3,8.4   c1.1,7.4-8.2,15.9-17.3,23.3c-0.3,0.2-0.7,0.3-1.1,0.2c-0.3-0.1-0.6-0.3-0.7-0.6c-0.1-0.2-2.1-2.7-14.4-3.7   c-5.8-0.5-46.3,1.9-46.8,1.9c-0.7,0-71.4,3.5-141.3,6.9c-41,2-73.7,3.5-97.2,4.5c-13.9,0.6-24.7,1.1-32.1,1.4   C1574.5,601,1571.3,601.1,1569.4,601.1z M1568.5,598.9c0,0,0.1,0,0.1,0c13.6,0,188.6-8.5,281.7-13.1c1.7-0.1,41.1-2.4,47.1-1.9   c10,0.8,13.9,2.6,15.4,3.9c7.4-6,16.5-14.4,15.6-20.6c-0.4-2.7-2.7-4.9-7-6.7c-27.5-11.4-130,8.7-137.6,10.3l-7.2,10.7   c-0.2,0.3-0.5,0.5-0.8,0.5l-142.3,9.2c-0.5,0-1-0.3-1.1-0.7l-4-11.7l-60.8,2.2v10.6C1567.6,594.1,1567.9,596.6,1568.5,598.9z    M1911.5,589.6C1911.5,589.6,1911.5,589.6,1911.5,589.6C1911.5,589.6,1911.5,589.6,1911.5,589.6z"></path>	</g>	<g>		<path class="st4" d="M1921.9,559.5c-1.3-0.5-2.8-1-4.5-1.4c-0.5-0.1-11.2,11.5-18.9,24.6c-0.4,0.8-0.9,1.5-1.3,2.3   c14.5,1.2,15.4,4.4,15.4,4.4C1925.7,578.8,1938.1,566.2,1921.9,559.5z"></path>		<path class="st2" d="M1912.6,590.4c-0.1,0-0.2,0-0.3-0.1c-0.3-0.1-0.6-0.3-0.7-0.6c-0.1-0.2-2.1-2.7-14.4-3.7   c-0.4,0-0.7-0.3-0.9-0.6c-0.2-0.3-0.2-0.7,0-1.1c0.4-0.8,0.9-1.5,1.3-2.3c4.1-7.1,8.9-13.4,12.2-17.4c6.6-8,7.4-7.8,7.9-7.7   c1.7,0.4,3.3,0.9,4.6,1.5c5,2.1,7.8,4.9,8.3,8.4c1.1,7.4-8.2,15.9-17.3,23.3C1913.1,590.4,1912.9,590.4,1912.6,590.4z    M1911.5,589.6C1911.5,589.6,1911.5,589.6,1911.5,589.6C1911.5,589.6,1911.5,589.6,1911.5,589.6z M1899.1,584   c8.8,0.9,12.3,2.5,13.7,3.8c7.4-6,16.5-14.4,15.7-20.6c-0.4-2.7-2.7-4.9-7-6.7c-1.1-0.5-2.4-0.9-3.8-1.3   c-1.9,1.7-11.3,12.2-18.1,24C1899.4,583.5,1899.2,583.8,1899.1,584z"></path>	</g>	<g>		<path class="st4" d="M1884.2,611.6l-308,2.5c8.2,8.2,19.6,12.2,26.6,14c3.4,0.9,6.9,1.3,10.4,1.4l262.5,4.1   c0,0,7.6-11.9,13.7-21.2L1884.2,611.6z"></path>		<path class="st2" d="M1875.6,634.7C1875.6,634.7,1875.6,634.7,1875.6,634.7l-262.5-4.1c-3.6-0.1-7.2-0.6-10.6-1.4   c-7.9-2-18.9-6.1-27.1-14.3c-0.3-0.3-0.4-0.8-0.2-1.2c0.2-0.4,0.6-0.7,1-0.7l308-2.5c0,0,0.1,0,0.2,0l5.2,0.7   c0.4,0.1,0.7,0.3,0.9,0.6c0.2,0.3,0.1,0.7-0.1,1.1c-6,9.3-13.6,21.1-13.7,21.2C1876.3,634.5,1876,634.7,1875.6,634.7z    M1578.9,615.2c8,7,18.4,10.4,24.1,11.9c3.3,0.8,6.7,1.3,10.1,1.4l261.9,4.1c1.4-2.3,7.3-11.4,12.4-19.3l-3.4-0.5L1578.9,615.2z"></path>	</g>	<path class="st2" d="M1886.1,608.4c-0.2,0-0.3,0-0.5-0.1c-0.6-0.3-0.8-0.9-0.6-1.5c4.2-9.4,8.5-17.7,12.5-24.7  c5.3-9.1,12.3-17.8,16.6-22.5c0.4-0.4,1.1-0.5,1.6-0.1c0.4,0.4,0.5,1.1,0.1,1.6c-4.3,4.6-11.1,13.2-16.3,22.1  c-4,6.9-8.2,15.1-12.4,24.5C1886.9,608.1,1886.5,608.4,1886.1,608.4z"></path>	<path class="st2" d="M1875.6,634.7C1875.6,634.7,1875.6,634.7,1875.6,634.7l-262.5-4.1c-3.6-0.1-7.2-0.6-10.6-1.4  c-9.5-2.4-26.5-8.8-33.9-23.7c-2.1-4.3-3.2-9-3.2-14V580c0-0.6,0.5-1.1,1.1-1.1l62.6-2.6c0.5,0,0.9,0.3,1.1,0.8l4,11.9l140.9-9.1  l7.2-10.6c0.2-0.2,0.4-0.4,0.7-0.5c4.5-0.9,110.3-22.3,139.4-10.2c5.1,2.1,7.9,4.9,8.3,8.5c1.2,9-12.9,19.9-24.3,28.7  c-5.1,4-9.6,7.4-10.9,9.4c-5.5,8.2-18.7,28.9-18.8,29.1C1876.3,634.5,1876,634.7,1875.6,634.7z M1567.6,581.1v10.4c0,4.6,1,9,3,13  c7,14.2,23.3,20.2,32.5,22.5c3.3,0.8,6.7,1.3,10.1,1.4l261.9,4.1c2.1-3.3,13.5-21.1,18.5-28.6c1.6-2.4,5.9-5.7,11.4-10  c10.3-8,24.5-18.9,23.5-26.6c-0.4-2.7-2.7-5-7-6.7c-27.5-11.4-130,8.7-137.6,10.3l-7.2,10.7c-0.2,0.3-0.5,0.5-0.8,0.5l-142.3,9.2  c-0.5,0-1-0.3-1.1-0.8l-4-11.9L1567.6,581.1z"></path>	<path d="M2196.6,1050.9c-14.5,0-26.3,11.8-26.3,26.2c0,3.6,1.6,8.7,4.1,14.3c6.2,14,17.7,31.2,21.2,36.3c0.5,0.7,1.6,0.7,2.1,0  c4.9-7.2,25.3-37.8,25.3-50.6C2223,1062.6,2211.2,1050.9,2196.6,1050.9z"></path>	<circle class="st2" cx="2196.6" cy="1077.1" r="11.5"></circle>	<path d="M1998.6,922.6c-14.5,0-26.3,11.8-26.3,26.2c0,3.6,1.6,8.7,4.1,14.3c6.2,14,17.7,31.2,21.2,36.3c0.5,0.7,1.6,0.7,2.1,0  c4.9-7.2,25.3-37.8,25.3-50.6C2024.9,934.4,2013.1,922.6,1998.6,922.6z"></path>			<ellipse transform="matrix(0.2298 -0.9732 0.9732 0.2298 615.9813 2675.9775)" class="st2" cx="1998.6" cy="948.8" rx="11.5" ry="11.5"></ellipse>	<path class="st5" d="M1982.9,849.9l438.9-1.3c8.8,0,15.8,7.4,15,16.1l-30.7,340.4c-0.7,7.6-7.2,13.5-15,13.5l-540.7-0.1  c-8.8,0-15.8-8.2-15.1-16.9l30.7-338.3c0.7-7.6,6.9-14.3,14.7-14.3L1982.9,849.9z"></path>	<path class="st4" d="M1962.9,849.1l438.9-1.3c8.8,0,15.8,7.5,15,16.2l-30.7,343.1c-0.7,7.7-7.2,13.6-15,13.6l-540.7-0.1  c-8.8,0-15.8-8.3-15.1-17l30.7-341c0.7-7.7,6.9-14.4,14.7-14.4L1962.9,849.1z"></path>	<path class="st2" d="M1833.8,995.5C1833.8,995.5,1833.8,995.5,1833.8,995.5c-0.7-0.1-1.2-0.6-1.1-1.2l11.4-133.8  c0.7-8.4,7.7-14.7,16.1-14.7H1962c0.6,0,1.1,0.5,1.1,1.1s-0.5,1.1-1.1,1.1h-101.8c-7.3,0-13.2,5.5-13.9,12.7l-11.4,133.8  C1834.9,995.1,1834.4,995.5,1833.8,995.5z"></path>	<path class="st2" d="M2205.7,1223.5C2205.7,1223.5,2205.7,1223.5,2205.7,1223.5l-263.8-1.7c-0.6,0-1.1-0.5-1.1-1.1  c0-0.6,0.5-1.1,1.1-1.1l263.8,1.7c0.6,0,1.1,0.5,1.1,1.1C2206.8,1223.1,2206.3,1223.5,2205.7,1223.5z"></path>	<path class="st2" d="M1962,848.1c-0.6,0-1.1-0.5-1.1-1.1s0.5-1.1,1.1-1.1l251.9-0.1c0.6,0,1.1,0.5,1.1,1.1c0,0.6-0.5,1.1-1.1,1.1  L1962,848.1z"></path>	<path class="st2" d="M2365.7,1219.3c-0.6,0-1.1-0.5-1.1-1.1c0-0.6,0.5-1.1,1.1-1.1l12.4-0.1c3.7-1.2,6.2-4.4,6.6-8.3l30-345.4  c0.3-3.9-1-7.8-3.6-10.6c-2.6-2.9-6.4-4.5-10.3-4.5h-68.3c-0.6,0-1.1-0.5-1.1-1.1s0.5-1.1,1.1-1.1h68.3c4.5,0,8.9,1.9,11.9,5.2  c3,3.3,4.6,7.8,4.2,12.3l-30,345.4c-0.4,4.8-3.7,8.8-8.3,10.3c-0.1,0-0.2,0-0.3,0L2365.7,1219.3  C2365.7,1219.3,2365.7,1219.3,2365.7,1219.3z"></path>	<path class="st2" d="M2348,1200.5h-495.1c-4.2,0-8.3-1.8-11.1-4.9c-2.7-3-4.1-6.9-3.7-10.9l28-305.3c0.7-7.5,7.1-13.2,14.8-13.2  H2376c4.2,0,8.3,1.8,11.1,4.9c2.7,3,4.1,6.9,3.7,10.9l-28,305.3C2362.1,1194.8,2355.7,1200.5,2348,1200.5z M1880.9,868.4  c-6.6,0-12,4.8-12.6,11.2l-28,305.3c-0.3,3.4,0.8,6.6,3.1,9.2c2.4,2.6,5.9,4.1,9.5,4.1H2348c6.6,0,12-4.8,12.6-11.2l28-305.3  c0.3-3.4-0.8-6.6-3.1-9.2c-2.4-2.6-5.9-4.1-9.5-4.1H1880.9z"></path>	<path class="st2" d="M2387.8,903.3h-522.7c-0.3,0-0.6-0.1-0.8-0.4c-0.2-0.2-0.3-0.5-0.3-0.8l2.1-22.6c0.7-7.4,7.2-13.2,14.8-13.2  H2376c4.2,0,8.3,1.8,11.1,4.9c2.8,3,4.1,6.9,3.7,10.9l-1.8,20.2C2388.9,902.9,2388.4,903.3,2387.8,903.3z M1866.3,901.1h520.5  l1.8-19.2c0.3-3.4-0.8-6.7-3.1-9.2c-2.4-2.6-5.9-4.1-9.5-4.1h-495.1c-6.5,0-12,4.9-12.6,11.2L1866.3,901.1z"></path>	<g>					<ellipse transform="matrix(0.2298 -0.9732 0.9732 0.2298 927.9288 2943.3325)" class="st2" cx="2323.5" cy="885.4" rx="6.8" ry="6.8"></ellipse>					<ellipse transform="matrix(0.7071 -0.7071 0.7071 0.7071 59.6676 1915.6927)" class="st2" cx="2342.3" cy="885.8" rx="6.8" ry="6.8"></ellipse>		<circle class="st2" cx="2360.7" cy="885.8" r="6.8"></circle>	</g>	<g>		<path class="st2" d="M2003.2,1190.3c-1.9,0-4-1.3-5.2-2.6c-2.8-3-7.3-14.8-9.2-21.9c-1.5-5.5-1.2-22.1-1.1-33.1   c0.1-3.3,0.1-6.1,0.1-7.8c-0.1-5.3-2-6.2-7.7-8.9c-1-0.5-2-1-3.2-1.5c-5-2.5-9.2-9.3-10-16.3c-0.8-6.7,1.6-12.8,6.6-17   c3.9-3.3,7-14.5,7.1-19.3c0.1-2,1.3-3.7,3.2-4.5c3.4-1.4,9-2.4,16.5,0.8c3.2,1.4,4.5,3.3,5.8,5.2c1,1.5,2,2.9,4,4.2   c1.4,0.9,3.3,1.5,5.1,2.1c3.9,1.3,8.4,2.9,7,7.5c-1.5,4.6,4.4,10.1,14.1,13.3c6.2,2,10.6,6.7,10.7,11.4c0,3.2-1.9,5.7-5.3,6.9   c-7.7,2.7-7.4,4.9-6.9,8.6c0.2,1.5,0.7,3.1,1.1,4.7c0.9,3.2,1.7,5.9,0.2,7.4c-2.1,2-8.3,3.3-10.3,3.6c-2.1,0.3-4.7,2.6-5.6,7   c-1.1,5.1-9.9,17.2-15.2,22.4c-4.2,4.2-2.9,8.1-0.1,16.6l0.7,2.2c1.5,4.5,1.3,7.4-0.7,8.6   C2004.3,1190.2,2003.8,1190.3,2003.2,1190.3z M1984.7,1059.5c-1.1,0.5-1.8,1.4-1.9,2.5c-0.2,5.2-3.3,17.1-7.9,20.9   c-4.5,3.7-6.5,9-5.8,15c0.7,6.2,4.4,12.4,8.8,14.6c1.1,0.6,2.2,1.1,3.1,1.5c5.9,2.8,8.9,4.3,9,10.9c0,1.7,0,4.4-0.1,7.8   c-0.2,10.2-0.5,27.3,1,32.5c2.1,7.5,6.4,18.5,8.7,21c1.3,1.4,3.3,2.2,4.2,1.8c0.6-0.4,0.9-2.2-0.3-6l-0.7-2.2   c-2.9-8.8-4.5-13.7,0.7-18.8c5.3-5.3,13.7-17.1,14.6-21.3c1.1-5.4,4.6-8.3,7.5-8.7c2.9-0.4,7.7-1.7,9.1-3c0.6-0.6-0.2-3.2-0.8-5.1   c-0.5-1.6-1-3.3-1.2-5c-0.6-4.6-0.4-7.9,8.4-11c2.5-0.9,3.9-2.6,3.9-4.8c0-3.1-2.9-7.3-9.1-9.3c-11.2-3.6-17.4-10.1-15.5-16.1   c0.7-2.4-1-3.2-5.6-4.8c-1.9-0.6-3.9-1.3-5.5-2.3c-2.4-1.5-3.6-3.3-4.7-4.8c-1.2-1.8-2.3-3.3-4.9-4.5   C1992.7,1057.4,1987.7,1058.2,1984.7,1059.5z M1984.3,1058.5L1984.3,1058.5L1984.3,1058.5z"></path>		<path class="st2" d="M1983.4,1049.8c-0.8,0-1.7-0.3-2.6-1c-1.9-1.3-5.4-6.2-8.9-12.2c-0.1-0.1-0.1-0.1-0.2-0.2   c-1.7-2.3-2.8-2.7-5.8-4c-0.7-0.3-1.4-0.6-2.3-1c-6-2.6-23.5-19.1-24.3-46.8c-0.1-4.8,1.9-8.6,6-11c3-1.7,3.6-3.8,3.7-8.8   c0.1-3-0.9-4.3-1.9-5.7c-0.5-0.7-1.1-1.4-1.4-2.3c-0.3-0.8-0.3-1.7-0.3-2.7c0-1.5,0-3-0.9-3.8c-0.9-0.8-2.6-1-5.2-0.7   c-11,1.4-16.9,0.2-19.1-3.9c-0.4-0.7-0.4-1.5-0.1-2.3c1.2-3.3,8.1-7.2,23.1-13c9.6-3.8,22,4.8,23.4,7.4c0.4,0.7,0.7,1.6,1,2.6   c0.7,2,1.4,4.2,3.2,5.1c1,0.5,2.9-0.9,5.2-2.7c2.3-1.8,5.2-4,9-5.7c2.5-1.1,4.8-1.3,6.7-0.6c2.6,1,4,3.5,4.9,5.6   c0.6,1.5,1.9,2.5,3.5,2.8c3.8,0.8,9.8,1.2,16.7-0.9c5.7-1.8,9.1-3.1,11.3-4c3-1.2,4.2-1.7,6.3-1.2c3.4,0.8,6.7,4,6.1,7.1   c-0.8,4.2-5.1,6-12.7,5.4c-5.4-0.4-8.6,3.2-9.7,4.8c-1.9,2.6-2.3,5.3-1.7,6.6c0.6,1.4,1.1,2.1,1.8,2.3c1.5,0.5,4.6-1.3,7.9-3.2   c3.5-2.1,6.7-2.8,9.4-2.1c2.8,0.8,4.1,2.8,4.6,3.7c1.3,2.5,0.9,8.4-0.8,12.7c-0.5,1.3,0,2.4,0.8,4.1c1,1.9,2.2,4.3,0.7,7.4   c-1,2.1-5.5,5-12,6.2c-1.7,0.3-3.6,0.3-5.7,0.3c-4.3,0-8.7,0.1-10.3,2.7c-1.7,3-4.6,4.6-6.8,5.9c-1.3,0.7-2.5,1.4-2.9,2.1   c-0.3,0.6-0.5,2-0.7,3.4c-0.4,3.1-0.9,6.6-3.4,7.8c-3.2,1.6-8.5-1.3-10.6-3.9c-0.7-0.9-1.5-1.3-2.4-1.2c-0.7,0.1-1.4,0.6-1.7,1.2   c-1.1,2.6-0.8,6.2,0.9,10.8c2.5,6.8,3.6,12.6,3.2,17.1c-0.4,5.5-1.6,8.5-3.5,9.5C1984.3,1049.7,1983.9,1049.8,1983.4,1049.8z    M1941.2,947.1c2.1,0,3.6,0.5,4.7,1.4c1.7,1.5,1.7,3.7,1.7,5.5c0,0.8,0,1.5,0.2,1.9c0.3,0.6,0.7,1.2,1.1,1.8   c1.1,1.5,2.5,3.3,2.4,7.1c-0.2,4.7-0.6,8.2-4.8,10.7c-3.4,2-5.1,5.1-4.9,9.1c0.8,26.9,18.1,42.8,23,44.9c0.9,0.4,1.6,0.7,2.3,1   c3.2,1.3,4.7,1.9,6.8,4.7c0.1,0.1,0.2,0.2,0.3,0.3c3.6,6.4,6.9,10.7,8.3,11.7c0.7,0.5,1.3,0.7,1.7,0.5c0.5-0.2,1.8-1.5,2.3-7.6   c0.3-4.2-0.8-9.8-3.1-16.2c-1.9-5.2-2.2-9.4-0.9-12.5c0.6-1.4,1.9-2.4,3.4-2.6c1.7-0.2,3.4,0.5,4.5,2c1.7,2.2,5.9,4.3,7.8,3.3   c1.5-0.7,1.9-3.7,2.2-6.2c0.2-1.7,0.5-3.2,1-4.1c0.7-1.2,2.1-2,3.7-2.9c2.1-1.2,4.6-2.6,6-5.1c2.2-3.8,7.5-3.8,12.2-3.9   c2,0,3.8,0,5.3-0.3c6.2-1.1,9.9-3.8,10.4-4.9c1-2.1,0.2-3.7-0.7-5.5c-0.9-1.7-1.9-3.6-0.9-5.9c1.6-4,1.8-9.2,0.9-10.8   c-0.3-0.6-1.3-2.1-3.2-2.6c-2.1-0.6-4.6,0-7.6,1.8c-4.6,2.7-7.5,4.1-9.7,3.4c-1.6-0.5-2.5-2-3.1-3.5c-1-2.3-0.2-5.8,1.9-8.8   c2.8-4,7.1-6,11.7-5.7c6.3,0.5,9.8-0.7,10.4-3.6c0.3-1.5-1.7-3.9-4.4-4.5c-1.3-0.3-2-0.1-5,1.1c-2.3,0.9-5.7,2.2-11.5,4   c-7.3,2.3-13.7,1.8-17.8,1c-2.3-0.4-4.2-2-5.1-4.1c-0.7-1.7-1.8-3.7-3.6-4.4c-1.3-0.5-3-0.3-5,0.6c-3.5,1.6-6.3,3.7-8.5,5.4   c-3,2.3-5.3,4.1-7.6,2.9c-2.5-1.3-3.5-4.1-4.2-6.3c-0.3-0.8-0.6-1.6-0.9-2.2c-1.1-2-12.3-9.7-20.6-6.4c-13.6,5.3-21,9.3-21.9,11.7   c-0.1,0.3-0.1,0.4,0,0.5c1.6,3.1,7,4,16.9,2.7C1939.8,947.2,1940.5,947.1,1941.2,947.1z M2038.1,975.6L2038.1,975.6L2038.1,975.6z   "></path>		<path class="st2" d="M2049.8,956.6c-1.1,0-1.9-0.1-2.4-0.5c-3.8-2.3-2.7-9.1-1.8-14.6c0.4-2.3,0.8-4.8,0.5-5.6   c-0.5-1.4-3.6-2.6-5.9-3.5c-1.7-0.6-3.1-1.2-3.9-1.9c-0.6-0.5-1.2-1.4-1.6-2.6c-0.6-1.5-0.6-3.2,0.2-4.7c0.7-1.5,2-2.6,3.6-3.1   c1.5-0.5,3-0.6,4.3-0.4c1.7,0.3,4.7,1.6,8.4,3.3c4.6,2.1,10.4,4.7,14.4,5.4c4.1,0.8,9.8,0.8,14.8,0.9c3.7,0,6.9,0.1,9.1,0.4   c1.7,0.2,2.7,0.9,3,2c0.5,1.8-0.5,4.5-11,12.7C2073.3,950.8,2056.7,956.6,2049.8,956.6z M2039.1,922.3c-1,0.3-1.8,1-2.3,1.9   c-0.4,0.9-0.5,2-0.1,2.9c0.4,1.1,0.8,1.6,1,1.7c0.5,0.4,1.9,1,3.2,1.5c3,1.1,6.3,2.4,7.2,4.7c0.5,1.2,0.2,3.2-0.4,6.7   c-0.7,4.6-1.7,10.9,0.8,12.4c2.2,1.3,21.7-3.8,31.5-11.4c9.9-7.8,10.3-9.9,10.2-10.4c0-0.1-0.3-0.3-1.1-0.4   c-2-0.3-5.3-0.3-8.8-0.3c-5.1,0-10.8-0.1-15.1-0.9c-4.3-0.8-10-3.3-14.9-5.6c-3.3-1.5-6.4-2.9-7.8-3.1   C2041.4,921.9,2040.3,922,2039.1,922.3z"></path>		<path class="st2" d="M2099.5,1105.5c-1.3,0-2.4-0.2-3.3-0.6c-7.8-3.3-14.5-25.4-17.1-45.5c-0.3-2.3-0.4-4.2-0.4-5.8   c-0.1-3.2-0.2-5.1-2-7.8c-0.9-1.4-4.3-1-7.9-0.7c-5.4,0.6-12.2,1.2-17.4-2.6c-9.9-7.3-9.2-15.4-4.1-29.7   c5.7-15.9,24-15.2,33.8-14.9c6.3,0.2,7.1,3.1,7.7,5.6c0.5,1.8,0.9,3.5,3.2,5c5.4,3.4,18.8,1,20.8,0.6c3.9-2.9,4.4-4.5,4.3-5.2   c-0.1-1.1-2-2.1-3.6-2.9c-0.3-0.2-0.7-0.3-1-0.5c-1.8-1-4-1.2-6.2-1.4c-2.1-0.2-4.4-0.5-6.4-1.4c-2.5-1.1-4.3-3.4-5.8-5.2   c-0.7-0.9-1.6-2-2.1-2.3c-0.2,0.5-0.4,1.8-0.6,2.6c-0.4,2.4-0.8,4.9-2.7,5.3c-0.7,0.2-1.4,0.1-2-0.4c-1.6-1.1-1.7-4.2-2-7.8   c0-0.5-0.1-0.9-0.1-1.4c0-0.6-0.2-0.9-0.3-0.9c-0.4-0.3-2.2,0.2-3.6,0.7c-1.6,0.5-3.6,1.1-5.7,1.3c-2.9,0.3-5.3,2.1-7.6,3.9   c-2,1.5-3.9,3-6,3.3c-2,0.3-3.7-0.5-4.8-2.1c-1.4-2.2-1.3-5.4,0.2-7.9c1.8-2.9,4.4-1.9,5.9-1.3c1.1,0.4,1.6,0.5,1.8,0.3   c0.5-0.6,0.9-1.4,1.3-2.5c0.8-2,1.9-4.4,4.8-7.1c2.7-2.5,4.3-2.4,5.8-1.9c0.8,0.2,1.2,0.3,2.1-0.2c1.1-0.7,1.5-1.6,1.8-2.6   c0.5-1.3,1.1-3,3.6-3.8c1.8-0.5,3.1-0.2,4.3,0.1c1.6,0.4,3.2,0.9,6.5-1.2c3.3-2,3.4-3.3,3.3-3.6c-0.1-0.6-0.9-1.1-1.6-1.2   c-0.5-0.1-0.9,0.1-2.1,1c-1.3,1-3.3,2.4-6.9,3.4c-5.3,1.4-6.9,1-9.3,0.3c-0.7-0.2-1.3-0.4-2.2-0.6c-1.3-0.3-2.1-0.9-2.3-1.8   c-0.4-2,2-3.8,9.8-9.2l1.9-1.3c9.3-6.6,14.4-6.5,21.6-5.7c2.9,0.3,4.8,1.9,6.8,3.6c3.6,3,7.6,6.4,19,4.6   c13.9-2.2,17.4-4.4,20.1-6.2c0.9-0.5,1.7-1.1,2.7-1.6c4.8-2.2,23.6-3,32.3-0.7c5.2,1.3,6.4,2.9,7.7,4.5c1,1.2,1.9,2.4,5,3.8   c6,2.8,19.3,1.2,28.9,0.1c1.5-0.2,3-0.4,4.4-0.5c9.1-1,15.6,0.2,20,3.6c1.4,1.1,5.3,1.1,8.7,1.1c3.5,0,6.9,0,8.6,1.1   c0.9,0.6,1.5,1.5,1.6,2.5c0.3,3.6-4.7,8.7-6.9,10.7c-1.5,1.4-1.3,4.2-1.1,6.7c0.2,2.3,0.3,4.2-0.9,5.2c-0.7,0.6-1.6,0.7-2.8,0.4   c-4-1.1-5-6.1-5.9-10.2c-0.3-1.5-0.7-3.5-1.2-4c-0.2,0.2-0.5,0.7-0.7,1c-0.9,1.4-2.3,3.6-5,3.6c-1.3,0-2.7-0.1-4-0.3   c-2.7-0.3-5.3-0.6-7.4,0.5c-0.1,0.1-0.2,0.1-0.2,0.1c0.3,0.7,2.3,2.2,3.8,3.3c1.8,1.3,3.9,2.9,5.5,4.6c4.2,4.4,2.4,7.9,0.1,12.4   c-0.4,0.8-0.9,1.7-1.3,2.6c-1.5,3.1-0.6,5.7,0.1,7.6c0.4,1.3,0.8,2.3,0.2,3.1c-0.2,0.3-0.6,0.7-1.5,0.8c-2.1,0.2-4.4-2.1-7.2-4.8   c-1.7-1.6-3.4-3.3-4.8-4.2c-0.8-0.5-1.3-0.5-1.6-0.1c-0.7,0.9-0.6,3.3,1.3,5.3c4,4.3,7,11.9,4.6,17.5c-1.7,4-6.4,3.4-10.6,3   c-2.5-0.3-5.1-0.6-6.4,0.2c-0.5,0.3-0.6,0.6-0.6,0.7c-0.3,1.2,1.1,3.5,2.4,5.7c1.3,2.1,2.6,4.2,3.1,6.4c0.6,2.2-0.2,3.3-0.9,3.8   c-2.6,2-8.8-0.7-11.5-2.3c-2.4-1.5-5.4-5-8.3-8.4c-1.8-2.2-3.6-4.2-4.9-5.4c-1.8-1.6-3.2-0.6-7,2.5c-1,0.9-2.2,1.9-3.5,2.8   c-2.5,1.8-3.4,5.8-4.2,9c-0.8,3.4-1.6,6.3-4,6.1c-3.2-0.3-5-5.4-6.9-10.8c-0.5-1.4-1-2.9-1.6-4.2c-2.2-5.5-9.9-10.6-17.4-11.6   c-5.2-0.7-6.5-2.3-7.5-3.6c-0.7-0.8-1.2-1.4-2.7-1.8c-0.7-0.2-1.1-0.2-1.2-0.2c0.1,0.5,0.7,1.7,1.8,3c0.4,0.5,0.9,0.6,1.9,0.8   c1.2,0.2,2.7,0.5,4.1,2c1.8,1.8,1.8,5.5,1,8.2c-0.7,2.4-2,4-3.5,4.3c-1.6,0.3-2.6,1-4.4,2.1c-1.2,0.7-2.6,1.6-4.6,2.7   c-5.1,2.7-8.2-3-9.7-5.7c-0.3-0.5-0.5-0.9-0.7-1.2c-0.8-1.3-1.1-3.1-1.3-4.9c-0.2-1.6-0.5-3.5-1.2-4.1c0,0-0.2-0.2-0.3-0.2   c-0.4,0.1-1.6,1.5-2.2,5.9c-0.6,4.6,8,11.8,11.3,12.8c3.3,1,7.4,2.2,7.4,7.2c0,2.9-3,4.6-6.9,6.7c-2.7,1.5-5.8,3.2-8.4,5.6   c-3.5,3.3-2.6,5.8-1.4,9.1c0.6,1.8,1.3,3.7,1.1,5.7c-0.5,5-3.1,8.7-6,13.1c-1.2,1.7-2.4,3.4-3.6,5.4   C2112.7,1102.1,2104.9,1105.5,2099.5,1105.5z M2073.4,1042.6c2.3,0,4.2,0.4,5.2,2c2.1,3.2,2.2,5.6,2.3,8.9   c0.1,1.6,0.1,3.4,0.4,5.6c2.9,22,9.8,41.2,15.8,43.8c3.8,1.6,13.5-1.6,17.5-8.2c1.2-2.1,2.5-3.8,3.6-5.6c2.9-4.2,5.2-7.6,5.6-12   c0.2-1.5-0.4-3.1-1-4.7c-1.1-3.2-2.5-7.2,2-11.5c2.8-2.6,6-4.4,8.8-6c3.1-1.7,5.8-3.2,5.8-4.8c0-2.9-1.7-3.9-5.8-5.1   c-4-1.2-13.7-9.1-12.8-15.2c0.3-2.5,1.3-6.9,3.7-7.8c0.5-0.2,1.5-0.3,2.6,0.7c1.2,1.2,1.5,3.2,1.8,5.4c0.2,1.5,0.4,3.1,1,4   c0.2,0.4,0.5,0.8,0.8,1.4c1.9,3.4,3.8,6.4,6.8,4.8c1.9-1,3.3-1.9,4.4-2.6c1.9-1.2,3.2-2,5.2-2.4c0.5-0.1,1.3-1,1.8-2.7   c0.7-2.4,0.5-5.1-0.4-6c-1-1-2-1.2-3-1.4c-1-0.2-2.2-0.4-3.2-1.5c-1.2-1.4-3-4-2-5.6c0.9-1.4,3-0.9,3.7-0.7   c2.3,0.6,3.2,1.6,3.9,2.6c0.9,1.2,1.8,2.2,6.1,2.8c8.4,1.2,16.6,6.7,19.2,13c0.5,1.3,1.1,2.8,1.6,4.3c1.4,3.9,3.3,9.2,5,9.3   c0.5,0,1.3-3,1.7-4.5c0.9-3.6,2-8,5.1-10.3c1.2-0.9,2.3-1.8,3.4-2.7c3.3-2.8,6.5-5.4,9.9-2.4c1.4,1.3,3.2,3.4,5.1,5.6   c2.7,3.1,5.7,6.7,7.8,8c3.3,2,7.9,3.2,9,2.4c0.3-0.3,0.2-0.9,0.1-1.5c-0.5-1.8-1.7-3.9-2.9-5.8c-1.7-2.8-3.2-5.3-2.7-7.4   c0.2-0.9,0.8-1.6,1.7-2.1c2-1.1,4.8-0.8,7.8-0.5c4.4,0.5,7.3,0.7,8.3-1.6c2.1-5.1-1.1-11.9-4.2-15.1c-2.7-2.8-2.8-6.5-1.4-8.2   c0.8-1,2.4-1.6,4.5-0.4c1.7,1,3.5,2.8,5.2,4.5c1.7,1.7,3.9,3.9,5.1,4.2c-0.1-0.3-0.2-0.7-0.3-1c-0.7-2-1.8-5.4,0-9.3   c0.5-1,0.9-1.8,1.3-2.7c2.3-4.4,3.4-6.6,0.3-9.8c-1.5-1.6-3.5-3-5.2-4.3c-2.9-2.2-4.8-3.6-4.7-5.3c0-0.5,0.3-1.3,1.5-1.9   c2.7-1.3,5.7-1,8.6-0.7c1.2,0.1,2.5,0.3,3.7,0.3c0,0,0,0,0,0c1.4,0,2.2-1.1,3.2-2.5c0.6-1,1.2-1.9,2.2-2.1   c0.6-0.1,1.1,0.1,1.7,0.5c1,0.9,1.5,2.8,2,5.3c0.7,3.5,1.6,7.8,4.3,8.5c0.6,0.2,0.8,0.1,0.8,0.1c0.3-0.3,0.2-2.3,0.1-3.3   c-0.2-2.8-0.5-6.4,1.8-8.5c3.9-3.6,6.3-7.1,6.2-8.9c0-0.4-0.2-0.6-0.5-0.8c-1.2-0.8-4.5-0.8-7.4-0.7c-4.1,0-8.1,0-10.1-1.6   c-3.8-3-9.9-4.1-18.3-3.2c-1.4,0.2-2.8,0.3-4.3,0.5c-10.5,1.3-23.6,2.9-30.2-0.2c-3.5-1.6-4.7-3.1-5.7-4.4   c-1.2-1.5-2.1-2.6-6.6-3.8c-8.5-2.2-26.9-1.2-30.8,0.6c-0.9,0.4-1.6,0.9-2.5,1.4c-2.9,1.9-6.6,4.2-21,6.5c-12.4,2-17-2-20.8-5.1   c-1.9-1.6-3.4-2.9-5.6-3.1c-6.9-0.8-11.2-1-20.1,5.3l-1.9,1.3c-4,2.8-8.1,5.7-8.8,6.9c0.1,0,0.3,0.1,0.5,0.1   c0.9,0.2,1.7,0.4,2.3,0.6c2.2,0.6,3.5,1,8.2-0.3c3.2-0.9,4.9-2.1,6.2-3c1.3-0.9,2.4-1.7,3.9-1.3c1.4,0.3,3,1.3,3.2,3   c0.3,1.9-1.2,3.9-4.4,5.9c-4.1,2.5-6.4,1.9-8.2,1.4c-1-0.3-1.9-0.5-3-0.1c-1.5,0.5-1.8,1.2-2.2,2.4c-0.4,1.2-0.9,2.6-2.7,3.8   c-1.8,1.1-3,0.8-3.9,0.5c-0.9-0.3-1.7-0.5-3.7,1.4c-2.6,2.4-3.5,4.5-4.3,6.4c-0.5,1.1-0.9,2.2-1.7,3c-1.3,1.5-3,0.8-4.2,0.3   c-1.8-0.7-2.4-0.8-3.2,0.4c-1.1,1.7-1.2,4-0.2,5.5c0.4,0.6,1.2,1.4,2.6,1.2c1.5-0.2,3.2-1.5,5-2.9c2.4-1.9,5.2-4,8.7-4.3   c1.9-0.2,3.7-0.7,5.2-1.2c2.3-0.7,4.2-1.3,5.5-0.4c0.7,0.5,1.1,1.4,1.2,2.6c0,0.5,0.1,1,0.1,1.4c0.1,2,0.4,5.8,1.1,6.2   c0.6-0.2,1-2.6,1.1-3.6c0.4-2.3,0.8-4.8,2.9-4.5c1.4,0.2,2.4,1.5,3.8,3.2c1.4,1.8,3,3.7,4.9,4.6c1.8,0.7,3.7,1,5.8,1.2   c2.4,0.3,4.9,0.5,7,1.7c0.3,0.2,0.6,0.3,1,0.5c2.2,1.1,4.6,2.3,4.8,4.7c0.2,2.1-1.5,4.4-5.4,7.3c-0.1,0.1-0.3,0.2-0.4,0.2   c-0.7,0.1-16.2,3.3-22.7-0.8c-3-1.9-3.6-4.4-4.1-6.3c-0.6-2.4-1-3.8-5.5-4c-9.3-0.3-26.5-0.9-31.7,13.4   c-5.4,15.2-4.7,21.3,3.3,27.2c4.5,3.4,10.8,2.7,15.8,2.2C2070.3,1042.8,2071.9,1042.6,2073.4,1042.6z M2113.3,1010.2   L2113.3,1010.2L2113.3,1010.2z"></path>		<path class="st2" d="M2216.7,1158.6c-0.1,0-0.1,0-0.2,0c-3.5-0.3-5.8-4.2-8.2-8.5c-2.2-3.9-4.6-8-7.6-8.4   c-6.7-1-24.8-0.5-29.4,0.4c-4.6,0.9-6.6-2.2-7-4c0,0,0,0,0,0c-0.2-1-5.1-25.7,8-29.4c3.5-1,7.6-1.7,11.9-2.5   c10.5-1.9,22.4-4.1,25.4-9.7c3.3-6.3,8.8-10.1,14.8-10.1c0,0,0,0,0,0c5.8,0,11.1,3.5,14.2,9.5c2,3.7,4.7,7.4,7.3,11   c5.4,7.4,10.5,14.5,7.9,20.3C2250.1,1135.3,2223.6,1158.6,2216.7,1158.6z M2189.4,1139c4.6,0,9,0.2,11.7,0.6   c4.1,0.6,6.7,5.1,9.2,9.5c2,3.5,4.1,7.2,6.4,7.3c5.1,0.4,31.4-22.1,35.1-30c2.1-4.6-2.6-11.1-7.6-18c-2.7-3.7-5.4-7.4-7.5-11.3   c-2.8-5.3-7.3-8.3-12.2-8.3c0,0,0,0,0,0c-5.2,0-9.9,3.3-12.8,8.9c-3.4,6.6-15.4,8.7-27,10.8c-4.3,0.8-8.4,1.5-11.7,2.4   c-11,3-6.6,25.8-6.4,26.7c0.1,0.4,0.9,3,4.5,2.3C2173.9,1139.4,2182,1139,2189.4,1139z"></path>	</g>	<path class="st2" d="M1728.2,969.9c-0.3,0-0.6-0.1-0.8-0.3c-3.1-3.2-6.1-6.6-9-9.9c-0.4-0.5-0.4-1.2,0.1-1.6  c0.5-0.4,1.2-0.4,1.6,0.1c2.9,3.3,5.9,6.6,9,9.8c0.4,0.4,0.4,1.1,0,1.6C1728.7,969.8,1728.4,969.9,1728.2,969.9z M1710.6,949.9  c-0.3,0-0.6-0.1-0.9-0.4c-2.8-3.5-5.5-7.1-8.1-10.6c-0.4-0.5-0.3-1.2,0.2-1.6c0.5-0.4,1.2-0.3,1.6,0.2c2.6,3.5,5.3,7.1,8.1,10.5  c0.4,0.5,0.3,1.2-0.2,1.6C1711.1,949.8,1710.9,949.9,1710.6,949.9z M1694.9,928.4c-0.4,0-0.7-0.2-0.9-0.5c-2.5-3.7-4.8-7.6-7-11.4  c-0.3-0.5-0.1-1.2,0.4-1.5c0.5-0.3,1.2-0.1,1.5,0.4c2.2,3.8,4.5,7.6,7,11.3c0.3,0.5,0.2,1.2-0.3,1.5  C1695.4,928.3,1695.1,928.4,1694.9,928.4z M2167.1,914.4c-0.8,0-1.7,0-2.5,0c-0.6,0-1.1-0.5-1.1-1.1c0-0.6,0.5-1.1,1.1-1.1  c4.4,0.1,8.8-0.1,13.1-0.6c0.6-0.1,1.2,0.4,1.2,1c0.1,0.6-0.4,1.2-1,1.2C2174.4,914.2,2170.7,914.4,2167.1,914.4z M2151.3,913.4  c0,0-0.1,0-0.1,0c-4.5-0.6-9-1.3-13.2-2.2c-0.6-0.1-1-0.7-0.8-1.3c0.1-0.6,0.7-1,1.3-0.8c4.1,0.9,8.5,1.7,13,2.2  c0.6,0.1,1,0.6,1,1.2C2152.3,913,2151.9,913.4,2151.3,913.4z M2190.9,911.4c-0.5,0-0.9-0.3-1.1-0.8c-0.2-0.6,0.2-1.2,0.8-1.3  c4.2-1.1,8.4-2.4,12.5-4c0.6-0.2,1.2,0.1,1.4,0.6c0.2,0.6-0.1,1.2-0.6,1.4c-4.2,1.6-8.5,3-12.8,4.1  C2191.1,911.4,2191,911.4,2190.9,911.4z M2125.4,907.5c-0.1,0-0.2,0-0.4-0.1c-4.2-1.5-8.4-3.2-12.4-5.1c-0.6-0.3-0.8-0.9-0.5-1.5  c0.3-0.6,0.9-0.8,1.5-0.5c3.9,1.9,8,3.6,12.1,5c0.6,0.2,0.9,0.8,0.7,1.4C2126.3,907.3,2125.9,907.5,2125.4,907.5z M1681.5,905.4  c-0.4,0-0.8-0.2-1-0.6c-2-4-4-8.1-5.7-12.1c-0.2-0.6,0-1.2,0.6-1.5c0.6-0.2,1.2,0,1.5,0.6c1.7,4,3.7,8,5.7,12  c0.3,0.5,0.1,1.2-0.5,1.5C1681.9,905.4,1681.7,905.4,1681.5,905.4z M2215.7,901.8c-0.4,0-0.8-0.2-1-0.6c-0.3-0.5-0.1-1.2,0.5-1.5  c3.8-2,7.6-4.3,11.3-6.8c0.5-0.3,1.2-0.2,1.5,0.3c0.3,0.5,0.2,1.2-0.3,1.5c-3.7,2.5-7.6,4.9-11.5,6.9  C2216.1,901.8,2215.9,901.8,2215.7,901.8z M2101.6,896c-0.2,0-0.4-0.1-0.6-0.2c-3.6-2.3-7.2-4.8-11-7.6c-0.5-0.4-0.6-1.1-0.2-1.6  c0.4-0.5,1.1-0.6,1.6-0.2c3.7,2.8,7.3,5.3,10.8,7.5c0.5,0.3,0.7,1,0.4,1.5C2102.3,895.8,2101.9,896,2101.6,896z M2237.8,887  c-0.3,0-0.6-0.1-0.9-0.4c-0.4-0.5-0.3-1.2,0.1-1.6c3.4-2.8,6.6-5.8,9.7-8.9c0.4-0.4,1.1-0.4,1.6,0c0.4,0.4,0.4,1.1,0,1.6  c-3.2,3.2-6.5,6.2-9.9,9.1C2238.3,886.9,2238,887,2237.8,887z M1670.9,881c-0.5,0-0.9-0.3-1-0.7c-1.5-4.2-2.9-8.5-4.2-12.7  c-0.2-0.6,0.2-1.2,0.8-1.4c0.6-0.2,1.2,0.2,1.4,0.8c1.2,4.2,2.6,8.4,4.1,12.6c0.2,0.6-0.1,1.2-0.7,1.4  C1671.1,881,1671,881,1670.9,881z M2080.3,880.1c-0.3,0-0.5-0.1-0.7-0.3c-3.1-2.7-6.4-5.6-9.9-8.9c-0.4-0.4-0.5-1.1-0.1-1.6  c0.4-0.4,1.1-0.5,1.6-0.1c3.6,3.3,6.8,6.2,9.9,8.8c0.5,0.4,0.5,1.1,0.1,1.6C2080.9,880,2080.6,880.1,2080.3,880.1z M2256.5,868.1  c-0.2,0-0.5-0.1-0.7-0.3c-0.5-0.4-0.5-1.1-0.2-1.6c2.8-3.4,5.5-7,7.9-10.6c0.3-0.5,1-0.6,1.5-0.3c0.5,0.3,0.6,1,0.3,1.5  c-2.5,3.7-5.2,7.3-8,10.7C2257.2,868,2256.8,868.1,2256.5,868.1z M2060.8,862c-0.3,0-0.6-0.1-0.8-0.3c-3.1-3-6.3-6.1-9.5-9.3  c-0.4-0.4-0.4-1.1,0-1.6c0.4-0.4,1.1-0.4,1.6,0c3.3,3.2,6.4,6.3,9.5,9.3c0.4,0.4,0.5,1.1,0,1.6C2061.3,861.9,2061.1,862,2060.8,862  z M1663.5,855.4c-0.5,0-1-0.4-1.1-0.9c-0.9-4.4-1.7-8.9-2.2-13.2c-0.1-0.6,0.4-1.2,1-1.2c0.6-0.1,1.2,0.4,1.2,1  c0.6,4.3,1.3,8.7,2.2,13c0.1,0.6-0.3,1.2-0.9,1.3C1663.7,855.4,1663.6,855.4,1663.5,855.4z M2271.4,846c-0.2,0-0.4,0-0.5-0.1  c-0.5-0.3-0.7-1-0.5-1.5c2.1-3.9,4-8,5.6-11.9c0.2-0.6,0.9-0.8,1.4-0.6c0.6,0.2,0.8,0.9,0.6,1.4c-1.6,4-3.6,8.1-5.7,12.2  C2272.2,845.8,2271.8,846,2271.4,846z M2041.7,843.4c-0.3,0-0.6-0.1-0.8-0.3c-3.1-3-6.3-6.1-9.6-9.2c-0.4-0.4-0.5-1.1,0-1.6  c0.4-0.4,1.1-0.5,1.6,0c3.3,3.2,6.5,6.2,9.6,9.3c0.4,0.4,0.4,1.1,0,1.6C2042.3,843.3,2042,843.4,2041.7,843.4z M1660.1,829.1  c-0.6,0-1.1-0.5-1.1-1.1c-0.1-2.1-0.1-4.2-0.1-6.2c0-2.4,0.1-4.8,0.2-7.2c0-0.6,0.6-1.1,1.2-1.1c0.6,0,1.1,0.6,1.1,1.2  c-0.1,2.3-0.2,4.7-0.2,7.1c0,2,0,4.1,0.1,6.2C1661.3,828.5,1660.8,829,1660.1,829.1C1660.2,829.1,1660.1,829.1,1660.1,829.1z   M2022.5,825.1c-0.3,0-0.5-0.1-0.8-0.3c-3.3-3.1-6.6-6.1-9.8-9c-0.5-0.4-0.5-1.1-0.1-1.6c0.4-0.5,1.1-0.5,1.6-0.1  c3.2,2.9,6.5,5.9,9.8,9c0.4,0.4,0.5,1.1,0.1,1.6C2023.1,824.9,2022.8,825.1,2022.5,825.1z M2281.2,821.3c-0.1,0-0.2,0-0.3,0  c-0.6-0.2-1-0.8-0.8-1.3c1.1-4.4,1.9-8.8,2.2-12.9c0-0.6,0.6-1.1,1.2-1c0.6,0,1.1,0.6,1,1.2c-0.4,4.3-1.1,8.8-2.3,13.3  C2282.2,821,2281.7,821.3,2281.2,821.3z M2002.7,807.3c-0.3,0-0.5-0.1-0.7-0.3c-3.3-2.9-6.8-5.8-10.1-8.6c-0.5-0.4-0.5-1.1-0.1-1.6  c0.4-0.5,1.1-0.5,1.6-0.1c3.4,2.8,6.8,5.7,10.2,8.6c0.5,0.4,0.5,1.1,0.1,1.6C2003.3,807.2,2003,807.3,2002.7,807.3z M1661.6,802.5  c-0.1,0-0.1,0-0.2,0c-0.6-0.1-1-0.7-0.9-1.3c0.7-4.5,1.7-8.9,2.9-13.1c0.2-0.6,0.8-0.9,1.4-0.8c0.6,0.2,0.9,0.8,0.8,1.4  c-1.2,4.1-2.1,8.4-2.8,12.9C1662.6,802.1,1662.1,802.5,1661.6,802.5z M2283.1,795c-0.5,0-1-0.4-1.1-1c-0.2-1.7-0.6-3.5-1-5.1  c-0.6-2.5-1.5-5-2.5-7.4c-0.2-0.6,0-1.2,0.6-1.4c0.6-0.2,1.2,0,1.4,0.6c1,2.5,1.9,5.1,2.6,7.7c0.4,1.7,0.8,3.5,1.1,5.3  c0.1,0.6-0.3,1.2-0.9,1.3C2283.2,795,2283.2,795,2283.1,795z M1982.2,790.3c-0.2,0-0.5-0.1-0.7-0.2c-3.4-2.7-7-5.5-10.5-8.2  c-0.5-0.4-0.6-1.1-0.2-1.6c0.4-0.5,1.1-0.6,1.6-0.2c3.5,2.7,7,5.5,10.5,8.2c0.5,0.4,0.6,1.1,0.2,1.6  C1982.9,790.1,1982.5,790.3,1982.2,790.3z M1668.9,777c-0.2,0-0.3,0-0.5-0.1c-0.6-0.2-0.8-0.9-0.6-1.5c1.9-4.3,4.1-8.2,6.5-11.8  c0.3-0.5,1-0.6,1.5-0.3c0.5,0.3,0.6,1,0.3,1.5c-2.4,3.5-4.5,7.3-6.3,11.5C1669.7,776.7,1669.3,777,1668.9,777z M1961.1,774.1  c-0.2,0-0.5-0.1-0.7-0.2c-2-1.5-4-2.9-6-4.4c-1.6-1.1-3.2-2.3-4.8-3.4c-0.5-0.4-0.6-1-0.3-1.5c0.4-0.5,1-0.6,1.5-0.3  c1.6,1.1,3.2,2.2,4.8,3.4c2,1.5,4.1,2.9,6,4.4c0.5,0.4,0.6,1.1,0.2,1.6C1961.8,773.9,1961.4,774.1,1961.1,774.1z M2273.3,770.5  c-0.4,0-0.7-0.2-0.9-0.5c-2.4-3.5-5.2-6.8-8.4-10c-0.4-0.4-0.4-1.1,0-1.6c0.4-0.4,1.1-0.4,1.6,0c3.3,3.2,6.2,6.7,8.7,10.3  c0.3,0.5,0.2,1.2-0.3,1.5C2273.7,770.4,2273.5,770.5,2273.3,770.5z M1939.3,758.9c-0.2,0-0.4-0.1-0.6-0.2  c-3.7-2.4-7.5-4.8-11.2-7.1c-0.5-0.3-0.7-1-0.4-1.5c0.3-0.5,1-0.7,1.5-0.4c3.8,2.3,7.6,4.7,11.3,7.1c0.5,0.3,0.7,1,0.3,1.5  C1940,758.7,1939.6,758.9,1939.3,758.9z M1683.7,755c-0.3,0-0.5-0.1-0.8-0.3c-0.4-0.4-0.5-1.1,0-1.6c2.9-3.1,6.3-6.2,9.8-9.2  c0.5-0.4,1.2-0.3,1.6,0.1c0.4,0.5,0.3,1.2-0.1,1.6c-3.5,2.9-6.7,5.9-9.6,9C1684.3,754.9,1684,755,1683.7,755z M2254.5,751.8  c-0.2,0-0.4-0.1-0.6-0.2c-3.5-2.5-7.2-4.8-11.2-6.9c-0.5-0.3-0.7-1-0.5-1.5c0.3-0.5,1-0.7,1.5-0.5c4.1,2.2,7.9,4.5,11.5,7.1  c0.5,0.4,0.6,1,0.3,1.5C2255.1,751.7,2254.8,751.8,2254.5,751.8z M1916.5,745c-0.2,0-0.4,0-0.5-0.1c-3.8-2.2-7.8-4.3-11.7-6.3  c-0.5-0.3-0.8-1-0.5-1.5c0.3-0.5,1-0.8,1.5-0.5c3.9,2,7.9,4.2,11.7,6.4c0.5,0.3,0.7,1,0.4,1.5C1917.3,744.8,1916.9,745,1916.5,745z   M2231,739.3c-0.1,0-0.3,0-0.4-0.1c-4-1.6-8.2-3-12.5-4.2c-0.6-0.2-0.9-0.8-0.8-1.4c0.2-0.6,0.8-0.9,1.4-0.8  c4.4,1.2,8.6,2.7,12.7,4.3c0.6,0.2,0.8,0.9,0.6,1.4C2231.9,739,2231.5,739.3,2231,739.3z M1704.1,737.9c-0.4,0-0.7-0.2-0.9-0.5  c-0.3-0.5-0.2-1.2,0.3-1.5c3.6-2.5,7.4-4.9,11.4-7.1c0.5-0.3,1.2-0.1,1.5,0.4c0.3,0.5,0.1,1.2-0.4,1.5c-3.9,2.2-7.7,4.6-11.2,7  C1704.5,737.9,1704.3,737.9,1704.1,737.9z M1892.9,732.7c-0.2,0-0.3,0-0.5-0.1c-4-1.9-8.1-3.8-12.1-5.5c-0.6-0.2-0.8-0.9-0.6-1.5  c0.2-0.6,0.9-0.8,1.5-0.6c4,1.8,8.1,3.6,12.1,5.6c0.6,0.3,0.8,0.9,0.5,1.5C1893.7,732.5,1893.3,732.7,1892.9,732.7z M2205.5,732  c-0.1,0-0.1,0-0.2,0c-4.3-0.8-8.7-1.4-13.1-1.8c-0.6-0.1-1.1-0.6-1-1.2c0.1-0.6,0.6-1.1,1.2-1c4.4,0.4,8.9,1,13.3,1.9  c0.6,0.1,1,0.7,0.9,1.3C2206.4,731.6,2206,732,2205.5,732z M2173.1,729.7c-0.6,0-1.1-0.5-1.1-1.1c0-0.6,0.4-1.1,1-1.2  c1.9-0.1,3.9-0.2,5.9-0.2c0,0,0,0,0,0c0.6,0,1.1,0.5,1.1,1.1c0,0.6-0.5,1.1-1.1,1.1C2177,729.5,2175.1,729.6,2173.1,729.7  C2173.1,729.7,2173.1,729.7,2173.1,729.7z M1727.2,724.7c-0.4,0-0.8-0.2-1-0.6c-0.3-0.6,0-1.2,0.5-1.5c4-1.9,8.1-3.7,12.3-5.4  c0.6-0.2,1.2,0,1.4,0.6c0.2,0.6,0,1.2-0.6,1.4c-4.1,1.7-8.2,3.5-12.1,5.3C1727.5,724.6,1727.3,724.7,1727.2,724.7z M1868.5,722.1  c-0.1,0-0.3,0-0.4-0.1c-4.2-1.6-8.4-3.2-12.4-4.6c-0.6-0.2-0.9-0.8-0.7-1.4c0.2-0.6,0.8-0.9,1.4-0.7c4.1,1.4,8.3,3,12.5,4.7  c0.6,0.2,0.9,0.9,0.6,1.4C1869.3,721.8,1868.9,722.1,1868.5,722.1z M1751.9,714.7c-0.5,0-0.9-0.3-1.1-0.8c-0.2-0.6,0.1-1.2,0.7-1.4  c4.3-1.4,8.6-2.7,12.9-3.7c0.6-0.1,1.2,0.2,1.3,0.8c0.2,0.6-0.2,1.2-0.8,1.3c-4.2,1.1-8.5,2.3-12.7,3.7  C1752.1,714.7,1752,714.7,1751.9,714.7z M1843.3,713.3c-0.1,0-0.2,0-0.3,0c-4.4-1.3-8.7-2.5-12.8-3.5c-0.6-0.1-1-0.7-0.8-1.3  c0.1-0.6,0.7-1,1.3-0.8c4.1,1,8.5,2.2,12.9,3.5c0.6,0.2,0.9,0.8,0.7,1.4C1844.3,713,1843.8,713.3,1843.3,713.3z M1777.7,708.2  c-0.5,0-1-0.4-1.1-0.9c-0.1-0.6,0.3-1.2,0.9-1.3c4.5-0.8,9-1.4,13.3-1.7c0.6,0,1.1,0.4,1.2,1c0.1,0.6-0.4,1.1-1,1.2  c-4.3,0.4-8.7,0.9-13.1,1.7C1777.8,708.2,1777.7,708.2,1777.7,708.2z M1817.5,707.1c-0.1,0-0.1,0-0.2,0c-4.1-0.6-8.5-1-13.1-1.1  c-0.6,0-1.1-0.5-1.1-1.1c0-0.6,0.5-1.1,1.1-1.1c4.7,0.1,9.2,0.5,13.4,1.1c0.6,0.1,1,0.7,0.9,1.3  C1818.5,706.7,1818,707.1,1817.5,707.1z"></path>	<g>		<path class="st2" d="M1723.4,441.3c-0.4,0-0.7-0.2-0.9-0.5c-0.4-0.5-0.2-1.2,0.3-1.5c34.8-24.3,73.6-40.1,115.5-47.2   c0.6-0.1,1.2,0.3,1.3,0.9c0.1,0.6-0.3,1.2-0.9,1.3c-41.5,7-80.1,22.7-114.6,46.8C1723.9,441.2,1723.6,441.3,1723.4,441.3z"></path>		<path class="st2" d="M1745.7,454.1c-0.4,0-0.7-0.2-0.9-0.5c-0.3-0.5-0.2-1.2,0.3-1.5c50.3-33.4,115.1-46.3,160.7-51.2   c0.6-0.1,1.2,0.4,1.2,1c0.1,0.6-0.4,1.2-1,1.2c-45.3,4.9-109.8,17.7-159.7,50.8C1746.2,454,1745.9,454.1,1745.7,454.1z"></path>	</g>	<g>		<path class="st2" d="M1555.8,899.4c-0.2,0-0.4-0.1-0.6-0.2c-0.5-0.3-0.7-1-0.3-1.5l4.8-7.2c0.3-0.5,1-0.7,1.5-0.3   c0.5,0.3,0.7,1,0.3,1.5l-4.8,7.2C1556.5,899.2,1556.2,899.4,1555.8,899.4z"></path>		<path class="st2" d="M1544.7,916.2c-0.2,0-0.4-0.1-0.6-0.2c-0.5-0.3-0.7-1-0.3-1.5l4.8-7.2c0.3-0.5,1-0.7,1.5-0.3   c0.5,0.3,0.7,1,0.3,1.5l-4.8,7.2C1545.5,916,1545.1,916.2,1544.7,916.2z"></path>		<path class="st2" d="M1547.9,901c-0.2,0-0.4-0.1-0.6-0.2l-7.2-4.8c-0.5-0.3-0.7-1-0.3-1.5c0.3-0.5,1-0.7,1.5-0.3l7.2,4.8   c0.5,0.3,0.7,1,0.3,1.5C1548.6,900.8,1548.2,901,1547.9,901z"></path>		<path class="st2" d="M1564.6,912.1c-0.2,0-0.4-0.1-0.6-0.2l-7.2-4.8c-0.5-0.3-0.7-1-0.3-1.5c0.3-0.5,1-0.7,1.5-0.3l7.2,4.8   c0.5,0.3,0.7,1,0.3,1.5C1565.4,911.9,1565,912.1,1564.6,912.1z"></path>	</g>	<g>		<path class="st2" d="M2380.6,690.6c-0.2,0-0.4-0.1-0.6-0.2c-0.5-0.3-0.7-1-0.3-1.5l4.8-7.2c0.3-0.5,1-0.7,1.5-0.3   c0.5,0.3,0.7,1,0.3,1.5l-4.8,7.2C2381.3,690.4,2380.9,690.6,2380.6,690.6z"></path>		<path class="st2" d="M2369.5,707.4c-0.2,0-0.4-0.1-0.6-0.2c-0.5-0.3-0.7-1-0.3-1.5l4.8-7.2c0.3-0.5,1-0.7,1.5-0.3   c0.5,0.3,0.7,1,0.3,1.5l-4.8,7.2C2370.2,707.2,2369.9,707.4,2369.5,707.4z"></path>		<path class="st2" d="M2372.6,692.2c-0.2,0-0.4-0.1-0.6-0.2l-7.2-4.8c-0.5-0.3-0.7-1-0.3-1.5c0.3-0.5,1-0.7,1.5-0.3l7.2,4.8   c0.5,0.3,0.7,1,0.3,1.5C2373.3,692,2373,692.2,2372.6,692.2z"></path>		<path class="st2" d="M2389.4,703.3c-0.2,0-0.4-0.1-0.6-0.2l-7.2-4.8c-0.5-0.3-0.7-1-0.3-1.5c0.3-0.5,1-0.7,1.5-0.3l7.2,4.8   c0.5,0.3,0.7,1,0.3,1.5C2390.1,703.1,2389.8,703.3,2389.4,703.3z"></path>	</g>	<path class="st2" d="M1546.3,855.2c-1.5,0-3.1-0.3-4.5-0.9c-3.2-1.2-5.7-3.7-7.1-6.9c-2.8-6.5,0.1-14.1,6.5-17  c3.1-1.4,6.5-1.5,9.6-0.2c3.2,1.2,5.7,3.7,7.1,6.9c2.8,6.5-0.1,14.1-6.5,17C1549.8,854.9,1548,855.2,1546.3,855.2z M1546.3,831.6  c-1.4,0-2.9,0.3-4.2,0.9c-5.3,2.4-7.7,8.7-5.4,14.1c1.1,2.6,3.2,4.7,5.8,5.7c2.6,1,5.4,0.9,7.9-0.2c5.3-2.4,7.7-8.7,5.4-14.1  c-1.1-2.6-3.2-4.7-5.8-5.7C1548.8,831.9,1547.5,831.6,1546.3,831.6z M1541.6,831.5L1541.6,831.5L1541.6,831.5z"></path>	<path class="st2" d="M2354.7,643.1c-1.3,0-2.6-0.2-3.8-0.7c-2.7-1-4.8-3.1-6-5.8c-2.4-5.5,0.1-11.9,5.5-14.3  c2.6-1.2,5.5-1.2,8.1-0.2c2.7,1,4.8,3.1,6,5.8c2.4,5.5-0.1,11.9-5.5,14.3C2357.7,642.8,2356.2,643.1,2354.7,643.1z M2354.7,623.6  c-1.2,0-2.3,0.2-3.4,0.7c0,0,0,0,0,0c-4.3,1.9-6.2,7-4.3,11.4c0.9,2.1,2.6,3.8,4.7,4.6c2.1,0.8,4.4,0.8,6.4-0.2  c4.3-1.9,6.2-7,4.3-11.4c-0.9-2.1-2.6-3.8-4.7-4.6C2356.8,623.7,2355.7,623.6,2354.7,623.6z M2350.9,623.3L2350.9,623.3  L2350.9,623.3z"></path>	<g>		<g>			<path class="st6" d="M1695.4,1189.9C1695.4,1189.9,1695.4,1189.9,1695.4,1189.9h-10.4c0,0,0,0,0,0c-4.2,0-7.7,10.1-7.7,22.5    c0,12.4,3.4,22.5,7.7,22.5c0,0,0,0,0,0h10.3c0,0,0,0,0,0c4.2,0,7.7-10.1,7.7-22.5S1699.7,1189.9,1695.4,1189.9z"></path>			<path class="st2" d="M1695.4,1236.1h-10.4c-5.7,0-8.8-12.2-8.8-23.6c0-11.5,3.1-23.6,8.8-23.6h10.4c5.7,0,8.8,12.2,8.8,23.6    S1701.1,1236.1,1695.4,1236.1z M1685.1,1191c-3.1,0-6.6,9.2-6.6,21.4c0,12.3,3.5,21.4,6.6,21.4h10.4c3.1,0,6.6-9.2,6.6-21.4    c0-12.3-3.5-21.4-6.6-21.4H1685.1z"></path>		</g>	</g>	<g>		<polygon class="st6" points="1776,1223.5 1776,1072.5 1568.5,1099.2 1568.5,1214.2   "></polygon>		<path class="st2" d="M1776,1224.6C1776,1224.6,1776,1224.6,1776,1224.6l-207.6-9.2c-0.6,0-1.1-0.5-1.1-1.1v-115c0-0.6,0.4-1,1-1.1   l207.6-26.7c0.3,0,0.6,0.1,0.9,0.3c0.2,0.2,0.4,0.5,0.4,0.8v151c0,0.3-0.1,0.6-0.3,0.8C1776.6,1224.5,1776.3,1224.6,1776,1224.6z    M1569.6,1213.2l205.4,9.1v-148.6l-205.4,26.4V1213.2z"></path>	</g>	<g>		<path class="st6" d="M1749.3,1184.6l6.5,6.1l-1.8,40.9c-0.1,2.3,1.8,4.3,4.1,4.3h36.6v-51.2L1749.3,1184.6z"></path>		<path class="st2" d="M1794.7,1237h-36.6c-1.4,0-2.8-0.6-3.8-1.6c-1-1-1.5-2.4-1.5-3.9l1.7-40.4l-6.1-5.7c-0.3-0.3-0.4-0.8-0.3-1.2   c0.2-0.4,0.6-0.7,1-0.7c0,0,0,0,0,0l45.4,0.1c0.6,0,1.1,0.5,1.1,1.1v51.2C1795.8,1236.5,1795.3,1237,1794.7,1237z M1752.1,1185.8   l4.4,4.1c0.2,0.2,0.4,0.5,0.4,0.9l-1.8,40.9c0,0.8,0.3,1.6,0.8,2.2c0.6,0.6,1.3,0.9,2.2,0.9h35.5v-48.9L1752.1,1185.8z"></path>	</g>	<g>		<rect x="1742" y="1029.9" class="st6" width="121" height="156.1"></rect>		<path class="st2" d="M1863,1187.1h-121c-0.6,0-1.1-0.5-1.1-1.1v-156.1c0-0.6,0.5-1.1,1.1-1.1h121c0.6,0,1.1,0.5,1.1,1.1V1186   C1864.1,1186.6,1863.6,1187.1,1863,1187.1z M1743.1,1184.9h118.8V1031h-118.8V1184.9z"></path>	</g>	<path class="st2" d="M1863,1187.1h-19.3c-0.6,0-1.1-0.5-1.1-1.1s0.5-1.1,1.1-1.1h18.2V1031h-118.8v155c0,0.6-0.5,1.1-1.1,1.1  s-1.1-0.5-1.1-1.1v-156.1c0-0.6,0.5-1.1,1.1-1.1h121c0.6,0,1.1,0.5,1.1,1.1V1186C1864.1,1186.6,1863.6,1187.1,1863,1187.1z"></path>	<g>		<path class="st2" d="M1786.5,1199.4C1786.5,1199.4,1786.5,1199.4,1786.5,1199.4h-12c0,0,0,0,0,0c-4.9,0-8.9,11.7-8.9,26   s4,26,8.9,26c0,0,0,0,0,0h12c0,0,0,0,0,0c4.9,0,8.9-11.7,8.9-26C1795.4,1211.1,1791.4,1199.4,1786.5,1199.4z"></path>		<g>			<ellipse class="st6" cx="1774.5" cy="1225.1" rx="8.9" ry="26"></ellipse>			<path class="st2" d="M1774.5,1252.2c-6.5,0-10-14-10-27.1s3.5-27.1,10-27.1c6.5,0,10,14,10,27.1S1781,1252.2,1774.5,1252.2z     M1774.5,1200.2c-3.7,0-7.8,10.2-7.8,24.9s4.1,24.9,7.8,24.9c3.7,0,7.8-10.2,7.8-24.9S1778.2,1200.2,1774.5,1200.2z"></path>		</g>	</g>	<g>		<path class="st6" d="M1749,1076.8l-0.4,108.4l4.1,3.4c1.5,1.3,2.3,3.2,2.2,5.1l-1.7,39.1c-0.1,1.7,1.2,3.1,2.9,3.1   c1.3,0,2.4,0,2.4,0c0-24.4,4.6-44.4,10.5-44.4s10.7,19.8,10.7,44.2c0,0.1,14.2,0.3,14.2,0.3v-158.6L1749,1076.8z"></path>		<path class="st2" d="M1756.9,1237c-0.2,0-0.5,0-0.7,0c-1.1,0-2.1-0.4-2.9-1.2c-0.8-0.8-1.2-1.9-1.1-3l1.7-39.1   c0.1-1.6-0.6-3.2-1.9-4.2l-4.1-3.4c-0.3-0.2-0.4-0.5-0.4-0.9l0.4-108.4c0-0.3,0.1-0.6,0.3-0.8c0.2-0.2,0.5-0.3,0.8-0.3l45,0.5   c0.6,0,1.1,0.5,1.1,1.1v158.6c0,0.3-0.1,0.6-0.3,0.8c-0.2,0.2-0.5,0.3-0.8,0.3c0,0-3.5,0-7.1-0.1c-8.2-0.1-8.2-0.1-8.2-1.3   c0-25.4-5.1-43.1-9.6-43.1c-4.4,0-9.4,17.8-9.4,43.3c0,0.3-0.1,0.6-0.3,0.8C1759,1237,1759,1237,1756.9,1237z M1749.7,1184.7   l3.7,3.1c1.8,1.5,2.7,3.7,2.6,6l-1.7,39.1c0,0.5,0.2,1,0.5,1.3c0.3,0.4,0.8,0.6,1.3,0.6c0.6,0,1,0,1.3,0   c0.1-22.3,4.1-44.4,11.6-44.4c7.6,0,11.7,22.6,11.8,44.2c2.2,0.1,7.7,0.1,12,0.2v-156.4l-42.8-0.4L1749.7,1184.7z"></path>	</g>	<path class="st2" d="M1794,1237C1794,1237,1794,1237,1794,1237c0,0-3.6,0-7.1-0.1c-8.2-0.1-8.2-0.1-8.2-1.3  c0-19.6-3.1-36.8-7.6-41.9c-0.4-0.5-0.4-1.2,0.1-1.6c0.5-0.4,1.2-0.4,1.6,0.1c4.8,5.4,8,22.3,8.2,42.3c2.4,0.1,8.7,0.2,13.1,0.2  c0.6,0,1.1,0.5,1.1,1.1C1795.1,1236.5,1794.6,1237,1794,1237z"></path>	<g>		<path class="st2" d="M1884.2,1198.2C1884.2,1198.2,1884.2,1198.2,1884.2,1198.2h-12c0,0,0,0,0,0c-4.9,0-8.9,11.7-8.9,26   s4,26,8.9,26h0h12c0,0,0,0,0,0c4.9,0,8.9-11.7,8.9-26C1893.1,1209.8,1889.1,1198.2,1884.2,1198.2z"></path>		<g>			<ellipse class="st6" cx="1872.2" cy="1224" rx="8.9" ry="26.2"></ellipse>			<path class="st2" d="M1872.2,1251.3c-6.5,0-10-14.1-10-27.3c0-13.2,3.5-27.3,10-27.3s10,14.1,10,27.3    C1882.2,1237.2,1878.7,1251.3,1872.2,1251.3z M1872.2,1198.9c-3.7,0-7.8,10.3-7.8,25.1c0,14.8,4.1,25.1,7.8,25.1    s7.8-10.3,7.8-25.1C1880,1209.2,1875.9,1198.9,1872.2,1198.9z"></path>		</g>	</g>	<g>		<path class="st6" d="M1894.9,1077h-100.1v158.9h108.6c3.2,0,5.9-2.6,5.9-5.9v-51c0-14.2-1.2-28.3-3.7-42.2L1894.9,1077z"></path>		<path class="st2" d="M1903.4,1237h-108.6c-0.6,0-1.1-0.5-1.1-1.1V1077c0-0.6,0.5-1.1,1.1-1.1h100.1c0.5,0,1,0.4,1.1,0.9l10.6,59.9   c2.5,14,3.7,28.2,3.7,42.4v51C1910.4,1233.9,1907.2,1237,1903.4,1237z M1795.9,1234.8h107.5c2.6,0,4.8-2.2,4.8-4.8v-51   c0-14.1-1.2-28.2-3.7-42l-10.5-58.9h-98V1234.8z"></path>	</g>	<g>		<path class="st6" d="M1778,1148.3l5.3,0.9c1.7,0.3,3.3-1,3.3-2.8v-32.9c0-2.2-1.8-4.1-4-4.1h-7.3c-1.9,0-3.4,1.5-3.4,3.4v28.2   C1771.9,1144.6,1774.5,1147.7,1778,1148.3z"></path>		<path class="st2" d="M1783.8,1150.3c-0.2,0-0.4,0-0.7-0.1l-5.3-0.9c-4.1-0.7-7.1-4.2-7.1-8.4v-28.2c0-2.5,2-4.5,4.5-4.5h7.3   c2.8,0,5.1,2.3,5.1,5.2v32.9c0,1.2-0.5,2.3-1.4,3C1785.6,1150,1784.7,1150.3,1783.8,1150.3z M1775.2,1110.5c-1.2,0-2.3,1-2.3,2.3   v28.2c0,3.1,2.2,5.7,5.2,6.2l5.3,0.9c0.5,0.1,1-0.1,1.4-0.4c0.4-0.3,0.6-0.8,0.6-1.4v-32.9c0-1.6-1.3-3-2.9-3H1775.2z"></path>	</g>	<polygon class="st6" points="1742,1186 1742,1029.9 1558.4,1052.1 1558.4,1186.1  "></polygon>	<path class="st6" d="M1881.3,1076.7h-132l5.9-27.8c1.1-5.3,6.1-9.1,11.8-9.1h99.5c4.5,0,8.3,3,9.1,7.2L1881.3,1076.7z"></path>	<path class="st6" d="M1875.7,1046.9c-0.8-4.1-4.6-7.2-9.1-7.2h-99.5c-2.7,0-5.2,0.9-7.3,2.3l43.1,34.6h78.3L1875.7,1046.9z"></path>	<path class="st6" d="M1795.8,1072c-0.2,0-0.5-0.1-0.7-0.2l-30.2-24.2c-0.5-0.4-0.6-1.1-0.2-1.6c0.4-0.5,1.1-0.6,1.6-0.2l30.2,24.2  c0.5,0.4,0.6,1.1,0.2,1.6C1796.5,1071.9,1796.1,1072,1795.8,1072z"></path>	<path class="st2" d="M1881.3,1077.8h-132c-0.3,0-0.7-0.2-0.9-0.4c-0.2-0.3-0.3-0.6-0.2-0.9l5.9-27.8c1.2-5.7,6.5-9.8,12.9-10  l99.5,0c5,0,9.3,3.4,10.2,8.1l5.6,29.7c0.1,0.3,0,0.7-0.2,0.9C1882,1077.6,1881.6,1077.8,1881.3,1077.8z M1750.7,1075.6H1880  l-5.4-28.4c-0.7-3.6-4.1-6.3-8-6.3h-99.5c-5.3,0.2-9.7,3.5-10.7,8.2L1750.7,1075.6z"></path>	<g>		<g>			<path class="st6" d="M1808.9,1106.3h78c3.7,0,6.8,2.7,7.5,6.3l6.6,38c0.6,3.7-2.2,7-5.9,7h-87.8c-3.3,0-6-2.7-6-6v-37.7    C1801.4,1109.7,1804.8,1106.3,1808.9,1106.3z"></path>			<path d="M1895.1,1158.8h-87.8c-3.9,0-7.1-3.2-7.1-7.1v-37.7c0-4.8,3.9-8.7,8.7-8.7h78c4.2,0,7.8,3,8.6,7.2l6.6,38    c0.4,2.1-0.2,4.2-1.6,5.8C1899.2,1157.8,1897.2,1158.8,1895.1,1158.8z M1808.9,1107.4c-3.6,0-6.5,2.9-6.5,6.5v37.7    c0,2.7,2.2,4.9,4.8,4.9h87.8c1.4,0,2.8-0.6,3.7-1.7c0.9-1.1,1.3-2.6,1.1-4l-6.6-38c-0.5-3.1-3.2-5.4-6.4-5.4H1808.9z"></path>		</g>		<g>			<path class="st6" d="M1860.4,1142.6c-4.6-4.7-10.8-7.3-17.3-7.3h-41.8v16.3c0,3.3,2.7,5.9,6,5.9h87.8c3.7,0,6.5-3.3,5.9-7    l-0.1-0.6h-23.2C1871.1,1149.9,1864.9,1147.3,1860.4,1142.6z"></path>			<path class="st2" d="M1895.1,1158.7h-87.8c-3.9,0-7.1-3.1-7.1-7v-16.3c0-0.6,0.5-1.1,1.1-1.1h41.8c6.7,0,13.3,2.8,18.1,7.6    c4.3,4.4,10.3,7,16.5,7h23.2c0.5,0,1,0.4,1.1,0.9l0.1,0.6c0.4,2.1-0.2,4.2-1.5,5.8C1899.2,1157.7,1897.2,1158.7,1895.1,1158.7z     M1802.4,1136.4v15.2c0,2.6,2.2,4.8,4.9,4.8h87.8c1.4,0,2.8-0.6,3.7-1.7c0.9-1,1.3-2.3,1.1-3.7h-22.3c-6.7,0-13.3-2.8-18.1-7.6    c-4.3-4.4-10.3-7-16.5-7H1802.4z"></path>		</g>		<path class="st2" d="M1895.1,1158.8h-87.8c-3.9,0-7.1-3.2-7.1-7.1v-37.7c0-4.8,3.9-8.7,8.7-8.7h78c4.2,0,7.8,3,8.6,7.2l6.6,38   c0.4,2.1-0.2,4.2-1.6,5.8C1899.2,1157.8,1897.2,1158.8,1895.1,1158.8z M1808.9,1107.4c-3.6,0-6.5,2.9-6.5,6.5v37.7   c0,2.7,2.2,4.9,4.8,4.9h87.8c1.4,0,2.8-0.6,3.7-1.7c0.9-1.1,1.3-2.6,1.1-4l-6.6-38c-0.5-3.1-3.2-5.4-6.4-5.4H1808.9z"></path>	</g>	<g>		<path class="st2" d="M1721.6,1193.7C1721.6,1193.7,1721.6,1193.7,1721.6,1193.7H1710h0c-4.8,0-8.6,11.4-8.6,25.4   s3.9,25.4,8.6,25.4h0h11.6c0,0,0,0,0,0c4.8,0,8.6-11.4,8.6-25.4S1726.4,1193.7,1721.6,1193.7z"></path>		<g>			<ellipse class="st6" cx="1710" cy="1218.8" rx="8.6" ry="25.3"></ellipse>			<path class="st2" d="M1710,1245.2c-6.3,0-9.7-13.6-9.7-26.4c0-12.8,3.4-26.4,9.7-26.4c6.3,0,9.7,13.6,9.7,26.4    C1719.7,1231.6,1716.3,1245.2,1710,1245.2z M1710,1194.6c-3.6,0-7.5,9.9-7.5,24.2c0,14.2,4,24.2,7.5,24.2s7.5-9.9,7.5-24.2    C1717.5,1204.6,1713.5,1194.6,1710,1194.6z"></path>		</g>	</g>	<g>		<path class="st2" d="M1594.4,1190.5C1594.4,1190.5,1594.4,1190.5,1594.4,1190.5h-10c0,0,0,0,0,0c-4.1,0-7.4,9.5-7.4,21.3   c0,11.8,3.3,21.3,7.4,21.3c0,0,0,0,0,0h10c0,0,0,0,0,0c4.1,0,7.4-9.5,7.4-21.3C1601.8,1200,1598.5,1190.5,1594.4,1190.5z"></path>		<g>			<ellipse class="st6" cx="1584.4" cy="1211.4" rx="7.4" ry="21.4"></ellipse>			<path class="st2" d="M1584.4,1233.9c-5.5,0-8.5-11.6-8.5-22.5c0-10.9,3-22.5,8.5-22.5c5.5,0,8.5,11.6,8.5,22.5    C1592.9,1222.3,1589.9,1233.9,1584.4,1233.9z M1584.4,1191.2c-3,0-6.3,8.7-6.3,20.3c0,11.6,3.3,20.3,6.3,20.3    c3,0,6.3-8.7,6.3-20.3C1590.7,1199.8,1587.4,1191.2,1584.4,1191.2z"></path>		</g>	</g>	<g>		<path class="st2" d="M1613.3,1191.8C1613.3,1191.8,1613.3,1191.8,1613.3,1191.8h-10h0c-4.1,0-7.4,9.5-7.4,21.3   c0,11.8,3.3,21.3,7.4,21.3h0h10c0,0,0,0,0,0c4.1,0,7.4-9.5,7.4-21.3C1620.7,1201.3,1617.4,1191.8,1613.3,1191.8z"></path>		<g>			<ellipse class="st6" cx="1603.3" cy="1212.7" rx="7.4" ry="21.4"></ellipse>			<path class="st2" d="M1603.3,1235.2c-5.5,0-8.5-11.6-8.5-22.5s3-22.5,8.5-22.5s8.5,11.6,8.5,22.5S1608.8,1235.2,1603.3,1235.2z     M1603.3,1192.4c-3,0-6.3,8.7-6.3,20.3s3.3,20.3,6.3,20.3s6.3-8.7,6.3-20.3S1606.3,1192.4,1603.3,1192.4z"></path>		</g>	</g>	<g>		<path class="st2" d="M1633,1191.8C1633,1191.8,1633,1191.8,1633,1191.8h-10.4c0,0,0,0,0,0c-4.2,0-7.7,10.1-7.7,22.5   c0,12.4,3.4,22.5,7.7,22.5c0,0,0,0,0,0h10.3c0,0,0,0,0,0c4.2,0,7.7-10.1,7.7-22.5C1640.7,1201.9,1637.3,1191.8,1633,1191.8z"></path>		<g>			<ellipse class="st6" cx="1622.7" cy="1214" rx="7.7" ry="22.5"></ellipse>			<path class="st2" d="M1622.7,1237.6c-5.7,0-8.8-12.2-8.8-23.6s3.1-23.6,8.8-23.6c5.7,0,8.8,12.2,8.8,23.6    S1628.4,1237.6,1622.7,1237.6z M1622.7,1192.6c-3.1,0-6.6,9.1-6.6,21.4s3.5,21.4,6.6,21.4c3.1,0,6.6-9.1,6.6-21.4    S1625.8,1192.6,1622.7,1192.6z"></path>		</g>	</g>	<g>		<g>			<path class="st6" d="M1823.7,1218.5h-14.1c-2.4,0-4.4-2-4.4-4.4v-7.9h11.1c3.8,0,7.1,2.4,8.4,6l1.1,3.2    C1826.4,1216.9,1825.3,1218.5,1823.7,1218.5z"></path>			<path class="st2" d="M1823.7,1219.6h-14.1c-3,0-5.5-2.5-5.5-5.5v-7.9c0-0.6,0.5-1.1,1.1-1.1h11.1c4.2,0,8,2.7,9.4,6.7l1.1,3.2    c0.4,1.1,0.2,2.2-0.4,3.1C1825.9,1219.1,1824.8,1219.6,1823.7,1219.6z M1806.4,1207.3v6.8c0,1.8,1.5,3.3,3.3,3.3h14.1    c0.4,0,0.8-0.2,1-0.5c0.2-0.3,0.3-0.7,0.2-1.1l-1.1-3.2c-1.1-3.1-4-5.2-7.3-5.2H1806.4z"></path>		</g>		<g>			<path class="st6" d="M1882.3,1217.7h14.1c2.4,0,4.4-2,4.4-4.4v-7.9h-11.1c-3.8,0-7.1,2.4-8.4,6l-1.1,3.2    C1879.6,1216.1,1880.7,1217.7,1882.3,1217.7z"></path>			<path class="st2" d="M1896.4,1218.8h-14.1c-1.1,0-2.2-0.5-2.8-1.4c-0.6-0.9-0.8-2.1-0.4-3.1l1.1-3.2c1.4-4,5.2-6.7,9.4-6.7h11.1    c0.6,0,1.1,0.5,1.1,1.1v7.9C1901.9,1216.3,1899.4,1218.8,1896.4,1218.8z M1889.7,1206.5c-3.3,0-6.3,2.1-7.3,5.2l-1.1,3.2    c-0.1,0.4-0.1,0.8,0.2,1.1c0.2,0.3,0.6,0.5,1,0.5h14.1c1.8,0,3.3-1.5,3.3-3.3v-6.8H1889.7z"></path>		</g>	</g>	<g>		<path class="st6" d="M1872.3,1226.9h-37.1c-1.9,0-3.7-1-4.6-2.7l-1.6-2.9c-0.6-1,0.1-2.2,1.3-2.2h47c1.1,0,1.8,1.2,1.3,2.2   l-1.6,2.9C1875.9,1225.9,1874.2,1226.9,1872.3,1226.9z"></path>		<path class="st2" d="M1872.3,1228h-37.1c-2.3,0-4.4-1.2-5.6-3.3l-1.6-2.9c-0.5-0.8-0.5-1.8,0-2.6c0.5-0.8,1.3-1.3,2.2-1.3h47   c0.9,0,1.8,0.5,2.2,1.3c0.5,0.8,0.5,1.8,0,2.6l-1.6,2.9C1876.7,1226.7,1874.6,1228,1872.3,1228z M1830.2,1220.2   c-0.2,0-0.3,0.1-0.3,0.2c0,0.1-0.1,0.2,0,0.4l1.6,2.9c0.7,1.3,2.1,2.1,3.6,2.1h37.1c1.5,0,2.9-0.8,3.6-2.1l1.6-2.9   c0.1-0.2,0-0.3,0-0.4c0-0.1-0.1-0.2-0.3-0.2H1830.2z"></path>	</g>	<g>		<path class="st6" d="M1773.7,1144.5L1773.7,1144.5c-5,0-9.1-4.1-9.1-9.1V1122c0-3.9,3.1-7,7-7h2.1c1.8,0,3.2,1.4,3.2,3.2v23.2   C1776.9,1143.1,1775.5,1144.5,1773.7,1144.5z"></path>		<path class="st2" d="M1774.8,1145.6h-4.1c-4,0-7.2-3.2-7.2-7.2v-18.8c0-3.2,2.6-5.8,5.8-5.8h5.4c1.8,0,3.2,1.5,3.2,3.2v25.3   C1778,1144.2,1776.6,1145.6,1774.8,1145.6z M1769.3,1116.1c-2,0-3.6,1.6-3.6,3.6v18.8c0,2.7,2.2,5,5,5h4.1c0.5,0,1-0.4,1-1v-25.3   c0-0.6-0.5-1-1-1H1769.3z"></path>	</g>	<g>		<path class="st6" d="M1913.9,1145.8L1913.9,1145.8c-1.1,0-2-0.9-2-2v-28.3c0-0.9,0.7-1.5,1.5-1.5h3.1c2.8,0,5,2.2,5,5v19.3   C1921.5,1142.4,1918.1,1145.8,1913.9,1145.8z"></path>		<path class="st2" d="M1916.4,1146.9h-3.2c-1.4,0-2.4-1.1-2.4-2.4v-29.5c0-1.2,1-2.1,2.1-2.1h5.3c2.4,0,4.4,2,4.4,4.4v23.5   C1922.6,1144.1,1919.8,1146.9,1916.4,1146.9z M1913,1115v29.4c0,0.1,0.1,0.2,0.2,0.2h3.2c2.2,0,4-1.8,4-4v-23.5   c0-1.2-1-2.2-2.2-2.2H1913z"></path>	</g>	<g>		<g>			<path class="st6" d="M1901.4,1172.7h-98.2c-0.6,0-1,0.5-1,1v6.4c0,2.2,1.8,3.9,3.9,3.9h3c1.5,0,2.9,0.9,3.6,2.3l3.1,6.6    c2.7,5.8,8.4,9.5,14.8,9.5h46.6c6.3,0,12.1-3.7,14.8-9.5l3.1-6.6c0.6-1.4,2-2.3,3.6-2.3c2.2,0,3.9-1.8,3.9-3.9v-6.4    C1902.5,1173.2,1902,1172.7,1901.4,1172.7z"></path>			<path class="st2" d="M1877.1,1203.7h-46.6c-6.7,0-12.9-4-15.8-10.1l-3.1-6.6c-0.5-1-1.5-1.6-2.5-1.6h-3c-2.8,0-5-2.3-5-5.1v-6.4    c0-1.2,1-2.1,2.1-2.1h98.2c1.2,0,2.1,1,2.1,2.1v6.4c0,2.8-2.3,5.1-5,5.1c-1.1,0-2.1,0.6-2.5,1.6l-3.1,6.6    C1890.1,1199.7,1883.9,1203.7,1877.1,1203.7z M1803.3,1173.8l0.1,6.4c0,1.6,1.3,2.8,2.8,2.8h3c2,0,3.7,1.1,4.6,2.9l3.1,6.6    c2.5,5.4,7.9,8.8,13.8,8.8h46.6c5.9,0,11.3-3.5,13.8-8.8l3.1-6.6c0.8-1.8,2.6-2.9,4.6-2.9c1.6,0,2.8-1.3,2.8-2.8v-6.4H1803.3z     M1901.4,1173.8L1901.4,1173.8L1901.4,1173.8z"></path>		</g>	</g>	<path class="st2" d="M1558.4,1187.3c-0.3,0-0.6-0.1-0.8-0.3c-0.2-0.2-0.3-0.5-0.3-0.8v-134.1c0-0.6,0.4-1,1-1.1l183.6-22.2  c0.3,0,0.6,0.1,0.9,0.3c0.2,0.2,0.4,0.5,0.4,0.8v155.7c0,0.6-0.5,1.1-1.1,1.1L1558.4,1187.3  C1558.4,1187.3,1558.4,1187.3,1558.4,1187.3z M1742,1185.7L1742,1185.7L1742,1185.7z M1559.5,1053v132l181.3-0.5v-153.4  L1559.5,1053z"></path>	<g>		<path class="st2" d="M1572.9,1175.5c-0.6,0-1.1-0.5-1.1-1.1v-110.5c0-0.6,0.5-1.1,1.1-1.1s1.1,0.5,1.1,1.1v110.5   C1574,1175,1573.5,1175.5,1572.9,1175.5z"></path>		<path class="st2" d="M1591.8,1175.5c-0.6,0-1.1-0.5-1.1-1.1v-112.6c0-0.6,0.5-1.1,1.1-1.1s1.1,0.5,1.1,1.1v112.6   C1592.9,1175,1592.4,1175.5,1591.8,1175.5z"></path>		<path class="st2" d="M1610.7,1175.5c-0.6,0-1.1-0.5-1.1-1.1v-114.7c0-0.6,0.5-1.1,1.1-1.1c0.6,0,1.1,0.5,1.1,1.1v114.7   C1611.8,1175,1611.3,1175.5,1610.7,1175.5z"></path>		<path class="st2" d="M1629.6,1175.5c-0.6,0-1.1-0.5-1.1-1.1v-117.2c0-0.6,0.5-1.1,1.1-1.1s1.1,0.5,1.1,1.1v117.2   C1630.7,1175,1630.2,1175.5,1629.6,1175.5z"></path>		<path class="st2" d="M1648.5,1175.5c-0.6,0-1.1-0.5-1.1-1.1v-119.1c0-0.6,0.5-1.1,1.1-1.1c0.6,0,1.1,0.5,1.1,1.1v119.1   C1649.6,1175,1649.1,1175.5,1648.5,1175.5z"></path>		<path class="st2" d="M1667.4,1175.5c-0.6,0-1.1-0.5-1.1-1.1v-122.1c0-0.6,0.5-1.1,1.1-1.1c0.6,0,1.1,0.5,1.1,1.1v122.1   C1668.5,1175,1668,1175.5,1667.4,1175.5z"></path>		<path class="st2" d="M1686.3,1175.5c-0.6,0-1.1-0.5-1.1-1.1v-123.8c0-0.6,0.5-1.1,1.1-1.1s1.1,0.5,1.1,1.1v123.8   C1687.4,1175,1686.9,1175.5,1686.3,1175.5z"></path>		<path class="st2" d="M1705.1,1175.5c-0.6,0-1.1-0.5-1.1-1.1V1048c0-0.6,0.5-1.1,1.1-1.1c0.6,0,1.1,0.5,1.1,1.1v126.3   C1706.3,1175,1705.8,1175.5,1705.1,1175.5z"></path>		<path class="st2" d="M1724,1175.5c-0.6,0-1.1-0.5-1.1-1.1V1046c0-0.6,0.5-1.1,1.1-1.1c0.6,0,1.1,0.5,1.1,1.1v128.4   C1725.2,1175,1724.7,1175.5,1724,1175.5z"></path>	</g>	<g>		<g>			<polygon class="st2" points="2335.8,1220.5 2340.4,1252.7 2350.3,1252.7 2350.9,1221.1    "></polygon>			<path class="st7" d="M2350.3,1253.8h-9.9c-0.6,0-1-0.4-1.1-1l-4.6-32.1c0-0.3,0.1-0.7,0.3-0.9c0.2-0.2,0.5-0.4,0.9-0.4l15,0.5    c0.6,0,1.1,0.5,1.1,1.1l-0.6,31.6C2351.4,1253.3,2350.9,1253.8,2350.3,1253.8z M2341.4,1251.5h7.9l0.5-29.4l-12.6-0.4    L2341.4,1251.5z"></path>		</g>		<g>			<path class="st2" d="M2340,1283.4c4.7,0.5,12.5,0.8,21.5-0.7c3-0.5,4.8-3.5,4-6.4c-2.3-8.1-7.2-23.3-13.3-30.3l-1.3,3.9l-2.1-3.6    c-0.3-0.5-0.8-0.8-1.4-0.9l-4.5-0.4c-0.9-0.1-1.8,0.6-1.9,1.5l-0.6,3.4l-1.7-4.4l-3.2,32.3    C2335.3,1280.6,2337.3,1283.1,2340,1283.4z"></path>			<path class="st7" d="M2348.1,1284.9c-3.2,0-6-0.2-8.2-0.4c-3.3-0.4-5.8-3.4-5.5-6.7l3.2-32.3c0.1-0.5,0.4-0.9,1-1    c0.5-0.1,1,0.2,1.2,0.7l0.3,0.7c0.4-1.2,1.7-2.1,3-1.9l4.5,0.4c0.9,0.1,1.7,0.6,2.2,1.4l0.9,1.5l0.6-1.7c0.1-0.4,0.4-0.7,0.8-0.7    c0.4-0.1,0.8,0.1,1,0.4c6.3,7.1,11.2,22.3,13.5,30.7c0.5,1.7,0.2,3.5-0.7,5c-0.9,1.5-2.5,2.5-4.2,2.8    C2356.7,1284.6,2352.1,1284.9,2348.1,1284.9z M2339.4,1250.3l-2.7,27.6c-0.2,2.1,1.4,4.1,3.5,4.3c4.8,0.5,12.4,0.8,21.2-0.7    c1.1-0.2,2.1-0.8,2.7-1.8c0.6-1,0.8-2.1,0.5-3.2c-2.2-7.7-6.5-21.1-11.8-28.3l-0.7,2c-0.1,0.4-0.5,0.7-0.9,0.7    c-0.4,0-0.8-0.2-1.1-0.5l-2.1-3.6c-0.1-0.2-0.3-0.3-0.5-0.3l-4.5-0.4c-0.4,0-0.7,0.2-0.7,0.6l-0.6,3.4c-0.1,0.5-0.5,0.9-1,0.9    C2340,1251.1,2339.6,1250.8,2339.4,1250.3L2339.4,1250.3z"></path>		</g>		<path class="st7" d="M2351.3,1279.4c-6.8,0-12-1.3-12.4-1.4c-0.6-0.1-1-0.8-0.8-1.3c0.1-0.6,0.7-1,1.3-0.8c0.1,0,11.7,2.9,22.6,0   c0.6-0.2,1.2,0.2,1.4,0.8c0.2,0.6-0.2,1.2-0.8,1.4C2358.7,1279.1,2354.8,1279.4,2351.3,1279.4z"></path>		<path class="st7" d="M2355.3,1266.9h-10.6c-0.6,0-1.1-0.5-1.1-1.1s0.5-1.1,1.1-1.1h10.6c0.6,0,1.1,0.5,1.1,1.1   S2355.9,1266.9,2355.3,1266.9z"></path>		<g>			<polygon class="st2" points="2251.8,1223.4 2247.7,1260.8 2231.9,1264.1 2232.9,1220.2    "></polygon>			<path class="st7" d="M2231.9,1265.2c-0.3,0-0.5-0.1-0.7-0.3c-0.3-0.2-0.4-0.5-0.4-0.9l1-43.9c0-0.3,0.2-0.6,0.4-0.8    c0.2-0.2,0.6-0.3,0.9-0.2l18.9,3.2c0.6,0.1,1,0.6,0.9,1.2l-4.1,37.4c-0.1,0.5-0.4,0.9-0.9,1l-15.7,3.3    C2232.1,1265.2,2232,1265.2,2231.9,1265.2z M2234,1221.5l-0.9,41.2l13.6-2.8l3.9-35.6L2234,1221.5z"></path>		</g>		<g>			<path class="st2" d="M2254.3,1280.5c0,0,2-18-3.6-26.2l-12.6,4.5v-2.7c0-0.9-0.6-1.6-1.4-1.6l-7-0.4c-2.6-0.2-5.2,0.4-7.6,1.6    c-8.4,4.1-27.8,14.8-27.2,25C2194.9,1280.6,2210.1,1284.4,2254.3,1280.5z"></path>			<path class="st7" d="M2218.6,1283.4c-16.9,0-23.6-1.6-24-1.7c-0.5-0.1-0.8-0.5-0.8-1c-0.6-10.5,17.1-20.9,27.8-26.1    c2.6-1.3,5.4-1.8,8.2-1.7l7,0.4c1.4,0.1,2.5,1.3,2.5,2.7v1.1l11.1-4c0.5-0.2,1,0,1.3,0.4c5.8,8.5,3.9,26.2,3.8,27    c-0.1,0.5-0.5,0.9-1,1C2239.3,1282.9,2227.5,1283.4,2218.6,1283.4z M2196,1279.7c3.7,0.7,20.1,3,57.3-0.2    c0.3-3.6,1.1-16.9-3.1-23.9l-11.8,4.2c-0.3,0.1-0.7,0.1-1-0.1c-0.3-0.2-0.5-0.5-0.5-0.9v-2.7c0-0.3-0.2-0.5-0.4-0.5l-7-0.4    c-2.4-0.1-4.9,0.4-7.1,1.5C2216.3,1259.6,2196.6,1270.1,2196,1279.7z M2254.3,1280.5L2254.3,1280.5L2254.3,1280.5z"></path>		</g>		<path class="st7" d="M2232.9,1277.8c-18.8,0-33.2-2.9-33.4-2.9c-0.6-0.1-1-0.7-0.9-1.3c0.1-0.6,0.7-1,1.3-0.9   c0.2,0,24.8,4.9,51.6,1.8c0.6-0.1,1.2,0.4,1.2,1c0.1,0.6-0.4,1.2-1,1.2C2245.3,1277.5,2238.8,1277.8,2232.9,1277.8z"></path>		<path class="st7" d="M2217.9,1268.3c-0.3,0-0.7-0.2-0.9-0.5c-0.4-0.5-0.2-1.2,0.3-1.5l12.1-8.7c0.5-0.4,1.2-0.2,1.5,0.3   c0.4,0.5,0.2,1.2-0.3,1.5l-12.1,8.7C2218.4,1268.2,2218.1,1268.3,2217.9,1268.3z"></path>		<g>			<path class="st8" d="M2246.9,980.5c0,0-22.6,143.6-17.8,247l25.1,0.7c0,0,26.9-145.8,40.4-171.8c0,0,36.5,132.9,37.9,170.7    c0,0,16.3,1.6,22.7-0.7c3.5-36.5,4.5-67.6,4.7-91.3c0.5-67.9-6-98.7-9.5-113.4c-3.3-13.4-6.8-24.4-9.3-31.7l-8.5-24.4    L2246.9,980.5z"></path>			<path class="st7" d="M2254.2,1229.2C2254.2,1229.2,2254.2,1229.2,2254.2,1229.2l-25.2-0.7c-0.6,0-1.1-0.5-1.1-1.1    c-4.8-102.3,17.6-245.8,17.8-247.2c0.1-0.5,0.4-0.8,0.9-0.9l85.6-15c0.5-0.1,1.1,0.2,1.2,0.7l8.5,24.4    c3.6,10.4,6.8,21.1,9.4,31.8c4.3,17.9,10.1,49.1,9.6,113.6c-0.2,30.2-1.8,60.9-4.7,91.4c0,0.4-0.3,0.8-0.7,0.9    c-6.6,2.4-22.5,0.8-23.2,0.8c-0.6-0.1-1-0.5-1-1.1c-1.3-34.2-31.7-147.8-37.1-167.6c-13.6,31.7-38.8,167.4-39,168.8    C2255.2,1228.8,2254.8,1229.2,2254.2,1229.2z M2230.2,1226.4l23.1,0.6c2.5-13.6,27.4-146.1,40.3-171.2c0.2-0.4,0.7-0.6,1.1-0.6    c0.5,0,0.8,0.4,1,0.8c0.4,1.3,36,131.2,37.9,170c3.4,0.3,15,1.1,20.6-0.5c2.9-30.1,4.4-60.6,4.6-90.5    c0.5-64.3-5.2-95.4-9.5-113.1c-2.6-10.7-5.7-21.3-9.3-31.6l-8.2-23.5l-83.9,14.7C2246.1,993,2225.8,1128.3,2230.2,1226.4z"></path>		</g>		<path class="st7" d="M2293.3,1054.4c-0.5,0-0.9-0.3-1.1-0.8l-3.7-14.3l-8.9-1.8c-0.6-0.1-1-0.7-0.9-1.3c0.1-0.6,0.7-1,1.3-0.9   l9.6,2c0.4,0.1,0.7,0.4,0.9,0.8l3.9,15c0.2,0.6-0.2,1.2-0.8,1.4C2293.5,1054.3,2293.4,1054.4,2293.3,1054.4z"></path>	</g>	<g>		<path class="st7" d="M2249.1,853.1c14.7-1.7,45.8-4.6,67.7-2.8c6.7,0.6,13.1,3.2,18.3,7.5c15.5,13.1,49.2,46,49.6,84.9l-34.5-5   c0,0,12.2,43.6,11.3,50.6c-0.8,7-22.2,18.9-48.9,9.2c-26.7-9.8-65.1-8.6-77.6,0l-1.2-53.8h-52.5c0,0,17.4-56.5,51-83.7   C2237.2,856.1,2243,853.8,2249.1,853.1z"></path>		<g>			<path class="st2" d="M2181.4,943.7c0,0-4.1,18.8,14.6,24.4c18.7,5.6,36.4-28.3,36.4-28.3l-13-7.5L2181.4,943.7z"></path>			<path class="st7" d="M2200.3,969.9c-1.5,0-3.1-0.2-4.6-0.7c-19.4-5.9-15.4-25.5-15.3-25.7c0.1-0.4,0.4-0.7,0.8-0.8l38-11.5    c0.3-0.1,0.6-0.1,0.9,0.1l13,7.5c0.5,0.3,0.7,0.9,0.4,1.5C2232.7,941.6,2217.7,969.9,2200.3,969.9z M2182.4,944.6    c-0.5,3.3-1.9,17.7,13.9,22.5c1.3,0.4,2.6,0.6,3.9,0.6c14.5,0,27.9-22.5,30.6-27.4l-11.6-6.7L2182.4,944.6z"></path>		</g>		<g>			<path class="st4" d="M2302.5,986.5h-91.7c-2.3,0-4.3-1.6-4.9-3.8l-18.5-74.7c-0.8-3.2,1.6-6.3,4.9-6.3h91.7    c2.3,0,4.3,1.6,4.9,3.8l18.5,74.7C2308.2,983.4,2305.8,986.5,2302.5,986.5z"></path>			<path class="st2" d="M2302.5,987.6h-91.7c-2.8,0-5.3-1.9-6-4.7l-18.5-74.7c-0.5-1.9,0-3.8,1.1-5.3c1.2-1.5,2.9-2.4,4.9-2.4h91.7    c2.8,0,5.3,1.9,6,4.7l18.5,74.7c0.5,1.9,0,3.8-1.1,5.3C2306.2,986.7,2304.4,987.6,2302.5,987.6z M2192.3,902.8    c-1.2,0-2.4,0.6-3.1,1.5c-0.8,1-1,2.2-0.7,3.4l18.5,74.7c0.4,1.8,2,3,3.8,3h91.7c1.2,0,2.4-0.6,3.1-1.5c0.8-1,1-2.2,0.7-3.4    l-18.5-74.7c-0.4-1.8-2-3-3.8-3H2192.3z"></path>		</g>		<g>			<path class="st2" d="M2194.1,938.8l2.7,7.5l22.1-10.5c0,0,12.1,10.5-17.3,24C2189.4,965.4,2194.1,938.8,2194.1,938.8z"></path>			<path class="st7" d="M2198.6,961.7c-1.2,0-2.2-0.3-3.1-1c-5.4-4.2-2.7-20.2-2.4-22c0.1-0.5,0.5-0.9,1-0.9c0.5,0,1,0.3,1.1,0.7    l2.3,6.3l21-10c0.4-0.2,0.9-0.1,1.2,0.2c0.1,0.1,3.5,3.1,2.8,7.9c-0.9,6.1-7.7,12.2-20.3,17.9    C2200.8,961.4,2199.6,961.7,2198.6,961.7z M2194.6,943.5c-0.6,5.6-0.6,13.2,2.2,15.4c1,0.8,2.4,0.8,4.3-0.1    c14.7-6.7,18.5-12.5,19-16.2c0.4-2.7-0.8-4.6-1.5-5.4l-21.3,10.2c-0.3,0.1-0.6,0.1-0.9,0c-0.3-0.1-0.5-0.4-0.6-0.6L2194.6,943.5z    "></path>		</g>		<g>			<path class="st2" d="M2323.9,900.8c0,0,41.2,23.1,49.7,30.4c8.5,7.3,17.7,12.8,5.7,28.7c-12,15.9-63.1-47.8-63.1-47.8    s-9.8,1.6-13.2-11.7c0,0-16.6,0.6-17.2-4.6l23.4-4.2c3-0.5,6.1,0.5,8.3,2.6L2323.9,900.8z"></path>			<path class="st7" d="M2374.1,963.6c-17,0-53.9-44.9-58.3-50.3c-2.4,0.1-10.3-0.5-13.6-11.8c-4.2,0.1-16.8-0.2-17.4-5.6    c-0.1-0.6,0.3-1.1,0.9-1.2l23.4-4.2c3.4-0.6,6.8,0.5,9.3,3l6.3,6.4c3.1,1.7,41.4,23.3,49.8,30.5c0.7,0.6,1.3,1.1,2,1.7    c7.7,6.4,15.6,13,3.9,28.5c-1.5,1.9-3.5,2.9-6,3C2374.2,963.6,2374.1,963.6,2374.1,963.6z M2316.3,911c0.3,0,0.7,0.1,0.9,0.4    c0.4,0.5,40.3,49.9,56.9,49.9c0,0,0.1,0,0.1,0c1.9,0,3.3-0.7,4.3-2.1c10.4-13.8,4.2-19-3.6-25.5c-0.7-0.5-1.3-1.1-2-1.7    c-8.3-7.1-49.1-30.1-49.6-30.3c-0.1-0.1-0.2-0.1-0.3-0.2l-6.4-6.6c-1.9-1.9-4.6-2.8-7.3-2.3l-22,3.9c2.1,2.1,10,2.9,15.5,2.7    c0.5,0,1,0.3,1.1,0.8c3.1,12.2,11.6,11,12,10.9C2316.1,911,2316.2,911,2316.3,911z"></path>		</g>	</g>	<g>		<path class="st7" d="M2265.7,826.2c-0.7,1.3,0.8,3.8,0.8,3.8c0,0-0.7-7.3-4.8-9.2c-2.4-1.1-3.6,0.7-7.1,0.2   c-3.7-0.5-7.9-3.3-9.4-7.4c-1.9-4.9,0.8-9.6,2.5-12.5c1.7-2.9,3.8-6.2,7.6-7.6c4.9-1.8,6.9,1,12.5-0.7c4.5-1.4,4.2-3.6,8.2-4.7   c3.4-1,13-0.4,15.2,4.7c1.4,3.3-1.6,5.3-0.1,10.1c0.9,2.9,2.3,3.3,3.3,5.5c2.5,5.6-0.6,15.3-6.7,18.6   C2279.5,831.4,2267.5,823.1,2265.7,826.2z"></path>		<g>			<path class="st2" d="M2269.2,830.1l-1.9,15.6c-0.4,3-2.5,5.4-5.4,6.2l-8,2.1l24.8,18.8l27.8-21.1l-10-2.2    c-2.9-0.6-5.1-2.9-5.6-5.8l-4.1-23L2269.2,830.1z"></path>			<path class="st7" d="M2278.6,873.9c-0.2,0-0.5-0.1-0.7-0.2l-24.8-18.8c-0.3-0.3-0.5-0.7-0.4-1.1c0.1-0.4,0.4-0.7,0.8-0.9l8-2.1    c2.5-0.6,4.3-2.7,4.6-5.2l1.9-15.6c0-0.4,0.3-0.7,0.6-0.8l17.5-9.4c0.3-0.2,0.7-0.2,1,0c0.3,0.2,0.5,0.5,0.6,0.8l4.1,23    c0.4,2.5,2.3,4.4,4.7,4.9l10,2.2c0.4,0.1,0.8,0.4,0.8,0.8c0.1,0.4-0.1,0.9-0.4,1.1l-27.8,21.1    C2279.1,873.9,2278.9,873.9,2278.6,873.9z M2256.4,854.5l22.3,17l25.2-19.1l-7.6-1.7c-3.3-0.7-5.8-3.4-6.4-6.7l-3.9-21.5    l-15.7,8.4l-1.8,15c-0.4,3.4-2.9,6.2-6.2,7.1L2256.4,854.5z"></path>		</g>		<g>			<path class="st2" d="M2284.7,823.8c0,0,6.2-2.3,3.8-7.4c-2.3-5.1-6.1-1.3-6.1-1.3s-3.5-12.5-10.9-7.6c-7.4,4.9-14.3,6.7-14.3,6.7    s2.6,12.6,7.2,21c2.8,5.1,6.4,8.6,10.6,6.9C2286.6,837.5,2284.7,823.8,2284.7,823.8z"></path>			<path class="st7" d="M2273,843.7c-2.7,0-6-1.7-9.4-7.9c-4.7-8.5-7.3-20.8-7.4-21.3c-0.1-0.6,0.2-1.1,0.8-1.3    c0.1,0,6.9-1.8,14-6.6c2-1.4,4-1.7,5.9-1c3.3,1.2,5.3,5.4,6.2,7.7c0.8-0.4,1.8-0.8,3-0.6c1.5,0.3,2.6,1.4,3.5,3.3    c0.8,1.7,0.8,3.2,0.2,4.7c-0.8,2-2.8,3.3-3.9,3.8c0.2,3.2,0.1,14.4-10.4,18.7C2274.8,843.5,2273.9,843.7,2273,843.7z M2258.6,815    c0.7,3.1,3.1,12.9,6.9,19.7c3,5.5,6.1,7.6,9.2,6.4c10.6-4.3,9-17,8.9-17.1c-0.1-0.5,0.2-1,0.7-1.2c0,0,2.6-1,3.4-3    c0.4-0.9,0.3-1.9-0.2-2.9c-0.5-1.2-1.2-1.9-1.9-2c-1-0.2-2.1,0.7-2.4,1c-0.3,0.3-0.7,0.4-1.1,0.3c-0.4-0.1-0.7-0.4-0.8-0.8    c-0.5-1.8-2.4-6.7-5.3-7.7c-1.2-0.4-2.4-0.2-3.9,0.8C2266.4,812.4,2260.9,814.3,2258.6,815z"></path>		</g>	</g></g><g class="st11">	<rect x="409" y="-1.1" class="st12" width="277.3" height="347.3"></rect>	<rect x="409" y="1330.8" class="st12" width="277.3" height="347.3"></rect></g></svg>