<svg xmlns="http://www.w3.org/2000/svg" width="275" height="70" viewBox="0 0 275 70" fill="none"><path d="M210.261 42.9811C210.261 42.9811 209.977 47.1465 204.96 47.1465C199.942 47.1465 199.563 42.9811 199.563 42.9811V30.4847C199.563 30.4847 199.942 14.959 216.32 14.959C230.71 14.959 231.846 30.4847 231.846 30.4847V42.9811C231.846 42.9811 231.278 47.1465 226.734 47.1465C222.189 47.1465 221.053 42.9811 221.053 42.9811V30.4847C221.053 30.4847 220.485 25.7513 215.468 25.7513C211.208 25.9406 210.261 30.4847 210.261 30.4847V42.9811Z" fill="#000000"></path><path d="M188.611 13.6625C188.611 11.3063 185.74 9.84766 185.74 9.84766H190.095H194.45C194.45 9.84766 191.579 11.3063 191.579 13.6625C191.579 16.0187 194.45 17.4212 194.45 17.4212H185.74C185.74 17.4212 188.611 16.0187 188.611 13.6625Z" fill="#000000"></path><circle cx="190.094" cy="7.00851" r="5.30148" fill="#000000"></circle><rect x="184.793" y="14.9609" width="10.603" height="32.1876" rx="5.30148" fill="#000000"></rect><rect x="236.961" y="0.00195312" width="10.603" height="47.1453" rx="5.30148" fill="#000000"></rect><rect x="261.434" y="6.62891" width="10.603" height="36.5423" rx="5.30148" transform="rotate(42.0477 261.434 6.62891)" fill="#000000"></rect><rect width="10.603" height="36.5423" rx="5.30148" transform="matrix(-0.5 0.866025 0.866025 0.5 241.313 21.3965)" fill="#000000"></rect><path d="M24.8968 42.9791C24.8968 42.9791 24.6128 47.1446 19.5954 47.1446C14.5779 47.1446 14.1992 42.9791 14.1992 42.9791V30.4828C14.1992 30.4828 14.5779 14.957 30.9557 14.957C45.3454 14.957 46.4814 30.4828 46.4814 30.4828V42.9791C46.4814 42.9791 45.9134 47.1446 41.3693 47.1446C36.8252 47.1446 35.6891 42.9791 35.6891 42.9791V30.4828C35.6891 30.4828 35.1211 25.7493 30.1037 25.7493C25.8435 25.9387 24.8968 30.4828 24.8968 30.4828V42.9791Z" fill="#ffffff"></path><path d="M46.4818 42.9791C46.4818 42.9791 46.1978 47.1446 41.1803 47.1446C36.1629 47.1446 35.7842 42.9791 35.7842 42.9791V30.4828C35.7842 30.4828 36.1629 14.957 52.5406 14.957C66.9304 14.957 68.0664 30.4828 68.0664 30.4828V42.9791C68.0664 42.9791 67.4984 47.1446 62.9543 47.1446C58.4101 47.1446 57.2741 42.9791 57.2741 42.9791V30.4828C57.2741 30.4828 56.7061 25.7493 51.6886 25.7493C47.4285 25.9387 46.4818 30.4828 46.4818 30.4828V42.9791Z" fill="#ffffff"></path><circle cx="87.8547" cy="31.053" r="11.3603" stroke="#ffffff" stroke-width="10.603"></circle><path d="M7.63945 21.2643C6.71084 21.8004 5.50661 21.4854 5.12823 20.4821C4.35957 18.444 4.1599 16.2214 4.5704 14.057C5.10225 11.2528 6.62302 8.73271 8.85607 6.95509C11.0891 5.17747 13.8861 4.26048 16.7381 4.37093C18.9394 4.45618 21.0607 5.14912 22.8745 6.35518C23.7674 6.94889 23.8044 8.1931 23.0737 8.97785V8.97785C22.343 9.7626 21.1213 9.78103 20.1844 9.25944C19.0892 8.64971 17.8583 8.30024 16.5879 8.25104C14.6653 8.17658 12.7798 8.79474 11.2744 9.99306C9.76911 11.1914 8.74393 12.8902 8.3854 14.7806C8.14849 16.0297 8.21307 17.3077 8.56171 18.5117C8.85996 19.5416 8.56806 20.7281 7.63945 21.2643V21.2643Z" fill="#ffffff"></path><path d="M12.3317 19.3542C11.5653 19.7966 10.5641 19.5349 10.3145 18.6859C10.0151 17.6675 9.95815 16.5852 10.1588 15.5275C10.4597 13.9406 11.3203 12.5145 12.584 11.5086C13.8476 10.5027 15.4304 9.98376 17.0443 10.0463C18.1201 10.0879 19.1621 10.386 20.0874 10.9062C20.8588 11.3398 20.8894 12.3742 20.2863 13.0218V13.0218C19.6833 13.6695 18.6646 13.6595 17.8184 13.4006C17.5289 13.312 17.2272 13.2604 16.9203 13.2485C16.0734 13.2157 15.2429 13.488 14.5798 14.0158C13.9168 14.5437 13.4652 15.292 13.3073 16.1247C13.25 16.4264 13.2327 16.732 13.2541 17.0339C13.3167 17.9167 13.098 18.9117 12.3317 19.3542V19.3542Z" fill="#ffffff"></path><path d="M15.9011 20.1897C15.3904 20.4846 14.7221 20.3098 14.565 19.7414C14.3948 19.1255 14.3659 18.4742 14.4867 17.8372C14.6744 16.8475 15.2111 15.958 15.9993 15.3306C16.7874 14.7032 17.7746 14.3795 18.7812 14.4185C19.4291 14.4436 20.0573 14.6178 20.6194 14.9218C21.138 15.2024 21.1586 15.8929 20.7567 16.3244V16.3244C20.3549 16.756 19.672 16.7439 19.0984 16.6072C18.968 16.5761 18.8342 16.5576 18.6986 16.5523C18.2031 16.5331 17.7172 16.6925 17.3292 17.0013C16.9413 17.3101 16.6771 17.7479 16.5847 18.2351C16.5594 18.3684 16.5474 18.503 16.5485 18.637C16.5531 19.2267 16.4118 19.8949 15.9011 20.1897V20.1897Z" fill="#ffffff"></path><rect x="107.732" y="0.00195312" width="10.603" height="47.1453" rx="5.30148" fill="#ffffff"></rect><circle cx="124.394" cy="31.0549" r="11.3603" stroke="#ffffff" stroke-width="10.603"></circle><path d="M165.861 19.1224C165.861 19.1224 166.145 14.957 171.162 14.957C176.18 14.957 176.559 19.1224 176.559 19.1224V31.6188C176.559 31.6188 176.18 47.1445 159.802 47.1445C145.412 47.1445 144.276 31.6188 144.276 31.6188V19.1224C144.276 19.1224 144.844 14.957 149.389 14.957C153.933 14.957 155.069 19.1224 155.069 19.1224V31.6188C155.069 31.6188 155.637 36.3522 160.654 36.3522C164.914 36.1629 165.861 31.6188 165.861 31.6188V19.1224Z" fill="#ffffff"></path><path d="M172.835 57.152C172.835 59.5082 175.706 60.9668 175.706 60.9668H171.351H166.996C166.996 60.9668 169.867 59.5082 169.867 57.152C169.867 54.7958 166.996 53.3933 166.996 53.3933H175.706C175.706 53.3933 172.835 54.7958 172.835 57.152Z" fill="#ffffff"></path><circle cx="171.349" cy="63.8079" r="5.30148" transform="rotate(180 171.349 63.8079)" fill="#ffffff"></circle><rect x="166.05" y="15.1465" width="10.603" height="40.7078" rx="5.30148" fill="#ffffff"></rect><path d="M185.84 62.6016H188.406C191.393 62.6016 193.041 60.9916 193.041 58.2245C193.041 55.3378 191.443 53.7153 188.418 53.7153H185.84V62.6016ZM187.437 61.1362V55.1806H188.393C190.582 55.1806 191.443 56.0485 191.443 58.1553C191.443 60.3753 190.211 61.1362 188.249 61.1362H187.437ZM194.952 55.1303H196.562V53.7153H194.952V55.1303ZM194.99 62.6016H196.524V56.3189H194.99V62.6016ZM202.071 61.5199H200.744C200.461 61.5199 199.819 61.5199 199.819 60.9664C199.819 60.8092 199.87 60.6457 200.039 60.5262C200.417 60.7149 200.863 60.8218 201.354 60.8218C202.756 60.8218 203.901 59.935 203.901 58.5452C203.901 58.1553 203.813 57.7905 203.643 57.4635L204.561 56.7277L203.775 55.7466L202.813 56.5705C202.41 56.3315 201.92 56.1868 201.354 56.1868C199.907 56.1868 198.788 57.1302 198.788 58.4949C198.788 58.9728 198.926 59.4068 199.165 59.7652C198.618 60.1049 198.392 60.6143 198.392 61.1174C198.392 61.8154 198.813 62.262 199.222 62.5198L198.36 62.8594C198.297 63.0166 198.26 63.2053 198.26 63.438C198.26 64.8656 199.794 65.4882 201.454 65.4882C203.41 65.4882 204.328 64.6392 204.328 63.3751C204.328 61.8783 203.052 61.5199 202.071 61.5199ZM201.379 57.4006C202.046 57.4006 202.423 57.8974 202.423 58.52C202.423 59.1364 202.046 59.6017 201.379 59.6017C200.693 59.6017 200.322 59.1364 200.322 58.52C200.322 57.8974 200.693 57.4006 201.379 57.4006ZM201.354 64.3122C199.687 64.3122 199.687 63.6329 199.687 63.4128V63.2682L200.228 62.8091H201.454C202.083 62.8091 202.857 62.8091 202.857 63.5009C202.857 64.0858 202.303 64.3122 201.354 64.3122ZM206.095 55.1303H207.705V53.7153H206.095V55.1303ZM206.133 62.6016H207.667V56.3189H206.133V62.6016ZM212.239 62.7273C212.698 62.7273 213.151 62.6267 213.383 62.5387V61.1488C213.176 61.2494 212.83 61.3752 212.509 61.3752C212.107 61.3752 211.811 61.1991 211.811 60.5954V57.6019H213.383V56.3189H211.811V53.665L210.302 54.7592V56.3189H209.264V57.6019H210.277V60.8658C210.277 62.0104 211.013 62.7273 212.239 62.7273ZM217.672 56.1868C216.433 56.1868 215.634 56.7403 215.031 57.5641L216.207 58.4131C216.477 57.954 216.961 57.5264 217.685 57.5264C218.685 57.5264 218.961 57.9226 218.993 58.8534H217.288C215.88 58.8534 214.785 59.3062 214.785 60.6709C214.785 61.9852 215.779 62.7273 217.068 62.7273C217.785 62.7273 218.622 62.4129 219.03 61.7651L219.125 62.6016H220.389V58.7905C220.389 57.256 219.383 56.1868 217.672 56.1868ZM217.376 61.4318C216.691 61.4318 216.358 61.1362 216.358 60.7212C216.358 60.325 216.678 59.9602 217.376 59.9602H218.999V60.0105C218.905 60.7526 218.32 61.4318 217.376 61.4318ZM223.822 62.7273C224.187 62.7273 224.646 62.6645 224.967 62.6016V61.3123C224.803 61.3375 224.633 61.3501 224.545 61.3501C224.237 61.3501 224.042 61.2243 224.042 60.9287V53.7153H222.508V61.3501C222.508 62.4569 223.099 62.7273 223.822 62.7273ZM237.393 53.7153L235.034 60.0357L232.676 53.7153H230.525V62.6016H232.06V55.9667L234.261 61.828H235.808L238.009 55.9667V62.6016H239.543V53.7153H237.393ZM244.706 62.7273C246.649 62.7273 247.926 61.2243 247.926 59.4445C247.926 57.671 246.649 56.1868 244.706 56.1868C242.763 56.1868 241.486 57.671 241.486 59.4445C241.486 61.2243 242.763 62.7273 244.706 62.7273ZM244.706 61.4067C243.549 61.4067 243.084 60.4759 243.084 59.4445C243.084 58.4131 243.549 57.5138 244.706 57.5138C245.87 57.5138 246.329 58.4131 246.329 59.4445C246.329 60.4759 245.87 61.4067 244.706 61.4067ZM249.687 62.6016H251.221V59.1615C251.221 58.0672 251.762 57.6019 252.623 57.6019C253.41 57.6019 253.825 58.1993 253.825 59.0232V62.6016H255.359V58.8282C255.359 57.5138 254.711 56.1868 253.064 56.1868C252.447 56.1868 251.724 56.4321 251.221 57.0484V56.3189H249.687V62.6016ZM257.535 62.6016H259.069V60.7589L260.038 59.6898L261.88 62.6016H263.692L261.082 58.7527L263.434 56.3189H261.44L259.069 58.9288V53.7153H257.535V62.6016ZM266.961 62.7273C268.15 62.7273 269.414 62.0859 269.414 60.6331C269.414 58.3251 266.219 58.8911 266.219 57.9415C266.219 57.6459 266.527 57.4006 267.03 57.4006C267.71 57.4006 268.062 57.8094 268.276 58.1993L269.464 57.5515C268.986 56.7025 268.162 56.1868 267.081 56.1868C265.867 56.1868 264.748 56.8157 264.748 58.1427C264.748 60.3627 267.905 59.652 267.905 60.7086C267.905 61.0419 267.596 61.457 266.886 61.457C266.049 61.457 265.716 60.8784 265.546 60.4256L264.326 60.9664C264.634 61.9349 265.641 62.7273 266.961 62.7273ZM271.659 62.6016H273.199V60.9413H271.659V62.6016Z" fill="#000000"></path></svg>