<svg xmlns="http://www.w3.org/2000/svg" xmlns:xlink="http://www.w3.org/1999/xlink" id="Layer_1" x="0px" y="0px" viewBox="0 0 2560 1677" style="enable-background:new 0 0 2560 1677;" xml:space="preserve"><style type="text/css">	.st0{fill:#172063;}	.st1{fill:url(#SVGID_1_);}	.st2{fill:url(#SVGID_00000004547100052727176800000006247844834632724364_);}	.st3{fill:#FFFFFF;}	.st4{fill:#2D2D2D;}	.st5{fill:#1E1E1E;}	.st6{fill:#0D6EFD;}	.st7{fill:url(#SVGID_00000149369723247424680450000014429413457563396012_);}	.st8{fill:#262526;}	.st9{fill:#0067E2;}	.st10{fill:#1F85FF;}	.st11{fill:#0D77F7;}	.st12{display:none;}	.st13{display:inline;fill:#2D2D2D;}</style><g>	<rect x="-1.5" y="-1.1" class="st0" width="2563.1" height="1679.2"></rect>			<linearGradient id="SVGID_1_" gradientUnits="userSpaceOnUse" x1="474.1007" y1="1210.6396" x2="-285.965" y2="2132.293" gradientTransform="matrix(1 0 0 -1 0 1679)">		<stop offset="0" style="stop-color:#121A24;stop-opacity:0"></stop>		<stop offset="0.5804" style="stop-color:#25272A;stop-opacity:0.5804"></stop>		<stop offset="1" style="stop-color:#2D2D2D"></stop>	</linearGradient>	<polygon class="st1" points="998.1,-1.1 -0.6,-1.1 -0.6,997.6  "></polygon>			<linearGradient id="SVGID_00000072274055035170853030000003917837667913201055_" gradientUnits="userSpaceOnUse" x1="726.1508" y1="76.6896" x2="-33.9149" y2="998.3428" gradientTransform="matrix(-1 0 0 1 2812.9502 1131.9501)">		<stop offset="0" style="stop-color:#121A24;stop-opacity:0"></stop>		<stop offset="0.5804" style="stop-color:#25272A;stop-opacity:0.5804"></stop>		<stop offset="1" style="stop-color:#2D2D2D"></stop>	</linearGradient>	<polygon style="fill:url(#SVGID_00000072274055035170853030000003917837667913201055_);" points="1562.8,1678.1 2561.5,1678.1   2561.5,679.4  "></polygon></g><g>	<g>		<path class="st3" d="M1796.5,717c4.5,19.3,3.7,43,3.7,43l-17.4,6.8c0,0-10.7,44,56.7,30.5c13.1-2.6,51-31.4,51-31.4l-30-8.6   c0,0-2.9-43.6-4-65.2C1840.6,699.4,1815.4,711.1,1796.5,717z"></path>		<path class="st4" d="M1816.4,801c-13,0-22.6-3.2-28.6-9.4c-9.7-10.1-6.4-24.5-6.2-25.1c0.1-0.4,0.4-0.7,0.7-0.8l16.7-6.5   c0.1-4.3,0.3-25-3.7-41.9c-0.1-0.6,0.2-1.2,0.8-1.4c19.6-6.1,46.7-18.8,59.8-24.8c0.4-0.2,0.8-0.1,1.1,0.1c0.3,0.2,0.6,0.6,0.6,1   c1,19.7,3.6,58.2,4,64.4l29.2,8.3c0.4,0.1,0.8,0.5,0.8,0.9c0.1,0.4-0.1,0.9-0.4,1.2c-1.6,1.2-38.3,29-51.5,31.6   C1831,800.2,1823.2,801,1816.4,801z M1783.7,767.6c-0.5,2.7-2,14.2,5.8,22.3c8.6,8.9,25.3,11,49.6,6.1c11-2.2,40.8-23.9,48.6-29.7   l-27.7-7.9c-0.5-0.1-0.8-0.6-0.9-1.1c0-0.4-2.7-41.5-3.9-63.5c-13.4,6.2-38.6,17.9-57.4,23.9c4.2,19,3.5,42,3.4,42.3   c0,0.5-0.3,0.9-0.8,1.1L1783.7,767.6z M1800.1,760L1800.1,760L1800.1,760z"></path>	</g>	<g>		<g>			<path class="st4" d="M1755.2,595.8c-6.2,1.5-12.3-4.8-12.4-11.3c-0.1-6.6,4.5-12.6,10.2-15.4c5.7-2.9,12.2-3.2,18.6-4.1    c-2.4-6.4,0.6-14.1,5.9-18.2c5.3-4.1,12.3-5.1,18.8-4.3c4.3,0.5,8.6,1.8,12,4.6c3.4,2.8,5.7,7.3,5.5,12.1    c5.7-7.2,14.9-12,23.6-9.9c8.7,2.1,15.2,12.7,15.9,20c4.2-5.2,9.8-9.5,16.3-9.1c12.9,0.7,15.8,11.7,10,25.8    c6.9-3.4,17.1-0.4,20.4,9.6c2.4,7.4-0.3,19.3-5.5,25.1c-0.9,1-2.2,2-3.8,2.9c-2,11.1-4.5,22.6-8.3,37.2    c-2.7,10.5-7.5,22.2-13.1,31.8c-2.6,4.5-4.7,6.7-10,9.2c-0.3-4.6-5.1-6.8-5.8-11.4c-0.9-5.6,2.7-10.5-0.7-15.5    c-6.4-9.4-10.8-19.8-12.9-30.4c-1.7-8.7-1.7-17.9,2.4-26c1.5-2.9,3.6-5.6,6.1-7.9c-1.1-2.3-2-4.6-2.7-6.8    c-3.8,6.5-6.6,11-16,14.1c-6.9,2.3-15.1-0.5-17.5-7.1c-1.5,6.7-11.8,16.1-18.3,16.7c-6.5,0.7-8.9-2.3-11.6-8.6    c-5.8,5.1-10.1,10.3-16,12.6c-9,3.4-20.1-2.2-23.1-11.7C1740.3,610.2,1746,598.7,1755.2,595.8z"></path>			<path class="st4" d="M1859.4,702.8c-0.2,0-0.4-0.1-0.6-0.2c-0.3-0.2-0.6-0.6-0.6-0.9c-0.1-2-1.3-3.6-2.6-5.3    c-1.3-1.7-2.7-3.5-3.1-6c-0.4-2.4,0-4.6,0.3-6.8c0.5-3,0.9-5.6-0.8-8.2c-6.6-9.6-10.9-20-13-30.9c-2.1-10.7-1.3-19.4,2.5-26.7    c1.4-2.7,3.4-5.3,5.7-7.6c-0.6-1.2-1.1-2.4-1.6-3.7c-3.2,5.3-6.5,9.5-15.4,12.4c-6.9,2.3-14.2,0-17.7-5.2    c-3.2,6.7-12.2,14.3-18.4,14.9c-6.6,0.7-9.5-2.2-12.1-7.8c-1,0.9-1.9,1.8-2.8,2.7c-3.9,3.7-7.7,7.3-12.3,9    c-4.5,1.7-9.8,1.4-14.5-0.9c-4.9-2.4-8.7-6.6-10.2-11.5c-2.7-8.6,1.2-18.5,8.4-23.3c-1.2-0.4-2.5-1-3.6-1.9    c-3.2-2.5-5.2-6.5-5.3-10.4c-0.1-7.5,5.3-13.7,10.8-16.5c4.8-2.5,10.2-3.1,15.4-3.8c0.7-0.1,1.4-0.2,2.1-0.3    c-1.6-6.2,1.2-13.8,6.8-18.1c5-3.9,12-5.5,19.7-4.5c5.2,0.6,9.5,2.3,12.6,4.9c3.1,2.6,5.1,6.2,5.8,10c6.5-6.8,15.2-10,22.9-8.1    c8.1,1.9,14.6,10.7,16.4,18.5c4.9-5.3,10.2-7.9,15.6-7.6c5.4,0.3,9.5,2.4,11.8,6c2.8,4.5,2.9,11.2,0.2,18.9    c3.2-0.9,6.9-0.6,10.1,0.8c4.4,1.9,7.8,5.6,9.4,10.5c2.5,7.7-0.1,20-5.7,26.3c-0.9,1-2.1,2-3.6,2.9c-2.2,11.8-4.8,23.5-8.3,36.7    c-2.8,10.8-7.6,22.5-13.2,32.1c-2.6,4.5-4.8,7-10.5,9.7C1859.7,702.8,1859.5,702.8,1859.4,702.8z M1845.8,602.5c0,0,0.1,0,0.1,0    c0.5,0.1,0.9,0.4,1,0.8c0.8,2.5,1.7,4.7,2.7,6.7c0.2,0.5,0.1,1.1-0.3,1.4c-2.4,2.2-4.5,4.8-5.8,7.5c-3.5,6.8-4.2,15-2.3,25.2    c2,10.5,6.3,20.6,12.7,30c2.3,3.4,1.7,6.7,1.2,9.9c-0.3,2-0.7,4-0.3,6c0.3,1.9,1.5,3.4,2.7,5c1.1,1.5,2.3,3,2.8,4.9    c4.1-2.2,5.9-4.3,8-8c5.5-9.4,10.2-20.9,13-31.5c3.5-13.4,6.1-25.2,8.3-37.1c0.1-0.3,0.3-0.7,0.6-0.8c1.5-0.8,2.7-1.7,3.5-2.6    c5-5.6,7.5-17,5.2-23.9c-1.4-4.2-4.2-7.4-8-9c-3.5-1.5-7.5-1.4-10.7,0.1c-0.4,0.2-1,0.1-1.3-0.2c-0.4-0.3-0.5-0.9-0.3-1.3    c3.3-8.1,3.7-14.9,1-19.2c-1.9-3-5.3-4.7-10-4.9c-5.2-0.3-10.4,2.6-15.3,8.7c-0.3,0.4-0.8,0.5-1.3,0.4c-0.5-0.1-0.8-0.5-0.8-1    c-0.6-6.6-6.6-16.9-15-19c-7.6-1.8-16.4,1.9-22.4,9.5c-0.3,0.4-0.9,0.6-1.3,0.4c-0.5-0.2-0.8-0.6-0.8-1.2    c0.2-4.2-1.8-8.4-5.1-11.1c-2.8-2.3-6.6-3.8-11.4-4.3c-7.1-0.9-13.5,0.6-18,4c-5.2,4-7.6,11.3-5.6,16.8c0.1,0.3,0.1,0.7-0.1,1    c-0.2,0.3-0.5,0.5-0.9,0.6c-1.2,0.2-2.4,0.3-3.6,0.5c-5.3,0.7-10.2,1.3-14.7,3.6c-4.8,2.5-9.6,7.9-9.5,14.4    c0.1,3.2,1.7,6.5,4.4,8.5c2.1,1.6,4.4,2.2,6.6,1.7c0.6-0.1,1.3,0.2,1.4,0.8c0.2,0.6-0.2,1.3-0.8,1.5    c-8.5,2.7-13.9,13.6-11.2,22.4c1.4,4.3,4.6,8,9,10.1c4.1,2,8.7,2.3,12.6,0.8c4.2-1.6,7.6-4.8,11.5-8.5c1.3-1.2,2.7-2.5,4.1-3.8    c0.3-0.3,0.7-0.4,1.1-0.3c0.4,0.1,0.7,0.3,0.8,0.7c2.5,5.9,4.6,8.4,10.3,7.9c6.1-0.6,15.9-9.6,17.3-15.8c0.1-0.5,0.6-0.9,1.1-0.9    c0.5,0,1,0.3,1.2,0.8c2.2,6.2,10,8.3,16,6.3c9.3-3,11.8-7.4,15.4-13.5C1844.9,602.7,1845.3,602.5,1845.8,602.5z"></path>		</g>	</g>	<g>		<g>			<path class="st3" d="M1765.2,632.8c0-0.3,0-0.7,0-1c0.4-0.1,0.8-0.2,1.2-0.4c5.9-2.2,10.2-7.5,16-12.6c2.6,6.2,5.1,9.2,11.6,8.6    c6.5-0.7,16.9-10.1,18.3-16.7c2.3,6.6,10.6,9.3,17.5,7.1c9.5-3.1,12.2-7.6,16-14.1c2.1,6.5,5.4,13.4,12.5,18.5    c2.6,1.9,5.4,3.1,8.3,3.9c0.1,1.3,0.2,2.5,0.4,3.7c0.5,4.4,1.6,13.9,0.6,23.5c7.4-6.1,13.5-5.1,18.1-0.5c4.6,4.6,4.2,12-0.3,16.5    c-4.5,4.6-12.4,6.3-19.3,4.8c-1.8,11.7-4.5,35-12.6,45.3c-8.6,11-23.8,18-39.6,18.2c-15.7,0.3-31.6-6.2-41.2-16.9    c-10.9-12.1-13.3-28.2-12.4-43.2C1761.3,662.6,1765.1,647.8,1765.2,632.8z"></path>			<path class="st4" d="M1813.1,738.9c-15.8,0-31.5-6.6-41.2-17.3c-9.6-10.6-13.9-25.5-12.7-44c0.4-6.6,1.4-13.2,2.3-19.7    c1.2-8.2,2.5-16.8,2.5-25.2c0-0.3,0-0.7,0-1c0-0.5,0.4-1,0.9-1.1c0.4-0.1,0.7-0.2,1.1-0.4c4.2-1.6,7.6-4.8,11.5-8.5    c1.3-1.2,2.7-2.5,4.1-3.8c0.3-0.3,0.7-0.4,1.1-0.3c0.4,0.1,0.7,0.3,0.8,0.7c2.5,5.9,4.6,8.4,10.3,7.9c6.1-0.6,15.9-9.6,17.3-15.8    c0.1-0.5,0.6-0.9,1.1-0.9c0.5,0,1,0.3,1.2,0.8c2.2,6.2,10,8.3,16,6.3c9.3-3,11.8-7.4,15.4-13.5c0.2-0.4,0.7-0.6,1.2-0.6    c0.5,0.1,0.9,0.4,1,0.8c1.6,5.1,4.7,12.6,12.1,17.9c2.3,1.7,5,2.9,8,3.8c0.5,0.1,0.8,0.6,0.9,1c0.1,1.4,0.2,2.6,0.3,3.7l0,0.3    c0.5,4.1,1.4,12.2,0.8,20.8c6.3-4.2,12.5-3.8,17.5,1.2c4.9,5,4.8,13-0.3,18.2c-4.4,4.4-11.9,6.5-19.1,5.4    c-0.1,0.9-0.3,1.8-0.4,2.7c-1.9,12.9-4.8,32.4-12.2,41.9c-8.8,11.3-24.4,18.4-40.5,18.7C1813.7,738.9,1813.4,738.9,1813.1,738.9z     M1766.4,632.6c0,0.1,0,0.1,0,0.2c0,0,0,0,0,0c0,8.6-1.3,17.2-2.5,25.5c-0.9,6.4-1.9,13-2.3,19.5c-1.1,17.9,3,32.2,12.1,42.3    c9.4,10.4,24.8,16.8,40.3,16.5c15.4-0.3,30.3-7.1,38.7-17.8c7.1-9,10-28.9,11.7-40.8c0.2-1.4,0.4-2.8,0.6-4    c0-0.3,0.2-0.6,0.5-0.8c0.3-0.2,0.6-0.3,0.9-0.2c6.8,1.4,14.1-0.4,18.2-4.5c4.2-4.3,4.3-10.8,0.3-14.8    c-4.7-4.8-10.3-4.6-16.5,0.5c-0.4,0.3-0.9,0.4-1.3,0.1c-0.4-0.2-0.7-0.7-0.6-1.2c1-9.3-0.1-18.5-0.6-23l0-0.3    c-0.1-0.9-0.2-1.8-0.3-2.9c-2.9-0.9-5.5-2.2-7.9-3.9c-6.9-4.9-10.2-11.4-12.1-16.7c-3.2,5.3-6.5,9.5-15.4,12.4    c-6.9,2.3-14.2,0-17.7-5.2c-3.2,6.7-12.2,14.3-18.4,14.9c-6.6,0.7-9.5-2.2-12.1-7.8c-1,0.9-1.9,1.8-2.8,2.7    c-3.9,3.7-7.7,7.3-12.3,9C1766.7,632.5,1766.5,632.6,1766.4,632.6z M1765.2,632.8L1765.2,632.8L1765.2,632.8z"></path>		</g>	</g>	<g>		<path class="st4" d="M1779.2,654.6c-0.2-1.9,1.2-3.5,3.2-3.8c2-0.2,3.7,1.1,3.9,3c0.2,1.9-1.2,3.5-3.2,3.8   C1781.1,657.7,1779.4,656.4,1779.2,654.6z"></path>	</g>	<g>		<path class="st4" d="M1828.8,657.2c-0.2-1.9,1.2-3.5,3.2-3.8c2-0.2,3.7,1.1,3.9,3s-1.2,3.5-3.2,3.8   C1830.8,660.4,1829,659.1,1828.8,657.2z"></path>	</g>	<g>		<path class="st4" d="M1814,715.5c-1.5,0-3.1-0.2-4.6-0.6c-0.6-0.2-1-0.8-0.8-1.5c0.2-0.6,0.8-1,1.5-0.8c5.9,1.5,12.4-0.5,16.4-5.1   c0.4-0.5,1.2-0.6,1.7-0.1c0.5,0.4,0.6,1.2,0.1,1.7C1824.7,713.1,1819.4,715.5,1814,715.5z"></path>	</g>	<g>		<path class="st4" d="M1805.6,696.8c-2.4,0-4.9-0.5-7.5-1.4c-1.4-0.5-3-1.2-4.1-2.5c-1.5-1.7-2-4.1-1.4-6.8c0.4-1.9,1.2-3.5,2-5.2   l0.4-0.7c4.3-8.8,6.5-18.6,6.5-28.3c0-0.7,0.5-1.2,1.2-1.2c0,0,0,0,0,0c0.7,0,1.2,0.5,1.2,1.2c0.1,10.1-2.3,20.3-6.7,29.4   l-0.4,0.7c-0.8,1.6-1.5,3-1.8,4.6c-0.4,1.9-0.1,3.6,0.9,4.7c0.8,0.9,2,1.4,3.1,1.8c3.2,1.1,6.2,1.5,8.8,1.1c3-0.5,5.7-2.1,7.2-4.3   c0.4-0.5,1.1-0.7,1.7-0.3c0.5,0.4,0.7,1.1,0.3,1.7c-1.9,2.8-5.1,4.7-8.8,5.3C1807.3,696.7,1806.4,696.8,1805.6,696.8z"></path>	</g>	<g>		<path class="st5" d="M1866.8,662.2c-0.1,0-0.1,0-0.2,0c-0.7-0.1-1.1-0.7-1-1.3c0.5-4.1,0.7-6.3,1.1-10.2c0.1-0.7,0.6-1.1,1.3-1.1   c0.7,0.1,1.1,0.6,1.1,1.3c-0.4,4-0.6,6.2-1.1,10.3C1867.9,661.7,1867.4,662.2,1866.8,662.2z"></path>	</g>	<g>		<path class="st5" d="M1752.4,622.7c-0.1,0-0.2,0-0.3-0.1c-3.4-3.5-4.6-8.8-3.1-13.4c0.1-0.2,0.3-0.3,0.5-0.2   c0.2,0.1,0.3,0.3,0.2,0.5c-1.4,4.3-0.3,9.4,2.9,12.6c0.2,0.2,0.1,0.4,0,0.6C1752.6,622.7,1752.5,622.7,1752.4,622.7z"></path>	</g>	<g>		<path class="st5" d="M1883.8,618.1c-0.1,0-0.2,0-0.3-0.1c-0.1-0.2-0.1-0.4,0-0.6c5.7-5,7.9-13.5,5.4-20.6c-0.1-0.2,0-0.4,0.2-0.5   c0.2-0.1,0.4,0,0.5,0.2c2.6,7.4,0.3,16.3-5.6,21.5C1884,618.1,1883.9,618.1,1883.8,618.1z"></path>	</g>	<g>		<path class="st3" d="M1572.9,866c-7.4-36.6-11.2-101.9-21.5-138.3c-9.6-9.5-19.6-24.7-23.5-38.5c-1.6-5.6-1.5-7.9,2.2-11.7   c2.7-2.8,7.6-1.8,10.6,0c-1.4-3.5-4.8-6.8-0.4-10.3c2-1.6,4.8-2.5,6.9-1.1c-1.1-7.1,6.9-11.3,11.3-4.5c-3.4-8.8-6.5-16.7-10-24.9   c-2.2-5.1-4.3-11.1-1.1-13.1c4.1-2.6,8.1,3,12.6,11.5c7.7,14.5,10.2,19.4,18.7,32.5c8,12.3,14.4,35,8.2,43.3   c0.4,14.8,34.2,107.4,47.5,127.8c4.8,7.5-1.5,12.3-4.7,20.6c-4,10-19.4,44.8-43.1,27.3C1580,881.8,1573.3,868.2,1572.9,866z"></path>		<path class="st4" d="M1599.7,892.7c-4.5,0-9.1-1.7-13.7-5.1c-7.1-5.2-13.8-19-14.3-21.4l0,0c-3.1-15.2-5.5-35.2-8.1-56.3   c-3.6-29.7-7.4-60.4-13.3-81.6c-8.8-8.8-19.4-24.1-23.6-38.8c-1.7-6-1.6-8.7,2.5-12.8c2.3-2.3,5.8-2.5,8.9-1.5   c-1.3-2.6-2.4-5.7,1.4-8.8c1.6-1.3,4.1-2.4,6.4-1.9c0.2-3.2,1.9-5.9,4.7-6.9c1.4-0.6,3.2-0.6,5,0.1c-2.5-6.5-5.2-13.3-8.2-20.3   c-2.5-5.8-4.5-12.1-0.7-14.6c1.2-0.8,2.6-1,3.9-0.7c3.1,0.8,6.1,4.5,10.4,12.7l0.2,0.3c7.5,14.3,10.1,19.1,18.5,32.1   c7.8,12,14.8,35,8.4,44.3c0.9,15,33.8,106,47.3,126.8c3.9,6,1.2,10.6-1.5,15.5c-1.1,1.9-2.2,3.9-3.1,6.2   c-4.1,10.4-13,28.4-26.3,32.2C1603,892.5,1601.4,892.7,1599.7,892.7z M1534.8,677c-1.5,0-2.8,0.4-3.8,1.4   c-3.4,3.4-3.4,5.2-1.9,10.5c4.1,14.5,14.6,29.5,23.2,38c0.1,0.1,0.3,0.3,0.3,0.5c6,21.4,9.8,52.3,13.4,82.2   c2.6,21.1,5,41,8.1,56.2c0,0,0,0,0,0c0.4,2,7,15.2,13.4,20c5.7,4.2,11.2,5.5,16.6,4c12.3-3.5,20.8-20.8,24.7-30.8   c1-2.4,2.2-4.6,3.2-6.5c2.7-4.8,4.7-8.3,1.6-13c-13-20-47.3-112.5-47.7-128.5c0-0.3,0.1-0.5,0.2-0.7c5.6-7.5,0-29.1-8.3-42   c-8.4-13.1-11-17.9-18.6-32.2l-0.2-0.3c-2.4-4.5-5.9-10.7-8.9-11.5c-0.7-0.2-1.3-0.1-2,0.4c-2.7,1.8,0.5,9.2,1.5,11.7   c3.7,8.7,7,17.1,10,24.9c0.2,0.6,0,1.2-0.6,1.5c-0.5,0.3-1.2,0.1-1.5-0.4c-1.6-2.5-3.9-3.5-6.1-2.7c-1.9,0.7-3.6,3-3.1,6.3   c0.1,0.5-0.1,0.9-0.5,1.2c-0.4,0.3-0.9,0.3-1.3,0c-1.7-1.1-4-0.3-5.5,1c-2.6,2.1-1.9,3.7-0.4,6.6c0.4,0.7,0.8,1.5,1.1,2.3   c0.2,0.5,0,1-0.3,1.3c-0.4,0.3-1,0.4-1.4,0.1C1538.6,677.6,1536.6,677,1534.8,677z"></path>	</g>	<g>		<path class="st4" d="M1546.6,698.9c-1.1,0-2.2-0.3-3.3-1c-1.4-0.9-2.4-2.3-3.3-3.5l-4.1-5.5c-0.4-0.5-0.3-1.3,0.2-1.7   c0.5-0.4,1.3-0.3,1.7,0.2l4.1,5.5c0.8,1.1,1.6,2.2,2.7,2.9c1,0.7,2.2,0.8,3,0.4c1-0.5,1.4-1.8,1.3-2.8c-0.1-1.3-0.7-2.7-1.3-3.9   c-2.4-4.6-3-5.4-5-7.8c-0.7-0.9-1.6-2-2.9-3.6c-0.4-0.5-0.3-1.3,0.2-1.7c0.5-0.4,1.3-0.3,1.7,0.2c1.2,1.6,2.1,2.6,2.8,3.5   c2,2.5,2.8,3.4,5.3,8.2c0.7,1.4,1.5,3,1.6,4.9c0.1,2.2-0.9,4.2-2.6,5C1548.1,698.7,1547.4,698.9,1546.6,698.9z"></path>	</g>	<g>		<path class="st4" d="M1556.6,696.5c-1.5,0-2.9-0.8-4.1-1.6c-1.2-0.8-2.3-1.6-3.4-2.5c-0.5-0.4-0.6-1.1-0.2-1.7   c0.4-0.5,1.1-0.6,1.7-0.2c1.1,0.8,2.2,1.6,3.3,2.4c1.1,0.7,2.2,1.4,3.2,1.1c1.2-0.3,1.8-2,1.8-3.6c0-2.4-2.1-8.3-12.3-23.2   l-0.3-0.4c-0.4-0.5-0.2-1.3,0.3-1.7c0.5-0.4,1.3-0.2,1.7,0.3l0.3,0.4c8.5,12.6,12.7,20.6,12.7,24.6c0,2.4-1.1,5.2-3.6,5.9   C1557.4,696.4,1557,696.5,1556.6,696.5z"></path>	</g>	<g>		<path class="st4" d="M1563.3,707c-0.5,0-1-0.3-1.1-0.9c-1.8-6.4,2-11.8,4.8-15.7c1.1-1.6,2.7-3.7,2.3-4.3c-1.1-1.8-7-3.6-9.9-4.5   c-1.6-0.5-2.3-0.7-2.7-1c-3-1.7-4-3.8-4.3-5.1c-0.3-1.2-0.1-2.4,0.5-3.2c0.8-1.1,3.4-3.3,5.2-3.5c3.5-0.4,11.9,1.8,16.9,3.1   c0.8,0.2,1.6,0.4,2.1,0.6c2.2,0.5,9.1,4.7,9.3,7.8c0,0.7-0.4,1.2-1.1,1.3c-0.7,0-1.2-0.4-1.3-1.1c-0.1-1.3-5.1-5.1-7.5-5.7   c-0.6-0.1-1.3-0.3-2.2-0.6c-4.5-1.2-13-3.4-16.1-3c-0.7,0.1-2.8,1.6-3.5,2.5c-0.1,0.2-0.3,0.7-0.1,1.3c0.2,0.7,0.8,2.2,3.1,3.6   c0.2,0.1,1.3,0.4,2.2,0.7c4.9,1.5,9.8,3.1,11.2,5.5c1.1,1.9-0.4,4.1-2.4,6.9c-2.7,3.7-6,8.3-4.5,13.7c0.2,0.6-0.2,1.3-0.8,1.5   C1563.5,707,1563.4,707,1563.3,707z"></path>	</g>	<g>		<path class="st4" d="M1563.7,671.7c-0.5,0-1-0.3-1.1-0.8c-0.4-1.3-2.1-4.1-3.4-6.3c-0.7-1.2-1.3-2.3-1.8-3.1   c-0.3-0.6-0.1-1.3,0.5-1.6c0.6-0.3,1.3-0.1,1.6,0.5c0.4,0.8,1.1,1.9,1.7,3c1.4,2.4,3.1,5.2,3.6,6.8c0.2,0.6-0.1,1.3-0.8,1.5   C1563.9,671.7,1563.8,671.7,1563.7,671.7z"></path>	</g>	<g>		<path class="st4" d="M1562.1,693.3c-0.6,0-1.2-0.1-1.8-0.4c-0.6-0.3-0.8-1-0.5-1.6c0.3-0.6,1-0.8,1.6-0.5c0.6,0.3,1.7,0.2,2.6-0.6   c1.3-1.2,1.6-3.4,0.6-6.1c-0.2-0.6,0.1-1.3,0.7-1.5c0.6-0.2,1.3,0.1,1.5,0.7c1.8,5.1-0.3,7.8-1.3,8.7   C1564.6,692.8,1563.3,693.3,1562.1,693.3z"></path>	</g>	<g>		<path class="st6" d="M2009.8,918.4c-9.4-49.2-9.4-102.1-49.1-135.2c-19-15.9-64.2-22.7-90.6-24.4c-1.6,25.6-26.7,31.7-42.7,30.7   c-26.8-1.7-31.5-7-38.3-27.3c-6,2.4-42.2,4.2-65.6,25.2c-43.6,38.9-96.8,35.3-93.2,37.7c3.3,2.1-8.6,56.5-41.8,63.1   c-17.5,3.5,79.8,17.9,146.5,0.3c-2.5,34.9,10,136.7,17.3,176c69.6,48.5,212.7-6.3,212.7-6.3s-10.9-32.2-10.9-56.5   c0-12,28.3,14.6,33.9,15.6c1.9,0.3,7.7-3.8,8.4-5.6C2001,1000.6,2018.4,963.7,2009.8,918.4z"></path>		<path class="st4" d="M1830.8,1085.6c-5.5,0-10.8-0.2-16-0.6c-25.9-1.9-47.1-8.5-63.2-19.7c-0.3-0.2-0.4-0.5-0.5-0.8   c-7.3-39.3-19.4-138.7-17.4-174.6c-60,15.3-142.9,5.7-148,0.4c-0.5-0.5-0.6-1.1-0.4-1.7c0.3-1.1,1.7-1.5,2.9-1.7   c16.7-3.4,27.3-18.9,33.2-31.3c6.7-14.1,8.9-27.7,8.1-29.8c-0.7-0.5-0.6-1.2-0.5-1.4c0.3-1.2,1.2-1.3,6.5-1.9   c14.7-1.7,53.6-6.2,87.2-36.2c18.6-16.6,44.5-21.3,58.4-23.8c3.6-0.6,6.4-1.1,7.6-1.6c0.3-0.1,0.6-0.1,0.9,0   c0.3,0.1,0.5,0.4,0.6,0.7c6.7,20,10.9,24.8,37.3,26.5c4.4,0.3,15.9,0.3,26.1-5.2c9.5-5.1,14.6-13.3,15.3-24.4   c0-0.3,0.2-0.6,0.4-0.8c0.2-0.2,0.6-0.3,0.9-0.3c30.8,2,73.2,9.6,91.3,24.7c32.6,27.2,38.8,68.2,44.9,107.9   c1.4,9.2,2.9,18.7,4.6,27.9c8.3,43.6-7,78.9-12.8,92.3c-0.3,0.6-0.5,1.2-0.7,1.7c-0.9,2.1-7.2,6.7-9.7,6.3   c-2-0.4-5.8-3.1-11.9-7.5c-6.4-4.7-17.2-12.5-20-11.1c-0.4,0.2-0.6,0.8-0.6,1.8c0,23.8,10.8,55.8,10.9,56.1   c0.2,0.6-0.1,1.3-0.7,1.5c-0.4,0.1-36.4,13.8-80.5,21.4C1865.5,1083.9,1847.3,1085.6,1830.8,1085.6z M1753.4,1063.7   c35.6,24.5,90.9,21.5,131.1,14.6c39.6-6.8,72.7-18.6,79-20.9c-1.9-5.9-10.6-34.1-10.6-55.8c0-2.4,1-3.5,1.9-3.9   c3.8-1.9,11.7,3.5,22.5,11.3c4.6,3.3,9.3,6.8,10.9,7c1.3,0.2,6.5-3.4,7.1-4.9c0.2-0.5,0.5-1.1,0.7-1.7c5.7-13.1,20.8-48,12.6-90.9   c-1.8-9.3-3.2-18.8-4.6-28c-6.3-41.1-12.2-79.9-44.1-106.5c-17.4-14.5-58.4-22-88.7-24.1c-1,11.2-6.7,19.8-16.5,25.1   c-10.8,5.8-22.7,5.8-27.4,5.5c-26.5-1.7-32.2-7-39-27c-1.6,0.4-3.9,0.8-6.9,1.4c-13.7,2.5-39.1,7-57.2,23.2   c-34.1,30.5-73.6,35-88.5,36.8c-1.5,0.2-3,0.3-3.9,0.5c0.3,1.2,0.3,3.6-0.6,8.3c-3.2,16.9-16.3,50.3-42.6,55.6c-0.1,0-0.1,0-0.2,0   c10.5,4.4,88.7,13.1,146.2-2.1c0.4-0.1,0.8,0,1.1,0.2c0.3,0.2,0.5,0.6,0.4,1C1733.8,922.6,1746,1023.5,1753.4,1063.7z    M1629.5,825.9L1629.5,825.9C1629.5,825.9,1629.5,825.9,1629.5,825.9z"></path>	</g>	<path class="st4" d="M1938,962.6c-0.5,0-1-0.3-1.1-0.8c-14.2-43-22.2-70.2-22.2-129.2c0-0.7,0.5-1.2,1.2-1.2c0.7,0,1.2,0.5,1.2,1.2  c0,58.6,8,85.6,22.1,128.4c0.2,0.6-0.1,1.3-0.8,1.5C1938.2,962.6,1938.1,962.6,1938,962.6z"></path>	<path class="st4" d="M1735,889.6c-0.3,0-0.6-0.1-0.8-0.3c-0.7-0.6-0.7-1.3-0.8-10c-0.1-6.5-0.2-17.3-0.9-33.7  c0-0.7,0.5-1.2,1.1-1.2c0.7,0,1.2,0.5,1.2,1.1c0.6,16.4,0.8,27.2,0.9,33.7c0.1,4.7,0.1,7.8,0.3,8.5c0.3,0.4,0.2,1-0.1,1.4  C1735.7,889.5,1735.3,889.6,1735,889.6z M1735.8,887.6C1735.8,887.6,1735.8,887.6,1735.8,887.6  C1735.8,887.6,1735.8,887.6,1735.8,887.6z"></path>	<path class="st3" d="M1810,865.6c-26.7,0-51-2.4-63.8-8.9c-0.2-0.1-0.3-0.3-0.2-0.5c0.1-0.2,0.3-0.3,0.5-0.2  c26.4,13.4,102.3,9,146.8,2.8c0.2,0,0.4,0.1,0.4,0.3c0,0.2-0.1,0.4-0.3,0.4C1870.4,862.9,1838.8,865.6,1810,865.6z"></path>	<path class="st3" d="M1838.5,903.1c-35.5,0-67.9-5.6-92.2-11.6c-0.2-0.1-0.3-0.3-0.3-0.5c0.1-0.2,0.3-0.3,0.5-0.3  c37.3,9.1,93.8,17.5,150.9,5.8c0.2,0,0.4,0.1,0.5,0.3c0,0.2-0.1,0.4-0.3,0.5C1877.5,901.5,1857.6,903.1,1838.5,903.1z"></path>	<path class="st3" d="M2006.1,983.6c-0.1,0-0.3-0.1-0.3-0.2c-12.8-21.5-33.6-32.4-53-27.6c-0.2,0.1-0.4-0.1-0.5-0.3  c-0.1-0.2,0.1-0.4,0.3-0.5c19.8-4.8,40.9,6.2,53.9,28c0.1,0.2,0.1,0.4-0.1,0.5C2006.2,983.6,2006.1,983.6,2006.1,983.6z"></path>	<path class="st3" d="M2001,992.4c-0.1,0-0.2,0-0.2-0.1c-2.4-1.8-4-4.3-5.6-6.8c-0.6-0.9-1.1-1.7-1.7-2.6  c-3.6-5.1-8.6-9.2-14.3-11.7c-0.2-0.1-0.3-0.3-0.2-0.5c0.1-0.2,0.3-0.3,0.5-0.2c5.9,2.6,11,6.7,14.7,11.9c0.6,0.8,1.2,1.7,1.7,2.6  c1.6,2.4,3.2,4.9,5.4,6.6c0.2,0.1,0.2,0.4,0.1,0.6C2001.3,992.3,2001.2,992.4,2001,992.4z"></path>	<path class="st3" d="M1630.3,862.7c-0.1,0-0.1,0-0.2,0c-0.2-0.1-0.3-0.3-0.2-0.5c4.4-10.7,6.5-22.5,6.2-34.1c0-0.2,0.2-0.4,0.4-0.4  c0.2,0,0.4,0.2,0.4,0.4c0.3,11.7-1.9,23.6-6.3,34.4C1630.6,862.6,1630.5,862.7,1630.3,862.7z"></path>	<path class="st3" d="M1645.3,841.1C1645.2,841.1,1645.2,841.1,1645.3,841.1c-0.3-0.1-0.4-0.3-0.4-0.5c0.9-4.1,1.2-8.4,0.8-12.6  c0-0.2,0.1-0.4,0.4-0.4c0.2,0,0.4,0.1,0.4,0.4c0.4,4.3,0.2,8.6-0.8,12.8C1645.6,840.9,1645.4,841.1,1645.3,841.1z"></path>	<path class="st3" d="M1941.5,965.1c-0.5,0-1-0.3-1.1-0.9c-9.6-35.3-16.2-71.7-19.5-108c-0.1-0.7,0.4-1.2,1.1-1.3  c0.7-0.1,1.2,0.4,1.3,1.1c3.3,36.2,9.9,72.4,19.4,107.6c0.2,0.6-0.2,1.3-0.8,1.5C1941.7,965.1,1941.6,965.1,1941.5,965.1z"></path>	<path class="st3" d="M1732.1,896.2C1732.1,896.2,1732.1,896.2,1732.1,896.2c-0.7,0-1.2-0.6-1.2-1.2l0.6-40.2c0-0.7,0.6-1.2,1.2-1.2  c0.7,0,1.2,0.6,1.2,1.2l-0.6,40.2C1733.3,895.7,1732.8,896.2,1732.1,896.2z"></path>	<path class="st3" d="M1947.1,974.4c5.2-5,15-3.1,21.5,0c3.2,1.5,28.9,25.3,19.5,45.2c-8.1,17.1-13.4,23.6-56.2,86.8  c-1.6,2.3-3.3,4.8-5.7,6.3c-7.7,4.8-17.7-2.6-21-11c-7-17.8,2.3-37.4,11-54.5C1925,1029.9,1941.9,979.4,1947.1,974.4z"></path>	<path d="M1921,1115.3c-1.3,0-2.7-0.2-4.1-0.7c-5.3-1.8-10.4-6.8-12.7-12.5c-7.5-18.9,3.2-40,11-55.5c3.8-7.6,9.3-21.8,14.6-35.5  c8.3-21.5,13.6-34.8,16.5-37.5c5.3-5.1,15.3-3.8,22.9-0.2c4,1.9,29.8,26.1,20.1,46.7c-6.4,13.6-11.2,20.6-33.9,54  c-6,8.8-13.4,19.7-22.3,32.9c-1.6,2.3-3.3,5-6,6.6C1925.1,1114.8,1923.1,1115.3,1921,1115.3z M1956.1,972.6c-3.2,0-6.2,0.8-8.2,2.7  l0,0c-2.7,2.6-9.4,19.9-15.9,36.7c-5.3,13.8-10.8,28-14.7,35.7c-7.6,15-18,35.6-10.9,53.5c2,5.1,6.5,9.6,11.2,11.2  c2,0.7,5.1,1.1,8-0.7c2.2-1.4,3.9-3.8,5.3-5.9c9-13.3,16.4-24.2,22.4-32.9c22.7-33.3,27.4-40.3,33.7-53.7  c9.2-19.5-16.9-42.6-18.9-43.6C1964.5,973.8,1960.1,972.6,1956.1,972.6z M1947.1,974.4L1947.1,974.4L1947.1,974.4z"></path>	<g>		<path class="st4" d="M2239.4,849.4c-0.5,21.7,12.8,43.9,33.3,51c11.2,3.9,23.4,3.3,34.8,6.3c11.4,3,23.1,11.6,23.2,23.4   c0.1,7.9-4.4,25.7,19.1,36.1c19.4,8.6,14.8,55.2-45.3,74.8c-18.4,6-6.5-9.1-25.7-12c-18.9-2.9-36-13.6-49.1-27.6   c-13-14-22.3-31.1-29.4-48.8c-8.3-20.4-14.1-42.9-8.9-64.3C2196.5,866.8,2215.3,847.5,2239.4,849.4z"></path>		<path class="st4" d="M2297.6,1043.6c-4,0-5.4-2.1-7-5.2c-1.6-3.2-3.5-6.9-12-8.2c-17.8-2.7-35.5-12.7-49.8-27.9   c-11.6-12.4-21.3-28.5-29.7-49.2c-10.5-26-13.4-46.6-9-65.1c2.7-11.2,8.8-21.4,17.3-28.8c9.3-8.1,20.4-11.9,32-11   c0.6,0,1.1,0.6,1.1,1.2c-0.5,22.2,13.2,43.1,32.5,49.9c6.1,2.1,12.7,2.9,19.1,3.7c5.2,0.6,10.5,1.3,15.7,2.6   c11.5,3,24,12,24.1,24.6c0,1-0.1,2.2-0.1,3.5c-0.5,8.5-1.3,22.8,18.5,31.6c7.2,3.2,11.4,11.4,10.9,21.5   c-0.9,17.4-16.2,42.4-56.3,55.5C2301.7,1043.1,2299.4,1043.6,2297.6,1043.6z M2236.1,850.4c-22.4,0-39.1,19.1-43.6,38.1   c-4.3,17.9-1.5,38.1,8.9,63.6c8.3,20.4,17.8,36.3,29.2,48.5c13.9,14.9,31,24.5,48.4,27.2c9.7,1.5,12,6.1,13.7,9.5   c1.7,3.5,2.7,5.4,11.4,2.6c39-12.7,53.8-36.7,54.7-53.3c0.5-9-3.2-16.4-9.5-19.2c-21.3-9.5-20.5-24.7-19.9-33.9   c0.1-1.3,0.1-2.4,0.1-3.3c-0.1-11.3-11.6-19.5-22.3-22.3c-5-1.3-10.3-1.9-15.3-2.5c-6.5-0.8-13.2-1.6-19.6-3.8   c-19.9-7-34.1-28.3-34.1-51C2237.5,850.5,2236.8,850.4,2236.1,850.4z"></path>	</g>	<g>		<path class="st4" d="M2121.9,799.8c6.3,30.8,12.4,64-0.2,92.9c-4.1,9.4-10.1,17.9-13.4,27.6c-4,11.5-4.1,24-3,36.1   c2.1,22.9,9,46.4,25.1,62.8c16.1,16.4,43,23.6,62.9,12c17.4-10.2,25.4-32,24.3-52.1c-1.1-20.1-9.7-39.1-18.8-57.1   C2177,878.6,2151.6,837.1,2121.9,799.8z"></path>	</g>	<g>		<path class="st3" d="M2166.6,950.2c0.6-16.4-1.5-25.7-2.1-37.9c6.6-3.3,13.8-5.6,21.1-6.8c3.3-0.5,7-0.7,9.5,1.3   c1.6,1.2,9.1-5.4,9.9-3.6c5.4,12.6,5.8,30.4,11.2,43c0.4,1,19.2-0.8,19.6,0.2c1.7,4.1,0.3,38.1-1,39   c-68.6,45.6-101.7-19.6-101.7-19.6S2145.5,958.1,2166.6,950.2z"></path>		<path d="M2188.5,1002.7c-5,0-9.8-0.6-14.6-1.9c-27.9-7.4-41.9-34.3-42-34.6c-0.3-0.6-0.1-1.2,0.4-1.6c0.1-0.1,12.5-7.6,33-15.3   c0.3-10.4-0.4-18-1.2-25.3c-0.4-3.7-0.8-7.6-1-11.8c0-0.5,0.2-0.9,0.7-1.1c6.8-3.4,14-5.7,21.5-6.9c3.3-0.5,7.4-0.8,10.3,1.4   c0.7,0,2.7-1.2,4-1.9c2.6-1.5,4.2-2.4,5.4-2c0.5,0.2,0.8,0.5,1,0.9c2.7,6.4,4.2,14.2,5.7,21.7c1.4,7.2,2.8,14.7,5.3,20.8   c1.4,0.2,5.6,0,8.8-0.1c9.8-0.4,10.5-0.3,11,0.8c1.2,2.9,0.9,17,0.7,21.2c-0.6,18.2-1.7,18.9-2.2,19.2   C2219,997.2,2203.3,1002.7,2188.5,1002.7z M2134.6,966.1c2.8,4.8,16.1,26.1,40,32.4c18,4.7,38,0,59.2-14.1c1.2-3.5,2.2-32,1-37.2   c-1.4-0.1-5.7,0-8.8,0.1c-9.8,0.4-10.4,0.3-10.9-0.8c-2.7-6.4-4.2-14.2-5.7-21.7c-1.4-7.2-2.8-14.7-5.3-20.8   c-0.8,0.2-2.2,1.1-3.2,1.7c-2.8,1.7-5.1,3-6.5,1.9c-2.3-1.8-5.8-1.5-8.6-1c-7,1.1-13.7,3.3-20.1,6.4c0.2,3.8,0.6,7.2,0.9,10.9   c0.8,7.6,1.5,15.4,1.2,26.4c0,0.5-0.3,0.9-0.8,1.1C2149.5,957.8,2137.9,964.2,2134.6,966.1z M2166.6,950.2L2166.6,950.2   L2166.6,950.2z"></path>	</g>	<g>		<path class="st3" d="M2114.8,807.4c2,15.2,5.1,31.2,1.2,46.4c-2.1,8.3-1.9,50.3,31.8,62.3c17.7,6.3,38.1,5,56.4-6.1   c12.4-7.5,27.5-30.9,24.5-54.1c10.3,2.8,20.4-4.1,20.5-13.3c0.1-5.3-5.8-12-12-11.7c-4.8,0.2-5.4,0.3-9,3.1   c-2.5-10.9-4-22-3.8-34.5c-11.7-12.8-30.4-19.4-49.1-22.2c-6.2-0.9-12.5-1.5-18.8-0.7C2138.5,778.7,2112.8,791.7,2114.8,807.4z"></path>		<path class="st4" d="M2169.6,921c-7.5,0-14.9-1.3-22.3-3.9c-33.7-12-35.2-53.6-32.5-63.7c3.4-13.1,1.5-26.9-0.4-40.3   c-0.3-1.9-0.5-3.7-0.8-5.6l0,0c-0.6-4.4,0.8-8.7,4.1-13c8-10.4,25.9-17.7,38.6-19.3c6.9-0.9,13.9-0.1,19.1,0.7   c15.5,2.3,36.6,8.1,49.8,22.6c0.2,0.2,0.3,0.5,0.3,0.8c-0.2,10.7,0.9,21.1,3.4,32.4c2.7-1.9,3.9-2,8.2-2.2c3-0.2,6.3,1.2,8.9,3.7   c2.7,2.6,4.4,6.1,4.3,9.1c-0.1,4.5-2.3,8.7-6.1,11.6c-4,3-9.2,4.2-14.2,3.3c2.2,23.6-13,46.2-25.2,53.6   C2193.8,917.6,2181.7,921,2169.6,921z M2116,807.2c0.2,1.8,0.5,3.7,0.8,5.6c1.9,13.6,3.9,27.7,0.4,41.3c-1.5,5.7-3.3,48.7,31,60.8   c18.5,6.6,38.2,4.4,55.4-6c11.7-7.1,26.9-30,23.9-52.9c-0.1-0.4,0.1-0.8,0.4-1.1c0.3-0.3,0.7-0.4,1.1-0.2c4.8,1.3,10,0.4,13.8-2.5   c3.3-2.4,5.1-6,5.2-9.7c0-2.4-1.4-5.2-3.6-7.4c-2.1-2.1-4.8-3.2-7.1-3.1c-4.7,0.2-5,0.2-8.4,2.8c-0.3,0.2-0.7,0.3-1.1,0.2   c-0.4-0.1-0.7-0.5-0.8-0.9c-2.8-12.1-4-23-3.8-34.3c-12.7-13.7-33.1-19.3-48.1-21.5c-5.1-0.8-11.8-1.5-18.5-0.7   c-12.2,1.5-29.4,8.5-37,18.3C2116.7,799.7,2115.5,803.5,2116,807.2L2116,807.2z"></path>	</g>	<g>		<path class="st4" d="M2188.5,868.9c-4.9,0-9.7-1.8-13.7-5.2c-4.6-4-7.6-9.7-8.5-16c-1.7-13.1,6.6-25.1,18.6-26.6   c5.8-0.7,11.6,1,16.2,5c4.6,4,7.6,9.7,8.5,16l0,0c0.8,6.3-0.6,12.6-4.1,17.6c-3.5,5.1-8.6,8.3-14.4,9   C2190.2,868.8,2189.4,868.9,2188.5,868.9z M2187.5,823.2c-0.8,0-1.5,0-2.3,0.1c-10.6,1.4-18,12.1-16.5,24   c0.7,5.8,3.5,10.9,7.7,14.5c4.2,3.6,9.3,5.2,14.4,4.5c5.1-0.7,9.7-3.5,12.8-8c3.1-4.5,4.5-10.2,3.7-16l0,0   c-0.7-5.8-3.5-10.9-7.7-14.5C2196.1,824.9,2191.8,823.2,2187.5,823.2z"></path>	</g>	<g>		<path class="st4" d="M2127.6,871.7c-10.9,0-20.6-9-22.2-21.2c-1.7-13.1,6.6-25.1,18.6-26.6c11.9-1.5,23,7.9,24.7,21.1l0,0   c1.7,13.1-6.6,25.1-18.6,26.6C2129.3,871.6,2128.4,871.7,2127.6,871.7z M2126.5,826c-0.7,0-1.5,0-2.3,0.1   c-10.6,1.4-18,12.1-16.5,24c1.5,11.8,11.4,20.4,22.1,19c10.6-1.4,18-12.1,16.5-24l0,0C2144.9,834.2,2136.3,826,2126.5,826z"></path>	</g>	<g>					<ellipse transform="matrix(0.7071 -0.7071 0.7071 0.7071 132.7442 1771.6837)" class="st4" cx="2205" cy="725.6" rx="38.8" ry="38.8"></ellipse>	</g>	<g>		<path class="st4" d="M2226.8,835.5c-9.8-15.3-15.9-26.3-19.1-44.9c-36.3,21.5-70.8,24.9-105.6,23.5c-0.7-5.9,0.5-19,3-24.6   c6-13.8,13.6-25.7,34.6-35.1c14.7-6.6,34.5-11,50.5-8.7c15.8,2.3,29.4,10.8,40.5,21.1c8.8,8.2,16.3,21.6,18.9,34.9   c2.2,11.4-0.5,19.7-5.6,31.3c-2.9-1.5-5.5-3.1-8.9-2.5C2231.7,831.3,2229.6,833,2226.8,835.5z"></path>	</g>	<g>		<path class="st4" d="M2174.1,893.6c-2.6,0-5-0.8-6.9-2.4c-0.5-0.4-0.6-1.2-0.2-1.7c0.4-0.5,1.2-0.6,1.7-0.2   c2.5,2.1,6.3,2.4,10,0.8c4.2-1.8,7.7-5.1,9.7-9.5c0.3-0.6,1-0.9,1.6-0.6c0.6,0.3,0.9,1,0.6,1.6c-2.3,4.9-6.2,8.7-11,10.7   C2177.8,893.2,2175.9,893.6,2174.1,893.6z"></path>	</g>	<g>		<path class="st4" d="M2187,845.9c-0.2-1.9-2.1-3.2-4.1-3s-3.4,2-3.2,3.9c0.2,1.9,2.1,3.2,4.1,3   C2185.8,849.6,2187.2,847.8,2187,845.9z"></path>	</g>	<g>		<path class="st4" d="M2132.7,848.8c-0.2-1.9-2.1-3.2-4.1-3c-2,0.3-3.4,2-3.2,3.9c0.2,1.9,2.1,3.2,4.1,3   C2131.5,852.4,2132.9,850.7,2132.7,848.8z"></path>	</g>	<g>		<path class="st4" d="M2153.1,870.9c-0.1,0-0.3,0-0.4-0.1l-5-1.9c-0.6-0.2-1.7-0.6-2.1-1.7c-0.5-1.3,0.4-2.5,0.8-3.1   c3.7-5,5-11.6,3.3-17.4c-0.2-0.6,0.2-1.3,0.8-1.5c0.6-0.2,1.3,0.2,1.5,0.8c1.9,6.6,0.5,13.9-3.7,19.5c-0.3,0.5-0.5,0.8-0.5,0.9   c0,0,0.2,0.1,0.7,0.3l5,1.9c0.6,0.2,0.9,0.9,0.7,1.5C2154,870.6,2153.5,870.9,2153.1,870.9z"></path>	</g>	<g>		<path class="st4" d="M2146.6,841.3c-0.6,0-1.2-0.5-1.2-1.2c-0.1-3.3,3.2-5.7,6.5-6.5c5.3-1.4,11.4,0,15.4,3.6   c0.5,0.4,0.5,1.2,0.1,1.7c-0.4,0.5-1.2,0.5-1.7,0.1c-3.5-3-8.7-4.2-13.3-3c-2.3,0.6-4.7,2.2-4.7,4.2   C2147.8,840.8,2147.3,841.3,2146.6,841.3C2146.6,841.3,2146.6,841.3,2146.6,841.3z"></path>	</g>	<g>		<path class="st4" d="M2207.2,835.6c-0.7,0-1.2-0.5-1.2-1.2c0-0.7,0.5-1.2,1.2-1.2l18-0.1c0,0,0,0,0,0c0.7,0,1.2,0.5,1.2,1.2   c0,0.7-0.5,1.2-1.2,1.2L2207.2,835.6C2207.2,835.6,2207.2,835.6,2207.2,835.6z"></path>	</g>	<g>		<path class="st4" d="M2228.4,848C2228.4,848,2228.4,848,2228.4,848c-0.7,0-1.2-0.5-1.2-1.2c0-4.4-0.8-8.9-2.6-12.9   c-0.3-0.6,0-1.3,0.6-1.6c0.6-0.3,1.3,0,1.6,0.6c1.8,4.3,2.8,9.1,2.7,13.9C2229.6,847.5,2229.1,848,2228.4,848z"></path>	</g>	<g>		<g>							<linearGradient id="SVGID_00000157279444422726134440000002220317825619402883_" gradientUnits="userSpaceOnUse" x1="1997.1445" y1="1064.0817" x2="2367.4055" y2="1064.0817">				<stop offset="0" style="stop-color:#0D77F7"></stop>				<stop offset="1" style="stop-color:#1F85FF"></stop>			</linearGradient>			<path style="fill:url(#SVGID_00000157279444422726134440000002220317825619402883_);" d="M2360,1090.6    c-15.9-43.4-24.7-86.3-62.1-117.5c-18-15-39.7-25.7-64.7-27.3c-1.5,24.2-29.6,40.1-44.7,41.9c-8.2,1-38.7,5-38.7-30.9    c-9.9,4-43,8-56.3,48.8c-5.4,16.7-15.1,80.4-47.2,117.4c-7.6,8.7-14.6-49.4-25.4-45.5c-10.7,3.8-23,10.1-23.8,21.5    c-0.6,8.8,6.6,16.5,14.7,20c17.4,7.5,24,43.8,42.8,46.4c19.5,2.8,50.7,10,74.4-63.9c12.1,12.1,19.9,25,33.4,32.3    c39,21,168.9,44.7,190,48.4c1.8,0.3,5.7-1.1,6.4-2.8C2363.3,1169.1,2375,1131.5,2360,1090.6z"></path>			<path class="st4" d="M2353,1183.5c-0.3,0-0.5,0-0.7-0.1c-25-4.4-151.5-27.6-190.4-48.5c-9.4-5.1-16-12.7-23.1-20.9    c-2.9-3.4-5.9-6.8-9.2-10.3c-10.1,30.7-22.3,49.9-37.3,58.7c-13.1,7.7-25.7,5.9-35.8,4.4c-0.7-0.1-1.3-0.2-2-0.3    c-10.6-1.5-17.4-13-24-24.2c-5.5-9.4-11.3-19-19-22.4c-8.2-3.5-16.2-11.4-15.5-21.1c0.7-9.5,8.7-16.9,24.6-22.5    c1.2-0.4,2.3-0.3,3.4,0.2c5,2.5,8.8,14.8,12.5,26.7c2.5,8,5.9,18.9,8.2,19.4c0.2,0,0.5-0.2,0.8-0.5    c25.5-29.4,36.9-76.7,43.1-102.1c1.6-6.5,2.8-11.6,3.9-14.9c11.6-35.7,38.7-43.9,51.7-47.8c2.1-0.6,3.9-1.2,5.3-1.7    c0.4-0.1,0.8-0.1,1.1,0.1c0.3,0.2,0.5,0.6,0.5,1c0,10.9,2.9,19,8.5,24c9.1,8.1,23.2,6.4,28.5,5.7l0.3,0    c14.4-1.7,42.2-17.3,43.7-40.8c0-0.3,0.2-0.6,0.4-0.8c0.2-0.2,0.5-0.3,0.9-0.3c23.3,1.5,45.3,10.8,65.4,27.5    c31.2,26,42.6,59.7,54.6,95.4c2.5,7.4,5.1,15.1,7.9,22.7c13.6,37.1,5.7,73.9-1.1,89.8C2359.1,1182.1,2355.3,1183.5,2353,1183.5z     M2129,1100.4c0.3,0,0.6,0.1,0.8,0.3c3.9,3.9,7.4,7.9,10.7,11.8c6.9,8,13.4,15.5,22.4,20.4c38.5,20.8,164.7,43.9,189.6,48.3    c1.4,0.2,4.7-1.1,5.1-2.1c0.7-1.7,17.8-42.5,1.1-88c-2.8-7.6-5.4-15.3-7.9-22.7c-11.9-35.3-23.2-68.7-53.9-94.3    c-19.4-16.2-40.5-25.2-62.8-26.9c-1.3,13.4-10.3,23.2-17.6,29c-8.5,6.8-19.5,11.8-28,12.8l-0.3,0c-5.6,0.7-20.5,2.5-30.4-6.3    c-5.9-5.2-9-13.3-9.3-24.1c-1.1,0.4-2.4,0.8-3.9,1.2c-13.6,4.1-38.9,11.7-50.1,46.2c-1.1,3.2-2.3,8.3-3.8,14.7    c-6.2,25.6-17.7,73.2-43.6,103.1c-1.1,1.3-2.3,1.4-3,1.2c-3.5-0.7-5.9-8.1-10-21c-3.2-10.3-7.2-23.2-11.3-25.2    c-0.6-0.3-1.1-0.3-1.6-0.1c-14.9,5.3-22.4,12-23,20.4c-0.6,8.5,6.9,15.7,14,18.8c8.5,3.6,14.4,13.7,20.1,23.3    c6.6,11.1,12.8,21.7,22.3,23c0.7,0.1,1.3,0.2,2,0.3c19.3,2.8,48.5,7.1,71.1-63.3c0.1-0.4,0.4-0.7,0.9-0.8    C2128.9,1100.4,2129,1100.4,2129,1100.4z"></path>		</g>	</g>	<g>		<path class="st3" d="M2313.4,1132.5c-35.6-2-71.5-4.4-107.3-6.9c-3.2-0.5-19.2-2.8-23.1-3.4c-3.3-0.5-6.5-1.7-9.6-3.1   c-10.7-4.9-33.5-14.6-38.6-11.7c-11.8,3.5-22.4,12-30.8,22.7c-4.7,6-8.5,16-6.6,17.7c1.2,1.1,3.1,1.5,4.5,0.4   c5.5-11.9,15.4-21.7,27.4-27.1c-5.5,3.1-10.7,6.9-15.4,11.3c-4.7,4.4-9,9.8-10.1,16.1c-0.1,0.5-0.1,1,0.1,1.5   c0.6,1.1,2.3,0.4,3.2-0.3c1.9-1.5,26.4-21.4,31-20.9c-6.1,2.3-27.8,19.9-27.9,21.8c0,0.9,0.1,1.8,0.7,2.5c0.8,1,2.1,1.3,3.3,1.1   c1.2-0.2,2.3-0.8,3.4-1.5c7-4.3,13.4-9.6,21-12.7c3.8-1.6,8.4-2.5,11.8-0.1c-6.8,2.6-13.1,6.3-18.4,11.2c-0.8,0.8-1.6,1.7-2.1,2.7   c-0.8,1.5-1.8,3.6-0.6,4.9c1.9,2,3.5,1,5.1,0.1c6.5-4.3,13.1-7.8,20.1-10.6c2.2-0.9,4.7-1.6,6.7-0.4c1.7,1.1,9.9,6.2,26.7,7   c5.7,0.3,11.3,1.8,18.4,3.8c94.5,26,122.7,36.4,145.6,26.6c4.5-1.9,6-4.3,4.5-12C2352.4,1152.5,2348.5,1140.9,2313.4,1132.5z"></path>		<path class="st4" d="M2332.7,1190c-18.1,0-43.9-7.2-92.4-20.8c-10.2-2.9-21.8-6.1-34.4-9.6c-6.7-1.8-12.4-3.4-18.2-3.7   c-15.7-0.8-24.3-5.3-27.3-7.2c-1.5-1-3.8-0.3-5.6,0.5c-6.8,2.7-13.3,6.1-19.9,10.5l-0.2,0.1c-1.6,0.9-4,2.3-6.5-0.3   c-1.9-2-0.1-5.2,0.4-6.3c0.6-1.1,1.4-2.1,2.4-3c4.6-4.2,10-7.7,16.1-10.3c-2.7-0.6-5.8,0.3-8.2,1.3c-4.9,2.1-9.5,5.1-13.9,8.1   c-2.2,1.5-4.6,3.1-6.9,4.5c-1.1,0.7-2.4,1.4-3.8,1.6c-1.8,0.3-3.5-0.3-4.5-1.5c-0.7-0.9-1-2-1-3.3c0-0.3,0.3-0.9,0.8-1.5   c-0.4,0.3-0.8,0.6-1.2,0.9c-0.4,0.3-0.7,0.5-0.8,0.7c-0.9,0.7-2.2,1.3-3.4,1.1c-0.7-0.1-1.2-0.5-1.6-1.1c-0.3-0.5-0.4-1-0.4-1.4   c-1.7,1.3-4.1,1.1-5.9-0.5c-3.1-2.8,2.5-14.3,6.4-19.4c9.1-11.7,19.9-19.7,31.2-23.1c6.1-3.1,29.7,7.2,39.6,11.8   c2.5,1.1,5.8,2.5,9.3,3c1,0.2,2.9,0.4,5.2,0.8c6.1,0.9,15.4,2.2,17.9,2.6c35,2.4,71.3,4.9,107.3,6.9c0.1,0,0.1,0,0.2,0   c35.8,8.5,39.8,20.7,43.9,41.5c1.5,7.7,0.2,11-5.2,13.3C2346.4,1188.7,2340.2,1190,2332.7,1190z M2158.7,1145.8   c1.1,0,2.1,0.2,3.1,0.8c2.8,1.8,11,6.1,26.1,6.8c6,0.3,11.9,1.9,18.7,3.8c12.6,3.5,24.2,6.7,34.4,9.6c68,19,91,25.4,110.4,17.1   c3.7-1.6,5.3-3.2,3.8-10.7c-4-20.4-7.6-31.4-42-39.6c-36-2-72.2-4.5-107.3-6.9c0,0-0.1,0-0.1,0c-2.3-0.4-11.7-1.7-17.9-2.6   c-2.3-0.3-4.2-0.6-5.2-0.8c-3.8-0.6-7.3-2-9.9-3.2c-16-7.4-33.8-13.9-37.6-11.8c-0.1,0-0.2,0.1-0.2,0.1   c-10.8,3.2-21.5,11.1-30.2,22.3c-4.9,6.4-7.6,15-6.7,16.1c0.7,0.6,1.8,1,2.7,0.5c5.7-12,15.8-21.9,27.8-27.4   c0.6-0.3,1.3,0,1.6,0.5c0.3,0.6,0.1,1.3-0.5,1.6c-5.5,3.1-10.6,6.8-15.1,11.1c-5.8,5.4-8.9,10.4-9.7,15.5c-0.1,0.5,0,0.6,0,0.7   c0.1,0,0.8-0.1,1.5-0.6c0.1-0.1,0.4-0.3,0.8-0.7c26.3-21,29.9-20.6,31.1-20.5c0.5,0.1,1,0.5,1,1c0.1,0.5-0.2,1.1-0.8,1.3   c-5.8,2.2-25.6,18.2-27.1,20.9c0,0.7,0.1,1.2,0.4,1.6c0.5,0.6,1.5,0.8,2.2,0.6c1-0.2,1.9-0.7,2.9-1.3c2.3-1.4,4.6-3,6.8-4.5   c4.5-3.1,9.2-6.2,14.3-8.4c3.7-1.5,8.9-2.8,12.9,0c0.4,0.3,0.6,0.7,0.5,1.1c-0.1,0.4-0.3,0.8-0.8,1c-6.9,2.6-13,6.3-18,10.9   c-0.7,0.7-1.4,1.5-1.9,2.4c-1,1.7-1.2,3-0.8,3.5c1.1,1.2,1.9,0.9,3.5-0.1l0.1-0.1c6.7-4.4,13.3-7.9,20.2-10.7   C2155.5,1146.4,2157.1,1145.8,2158.7,1145.8z"></path>	</g>	<g>		<g>			<path class="st8" d="M2077.5,1178.5c29.6,0.6,59.2,1.3,88.7,1.9l0.1-15.1l-98.8-2.4L2077.5,1178.5z"></path>		</g>		<g>			<g>				<polygon class="st3" points="1825.4,1040.9 2018.3,1042 2084.8,1178.5 1893.7,1178     "></polygon>				<path class="st4" d="M2084.8,1179.7C2084.8,1179.7,2084.8,1179.7,2084.8,1179.7l-191.1-0.5c-0.4,0-0.9-0.3-1.1-0.7l-68.3-137.1     c-0.2-0.4-0.2-0.8,0.1-1.2c0.2-0.3,0.6-0.6,1-0.6c0,0,0,0,0,0l192.9,1.1c0.5,0,0.9,0.3,1.1,0.7l66.5,136.5     c0.2,0.4,0.2,0.8-0.1,1.2C2085.6,1179.5,2085.2,1179.7,2084.8,1179.7z M1894.4,1176.8l188.4,0.5l-65.3-134.2l-190.2-1     L1894.4,1176.8z"></path>			</g>			<g>				<path class="st3" d="M1947.4,1096.5c-5.5-0.5-11.5,0.9-13.7,6s-0.5,11.3,3.5,15c4.1,3.7,10.1,4.9,15.4,3.7     c2.9-0.7,5.8-2.1,7.4-4.5c1.2-1.7,1.6-3.8,1.7-5.9C1961.8,1104.1,1958.7,1097.7,1947.4,1096.5z"></path>				<path class="st9" d="M1948.6,1122.9c-4.6,0-9-1.6-12.1-4.5c-4.6-4.2-6.2-11.1-3.8-16.4c2.2-4.9,7.7-7.4,14.9-6.7     c12.9,1.3,15.5,9.1,15.5,15.5c0,2.5-0.7,4.7-1.9,6.5c-2.1,3.1-5.6,4.4-8.2,5C1951.5,1122.7,1950,1122.9,1948.6,1122.9z      M1945.3,1097.6c-3.2,0-8.5,0.7-10.5,5.3c-2,4.4-0.6,10.2,3.3,13.7c3.6,3.3,9.1,4.6,14.4,3.4c3-0.7,5.4-2.1,6.7-4     c1.2-1.8,1.4-3.8,1.5-5.2c0.1-7.9-4.3-12.2-13.3-13.1l0,0C1946.8,1097.7,1946.1,1097.6,1945.3,1097.6z"></path>			</g>		</g>	</g>	<g>		<path class="st4" d="M2292.2,1132.4c-0.5,0-1-0.3-1.1-0.8c-13.4-40.6-21-66.3-21-122.1c0-0.7,0.5-1.2,1.2-1.2   c0.7,0,1.2,0.5,1.2,1.2c0,55.4,7.5,80.9,20.9,121.3c0.2,0.6-0.1,1.3-0.8,1.5C2292.4,1132.4,2292.3,1132.4,2292.2,1132.4z"></path>	</g>	<g>		<path class="st4" d="M2129,1102.8c-0.4,0-0.7-0.2-1-0.5c-17.3-24.9-12.6-43.1-8.1-60.7c2.3-8.8,4.6-17.9,4.2-27.9   c0-0.7,0.5-1.2,1.1-1.2c0.7,0,1.2,0.5,1.2,1.1c0.4,10.3-2,19.6-4.3,28.6c-4.6,17.9-8.9,34.8,7.7,58.8c0.4,0.5,0.2,1.3-0.3,1.7   C2129.5,1102.7,2129.3,1102.8,2129,1102.8z"></path>	</g>	<g>		<path class="st4" d="M2185.4,1041.6c-17.5,0-35-1.6-52.1-5.8c-0.2-0.1-0.3-0.3-0.3-0.5c0.1-0.2,0.3-0.3,0.5-0.3   c43.2,10.8,89.8,4.3,130.9-1.5c0.2,0,0.4,0.1,0.4,0.3c0,0.2-0.1,0.4-0.3,0.4C2239.6,1037.8,2212.5,1041.6,2185.4,1041.6z"></path>	</g>	<g>		<path class="st4" d="M2201.2,1075.2c-25.7,0-51.5-3.1-76.4-9.1c-0.2-0.1-0.3-0.3-0.3-0.5c0.1-0.2,0.3-0.3,0.5-0.3   c45.7,11.2,94.3,12.1,140.4,2.7c0.2,0,0.4,0.1,0.5,0.3c0,0.2-0.1,0.4-0.3,0.5C2244.5,1073.1,2222.8,1075.2,2201.2,1075.2z"></path>	</g>	<g>		<path class="st4" d="M2363,1143.6c-0.1,0-0.2,0-0.3-0.1c-16.2-19-42.5-28.6-67.1-24.4c-0.2,0-0.4-0.1-0.5-0.3   c0-0.2,0.1-0.4,0.3-0.5c24.9-4.2,51.5,5.4,67.8,24.7c0.1,0.2,0.1,0.4,0,0.6C2363.1,1143.6,2363,1143.6,2363,1143.6z"></path>	</g>	<g>		<path class="st4" d="M2360,1126c0,0-0.1,0-0.1,0c-2.6-1.1-4.7-3-6.8-4.8c-0.7-0.6-1.5-1.3-2.2-1.9c-4.6-3.8-10.1-6.2-16-7.1   c-0.2,0-0.4-0.2-0.3-0.4c0-0.2,0.2-0.4,0.4-0.3c6,0.9,11.7,3.4,16.4,7.2c0.8,0.6,1.5,1.3,2.2,1.9c2,1.8,4.1,3.7,6.6,4.7   c0.2,0.1,0.3,0.3,0.2,0.5C2360.3,1125.9,2360.2,1126,2360,1126z"></path>	</g>	<path class="st3" d="M2360.1,1179.1c-0.7,0-1.2-0.5-1.2-1.2c0-0.7,0.5-1.2,1.2-1.2c47-0.2,92.9-0.2,140.2,0c0.7,0,1.2,0.5,1.2,1.2  c0,0.7-0.5,1.2-1.2,1.2c0,0,0,0,0,0C2452.9,1178.9,2407.1,1178.9,2360.1,1179.1C2360.1,1179.1,2360.1,1179.1,2360.1,1179.1z"></path>	<path class="st3" d="M2276.2,1179.6L2276.2,1179.6c-404.8-0.2-815.2-0.2-1219.9,0c-0.7,0-1.2-0.5-1.2-1.2c0-0.7,0.5-1.2,1.2-1.2  c404.7-0.2,815.2-0.2,1219.9,0c0.7,0,1.2,0.5,1.2,1.2C2277.4,1179.1,2276.9,1179.6,2276.2,1179.6z"></path>	<path class="st4" d="M1764,1179.1C1764,1179.1,1763.9,1179.1,1764,1179.1c-0.7-0.1-1.2-0.6-1.2-1.3c1.5-20.1-0.9-51.1-3.3-81  c-1.1-13.8-2.1-26.9-2.8-38.8c0-0.7,0.5-1.2,1.1-1.3c0.6,0,1.2,0.5,1.3,1.1c0.7,11.9,1.7,24.9,2.8,38.7c2.4,30,4.9,61.1,3.3,81.4  C1765.1,1178.6,1764.6,1179.1,1764,1179.1z"></path>	<g>		<path class="st3" d="M1423.8,858.3c-4.5,19.3-4.5,46.1-4.5,46.1l11.3,4.6c0,0,10.7,44-56.7,30.5c-13.1-2.6-51-31.4-51-31.4l30-8.6   c0,0,2.9-43.6,4-65.2C1372.6,841.7,1404.9,852.4,1423.8,858.3z"></path>		<path d="M1396.9,943.3c-6.8,0-14.6-0.9-23.2-2.6c-13.2-2.6-49.9-30.4-51.5-31.6c-0.4-0.3-0.5-0.7-0.4-1.2c0.1-0.4,0.4-0.8,0.8-0.9   l29.2-8.3c0.4-6.2,2.9-44.6,4-64.4c0-0.4,0.2-0.8,0.6-1c0.3-0.2,0.8-0.2,1.1-0.1c15,7,45.3,17.3,66.8,24c0.6,0.2,0.9,0.8,0.8,1.4   c-4,17.1-4.4,40.4-4.5,45l10.6,4.3c0.4,0.1,0.6,0.4,0.7,0.8c0.1,0.6,3.5,15-6.2,25.1C1419.5,940.1,1409.9,943.3,1396.9,943.3z    M1325.5,908.6c7.8,5.8,37.6,27.5,48.6,29.7c24.3,4.9,41,2.8,49.6-6.1c7.8-8.1,6.3-19.6,5.8-22.3l-10.7-4.4   c-0.4-0.2-0.7-0.6-0.7-1.1c0-0.3,0.1-26.2,4.3-45.3c-20.7-6.5-49.2-16.1-64.4-23c-1.2,21.9-3.9,63.1-3.9,63.5   c0,0.5-0.4,0.9-0.9,1.1L1325.5,908.6z"></path>	</g>	<g>		<g>			<g>				<path class="st4" d="M1390.8,696.7c-30.2-1.2-59.5,18.2-57.2,34.1c-14.4-4.2-30.9,23.4-30.3,36.3c0.7,16.6,33.1,71.4,40,80.1     c3.2,4.1,5.6,6,11.2,7.7c-0.4-4.6,4-7.5,4.1-12.1c0.1-5.7-7.5-15.6-1.5-15.4c28.5,0.7,24.9,7.2,79-45.5c6.9-6.7,11.4-23,13-35.2     C1450.5,734.7,1442,698.7,1390.8,696.7z"></path>				<path class="st4" d="M1354.5,856.1c-0.1,0-0.2,0-0.3-0.1c-6-1.8-8.5-4-11.8-8.1c-7.2-9-39.5-64.1-40.3-80.8     c-0.4-9.9,8.1-26.2,17.5-33.6c4.3-3.4,8.7-4.8,12.7-4.3c-0.1-4.6,2.1-9.4,6.3-14.1c9.1-10.1,29.3-20.5,52.3-19.6     c21.2,0.8,38,7.8,48.4,20.1c10.2,12,11.6,25.6,10.9,31.1c-1.6,13-6.4,29.2-13.3,35.9c-48.7,47.4-50.9,47.3-71.8,46.2     c-2.4-0.1-5.1-0.3-8.1-0.3c-0.5,0-0.9,0.1-1,0.2c-0.5,0.7,0.7,3.9,1.5,6c1.1,2.8,2.2,5.7,2.2,8.1c0,2.5-1.2,4.5-2.3,6.4     c-1,1.8-2,3.6-1.9,5.6c0,0.4-0.1,0.8-0.4,1C1355,856,1354.7,856.1,1354.5,856.1z M1330.6,731.6c-3.7,0-7.1,2-9.5,3.9     c-9.7,7.6-17,23.5-16.6,31.6c0.7,16.3,32.7,70.5,39.8,79.5c2.7,3.4,4.7,5.2,9.1,6.8c0.3-2,1.2-3.6,2.1-5.2     c1-1.7,1.9-3.4,1.9-5.3c0-1.9-1.1-4.7-2-7.2c-1.4-3.4-2.5-6.4-1.3-8.2c0.6-0.9,1.6-1.3,3-1.2c3.1,0.1,5.8,0.2,8.2,0.3     c19.9,1,22,1.2,70-45.6c6.5-6.4,11-21.9,12.6-34.5c0.6-5.2-0.7-17.9-10.4-29.3c-10.1-12-25.9-18.4-46.7-19.2     c-22.2-0.9-41.7,9.2-50.4,18.8c-4.3,4.8-6.2,9.6-5.6,13.9c0.1,0.4-0.1,0.8-0.4,1.1c-0.3,0.3-0.7,0.4-1.1,0.2     C1332.4,731.7,1331.5,731.6,1330.6,731.6z"></path>			</g>		</g>		<g>			<g>				<path class="st3" d="M1437.8,773.3c0-0.3-10.3,1-19-11.4c-1.7,6.6-2.6,13.4-16,12.8c-6.5-0.3-16.1-10.9-18.5-17.3     c0,0,14.3-3.4-47.8,23.9c0.1,1.3,0.1,2.5,0.2,3.7c0.1,4.4,0.4,14,2.8,23.4c-8.2-5-14.1-3.1-17.9,2.1c-3.9,5.2-2.4,12.4,2.6,16.3     c5.1,3.9,13.1,4.5,19.8,2c3.4,11.3,9.4,34,18.9,43c10.1,9.6,26.2,14.4,41.8,12.4c15.6-2,30.4-10.7,38.3-22.6     c9.1-13.6,9.2-29.8,6.1-44.5C1446,802.3,1440,788.2,1437.8,773.3z"></path>				<path class="st4" d="M1397.5,885.8c-13.6,0-26.7-4.8-35.5-13.2c-8.7-8.3-14.4-27.2-18.1-39.7c-0.3-0.9-0.5-1.8-0.8-2.6     c-7,2.2-14.8,1.2-19.7-2.6c-5.8-4.4-7.1-12.3-2.9-18c4.2-5.7,10.3-7,17.1-3.7c-1.8-8.4-2.1-16.6-2.2-20.7l0-0.3     c0-1.1-0.1-2.3-0.2-3.7c0-0.5,0.3-1,0.7-1.2c33.4-14.7,43.9-20.2,47.2-22.2c0-0.1,0-0.1-0.1-0.2c-0.1-0.3-0.1-0.7,0.1-1     c0.2-0.3,0.4-0.5,0.8-0.6c0.6-0.1,2.4-0.6,2.8,0.8c0.2,0.5,0.2,1-0.6,1.7c3.2,6.1,11.3,14.5,16.6,14.8     c11.7,0.6,13-4.7,14.5-10.7c0.1-0.4,0.2-0.8,0.3-1.1c0.1-0.4,0.5-0.8,0.9-0.9c0.5-0.1,0.9,0.1,1.2,0.5     c4.7,6.7,10.6,10.3,17.5,10.8c0.6,0,1.6,0.1,1.7,1.1l0,0c1.2,8.3,3.7,16.6,6.1,24.6c1.9,6.2,3.8,12.6,5.1,19.1     c3.8,18.2,1.7,33.5-6.3,45.4c-8.2,12.2-23.2,21.1-39.2,23.2C1402.3,885.7,1399.9,885.8,1397.5,885.8z M1343.9,827.6     c0.2,0,0.4,0,0.5,0.1c0.3,0.1,0.5,0.4,0.6,0.7c0.4,1.2,0.7,2.4,1.1,3.8c3.4,11.5,9.2,30.8,17.5,38.7c9.9,9.4,25.5,14,40.8,12.1     c15.3-2,29.7-10.4,37.5-22.1c7.6-11.4,9.6-26,5.9-43.6c-1.3-6.4-3.2-12.8-5.1-18.9c-2.3-7.8-4.7-15.8-6-24     c-6.8-0.5-12.6-3.8-17.4-9.8c-1.5,5.8-3.9,11.9-16.6,11.3c-6.3-0.3-14.9-9.1-18.5-15.8c-1.4,0.8-3.4,1.9-6.3,3.4     c-8,4.1-21.6,10.3-40.2,18.5c0.1,1.1,0.1,2.1,0.1,2.9l0,0.3c0.1,4.5,0.4,13.8,2.7,22.8c0.1,0.5-0.1,1-0.4,1.3     c-0.4,0.3-0.9,0.3-1.3,0.1c-6.9-4.2-12.4-3.6-16.4,1.8c-3.4,4.6-2.3,11,2.4,14.7c4.6,3.5,12.1,4.3,18.6,1.8     C1343.6,827.6,1343.7,827.6,1343.9,827.6z"></path>			</g>		</g>		<g>			<path class="st4" d="M1427.1,796.9c-0.1-1.9-1.7-3.3-3.7-3.3c-2,0.1-3.5,1.6-3.5,3.5c0.1,1.9,1.7,3.3,3.7,3.3    C1425.6,800.3,1427.2,798.7,1427.1,796.9z"></path>		</g>		<g>			<path class="st4" d="M1378.4,806.6c-0.1-1.9-1.7-3.3-3.7-3.3c-2,0.1-3.5,1.6-3.5,3.5c0.1,1.9,1.7,3.3,3.7,3.3    C1376.9,810,1378.4,808.5,1378.4,806.6z"></path>		</g>		<g>			<path class="st4" d="M1398.6,862.3c-4.5,0-8.9-1.6-12.3-4.5c-0.5-0.4-0.5-1.2-0.1-1.7c0.4-0.5,1.2-0.5,1.7-0.1    c4.5,4,11.3,5.1,16.9,2.7c0.6-0.3,1.3,0,1.6,0.6c0.3,0.6,0,1.3-0.6,1.6C1403.5,861.8,1401,862.3,1398.6,862.3z"></path>		</g>		<g>			<path class="st4" d="M1404.6,842.6c0,0-0.1,0-0.1,0c-3.8,0-7.2-1.5-9.5-4c-0.4-0.5-0.4-1.2,0.1-1.7c0.5-0.4,1.2-0.4,1.7,0.1    c1.8,2,4.7,3.2,7.7,3.2c2.7,0,5.6-0.8,8.6-2.4c1-0.5,2.2-1.2,2.8-2.2c0.8-1.2,0.9-3,0.2-4.8c-0.6-1.5-1.5-2.9-2.5-4.3l-0.5-0.7    c-5.7-8.4-9.4-18.1-10.8-28.1c-0.1-0.7,0.4-1.3,1-1.3c0.7-0.1,1.3,0.4,1.3,1c1.3,9.7,5,19,10.5,27.1l0.5,0.7c1,1.5,2.1,3,2.7,4.8    c0.9,2.5,0.8,5-0.4,6.9c-0.9,1.5-2.4,2.4-3.7,3C1410.9,841.7,1407.7,842.6,1404.6,842.6z"></path>		</g>		<g>			<path class="st5" d="M1341.3,816.9c-0.5,0-1-0.3-1.1-0.9c-1.1-4-1.6-6.2-2.6-10.1c-0.2-0.6,0.2-1.3,0.9-1.4    c0.6-0.1,1.3,0.2,1.4,0.9c0.9,3.9,1.4,6,2.6,10c0.2,0.6-0.2,1.3-0.8,1.5C1341.5,816.9,1341.4,816.9,1341.3,816.9z"></path>		</g>	</g>	<g>		<path class="st6" d="M1341.2,1074c7.7-67.6,7.5-134.5,1.9-172.9c-26.4,1.7-71.6,8.6-90.6,24.4c-39.7,33.1-39.7,85.9-49.1,135.2   c-8.6,45.3-12.5,89.9-0.4,105.5c1.2,1.5,10.1,7.4,11.9,7.1c5.6-1,44.2-41.4,44.2-29.4c0,24.3-3.1,34.1-3.1,34.1h66.8   C1323,1177.9,1338.6,1097,1341.2,1074z"></path>		<path d="M1323,1179.1h-66.8c-0.4,0-0.7-0.2-1-0.5c-0.2-0.3-0.3-0.7-0.2-1.1c0-0.1,3-10,3-33.7c0-0.5-0.1-0.9-0.3-1   c-2.9-1.3-17.6,11.4-26.3,19.1c-8.9,7.7-14,12.1-16.2,12.5c-2.7,0.5-12.1-6.2-13.1-7.5c-13.3-17.1-7.2-67.3,0.2-106.4   c1.8-9.2,3.2-18.7,4.6-27.9c6.1-39.7,12.3-80.8,44.9-107.9c18.1-15.1,60.5-22.7,91.3-24.7c0.6,0,1.2,0.4,1.3,1   c6.1,41.9,5.3,109.9-1.9,173.2l0,0c-2.6,22.8-18.1,103.2-18.2,104C1324.1,1178.7,1323.6,1179.1,1323,1179.1z M1257.7,1176.7h64.3   c1.8-9.2,15.6-81.5,18-102.8l1.2,0.1l-1.2-0.1c7.1-62.6,8-129.7,2.1-171.5c-30.4,2.1-71.4,9.6-88.8,24.1   c-31.9,26.6-37.8,65.4-44.1,106.5c-1.4,9.2-2.9,18.7-4.6,28c-10.5,55.4-10.8,91.5-0.7,104.5c1.1,1.4,9.3,6.6,10.8,6.6c0,0,0,0,0,0   c1.7-0.3,8.8-6.5,15-11.9c14.9-12.9,24.9-21.3,28.9-19.4c0.8,0.3,1.7,1.2,1.7,3.2C1260.4,1162.9,1258.5,1173.1,1257.7,1176.7z"></path>	</g>	<g>		<path class="st6" d="M1543.1,1142.7c20.7-2.5,39.3-79.5,7.9-84.9c-4.3-0.7-22.6-74.1-59.4-120.4c-19.6-24.6-61.4-30.7-67.4-33.1   c27,46.7-15.7,273.5-15.7,273.5l55.8,0.1c0,0,12.7-83.5,15-102.8c1.8,10.9,15.9,35.6,31.8,54.5c5.9,7,11.2,5.7,14.9,9.4   C1530.4,1143.4,1538.3,1143.3,1543.1,1142.7z"></path>		<path d="M1464.4,1179.2C1464.4,1179.2,1464.4,1179.2,1464.4,1179.2l-55.9-0.1c-0.4,0-0.7-0.2-0.9-0.4c-0.2-0.3-0.3-0.6-0.3-1   c0.4-2.3,42.2-226.9,15.8-272.6c-0.3-0.4-0.2-1,0.1-1.4c0.3-0.4,0.9-0.5,1.3-0.3c1,0.4,3.2,0.9,6.1,1.6   c13.6,3.3,45.4,11.2,61.8,31.8c25.4,32,42.2,77.4,51.3,101.8c3.3,8.8,6.3,17.1,7.5,18.2c11.6,2.1,18,14,17.6,32.7   c-0.6,23.3-12.1,52.9-25.7,54.5l-0.1-1.2l0.1,1.2c-4.6,0.6-13.1,0.8-17.9-4c-1.3-1.3-3-1.9-4.9-2.6c-2.9-1.1-6.5-2.4-10.2-6.8   c-13.2-15.7-25.9-36.5-30.5-49.3c-3.5,26.2-14.2,96.2-14.3,97C1465.4,1178.7,1464.9,1179.2,1464.4,1179.2z M1409.9,1176.7   l53.4,0.1c1.5-9.6,12.7-83.9,14.9-101.8c0.1-0.6,0.6-1,1.2-1c0.6,0,1.1,0.4,1.2,1c1.8,11.1,16.3,35.9,31.5,54   c3.3,3.9,6.4,5.1,9.2,6.1c2.1,0.8,4,1.5,5.7,3.2c4.2,4.2,12.6,3.7,15.9,3.3c11.1-1.4,23-27.7,23.6-52.2   c0.2-8.3-0.9-27.8-15.8-30.3c-1.9-0.3-3.2-3.5-9.2-19.7c-9-24.3-25.7-69.5-50.9-101.1c-15.9-20-47.2-27.7-60.5-31   c-1.4-0.3-2.6-0.6-3.6-0.9c10,21.3,10.4,72.6,1.1,152.4C1421.1,1115.2,1411.6,1167.5,1409.9,1176.7z"></path>	</g>	<g>		<path d="M1271.3,1128.3c-0.1,0-0.2,0-0.3,0c-0.6-0.2-1-0.8-0.9-1.4c5.5-21.2,8.8-43,13.4-73.3c3.1-20.6,7-46.3,12.7-78.8   c0.1-0.6,0.7-1.1,1.4-1c0.6,0.1,1.1,0.7,1,1.4c-5.7,32.5-9.6,58.1-12.7,78.8c-4.6,30.4-8,52.3-13.5,73.6   C1272.3,1127.9,1271.8,1128.3,1271.3,1128.3z"></path>	</g>	<g>		<path d="M1479.4,1076.4c-0.3,0-0.7-0.1-0.9-0.4c-0.3-0.4-0.4-0.9-0.2-1.3c0.5-2,2.1-21.8,3.9-42.8c1.1-13,2.3-27.8,3.4-40.5   c0.1-0.7,0.6-1.1,1.3-1.1c0.7,0.1,1.1,0.6,1.1,1.3c-1.1,12.7-2.4,27.4-3.4,40.5c-3.6,43.3-3.7,43.4-4.4,44   C1480,1076.3,1479.7,1076.4,1479.4,1076.4z M1478.6,1074.3C1478.6,1074.3,1478.6,1074.3,1478.6,1074.3   C1478.6,1074.3,1478.6,1074.3,1478.6,1074.3z M1478.6,1074.3C1478.6,1074.3,1478.6,1074.3,1478.6,1074.3   C1478.6,1074.3,1478.6,1074.3,1478.6,1074.3z"></path>	</g>	<g>		<path d="M1201.3,1127.5c-0.1,0-0.2,0-0.3-0.1c-0.2-0.2-0.2-0.4,0-0.6c15.3-15.2,40.2-22.8,63.4-19.5c0.2,0,0.4,0.2,0.3,0.4   c0,0.2-0.2,0.4-0.4,0.3c-23-3.3-47.6,4.2-62.8,19.3C1201.5,1127.5,1201.4,1127.5,1201.3,1127.5z"></path>	</g>	<g>		<path d="M1203.2,1134.8c-0.2,0-0.3-0.1-0.4-0.2c-0.1-0.2,0-0.4,0.2-0.5c2.6-1.1,4.8-3,7-4.9c0.8-0.7,1.6-1.4,2.4-2.1   c5-4.1,10.9-6.7,17.3-7.7c0.2,0,0.4,0.1,0.5,0.3c0,0.2-0.1,0.4-0.3,0.4c-6.2,0.9-12.1,3.5-16.9,7.5c-0.8,0.6-1.6,1.4-2.3,2   c-2.2,1.9-4.4,4-7.2,5.1C1203.3,1134.8,1203.2,1134.8,1203.2,1134.8z"></path>	</g>	<g>		<path d="M1395.7,957.7c-12.3,0-24.6-2.8-35.6-8.2c-0.2-0.1-0.3-0.3-0.2-0.5c0.1-0.2,0.3-0.3,0.5-0.2c14.7,7.2,31.6,9.8,47.8,7.2   c8.6-1.4,14.6-4.2,18.4-8.5c0.1-0.2,0.4-0.2,0.6,0c0.2,0.1,0.2,0.4,0,0.6c-3.9,4.5-10.1,7.3-18.8,8.7   C1404.2,957.3,1400,957.7,1395.7,957.7z"></path>	</g>	<g>		<g>			<path class="st3" d="M1632.6,996.3c13.2-13.2,7.7-22.3,22.4-39.7c6.1-7.3,12.1-13.6,17.5-19.3c2.9-3,5.4-6.9,8.4-4.4    c3.5,3-0.3,11-2.1,13.5c-6.8,10-6.3,13.2-5.9,16.9c11.6-9,29.7-20.9,43.6-25.5c1-0.3,3.7-0.1,4.4,0.8c0.9,1.3,0,4.5-2,6    c-8.3,5.9-20.5,14.5-28.9,20.4c15-9.5,34.8-21.6,38-17.7c1,1.2,0.4,4.6-1.7,6.1c-9,6.5-20.9,14.7-29.9,21.2    c7.7-6.6,31.7-20.7,33.6-15.7c1.9,5.1-20.2,19-29.6,24.7c7.6-4.7,25.3-15.8,27.3-11.1c1.5,3.5-3.8,6.8-5.6,8.2    c-14.1,10.9-30.7,25.9-46.1,31.4c-3.7,1.3-9.3,1.9-12.4,4.2c-3.3,2.4-5.1,5.3-7.8,8.4c-75.8,86.4-99.8,115.7-113.5,112.8    c-11.5-2.4-2.9-49.2,8.7-79.7C1557.1,1058.1,1604.6,1024.2,1632.6,996.3z"></path>			<path d="M1544,1139c-0.7,0-1.4-0.1-2.1-0.2c-1.7-0.4-3.1-1.5-4.2-3.4c-6.1-11.3,1.4-50.1,12-77.9c0.2-0.5,0.7-0.8,1.2-0.8    c0,0,0,0,0.1,0c5.7,0,51.9-32.4,80.7-61.2l0.8,0.8l-0.8-0.8c6.4-6.4,8.2-11.6,10.3-17.8c2.1-6.1,4.5-13,12-21.9    c6-7,11.7-13.2,17.6-19.3c0.4-0.4,0.8-0.9,1.2-1.4c2.4-2.7,5.4-6,8.8-3.1c4.4,3.7-0.4,12.9-1.9,15.1c-5.2,7.6-5.9,11.1-5.9,14    c12.2-9.2,29.2-20.1,42.2-24.3c1.2-0.4,4.6-0.3,5.7,1.2c0.5,0.7,0.7,1.8,0.5,3c-0.2,1.5-1.1,3.4-2.8,4.7    c-1.7,1.2-3.5,2.5-5.4,3.8c8.6-4.3,13-5,14.7-2.9c0.6,0.8,0.9,2,0.7,3.3c-0.3,1.8-1.2,3.5-2.6,4.5c-1.7,1.2-3.5,2.5-5.4,3.9    c3.2-1.2,5.9-1.8,7.5-1.4c1.2,0.3,1.8,1.1,2,1.7c0.4,1.1,1.5,3.9-9.7,12.5c2.3-0.8,4.2-1,5.5-0.6c0.9,0.3,1.5,0.9,1.9,1.7    c1.7,4-2.8,7.3-5.2,9c-0.3,0.2-0.5,0.4-0.7,0.6c-2.7,2.1-5.4,4.3-8.3,6.6c-11.9,9.6-25.5,20.5-38.1,25c-1.3,0.5-2.8,0.8-4.4,1.2    c-2.9,0.7-5.9,1.5-7.8,2.8c-2.3,1.7-3.8,3.5-5.5,5.6c-0.7,0.8-1.4,1.7-2.2,2.6c-7.1,8.1-13.8,15.7-20,22.8    C1578.7,1114.4,1557.2,1139,1544,1139z M1551.8,1059c-10.3,27.2-17.5,64.9-11.9,75.2c0.7,1.3,1.5,2,2.6,2.2    c11.7,2.5,33.7-22.6,92.3-89.6c6.2-7.1,12.9-14.7,20-22.8c0.7-0.9,1.4-1.7,2.1-2.5c1.8-2.2,3.4-4.2,5.9-6.1    c2.3-1.7,5.5-2.5,8.6-3.2c1.5-0.4,2.9-0.7,4.1-1.2c12.3-4.4,25.6-15.1,37.4-24.6c2.9-2.3,5.7-4.5,8.4-6.6    c0.2-0.2,0.5-0.4,0.8-0.6c1.9-1.4,5.4-3.9,4.4-6.2c0-0.1-0.1-0.2-0.4-0.3c-3.1-1-13.5,4.9-20.5,9.1c-1.5,0.9-3,1.9-4.6,2.9    c-0.6,0.3-1.3,0.2-1.6-0.4c-0.3-0.6-0.2-1.3,0.4-1.6l0.2-0.1c1.4-0.9,2.8-1.7,4.2-2.6c25.5-16,24.9-20.1,24.8-20.6    c0-0.1-0.1-0.1-0.4-0.2c-3.1-0.8-13.4,4.3-22,9.7c-3.3,2.3-6.5,4.6-9.5,6.7c-0.5,0.4-1.2,0.3-1.6-0.2c-0.4-0.5-0.3-1.2,0.2-1.6    c2.1-1.8,5.6-4.3,9.5-6.8c1.8-1.3,3.7-2.6,5.5-3.9c5.1-3.6,10.5-7.3,15-10.6c1-0.7,1.5-2,1.6-2.9c0.1-0.8,0-1.3-0.2-1.5    c-0.2-0.3-2.1-1.6-13.1,4.1c-7.2,3.7-15.8,9.1-23.4,13.9c-0.5,0.3-1.3,0.2-1.6-0.3c-0.4-0.5-0.2-1.3,0.3-1.6    c4.1-2.9,9.3-6.5,14.4-10.2c5.2-3.6,10.3-7.2,14.5-10.2c1-0.7,1.7-2.1,1.8-3.1c0.1-0.7,0-1.1-0.1-1.2c-0.4-0.3-2.3-0.6-3.1-0.3    c-13.4,4.3-31.1,15.9-43.3,25.3c-0.3,0.3-0.8,0.3-1.2,0.1c-0.4-0.2-0.7-0.6-0.7-1l0-0.3c-0.3-3.8-0.6-7.4,6.2-17.4    c1.8-2.6,4.9-9.7,2.3-12c-1.4-1.2-2.6-0.3-5.5,2.9c-0.4,0.5-0.8,0.9-1.3,1.4c-5.8,6.2-11.6,12.3-17.5,19.2    c-7.3,8.6-9.5,15-11.6,21.1c-2.1,6.1-4.1,11.9-10.9,18.7l0,0C1607.9,1022.6,1561.5,1056.8,1551.8,1059z"></path>		</g>		<g>			<path d="M1672.1,994.5c-0.3,0-0.7-0.1-0.9-0.4c-0.4-0.5-0.4-1.3,0.1-1.7c5.4-4.5,7.4-12.5,4.7-19.1c-0.5-1.2-1.2-2.4-1.8-3.7    c-0.9-1.7-1.9-3.5-2.5-5.5c-0.2-0.6,0.2-1.3,0.8-1.5c0.6-0.2,1.3,0.2,1.5,0.8c0.5,1.7,1.4,3.3,2.3,5c0.7,1.3,1.4,2.6,2,3.9    c3,7.5,0.7,16.6-5.4,21.8C1672.7,994.5,1672.4,994.5,1672.1,994.5z"></path>		</g>	</g>	<g>		<path d="M1523.2,1130.5c-0.2,0-0.4-0.1-0.4-0.3c-3.2-20.5-0.3-42.2,8.1-61.2c0.1-0.2,0.3-0.3,0.5-0.2c0.2,0.1,0.3,0.3,0.2,0.5   c-8.3,18.8-11.2,40.4-8,60.7C1523.7,1130.3,1523.5,1130.5,1523.2,1130.5C1523.3,1130.5,1523.3,1130.5,1523.2,1130.5z"></path>	</g>	<g>		<path d="M1514,1127.2c-0.2,0-0.3-0.1-0.4-0.3c-2.2-7.3-2.4-15-0.7-22.4c0-0.2,0.3-0.3,0.5-0.3c0.2,0,0.3,0.3,0.3,0.5   c-1.7,7.2-1.5,14.9,0.7,22c0.1,0.2-0.1,0.4-0.3,0.5C1514,1127.2,1514,1127.2,1514,1127.2z"></path>	</g>	<g>		<path class="st3" d="M1258.9,1126.8c37.2,6.3,74.8,12.1,112.4,18c3.4,0.2,20.4,1.6,24.6,1.9c3.6,0.3,7.1-0.2,10.6-1   c12.2-2.6,38-7.2,42.6-3.1c11.3,6.3,20.3,17.6,26.4,30.6c3.4,7.3,5,18.5,2.6,19.9c-1.5,0.8-3.6,0.9-4.7-0.6   c-2.9-13.6-10.9-26-21.9-34.4c5,4.5,9.4,9.7,13.2,15.3c3.8,5.7,7,12.2,6.6,19c0,0.5-0.1,1.1-0.5,1.5c-0.9,0.9-2.4-0.1-3.3-1.1   c-1.6-2-22.3-28.3-27.1-28.8c5.7,3.8,24,27.1,23.7,29c-0.2,0.9-0.6,1.9-1.3,2.5c-1,0.8-2.5,0.8-3.7,0.3c-1.2-0.5-2.2-1.4-3.1-2.3   c-6.2-6-11.6-13-18.7-18.1c-3.5-2.5-8.1-4.5-12.1-2.9c6.4,4.2,12,9.5,16.4,15.8c0.7,1,1.2,2.1,1.6,3.3c0.5,1.7,1,4.2-0.5,5.2   c-2.4,1.6-3.8,0.2-5.3-1.1c-5.7-5.9-11.7-11.1-18.2-15.6c-2-1.4-4.5-2.8-6.8-1.9c-2,0.7-11.6,4-29.2,1c-6-1-12-0.8-19.9-0.4   c-103.6,4.8-135.2,8.9-156.5-6.6c-4.2-3-5.2-5.8-1.8-13.4C1214,1138.4,1220.7,1127.2,1258.9,1126.8z"></path>		<path d="M1440.8,1198.7c-1.7,0-3-1.2-4-2.1l-0.1-0.1c-5.8-6.1-11.7-11.1-18.1-15.5c-1.7-1.2-3.9-2.5-5.7-1.8   c-3.5,1.3-13.4,3.9-29.8,1.1c-6-1-12.3-0.7-19.7-0.4c-13.8,0.6-26.5,1.3-37.7,1.8c-75.3,3.7-100.7,5-119.5-8.7   c-5-3.7-5.6-7.3-2.2-14.8c9-20.5,16-32.1,54.9-32.5c0.1,0,0.1,0,0.2,0c37.8,6.4,75.7,12.3,112.3,18c2.6,0.2,12,0.9,18.8,1.5   c2.5,0.2,4.6,0.4,5.8,0.5c3.7,0.3,7.5-0.4,10.3-1c11.3-2.4,38-7.5,43.6-2.9c10.9,6.1,20.2,16.9,26.8,31.1   c2.9,6.3,5.8,19.4,2.1,21.4c-2.3,1.3-4.8,0.9-6.2-0.9c0,0,0,0,0,0c-0.1,0.5-0.3,1-0.7,1.5c-0.5,0.5-1.1,0.8-1.8,0.7   c-1.3-0.1-2.5-1-3.2-1.9c-0.1-0.2-0.4-0.5-0.7-0.9c-0.5-0.6-0.9-1.2-1.4-1.7c0.6,1.1,0.9,1.9,0.8,2.3c-0.2,1.4-0.8,2.5-1.7,3.2   c-1.3,1-3.1,1.2-4.9,0.5c-1.4-0.6-2.5-1.6-3.5-2.5c-2.1-2-4.1-4.2-6.1-6.3c-3.9-4.1-7.8-8.4-12.5-11.7c-2.3-1.6-5.4-3.3-8.5-3.3   c5.7,4.2,10.6,9,14.4,14.5c0.8,1.1,1.3,2.3,1.7,3.6c0.4,1.2,1.4,4.9-1,6.5C1442.5,1198.5,1441.6,1198.7,1440.8,1198.7z    M1414,1176.7c2.2,0,4.3,1.2,6,2.4c6.5,4.5,12.5,9.6,18.4,15.8l0.1,0.1c1.5,1.4,2.2,2,3.7,0.9c0.6-0.4,0.6-1.8,0-3.9   c-0.3-1.1-0.8-2.1-1.4-2.9c-4.1-6-9.5-11.2-16-15.5c-0.4-0.2-0.6-0.7-0.5-1.1c0-0.4,0.3-0.8,0.7-1c4.7-1.9,9.8,0.6,13.2,3   c4.8,3.4,8.9,7.8,12.8,12c1.9,2.1,3.9,4.2,6,6.2c0.9,0.8,1.7,1.6,2.7,2c0.9,0.4,1.9,0.3,2.5-0.1c0.4-0.3,0.7-0.9,0.8-1.6   c-0.9-2.9-17.7-24.4-23.1-28c-0.5-0.3-0.6-0.9-0.5-1.4c0.2-0.5,0.7-0.8,1.2-0.8c1.2,0.1,5,0.5,27.2,28.4c0.3,0.4,0.6,0.7,0.7,0.9   c0.6,0.7,1.3,1.1,1.5,1c0,0,0.1-0.2,0.1-0.7c0.3-5.5-1.7-11.3-6.4-18.3c-3.7-5.5-8.1-10.6-13-15c-0.5-0.4-0.5-1.2-0.1-1.6   c0.4-0.5,1.1-0.6,1.6-0.2c11.1,8.5,19.2,21.1,22.3,34.8c0.8,0.8,2.1,0.6,3,0.1c1.2-1,0.4-10.7-3.1-18.3   c-6.3-13.6-15.6-24.3-25.9-30.1c-0.1,0-0.2-0.1-0.2-0.2c-3.4-3.1-23.3-0.5-41.6,3.3c-3,0.6-6.9,1.3-11,1c-1.1-0.1-3.2-0.3-5.8-0.5   c-6.5-0.5-16.4-1.3-18.8-1.5c0,0-0.1,0-0.1,0c-36.6-5.7-74.5-11.6-112.3-18c-37.4,0.4-43.8,11-52.7,31.1c-3.3,7.4-2,9.4,1.5,12   c18.1,13.2,43.3,11.9,118,8.2c11.2-0.6,23.9-1.2,37.7-1.8c7.5-0.3,13.9-0.6,20.2,0.4c15.8,2.7,25.3,0.2,28.6-1   C1412.7,1176.7,1413.3,1176.7,1414,1176.7z M1463.2,1193.1L1463.2,1193.1L1463.2,1193.1z"></path>	</g>	<g>		<path class="st3" d="M2362.3,806.7c-10.5-1.4-20.6-6.1-28.6-14.1c-19.4-19.4-19.4-50.7,0-70.1c17.8-17.8,45.8-19.2,65.3-4.2   l16.4-16.4c-28.5-24-71.2-22.5-98,4.3c-28.4,28.4-28.4,74.4,0,102.7c12.5,12.5,28.5,19.5,44.9,21V806.7z"></path>		<path class="st4" d="M2362.3,831.2c0,0-0.1,0-0.1,0c-17.2-1.5-33.4-9.1-45.7-21.3c-13.9-13.9-21.6-32.5-21.6-52.2   c0-19.7,7.7-38.3,21.6-52.2c13.1-13.1,30.6-20.8,49.2-21.6c18.5-0.7,36.4,5.3,50.5,17.2c0.3,0.2,0.4,0.5,0.4,0.9   c0,0.3-0.1,0.7-0.3,0.9l-16.4,16.4c-0.4,0.4-1.1,0.5-1.6,0.1c-19.2-14.8-46.6-13-63.7,4.1c-9.1,9.1-14.2,21.3-14.2,34.2   c0,12.9,5,25.1,14.2,34.2c7.6,7.6,17.3,12.4,27.9,13.7c0.6,0.1,1,0.6,1,1.2V830c0,0.3-0.1,0.7-0.4,0.9   C2362.9,831.1,2362.6,831.2,2362.3,831.2z M2368.8,686.3c-18.4,0-36.8,7-50.6,20.8c-13.5,13.5-20.9,31.4-20.9,50.5   c0,19.1,7.4,37,20.9,50.5c11.5,11.5,26.7,18.8,42.9,20.5v-20.9c-10.8-1.6-20.5-6.5-28.3-14.3c-9.6-9.6-14.9-22.3-14.9-35.9   c0-13.6,5.3-26.3,14.9-35.9c17.7-17.7,45.9-19.8,66-4.9l14.8-14.8C2400.6,691.5,2384.7,686.3,2368.8,686.3z"></path>	</g>	<g>		<path class="st4" d="M2408,727.4c6.9,8.9,10.3,19.7,10.3,30.4l23,2.6c0.7-17.5-5-35.3-16.9-49.5L2408,727.4z"></path>		<path class="st4" d="M2441.3,761.7c0,0-0.1,0-0.1,0l-23-2.6c-0.6-0.1-1.1-0.6-1.1-1.2c0-10.7-3.5-21.3-10.1-29.7   c-0.4-0.5-0.3-1.1,0.1-1.6l16.4-16.4c0.2-0.2,0.5-0.4,0.9-0.3c0.3,0,0.6,0.2,0.9,0.4c11.8,14,17.9,31.9,17.2,50.3   c0,0.3-0.2,0.6-0.4,0.9C2441.9,761.6,2441.6,761.7,2441.3,761.7z M2419.5,756.8l20.7,2.4c0.4-16.9-5.2-33.3-15.8-46.4l-14.8,14.8   C2415.8,735.9,2419.3,746.2,2419.5,756.8z"></path>	</g>	<g>		<path class="st10" d="M2416.6,770.5c-2.2,8.1-6.4,15.8-12.8,22.2c-8.1,8.1-18.2,12.8-28.7,14.1V830c16.4-1.4,32.5-8.4,45.1-21   c10.2-10.2,16.8-22.7,19.6-35.9L2416.6,770.5z"></path>		<path class="st4" d="M2375,831.2c-0.3,0-0.6-0.1-0.8-0.3c-0.2-0.2-0.4-0.5-0.4-0.9v-23.2c0-0.6,0.4-1.1,1-1.2   c10.7-1.4,20.4-6.1,28-13.8c6-6,10.3-13.5,12.5-21.7c0.2-0.6,0.7-0.9,1.3-0.9l23.1,2.7c0.3,0,0.6,0.2,0.8,0.5   c0.2,0.3,0.3,0.6,0.2,0.9c-3,13.8-9.9,26.4-19.9,36.5c-12.3,12.3-28.5,19.8-45.8,21.3C2375.1,831.2,2375.1,831.2,2375,831.2z    M2376.2,807.8v20.9c16.2-1.7,31.5-9,43-20.5c9.4-9.4,16-21.1,19-34l-20.8-2.4c-2.4,8.2-6.8,15.7-12.8,21.7   C2396.8,801.3,2387,806.2,2376.2,807.8z"></path>	</g>	<g>					<rect x="1468.5" y="669.1" transform="matrix(0.9738 -0.2274 0.2274 0.9738 -114.5196 354.0132)" class="st4" width="21.3" height="9.9"></rect>		<path class="st4" d="M1469.9,682.5c-0.5,0-1-0.4-1.2-0.9l-2.3-9.7c-0.1-0.3,0-0.6,0.1-0.9c0.2-0.3,0.4-0.5,0.7-0.5l20.8-4.8   c0.6-0.1,1.3,0.2,1.4,0.9l2.3,9.7c0.1,0.3,0,0.6-0.1,0.9c-0.2,0.3-0.4,0.5-0.7,0.5l-20.8,4.8   C1470.1,682.5,1470,682.5,1469.9,682.5z M1469.1,672.5l1.7,7.3l18.4-4.3l-1.7-7.3L1469.1,672.5z"></path>	</g>	<g>		<g>			<path class="st3" d="M1508.8,561.9c-6.9-29.7-36.9-47.9-66.6-40.2c-27.8,7.2-45.3,35.2-39.6,63.3c3.1,15.4,12.4,27.8,24.6,35.5    c13.4,8.3,23.4,13.5,26.9,28.9l36.5-8.5c-3.6-15.2,2.7-24.2,11-37.4C1509.3,591.5,1512.3,576.7,1508.8,561.9z"></path>			<path class="st4" d="M1454.2,650.5c-0.5,0-1-0.4-1.2-0.9c-3.3-13.9-11.9-19.3-23.9-26.6c-0.8-0.5-1.7-1-2.6-1.6    c-13.2-8.2-22.1-21-25.2-36.2c-2.8-13.9-0.2-28.2,7.4-40.4c7.6-12.1,19.3-20.8,33.1-24.3c14.6-3.8,29.8-1.6,42.7,6.2    c12.9,7.8,21.9,20.2,25.3,34.9c0,0,0,0,0,0c3.4,14.7,0.9,29.7-7.2,42.4l-0.8,1.3c-8.1,12.6-13.4,21-10.1,35.2    c0.1,0.3,0,0.6-0.1,0.9c-0.2,0.3-0.4,0.5-0.7,0.5l-36.5,8.5C1454.4,650.5,1454.3,650.5,1454.2,650.5z M1456,521    c-4.5,0-9,0.6-13.4,1.7c-27.3,7.1-44.4,34.3-38.8,61.9c2.9,14.6,11.5,26.9,24.1,34.7c0.9,0.5,1.7,1.1,2.6,1.6    c11.7,7.2,21,12.9,24.6,26.9l34.2-8c-3-14.5,2.8-23.5,10.6-35.8l0.8-1.3c7.7-12.2,10.2-26.6,6.9-40.6l0,0    c-3.3-14.1-11.9-25.9-24.2-33.4C1475,523.6,1465.6,521,1456,521z"></path>		</g>	</g>	<g>		<path class="st10" d="M1452.5,657.5l-4-17l43.2-10.1l4,17c2.8,11.9-4.6,23.9-16.6,26.6l0,0   C1467.3,676.8,1455.3,669.4,1452.5,657.5z"></path>		<path class="st4" d="M1470.1,676.9c-8.1,0-15.5-5.6-17.4-13.8l0,0l-5.2-22.3c-0.1-0.6,0.2-1.3,0.9-1.4l43.2-10.1   c0.3-0.1,0.6,0,0.9,0.1c0.3,0.2,0.5,0.4,0.5,0.7l5.2,22.4c2.2,9.6-3.8,19.3-13.4,21.5l-10.6,2.5   C1472.8,676.7,1471.4,676.9,1470.1,676.9z M1454.9,662.5c0.9,4,3.4,7.5,6.9,9.7c3.5,2.2,7.7,2.9,11.7,1.9l10.6-2.5   c8.3-1.9,13.5-10.3,11.6-18.7l-4.9-21.2l-40.9,9.5L1454.9,662.5z"></path>	</g>	<g>		<path class="st4" d="M1455.3,647.5c-0.2,0-0.3-0.1-0.4-0.3c-0.1-0.2,0.1-0.4,0.3-0.5l33.3-7.8c0.2,0,0.4,0.1,0.5,0.3   c0,0.2-0.1,0.4-0.3,0.5L1455.3,647.5C1455.4,647.5,1455.4,647.5,1455.3,647.5z"></path>	</g>	<g>		<path class="st4" d="M1443.4,596.3c-0.2,0-0.3-0.1-0.4-0.3c-0.1-0.2,0.1-0.4,0.3-0.5l33.3-7.8c0.2,0,0.4,0.1,0.5,0.3   c0.1,0.2-0.1,0.4-0.3,0.5L1443.4,596.3C1443.4,596.3,1443.4,596.3,1443.4,596.3z"></path>	</g>	<g>		<g>			<path class="st3" d="M1438.5,501.1c-0.5,0-1-0.4-1.2-0.9l-4.8-20.5c-0.1-0.6,0.2-1.3,0.9-1.4c0.6-0.1,1.3,0.2,1.4,0.9l4.8,20.5    c0.1,0.6-0.2,1.3-0.9,1.4C1438.7,501.1,1438.6,501.1,1438.5,501.1z"></path>		</g>		<g>			<path class="st3" d="M1500.7,507.7c-0.2,0-0.4-0.1-0.6-0.2c-0.6-0.3-0.7-1.1-0.4-1.6l11.1-17.9c0.3-0.6,1.1-0.7,1.6-0.4    c0.6,0.3,0.7,1.1,0.4,1.6l-11.1,17.9C1501.5,507.5,1501.1,507.7,1500.7,507.7z"></path>		</g>		<g>			<path class="st3" d="M1533.9,553.3c-0.5,0-1-0.4-1.2-0.9c-0.1-0.6,0.2-1.3,0.9-1.4l20.5-4.8c0.6-0.1,1.3,0.2,1.4,0.9    c0.1,0.6-0.2,1.3-0.9,1.4l-20.5,4.8C1534.1,553.3,1534,553.3,1533.9,553.3z"></path>		</g>		<g>			<path class="st3" d="M1388.9,533.8c-0.2,0-0.4-0.1-0.6-0.2l-17.9-11.1c-0.6-0.3-0.7-1.1-0.4-1.6c0.3-0.6,1.1-0.7,1.6-0.4    l17.9,11.1c0.6,0.3,0.7,1.1,0.4,1.6C1389.7,533.6,1389.3,533.8,1388.9,533.8z"></path>		</g>		<g>			<path class="st3" d="M1358.8,594.2c-0.5,0-1-0.4-1.2-0.9c-0.1-0.6,0.2-1.3,0.9-1.4l20.5-4.8c0.6-0.1,1.3,0.2,1.4,0.9    c0.1,0.6-0.2,1.3-0.9,1.4l-20.5,4.8C1359,594.1,1358.9,594.2,1358.8,594.2z"></path>		</g>	</g>	<g>		<g>			<path class="st4" d="M1462.2,637.4c-0.5,0-1-0.3-1.1-0.9c-0.1-0.4-10.6-37.5-31.6-49.2c-0.6-0.3-0.8-1-0.5-1.6    c0.3-0.6,1-0.8,1.6-0.5c21.9,12.3,32.3,49.1,32.8,50.7c0.2,0.6-0.2,1.3-0.8,1.5C1462.4,637.4,1462.3,637.4,1462.2,637.4z"></path>		</g>		<g>			<path class="st4" d="M1477.6,633.8c-0.6,0-1.1-0.4-1.2-1c-0.3-1.6-7.2-39.3,6.9-59.9c0.4-0.5,1.1-0.7,1.7-0.3    c0.5,0.4,0.7,1.1,0.3,1.7c-13.6,19.9-6.6,57.8-6.6,58.2c0.1,0.6-0.3,1.3-0.9,1.4C1477.8,633.8,1477.7,633.8,1477.6,633.8z"></path>		</g>	</g>	<g>		<path class="st4" d="M1429.9,587c-0.5,0-1-0.4-1.2-0.9c-0.1-0.6,0.2-1.3,0.9-1.4c1.8-0.4,2.4-1.5,3.2-2.8c0.9-1.5,2-3.3,4.7-3.9   c2.8-0.6,4.5,0.5,6,1.4c1.3,0.8,2.4,1.5,4.2,1.1c1.8-0.4,2.4-1.5,3.2-2.8c0.9-1.5,2-3.3,4.7-3.9c2.8-0.6,4.5,0.5,6,1.4   c1.3,0.8,2.4,1.5,4.2,1.1c1.8-0.4,2.4-1.5,3.2-2.8c0.9-1.5,2-3.3,4.7-3.9c2.7-0.6,4.5,0.5,6,1.4c1.3,0.8,2.4,1.5,4.2,1.1   c0.6-0.1,1.3,0.2,1.4,0.9c0.1,0.6-0.2,1.3-0.9,1.4c-2.8,0.6-4.5-0.5-6-1.4c-1.3-0.8-2.4-1.5-4.2-1.1c-1.8,0.4-2.4,1.5-3.2,2.8   c-0.9,1.5-2,3.3-4.7,3.9c-2.8,0.6-4.5-0.5-6-1.4c-1.3-0.8-2.4-1.5-4.2-1.1c-1.8,0.4-2.4,1.5-3.2,2.8c-0.9,1.5-2,3.3-4.7,3.9   c-2.8,0.6-4.5-0.5-6-1.4c-1.3-0.8-2.4-1.5-4.2-1.1c-1.8,0.4-2.4,1.5-3.2,2.8c-0.9,1.5-2,3.3-4.7,3.9   C1430.1,587,1430,587,1429.9,587z"></path>	</g>	<g>		<g>			<path class="st3" d="M2096.6,704.8l-7.3-4.1c-4.9,1.4-7.6,2.2-12.4,3.7l-3.9,7.4c-9.1-2.2-7.9-1.9-17.1-4.1l-0.1-8.3    c-3.7-3.5-5.7-5.4-9.4-8.9l-8.3,0.3c-2.6-9-2.3-7.8-5-16.8l7.2-4.3c1.2-4.9,1.9-7.7,3-12.6l-4.4-7.1c6.5-6.8,5.6-5.9,12.1-12.7    l7.3,4.1c4.9-1.4,7.6-2.2,12.4-3.7l3.9-7.4c9.1,2.2,7.9,1.9,17.1,4.1l0.1,8.3c3.7,3.5,5.7,5.4,9.4,8.9l8.3-0.3    c2.6,9,2.3,7.8,5,16.8l-7.2,4.3c-1.2,4.9-1.9,7.7-3.1,12.6l4.4,7.1C2102.2,698.9,2103.1,698,2096.6,704.8z"></path>			<path class="st4" d="M2073,712.9c-0.1,0-0.2,0-0.3,0l-17.1-4.1c-0.5-0.1-0.9-0.6-0.9-1.1l-0.1-7.8l-8.7-8.3l-7.8,0.3    c-0.6,0-1-0.3-1.2-0.9l-5-16.8c-0.2-0.5,0.1-1.1,0.5-1.4l6.8-4l2.8-11.6l-4.2-6.6c-0.3-0.5-0.2-1.1,0.1-1.5l12.1-12.7    c0.4-0.4,1-0.5,1.4-0.2l6.8,3.8l11.5-3.4l3.7-6.9c0.3-0.5,0.8-0.7,1.3-0.6l17.1,4.1c0.5,0.1,0.9,0.6,0.9,1.1l0.1,7.8l8.7,8.3    l7.8-0.3c0.5,0,1,0.3,1.2,0.9l5,16.8c0.2,0.5-0.1,1.1-0.5,1.4l-6.8,4l-2.8,11.6l4.2,6.6c0.3,0.5,0.2,1.1-0.1,1.5l-12.1,12.7    c-0.4,0.4-1,0.5-1.4,0.2l-6.8-3.8l-11.5,3.4l-3.7,6.9C2073.8,712.7,2073.4,712.9,2073,712.9z M2057.1,706.7l15.3,3.7l3.5-6.6    c0.1-0.3,0.4-0.5,0.7-0.6l12.4-3.7c0.3-0.1,0.6-0.1,0.9,0.1l6.5,3.6l10.8-11.4l-4-6.3c-0.2-0.3-0.2-0.6-0.1-0.9l3-12.6    c0.1-0.3,0.3-0.6,0.5-0.7l6.4-3.8l-4.4-15.1l-7.4,0.3c-0.3,0-0.6-0.1-0.9-0.3l-9.4-8.9c-0.2-0.2-0.4-0.5-0.4-0.8l-0.1-7.4    l-15.3-3.7l-3.5,6.6c-0.1,0.3-0.4,0.5-0.7,0.6l-12.4,3.7c-0.3,0.1-0.6,0.1-0.9-0.1l-6.5-3.6l-10.8,11.4l4,6.3    c0.2,0.3,0.2,0.6,0.1,0.9l-3.1,12.6c-0.1,0.3-0.3,0.6-0.5,0.7l-6.4,3.8l4.4,15.1l7.4-0.3c0.3,0,0.6,0.1,0.9,0.3l9.4,8.9    c0.2,0.2,0.4,0.5,0.4,0.8L2057.1,706.7z"></path>		</g>		<g>			<circle class="st3" cx="2073.8" cy="671" r="16.4"></circle>			<path class="st4" d="M2073.8,688.6c-9.7,0-17.6-7.9-17.6-17.6c0-9.7,7.9-17.6,17.6-17.6c9.7,0,17.6,7.9,17.6,17.6    C2091.4,680.7,2083.6,688.6,2073.8,688.6z M2073.8,655.8c-8.4,0-15.2,6.8-15.2,15.2c0,8.4,6.8,15.2,15.2,15.2    c8.4,0,15.2-6.8,15.2-15.2C2089.1,662.6,2082.2,655.8,2073.8,655.8z"></path>		</g>	</g>	<g>		<g>			<path class="st3" d="M1197.5,795.7l-12.5-7c-8.4,2.5-12.9,3.8-21.3,6.3l-6.7,12.6c-15.6-3.8-13.6-3.3-29.2-7.1l-0.2-14.3    c-6.3-6-9.8-9.3-16.1-15.3l-14.3,0.5c-4.5-15.4-3.9-13.4-8.5-28.8l12.3-7.3c2.1-8.5,3.2-13.1,5.2-21.6l-7.6-12.1    c11.1-11.6,9.6-10.1,20.7-21.8l12.5,7c8.4-2.5,12.9-3.8,21.3-6.3l6.7-12.6c15.6,3.8,13.6,3.3,29.2,7.1l0.2,14.3    c6.3,6,9.8,9.3,16.1,15.3l14.3-0.5c4.5,15.4,3.9,13.4,8.5,28.8l-12.3,7.3c-2.1,8.5-3.2,13.1-5.2,21.6l7.6,12.1    C1207.1,785.5,1208.5,784,1197.5,795.7z"></path>			<path class="st4" d="M1157,809.6c-0.2,0-0.3,0-0.5-0.1l-29.2-7.1c-0.9-0.2-1.5-1-1.6-2l-0.1-13.4l-14.8-14.1l-13.4,0.5    c-1,0-1.8-0.6-2-1.5l-8.5-28.8c-0.3-0.9,0.1-1.9,0.9-2.3l11.6-6.8l4.8-19.9l-7.2-11.4c-0.5-0.8-0.4-1.8,0.2-2.5l20.7-21.8    c0.6-0.7,1.7-0.8,2.5-0.4l11.7,6.6l19.7-5.8l6.3-11.9c0.4-0.8,1.4-1.2,2.3-1l29.2,7.1c0.9,0.2,1.5,1,1.6,2l0.1,13.4l14.8,14.1    l13.4-0.5c0.9,0,1.8,0.6,2,1.5l8.5,28.8c0.3,0.9-0.1,1.9-0.9,2.3l-11.6,6.8l-4.8,19.9l7.2,11.4c0.5,0.8,0.4,1.8-0.2,2.5    l-20.7,21.8c-0.6,0.7-1.7,0.8-2.5,0.4l-11.7-6.6l-19.7,5.8l-6.3,11.9C1158.4,809.2,1157.7,809.6,1157,809.6z M1129.8,798.9    l26.1,6.3l5.9-11.2c0.3-0.5,0.7-0.8,1.2-1l21.3-6.3c0.5-0.2,1.1-0.1,1.6,0.2l11.1,6.2l18.5-19.5l-6.8-10.8    c-0.3-0.5-0.4-1-0.3-1.6l5.2-21.6c0.1-0.5,0.5-1,0.9-1.3l10.9-6.5l-7.6-25.8l-12.7,0.5c-0.6,0-1.1-0.2-1.5-0.6l-16.1-15.3    c-0.4-0.4-0.6-0.9-0.6-1.5l-0.1-12.7l-26.1-6.3l-5.9,11.2c-0.3,0.5-0.7,0.8-1.2,1l-21.3,6.3c-0.5,0.2-1.1,0.1-1.6-0.2l-11.1-6.2    l-18.5,19.5l6.8,10.8c0.3,0.5,0.4,1,0.3,1.6l-5.2,21.6c-0.1,0.5-0.5,1-0.9,1.3l-10.9,6.5l7.6,25.8l12.7-0.5    c0.5,0,1.1,0.2,1.5,0.6l16.1,15.3c0.4,0.4,0.6,0.9,0.6,1.5L1129.8,798.9z"></path>		</g>		<g>			<circle class="st3" cx="1158.4" cy="737.8" r="28.1"></circle>			<path class="st4" d="M1158.4,767.9c-16.6,0-30.2-13.5-30.2-30.2c0-16.6,13.5-30.2,30.2-30.2c16.6,0,30.2,13.5,30.2,30.2    C1188.6,754.4,1175.1,767.9,1158.4,767.9z M1158.4,711.7c-14.4,0-26.1,11.7-26.1,26.1c0,14.4,11.7,26.1,26.1,26.1    c14.4,0,26.1-11.7,26.1-26.1C1184.5,723.4,1172.8,711.7,1158.4,711.7z"></path>		</g>	</g>	<g>		<path class="st10" d="M1990.2,713.1c4,0,7.2,3.2,7.2,7.2c0,4-3.2,7.2-7.2,7.2c-4,0-7.2-3.2-7.2-7.2   C1983,716.3,1986.2,713.1,1990.2,713.1z"></path>		<path class="st3" d="M1990.2,728.7c-4.6,0-8.4-3.8-8.4-8.4c0-4.6,3.8-8.4,8.4-8.4c4.6,0,8.4,3.8,8.4,8.4   C1998.6,724.9,1994.8,728.7,1990.2,728.7z M1990.2,714.2c-3.3,0-6,2.7-6,6c0,3.3,2.7,6,6,6c3.3,0,6-2.7,6-6   C1996.2,716.9,1993.5,714.2,1990.2,714.2z"></path>	</g>	<g>		<path class="st10" d="M1656.8,760c4,0,7.2,3.2,7.2,7.2c0,4-3.2,7.2-7.2,7.2c-4,0-7.2-3.2-7.2-7.2   C1649.6,763.2,1652.8,760,1656.8,760z"></path>		<path class="st3" d="M1656.8,775.6c-4.6,0-8.4-3.8-8.4-8.4c0-4.6,3.8-8.4,8.4-8.4c4.6,0,8.4,3.8,8.4,8.4   C1665.2,771.8,1661.4,775.6,1656.8,775.6z M1656.8,761.2c-3.3,0-6,2.7-6,6c0,3.3,2.7,6,6,6c3.3,0,6-2.7,6-6   C1662.8,763.9,1660.1,761.2,1656.8,761.2z"></path>	</g>	<g>		<path class="st10" d="M2500.3,1085.7c4,0,7.2,3.2,7.2,7.2c0,4-3.2,7.2-7.2,7.2s-7.2-3.2-7.2-7.2   C2493.1,1089,2496.3,1085.7,2500.3,1085.7z"></path>		<path class="st3" d="M2500.3,1101.4c-4.6,0-8.4-3.8-8.4-8.4c0-4.6,3.8-8.4,8.4-8.4c4.6,0,8.4,3.8,8.4,8.4   C2508.7,1097.6,2504.9,1101.4,2500.3,1101.4z M2500.3,1086.9c-3.3,0-6,2.7-6,6c0,3.3,2.7,6,6,6c3.3,0,6-2.7,6-6   C2506.3,1089.6,2503.6,1086.9,2500.3,1086.9z"></path>	</g>	<g>		<path class="st10" d="M2388.7,1030.9c4,0,7.2,3.2,7.2,7.2c0,4-3.2,7.2-7.2,7.2c-4,0-7.2-3.2-7.2-7.2   C2381.5,1034.2,2384.7,1030.9,2388.7,1030.9z"></path>		<path class="st3" d="M2388.7,1046.6c-4.6,0-8.4-3.8-8.4-8.4c0-4.6,3.8-8.4,8.4-8.4c4.6,0,8.4,3.8,8.4,8.4   C2397.1,1042.8,2393.4,1046.6,2388.7,1046.6z M2388.7,1032.1c-3.3,0-6,2.7-6,6s2.7,6,6,6s6-2.7,6-6S2392.1,1032.1,2388.7,1032.1z"></path>	</g>	<g>		<path class="st10" d="M1134.1,1089.4c2.9,0,5.2,2.3,5.2,5.2c0,2.9-2.3,5.2-5.2,5.2c-2.9,0-5.2-2.3-5.2-5.2   C1128.9,1091.7,1131.2,1089.4,1134.1,1089.4z"></path>		<path class="st3" d="M1134.1,1100.6c-3.3,0-6-2.7-6-6c0-3.3,2.7-6,6-6c3.3,0,6,2.7,6,6C1140.1,1097.9,1137.4,1100.6,1134.1,1100.6   z M1134.1,1090.2c-2.4,0-4.3,1.9-4.3,4.3c0,2.4,1.9,4.3,4.3,4.3c2.4,0,4.3-1.9,4.3-4.3C1138.4,1092.2,1136.5,1090.2,1134.1,1090.2   z"></path>	</g>	<g>		<circle class="st3" cx="1073.7" cy="1000.8" r="8.8"></circle>		<path class="st3" d="M1073.7,1010.8c-5.5,0-10-4.5-10-10c0-5.5,4.5-10,10-10c5.5,0,10,4.5,10,10   C1083.7,1006.3,1079.2,1010.8,1073.7,1010.8z M1073.7,993.2c-4.2,0-7.6,3.4-7.6,7.6c0,4.2,3.4,7.6,7.6,7.6s7.6-3.4,7.6-7.6   C1081.3,996.6,1077.9,993.2,1073.7,993.2z"></path>	</g>	<g>		<circle class="st3" cx="1499.5" cy="852.7" r="3.2"></circle>		<path class="st3" d="M1499.5,856.3c-2,0-3.6-1.6-3.6-3.6c0-2,1.6-3.6,3.6-3.6c2,0,3.6,1.6,3.6,3.6   C1503.1,854.7,1501.5,856.3,1499.5,856.3z M1499.5,850c-1.5,0-2.8,1.2-2.8,2.8c0,1.5,1.2,2.8,2.8,2.8s2.8-1.2,2.8-2.8   C1502.3,851.2,1501,850,1499.5,850z"></path>	</g>	<g>		<circle class="st3" cx="1644.9" cy="607.2" r="6.1"></circle>		<path class="st3" d="M1644.9,614.1c-3.8,0-6.9-3.1-6.9-6.9c0-3.8,3.1-6.9,6.9-6.9c3.8,0,6.9,3.1,6.9,6.9   C1651.8,611,1648.7,614.1,1644.9,614.1z M1644.9,601.9c-2.9,0-5.3,2.4-5.3,5.3c0,2.9,2.4,5.3,5.3,5.3c2.9,0,5.3-2.4,5.3-5.3   C1650.1,604.3,1647.8,601.9,1644.9,601.9z"></path>	</g>	<path class="st3" d="M2464.3,957.4c-0.6,0-1.2-0.5-1.2-1.1c0-0.7,0.5-1.2,1.1-1.2c3.1-0.1,6.1-0.7,9-1.6c0.6-0.2,1.3,0.1,1.5,0.8  c0.2,0.6-0.1,1.3-0.8,1.5C2470.9,956.7,2467.7,957.3,2464.3,957.4C2464.4,957.4,2464.3,957.4,2464.3,957.4z M2454.9,956.5  c-0.1,0-0.2,0-0.3,0c-3.2-0.8-6.3-2-9.1-3.6c-0.6-0.3-0.8-1-0.5-1.6c0.3-0.6,1-0.8,1.6-0.5c2.7,1.5,5.5,2.6,8.5,3.3  c0.6,0.2,1,0.8,0.9,1.4C2455.9,956.1,2455.4,956.5,2454.9,956.5z M2482.2,951.6c-0.4,0-0.8-0.2-1-0.5c-0.4-0.5-0.2-1.3,0.3-1.6  c2.5-1.7,4.8-3.8,6.8-6.1c0.4-0.5,1.2-0.6,1.7-0.1c0.5,0.4,0.6,1.2,0.1,1.7c-2.1,2.5-4.6,4.7-7.3,6.5  C2482.6,951.5,2482.4,951.6,2482.2,951.6z M2438.5,947.3c-0.3,0-0.6-0.1-0.8-0.3c-2.3-2.3-4.3-4.9-5.9-7.8  c-0.3-0.6-0.1-1.3,0.5-1.6c0.6-0.3,1.3-0.1,1.6,0.5c1.5,2.7,3.4,5.1,5.5,7.3c0.5,0.5,0.5,1.2,0,1.7  C2439.1,947.2,2438.8,947.3,2438.5,947.3z M2494.4,937.3c-0.2,0-0.3,0-0.5-0.1c-0.6-0.3-0.9-1-0.6-1.6c1.3-2.8,2.2-5.7,2.6-8.8  c0.1-0.6,0.7-1.1,1.4-1c0.6,0.1,1.1,0.7,1,1.4c-0.5,3.2-1.5,6.4-2.8,9.4C2495.2,937,2494.8,937.3,2494.4,937.3z M2429.3,931  c-0.5,0-1-0.4-1.2-0.9c-0.7-2.7-1-5.6-1-8.4c0-3.3,0.4-6.6,1.3-9.7c0.2-0.6,0.8-1,1.5-0.8c0.6,0.2,1,0.8,0.8,1.5  c-0.8,2.9-1.2,6-1.2,9.1c0,2.7,0.3,5.3,0.9,7.9c0.2,0.6-0.2,1.3-0.9,1.4C2429.5,930.9,2429.4,931,2429.3,931z M2497.3,918.7  c-0.6,0-1.1-0.4-1.2-1c-0.4-3-1.1-6-2.3-8.9c-0.3-0.6,0-1.3,0.6-1.6c0.6-0.3,1.3,0,1.6,0.6c1.3,3,2.1,6.2,2.5,9.5  c0.1,0.7-0.4,1.2-1,1.3C2497.4,918.7,2497.3,918.7,2497.3,918.7z M2433.4,904.7c-0.2,0-0.4-0.1-0.6-0.2c-0.6-0.3-0.7-1.1-0.4-1.6  c1.7-2.8,3.8-5.3,6.2-7.6c0.5-0.4,1.2-0.4,1.7,0.1c0.4,0.5,0.4,1.2-0.1,1.7c-2.3,2.1-4.2,4.5-5.8,7.1  C2434.2,904.5,2433.8,904.7,2433.4,904.7z M2490.1,901.4c-0.4,0-0.7-0.2-0.9-0.5c-1.9-2.4-4.1-4.5-6.6-6.3  c-0.5-0.4-0.6-1.1-0.3-1.7c0.4-0.5,1.1-0.6,1.7-0.3c2.7,1.9,5,4.2,7.1,6.8c0.4,0.5,0.3,1.3-0.2,1.7  C2490.6,901.3,2490.3,901.4,2490.1,901.4z M2447.2,892c-0.4,0-0.8-0.2-1.1-0.6c-0.3-0.6-0.1-1.3,0.5-1.6c2.9-1.5,6-2.6,9.3-3.2  c0.6-0.1,1.3,0.3,1.4,0.9c0.1,0.6-0.3,1.3-0.9,1.4c-3,0.6-5.9,1.6-8.6,3C2447.6,891.9,2447.4,892,2447.2,892z M2474.9,890.3  c-0.1,0-0.3,0-0.4-0.1c-2.9-1.1-5.9-1.7-8.9-1.9c-0.7-0.1-1.1-0.6-1.1-1.3c0.1-0.7,0.6-1.2,1.3-1.1c3.3,0.3,6.5,1,9.6,2.1  c0.6,0.2,0.9,0.9,0.7,1.5C2475.8,890,2475.4,890.3,2474.9,890.3z"></path>	<path class="st3" d="M1683.3,1149.9C1683.2,1149.9,1683.2,1149.9,1683.3,1149.9c-2.9,0-5.7-0.7-8.2-2c-0.6-0.3-0.8-1-0.5-1.6  c0.3-0.6,1-0.8,1.6-0.5c2.2,1.1,4.6,1.8,7.1,1.7c0.5,0,1,0,1.5-0.1c0.7-0.1,1.2,0.4,1.3,1.1c0.1,0.7-0.4,1.2-1.1,1.3  C1684.4,1149.9,1683.8,1149.9,1683.3,1149.9z M1693.5,1146.3c-0.3,0-0.7-0.2-0.9-0.4c-0.4-0.5-0.3-1.3,0.2-1.7c2.3-1.9,4-4.3,5-7.1  c0.2-0.6,0.9-1,1.5-0.8c0.6,0.2,1,0.9,0.8,1.5c-1.1,3.3-3.1,6.1-5.7,8.3C1694.1,1146.2,1693.8,1146.3,1693.5,1146.3z   M1668.9,1141.5c-0.4,0-0.8-0.2-1-0.6c-1.5-2.6-2.3-5.6-2.3-8.7c0-3.4,1-6.8,2.9-9.6c0.4-0.6,1.1-0.7,1.6-0.3  c0.6,0.4,0.7,1.1,0.3,1.6c-1.6,2.5-2.5,5.4-2.5,8.3c0,2.6,0.7,5.2,2,7.5c0.3,0.6,0.1,1.3-0.4,1.6  C1669.3,1141.5,1669.1,1141.5,1668.9,1141.5z M1699.2,1129.2c-0.5,0-1-0.4-1.1-0.9c-0.8-2.9-2.3-5.4-4.5-7.4  c-0.5-0.4-0.5-1.2-0.1-1.7c0.4-0.5,1.2-0.5,1.7-0.1c2.5,2.3,4.4,5.3,5.2,8.6c0.2,0.6-0.2,1.3-0.8,1.5  C1699.4,1129.2,1699.3,1129.2,1699.2,1129.2z M1676.6,1118.3c-0.5,0-0.9-0.3-1.1-0.7c-0.3-0.6,0-1.3,0.6-1.6c2.3-1,4.7-1.5,7.2-1.5  c0.9,0,1.9,0.1,2.8,0.2c0.6,0.1,1.1,0.7,1,1.4c-0.1,0.6-0.7,1.1-1.4,1c-0.8-0.1-1.6-0.2-2.4-0.2c-2.2,0-4.2,0.4-6.2,1.3  C1676.9,1118.3,1676.7,1118.3,1676.6,1118.3z"></path></g><g class="st12">	<rect x="321" y="-1.1" class="st13" width="277.3" height="347.3"></rect>	<rect x="321" y="1330.8" class="st13" width="277.3" height="347.3"></rect></g></svg>