<svg xmlns="http://www.w3.org/2000/svg" id="Layer_31" data-name="Layer 31" viewBox="0 0 476 475.58"><defs><style> .cls-1 {        fill: #0d6efd;        stroke-width: 0px;      } </style></defs><path class="cls-1" d="m264.18,188.62l-44.54-44.37c-4.77-49.94-23.11-97.61-53.04-137.87-6.25-7.51-17.41-8.53-24.92-2.28-.83.69-1.59,1.45-2.28,2.28-29.93,40.26-48.27,87.93-53.04,137.87l-44.54,44.37c-15.94,15.96-24.87,37.62-24.82,60.18v22.78c.03,9.38,7.62,16.97,17,17h238c9.38-.03,16.97-7.62,17-17v-22.78c.05-22.56-8.88-44.22-24.82-60.18Zm-77.18,65.96h-68v-85c.08-43.17,11.83-85.53,34-122.57,22.17,37.04,33.92,79.4,34,122.57v85Z"/><path class="cls-1" d="m136,118.58h34v34h-34v-34Z"/><path class="cls-1" d="m459,441.58V84.58c-.03-9.38-7.62-16.97-17-17h-102c-9.38.03-16.97,7.62-17,17v357h-17v-102c-.03-9.38-7.62-16.97-17-17h-102c-9.38.03-16.97,7.62-17,17v102h-17v-68c-.03-9.38-7.62-16.97-17-17H34c-9.38.03-16.97,7.62-17,17v68H0v34h476v-34h-17Zm-340,0H51v-51h68v51Zm153,0h-68v-85h68v85Z"/></svg>