<svg xmlns="http://www.w3.org/2000/svg" id="Capa_1" data-name="Capa 1" viewBox="0 0 502 502"><defs><style> .cls-1 {        fill: #0d6efd;      }      .cls-1, .cls-2 {        stroke-width: 0px;      }      .cls-2 {        fill: #0055ba;      } </style></defs><path class="cls-1" d="m360.81,188.25h-47.06v153.11l-31.38,160.64h-62.75l-31.38-160.64v-153.11h-47.06L251,0l109.81,188.25Z"/><path class="cls-1" d="m502,251h-31.38v82.2l-125.5,62.75v106.05h-31.38l-31.38-78.44,31.38-82.2,94.12-47.06v-43.3h-31.38l62.75-125.5,62.75,125.5Z"/><path class="cls-1" d="m188.25,341.36l31.38,82.2-31.38,78.44h-31.38v-106.05l-125.5-62.75v-82.2H0l62.75-125.5,62.75,125.5h-31.38v43.3l94.12,47.06Z"/><g><path class="cls-2" d="m313.75,341.36v160.64h-31.38v-144.95l31.38-15.69Z"/><path class="cls-2" d="m219.62,357.05v144.95h-31.38v-160.64l31.38,15.69Z"/></g></svg>