<svg xmlns="http://www.w3.org/2000/svg" id="Layer_1" data-name="Layer 1" viewBox="0 0 490 490"><defs><style> .cls-1 {        fill: #0d6efd;        stroke-width: 0px;      } </style></defs><path class="cls-1" d="m260.38,274.73c75.74,0,137.37-61.62,137.37-137.37S336.12,0,260.38,0,123.01,61.62,123.01,137.37s61.62,137.37,137.37,137.37h0Zm-14.36-197.24v-1.63c0-7.93,6.43-14.36,14.36-14.36s14.36,6.43,14.36,14.36v1.02h1.02c7.93,0,14.36,6.43,14.36,14.36s-6.43,14.36-14.36,14.36h-23.07c-4.8,0-8.71,3.91-8.71,8.71s3.91,8.71,8.71,8.71h15.38c20.63,0,37.42,16.79,37.42,37.42,0,18.36-13.29,33.66-30.75,36.81v1.63c0,7.93-6.43,14.36-14.36,14.36s-14.36-6.43-14.36-14.36v-1.02h-1.02c-7.93,0-14.36-6.43-14.36-14.36s6.43-14.36,14.36-14.36h23.06c4.8,0,8.71-3.91,8.71-8.71s-3.91-8.71-8.71-8.71h-15.38c-20.63,0-37.42-16.79-37.42-37.42,0-18.36,13.29-33.66,30.75-36.81h0Z"/><path class="cls-1" d="m451.31,88.7l30.75-15.38c7.09-3.54,9.97-12.17,6.42-19.26-3.55-7.09-12.17-9.97-19.26-6.42l-30.75,15.38c-7.09,3.54-9.97,12.17-6.42,19.26,3.56,7.12,12.2,9.95,19.26,6.42Z"/><path class="cls-1" d="m482.06,201.41l-30.75-15.38c-7.09-3.54-15.71-.67-19.26,6.42s-.67,15.71,6.42,19.26l30.75,15.38c7.08,3.54,15.71.68,19.26-6.42,3.55-7.09.67-15.71-6.42-19.26h0Z"/><path class="cls-1" d="m82.28,63.02l-30.75-15.38c-7.09-3.54-15.71-.67-19.26,6.42s-.67,15.71,6.42,19.26l30.75,15.38c7.06,3.53,15.7.7,19.26-6.42,3.55-7.09.67-15.71-6.42-19.26Z"/><path class="cls-1" d="m69.44,186.03l-30.75,15.38c-7.09,3.54-9.97,12.17-6.42,19.26,3.55,7.1,12.18,9.96,19.26,6.42l30.75-15.38c7.09-3.54,9.97-12.17,6.42-19.26s-12.17-9.96-19.26-6.42h0Z"/><path class="cls-1" d="m388.4,315.1l-69.43,69.43c-8.53,8.52-19.85,13.21-31.89,13.21h-52.1c-7.73,0-14.38-5.94-14.74-13.66-.39-8.24,6.18-15.05,14.34-15.05h46.49c16.98,0,30.75-13.77,30.75-30.75s-13.77-30.75-30.75-30.75h-93.63c-43.55,0-57.35,36.68-59.64,46.13h-22.21v105.59h197.96c17.85,0,34.64-6.95,47.27-19.58l104.22-104.23c5.46-5.45,5.79-14.53-.07-20.37-19.09-19.04-48.71-17.83-66.57.03Z"/><path class="cls-1" d="m62.53,322.9H14.36c-7.93,0-14.36,6.43-14.36,14.36v138.39c0,7.93,6.43,14.36,14.36,14.36h48.17c7.93,0,14.36-6.43,14.36-14.36v-138.39c0-7.93-6.43-14.36-14.35-14.36Z"/></svg>