<svg xmlns="http://www.w3.org/2000/svg" id="Layer_1" data-name="Layer 1" viewBox="0 0 451.4 480"><defs><style> .cls-1, .cls-2, .cls-3 {        stroke-width: 0px;      }      .cls-1, .cls-3 {        fill: #0d6efd;      }      .cls-2 {        fill: #fff;      }      .cls-2, .cls-3 {        fill-rule: evenodd;      } </style></defs><path class="cls-2" d="m449.73,205.97c1.21,1.33,1.81,3.1,1.64,4.89-7.64,81.97-66.23,150.17-146.11,170.08,8.3,45.66-21.99,89.41-67.65,97.71-36.94,6.71-73.85-11.89-90.42-45.57H21.08c-11.64-.01-21.07-9.45-21.08-21.09v-227.09c0-11.64,9.44-21.08,21.08-21.09h45.87C80.35,75.83,151.94,8.28,240.55.03c3.51-.32,6.62,2.27,6.94,5.78.02.19.03.39.03.58v197.5h197.5c1.79,0,3.51.75,4.71,2.08h0Zm-180.27-30.42c0,3.53,2.85,6.39,6.38,6.39h169.17c3.53,0,6.39-2.86,6.38-6.39,0-.19,0-.39-.03-.58C442.83,82.12,369.28,8.58,276.44.03c-3.51-.32-6.62,2.26-6.94,5.77-.02.2-.03.4-.03.6v169.16Z"/><path class="cls-3" d="m222.95,466.85c39.36-.15,71.14-32.17,71-71.53-.15-39.15-31.85-70.85-71-71h-.01c-39.36.15-71.14,32.18-70.99,71.54.15,39.14,31.85,70.84,70.99,70.99h0Zm22.32-41.71c-3.99,0-7.22-3.23-7.22-7.22s3.23-7.22,7.22-7.22c3.99,0,7.22,3.23,7.22,7.22h0c0,3.99-3.23,7.22-7.22,7.22Zm-51.87-51.89c0-3.99,3.23-7.22,7.22-7.23,3.99,0,7.22,3.23,7.23,7.22,0,3.99-3.23,7.22-7.22,7.23h0c-3.98,0-7.21-3.23-7.22-7.22Zm53.61-9.79l-39.26,68c-1.38,2.47-4.51,3.36-6.98,1.98s-3.36-4.51-1.98-6.98c.02-.04.05-.08.07-.12l39.26-68c1.39-2.47,4.52-3.34,6.99-1.94s3.34,4.52,1.94,6.99c-.02.03-.03.06-.05.08h0Zm-63.87,9.79c0-9.65,7.82-17.48,17.47-17.48,9.65,0,17.48,7.82,17.48,17.47s-7.82,17.48-17.47,17.48h0c-9.65-.01-17.46-7.83-17.48-17.47Zm62.13,27.19c9.65,0,17.48,7.82,17.48,17.48s-7.82,17.48-17.48,17.48-17.47-7.82-17.48-17.47c.01-9.65,7.83-17.46,17.48-17.48Z"/><path class="cls-3" d="m142.51,419.92c-2.39-7.89-3.6-16.09-3.59-24.34,0-2.26.09-4.5.27-6.71v-63.35c0-3.53,2.86-6.39,6.39-6.39h25.13c3.4,0,6.21,2.67,6.37,6.07,4.83-3.16,9.98-5.82,15.35-7.92,0-.12-.02-.23-.02-.35v-132.43c0-4.59-3.72-8.31-8.31-8.32H21.46c-4.59,0-8.31,3.73-8.31,8.32v227.09c0,4.59,3.72,8.31,8.31,8.31h121.05ZM29.38,249.3v-49.18c0-3.53,2.86-6.39,6.38-6.39h134.93c3.53,0,6.39,2.86,6.39,6.38h0v49.19c0,3.53-2.86,6.39-6.39,6.39H35.76c-3.53,0-6.39-2.86-6.38-6.39,0,0,0,0,0,0Zm37.9,31.65v23.01c0,3.53-2.86,6.39-6.38,6.39h-25.13c-3.53,0-6.39-2.86-6.38-6.39v-23.01c0-3.53,2.86-6.38,6.38-6.38h25.14c3.53,0,6.38,2.86,6.38,6.38h0Zm54.91,0v23.01c0,3.53-2.86,6.39-6.39,6.39h-25.13c-3.53,0-6.39-2.86-6.39-6.39v-23.01c0-3.53,2.86-6.38,6.39-6.38h25.13c3.53,0,6.39,2.86,6.39,6.38h0Zm54.9,0v23.01c0,3.53-2.86,6.39-6.39,6.39h-25.13c-3.53,0-6.39-2.86-6.39-6.39v-23.01c0-3.53,2.86-6.38,6.39-6.38h25.13c3.53,0,6.39,2.85,6.39,6.38h0s0,0,0,0Zm-54.9,44.58v23.01c0,3.53-2.86,6.38-6.39,6.38h-25.13c-3.53,0-6.39-2.86-6.39-6.38v-23.01c0-3.53,2.86-6.39,6.39-6.39h25.13c3.53,0,6.39,2.86,6.39,6.39h0Zm-54.91,0v23.01c0,3.52-2.86,6.38-6.38,6.38h-25.13c-3.52,0-6.38-2.86-6.38-6.38v-23.01c0-3.53,2.86-6.39,6.38-6.39h25.14c3.53,0,6.38,2.86,6.38,6.39h0s0,0,0,0Zm0,46.47v23.01c0,3.52-2.86,6.38-6.38,6.38h-25.14c-3.53,0-6.38-2.86-6.38-6.38v-23.01c0-3.53,2.86-6.39,6.38-6.39h25.14c3.53,0,6.38,2.86,6.38,6.39h0Zm54.91,0v23.01c0,3.53-2.86,6.38-6.39,6.38h-25.13c-3.53,0-6.39-2.86-6.39-6.38v-23.01c0-3.53,2.86-6.39,6.39-6.39h25.13c3.53,0,6.39,2.86,6.39,6.39h0Z"/><g><path class="cls-3" d="m164.31,331.92h-12.35v18.74c3.52-5.53,7.66-10.63,12.35-15.21v-3.54Z"/><path class="cls-1" d="m42.15,287.34h12.35v10.23h-12.35v-10.23Z"/><path class="cls-1" d="m97.06,287.34h12.35v10.23h-12.35v-10.23Z"/><path class="cls-1" d="m151.96,287.34h12.35v10.23h-12.35v-10.23Z"/><path class="cls-1" d="m42.15,331.92h12.35v10.23h-12.35v-10.23Z"/><path class="cls-1" d="m97.06,331.92h12.35v10.23h-12.35v-10.23Z"/><path class="cls-1" d="m42.15,378.39h12.35v10.23h-12.35v-10.23Z"/><path class="cls-1" d="m97.06,378.39h12.35v10.23h-12.35v-10.23Z"/><path class="cls-1" d="m42.15,206.5h122.15v36.41H42.15v-36.41Z"/></g><path class="cls-3" d="m282.61,168.8h155.64c-10.66-81.13-74.51-144.98-155.64-155.65v155.65Z"/><path class="cls-3" d="m438.25,216.29h-196.75c-3.53,0-6.39-2.85-6.39-6.38h0V13.15c-78.61,10.36-142.16,72.05-154.86,150.28h103.85c11.64.01,21.07,9.45,21.08,21.09v128.93c41.6-8.99,83.35,14.52,97.22,54.76,72.26-17.81,126.19-78.12,135.85-151.91h0Z"/></svg>