<svg xmlns="http://www.w3.org/2000/svg" id="Capa_1" data-name="Capa 1" viewBox="0 0 491.8 491.8"><defs><style>      .cls-1 {        fill: #0d6efd;        stroke-width: 0px;      }    </style></defs><path class="cls-1" d="m245.9,0C110.31,0,0,110.32,0,245.9s110.31,245.9,245.9,245.9c65.68,0,128.24-26.48,174.68-72.94,7.72-7.72,6.85-20.67-.98-28.36l-38.81-38.24c8.37-11.46,9.47-25.41,2.57-38.65-9.42-18.09-23.42-32.56-41.57-43-7-4.04-13.62-6.02-20.21-6.01-2.57,0-5.15.31-7.67.91-8.38,2.04-16.43,5.96-24.61,11.98-2.56,1.92-5.73,2.88-9.37,2.88-4.44,0-9.25-1.53-12.55-3.97-23.91-17.82-44.18-38.11-62-62-3.49-4.7-6.28-14.93-1.11-21.94,6.04-8.18,9.95-16.21,11.98-24.6,2.19-9.04.51-18.16-5.09-27.84-10.45-18.18-24.93-32.16-43.01-41.59-5.86-3.05-11.86-4.61-17.84-4.61-9.97,0-19.31,4.35-26.99,12.53-7.06,7.52-13.31,15.49-20.51,25.13-6.6,8.83-6.05,19.02-5.59,28l.02.19c.81,11.41,5.07,24.9,13.03,41.24,13.45,27.67,32.55,53.94,58.39,80.3,5.31,5.42,26.48,26.6,31.91,31.91,26.38,25.85,52.65,44.95,80.3,58.4,16.34,7.95,29.83,12.21,41.24,13.03h.19c2.35.12,4.86.25,7.3.25,5.83,0,13.3-.71,20.03-5.42l25.54,25.16c-36.44,29.8-81.58,46.13-129.27,46.13-112.89,0-204.74-91.85-204.74-204.74S133.01,41.16,245.9,41.16s204.75,91.85,204.75,204.75c0,11.36,9.21,20.58,20.58,20.58s20.58-9.21,20.58-20.58c0-135.59-110.32-245.9-245.9-245.9Z"/></svg>