<svg xmlns="http://www.w3.org/2000/svg" id="Capa_1" data-name="Capa 1" viewBox="0 0 467.26 368.77"><defs><style>      .cls-1 {        fill: #0d6efd;        stroke-width: 0px;      }    </style></defs><path class="cls-1" d="m434.46,97.73h-12.8v140.66c0,21.9-12.75,41.71-38.32,41.71h-250.46v6.69c0,19.36,22.02,38.91,44.64,38.91h191.49l73.26,43.07-10.62-43.07h2.81c22.6,0,32.8-19.5,32.8-38.91v-155.67c0-19.36-10.2-33.39-32.8-33.39Z"/><path class="cls-1" d="m345.96,0H55.05C29.46,0,0,22.74,0,44.65v176.31c0,20.18,24.96,34.76,48.89,37.01l-15.58,59.14,99.83-58.73h212.81c25.59,0,49.21-15.52,49.21-37.42V44.65c0-21.92-23.63-44.65-49.21-44.65ZM99.43,148.83c-14.51,0-26.28-11.76-26.28-26.28s11.76-26.28,26.28-26.28,26.28,11.76,26.28,26.28-11.78,26.28-26.28,26.28Zm98.15,0c-14.51,0-26.28-11.76-26.28-26.28s11.76-26.28,26.28-26.28,26.28,11.76,26.28,26.28-11.76,26.28-26.28,26.28Zm98.17,0c-14.51,0-26.29-11.76-26.29-26.28s11.78-26.28,26.29-26.28,26.28,11.76,26.28,26.28-11.79,26.28-26.28,26.28Z"/></svg>