<svg xmlns="http://www.w3.org/2000/svg" id="Layer_1" data-name="Layer 1" viewBox="0 0 492 492"><defs><style>      .cls-1 {        fill: #0d6efd;        stroke-width: 0px;      }    </style></defs><path class="cls-1" d="m203.72,216.21c0,8.07,6.34,14.41,14.41,14.41s14.41-6.34,14.41-14.41-6.34-14.41-14.41-14.41-14.41,6.34-14.41,14.41Z"/><path class="cls-1" d="m304.62,374.77c88.21,0,162.59-61.69,182.2-144.14h-55.06c-5.77,16.72-21.91,28.83-40.65,28.83-23.93,0-43.24-19.31-43.24-43.24,0-6.63,1.44-12.97,4.32-18.45l-29.12-29.12c-5.48,2.88-11.82,4.32-18.45,4.32s-12.97-1.44-18.45-4.32l-29.12,29.12c2.88,5.48,4.32,11.82,4.32,18.45,0,23.93-19.31,43.24-43.24,43.24s-43.24-19.31-43.24-43.24c0-6.63,1.44-12.97,4.32-18.45l-56.21-56.21c-3.75,14.7-5.77,29.98-5.77,45.84,0,103.21,84.18,187.38,187.38,187.38Z"/><path class="cls-1" d="m290.2,129.73c0,8.07,6.34,14.41,14.41,14.41s14.41-6.34,14.41-14.41-6.34-14.41-14.41-14.41-14.41,6.34-14.41,14.41Z"/><path class="cls-1" d="m376.69,216.21c0,8.07,6.34,14.41,14.41,14.41s14.41-6.34,14.41-14.41-6.34-14.41-14.41-14.41-14.41,6.34-14.41,14.41Z"/><path class="cls-1" d="m304.62,0c-76.11,0-141.83,45.84-170.95,111.28l66.02,66.02c5.48-2.88,11.82-4.32,18.45-4.32s12.97,1.44,18.45,4.32l29.12-29.12c-2.88-5.48-4.32-11.82-4.32-18.45,0-23.93,19.31-43.24,43.24-43.24s43.24,19.31,43.24,43.24c0,6.63-1.44,12.97-4.32,18.45l29.12,29.12c5.48-2.88,11.82-4.32,18.45-4.32,18.74,0,34.88,12.11,40.65,28.83h59.67c.29-4.61.58-9.52.58-14.41C492,84.18,407.82,0,304.62,0Z"/><path class="cls-1" d="m117.23,72.07c0-23.93-19.31-43.24-43.24-43.24-18.74,0-34.88,12.11-40.65,28.83H0v28.83h33.34c5.77,16.72,21.91,28.83,40.65,28.83,6.63,0,12.97-1.44,18.45-4.32l30.56,30.56c2.59-10.38,6.05-20.47,10.67-30.27l-20.76-20.76c2.88-5.48,4.32-11.82,4.32-18.45Z"/><path class="cls-1" d="m73.79,479.36l111.71-111.71c-24.25-16.08-45.07-36.9-61.15-61.15L12.65,418.21c-16.86,16.87-16.86,44.29,0,61.15s44.29,16.87,61.15,0Z"/></svg>