<svg xmlns="http://www.w3.org/2000/svg" id="Layer_1" data-name="Layer 1" viewBox="0 0 428.31 448"><defs><style> .cls-1 {        fill: #0d6efd;        stroke-width: 0px;      } </style></defs><g id="_453-Advertising_Marketing_Megaphone_Speaker" data-name="453-Advertising, Marketing, Megaphone, Speaker"><g><path class="cls-1" d="m27.9,162.46c1.58,0,3.07.76,3.99,2.05.93,1.28,1.18,2.93.68,4.43l-9.17,27.51,61.22-33.39c.72-.39,1.53-.6,2.36-.6h113.89c14.12,0,25.6-11.48,25.6-25.6V54.15h-34.46c-2.72,0-4.92-2.2-4.92-4.92s2.2-4.92,4.92-4.92h34.46v-13.78c0-14.12-11.48-25.6-25.6-25.6H25.6C11.48,4.92,0,16.41,0,30.52v82.71h44.31c2.72,0,4.92,2.2,4.92,4.92s-2.2,4.92-4.92,4.92H0v13.78c0,14.12,11.48,25.6,25.6,25.6h2.3ZM162.46,39.38c5.44,0,9.85,4.41,9.85,9.85s-4.41,9.85-9.85,9.85-9.85-4.41-9.85-9.85,4.41-9.85,9.85-9.85Zm-73.85,19.69c0-1.76.94-3.38,2.46-4.26,1.52-.88,3.4-.88,4.92,0l41.77,24.12c1.52.88,2.46,2.5,2.46,4.26s-.94,3.38-2.46,4.26l-41.77,24.12c-.76.44-1.61.66-2.46.66s-1.7-.22-2.46-.66c-1.52-.88-2.46-2.5-2.46-4.26v-48.24Z"/><path class="cls-1" d="m98.46,67.6v31.18l27.01-15.59-27.01-15.59Z"/><path class="cls-1" d="m157.54,433.23c0,8.14,6.63,14.77,14.77,14.77s14.77-6.63,14.77-14.77v-93.54h-29.54v93.54Z"/><path class="cls-1" d="m236.31,353.37c0-7.54-6.13-13.68-13.68-13.68h-25.71v27.35h25.71c7.54,0,13.68-6.13,13.68-13.67Z"/><path class="cls-1" d="m118.15,271.86v-74.39h-2.19c-20.51,0-37.2,16.69-37.2,37.2s16.69,37.2,37.2,37.2h2.19Z"/><path class="cls-1" d="m206.77,310.15h-61.26v19.69h61.26v-19.69Z"/><path class="cls-1" d="m374.15,115.58l-137.85,55.14v131.11l137.85,52.08V115.58Zm-49.23,150.27c0,2.72-2.2,4.92-4.92,4.92s-4.92-2.2-4.92-4.92v-59.08c0-2.72,2.2-4.92,4.92-4.92s4.92,2.2,4.92,4.92v59.08Zm29.54,39.38c0,2.72-2.2,4.92-4.92,4.92s-4.92-2.2-4.92-4.92v-137.85c0-2.72,2.2-4.92,4.92-4.92s4.92,2.2,4.92,4.92v137.85Z"/><path class="cls-1" d="m398.77,93.54c-8.14,0-14.77,6.63-14.77,14.77v256c0,8.14,6.63,14.77,14.77,14.77s14.77-6.63,14.77-14.77V108.31c0-8.14-6.63-14.77-14.77-14.77Z"/><path class="cls-1" d="m226.46,300.31v-128h-98.35v128h98.35Z"/><circle class="cls-1" cx="418.46" cy="9.85" r="9.85"/><circle class="cls-1" cx="103.38" cy="354.46" r="9.85"/><circle class="cls-1" cx="241.23" cy="423.38" r="9.85"/><circle class="cls-1" cx="379.08" cy="423.38" r="9.85"/><circle class="cls-1" cx="280.62" cy="88.62" r="9.85"/><circle class="cls-1" cx="24.62" cy="265.85" r="9.85"/><path class="cls-1" d="m24.62,359.38h49.23c2.72,0,4.92-2.2,4.92-4.92s-2.2-4.92-4.92-4.92H24.62c-2.72,0-4.92,2.2-4.92,4.92s2.2,4.92,4.92,4.92Z"/><path class="cls-1" d="m123.08,379.08H24.62c-2.72,0-4.92,2.2-4.92,4.92s2.2,4.92,4.92,4.92h98.46c2.72,0,4.92-2.2,4.92-4.92s-2.2-4.92-4.92-4.92Z"/><path class="cls-1" d="m300.31,379.08c-13.57,0-24.62,11.04-24.62,24.62s11.04,24.62,24.62,24.62,24.62-11.04,24.62-24.62-11.04-24.62-24.62-24.62Z"/><path class="cls-1" d="m29.54,408.62c-10.86,0-19.69,8.83-19.69,19.69s8.83,19.69,19.69,19.69,19.69-8.83,19.69-19.69-8.83-19.69-19.69-19.69Z"/><path class="cls-1" d="m315.08,64c16.29,0,29.54-13.25,29.54-29.54s-13.25-29.54-29.54-29.54-29.54,13.25-29.54,29.54,13.25,29.54,29.54,29.54Z"/></g></g></svg>