<svg xmlns="http://www.w3.org/2000/svg" id="Capa_1" data-name="Capa 1" viewBox="0 0 511.99 512"><defs><style> .cls-1, .cls-2 {        fill: #0d6efd;        stroke-width: 0px;      }      .cls-2 {        fill-rule: evenodd;      } </style></defs><g id="Page-1"><g id="_020---Ad-goals" data-name="020---Ad-goals"><g><path id="Path" class="cls-2" d="m205.62,218.1c3.45,3.45,9.03,3.45,12.48,0L383.24,52.97h31.66c4.87,0,8.83-3.95,8.83-8.83s-3.95-8.83-8.83-8.83h-14l20.24-20.24c3.34-3.46,3.3-8.97-.11-12.37-3.4-3.4-8.91-3.45-12.37-.11l-20.24,20.24v-14c0-4.87-3.95-8.83-8.83-8.83s-8.83,3.95-8.83,8.83v31.66l-165.13,165.14c-3.45,3.45-3.45,9.03,0,12.48h0Z"/><path id="Path-2" data-name="Path" class="cls-2" d="m218.04,168.25c-2.04-.35-4.11-.53-6.18-.53-24.38,0-44.14,19.76-44.14,44.14s19.76,44.14,44.14,44.14,44.14-19.76,44.14-44.14c0-2.07-.17-4.14-.53-6.18l-24.89,24.89c-6.6,7.08-16.54,10-25.93,7.6s-16.71-9.72-19.11-19.11.52-19.33,7.6-25.93l24.89-24.89Z"/><path id="Path-3" data-name="Path" class="cls-2" d="m211.86,406.06c27.39.04,54.48-5.76,79.45-17.04v-71.41c-22.85,17.34-50.76,26.71-79.45,26.66-56.66.02-107.06-36-125.36-89.62s-.47-112.95,44.37-147.58c44.84-34.63,106.75-36.9,154-5.64l44.23-44.23C261.67,6.1,168.92,4.54,99.82,53.34,30.72,102.14,1.17,190.07,26.78,270.69s100.48,135.39,185.08,135.37h0Z"/><path id="Path-4" data-name="Path" class="cls-2" d="m404.12,238.34c1.22-8.78,1.87-17.62,1.94-26.48.02-42.35-13.87-83.54-39.55-117.23l-44.23,44.23c19.44,29.26,26.37,65.08,19.24,99.49h62.59Z"/><path id="Path-5" data-name="Path" class="cls-2" d="m272.06,114.23c-50.75-31.39-117.08-18.64-152.59,29.31s-28.34,115.12,16.49,154.5,112.36,37.83,155.34-3.56v-12.01c.06-19.48,12.91-36.61,31.6-42.11,7.9-30.16,3.05-62.24-13.42-88.72l-39.46,39.46c2.43,6.64,3.65,13.67,3.62,20.74,0,34.13-27.67,61.79-61.79,61.79s-61.79-27.67-61.79-61.79,27.67-61.79,61.79-61.79c7.07-.04,14.1,1.19,20.74,3.62l39.46-39.46Z"/></g><path id="Shape" class="cls-1" d="m485.51,256h-150.07c-14.63,0-26.48,11.86-26.48,26.48v141.24c0,14.63,11.86,26.48,26.48,26.48h35.31c4.87,0,8.83,3.95,8.83,8.83s-3.95,8.83-8.83,8.83h-8.83v32.34c-.08,4.64,2.63,8.87,6.89,10.73,4.14,1.94,9.04,1.21,12.42-1.87l46.63-41.2h-21.79c-4.87,0-8.83-3.95-8.83-8.83s3.95-8.83,8.83-8.83h79.45c14.63,0,26.48-11.86,26.48-26.48v-141.24c0-14.63-11.86-26.48-26.48-26.48h0Zm-28.86,119.52l-58.11,43.6c-6.94,5.2-16.23,6.03-23.98,2.15s-12.65-11.82-12.63-20.5v-95.34c-.01-8.67,4.88-16.6,12.63-20.49,7.75-3.89,17.03-3.06,23.98,2.14l58.12,43.6c7.05,5.3,11.2,13.6,11.2,22.42,0,8.82-4.15,17.12-11.2,22.42h0Z"/><path id="Path-6" data-name="Path" class="cls-2" d="m446.06,344.81l-58.12-43.61c-.87-.69-1.95-1.06-3.06-1.07-.83,0-1.65.2-2.39.57-1.81.87-2.94,2.72-2.9,4.72v95.34c-.04,2.01,1.1,3.85,2.9,4.72,1.76.91,3.89.72,5.46-.49l58.1-43.6c2.6-1.96,4.14-5.03,4.14-8.29s-1.53-6.33-4.14-8.29h0Z"/><path id="Path-7" data-name="Path" class="cls-2" d="m294.93,441.37h.12c-2.46-5.56-3.74-11.57-3.74-17.65v-15.48c-52.11,21.11-110.47,20.62-162.21-1.37l-21.57,34.51H8.83c-4.87,0-8.83,3.95-8.83,8.83s3.95,8.83,8.83,8.83h300.13c-6.1-4.6-10.93-10.67-14.04-17.66h0Z"/></g></g></svg>