<svg xmlns="http://www.w3.org/2000/svg" id="Glyph" viewBox="0 0 474 482.46"><defs><style> .cls-1 {        fill: #0d6efd;        stroke-width: 0px;      } </style></defs><path class="cls-1" d="m457.07,0h-135.43c-2.45,0-4.74.51-6.86,1.52,13.8,4.32,23.78,17.1,23.78,32.33v84.64h25.39l8.46,50.79,42.32-50.79h42.32c9.31,0,16.93-7.62,16.93-16.93V16.93c0-9.31-7.62-16.93-16.93-16.93Zm-101.57,67.71c-4.66,0-8.46-3.81-8.46-8.46s3.81-8.46,8.46-8.46,8.46,3.81,8.46,8.46-3.81,8.46-8.46,8.46Zm33.86,0c-4.66,0-8.46-3.81-8.46-8.46s3.81-8.46,8.46-8.46,8.46,3.81,8.46,8.46-3.81,8.46-8.46,8.46Zm33.86,0c-4.66,0-8.46-3.81-8.46-8.46s3.81-8.46,8.46-8.46,8.46,3.81,8.46,8.46-3.81,8.46-8.46,8.46Z"/><path class="cls-1" d="m101.57,169.29l8.46-50.79h25.39V33.86c0-15.24,9.99-28.02,23.78-32.33C157.1.51,154.81,0,152.36,0H16.93C7.62,0,0,7.62,0,16.93v84.64c0,9.31,7.62,16.93,16.93,16.93h42.32l42.32,50.79Zm8.46-135.43c4.66,0,8.46,3.81,8.46,8.46s-3.81,8.46-8.46,8.46-8.46-3.81-8.46-8.46,3.81-8.46,8.46-8.46Zm-35.63,43c.34.51,4.15,5.08,10.24,5.08s9.9-4.57,10.24-5.08c2.88-3.64,8.21-4.32,11.93-1.44,3.64,2.96,4.32,8.21,1.44,11.93-4.4,5.59-12.87,11.51-23.62,11.51s-19.21-5.92-23.62-11.51c-2.88-3.72-2.2-8.97,1.44-11.93,3.72-2.88,9.06-2.2,11.93,1.44Zm-23.62-34.53c0-4.66,3.81-8.46,8.46-8.46s8.46,3.81,8.46,8.46-3.81,8.46-8.46,8.46-8.46-3.81-8.46-8.46Z"/><path class="cls-1" d="m91.92,382.59v-10.92l-11.77,1.61c-7.45,1.02-14.56,3.47-21.08,7.36-15.57,9.14-25.22,25.99-25.22,43.85v41.05c0,4.66,3.81,8.46,8.46,8.46h76.18v-41.05c0-5.42.68-10.75,1.95-15.91-4.66-1.44-9.06-3.47-13.2-6.18-9.56-6.18-15.32-16.76-15.32-28.27Z"/><path class="cls-1" d="m152.1,374.54c3.13-1.86,6.43-3.55,9.9-4.82v-7.7c3.05-1.52,6.01-3.22,8.8-5.25-3.13-4.74-5.67-9.9-7.62-15.32-7.45,6.01-16.76,9.65-26.92,9.9-12.27.51-23.87-4.4-32.59-12.87-8.38-8.29-13.03-19.21-13.03-30.81v-26.07h-1.69c16.42,0,32.59-4.49,46.47-13.04,6.6,4.06,13.8,7.19,21.25,9.4.51-.42,1.1-.68,1.61-1.02.08-.59.08-1.18.08-1.78v-2.03h.25c2.03-16.67,9.23-31.66,19.89-43.51-11.09-10.92-26.32-17.52-43.08-17.52-34.28,0-62.04,27.76-62.04,62.04v7.45h-2.29c-2.29,0-4.4.59-6.18,1.61-4.06,2.2-6.86,6.52-6.86,11.43,0,7.19,5.84,13.04,13.03,13.04h2.62c0,16.17,6.43,31.4,18.11,42.83,4.99,4.99,10.83,8.89,17.01,11.85v20.23c0,5.67,2.88,11,7.7,14.14,3.13,2.03,6.52,3.55,10.07,4.4,5.76-10.83,14.47-20.15,25.48-26.58Z"/><path class="cls-1" d="m410.6,387.92c-5.5-3.3-11.6-5.42-17.94-6.26l-10.58-1.44v2.37c0,11.51-5.76,22.09-15.4,28.36-4.06,2.62-8.46,4.74-13.12,6.09,1.27,5.16,1.95,10.5,1.95,15.91v32.59h76.18v-41.05c0-14.98-8.04-28.86-21.08-36.57Z"/><path class="cls-1" d="m365.15,382.59v-20.23c6.18-2.96,12.02-6.86,17.01-11.85,11.68-11.43,18.11-26.66,18.11-42.83h2.62c7.19,0,13.04-5.84,13.04-13.04,0-4.91-2.79-9.23-6.86-11.43-1.78-1.02-3.89-1.61-6.18-1.61h-2.29v-7.45c0-34.28-27.76-62.04-62.04-62.04-16.76,0-31.99,6.6-43.08,17.52,10.66,11.85,17.86,26.83,19.89,43.51h.25v2.03c0,.59,0,1.18.08,1.78.51.34,1.1.59,1.61,1.02,7.45-2.2,14.64-5.33,21.25-9.4,13.88,8.55,30.05,12.95,46.47,13.04h-1.69v26.07c0,11.6-4.66,22.51-13.04,30.81-8.72,8.46-20.31,13.2-32.59,12.87-9.99-.17-19.21-3.72-26.58-9.65-1.86,5.42-4.32,10.58-7.45,15.4,2.62,1.86,5.42,3.47,8.29,4.91v7.7c3.47,1.27,6.86,2.88,10.07,4.82,10.92,6.43,19.64,15.74,25.39,26.58,3.47-.85,6.86-2.37,9.99-4.4,4.82-3.13,7.7-8.46,7.7-14.14h0Z"/><path class="cls-1" d="m313.35,389.1c-6.52-3.89-13.63-6.35-21.08-7.36l-11.77-1.61v10.92c0,11.51-5.76,22.09-15.4,28.36-8.29,5.42-18.03,8.29-28.1,8.29s-19.81-2.88-28.19-8.38c-9.56-6.26-15.32-16.84-15.32-28.27v-10.92l-11.77,1.61c-7.45,1.02-14.56,3.47-21.08,7.36-15.57,9.14-25.22,25.99-25.22,43.85v41.05c0,4.66,3.81,8.46,8.46,8.46h186.21c4.66,0,8.46-3.81,8.46-8.46v-41.05c0-17.86-9.65-34.7-25.22-43.84Z"/><path class="cls-1" d="m237,220.58c-34.28,0-62.04,27.76-62.04,62.04v7.45h-2.29c-7.19,0-13.03,5.84-13.03,13.04s5.84,13.04,13.04,13.04h2.79c.68,23.87,14.81,44.52,35.04,54.43v20.57c0,5.67,2.88,11,7.7,14.14,5.67,3.72,12.27,5.59,18.88,5.59s13.2-1.86,18.88-5.59c4.82-3.13,7.7-8.46,7.7-14.14v-20.23c6.18-2.96,12.02-6.86,17.01-11.77,11.68-11.43,18.11-26.66,18.11-42.83h2.71c7.19,0,13.04-5.84,13.04-13.04s-5.84-13.04-13.04-13.04h-2.29v-7.45c0-34.28-27.76-62.04-62.04-62.04l-.17-.17Zm44.78,95.56c0,11.6-4.66,22.51-13.04,30.81-8.72,8.55-20.4,13.12-32.59,12.87-24.21-.42-43.93-20.82-43.93-45.37v-24.38h-1.69c16.42,0,32.59-4.49,46.47-13.04,13.88,8.55,30.05,12.95,46.47,13.04h-1.69v26.07Z"/><path class="cls-1" d="m152.36,33.86v84.64c0,9.31,7.62,16.93,16.93,16.93h42.32l25.39,50.79,25.39-50.79h42.32c9.31,0,16.93-7.62,16.93-16.93V33.86c0-9.31-7.62-16.93-16.93-16.93h-135.43c-9.31,0-16.93,7.62-16.93,16.93Zm61.79,22.09c5.08-7.36,16.51-6.26,22.85,0,6.26-6.26,17.77-7.36,22.85,0,13.46,19.47-22.85,45.62-22.85,45.62,0,0-36.31-26.15-22.85-45.62Z"/></svg>