<svg xmlns="http://www.w3.org/2000/svg" id="Capa_1" data-name="Capa 1" viewBox="0 0 487 484.39"><defs><style> .cls-1 {        fill: #0d6efd;        stroke-width: 0px;      } </style></defs><g id="Calque_2" data-name="Calque 2"><g id="_10-_Analytics" data-name=" 10- Analytics"><path class="cls-1" d="m136.86,88.72c-.11-29.39-24.01-53.12-53.4-53.02-29.39.11-53.12,24.01-53.02,53.4.11,29.31,23.9,53.02,53.21,53.02,29.43-.09,53.23-23.98,53.21-53.4Zm-38.96-20.81c0-2.06,1.67-3.73,3.73-3.73s3.73,1.67,3.73,3.73v8.16c0,2.06-1.67,3.73-3.73,3.73s-3.73-1.67-3.73-3.73v-8.16Zm-35.95,0c0-2.06,1.67-3.73,3.73-3.73s3.73,1.67,3.73,3.73v8.16c0,2.06-1.67,3.73-3.73,3.73s-3.73-1.67-3.73-3.73v-8.16Zm-12.4,30.23c-1.43-1.48-1.4-3.84.08-5.27s3.84-1.4,5.27.08c.08.08.16.17.23.26,1,1.12,24.84,27.14,57.44-.38,1.54-1.37,3.89-1.24,5.27.3,1.37,1.54,1.24,3.89-.3,5.27-.05.05-.1.09-.16.13-12.71,10.74-24.45,14.33-34.44,14.33-20.06,0-33.19-14.49-33.39-14.72Z"/><path class="cls-1" d="m168.22,349.33l74.82,41.55v-114.58l-74.82-41.54v114.57Z"/><path class="cls-1" d="m299.97,135.02c-.11-29.39-24.01-53.12-53.4-53.02-29.39.11-53.12,24.01-53.02,53.4.11,29.31,23.9,53.02,53.22,53.02,29.42-.09,53.22-23.98,53.2-53.4Zm-38.95-21.31c0-2.06,1.67-3.73,3.73-3.73s3.73,1.67,3.73,3.73v8.16c0,2.06-1.67,3.73-3.73,3.73s-3.73-1.67-3.73-3.73v-8.16Zm-35.95,0c0-2.06,1.67-3.73,3.73-3.73s3.73,1.67,3.73,3.73v8.16c0,2.06-1.67,3.73-3.73,3.73s-3.73-1.67-3.73-3.73v-8.16Zm-9.59,45.45c-2.06,0-3.73-1.67-3.73-3.73,0-1.09.48-2.13,1.32-2.84,38.27-32.31,67.54.05,67.84.38,1.36,1.55,1.2,3.91-.35,5.26-1.54,1.35-3.89,1.2-5.25-.33-1-1.12-24.83-27.14-57.43.38-.68.58-1.54.89-2.43.9l.02-.02Z"/><path class="cls-1" d="m409.89,106.8c29.49.11,53.48-23.72,53.59-53.21C463.59,24.1,439.77.11,410.27,0c-29.49-.11-53.48,23.72-53.59,53.21v.19c-.02,29.43,23.78,53.32,53.21,53.4Zm14.24-75.03c0-2.06,1.67-3.73,3.73-3.73s3.73,1.67,3.73,3.73v8.16c0,2.06-1.67,3.73-3.73,3.73s-3.73-1.67-3.73-3.73v-8.16Zm-35.94,0c0-2.06,1.67-3.73,3.73-3.73s3.73,1.67,3.73,3.73v8.16c0,2.06-1.67,3.73-3.73,3.73s-3.73-1.67-3.73-3.73v-8.16Zm-9.59,31.6h62.59c2.06,0,3.73,1.67,3.73,3.73s-1.67,3.73-3.73,3.73h-62.61c-2.06,0-3.73-1.67-3.73-3.73s1.67-3.73,3.73-3.73h.02Z"/><path class="cls-1" d="m0,440.02l79.92,44.37v-248.21L0,191.81v248.21Z"/><path class="cls-1" d="m91.27,149.07c-8.09,1.06-16.3.44-24.14-1.81L3.73,185.34l79.85,44.34,73.45-44.09-65.76-36.52Z"/><path class="cls-1" d="m87.38,484.14l73.38-44.04v-248.05l-73.38,44.04v248.05Z"/><path class="cls-1" d="m326.24,220.59l3.2,1.77.18.12.14.1c.17.12.34.25.49.39l.05.06c.13.14.25.28.36.44l.09.13c.12.17.22.36.3.55v.1c.06.17.12.35.16.52v.18c.04.2.06.4.06.61v30.3l74.82,41.56v-123.53l-79.92-44.37.07,91.08Z"/><path class="cls-1" d="m413.62,297.11l73.38-44.04v-123.32l-73.38,44.04v123.32Z"/><path class="cls-1" d="m445.74,102.45c-22.91,16.93-54.54,15.54-75.86-3.35l-39.91,23.96,79.85,44.34,73.45-44.11-37.53-20.84Z"/><path class="cls-1" d="m262.6,193.76c-12.87,3.51-26.53,2.65-38.85-2.45l-55.52,33.33v1.59l78.47,43.57,73.45-44.09-57.56-31.96Z"/><path class="cls-1" d="m250.5,390.63l73.38-44.05v-114.41l-73.38,44.04v114.42Z"/></g></g></svg>