<svg xmlns="http://www.w3.org/2000/svg" id="Layer_1" data-name="Layer 1" viewBox="0 0 480 380.41"><defs><style>      .cls-1 {        fill: #0d6efd;        stroke-width: 0px;      }    </style></defs><path class="cls-1" d="m280.97,325.6l-29,54.81h-41.46l-4.77-47.24,7.95-11.63,7.63,7.63c.94.94,2.22,1.46,3.54,1.46.16,0,.32,0,.49-.02,1.49-.15,2.83-.95,3.67-2.19l28.71-42.82,22.25,28.56c2.63,3.38,3.01,7.65,1,11.43h0Zm113.55-42.37v-11.58l-35.71,30.85,35.71,30.85v-11.58c0-2.76,2.24-5,5-5h46.7v-28.53h-46.7c-2.76,0-5-2.24-5-5h0Zm-80.34,19.26c0-7.2.88-14.2,2.52-20.9l-66.52-21.93,37.68,48.36c5.04,6.47,5.79,15,1.95,22.26l-26.53,50.13h98.12c-28.05-14.71-47.23-44.11-47.23-77.91h0Zm-143.84,34.36l-4.4,43.55h34.52l-4.4-43.55h-25.72Zm-28.03-19.05l30.13-30.13c-18.46-4.38-34.26-18.93-42.42-29.46l-14.87,19.08,27.16,40.5h0Zm-63.77-9.78l37.68-48.36-68.52,22.6C18.28,291.96,0,315.67,0,344.14v33.48c0,1.53,1.25,2.78,2.78,2.78h100.33l-26.53-50.13c-3.84-7.25-3.09-15.78,1.95-22.26h0Zm66.54,21.15c-1.06,1.06-2.54,1.58-4.02,1.44-1.49-.15-2.83-.95-3.67-2.19l-28.71-42.82-22.25,28.56c-2.63,3.38-3,7.65-1,11.43l29,54.81h41.46l4.77-47.24-7.95-11.63-7.63,7.63h0Zm334.92-26.68c0,42.96-34.95,77.91-77.91,77.91s-77.91-34.95-77.91-77.91,34.95-77.91,77.91-77.91,77.91,34.95,77.91,77.91h0Zm-23.79-15.85c0-4.64-3.77-8.42-8.42-8.42h-43.29v-10.04c0-3.34-1.88-6.27-4.91-7.66-3.03-1.39-6.48-.89-9,1.29l-39.72,34.31c-1.85,1.6-2.91,3.92-2.91,6.37s1.06,4.77,2.92,6.37l39.72,34.31c1.58,1.36,3.51,2.06,5.48,2.06,1.19,0,2.39-.26,3.52-.78,3.03-1.39,4.91-4.32,4.91-7.66v-10.04h43.29c4.64,0,8.42-3.77,8.42-8.42v-31.7h0Zm-292.41-60.95c-9.24-3.63-37.04-26.47-43.62-33.74-11.7-12.93-11.77-38.26-11.83-60.6-.02-8.4-.05-16.35-.66-23.44.65-9.63,3.38-21.2,11.61-29.51-1.05,3.66-1.54,7.43-1.44,11.79.04,2.08,1.38,3.92,3.34,4.61,1.97.69,4.15.09,5.49-1.51,15.25-18.21,38.34-19.5,60.66-20.74,8.15-.45,15.85-.88,23.15-2.1,1.73-.29,3.56-.77,5.5-1.29,2.78-.74,6.59-1.75,8.23-1.42,6.04,1.2,12.29,11.72,14.52,24.46.32,1.81,1.6,3.3,3.34,3.88,1.74.58,3.66.16,5-1.09,2.75-2.57,4.78-5.03,6.27-7.27,3.54,7.43,5.15,15.53,5.34,20.11-.61,7.11-.64,15.08-.66,23.51-.06,22.35-.13,47.68-11.83,60.61-6.59,7.28-34.38,30.11-43.62,33.74-3.28,1.29-7.5.79-11.96.27-2.4-.28-4.88-.57-7.37-.6h-.11c-2.48.03-4.97.32-7.37.6-4.47.52-8.69,1.02-11.97-.27h0Zm59.94-97.67c0-2.76-2.24-5-5-5s-5,2.24-5,5v4.34c0,2.76,2.24,5,5,5s5-2.24,5-5v-4.34Zm-24.49-19.62c.7,2.09,2.65,3.42,4.74,3.42.52,0,1.06-.08,1.58-.26,8.49-2.84,17.84-2.83,26.33,0,2.62.88,5.45-.54,6.33-3.16.88-2.62-.54-5.45-3.16-6.32-10.53-3.52-22.13-3.52-32.66,0-2.62.88-4.03,3.71-3.16,6.33h0Zm-26.64,52.53c0,2.76,2.24,5,5,5h11.15c2.76,0,5-2.24,5-5s-2.24-5-5-5h-11.15c-2.76,0-5,2.24-5,5Zm-38.15-49.37c8.49-2.83,17.84-2.83,26.33,0,.52.18,1.06.26,1.58.26,2.09,0,4.04-1.32,4.74-3.42.88-2.62-.54-5.45-3.16-6.32-10.53-3.52-22.13-3.52-32.66,0-2.62.87-4.03,3.71-3.16,6.32.87,2.62,3.71,4.04,6.33,3.16h0Zm18.17,16.46c0-2.76-2.24-5-5-5s-5,2.24-5,5v4.34c0,2.76,2.24,5,5,5s5-2.24,5-5v-4.34Zm9.5,66c6.49,3.89,13.77,5.84,21.05,5.84s14.56-1.95,21.05-5.84c2.37-1.42,3.14-4.49,1.72-6.86-1.42-2.37-4.49-3.14-6.86-1.72-9.82,5.88-22.01,5.88-31.83,0-2.37-1.42-5.44-.65-6.86,1.72-1.42,2.37-.65,5.44,1.72,6.86h0Zm-32.84-133.36c1.99-.7,4.2-.08,5.54,1.55,1.34,1.63,1.5,3.92.42,5.73-1.87,3.13-3.36,5.79-4.5,8.26,16.74-11.44,37.39-12.59,56.04-13.63,7.87-.44,15.3-.85,22.05-1.98,1.27-.21,2.88-.64,4.59-1.09,2.39-.63,4.82-1.26,7.17-1.59,1.79-12.75,3.94-28.58,5.25-39.97-10.57-19.03-53.31-24.01-86.23-9.67-16.51,7.19-50.51,28.65-38.04,80.08,5-13.43,14.47-23.01,27.71-27.69h0Zm64.66,227.01l30.13,30.13,27.16-40.5-14.87-19.08c-8.16,10.53-23.96,25.08-42.42,29.46h0Zm52.08-207.18c1.34-2.46,1.51-4.02,1.52-4.13.2-2.03,1.61-3.74,3.56-4.32.47-.14.94-.2,1.41-.2,1.5,0,2.96.68,3.92,1.9,3.86,4.89,6.79,10.83,8.81,16.71,14.08-38.41,10.68-55.32,4.8-62.76-8.11-10.26-25.16-7.98-34.53-6.42-1.34,11.31-3.35,26.12-5.04,38.15,7.36,3.61,12.5,12.13,15.55,21.07h0Zm-148.16,30.17c-6.02-4-8.77-3.91-9.51-3.77-.29.06-.82.16-1.43,1.16-1.63,2.63.7,11.4,1.95,16.11.68,2.54,1.31,4.94,1.63,6.92l.03.17c.84,5.27,1.64,10.24,2.78,14.04,1.33,4.41,2.49,5.01,2.5,5.01,0,0,.83.08,2.78-1.17-.21-5.97-.23-11.96-.25-17.76-.02-7.42-.04-14.48-.47-20.71h0Zm170.16,20.7c-.02,5.81-.04,11.8-.25,17.77,1.95,1.25,2.78,1.18,2.79,1.17,0,0,1.16-.6,2.49-5.01,1.14-3.8,1.94-8.77,2.78-14.04l.03-.17c.32-1.98.95-4.38,1.63-6.92,1.25-4.71,3.58-13.47,1.95-16.1-.62-1-1.15-1.1-1.43-1.16-.74-.14-3.48-.23-9.51,3.77-.43,6.23-.45,13.28-.47,20.7h0Zm-37.49,117.86c-2.3-6.39-4.05-15.06-5.31-26.29-7.42,5.57-14.52,10.3-19,12.06-2.9,1.14-5.9,1.51-8.83,1.51-2.74,0-5.43-.32-7.96-.61-2.22-.26-4.32-.51-6.26-.53-1.94.02-4.04.27-6.26.53-5.24.62-11.18,1.31-16.79-.89-4.48-1.76-11.58-6.49-19-12.06-1.26,11.23-3.01,19.91-5.31,26.29,6.52,9.62,25.86,29.76,47.36,29.76s40.83-20.13,47.36-29.76h0Zm-62.1,77.62h29.49l8.55-12.51-23.29-23.29-23.29,23.29,8.55,12.51h0Z"/></svg>