<svg xmlns="http://www.w3.org/2000/svg" id="Layer_1" data-name="Layer 1" viewBox="0 0 512 383.47"><defs><style>      .cls-1 {        fill: #0d6efd;        stroke-width: 0px;      }    </style></defs><path class="cls-1" d="m296.17,254.93c8.28,0,15-6.72,15-15v-64.27c-2.3-62.51-92.02-62.4-94.27,0v64.27c.74,19.88,29.27,19.87,30,0v-17.13h34.27v17.13c0,8.28,6.72,15,15,15Zm-49.27-62.13v-17.13c.82-22.71,33.45-22.7,34.27,0v17.13h-34.27Z"/><path class="cls-1" d="m15,254.93h40.17c35.8.02,52.54-44.73,26.1-68.19,14.68-25.44-4.65-58.62-34.13-58.21H15c-8.28,0-15,6.72-15,15v96.4c0,8.28,6.72,15,15,15Zm15-96.4h17.13c11.97.38,12.12,17.74,0,18.2h-17.13v-18.2Zm0,48.2h25.17c12.05.43,12.04,17.78,0,18.2h-25.17v-18.2Z"/><path class="cls-1" d="m198.7,175.67c0-25.99-21.14-47.13-47.13-47.13h-24.1c-8.28,0-15,6.72-15,15v96.4c.74,19.88,29.27,19.87,30,0v-17.13h2.89l27.74,27.74c5.86,5.86,15.35,5.86,21.21,0,5.86-5.86,5.86-15.36,0-21.21l-15.34-15.34c11.94-8.56,19.74-22.54,19.74-38.32h0Zm-47.13,17.13h-9.1v-34.27h9.1c22.7.86,22.69,33.41,0,34.27Z"/><path class="cls-1" d="m448.8,128.53h-8.03c-8.28,0-15,6.72-15,15v96.4c0,8.28,6.72,15,15,15h8.03c83.75-3.19,83.69-123.24,0-126.4h0Zm6.97,95.66v-64.93c34.76,7.93,34.74,57.01,0,64.93Z"/><path class="cls-1" d="m359.37,239.93v-32.86l19.78,39.57c1.36,2.71,6.95,10.23,16.86,7.89,6.77-1.6,11.55-7.64,11.55-14.6v-96.4c-.74-19.88-29.27-19.87-30,0v32.86l-19.78-39.57c-3.11-6.22-10.1-9.49-16.86-7.89-6.77,1.6-11.55,7.64-11.55,14.6v96.4c.74,19.88,29.27,19.87,30,0Z"/><path class="cls-1" d="m497,289.2H15c-8.28,0-15,6.72-15,15v64.27c0,8.28,6.72,15,15,15h482c8.28,0,15-6.72,15-15v-64.27c0-8.28-6.72-15-15-15Z"/><path class="cls-1" d="m497,0H15C6.72,0,0,6.72,0,15v64.27c0,8.28,6.72,15,15,15h482c8.28,0,15-6.72,15-15V15c0-8.29-6.72-15-15-15Z"/></svg>