<svg xmlns="http://www.w3.org/2000/svg" id="Capa_1" data-name="Capa 1" viewBox="0 0 478.4 478.4"><defs><style>      .cls-1 {        fill: #0d6efd;        stroke-width: 0px;      }    </style></defs><path class="cls-1" d="m318.93,0H39.87C17.95,0,0,17.93,0,39.87v398.66c0,21.92,17.95,39.87,39.87,39.87h199.33V199.33c0-43.98,35.75-79.73,79.73-79.73h39.87V39.87c0-21.94-17.95-39.87-39.87-39.87Zm-139.53,438.53h-39.87c-11.02,0-19.93-8.91-19.93-19.93s8.92-19.93,19.93-19.93h39.87c11.02,0,19.93,8.91,19.93,19.93s-8.91,19.93-19.93,19.93Z"/><path class="cls-1" d="m438.53,159.47h-119.6c-21.92,0-39.86,17.95-39.86,39.86v239.2c0,21.92,17.95,39.87,39.86,39.87h119.6c21.92,0,39.87-17.95,39.87-39.87v-239.2c0-21.92-17.95-39.86-39.87-39.86Zm-59.8,279.06c-11.02,0-19.93-8.91-19.93-19.93s8.92-19.93,19.93-19.93,19.94,8.91,19.94,19.93-8.92,19.93-19.94,19.93Z"/></svg>