<svg xmlns="http://www.w3.org/2000/svg" id="_Шар_1" data-name="Шар 1" viewBox="0 0 486.6 320.75"><defs><style>      .cls-1 {        fill: #0d6efd;        stroke-width: 0px;      }    </style></defs><path class="cls-1" d="m359.13,282.54l-19.45-18.96c-9.86-9.61-24.5-12.54-37.3-7.45-11.62,4.62-23.74,8.09-36.17,9.59-2.8.34-5.61.55-8.43.72-4.48.27-8.23,3.78-8.47,8.26-.28,5.19,3.94,9.43,9.03,9.25l52.61-1.69c2.03-.06,3.74,1.64,3.61,3.73-.11,1.83-1.71,3.23-3.55,3.29,0,0-52.78,1.7-52.96,1.7-8.47,0-15.78-7.16-15.77-15.68,0-1.09-.61-2.08-1.58-2.58l-50.96-26.24c-4.46-2.33-9.86-.71-12.3,3.68-2.46,4.42-.87,10.02,3.55,12.49.03.02.06.03.09.05l86.89,51.87c6.87,4.1,14.73,6.24,22.74,6.2,0,0,63.25,0,63.58-.01,4.13-.1,7.44-3.48,7.44-7.61v-24.53c0-2.27-.92-4.45-2.56-6.03l-.02-.02Z"/><circle class="cls-1" cx="421.89" cy="183.19" r="8.79"/><path class="cls-1" d="m484.63,216.34l-74.71-74.71c-1.16-1.16-2.52-2.09-4.03-2.75,0,0-26.04-11.35-26.06-11.36-2.51-1.1-5.58-.54-7.55,1.43,0,0-39.64,39.64-39.64,39.64-2,2-2.56,4.96-1.43,7.55l11.36,26.06c.66,1.51,1.58,2.87,2.75,4.03,0,0,74.58,74.59,74.71,74.71,2.62,2.62,7.04,2.61,9.65,0l54.96-54.96c2.63-2.63,2.63-7.03,0-9.65Zm-96.91,18.52c-8.71,0-15.8-7.09-15.8-15.8s7.09-15.8,15.8-15.8,15.8,7.09,15.8,15.8c0,8.71-7.09,15.8-15.8,15.8Zm45.64-5.18c-1.23,1.25-3.25,1.71-4.86.1l-52.36-52.36c-1.37-1.37-1.37-3.59,0-4.96,1.37-1.37,3.59-1.37,4.96,0,0,0,52.27,52.27,52.36,52.36,1.56,1.56,1.13,3.61-.1,4.86Zm-11.47-30.69c-8.71,0-15.8-7.09-15.8-15.8s7.09-15.8,15.8-15.8,15.8,7.09,15.8,15.8-7.09,15.8-15.8,15.8Z"/><path class="cls-1" d="m387.72,210.28c-4.84,0-8.79,3.94-8.79,8.79s3.94,8.79,8.79,8.79,8.79-3.94,8.79-8.79-3.94-8.79-8.79-8.79Z"/><path class="cls-1" d="m325.23,102.15c-7.05-35.38-41.14-51.4-74.97-51.4s-67.92,16.02-74.97,51.4c-.36,1.83,1.34,3.38,3.14,2.86,9.66-2.82,21.5-2.81,31.04.51,1.55.54,3.2-.5,3.32-2.14,1.54-21.01,6.97-37.25,15.18-44.67,1.29-1.17,3.3-1.31,4.65-.21,1.72,1.41,1.72,3.94.13,5.35-7.17,6.4-11.99,22.32-13.13,42.66-.1,1.86,1.8,3.14,3.5,2.38,15.67-7,38.57-7.02,54.27,0,1.7.76,3.6-.52,3.5-2.38-1.16-20.59-6.11-36.62-13.5-42.99-1.28-1.11-1.81-2.93-1.02-4.43,1.09-2.06,3.7-2.49,5.38-1.08,8.8,7.4,14.43,23.6,15.98,45.35.12,1.64,1.77,2.69,3.32,2.15,9.29-3.23,21.47-3.29,31.03-.5,1.79.52,3.5-1.03,3.14-2.86Z"/><path class="cls-1" d="m130.86,143.12h-64.11c-6.34,0-11.48,5.14-11.48,11.48v160.33c0,3.21,2.61,5.82,5.82,5.82h75.44c3.21,0,5.82-2.61,5.82-5.82v-160.33c0-6.34-5.14-11.48-11.48-11.48Zm-35.42,90.29c-.67,6.71-6.09,12.13-12.8,12.8-9.06.91-16.65-6.68-15.74-15.74.67-6.71,6.1-12.13,12.8-12.8,9.06-.91,16.64,6.68,15.74,15.74Z"/><path class="cls-1" d="m253.45,141.94c-29.43-1.88-53.79,22.48-51.91,51.91,1.56,24.33,21.2,43.97,45.53,45.53,29.43,1.88,53.79-22.48,51.91-51.91-1.56-24.33-21.2-43.97-45.53-45.53Zm2.15,75.88c-1.07.19-1.88,1.08-1.88,2.17v4.2c0,1.83-1.34,3.47-3.16,3.64-2.09.2-3.85-1.44-3.85-3.49v-4.53c0-1.04-.74-1.9-1.75-2.13-6.79-1.55-11.9-7.57-12.02-14.8-.03-1.9,1.34-3.63,3.23-3.77,2.06-.15,3.78,1.47,3.78,3.5,0,4.65,3.79,8.44,8.44,8.44h4.32c4.39,0,8.24-3.25,8.65-7.63.47-5.02-3.48-9.26-8.4-9.26h-5.12c-8.27,0-15.35-6.34-15.8-14.6-.44-8.01,5.27-14.78,12.82-16.08,1.06-.18,1.85-1.06,1.85-2.13v-4.23c0-1.83,1.34-3.47,3.16-3.64,2.09-.2,3.85,1.44,3.85,3.49v4.54c0,1.03.73,1.89,1.74,2.11,6.8,1.54,11.91,7.57,12.04,14.8.03,1.9-1.34,3.63-3.23,3.77-2.06.15-3.78-1.47-3.78-3.5,0-4.65-3.79-8.44-8.44-8.44h-4.32c-4.39,0-8.24,3.25-8.65,7.63-.47,5.02,3.48,9.25,8.4,9.25h5.12c8.27,0,15.35,6.34,15.79,14.6.44,8-5.25,14.76-12.79,16.07Z"/><path class="cls-1" d="m81.17,224.61c-4.04,0-7.33,3.29-7.33,7.33s3.29,7.33,7.33,7.33,7.33-3.29,7.33-7.33-3.29-7.33-7.33-7.33Z"/><path class="cls-1" d="m80.31,56.41c.12-.9-.57-1.71-1.48-1.71H1.49c-.91,0-1.6.81-1.48,1.71,2.57,19.87,19.59,35.28,40.15,35.28,20.56,0,37.58-15.41,40.15-35.28Z"/><path class="cls-1" d="m261.1,318.65c-27.86-16.64-55.73-33.28-83.59-49.92-7.75-4.36-10.54-14.22-6.21-22,4.3-7.73,13.82-10.58,21.66-6.5l50.5,26.01c.65.33,1.44.15,1.88-.44,2.67-3.62,6.87-6.06,11.75-6.36,12.01-.74,23.66-3.09,35.05-7,2.58-.88,5.13-1.83,7.66-2.84,8-3.18,16.59-3.74,24.66-1.93v-67.58c0-1.16-.16-2.32-.44-3.44-.35-1.43-.44-2.92-.31-4.39.12-1.37.75-2.75.75-4.11s-.82-2.7-2.09-3.33c-6.51-3.24-14.4-2.77-20.5,1.41-.61.42-.83,1.2-.53,1.88,3.06,6.9,4.77,14.53,4.77,22.56,0,31.7-26.54,57.31-58.57,55.77-28.19-1.35-51.19-23.96-52.99-52.12-1.97-30.77,21.14-56.68,50.83-59.26.78-.07,1.38-.71,1.38-1.49v-20.76c0-.85-.72-1.54-1.57-1.49-14.65.85-25.86,5.29-25.82,10.62,0,1.23-.55,2.42-1.64,3-2.68,1.42-5.38-.48-5.38-3.02v-5.86c0-1.23-1.84-2.67-4.8-3.76-3.68-1.36-8.93-2.13-14.39-2.13-12.47,0-19.89,3.78-19.13,6.25.18.58.08,1.21-.34,1.64-3.04,3.07-6.73.97-6.73-2,0-22.03,8.53-40.59,24.67-53.66,13.78-11.16,32.7-17.66,53.69-18.54.8-.03,1.44-.69,1.44-1.49v-9.19c0-.43.19-.83.5-1.12,3-2.78,6.52-.7,6.52,2.2v8.11c0,.8.64,1.45,1.44,1.49,20.99.88,39.91,7.38,53.69,18.54,6.41,5.19,11.61,11.24,15.55,18.03.88,1.51,1.7,3.05,2.45,4.64.41.86,1.25,1.45,2.2,1.56,2.18.25,3.92-2.07,3.29-4.1,0-.01,0-.02-.01-.04-.29-.97.14-2.35.85-3.08,6.16-6.34,10.01-14.37,11.12-23.01.12-.9-.58-1.7-1.48-1.7h-29.14c-1.77,0-2.63-2.75-2.37-4.15.3-1.64,1.78-2.87,3.45-2.87h25.65c1.09,0,1.81-1.12,1.36-2.11l-17.43-38.64c-1.9-4.22-6.1-6.93-10.73-6.93H28.43c-2.6,0-5.16,1.27-6.65,3.41-.32.46-19.24,42.16-19.24,42.16-.45.99.28,2.11,1.36,2.11,0,0,186.21,0,186.21,0,1.75,0,2.62,2.73,2.38,4.11-.29,1.66-1.77,2.9-3.46,2.9h-99.53c-.91,0-1.6.81-1.48,1.71,2.57,19.87,19.59,35.28,40.15,35.28,13.52,0,26.21-6.78,33.74-18.09,1.05-1.57,3.97-.6,4.96.55,1.04,1.2,1.13,3.01.22,4.31-8.9,12.68-23.45,20.24-38.91,20.24-18.71,0-34.93-10.87-42.67-26.63-.54-1.1-2.12-1.1-2.66,0-7.74,15.76-23.96,26.63-42.67,26.63-4.83,0-9.5-.73-13.9-2.08-.96-.29-1.92.43-1.92,1.43v221.21c0,.83.67,1.49,1.49,1.49h20.92c.83,0,1.49-.67,1.49-1.49v-168.42c0-8.14,6.6-14.74,14.74-14.74h69.41c9.37,0,16.97,7.6,16.97,16.97v166.19c0,.83.67,1.49,1.49,1.49h109.67c1.14,0,1.56-1.51.58-2.1Z"/><path class="cls-1" d="m321.26,156.85c1.59.48,3.2-.67,3.2-2.33v-38.37c0-1.73-1.07-3.27-2.69-3.87-6.7-2.47-15.03-2.64-22.06-1.61-2.37.35-11.52,1.6-11.52,5.37v5.67c0,1.85-1.35,3.52-3.19,3.68-2.08.18-3.82-1.45-3.82-3.49,0-3.73-5.3-6.23-8.46-7.4-4.61-1.7-10.76-2.82-17.37-3.2-.85-.05-1.57.64-1.57,1.49v20.76c0,.78.6,1.42,1.38,1.49,17.23,1.5,32.23,10.86,41.42,24.46.45.66,1.36.88,2.04.45,6.8-4.36,15.12-5.39,22.65-3.11Z"/></svg>