<svg xmlns="http://www.w3.org/2000/svg" xmlns:xlink="http://www.w3.org/1999/xlink" id="Capa_1" x="0px" y="0px" viewBox="0 0 498 498" style="enable-background:new 0 0 498 498;" xml:space="preserve"><style type="text/css"> .st0{fill:#0D6EFD;}</style><g> <path class="st0" d="M208.1,94.4c-37.5,0-68,30.5-68,68c0,37.5,30.5,68,68,68c2.8,0,5.6-0.2,8.4-0.6c0.1-14,8.7-27.2,22.7-32.2  l1.6-0.6h0.2c3.1-0.9,6.3-1.4,9.6-1.4c5.2,0,10.1,1.2,14.6,3.3c6.8-10.6,10.8-23.1,10.8-36.6C276,124.9,245.5,94.4,208.1,94.4z   M232.2,175.1l-31.8,20.7c-2.5,1.6-5.4,2.5-8.3,2.5c-2.5,0-5-0.6-7.2-1.8c-4.9-2.7-7.9-7.8-7.9-13.3v-41.3c0-5.6,3-10.7,7.9-13.3  c4.9-2.7,10.8-2.4,15.5,0.6l31.8,20.7c4.3,2.8,6.9,7.6,6.9,12.7C239.1,167.5,236.5,172.3,232.2,175.1z"/> <path class="st0" d="M195,137.5c-1-0.6-1.9-0.8-2.7-0.8c-1.1,0-2,0.4-2.5,0.6c-0.8,0.4-2.6,1.7-2.6,4.5v41.3c0,2.7,1.8,4,2.6,4.4  s2.9,1.3,5.2-0.2l31.8-20.7c1.5-0.9,2.3-2.5,2.3-4.2c0-1.7-0.8-3.3-2.3-4.2L195,137.5z"/> <path class="st0" d="M304.6,279.6h5.1c2.5-1.8,5.2-3.3,8.2-4.4c3.8-1.3,7.7-2,11.4-2c7.1,0,13.8,2.5,19.4,6.4h8.4  c6.1,0,11-4.9,11-11V56.1c0-6.1-4.9-11-11-11H58.9c-6.1,0-11,4.9-11,11v212.5c0,6.1,4.9,11,11,11h172.6l-13.2-38.4  c-0.2-0.5-0.2-1-0.4-1.5c-3.2,0.4-6.5,0.7-9.8,0.7c-43.1,0-78.1-35-78.1-78.1s35-78.1,78.1-78.1s78.1,35,78.1,78.1  c0,15.6-4.6,30-12.5,42.2c4.1,3.7,7.4,8.5,9.4,13.9L304.6,279.6z"/> <path class="st0" d="M220.4,349.5c7.8,0,15.3,2.2,21.9,6.5l19.9,12.7l-7.8-22.7H121.1c-2.3,9.1-10.5,15.9-20.2,15.9  s-18-6.8-20.2-15.9H44.1c-2.8,0-5.1-2.3-5.1-5.1c0-2.8,2.3-5.1,5.1-5.1h36.6c2.3-9.1,10.4-15.8,20.2-15.8s17.9,6.8,20.2,15.8h129.8  L235,289.8H58.9c-11.6,0-21.1-9.5-21.1-21.1V56.1c0-11.7,9.5-21.1,21.1-21.1h298.4c11.6,0,21.1,9.5,21.1,21.1v212.5  c0,4.1-1.2,7.9-3.2,11.1c2.4-0.5,4.9-0.9,7.4-0.9c10,0,19.2,4.3,25.6,11.5v-243c0-23.2-18.8-42-42-42H50c-23.2,0-42,18.8-42,42  v302.4c0,23.2,18.8,42,42,42h131.1c-1-4.4-0.9-9.1,0.5-13.6C186.9,361,202.5,349.5,220.4,349.5L220.4,349.5z"/> <path class="st0" d="M100.9,330.2c-6,0-10.8,4.8-10.8,10.8c0,6,4.8,10.8,10.8,10.8c6,0,10.8-4.8,10.8-10.8c0,0,0,0,0,0c0,0,0,0,0,0  C111.6,335,106.8,330.2,100.9,330.2z"/> <path class="st0" d="M487.3,391.5l-27.4-77.9c-4.4-12.6-18.3-19.2-30.8-14.8h-0.1c-12.5,4.4-19.2,18.3-14.8,30.8l-8.7-24.6  c-4.4-12.6-18.2-19.2-30.8-14.9v0.1c-12.6,4.4-19.2,18.3-14.8,30.8l-7.7-21.6c-3.5-10-12.7-16.2-22.8-16.2c-2.7,0-5.5,0.5-8.1,1.4  c-12.6,4.4-19.2,18.2-14.8,30.8l-33.1-93.7c-4.4-12.5-18.3-19.2-30.8-14.8h-0.1c-12.5,4.4-19.2,18.2-14.8,30.8l53.4,154.9  l-44.4-28.4c-5.2-3.3-10.8-4.9-16.4-4.9c-12.7,0-25,8.1-29.1,21.4c-2,6.5,0.1,13.5,5.4,17.8l102.9,85c13,10.7,30.7,13.9,46.7,8.3  l111.5-39.3C482.9,444.1,496.1,416.5,487.3,391.5z"/></g></svg>