<svg xmlns="http://www.w3.org/2000/svg" xmlns:xlink="http://www.w3.org/1999/xlink" id="Layer_1" x="0px" y="0px" viewBox="0 0 512 512" style="enable-background:new 0 0 512 512;" xml:space="preserve"><style type="text/css">	.st0{fill-rule:evenodd;clip-rule:evenodd;fill:#0D6EFD;}	.st1{fill:#FFFFFF;}	.st2{fill:#0D6EFD;}</style><g>	<g>		<path class="st0" d="M430.91,74.83L430.91,74.83c-12.46,1.92-26.75,4.14-30.08,4.74c-53.27,9.68-76.88,19.3-80.75,24.97   l-36.74,56.58c23.08,4.14,44.36,13.47,62.6,26.73l2.1-0.13c1.5-0.11,2.97,0.38,4.12,1.33l37.29,30.68l27.92-7.32   c1.91-0.51,3.93-0.02,5.41,1.28l25.12,22.23c1.27,1.12,1.99,2.73,1.99,4.42v48.21h55.97C516.38,207.32,487.04,129.04,430.91,74.83   z"/>		<path class="st0" d="M119.89,396.55l-11.49-26.97c-0.97-2.29-0.41-4.94,1.41-6.64l21.11-19.66c-0.84-6.74-6.94-47.77-5.52-51.02   c1.09-2.48,2.13-4.87,3.11-7.17c-6.07-9.06-11.2-18.81-15.25-29.09c3.96-10.06,8.95-19.6,14.85-28.49   c-8.04-1.7-19.56-2.15-34.8-3.02c-6.94-0.4-14.55-0.83-22.85-1.43c-10.71,0.09-42.97,32.81-65.41,55.49   c7.43,83.47,55.74,155.37,124.72,195.46l32.99-49.09C156.81,421.16,121.47,400.25,119.89,396.55z"/>		<path class="st0" d="M235.08,54.19c-6.24-28.32-1.58-22.36-31.37-44.68C118.1,27.65,48.41,89.38,19.04,170.29l46.55-5.7   c2.33-4.8,13.98-30.69,16.64-32.57c6.05-4.27,17.06-13.64,21.32-12.91l25.36,4.32c2.96-0.33,44.61-19.47,48.75-19.08   C250.22,111.18,246.11,104.22,235.08,54.19z"/>		<path class="st0" d="M443.99,300.36c-3.26,0-5.91-2.65-5.91-5.9v-51.45l-20.76-18.37l-27.79,7.28c-0.92,0.24-1.88,0.25-2.79,0.04   c4.67,7.6,8.69,15.64,12,24.04c-13.91,35.29-40.44,64.21-74.06,81.1l16.9-3.26c1.99-0.39,4.03,0.28,5.42,1.76   c3.16,3.35,17.92,17.76,18.58,21.04l6.58,32.35c0.32,1.55-0.01,3.17-0.9,4.49l-26.87,39.69c-0.88,1.29-2.24,2.19-3.77,2.48   l-33.37,6.32v0.01c-3.65,0-20.92-10.78-22.56-10.97l-25.64,6.45c-21.94-0.43-39.36-35.38-44.78-47.57   c-21.88-0.15-17.84,2.65-24.82-16.22c-0.54-1.45-0.49-3.05,0.14-4.46l11.63-25.99c-25.32-9.7-47.4-25.92-64.21-46.62l6.01,48.21   c0.23,1.88-0.45,3.76-1.84,5.05l-20.29,18.9l9.14,21.46l44.17,27.96c2.81,1.78,3.6,5.53,1.75,8.29l-35.79,53.26   c34.7,18.04,74.09,28.25,115.83,28.25c123.81,0,227.04-89.76,248.06-207.62H443.99z"/>		<path class="st0" d="M219.58,6.68c23.95,18.12,21.07,17.95,27.03,44.97c6.29,28.54,10.08,45.76,0.52,56.58   c-8.76,9.9-26.27,11.95-69.14,8c-4.22,0.63-44.75,19.93-49.41,19.12l-24.62-4.19l-13.69,9.64l-15.46,31.83   c-0.87,1.79-2.59,3.03-4.57,3.28l-55.31,6.75C7.2,208.01,3.37,235.1,4.12,262.71c25.9-26.08,52.73-52.62,66.81-51.46   c21.36,1.77,47.34,1.05,64.34,6.33c28.07-35.85,71.7-58.9,120.73-58.9c4.85,0,9.65,0.23,14.39,0.67l39.86-61.37   c9.98-14.99,62.57-26.14,109.41-33.38C365.5,18.21,293.22-4.06,219.58,6.68z"/>	</g>	<path class="st1" d="M400.15,229.49c-11.68-19.03-26.99-35.57-44.99-48.64c-20.11-14.62-43.58-24.91-69.02-29.47  c-4.7-0.86-9.46-1.51-14.28-1.95c-5.23-0.49-10.52-0.74-15.87-0.74c-54.06,0-102.17,25.42-133.12,64.94  c-2.78,3.54-5.41,7.19-7.89,10.95c-6.51,9.8-12.01,20.32-16.37,31.41c4.47,11.33,10.12,22.09,16.81,32.07  c2.92,4.38,6.05,8.61,9.37,12.69c18.53,22.82,42.88,40.71,70.8,51.4c4.15,1.6,8.37,3.03,12.67,4.28  c15.14,4.47,31.15,6.86,47.73,6.86c15.37,0,30.24-2.05,44.38-5.9c10.94-2.95,21.42-6.99,31.35-11.99  c37.07-18.62,66.32-50.51,81.66-89.42C409.74,246.74,405.3,237.87,400.15,229.49z M276.87,324.43c-4.29,1.32-8.74,2.24-13.33,2.71  c-2.48,0.26-4.99,0.4-7.54,0.4c-18.28,0-34.96-6.87-47.62-18.18c-11.3-10.08-19.37-23.7-22.49-39.11  c-0.94-4.61-1.42-9.37-1.42-14.25c0-39.48,32.05-71.54,71.54-71.54c5.46,0,10.77,0.62,15.88,1.78c9.23,2.09,17.77,5.98,25.27,11.26  c18.38,12.94,30.39,34.34,30.39,58.5C327.54,288.22,306.19,315.5,276.87,324.43z"/>	<path class="st2" d="M386.74,231.96c-10.59-17.26-24.48-32.26-40.8-44.11c-18.24-13.26-39.52-22.59-62.6-26.73  c-4.26-0.78-8.58-1.37-12.95-1.77c-4.74-0.44-9.54-0.67-14.39-0.67c-49.03,0-92.66,23.05-120.73,58.9  c-2.52,3.21-4.91,6.52-7.16,9.93c-5.9,8.89-10.89,18.43-14.85,28.49c4.05,10.28,9.18,20.03,15.25,29.09  c2.65,3.97,5.49,7.81,8.5,11.51c16.81,20.7,38.89,36.92,64.21,46.62c3.76,1.45,7.59,2.75,11.49,3.88  c13.73,4.05,28.25,6.22,43.29,6.22c13.94,0,27.43-1.86,40.25-5.35c9.92-2.68,19.43-6.34,28.43-10.87  c33.62-16.89,60.15-45.81,74.06-81.1C395.43,247.6,391.41,239.56,386.74,231.96z M274.93,318.06c-3.89,1.2-7.93,2.03-12.09,2.46  c-2.25,0.24-4.53,0.36-6.84,0.36c-16.58,0-31.71-6.23-43.19-16.49c-10.25-9.14-17.57-21.49-20.4-35.47  c-0.85-4.18-1.29-8.5-1.29-12.92c0-35.81,29.07-64.88,64.88-64.88c4.95,0,9.77,0.56,14.4,1.61c8.37,1.9,16.12,5.42,22.92,10.21  c16.67,11.74,27.56,31.14,27.56,53.06C320.88,285.22,301.52,309.96,274.93,318.06z"/>	<path class="st1" d="M256,217.07c-11.75,0-22.3,5.22-29.44,13.47c-5.38,6.22-8.83,14.15-9.4,22.87c-0.01,0.01-0.01,0.02-0.01,0.03  c-0.05,0.84-0.08,1.7-0.08,2.56c0,21.48,17.45,38.93,38.93,38.93c1.32,0,2.62-0.07,3.91-0.19c4.75-0.48,9.26-1.81,13.35-3.84v-0.01  c12.84-6.36,21.67-19.61,21.67-34.89C294.93,234.52,277.48,217.07,256,217.07z"/></g></svg>