<svg xmlns="http://www.w3.org/2000/svg" id="Layer_1" data-name="Layer 1" viewBox="0 0 494 436.23"><defs><style>      .cls-1 {        fill: #0d6efd;        fill-rule: evenodd;        stroke-width: 0px;      }    </style></defs><path class="cls-1" d="m307.3,23.87c-49.68-.01-99.05,17.96-159,53.91-2.41,1.44-3.88,4.04-3.88,6.84l-.02,80.05c-5.72-.69-11.47-1.04-17.23-1.04-2.2,0-4.38.06-6.56.15v-96.93c141.52-89.14,231.87-89.14,373.4,0v149.67c0,55.41-24.44,103.09-69.44,135.43l-117.26,84.28-63.87-45.91c4.66-6.48,8.77-13.34,12.29-20.5l46.92,33.72c2.83,2.04,6.67,2,9.45-.1l98.56-70.83c38.72-27.83,59.55-68.39,59.55-116.09V84.63c0-3.05-1.73-5.84-4.47-7.18-59.66-35.7-108.88-53.56-158.44-53.57h0ZM127.16,179.64C56.93,179.64,0,236.57,0,306.8s56.93,127.16,127.16,127.16,127.16-56.93,127.16-127.16c0-70.23-56.93-127.16-127.16-127.16h0Zm-36.91,192.21c0,2.92-2.38,5.29-5.3,5.3h-20.53c-2.92,0-5.29-2.38-5.3-5.3v-92.55c0-2.92,2.38-5.29,5.3-5.3h20.53c2.92,0,5.29,2.38,5.3,5.3v92.55Zm118.37-54.59l-21.69,32.7c-14.03,21.15-20.62,27.39-34.35,27.18h-34.98c-3.07.07-6.06-1.03-8.35-3.08v-95.02c21.48-37.32,39.19-66.85,39.19-66.85,7.16-8.35,21.57-.61,21.46,16.38-2,7.47-8.31,31.85-13,50.09l27.69-.22c20.65-.17,36.06,20.7,24.04,38.83h0Zm130.41-153.82l-51.49,51.49-18.69-23.52c-4.57-5.81-12.98-6.81-18.78-2.25-5.81,4.57-6.81,12.98-2.25,18.78.03.04.06.07.09.11l27.5,34.61c4.24,6.08,12.59,7.57,18.67,3.33.65-.45,1.25-.96,1.81-1.51l62.1-62.1c5.23-5.23,5.23-13.72,0-18.95-5.23-5.23-13.72-5.23-18.95,0h0Zm-31.73-123.59c-45.5.02-91.3,16.45-146.91,49.31v78.38c19.97,4.75,38.67,13.76,54.84,26.41,4.66-50.82,49.64-88.23,100.46-83.57,50.82,4.66,88.23,49.64,83.57,100.46-4.66,50.82-49.64,88.23-100.46,83.57-10.35-.95-20.47-3.64-29.93-7.96.96,6.75,1.45,13.56,1.45,20.37.02,16.34-2.77,32.57-8.24,47.97l45.23,32.5,94.05-67.59c34.64-24.9,52.86-60.5,52.86-103.15v-127.38c-55.64-32.88-101.44-49.32-146.91-49.31h0Z"/></svg>