<svg xmlns="http://www.w3.org/2000/svg" id="Layer_1" data-name="Layer 1" viewBox="0 0 461.94 479.31"><defs><style>      .cls-1 {        fill: #0d6efd;        stroke-width: 0px;      }    </style></defs><path class="cls-1" d="m196.92,363.76h-75.1c-2.63,0-4.78,2.18-4.78,4.86v17.88c0,2.68,2.15,4.86,4.78,4.86h75.1c2.63,0,4.86-2.22,4.86-4.86v-17.88c0-2.64-2.23-4.86-4.86-4.86Z"/><path class="cls-1" d="m226.38,90.56h-5.39c-11.64,0-21.11,9.42-21.11,21s9.47,21.01,21.11,21.01h5.39c5.69,0,10.95-2.17,14.81-6.11,4.01-4.01,6.19-9.28,6.19-14.9,0-11.58-9.43-21-21.01-21Z"/><path class="cls-1" d="m189.68,111.56c0-8.12,3.2-15.45,8.31-21h-105.51c-11.64,0-21.11,9.42-21.11,21s9.47,21.01,21.11,21.01h105.52c-5.11-5.56-8.31-12.9-8.31-21.01Z"/><path class="cls-1" d="m209.49,180.58h-21.48l-21.88,20.26c-3.85,3.46-9.6,3.46-13.39.04l-22.17-20.3-23.96.75-30.03,18.14,18.78,24.91,10.73-4.51c1.59-.67,3.37-.5,4.8.46,1.42.94,2.28,2.54,2.28,4.24v91.17h92.42v-91.17c0-1.7.85-3.3,2.28-4.24,1.41-.96,3.22-1.13,4.79-.46l10.71,4.47,18.81-24.87-30.6-18.27-2.08-.61Z"/><path class="cls-1" d="m421.08,316.85h-6.94c4.55,4.77,7.77,10.88,8.82,17.91l18.25,117.35c1.33,9.47-1.47,18.97-7.68,26.12-.35.4-.79.69-1.16,1.08h6.97c6.57,0,12.8-2.83,17.09-7.76,4.28-4.93,6.21-11.46,5.29-17.94l-18.24-117.31c-1.68-11.28-11.1-19.45-22.39-19.45Z"/><path class="cls-1" d="m0,45.27v388.75c0,24.97,20.31,45.28,45.28,45.28h222.63c-.36-.37-.79-.65-1.13-1.05-6.22-7.16-9.03-16.67-7.7-26.08l1.53-9.79H37.93c-9.67,0-17.54-7.87-17.54-17.54V57.1c0-9.67,7.87-17.54,17.54-17.54h242.92c9.67,0,17.54,7.87,17.54,17.54v251.65c3.58-1.35,7.43-2.1,11.42-2.1h8.97V45.27c0-24.97-20.31-45.27-45.28-45.27H45.28C20.31,0,0,20.31,0,45.27Zm121.15,408.5h76.48c2.82,0,5.1,2.28,5.1,5.1s-2.28,5.1-5.1,5.1h-76.48c-2.82,0-5.1-2.28-5.1-5.1s2.28-5.1,5.1-5.1ZM190.2,15.68h7.23c2.82,0,5.1,2.28,5.1,5.1s-2.28,5.1-5.1,5.1h-7.23c-2.82,0-5.1-2.28-5.1-5.1s2.28-5.1,5.1-5.1Zm-34.42,0h7.23c2.82,0,5.1,2.28,5.1,5.1s-2.28,5.1-5.1,5.1h-7.23c-2.82,0-5.1-2.28-5.1-5.1s2.28-5.1,5.1-5.1Zm-34.42,0h7.23c2.82,0,5.1,2.28,5.1,5.1s-2.28,5.1-5.1,5.1h-7.23c-2.82,0-5.1-2.28-5.1-5.1s2.28-5.1,5.1-5.1Z"/><path class="cls-1" d="m309.81,316.85c-11.32,0-20.69,8.15-22.28,19.38l-18.36,117.45c-.91,6.41,1.03,12.96,5.31,17.9,4.27,4.91,10.46,7.73,16.98,7.73h117.28c6.57,0,12.8-2.83,17.09-7.76,4.28-4.93,6.21-11.46,5.29-17.94l-18.24-117.31c-1.68-11.28-11.1-19.45-22.39-19.45h-80.67Zm67.74,38.41v-19.48c0-2.82,2.28-5.1,5.1-5.1s5.1,2.28,5.1,5.1v19.48c0,20.71-16.9,37.58-37.67,37.58-9.99,0-19.42-3.91-26.54-11.03-7.12-7.13-11.03-16.55-11.03-26.54v-19.48c0-2.82,2.28-5.1,5.1-5.1s5.1,2.28,5.1,5.1v19.48c0,7.27,2.86,14.13,8.05,19.33,5.19,5.19,12.06,8.05,19.33,8.05,15.15,0,27.47-12.28,27.47-27.38Z"/><path class="cls-1" d="m305.66.16c14.09,10.07,23.32,26.52,23.32,45.12v261.38h20.4V45.27c0-24.43-19.49-44.27-43.72-45.12Z"/><path class="cls-1" d="m280.85,49.76H37.93c-4.05,0-7.34,3.3-7.34,7.34v367.75c0,4.04,3.29,7.34,7.34,7.34h224.27l15.24-97.46c1.12-7.88,5.09-14.8,10.75-19.81V57.1c0-4.04-3.29-7.34-7.34-7.34Zm-68.88,336.73c0,8.31-6.76,15.06-15.06,15.06h-75.1c-8.26,0-14.98-6.75-14.98-15.06v-17.88c0-8.31,6.72-15.06,14.98-15.06h75.1c8.3,0,15.06,6.75,15.06,15.06v17.88Zm39.78-182.81l-21.34,28.2c-2.34,2.95-6.23,3.93-9.55,2.45l-5.09-2.13v85.69c0,4.42-3.61,8.03-8.03,8.03h-96.75c-4.43,0-8.03-3.61-8.03-8.03v-85.67l-5.12,2.15c-3.27,1.36-7.03.48-9.38-2.24l-21.48-28.46c-1.4-1.95-1.9-4.29-1.42-6.52.45-2.18,1.8-4.07,3.69-5.2l32.64-19.71c.36-.23.76-.4,1.17-.52l3.87-1.15c.47-.14.97-.21,1.46-.21h22.34c2.57,0,5.07,1.03,6.87,2.83l21.97,20.11,21.71-20.26c1.64-1.65,4.15-2.68,6.72-2.68h22.2c.47,0,.94.07,1.39.2l4.17,1.21c.42.13.83.31,1.21.54l32.54,19.67c1.91,1.14,3.28,3.08,3.71,5.33.43,2.24-.11,4.56-1.49,6.37Zm-3.32-70.06c-5.76,5.89-13.61,9.14-22.06,9.14H92.48c-17.26,0-31.31-14-31.31-31.21s14.04-31.2,31.31-31.2h133.9c17.21,0,31.21,13.99,31.21,31.2,0,8.34-3.25,16.17-9.14,22.07Z"/></svg>