<svg xmlns="http://www.w3.org/2000/svg" xmlns:xlink="http://www.w3.org/1999/xlink" id="Layer_1" x="0px" y="0px" viewBox="0 0 512 512" style="enable-background:new 0 0 512 512;" xml:space="preserve"><style type="text/css">	.st0{fill:#0D6EFD;}</style><g>	<path class="st0" d="M254.99,35.95c3.48,0,7.13-2.83,7.13-6.31V14.65c0-3.48-3.65-6.31-7.13-6.31c-3.48,0-7.13,2.82-7.13,6.31  v14.99C247.85,33.12,251.5,35.95,254.99,35.95z"/>	<path class="st0" d="M305.9,55.86c1.61,0,3.22-0.62,4.46-1.85l10.6-10.6c2.46-2.46,2.46-6.46,0-8.92c-2.46-2.46-6.45-2.46-8.92,0  l-10.6,10.6c-2.46,2.46-2.46,6.45,0,8.92C302.67,55.24,304.28,55.86,305.9,55.86L305.9,55.86z"/>	<path class="st0" d="M201.01,55.8c1.23,1.23,2.84,1.85,4.46,1.85s3.22-0.61,4.46-1.85c2.46-2.46,2.46-6.45,0-8.92l-10.6-10.6  c-2.46-2.46-6.45-2.46-8.91,0s-2.46,6.45,0,8.91l10.6,10.6L201.01,55.8z"/>	<path class="st0" d="M171.24,123.92c-1.08-5.48-1.64-11.19-1.64-16.96c0-6.39,0.7-12.75,2.08-18.91c0.76-3.4-1.37-6.77-4.77-7.53  c-3.37-0.75-6.77,1.37-7.53,4.77c-1.58,7.07-2.39,14.36-2.39,21.67c0,6.59,0.63,13.12,1.88,19.41c0.59,3.01,3.23,5.08,6.18,5.08  c0.4,0,0.82-0.04,1.23-0.12C169.69,130.66,171.91,127.34,171.24,123.92z"/>	<path class="st0" d="M341.29,142.39c-3.12-1.55-6.91-0.28-8.46,2.84c-14.66,29.5-44.22,47.84-77.14,47.84s-62.47-18.34-77.13-47.84  c-1.55-3.12-5.35-4.39-8.46-2.84c-3.12,1.55-4.39,5.02-2.84,8.14c16.8,33.81,50.66,54.53,88.38,54.53h0.1  c37.72,0,71.59-20.72,88.38-54.53C345.66,147.42,344.39,143.95,341.29,142.39L341.29,142.39z"/>	<path class="st0" d="M352.48,126.38c1.27-6.36,1.91-12.89,1.91-19.42c0-7.33-0.81-14.65-2.41-21.75c-0.76-3.4-4.14-5.54-7.54-4.77  c-3.4,0.76-5.53,4.14-4.77,7.54c1.39,6.2,2.1,12.58,2.1,18.98c0,5.7-0.57,11.4-1.67,16.95c-0.68,3.42,1.54,6.74,4.95,7.42  c0.42,0.08,0.83,0.12,1.24,0.12c2.94,0,5.58-2.07,6.18-5.07L352.48,126.38z"/>	<path class="st0" d="M316.61,227.49H193.82c-3.78,0-8.13,4.47-8.13,8.28v260.21c0,3.79,4.35,6.66,8.13,6.66h122.79  c3.78,0,6.65-2.87,6.65-6.66V235.76C323.26,231.95,320.39,227.48,316.61,227.49L316.61,227.49z"/>	<path class="st0" d="M207.43,101.35l22.5,16.75c1.67,1.21,2.36,3.56,1.73,5.52l-8.59,26.55c-1.42,4.38,3.59,8.08,7.32,5.37  l22.5-16.32c1.67-1.21,3.93-1.2,5.59,0.01l22.5,16.35c3.73,2.71,8.75-0.93,7.32-5.31l-8.59-26.45c-0.64-1.96,0.06-4.11,1.73-5.32  l22.5-17.14c3.73-2.71,1.81-9.4-2.8-9.4h-27.81c-2.06,0-3.89-0.53-4.53-2.49l-8.59-26.05c-1.42-4.39-7.62-4.18-9.05,0.2  l-8.59,25.75c-0.64,1.96-2.47,2.59-4.53,2.59h-27.81c-4.61,0-6.52,6.69-2.79,9.4L207.43,101.35z"/>	<path class="st0" d="M161.23,367.86c0-3.8-3.08-6.88-6.88-6.88H30.53c-3.8,0-6.88,3.08-6.88,6.88v128.91c0,3.8,3.08,6.88,6.88,6.88  h123.82c3.8,0,6.88-3.08,6.88-6.88L161.23,367.86L161.23,367.86z"/>	<path class="st0" d="M78.85,284.95c1.06,0.77,1.5,2.13,1.1,3.38l-2.97,9.14c-0.9,2.78,2.28,5.09,4.65,3.38l7.78-5.65  c1.06-0.77,2.49-0.77,3.55,0l7.78,5.65c2.36,1.72,5.55-0.59,4.65-3.38l-2.97-9.14c-0.4-1.24,0.04-2.6,1.09-3.38l7.78-5.9  c2.36-1.72,1.15-5.71-1.78-5.71h-9.61c-1.31,0-2.47-0.59-2.87-1.83l-2.97-9.02c-0.9-2.78-4.84-2.72-5.74,0.06l-2.97,8.92  c-0.41,1.24-1.56,1.86-2.87,1.86h-9.61c-2.92,0-4.14,4-1.78,5.71L78.85,284.95L78.85,284.95z"/>	<path class="st0" d="M91.17,338.57c30.71,0,55.69-24.98,55.69-55.68s-24.98-55.69-55.69-55.69s-55.68,24.98-55.68,55.69  S60.46,338.57,91.17,338.57z M91.17,239.81c23.79,0,43.08,19.29,43.08,43.08s-19.28,43.07-43.08,43.07S48.1,306.68,48.1,282.89  S67.39,239.81,91.17,239.81z"/>	<path class="st0" d="M488.35,367.86c0-3.8-3.08-6.88-6.88-6.88H357.64c-3.8,0-6.88,3.08-6.88,6.88v128.91  c0,3.8,3.08,6.88,6.88,6.88h123.82c3.8,0,6.88-3.08,6.88-6.88V367.86L488.35,367.86z"/>	<path class="st0" d="M406.93,284.95c1.06,0.77,1.5,2.13,1.1,3.38l-2.97,9.14c-0.9,2.78,2.28,5.09,4.64,3.38l7.78-5.65  c1.06-0.77,2.49-0.77,3.55,0l7.78,5.65c2.36,1.72,5.55-0.59,4.65-3.38l-2.97-9.14c-0.41-1.24,0.04-2.6,1.09-3.38l7.78-5.9  c2.36-1.72,1.15-5.71-1.78-5.71h-9.62c-1.31,0-2.46-0.59-2.87-1.83l-2.97-9.02c-0.9-2.78-4.84-2.72-5.74,0.06l-2.97,8.92  c-0.41,1.24-1.56,1.86-2.87,1.86h-9.61c-2.92,0-4.14,4-1.78,5.71L406.93,284.95L406.93,284.95z"/>	<path class="st0" d="M419.26,338.57c30.71,0,55.69-24.98,55.69-55.68s-24.98-55.69-55.69-55.69s-55.68,24.98-55.68,55.69  S388.56,338.57,419.26,338.57z M419.26,239.81c23.79,0,43.08,19.29,43.08,43.08s-19.29,43.07-43.08,43.07s-43.07-19.28-43.07-43.07  S395.47,239.81,419.26,239.81L419.26,239.81z"/></g></svg>