<svg xmlns="http://www.w3.org/2000/svg" xmlns:xlink="http://www.w3.org/1999/xlink" id="Layer_1" x="0px" y="0px" viewBox="0 0 2560 1677" style="enable-background:new 0 0 2560 1677;" xml:space="preserve"><style type="text/css">	.st0{fill:#172063;}	.st1{fill:url(#SVGID_1_);}	.st2{fill:url(#SVGID_00000078734531260308234290000010864505950740878996_);}	.st3{fill:#0D6EFD;}	.st4{fill:#1F85FF;}	.st5{fill:#0D77F7;}	.st6{fill:#0067E2;}	.st7{fill:url(#SVGID_00000119080310951972730610000013933013132082892711_);}	.st8{display:none;}	.st9{display:inline;fill:#2D2D2D;}	.st10{fill:none;stroke:url(#SVGID_00000171696602786680189450000013203470496378716582_);stroke-width:2;stroke-miterlimit:10;}	.st11{fill:none;stroke:url(#SVGID_00000080924066434631001430000014657673196961900177_);stroke-width:2;stroke-miterlimit:10;}	.st12{fill:none;stroke:url(#SVGID_00000119814322727006694960000011310357898580017284_);stroke-width:2;stroke-miterlimit:10;}	.st13{fill:none;stroke:url(#SVGID_00000054978851739967106720000017627549175786133132_);stroke-width:2;stroke-miterlimit:10;}	.st14{fill:none;stroke:url(#SVGID_00000159429743184947826990000003760829893705039778_);stroke-width:2;stroke-miterlimit:10;}	.st15{fill:none;stroke:url(#SVGID_00000171709699781870123570000003162515943640230789_);stroke-width:2;stroke-miterlimit:10;}	.st16{fill:none;stroke:url(#SVGID_00000147941177811284416850000010322124528458609033_);stroke-width:2;stroke-miterlimit:10;}	.st17{fill:none;stroke:url(#SVGID_00000155840334066449491310000004184027995033143937_);stroke-width:2;stroke-miterlimit:10;}	.st18{fill:none;stroke:url(#SVGID_00000016762237407547924630000003237840313910960830_);stroke-width:2;stroke-miterlimit:10;}	.st19{fill:#FFFFFF;}	.st20{font-family:'Norican-Regular';}	.st21{font-size:477.9902px;}	.st22{font-family:'Montserrat-Medium';}	.st23{font-size:60px;}</style><g>	<rect x="-1.6" y="-1.1" class="st0" width="2563.1" height="1679.2"></rect>	<linearGradient id="SVGID_1_" gradientUnits="userSpaceOnUse" x1="473.1541" y1="468.3774" x2="-286.9116" y2="-453.2758">		<stop offset="0" style="stop-color:#121A24;stop-opacity:0"></stop>		<stop offset="0.5804" style="stop-color:#25272A;stop-opacity:0.5804"></stop>		<stop offset="1" style="stop-color:#2D2D2D"></stop>	</linearGradient>	<polygon class="st1" points="997.2,-1.1 -1.6,-1.1 -1.6,997.6  "></polygon>			<linearGradient id="SVGID_00000145741454059928067020000004292332561359542165_" gradientUnits="userSpaceOnUse" x1="477.4924" y1="1025.2993" x2="-282.5732" y2="103.646" gradientTransform="matrix(-1 0 0 -1 2564.3384 2233.9219)">		<stop offset="0" style="stop-color:#121A24;stop-opacity:0"></stop>		<stop offset="0.5804" style="stop-color:#25272A;stop-opacity:0.5804"></stop>		<stop offset="1" style="stop-color:#2D2D2D"></stop>	</linearGradient>	<polygon style="fill:url(#SVGID_00000145741454059928067020000004292332561359542165_);" points="1562.8,1678.1 2561.6,1678.1   2561.6,679.4  "></polygon></g><g class="st8">	<rect x="530.3" y="-1.1" class="st9" width="277.3" height="347.3"></rect>	<rect x="530.3" y="1330.8" class="st9" width="277.3" height="347.3"></rect></g><g>			<image style="overflow:visible;opacity:0.2;" width="9010" height="1109" transform="matrix(0.24 0 0 0.24 205.4 688.02)">	</image>	<g>		<g>							<linearGradient id="SVGID_00000179633895053842099570000004564882304990281660_" gradientUnits="userSpaceOnUse" x1="208.5374" y1="821.0967" x2="426.7017" y2="821.0967">				<stop offset="0" style="stop-color:#212972"></stop>				<stop offset="0.9958" style="stop-color:#160661"></stop>			</linearGradient>							<path style="fill:none;stroke:url(#SVGID_00000179633895053842099570000004564882304990281660_);stroke-width:2;stroke-miterlimit:10;" d="    M425.7,786.9c0,55.6-41.7,90.1-108.3,90.1h-50.2v68.7h-57.7V696.5h107.9C384,696.5,425.7,731,425.7,786.9z M367.3,786.9    c0-27.4-17.8-43.4-53.1-43.4h-47V830h47C349.5,830,367.3,814,367.3,786.9z"></path>							<linearGradient id="SVGID_00000026130823431340105770000009859159280660444073_" gradientUnits="userSpaceOnUse" x1="453.5433" y1="821.0962" x2="728.3308" y2="821.0962">				<stop offset="0" style="stop-color:#212972"></stop>				<stop offset="0.9958" style="stop-color:#160661"></stop>			</linearGradient>							<path style="fill:none;stroke:url(#SVGID_00000026130823431340105770000009859159280660444073_);stroke-width:2;stroke-miterlimit:10;" d="    M454.5,821.1c0-74.1,57.7-128.9,136.4-128.9c78.3,0,136.4,54.5,136.4,128.9c0,74.4-58,128.9-136.4,128.9    C512.2,950,454.5,895.2,454.5,821.1z M668.9,821.1c0-47.4-33.5-79.8-78-79.8c-44.5,0-78,32.4-78,79.8c0,47.4,33.5,79.8,78,79.8    C635.5,900.9,668.9,868.5,668.9,821.1z"></path>							<linearGradient id="SVGID_00000060029833881183029390000001993265403127495588_" gradientUnits="userSpaceOnUse" x1="769.7724" y1="821.0967" x2="993.4838" y2="821.0967">				<stop offset="0" style="stop-color:#212972"></stop>				<stop offset="0.9958" style="stop-color:#160661"></stop>			</linearGradient>							<path style="fill:none;stroke:url(#SVGID_00000060029833881183029390000001993265403127495588_);stroke-width:2;stroke-miterlimit:10;" d="    M929.6,945.7l-48.1-69.4h-2.8h-50.2v69.4h-57.7V696.5h107.9c66.6,0,108.3,34.5,108.3,90.5c0,37.4-18.9,64.8-51.3,78.7l55.9,80.1    H929.6z M875.5,743.5h-47v86.9h47c35.3,0,53.1-16.4,53.1-43.4C928.5,759.5,910.7,743.5,875.5,743.5z"></path>							<linearGradient id="SVGID_00000097490924565993670620000016030314815160151962_" gradientUnits="userSpaceOnUse" x1="999.8196" y1="821.0967" x2="1219.052" y2="821.0967">				<stop offset="0" style="stop-color:#212972"></stop>				<stop offset="0.9958" style="stop-color:#160661"></stop>			</linearGradient>							<path style="fill:none;stroke:url(#SVGID_00000097490924565993670620000016030314815160151962_);stroke-width:2;stroke-miterlimit:10;" d="    M1080.6,743.5h-79.8v-47h217.2v47h-79.8v202.3h-57.7V743.5z"></path>							<linearGradient id="SVGID_00000117655605350605506660000000346657813801012393_" gradientUnits="userSpaceOnUse" x1="1248.0314" y1="821.0967" x2="1438.4187" y2="821.0967">				<stop offset="0" style="stop-color:#212972"></stop>				<stop offset="0.9958" style="stop-color:#160661"></stop>			</linearGradient>							<path style="fill:none;stroke:url(#SVGID_00000117655605350605506660000000346657813801012393_);stroke-width:2;stroke-miterlimit:10;" d="    M1306.7,742.8v65.9h115.4v46.3h-115.4v90.8H1249V696.5h188.4v46.3H1306.7z"></path>							<linearGradient id="SVGID_00000043453755493005407220000008428767298651288255_" gradientUnits="userSpaceOnUse" x1="1457.4286" y1="821.0962" x2="1732.2155" y2="821.0962">				<stop offset="0" style="stop-color:#212972"></stop>				<stop offset="0.9958" style="stop-color:#160661"></stop>			</linearGradient>							<path style="fill:none;stroke:url(#SVGID_00000043453755493005407220000008428767298651288255_);stroke-width:2;stroke-miterlimit:10;" d="    M1458.4,821.1c0-74.1,57.7-128.9,136.4-128.9c78.3,0,136.4,54.5,136.4,128.9c0,74.4-58,128.9-136.4,128.9    C1516.1,950,1458.4,895.2,1458.4,821.1z M1672.8,821.1c0-47.4-33.5-79.8-78-79.8c-44.5,0-78,32.4-78,79.8    c0,47.4,33.5,79.8,78,79.8C1639.3,900.9,1672.8,868.5,1672.8,821.1z"></path>							<linearGradient id="SVGID_00000137822204352888254940000001722504083023327141_" gradientUnits="userSpaceOnUse" x1="1773.6576" y1="821.0967" x2="1958.3468" y2="821.0967">				<stop offset="0" style="stop-color:#212972"></stop>				<stop offset="0.9958" style="stop-color:#160661"></stop>			</linearGradient>							<path style="fill:none;stroke:url(#SVGID_00000137822204352888254940000001722504083023327141_);stroke-width:2;stroke-miterlimit:10;" d="    M1774.7,696.5h57.7v202.3h125v47h-182.7V696.5z"></path>							<linearGradient id="SVGID_00000071540431922857709190000013898391703525813908_" gradientUnits="userSpaceOnUse" x1="1988.7473" y1="821.0967" x2="2048.4387" y2="821.0967">				<stop offset="0" style="stop-color:#212972"></stop>				<stop offset="0.9958" style="stop-color:#160661"></stop>			</linearGradient>							<path style="fill:none;stroke:url(#SVGID_00000071540431922857709190000013898391703525813908_);stroke-width:2;stroke-miterlimit:10;" d="    M1989.7,696.5h57.7v249.3h-57.7V696.5z"></path>							<linearGradient id="SVGID_00000111902393184940671820000017875696569235752630_" gradientUnits="userSpaceOnUse" x1="2089.8799" y1="821.0962" x2="2364.6667" y2="821.0962">				<stop offset="0" style="stop-color:#212972"></stop>				<stop offset="0.9958" style="stop-color:#160661"></stop>			</linearGradient>							<path style="fill:none;stroke:url(#SVGID_00000111902393184940671820000017875696569235752630_);stroke-width:2;stroke-miterlimit:10;" d="    M2090.9,821.1c0-74.1,57.7-128.9,136.4-128.9c78.3,0,136.4,54.5,136.4,128.9c0,74.4-58,128.9-136.4,128.9    C2148.6,950,2090.9,895.2,2090.9,821.1z M2305.3,821.1c0-47.4-33.5-79.8-78-79.8c-44.5,0-78,32.4-78,79.8    c0,47.4,33.5,79.8,78,79.8C2271.8,900.9,2305.3,868.5,2305.3,821.1z"></path>		</g>	</g></g><text transform="matrix(1 0 0 1 497.5439 954.9634)" class="st19 st20 st21">Portfolio</text><g>	<g>		<path class="st19" d="M661.2,787.7H299.3V425.8h361.9V787.7z M300.2,786.9h360.3V426.6H300.2V786.9z"></path>	</g>	<g>		<rect x="643.3" y="408.7" class="st19" width="35.1" height="35.1"></rect>		<rect x="643.3" y="769.8" class="st19" width="35.1" height="35.1"></rect>	</g>	<g>		<rect x="282.2" y="408.7" class="st19" width="35.1" height="35.1"></rect>		<rect x="282.2" y="769.8" class="st19" width="35.1" height="35.1"></rect>	</g></g><text transform="matrix(1 0 0 1 744.0737 1103.7703)" class="st19 st22 st23">graphic design</text><text transform="matrix(1 0 0 1 45.5864 1103.7703)" class="st19 st22 st23">app development</text><text transform="matrix(1 0 0 1 352.5771 1188.8229)" class="st19 st22 st23">search engine optimization</text><text transform="matrix(1 0 0 1 1643.0583 1188.8229)" class="st19 st22 st23">ui/ux design &amp; prototype</text><text transform="matrix(1 0 0 1 715.9882 464.781)" class="st19 st22 st23">social media management</text><text transform="matrix(1 0 0 1 1448.2354 547.5436)" class="st19 st22 st23">app Marketing</text><text transform="matrix(1 0 0 1 806.0778 547.5436)" class="st19 st22 st23">app development</text><text transform="matrix(1 0 0 1 1663.0564 464.7815)" class="st19 st22 st23">animation &amp; video editing</text><text transform="matrix(1 0 0 1 1383.1576 1103.7703)" class="st19 st22 st23">website development</text></svg>